<svg width="26" height="24" viewBox="0 0 26 24" fill="none" xmlns="http://www.w3.org/2000/svg">
<path fill-rule="evenodd" clip-rule="evenodd" d="M4.58236 6.3864C4.58236 6.3864 8.18277 4.41804 4.58236 0.75C0.981641 4.41804 4.58236 6.3864 4.58236 6.3864ZM9.82374 15.0271C10.0976 15.0271 10.3199 15.2494 10.3199 15.5233C10.3199 15.7972 10.0976 16.0192 9.82374 16.0192C9.54983 16.0192 9.32788 15.7972 9.32788 15.5233C9.32788 15.2494 9.54983 15.0271 9.82374 15.0271ZM10.0995 17.1397C10.3734 17.1397 10.5953 17.3619 10.5953 17.6358C10.5953 17.9097 10.3734 18.1317 10.0995 18.1317C9.82558 18.1317 9.60332 17.9097 9.60332 17.6358C9.60332 17.3619 9.82558 17.1397 10.0995 17.1397ZM12.359 17.7275C12.6329 17.7275 12.8548 17.9497 12.8548 18.2236C12.8548 18.4975 12.6329 18.7195 12.359 18.7195C12.0851 18.7195 11.8631 18.4975 11.8631 18.2236C11.8631 17.9497 12.0851 17.7275 12.359 17.7275ZM11.7159 15.7068C11.9898 15.7068 12.212 15.9291 12.212 16.203C12.212 16.4769 11.9898 16.6989 11.7159 16.6989C11.442 16.6989 11.22 16.4769 11.22 16.203C11.22 15.9291 11.442 15.7068 11.7159 15.7068ZM11.2566 13.6312C11.5305 13.6312 11.7527 13.8531 11.7527 14.127C11.7527 14.4009 11.5305 14.6232 11.2566 14.6232C10.9827 14.6232 10.7607 14.4009 10.7607 14.127C10.7607 13.8531 10.9827 13.6312 11.2566 13.6312ZM13.6375 16.0318L15.0605 15.7462L14.8785 14.8405L13.458 15.1258L13.6375 16.0318ZM22.0876 12.6844C22.0575 13.0969 21.7562 13.46 21.3326 13.5457L15.4199 14.732L15.6019 15.6377L21.5109 14.452C22.4396 14.2654 23.0757 13.4117 23.0093 12.4861L23.8614 12.2789C24.0978 12.2214 24.2441 11.9813 24.1866 11.7449L23.1116 7.32094C23.0541 7.08454 22.8137 6.9379 22.5773 6.99569L20.9517 7.39072C20.7153 7.4482 20.569 7.68829 20.6265 7.92469L21.7015 12.3487C21.747 12.5353 21.9063 12.6656 22.0876 12.6844ZM18.0249 3.95969V4.28954H14.4361H13.9855H13.1115V3.60893H14.4647C14.7998 1.59262 18.0249 1.70913 18.0249 3.95969ZM18.0249 4.80477V5.14722C18.0249 7.52106 14.4361 7.52106 14.4361 5.14722V4.80477H18.0249ZM14.1466 13.7425C13.4066 14.6367 12.0448 13.5104 12.785 12.6158L17.174 7.31663C17.1986 7.28712 17.2244 7.25945 17.2517 7.23394C17.909 6.4694 19.668 5.98093 20.1645 8.3812C20.2967 9.02031 20.799 11.4624 21.1454 13.1485L17.707 13.8384L17.2038 10.2361L17.1875 10.0707L14.1466 13.7425ZM21.5435 14.8802L22.1543 16.9048L25.5691 21.4281C26.2663 22.3525 24.859 23.414 24.1617 22.4896L20.6579 17.8483C20.5945 17.7659 20.5444 17.6706 20.5125 17.5648L19.8076 15.2285L21.5435 14.8802ZM19.3215 15.3259L16.09 17.8061V22.5563C16.09 23.7198 14.3206 23.7198 14.3206 22.5563L14.3227 17.3724C14.3227 17.1068 14.4423 16.8443 14.6695 16.6709L15.3956 16.1138L19.3215 15.3259ZM4.3973 15.8461H4.76711C4.81446 14.4978 7.43914 13.0686 8.91441 12.9235C8.73796 14.7191 6.65831 18.219 5.13877 16.6995C5.09666 16.6573 5.05916 16.6146 5.02442 16.5719V22.9839H4.13969V16.5719C4.10526 16.6146 4.06775 16.6573 4.02564 16.6995C2.50579 18.219 0.426455 14.7191 0.25 12.9235C1.72496 13.0686 4.34965 14.4978 4.3973 15.8461ZM0.25 8.98035C2.04559 9.1568 5.54548 11.2364 4.02564 12.756C2.50579 14.2758 0.426455 10.7759 0.25 8.98035ZM0.25 5.03686C2.04559 5.21362 5.54548 7.29296 4.02564 8.81281C2.50579 10.3327 0.426455 6.83277 0.25 5.03686ZM8.91441 8.98035C7.11882 9.1568 3.61893 11.2364 5.13877 12.756C6.65831 14.2758 8.73796 10.7759 8.91441 8.98035ZM8.91441 5.03686C7.11882 5.21362 3.61893 7.29296 5.13877 8.81281C6.65831 10.3327 8.73796 6.83277 8.91441 5.03686Z" fill="#19884A"/>
<path fill-rule="evenodd" clip-rule="evenodd" d="M7.93753 17.7675C7.93753 17.7675 8.71667 17.3249 7.93753 16.5C7.15833 17.3249 7.93753 17.7675 7.93753 17.7675ZM7.89749 19.8948H7.97751C7.98776 19.5916 8.55575 19.2702 8.875 19.2376C8.83681 19.6414 8.38677 20.4285 8.05794 20.0867C8.04883 20.0773 8.04071 20.0677 8.0332 20.0581V23H7.84174V20.0581C7.83429 20.0677 7.82617 20.0773 7.81706 20.0867C7.48816 20.4285 7.03819 19.6414 7 19.2376C7.31919 19.2702 7.88717 19.5916 7.89749 19.8948ZM7 18.3509C7.38857 18.3905 8.14596 18.8582 7.81706 19.1999C7.48816 19.5417 7.03819 18.7547 7 18.3509ZM7 17.464C7.38857 17.5038 8.14596 17.9714 7.81706 18.3132C7.48816 18.655 7.03819 17.8679 7 17.464ZM8.875 18.3509C8.48643 18.3905 7.72904 18.8582 8.05794 19.1999C8.38677 19.5417 8.83681 18.7547 8.875 18.3509ZM8.875 17.464C8.48643 17.5038 7.72904 17.9714 8.05794 18.3132C8.38677 18.655 8.83681 17.8679 8.875 17.464Z" fill="#19884A"/>
<path fill-rule="evenodd" clip-rule="evenodd" d="M1.18753 17.7675C1.18753 17.7675 1.96667 17.3249 1.18753 16.5C0.408329 17.3249 1.18753 17.7675 1.18753 17.7675ZM1.14749 19.8948H1.22751C1.23776 19.5916 1.80575 19.2702 2.125 19.2376C2.08681 19.6414 1.63677 20.4285 1.30794 20.0867C1.29883 20.0773 1.29071 20.0677 1.2832 20.0581V23H1.09174V20.0581C1.08429 20.0677 1.07617 20.0773 1.06706 20.0867C0.738159 20.4285 0.288185 19.6414 0.25 19.2376C0.569186 19.2702 1.13717 19.5916 1.14749 19.8948ZM0.25 18.3509C0.638571 18.3905 1.39596 18.8582 1.06706 19.1999C0.738159 19.5417 0.288185 18.7547 0.25 18.3509ZM0.25 17.464C0.638571 17.5038 1.39596 17.9714 1.06706 18.3132C0.738159 18.655 0.288185 17.8679 0.25 17.464ZM2.125 18.3509C1.73643 18.3905 0.979045 18.8582 1.30794 19.1999C1.63677 19.5417 2.08681 18.7547 2.125 18.3509ZM2.125 17.464C1.73643 17.5038 0.979045 17.9714 1.30794 18.3132C1.63677 18.655 2.08681 17.8679 2.125 17.464Z" fill="#19884A"/>
<path fill-rule="evenodd" clip-rule="evenodd" d="M3.00483 20.1825C3.00483 20.1825 3.42436 19.9442 3.00483 19.5C2.58525 19.9442 3.00483 20.1825 3.00483 20.1825ZM2.98326 21.328H3.02635C3.03187 21.1647 3.33771 20.9917 3.50962 20.9741C3.48905 21.1915 3.24672 21.6153 3.06966 21.4313C3.06475 21.4262 3.06038 21.4211 3.05634 21.4159V23H2.95324V21.4159C2.94923 21.4211 2.94486 21.4262 2.93995 21.4313C2.76285 21.6153 2.52056 21.1915 2.5 20.9741C2.67187 20.9917 2.97771 21.1647 2.98326 21.328ZM2.5 20.4966C2.70923 20.518 3.11705 20.7698 2.93995 20.9538C2.76285 21.1378 2.52056 20.714 2.5 20.4966ZM2.5 20.0191C2.70923 20.0405 3.11705 20.2923 2.93995 20.4763C2.76285 20.6604 2.52056 20.2366 2.5 20.0191ZM3.50962 20.4966C3.30038 20.518 2.89256 20.7698 3.06966 20.9538C3.24672 21.1378 3.48905 20.714 3.50962 20.4966ZM3.50962 20.0191C3.30038 20.0405 2.89256 20.2923 3.06966 20.4763C3.24672 20.6604 3.48905 20.2366 3.50962 20.0191Z" fill="#19884A"/>
<path fill-rule="evenodd" clip-rule="evenodd" d="M6.00483 20.1825C6.00483 20.1825 6.42436 19.9442 6.00483 19.5C5.58525 19.9442 6.00483 20.1825 6.00483 20.1825ZM5.98326 21.328H6.02635C6.03187 21.1647 6.33771 20.9917 6.50962 20.9741C6.48905 21.1915 6.24672 21.6153 6.06966 21.4313C6.06475 21.4262 6.06038 21.4211 6.05634 21.4159V23H5.95324V21.4159C5.94923 21.4211 5.94486 21.4262 5.93995 21.4313C5.76285 21.6153 5.52056 21.1915 5.5 20.9741C5.67187 20.9917 5.97771 21.1647 5.98326 21.328ZM5.5 20.4966C5.70923 20.518 6.11705 20.7698 5.93995 20.9538C5.76285 21.1378 5.52056 20.714 5.5 20.4966ZM5.5 20.0191C5.70923 20.0405 6.11705 20.2923 5.93995 20.4763C5.76285 20.6604 5.52056 20.2366 5.5 20.0191ZM6.50962 20.4966C6.30038 20.518 5.89256 20.7698 6.06966 20.9538C6.24672 21.1378 6.48905 20.714 6.50962 20.4966ZM6.50962 20.0191C6.30038 20.0405 5.89256 20.2923 6.06966 20.4763C6.24672 20.6604 6.48905 20.2366 6.50962 20.0191Z" fill="#19884A"/>
<path fill-rule="evenodd" clip-rule="evenodd" d="M9.75483 20.1825C9.75483 20.1825 10.1744 19.9442 9.75483 19.5C9.33525 19.9442 9.75483 20.1825 9.75483 20.1825ZM9.73326 21.328H9.77635C9.78187 21.1647 10.0877 20.9917 10.2596 20.9741C10.2391 21.1915 9.99672 21.6153 9.81966 21.4313C9.81475 21.4262 9.81038 21.4211 9.80634 21.4159V23H9.70324V21.4159C9.69923 21.4211 9.69486 21.4262 9.68995 21.4313C9.51285 21.6153 9.27056 21.1915 9.25 20.9741C9.42187 20.9917 9.72771 21.1647 9.73326 21.328ZM9.25 20.4966C9.45923 20.518 9.86705 20.7698 9.68995 20.9538C9.51285 21.1378 9.27056 20.714 9.25 20.4966ZM9.25 20.0191C9.45923 20.0405 9.86705 20.2923 9.68995 20.4763C9.51285 20.6604 9.27056 20.2366 9.25 20.0191ZM10.2596 20.4966C10.0504 20.518 9.64256 20.7698 9.81966 20.9538C9.99672 21.1378 10.2391 20.714 10.2596 20.4966ZM10.2596 20.0191C10.0504 20.0405 9.64256 20.2923 9.81966 20.4763C9.99672 20.6604 10.2391 20.2366 10.2596 20.0191Z" fill="#19884A"/>
</svg>
