<svg width="26" height="15" viewBox="0 0 26 15" fill="none" xmlns="http://www.w3.org/2000/svg">
<path d="M10.8794 7.36575C11.4163 6.47996 12.0068 5.64786 12.7047 4.86944C10.2889 3.01733 7.4973 1.72891 4.57151 1.0847C3.73941 0.896803 2.85362 0.950491 2.0752 1.2726C2.42414 1.40681 2.79993 1.54102 3.14888 1.70207C6.12835 3.01734 8.75888 4.94996 10.8794 7.36575Z" fill="#19884A"/>
<path d="M13.1076 4.43989C13.8055 3.71516 14.5571 3.07095 15.3892 2.50727C12.2487 0.547791 8.43711 -0.203795 4.70605 0.520943C5.96763 0.789364 7.22921 1.192 8.43711 1.702C10.1013 2.45358 11.685 3.36621 13.1076 4.43989Z" fill="#19884A"/>
<path d="M2.18263 1.99724C1.53842 1.75566 0.840527 1.80934 0.25 2.13145V11.7141C0.25 13.0025 1.29684 14.0225 2.55842 14.0225H8.75895C8.92 11.8483 9.56421 9.78145 10.5574 7.9025C8.27579 5.24514 5.40369 3.23198 2.18263 1.99724Z" fill="#19884A"/>
<path d="M21.2138 0.547791C14.7448 1.83621 9.80587 7.31201 9.24219 14.0225H12.3827C13.188 9.88885 15.1743 6.10411 18.2075 3.04411C19.1469 2.13148 20.1401 1.29937 21.2138 0.547791Z" fill="#19884A"/>
<path d="M25.7498 0.333081C25.1862 0.279397 24.5956 0.467292 24.1662 0.869923C20.5425 4.22519 18.1267 8.84203 17.5898 14.0226H23.4414C24.7298 14.0226 25.7498 12.9757 25.7498 11.7141V0.333081Z" fill="#19884A"/>
<path d="M23.9516 0.252502C23.0926 0.252502 22.2605 0.547772 21.5626 1.03093C17.2142 4.03725 14.0468 8.65409 12.9731 14.0225H17.0263C17.4826 9.1104 19.63 4.57409 23.1463 1.03093C23.3879 0.789351 23.6832 0.520924 23.9516 0.252502Z" fill="#19884A"/>
</svg>
