<svg width="30" height="28" viewBox="0 0 30 28" fill="none" xmlns="http://www.w3.org/2000/svg">
<path d="M19.1978 20.0258C15.9094 20.0258 13.2334 16.8845 13.2334 13.024C13.2334 9.16355 15.9094 6.02216 19.1978 6.02216C22.4863 6.02216 25.1622 9.16355 25.1622 13.024C25.1622 16.8845 22.4863 20.0258 19.1978 20.0258ZM19.1978 8.39056C17.0234 8.39056 15.2509 10.4668 15.2509 13.024C15.2509 15.5812 17.0234 17.6574 19.1978 17.6574C21.3723 17.6574 23.1409 15.5767 23.1409 13.0195C23.1409 10.4624 21.3723 8.39056 19.1978 8.39056Z" fill="#19884A"/>
<path d="M14.619 1.62687C15.0707 1.32127 15.6488 1.50104 15.9091 2.03134L16.8547 3.95033C17.115 4.48064 16.9619 5.15925 16.5102 5.46485C16.0584 5.77045 15.4804 5.59069 15.22 5.06038L14.2745 3.14139C14.0103 2.60659 14.1673 1.93247 14.619 1.62687ZM26.322 10.9926C26.456 11.5859 26.9728 11.9364 27.4781 11.7746L29.3004 11.1994C29.8057 11.0421 30.1043 10.4354 29.9665 9.84213C29.8325 9.24891 29.3157 8.89837 28.8104 9.06015L26.9881 9.6354C26.4866 9.7927 26.188 10.3994 26.322 10.9926ZM25.8167 15.9766C25.6827 16.5698 25.9813 17.1765 26.4828 17.3338L28.305 17.9091C28.8104 18.0664 29.3272 17.7158 29.4612 17.1271C29.5952 16.5339 29.2965 15.9272 28.795 15.7699L26.9728 15.1946C26.4713 15.0373 25.9545 15.3879 25.8167 15.9766ZM20.882 0C21.4027 0 21.8276 0.494354 21.8276 1.11005V3.32565C21.8276 3.93685 21.4065 4.4357 20.882 4.4357C20.3614 4.4357 19.9365 3.94135 19.9365 3.32565V1.11005C19.9365 0.498848 20.3576 0 20.882 0ZM27.2791 3.12342C26.9115 2.69198 26.3143 2.69198 25.943 3.12342L24.6069 4.69187C24.2394 5.1233 24.2394 5.82438 24.6069 6.26031C24.9744 6.69175 25.5717 6.69175 25.943 6.26031L27.2791 4.69187C27.6504 4.25594 27.6504 3.55485 27.2791 3.12342Z" fill="#19884A"/>
<path d="M5.0598 27.2344C3.81945 27.2344 2.63652 26.6726 1.69476 25.6255C0.626681 24.439 0.0141602 22.7717 0.0141602 21.0549C0.0141602 17.8506 2.10822 15.2036 4.77268 14.9115C5.14785 10.8533 8.08412 7.68042 11.6406 7.68042C14.6419 7.68042 17.2681 9.95445 18.1945 13.2217H18.2481C21.5404 13.2217 24.2164 16.3631 24.2164 20.2235C24.2164 22.6189 23.1943 24.821 21.4792 26.1153C20.4647 26.8838 19.3315 27.2658 18.2213 27.2254C18.0912 27.2209 17.9649 27.2119 17.8385 27.1984C17.8002 27.1984 17.762 27.2029 17.7237 27.2029H5.57279C5.49239 27.2119 5.412 27.2209 5.33161 27.2254C5.23973 27.2299 5.15168 27.2344 5.0598 27.2344ZM5.27036 17.2529C3.48639 17.2529 2.03165 18.9607 2.03165 21.0549C2.03165 22.1245 2.41448 23.1627 3.08059 23.9042C3.68163 24.5738 4.44728 24.9154 5.21293 24.857C5.27801 24.8525 5.34692 24.848 5.412 24.839L5.51919 24.83H17.9572C18.0644 24.8435 18.1716 24.8525 18.2788 24.857C19.1669 24.8929 19.9173 24.475 20.3805 24.1199C21.5213 23.266 22.1989 21.8099 22.1989 20.2235C22.1989 17.6709 20.4264 15.5901 18.252 15.5901C18.0338 15.5901 17.8156 15.6125 17.605 15.653L16.6326 15.8417L16.4489 14.7047C16.0086 12.0083 13.9911 10.0488 11.6444 10.0488C8.94548 10.0488 6.75189 12.624 6.75189 15.7923C6.75189 15.8777 6.75189 15.9631 6.75572 16.0485L6.80932 17.4372L5.63404 17.2799C5.51536 17.2619 5.39669 17.2529 5.27036 17.2529Z" fill="#19884A"/>
</svg>
