<svg width="24" height="24" viewBox="0 0 24 24" fill="none" xmlns="http://www.w3.org/2000/svg">
<path d="M11.9277 23.0761L11.9981 23.1423L12.0667 23.0743L12.4836 22.6612C12.6523 22.5049 14.5391 20.6951 16.387 18.1157C18.2373 15.5329 20.0618 12.1604 20.0618 8.89595C20.0618 4.48958 16.4411 0.903296 11.9963 0.903296C7.55148 0.903296 3.93076 4.48958 3.93076 8.89595C3.93076 12.2533 5.75493 15.6308 7.60575 18.1962C9.45768 20.7631 11.3486 22.5336 11.5099 22.6828C11.51 22.6829 11.5101 22.683 11.5102 22.6831L11.9277 23.0761ZM5.40608 8.89595C5.40608 5.28538 8.37103 2.34623 12.0172 2.34623C15.6629 2.34623 18.6284 5.30572 18.6492 8.89619C18.6491 11.3934 17.3821 14.0556 15.9033 16.3064C14.4686 18.4902 12.8439 20.273 12.0167 21.1207C11.199 20.2933 9.58048 18.546 8.14926 16.3762C6.67349 14.1389 5.40608 11.4661 5.40608 8.89595ZM8.13304 8.66808C8.13304 10.7957 9.87214 12.5176 12.0172 12.5176C14.1622 12.5176 15.9013 10.7957 15.9013 8.66808C15.9013 6.54042 14.1622 4.81855 12.0172 4.81855C9.87214 4.81855 8.13304 6.54042 8.13304 8.66808ZM9.58746 8.66808C9.58746 7.33622 10.6708 6.26149 12.0172 6.26149C13.3432 6.26149 14.4469 7.33676 14.4469 8.66808C14.4469 9.99993 13.3636 11.0747 12.0172 11.0747C10.6708 11.0747 9.58746 9.99993 9.58746 8.66808Z" fill="black" stroke="black" stroke-width="0.2"/>
</svg>
