<svg width="24" height="24" viewBox="0 0 24 24" fill="none" xmlns="http://www.w3.org/2000/svg">
<g clip-path="url(#clip0_2490_5003)">
<path d="M1.87237 0.31537L12 10.4433L22.1277 0.31537C22.5209 -0.0778857 23.1397 -0.108135 23.5677 0.22462L23.6847 0.329593C24.1107 0.75562 24.1107 1.44635 23.6847 1.87237L13.5568 12L23.6847 22.1277C24.0779 22.5209 24.1082 23.1397 23.7754 23.5677L23.6704 23.6847C23.2444 24.1107 22.5537 24.1107 22.1277 23.6847L12 13.5567L1.87237 23.6847C1.47911 24.0779 0.860313 24.1082 0.432359 23.7754L0.315371 23.6704C-0.110656 23.2444 -0.110656 22.5537 0.315371 22.1277L10.4433 12L0.315371 1.87237C-0.0778843 1.47912 -0.108137 0.86032 0.224617 0.432366L0.32962 0.31537C0.755647 -0.110657 1.44634 -0.110657 1.87237 0.31537ZM1.08674 1.10098L11.9861 12L1.08674 22.899L1.10099 22.9133L12 12.0139L22.8991 22.9133L22.9133 22.899L12.0139 12L22.9133 1.10098L22.8991 1.08676L12 11.9861L1.10099 1.08676L1.08674 1.10098Z" fill="black"/>
</g>
<defs>
<clipPath id="clip0_2490_5003">
<rect width="24" height="24" fill="white"/>
</clipPath>
</defs>
</svg>
