<svg width="30" height="30" viewBox="0 0 30 30" fill="none" xmlns="http://www.w3.org/2000/svg">
<path d="M23.75 17.5C24.0124 17.5001 24.2683 17.4175 24.4812 17.2641C24.6941 17.1106 24.8533 16.894 24.9362 16.645L27.4362 9.145C27.4988 8.95708 27.5159 8.75698 27.4859 8.56119C27.456 8.3654 27.38 8.17952 27.2642 8.01887C27.1483 7.85822 26.996 7.7274 26.8196 7.63718C26.6433 7.54697 26.4481 7.49995 26.25 7.5H8.75V2.5C8.75 2.16848 8.6183 1.85054 8.38388 1.61612C8.14946 1.3817 7.83152 1.25 7.5 1.25H3.75C3.41848 1.25 3.10054 1.3817 2.86612 1.61612C2.6317 1.85054 2.5 2.16848 2.5 2.5C2.5 2.83152 2.6317 3.14946 2.86612 3.38388C3.10054 3.6183 3.41848 3.75 3.75 3.75H6.25V21.25C6.25 21.5815 6.38169 21.8995 6.61611 22.1339C6.85054 22.3683 7.16848 22.5 7.5 22.5H22.5C22.8315 22.5 23.1495 22.3683 23.3839 22.1339C23.6183 21.8995 23.75 21.5815 23.75 21.25C23.75 20.9185 23.6183 20.6005 23.3839 20.3661C23.1495 20.1317 22.8315 20 22.5 20H8.75V17.5H23.75ZM8.75 10H24.5162L22.8487 15H8.75V10ZM8.125 23.75C8.49584 23.75 8.85835 23.86 9.16669 24.066C9.47503 24.272 9.71536 24.5649 9.85727 24.9075C9.99919 25.2501 10.0363 25.6271 9.96397 25.9908C9.89162 26.3545 9.71305 26.6886 9.45082 26.9508C9.1886 27.213 8.85451 27.3916 8.49079 27.464C8.12708 27.5363 7.75008 27.4992 7.40747 27.3573C7.06486 27.2154 6.77202 26.975 6.56599 26.6667C6.35997 26.3584 6.25 25.9958 6.25 25.625C6.25 25.1277 6.44754 24.6508 6.79917 24.2992C7.1508 23.9475 7.62772 23.75 8.125 23.75ZM20.625 23.75C20.9958 23.75 21.3583 23.86 21.6667 24.066C21.975 24.272 22.2153 24.5649 22.3573 24.9075C22.4992 25.2501 22.5363 25.6271 22.464 25.9908C22.3916 26.3545 22.213 26.6886 21.9508 26.9508C21.6886 27.213 21.3545 27.3916 20.9908 27.464C20.6271 27.5363 20.2501 27.4992 19.9075 27.3573C19.5648 27.2154 19.272 26.975 19.066 26.6667C18.86 26.3584 18.75 25.9958 18.75 25.625C18.75 25.1277 18.9475 24.6508 19.2992 24.2992C19.6508 23.9475 20.1277 23.75 20.625 23.75Z" fill="black"/>
</svg>
