<svg width="315" height="315" viewBox="0 0 315 315" fill="none" xmlns="http://www.w3.org/2000/svg">
<g filter="url(#filter0_d_309_1996)">
<path d="M257.752 64.8899C242.077 29.15 204.454 15.6932 174.768 39.6899C163.176 49.0517 155.944 63.9512 141.75 69.9299C128.431 75.5369 111.56 73.8863 97.1583 76.9229C66.4899 83.3489 25.1997 107.73 28.3497 145.297C29.7294 161.752 40.83 180.029 46.3173 195.426C52.6173 213.141 56.3973 235.305 73.0734 245.895C101.663 264.077 136.149 249.215 161.903 234.555C175.763 226.674 183.393 221.829 198.317 224.532C212.133 227.052 224.576 235.872 238.077 225.408C248.213 217.551 249.051 201.631 257.563 192.282C267.151 181.749 276.872 180.986 281.855 165.154C287.897 145.946 278.995 133.944 272.979 116.783C266.962 99.6218 265.135 81.7046 257.752 64.8899Z" fill="#92E3A9"/>
<g opacity="0.7">
<path d="M257.752 64.8899C242.077 29.15 204.454 15.6932 174.768 39.6899C163.176 49.0517 155.944 63.9512 141.75 69.9299C128.431 75.5369 111.56 73.8863 97.1583 76.9229C66.4899 83.3489 25.1997 107.73 28.3497 145.297C29.7294 161.752 40.83 180.029 46.3173 195.426C52.6173 213.141 56.3973 235.305 73.0734 245.895C101.663 264.077 136.149 249.215 161.903 234.555C175.763 226.674 183.393 221.829 198.317 224.532C212.133 227.052 224.576 235.872 238.077 225.408C248.213 217.551 249.051 201.631 257.563 192.282C267.151 181.749 276.872 180.986 281.855 165.154C287.897 145.946 278.995 133.944 272.979 116.783C266.962 99.6218 265.135 81.7046 257.752 64.8899Z" fill="white"/>
</g>
<path d="M138.48 275.738C192.265 275.738 235.866 273.022 235.866 269.671C235.866 266.321 192.265 263.604 138.48 263.604C84.6956 263.604 41.0947 266.321 41.0947 269.671C41.0947 273.022 84.6956 275.738 138.48 275.738Z" fill="#92E3A9"/>
<path opacity="0.8" d="M138.48 275.738C192.265 275.738 235.866 273.022 235.866 269.671C235.866 266.321 192.265 263.604 138.48 263.604C84.6956 263.604 41.0947 266.321 41.0947 269.671C41.0947 273.022 84.6956 275.738 138.48 275.738Z" fill="white"/>
<path d="M211.661 38.9717H113.74C106.979 38.9717 101.499 44.4521 101.499 51.2126V257.941C101.499 264.701 106.979 270.182 113.74 270.182H211.661C218.421 270.182 223.902 264.701 223.902 257.941V51.2126C223.902 44.4521 218.421 38.9717 211.661 38.9717Z" fill="#263238"/>
<path d="M218.458 64.3608H106.936V244.793H218.458V64.3608Z" fill="white" stroke="#263238" stroke-width="1.33739" stroke-miterlimit="10"/>
<path d="M179.794 137.423C189.234 127.983 189.234 112.677 179.794 103.237C170.353 93.7969 155.048 93.7969 145.608 103.237C136.167 112.677 136.167 127.983 145.608 137.423C155.048 146.863 170.353 146.863 179.794 137.423Z" fill="#92E3A9"/>
<path d="M194.437 233.446H130.971C130.828 233.447 130.686 233.42 130.554 233.366C130.422 233.312 130.302 233.232 130.2 233.131C130.099 233.031 130.019 232.911 129.964 232.779C129.909 232.647 129.881 232.506 129.881 232.363C129.88 232.219 129.908 232.077 129.962 231.945C130.017 231.812 130.097 231.692 130.198 231.59C130.3 231.489 130.42 231.409 130.553 231.354C130.685 231.3 130.827 231.272 130.971 231.273H194.437C194.58 231.273 194.721 231.301 194.853 231.356C194.985 231.411 195.105 231.491 195.205 231.593C195.306 231.694 195.386 231.814 195.44 231.946C195.494 232.078 195.521 232.22 195.521 232.363C195.521 232.65 195.406 232.926 195.203 233.129C195 233.332 194.724 233.446 194.437 233.446Z" fill="#92E3A9"/>
<path d="M196.503 158.092H128.897C127.502 158.092 126.371 159.223 126.371 160.619V168.588C126.371 169.983 127.502 171.114 128.897 171.114H196.503C197.898 171.114 199.029 169.983 199.029 168.588V160.619C199.029 159.223 197.898 158.092 196.503 158.092Z" fill="#92E3A9"/>
<path d="M196.503 182.448H128.897C127.502 182.448 126.371 183.579 126.371 184.974V192.944C126.371 194.339 127.502 195.47 128.897 195.47H196.503C197.898 195.47 199.029 194.339 199.029 192.944V184.974C199.029 183.579 197.898 182.448 196.503 182.448Z" fill="#92E3A9"/>
<path d="M174.736 132.388L167.623 128.293V124.91C168.653 123.664 169.399 122.209 169.81 120.645C170.054 120.732 170.312 120.777 170.572 120.777C171.454 120.777 172.015 118.043 172.109 116.09C173.136 113.917 171.737 112.644 171.737 112.644C171.737 112.644 172.317 112.064 172.701 109.74C173.086 107.415 171.347 108.385 169.992 106.256C168.638 104.126 167.668 101.808 163.22 101.808C161.994 101.768 160.785 102.097 159.749 102.753C158.713 103.409 157.898 104.362 157.411 105.487C156.304 105.491 155.201 105.62 154.123 105.871C152.762 106.256 152.377 110.71 153.537 112.455C154.056 113.409 154.333 114.475 154.343 115.561C154.034 115.183 153.713 115.082 153.537 115.939C153.152 117.873 154.702 120.582 154.702 120.582L155.502 120.355C155.905 122.026 156.683 123.584 157.777 124.91V128.293L150.664 132.388C149.833 132.868 149.143 133.557 148.663 134.388C148.184 135.218 147.93 136.16 147.93 137.119V139.463C152.16 142.731 157.355 144.504 162.7 144.504C168.046 144.504 173.24 142.731 177.47 139.463V137.119C177.471 136.16 177.218 135.218 176.738 134.387C176.258 133.556 175.568 132.867 174.736 132.388Z" fill="#263238"/>
<path d="M135.575 192.232C135.412 192.229 135.257 192.164 135.141 192.049C135.079 191.993 135.029 191.925 134.996 191.849C134.962 191.773 134.945 191.691 134.945 191.608C134.947 191.494 134.98 191.383 135.04 191.287L136.174 189.472L133.963 189.541C133.879 189.547 133.796 189.534 133.718 189.505C133.64 189.476 133.568 189.43 133.509 189.371C133.406 189.256 133.35 189.107 133.35 188.952C133.35 188.798 133.406 188.649 133.509 188.534C133.567 188.473 133.638 188.425 133.716 188.395C133.795 188.364 133.879 188.351 133.963 188.357L136.143 188.439L135.021 186.631C134.96 186.532 134.927 186.419 134.927 186.303C134.926 186.22 134.943 186.138 134.977 186.062C135.01 185.986 135.06 185.918 135.122 185.862C135.238 185.747 135.394 185.682 135.557 185.68C135.664 185.68 135.769 185.711 135.859 185.769C135.95 185.827 136.022 185.91 136.067 186.007L137.144 187.954L138.209 186.02C138.259 185.917 138.337 185.829 138.434 185.767C138.53 185.705 138.642 185.67 138.757 185.667C138.837 185.667 138.915 185.684 138.988 185.717C139.061 185.75 139.126 185.797 139.179 185.856C139.295 185.976 139.358 186.137 139.355 186.303C139.355 186.412 139.327 186.518 139.274 186.612L138.133 188.439L140.345 188.357C140.429 188.351 140.513 188.364 140.591 188.395C140.669 188.425 140.74 188.473 140.798 188.534C140.906 188.645 140.964 188.795 140.962 188.949C140.962 189.105 140.903 189.256 140.798 189.371C140.739 189.43 140.668 189.476 140.59 189.505C140.511 189.534 140.428 189.547 140.345 189.541L138.121 189.472L139.23 191.268C139.292 191.368 139.324 191.484 139.324 191.602C139.324 191.769 139.258 191.929 139.139 192.047C139.021 192.165 138.861 192.232 138.694 192.232C138.586 192.23 138.481 192.197 138.391 192.137C138.302 192.076 138.232 191.991 138.19 191.891L137.138 190.001L136.092 191.891C136.046 191.99 135.973 192.074 135.882 192.134C135.791 192.194 135.685 192.228 135.575 192.232Z" fill="#263238"/>
<path d="M145.795 192.232C145.632 192.229 145.476 192.164 145.36 192.049C145.298 191.993 145.249 191.925 145.215 191.849C145.181 191.773 145.164 191.691 145.165 191.608C145.167 191.494 145.199 191.383 145.259 191.287L146.393 189.472L144.188 189.541C144.104 189.545 144.02 189.532 143.941 189.503C143.862 189.474 143.79 189.429 143.728 189.371C143.645 189.285 143.589 189.176 143.568 189.057C143.548 188.939 143.563 188.817 143.613 188.708C143.663 188.598 143.744 188.506 143.847 188.444C143.949 188.381 144.068 188.351 144.188 188.357L146.362 188.439L145.24 186.631C145.179 186.532 145.147 186.419 145.146 186.303C145.145 186.22 145.162 186.138 145.196 186.062C145.23 185.986 145.279 185.918 145.341 185.862C145.457 185.747 145.613 185.682 145.776 185.68C145.883 185.68 145.988 185.711 146.078 185.769C146.169 185.827 146.241 185.91 146.286 186.007L147.363 187.954L148.428 186.02C148.479 185.917 148.556 185.829 148.653 185.767C148.75 185.705 148.861 185.67 148.976 185.667C149.056 185.667 149.135 185.683 149.208 185.716C149.28 185.749 149.345 185.796 149.398 185.856C149.457 185.915 149.503 185.985 149.534 186.061C149.566 186.138 149.582 186.22 149.581 186.303C149.579 186.412 149.548 186.518 149.493 186.612L148.353 188.439L150.57 188.37C150.653 188.364 150.736 188.377 150.814 188.408C150.891 188.438 150.961 188.485 151.017 188.546C151.125 188.658 151.184 188.807 151.181 188.962C151.181 189.118 151.122 189.268 151.017 189.384C150.959 189.443 150.889 189.488 150.812 189.517C150.735 189.547 150.652 189.559 150.57 189.554L148.34 189.485L149.449 191.28C149.511 191.381 149.544 191.496 149.543 191.614C149.543 191.781 149.477 191.942 149.359 192.06C149.241 192.178 149.08 192.244 148.913 192.244C148.805 192.243 148.7 192.21 148.61 192.149C148.521 192.089 148.451 192.004 148.409 191.904L147.357 190.014L146.311 191.904C146.263 192 146.19 192.082 146.099 192.14C146.008 192.197 145.902 192.229 145.795 192.232Z" fill="#263238"/>
<path d="M156.019 192.232C155.854 192.231 155.696 192.165 155.578 192.049C155.516 191.993 155.467 191.925 155.433 191.849C155.4 191.773 155.382 191.691 155.383 191.608C155.385 191.494 155.418 191.383 155.478 191.287L156.612 189.472L154.407 189.541C154.288 189.546 154.17 189.516 154.069 189.453C153.968 189.391 153.888 189.3 153.838 189.192C153.789 189.084 153.773 188.963 153.792 188.846C153.811 188.729 153.865 188.62 153.947 188.534C154.006 188.473 154.078 188.426 154.157 188.395C154.237 188.365 154.322 188.352 154.407 188.357L156.58 188.439L155.459 186.631C155.398 186.532 155.365 186.419 155.364 186.303C155.366 186.221 155.384 186.139 155.418 186.063C155.451 185.988 155.5 185.919 155.559 185.862C155.677 185.746 155.835 185.68 156 185.68C156.107 185.681 156.21 185.713 156.299 185.771C156.389 185.829 156.46 185.911 156.504 186.007L157.582 187.954L158.646 186.02C158.697 185.917 158.775 185.829 158.871 185.767C158.968 185.705 159.08 185.67 159.195 185.667C159.274 185.667 159.353 185.683 159.426 185.716C159.499 185.749 159.564 185.796 159.617 185.856C159.675 185.915 159.721 185.985 159.753 186.061C159.784 186.138 159.8 186.22 159.799 186.303C159.797 186.412 159.767 186.518 159.711 186.612L158.571 188.439L160.788 188.357C160.87 188.349 160.952 188.358 161.03 188.385C161.107 188.411 161.179 188.454 161.238 188.51C161.298 188.566 161.345 188.634 161.376 188.71C161.407 188.786 161.422 188.867 161.418 188.949C161.42 189.105 161.364 189.255 161.261 189.371C161.202 189.43 161.131 189.476 161.052 189.505C160.974 189.534 160.891 189.547 160.807 189.541L158.583 189.472L159.686 191.268C159.748 191.368 159.781 191.484 159.78 191.602C159.778 191.684 159.76 191.766 159.727 191.842C159.693 191.917 159.645 191.986 159.585 192.043C159.53 192.102 159.464 192.149 159.39 192.181C159.317 192.214 159.237 192.231 159.157 192.232C159.05 192.23 158.945 192.197 158.857 192.136C158.768 192.076 158.7 191.991 158.659 191.891L157.601 190.001L156.555 191.891C156.508 191.994 156.432 192.08 156.337 192.14C156.242 192.201 156.132 192.232 156.019 192.232Z" fill="#263238"/>
<path d="M166.238 192.232C166.073 192.231 165.914 192.165 165.797 192.049C165.678 191.933 165.61 191.774 165.608 191.608C165.606 191.495 165.637 191.383 165.696 191.287L166.83 189.472L164.625 189.541C164.541 189.545 164.457 189.532 164.378 189.503C164.299 189.474 164.227 189.429 164.165 189.371C164.063 189.256 164.006 189.107 164.006 188.952C164.006 188.798 164.063 188.649 164.165 188.534C164.226 188.475 164.298 188.429 164.377 188.398C164.456 188.368 164.541 188.354 164.625 188.357L166.805 188.439L165.69 186.631C165.629 186.532 165.596 186.419 165.595 186.303C165.597 186.221 165.616 186.139 165.649 186.063C165.683 185.988 165.731 185.919 165.791 185.862C165.908 185.746 166.066 185.68 166.232 185.68C166.339 185.68 166.444 185.711 166.534 185.769C166.625 185.827 166.697 185.91 166.742 186.007L167.813 187.954L168.878 186.02C168.928 185.917 169.006 185.829 169.103 185.767C169.199 185.705 169.311 185.67 169.426 185.667C169.506 185.667 169.584 185.683 169.657 185.716C169.73 185.749 169.795 185.796 169.848 185.856C169.906 185.915 169.953 185.985 169.984 186.061C170.015 186.138 170.031 186.22 170.031 186.303C170.028 186.412 169.998 186.518 169.942 186.612L168.802 188.439L171.02 188.357C171.101 188.349 171.184 188.358 171.261 188.385C171.339 188.411 171.41 188.454 171.47 188.51C171.529 188.566 171.576 188.634 171.607 188.71C171.638 188.786 171.653 188.867 171.65 188.949C171.651 189.105 171.595 189.255 171.492 189.371C171.433 189.43 171.362 189.476 171.284 189.505C171.205 189.534 171.122 189.547 171.039 189.541L168.815 189.472L169.917 191.268C169.979 191.368 170.012 191.484 170.012 191.602C170.012 191.685 169.995 191.767 169.962 191.843C169.928 191.919 169.878 191.987 169.816 192.043C169.762 192.102 169.695 192.149 169.622 192.181C169.548 192.214 169.469 192.231 169.388 192.232C169.281 192.23 169.177 192.197 169.088 192.136C169 192.076 168.931 191.991 168.89 191.891L167.832 190.001L166.786 191.891C166.738 191.996 166.661 192.083 166.563 192.144C166.466 192.204 166.353 192.235 166.238 192.232Z" fill="#263238"/>
<path d="M176.457 192.232C176.292 192.231 176.133 192.165 176.016 192.049C175.918 191.95 175.856 191.822 175.839 191.684C175.822 191.546 175.851 191.406 175.921 191.287L177.049 189.472L174.844 189.541C174.76 189.545 174.676 189.532 174.597 189.503C174.518 189.474 174.445 189.429 174.384 189.371C174.281 189.256 174.225 189.107 174.225 188.952C174.225 188.798 174.281 188.649 174.384 188.534C174.445 188.475 174.517 188.429 174.596 188.398C174.675 188.368 174.759 188.354 174.844 188.357L177.024 188.439L175.902 186.631C175.841 186.532 175.809 186.419 175.808 186.303C175.81 186.137 175.878 185.979 175.997 185.862C176.114 185.746 176.273 185.68 176.438 185.68C176.545 185.68 176.65 185.711 176.741 185.769C176.831 185.827 176.903 185.91 176.948 186.007L178.019 187.954L179.084 186.02C179.134 185.917 179.212 185.829 179.309 185.767C179.405 185.705 179.517 185.67 179.632 185.667C179.713 185.667 179.793 185.683 179.866 185.716C179.94 185.748 180.006 185.796 180.06 185.856C180.176 185.976 180.239 186.137 180.237 186.303C180.235 186.412 180.204 186.518 180.149 186.612L179.008 188.439L181.226 188.357C181.307 188.349 181.39 188.358 181.467 188.385C181.545 188.411 181.616 188.454 181.676 188.51C181.735 188.566 181.782 188.634 181.813 188.71C181.845 188.786 181.859 188.867 181.856 188.949C181.857 189.105 181.801 189.255 181.698 189.371C181.639 189.43 181.568 189.476 181.49 189.505C181.412 189.534 181.328 189.547 181.245 189.541L179.021 189.472L180.123 191.268C180.186 191.368 180.218 191.484 180.218 191.602C180.219 191.685 180.201 191.767 180.168 191.843C180.134 191.919 180.085 191.987 180.023 192.043C179.968 192.102 179.902 192.149 179.828 192.181C179.754 192.214 179.675 192.231 179.594 192.232C179.487 192.23 179.383 192.197 179.294 192.136C179.206 192.076 179.137 191.991 179.096 191.891L178.038 190.001L176.992 191.891C176.945 191.994 176.87 192.08 176.775 192.14C176.68 192.201 176.569 192.232 176.457 192.232Z" fill="#263238"/>
<path d="M186.675 192.232C186.512 192.229 186.357 192.164 186.241 192.049C186.179 191.993 186.129 191.925 186.096 191.849C186.062 191.773 186.045 191.691 186.045 191.608C186.047 191.494 186.08 191.383 186.14 191.287L187.268 189.472L185.063 189.541C184.982 189.548 184.9 189.537 184.823 189.51C184.747 189.483 184.676 189.44 184.617 189.384C184.558 189.328 184.511 189.261 184.479 189.186C184.447 189.111 184.432 189.031 184.433 188.949C184.432 188.872 184.447 188.796 184.476 188.724C184.505 188.653 184.548 188.588 184.603 188.534C184.661 188.473 184.732 188.425 184.81 188.395C184.888 188.364 184.972 188.351 185.056 188.357L187.236 188.439L186.115 186.631C186.054 186.532 186.021 186.419 186.02 186.303C186.023 186.137 186.091 185.979 186.209 185.862C186.327 185.746 186.485 185.68 186.65 185.68C186.758 185.68 186.863 185.711 186.953 185.769C187.043 185.827 187.115 185.91 187.161 186.007L188.232 187.954L189.303 186.02C189.353 185.918 189.429 185.831 189.525 185.769C189.62 185.706 189.731 185.671 189.844 185.667C189.925 185.667 190.005 185.683 190.079 185.716C190.153 185.748 190.219 185.796 190.273 185.856C190.388 185.976 190.452 186.137 190.449 186.303C190.449 186.412 190.421 186.518 190.367 186.612L189.227 188.439L191.438 188.357C191.522 188.351 191.606 188.364 191.685 188.395C191.763 188.425 191.834 188.473 191.892 188.534C191.999 188.645 192.058 188.795 192.056 188.949C192.055 189.105 191.997 189.256 191.892 189.371C191.833 189.43 191.761 189.476 191.683 189.505C191.605 189.534 191.522 189.547 191.438 189.541L189.214 189.472L190.317 191.268C190.379 191.368 190.412 191.484 190.411 191.602C190.409 191.768 190.341 191.926 190.222 192.043C190.108 192.16 189.952 192.228 189.788 192.232C189.681 192.23 189.576 192.197 189.488 192.136C189.399 192.076 189.331 191.991 189.29 191.891L188.232 190.001L187.186 191.891C187.14 191.99 187.069 192.074 186.979 192.134C186.889 192.194 186.784 192.228 186.675 192.232Z" fill="#263238"/>
<g style="mix-blend-mode:multiply">
<path d="M218.458 64.6001H106.936V71.5868H218.458V64.6001Z" fill="#92E3A9"/>
</g>
<path d="M174.825 51.7294H150.57C150.132 51.7294 149.712 51.5555 149.402 51.246C149.093 50.9364 148.919 50.5166 148.919 50.0788C148.919 49.6411 149.093 49.2212 149.402 48.9117C149.712 48.6021 150.132 48.4282 150.57 48.4282H174.825C175.262 48.4282 175.682 48.6021 175.992 48.9117C176.301 49.2212 176.475 49.6411 176.475 50.0788C176.475 50.5166 176.301 50.9364 175.992 51.246C175.682 51.5555 175.262 51.7294 174.825 51.7294Z" fill="#92E3A9" stroke="#263238" stroke-width="1.33739" stroke-linecap="round" stroke-linejoin="round"/>
<path d="M169.312 254.986C169.313 253.677 168.926 252.397 168.2 251.309C167.473 250.22 166.44 249.371 165.231 248.869C164.022 248.368 162.692 248.237 161.408 248.492C160.124 248.747 158.945 249.377 158.02 250.302C157.094 251.228 156.464 252.407 156.209 253.691C155.954 254.975 156.085 256.305 156.587 257.514C157.088 258.723 157.937 259.756 159.026 260.483C160.115 261.209 161.394 261.596 162.703 261.595C164.456 261.593 166.136 260.896 167.375 259.657C168.614 258.418 169.31 256.738 169.312 254.986Z" fill="#92E3A9"/>
<path d="M166.055 251.634H159.352V258.337H166.055V251.634Z" fill="#92E3A9" stroke="#263238" stroke-width="1.33739" stroke-linecap="round" stroke-linejoin="round"/>
<path d="M242.55 178.92C242.55 178.92 233.768 156.605 241.586 153.953C249.726 151.187 249.367 165.923 249.052 173.105C248.39 188.452 246.695 191.306 245.429 187.557L242.55 178.92ZM239.91 196.327C242.323 199.477 243.004 196.213 238.65 181.478C236.609 174.548 232.174 160.53 225.37 165.791C218.837 170.831 234.385 189.101 234.385 189.101L239.91 196.327ZM235.248 209.116C237.548 211.157 237.592 208.58 232.13 197.94C229.566 192.956 224.141 182.87 219.7 187.86C215.435 192.673 229.969 204.372 229.969 204.372L235.248 209.116ZM230.208 224.324C232.508 226.371 232.552 223.788 227.09 213.154C224.526 208.171 219.101 198.078 214.66 203.074C210.42 207.9 224.91 219.599 224.91 219.599L230.208 224.324ZM244.761 193.366C241.082 194.802 244.005 196.365 259.371 196.32C266.578 196.32 281.295 195.993 278.158 187.986C275.153 180.293 253.266 190.09 253.266 190.09L244.761 193.366ZM240.572 203.597C236.678 204.271 239.236 206.388 254.306 209.399C261.368 210.817 275.852 213.431 274.371 204.989C272.954 196.85 249.556 202.104 249.556 202.104L240.572 203.597ZM235.885 216.09C232.571 216.569 234.688 218.415 247.357 221.313C253.298 222.673 265.488 225.225 264.43 218.024C263.422 211.094 243.514 215.013 243.514 215.013L235.885 216.09ZM232.325 227.663C229.081 228.488 231.38 230.101 244.295 231.638C250.343 232.356 262.735 233.604 260.927 226.554C259.182 219.788 239.803 225.779 239.803 225.779L232.325 227.663ZM251.313 180.81C249.423 185.043 253.348 184.401 266.692 172.758C272.941 167.296 285.478 155.868 275.549 150.179C266.018 144.711 255.767 171.095 255.767 171.095L251.313 180.81ZM232.817 242.739C230.819 243.904 232.779 244.358 241.939 242.531C246.236 241.68 254.974 239.79 252.019 236.061C249.159 232.47 237.441 240.03 237.441 240.03L232.817 242.739Z" fill="#92E3A9"/>
<path opacity="0.3" d="M242.55 178.92C242.55 178.92 233.768 156.605 241.586 153.953C249.726 151.187 249.367 165.923 249.052 173.105C248.39 188.452 246.695 191.306 245.429 187.557L242.55 178.92ZM239.91 196.327C242.323 199.477 243.004 196.213 238.65 181.478C236.609 174.548 232.174 160.53 225.37 165.791C218.837 170.831 234.385 189.101 234.385 189.101L239.91 196.327ZM235.248 209.116C237.548 211.157 237.592 208.58 232.13 197.94C229.566 192.956 224.141 182.87 219.7 187.86C215.435 192.673 229.969 204.372 229.969 204.372L235.248 209.116ZM230.208 224.324C232.508 226.371 232.552 223.788 227.09 213.154C224.526 208.171 219.101 198.078 214.66 203.074C210.42 207.9 224.91 219.599 224.91 219.599L230.208 224.324ZM244.761 193.366C241.082 194.802 244.005 196.365 259.371 196.32C266.578 196.32 281.295 195.993 278.158 187.986C275.153 180.293 253.266 190.09 253.266 190.09L244.761 193.366ZM240.572 203.597C236.678 204.271 239.236 206.388 254.306 209.399C261.368 210.817 275.852 213.431 274.371 204.989C272.954 196.85 249.556 202.104 249.556 202.104L240.572 203.597ZM235.885 216.09C232.571 216.569 234.688 218.415 247.357 221.313C253.298 222.673 265.488 225.225 264.43 218.024C263.422 211.094 243.514 215.013 243.514 215.013L235.885 216.09ZM232.325 227.663C229.081 228.488 231.38 230.101 244.295 231.638C250.343 232.356 262.735 233.604 260.927 226.554C259.182 219.788 239.803 225.779 239.803 225.779L232.325 227.663ZM251.313 180.81C249.423 185.043 253.348 184.401 266.692 172.758C272.941 167.296 285.478 155.868 275.549 150.179C266.018 144.711 255.767 171.095 255.767 171.095L251.313 180.81ZM232.817 242.739C230.819 243.904 232.779 244.358 241.939 242.531C246.236 241.68 254.974 239.79 252.019 236.061C249.159 232.47 237.441 240.03 237.441 240.03L232.817 242.739Z" fill="white"/>
<path d="M246.425 189.309L244.894 163.838L246.425 189.309ZM241.58 197.713L231.903 175.808L241.58 197.713ZM266.553 191.344L243.363 194.67L266.553 191.344ZM236.565 209.519L224.009 193.41L236.565 209.519ZM238.77 204.58L256.07 205.449L238.77 204.58ZM234.675 216.934L247.905 218.245L234.675 216.934ZM231.481 224.784L224.91 214.899L231.481 224.784ZM230.725 228.274L246.28 228.419L230.725 228.274ZM227.575 257.456C227.679 257.448 227.776 257.399 227.844 257.32C227.913 257.241 227.947 257.138 227.94 257.034C226.951 242.178 232.697 217.848 241.914 197.877C247.804 185.113 270.894 160.026 271.139 159.774C271.214 159.7 271.255 159.599 271.255 159.494C271.255 159.389 271.214 159.288 271.139 159.214C271.103 159.177 271.06 159.148 271.012 159.128C270.965 159.108 270.914 159.098 270.862 159.098C270.811 159.098 270.76 159.108 270.712 159.128C270.665 159.148 270.621 159.177 270.585 159.214C270.352 159.466 247.168 184.647 241.227 197.524C231.84 217.98 226.17 241.87 227.178 257.084C227.186 257.184 227.231 257.278 227.304 257.347C227.378 257.416 227.474 257.455 227.575 257.456ZM246.418 189.699C246.522 189.693 246.62 189.645 246.689 189.568C246.759 189.49 246.795 189.388 246.79 189.283L245.284 163.8C245.282 163.748 245.269 163.697 245.247 163.65C245.225 163.603 245.193 163.561 245.154 163.527C245.116 163.492 245.07 163.466 245.021 163.449C244.972 163.432 244.92 163.425 244.868 163.428C244.764 163.435 244.667 163.482 244.597 163.56C244.528 163.638 244.492 163.74 244.497 163.844L246.028 189.315C246.033 189.415 246.076 189.51 246.149 189.579C246.221 189.648 246.318 189.687 246.418 189.687V189.699ZM241.718 198.072C241.813 198.029 241.887 197.951 241.924 197.855C241.962 197.758 241.961 197.651 241.92 197.555L232.237 175.65C232.195 175.555 232.117 175.48 232.02 175.442C231.924 175.405 231.816 175.407 231.72 175.449C231.625 175.49 231.55 175.568 231.513 175.665C231.475 175.762 231.477 175.87 231.519 175.965L241.196 197.87C241.226 197.941 241.276 198.001 241.34 198.043C241.403 198.086 241.478 198.109 241.555 198.11C241.62 198.113 241.685 198.1 241.744 198.072H241.718ZM243.394 195.048L266.572 191.734C266.628 191.733 266.683 191.72 266.734 191.696C266.784 191.672 266.829 191.638 266.866 191.595C266.902 191.553 266.929 191.503 266.945 191.449C266.96 191.395 266.965 191.339 266.957 191.283C266.949 191.228 266.93 191.175 266.9 191.127C266.871 191.08 266.831 191.039 266.785 191.008C266.739 190.977 266.686 190.956 266.631 190.946C266.576 190.937 266.519 190.939 266.465 190.953L243.287 194.267C243.184 194.273 243.087 194.321 243.018 194.399C242.95 194.477 242.915 194.579 242.922 194.683C242.928 194.786 242.976 194.883 243.054 194.951C243.132 195.02 243.234 195.055 243.338 195.048H243.394ZM236.786 209.834C236.868 209.769 236.921 209.675 236.934 209.571C236.947 209.467 236.919 209.363 236.855 209.28L224.293 193.139C224.228 193.056 224.133 193.001 224.029 192.987C223.924 192.974 223.819 193.002 223.735 193.067C223.652 193.131 223.597 193.226 223.583 193.33C223.57 193.435 223.598 193.541 223.663 193.624L236.25 209.79C236.287 209.837 236.333 209.875 236.387 209.901C236.44 209.928 236.499 209.941 236.559 209.941C236.653 209.936 236.742 209.899 236.811 209.834H236.786ZM256.416 205.468C256.42 205.364 256.382 205.263 256.311 205.186C256.241 205.109 256.143 205.064 256.038 205.059L238.77 204.183C238.673 204.19 238.582 204.232 238.514 204.301C238.446 204.371 238.405 204.463 238.401 204.56C238.396 204.657 238.427 204.753 238.488 204.828C238.55 204.904 238.636 204.955 238.732 204.97L256.032 205.846C256.136 205.85 256.238 205.812 256.314 205.741C256.391 205.67 256.437 205.572 256.442 205.468H256.416ZM248.27 218.282C248.277 218.231 248.272 218.178 248.258 218.128C248.243 218.078 248.219 218.031 248.186 217.991C248.153 217.95 248.112 217.916 248.066 217.892C248.02 217.867 247.97 217.852 247.918 217.848L234.688 216.544C234.636 216.538 234.584 216.543 234.535 216.558C234.486 216.573 234.44 216.598 234.4 216.631C234.36 216.663 234.327 216.704 234.303 216.749C234.279 216.795 234.264 216.845 234.259 216.896C234.25 217 234.282 217.102 234.348 217.182C234.414 217.263 234.509 217.314 234.612 217.325L247.842 218.635H247.88C247.981 218.642 248.082 218.609 248.16 218.543C248.237 218.477 248.286 218.384 248.296 218.282H248.27ZM231.67 225.112C231.757 225.054 231.818 224.964 231.84 224.861C231.861 224.758 231.841 224.651 231.783 224.563L225.244 214.679C225.184 214.594 225.094 214.535 224.991 214.515C224.889 214.495 224.783 214.515 224.696 214.572C224.608 214.63 224.547 214.72 224.526 214.822C224.505 214.925 224.525 215.032 224.582 215.12L231.122 225.004C231.159 225.059 231.209 225.103 231.267 225.133C231.325 225.164 231.39 225.18 231.456 225.181C231.541 225.185 231.625 225.161 231.695 225.112H231.67ZM246.677 228.419C246.675 228.315 246.634 228.216 246.561 228.142C246.488 228.068 246.39 228.025 246.286 228.022L230.731 227.877C230.628 227.877 230.528 227.918 230.455 227.992C230.382 228.065 230.341 228.164 230.341 228.268C230.339 228.32 230.348 228.372 230.367 228.42C230.386 228.469 230.414 228.513 230.451 228.55C230.487 228.587 230.531 228.617 230.579 228.636C230.627 228.656 230.679 228.666 230.731 228.665L246.286 228.81C246.339 228.812 246.392 228.804 246.442 228.786C246.492 228.767 246.538 228.739 246.577 228.702C246.615 228.666 246.646 228.622 246.668 228.573C246.689 228.525 246.701 228.472 246.702 228.419H246.677ZM225.805 251.679C225.836 251.609 228.488 244.301 236.464 242.556C236.567 242.534 236.657 242.471 236.713 242.383C236.77 242.294 236.789 242.187 236.767 242.084C236.741 241.983 236.678 241.896 236.59 241.841C236.502 241.786 236.396 241.767 236.294 241.788C227.884 243.627 225.093 251.345 225.061 251.42C225.029 251.52 225.036 251.628 225.082 251.722C225.128 251.816 225.209 251.889 225.307 251.924H225.433C225.517 251.932 225.601 251.912 225.672 251.867C225.744 251.823 225.799 251.757 225.83 251.679H225.805ZM227.575 257.456C227.679 257.448 227.776 257.399 227.844 257.32C227.913 257.241 227.947 257.138 227.94 257.034C226.951 242.178 232.697 217.848 241.914 197.877C247.804 185.113 270.894 160.026 271.139 159.774C271.214 159.7 271.255 159.599 271.255 159.494C271.255 159.389 271.214 159.288 271.139 159.214C271.103 159.177 271.06 159.148 271.012 159.128C270.965 159.108 270.914 159.098 270.862 159.098C270.811 159.098 270.76 159.108 270.712 159.128C270.665 159.148 270.621 159.177 270.585 159.214C270.352 159.466 247.168 184.647 241.227 197.524C231.84 217.98 226.17 241.87 227.178 257.084C227.186 257.184 227.231 257.278 227.304 257.347C227.378 257.416 227.474 257.455 227.575 257.456ZM246.418 189.699C246.522 189.693 246.62 189.645 246.689 189.568C246.759 189.49 246.795 189.388 246.79 189.283L245.284 163.8C245.282 163.748 245.269 163.697 245.247 163.65C245.225 163.603 245.193 163.561 245.154 163.527C245.116 163.492 245.07 163.466 245.021 163.449C244.972 163.432 244.92 163.425 244.868 163.428C244.764 163.435 244.667 163.482 244.597 163.56C244.528 163.638 244.492 163.74 244.497 163.844L246.028 189.315C246.033 189.415 246.076 189.51 246.149 189.579C246.221 189.648 246.318 189.687 246.418 189.687V189.699ZM241.718 198.072C241.813 198.029 241.887 197.951 241.924 197.855C241.962 197.758 241.961 197.651 241.92 197.555L232.237 175.65C232.195 175.555 232.117 175.48 232.02 175.442C231.924 175.405 231.816 175.407 231.72 175.449C231.625 175.49 231.55 175.568 231.513 175.665C231.475 175.762 231.477 175.87 231.519 175.965L241.196 197.87C241.226 197.941 241.276 198.001 241.34 198.043C241.403 198.086 241.478 198.109 241.555 198.11C241.62 198.113 241.685 198.1 241.744 198.072H241.718ZM243.394 195.048L266.572 191.734C266.628 191.733 266.683 191.72 266.734 191.696C266.784 191.672 266.829 191.638 266.866 191.595C266.902 191.553 266.929 191.503 266.945 191.449C266.96 191.395 266.965 191.339 266.957 191.283C266.949 191.228 266.93 191.175 266.9 191.127C266.871 191.08 266.831 191.039 266.785 191.008C266.739 190.977 266.686 190.956 266.631 190.946C266.576 190.937 266.519 190.939 266.465 190.953L243.287 194.267C243.184 194.273 243.087 194.321 243.018 194.399C242.95 194.477 242.915 194.579 242.922 194.683C242.928 194.786 242.976 194.883 243.054 194.951C243.132 195.02 243.234 195.055 243.338 195.048H243.394ZM236.786 209.834C236.868 209.769 236.921 209.675 236.934 209.571C236.947 209.467 236.919 209.363 236.855 209.28L224.293 193.139C224.261 193.098 224.221 193.063 224.176 193.037C224.131 193.011 224.081 192.994 224.029 192.987C223.977 192.981 223.925 192.984 223.874 192.998C223.824 193.011 223.776 193.035 223.735 193.067C223.694 193.098 223.659 193.138 223.633 193.183C223.607 193.229 223.59 193.279 223.583 193.33C223.577 193.382 223.58 193.435 223.594 193.485C223.607 193.536 223.631 193.583 223.663 193.624L236.25 209.79C236.287 209.837 236.333 209.875 236.387 209.901C236.44 209.928 236.499 209.941 236.559 209.941C236.653 209.936 236.742 209.899 236.811 209.834H236.786ZM256.416 205.468C256.42 205.364 256.382 205.263 256.311 205.186C256.241 205.109 256.143 205.064 256.038 205.059L238.77 204.183C238.673 204.19 238.582 204.232 238.514 204.301C238.446 204.371 238.405 204.463 238.401 204.56C238.396 204.657 238.427 204.753 238.488 204.828C238.55 204.904 238.636 204.955 238.732 204.97L256.032 205.846C256.136 205.85 256.238 205.812 256.314 205.741C256.391 205.67 256.437 205.572 256.442 205.468H256.416ZM248.27 218.282C248.277 218.231 248.272 218.178 248.258 218.128C248.243 218.078 248.219 218.031 248.186 217.991C248.153 217.95 248.112 217.916 248.066 217.892C248.02 217.867 247.97 217.852 247.918 217.848L234.688 216.544C234.636 216.538 234.584 216.543 234.535 216.558C234.486 216.573 234.44 216.598 234.4 216.631C234.36 216.663 234.327 216.704 234.303 216.749C234.279 216.795 234.264 216.845 234.259 216.896C234.25 217 234.282 217.102 234.348 217.182C234.414 217.263 234.509 217.314 234.612 217.325L247.842 218.635H247.88C247.981 218.642 248.082 218.609 248.16 218.543C248.237 218.477 248.286 218.384 248.296 218.282H248.27ZM231.67 225.112C231.757 225.054 231.818 224.964 231.84 224.861C231.861 224.758 231.841 224.651 231.783 224.563L225.244 214.679C225.184 214.594 225.094 214.535 224.991 214.515C224.889 214.495 224.783 214.515 224.696 214.572C224.608 214.63 224.547 214.72 224.526 214.822C224.505 214.925 224.525 215.032 224.582 215.12L231.122 225.004C231.159 225.059 231.209 225.103 231.267 225.133C231.325 225.164 231.39 225.18 231.456 225.181C231.541 225.185 231.625 225.161 231.695 225.112H231.67ZM246.677 228.419C246.675 228.315 246.634 228.216 246.561 228.142C246.488 228.068 246.39 228.025 246.286 228.022L230.731 227.877C230.628 227.877 230.528 227.918 230.455 227.992C230.382 228.065 230.341 228.164 230.341 228.268C230.339 228.32 230.348 228.372 230.367 228.42C230.386 228.469 230.414 228.513 230.451 228.55C230.487 228.587 230.531 228.617 230.579 228.636C230.627 228.656 230.679 228.666 230.731 228.665L246.286 228.81C246.339 228.812 246.392 228.804 246.442 228.786C246.492 228.767 246.538 228.739 246.577 228.702C246.615 228.666 246.646 228.622 246.668 228.573C246.689 228.525 246.701 228.472 246.702 228.419H246.677ZM225.805 251.679C225.836 251.609 228.488 244.301 236.464 242.556C236.567 242.534 236.657 242.471 236.713 242.383C236.77 242.294 236.789 242.187 236.767 242.084C236.741 241.983 236.678 241.896 236.59 241.841C236.502 241.786 236.396 241.767 236.294 241.788C227.884 243.627 225.093 251.345 225.061 251.42C225.029 251.52 225.036 251.628 225.082 251.722C225.128 251.816 225.209 251.889 225.307 251.924H225.433C225.517 251.932 225.601 251.912 225.672 251.867C225.744 251.823 225.799 251.757 225.83 251.679H225.805Z" fill="#92E3A9"/>
<path opacity="0.2" d="M246.425 189.309L244.894 163.838L246.425 189.309ZM241.58 197.713L231.903 175.808L241.58 197.713ZM266.553 191.344L243.363 194.67L266.553 191.344ZM236.565 209.519L224.009 193.41L236.565 209.519ZM238.77 204.58L256.07 205.449L238.77 204.58ZM234.675 216.934L247.905 218.245L234.675 216.934ZM231.481 224.784L224.91 214.899L231.481 224.784ZM230.725 228.274L246.28 228.419L230.725 228.274ZM227.575 257.456C227.679 257.448 227.776 257.399 227.844 257.32C227.913 257.241 227.947 257.138 227.94 257.034C226.951 242.178 232.697 217.848 241.914 197.877C247.804 185.113 270.894 160.026 271.139 159.774C271.214 159.7 271.255 159.599 271.255 159.494C271.255 159.389 271.214 159.288 271.139 159.214C271.103 159.177 271.06 159.148 271.012 159.128C270.965 159.108 270.914 159.098 270.862 159.098C270.811 159.098 270.76 159.108 270.712 159.128C270.665 159.148 270.621 159.177 270.585 159.214C270.352 159.466 247.168 184.647 241.227 197.524C231.84 217.98 226.17 241.87 227.178 257.084C227.186 257.184 227.231 257.278 227.304 257.347C227.378 257.416 227.474 257.455 227.575 257.456ZM246.418 189.699C246.522 189.693 246.62 189.645 246.689 189.568C246.759 189.49 246.795 189.388 246.79 189.283L245.284 163.8C245.282 163.748 245.269 163.697 245.247 163.65C245.225 163.603 245.193 163.561 245.154 163.527C245.116 163.492 245.07 163.466 245.021 163.449C244.972 163.432 244.92 163.425 244.868 163.428C244.764 163.435 244.667 163.482 244.597 163.56C244.528 163.638 244.492 163.74 244.497 163.844L246.028 189.315C246.033 189.415 246.076 189.51 246.149 189.579C246.221 189.648 246.318 189.687 246.418 189.687V189.699ZM241.718 198.072C241.813 198.029 241.887 197.951 241.924 197.855C241.962 197.758 241.961 197.651 241.92 197.555L232.237 175.65C232.195 175.555 232.117 175.48 232.02 175.442C231.924 175.405 231.816 175.407 231.72 175.449C231.625 175.49 231.55 175.568 231.513 175.665C231.475 175.762 231.477 175.87 231.519 175.965L241.196 197.87C241.226 197.941 241.276 198.001 241.34 198.043C241.403 198.086 241.478 198.109 241.555 198.11C241.62 198.113 241.685 198.1 241.744 198.072H241.718ZM243.394 195.048L266.572 191.734C266.628 191.733 266.683 191.72 266.734 191.696C266.784 191.672 266.829 191.638 266.866 191.595C266.902 191.553 266.929 191.503 266.945 191.449C266.96 191.395 266.965 191.339 266.957 191.283C266.949 191.228 266.93 191.175 266.9 191.127C266.871 191.08 266.831 191.039 266.785 191.008C266.739 190.977 266.686 190.956 266.631 190.946C266.576 190.937 266.519 190.939 266.465 190.953L243.287 194.267C243.184 194.273 243.087 194.321 243.018 194.399C242.95 194.477 242.915 194.579 242.922 194.683C242.928 194.786 242.976 194.883 243.054 194.951C243.132 195.02 243.234 195.055 243.338 195.048H243.394ZM236.786 209.834C236.868 209.769 236.921 209.675 236.934 209.571C236.947 209.467 236.919 209.363 236.855 209.28L224.293 193.139C224.228 193.056 224.133 193.001 224.029 192.987C223.924 192.974 223.819 193.002 223.735 193.067C223.652 193.131 223.597 193.226 223.583 193.33C223.57 193.435 223.598 193.541 223.663 193.624L236.25 209.79C236.287 209.837 236.333 209.875 236.387 209.901C236.44 209.928 236.499 209.941 236.559 209.941C236.653 209.936 236.742 209.899 236.811 209.834H236.786ZM256.416 205.468C256.42 205.364 256.382 205.263 256.311 205.186C256.241 205.109 256.143 205.064 256.038 205.059L238.77 204.183C238.673 204.19 238.582 204.232 238.514 204.301C238.446 204.371 238.405 204.463 238.401 204.56C238.396 204.657 238.427 204.753 238.488 204.828C238.55 204.904 238.636 204.955 238.732 204.97L256.032 205.846C256.136 205.85 256.238 205.812 256.314 205.741C256.391 205.67 256.437 205.572 256.442 205.468H256.416ZM248.27 218.282C248.277 218.231 248.272 218.178 248.258 218.128C248.243 218.078 248.219 218.031 248.186 217.991C248.153 217.95 248.112 217.916 248.066 217.892C248.02 217.867 247.97 217.852 247.918 217.848L234.688 216.544C234.636 216.538 234.584 216.543 234.535 216.558C234.486 216.573 234.44 216.598 234.4 216.631C234.36 216.663 234.327 216.704 234.303 216.749C234.279 216.795 234.264 216.845 234.259 216.896C234.25 217 234.282 217.102 234.348 217.182C234.414 217.263 234.509 217.314 234.612 217.325L247.842 218.635H247.88C247.981 218.642 248.082 218.609 248.16 218.543C248.237 218.477 248.286 218.384 248.296 218.282H248.27ZM231.67 225.112C231.757 225.054 231.818 224.964 231.84 224.861C231.861 224.758 231.841 224.651 231.783 224.563L225.244 214.679C225.184 214.594 225.094 214.535 224.991 214.515C224.889 214.495 224.783 214.515 224.696 214.572C224.608 214.63 224.547 214.72 224.526 214.822C224.505 214.925 224.525 215.032 224.582 215.12L231.122 225.004C231.159 225.059 231.209 225.103 231.267 225.133C231.325 225.164 231.39 225.18 231.456 225.181C231.541 225.185 231.625 225.161 231.695 225.112H231.67ZM246.677 228.419C246.675 228.315 246.634 228.216 246.561 228.142C246.488 228.068 246.39 228.025 246.286 228.022L230.731 227.877C230.628 227.877 230.528 227.918 230.455 227.992C230.382 228.065 230.341 228.164 230.341 228.268C230.339 228.32 230.348 228.372 230.367 228.42C230.386 228.469 230.414 228.513 230.451 228.55C230.487 228.587 230.531 228.617 230.579 228.636C230.627 228.656 230.679 228.666 230.731 228.665L246.286 228.81C246.339 228.812 246.392 228.804 246.442 228.786C246.492 228.767 246.538 228.739 246.577 228.702C246.615 228.666 246.646 228.622 246.668 228.573C246.689 228.525 246.701 228.472 246.702 228.419H246.677ZM225.805 251.679C225.836 251.609 228.488 244.301 236.464 242.556C236.567 242.534 236.657 242.471 236.713 242.383C236.77 242.294 236.789 242.187 236.767 242.084C236.741 241.983 236.678 241.896 236.59 241.841C236.502 241.786 236.396 241.767 236.294 241.788C227.884 243.627 225.093 251.345 225.061 251.42C225.029 251.52 225.036 251.628 225.082 251.722C225.128 251.816 225.209 251.889 225.307 251.924H225.433C225.517 251.932 225.601 251.912 225.672 251.867C225.744 251.823 225.799 251.757 225.83 251.679H225.805ZM227.575 257.456C227.679 257.448 227.776 257.399 227.844 257.32C227.913 257.241 227.947 257.138 227.94 257.034C226.951 242.178 232.697 217.848 241.914 197.877C247.804 185.113 270.894 160.026 271.139 159.774C271.214 159.7 271.255 159.599 271.255 159.494C271.255 159.389 271.214 159.288 271.139 159.214C271.103 159.177 271.06 159.148 271.012 159.128C270.965 159.108 270.914 159.098 270.862 159.098C270.811 159.098 270.76 159.108 270.712 159.128C270.665 159.148 270.621 159.177 270.585 159.214C270.352 159.466 247.168 184.647 241.227 197.524C231.84 217.98 226.17 241.87 227.178 257.084C227.186 257.184 227.231 257.278 227.304 257.347C227.378 257.416 227.474 257.455 227.575 257.456ZM246.418 189.699C246.522 189.693 246.62 189.645 246.689 189.568C246.759 189.49 246.795 189.388 246.79 189.283L245.284 163.8C245.282 163.748 245.269 163.697 245.247 163.65C245.225 163.603 245.193 163.561 245.154 163.527C245.116 163.492 245.07 163.466 245.021 163.449C244.972 163.432 244.92 163.425 244.868 163.428C244.764 163.435 244.667 163.482 244.597 163.56C244.528 163.638 244.492 163.74 244.497 163.844L246.028 189.315C246.033 189.415 246.076 189.51 246.149 189.579C246.221 189.648 246.318 189.687 246.418 189.687V189.699ZM241.718 198.072C241.813 198.029 241.887 197.951 241.924 197.855C241.962 197.758 241.961 197.651 241.92 197.555L232.237 175.65C232.195 175.555 232.117 175.48 232.02 175.442C231.924 175.405 231.816 175.407 231.72 175.449C231.625 175.49 231.55 175.568 231.513 175.665C231.475 175.762 231.477 175.87 231.519 175.965L241.196 197.87C241.226 197.941 241.276 198.001 241.34 198.043C241.403 198.086 241.478 198.109 241.555 198.11C241.62 198.113 241.685 198.1 241.744 198.072H241.718ZM243.394 195.048L266.572 191.734C266.628 191.733 266.683 191.72 266.734 191.696C266.784 191.672 266.829 191.638 266.866 191.595C266.902 191.553 266.929 191.503 266.945 191.449C266.96 191.395 266.965 191.339 266.957 191.283C266.949 191.228 266.93 191.175 266.9 191.127C266.871 191.08 266.831 191.039 266.785 191.008C266.739 190.977 266.686 190.956 266.631 190.946C266.576 190.937 266.519 190.939 266.465 190.953L243.287 194.267C243.184 194.273 243.087 194.321 243.018 194.399C242.95 194.477 242.915 194.579 242.922 194.683C242.928 194.786 242.976 194.883 243.054 194.951C243.132 195.02 243.234 195.055 243.338 195.048H243.394ZM236.786 209.834C236.868 209.769 236.921 209.675 236.934 209.571C236.947 209.467 236.919 209.363 236.855 209.28L224.293 193.139C224.261 193.098 224.221 193.063 224.176 193.037C224.131 193.011 224.081 192.994 224.029 192.987C223.977 192.981 223.925 192.984 223.874 192.998C223.824 193.011 223.776 193.035 223.735 193.067C223.694 193.098 223.659 193.138 223.633 193.183C223.607 193.229 223.59 193.279 223.583 193.33C223.577 193.382 223.58 193.435 223.594 193.485C223.607 193.536 223.631 193.583 223.663 193.624L236.25 209.79C236.287 209.837 236.333 209.875 236.387 209.901C236.44 209.928 236.499 209.941 236.559 209.941C236.653 209.936 236.742 209.899 236.811 209.834H236.786ZM256.416 205.468C256.42 205.364 256.382 205.263 256.311 205.186C256.241 205.109 256.143 205.064 256.038 205.059L238.77 204.183C238.673 204.19 238.582 204.232 238.514 204.301C238.446 204.371 238.405 204.463 238.401 204.56C238.396 204.657 238.427 204.753 238.488 204.828C238.55 204.904 238.636 204.955 238.732 204.97L256.032 205.846C256.136 205.85 256.238 205.812 256.314 205.741C256.391 205.67 256.437 205.572 256.442 205.468H256.416ZM248.27 218.282C248.277 218.231 248.272 218.178 248.258 218.128C248.243 218.078 248.219 218.031 248.186 217.991C248.153 217.95 248.112 217.916 248.066 217.892C248.02 217.867 247.97 217.852 247.918 217.848L234.688 216.544C234.636 216.538 234.584 216.543 234.535 216.558C234.486 216.573 234.44 216.598 234.4 216.631C234.36 216.663 234.327 216.704 234.303 216.749C234.279 216.795 234.264 216.845 234.259 216.896C234.25 217 234.282 217.102 234.348 217.182C234.414 217.263 234.509 217.314 234.612 217.325L247.842 218.635H247.88C247.981 218.642 248.082 218.609 248.16 218.543C248.237 218.477 248.286 218.384 248.296 218.282H248.27ZM231.67 225.112C231.757 225.054 231.818 224.964 231.84 224.861C231.861 224.758 231.841 224.651 231.783 224.563L225.244 214.679C225.184 214.594 225.094 214.535 224.991 214.515C224.889 214.495 224.783 214.515 224.696 214.572C224.608 214.63 224.547 214.72 224.526 214.822C224.505 214.925 224.525 215.032 224.582 215.12L231.122 225.004C231.159 225.059 231.209 225.103 231.267 225.133C231.325 225.164 231.39 225.18 231.456 225.181C231.541 225.185 231.625 225.161 231.695 225.112H231.67ZM246.677 228.419C246.675 228.315 246.634 228.216 246.561 228.142C246.488 228.068 246.39 228.025 246.286 228.022L230.731 227.877C230.628 227.877 230.528 227.918 230.455 227.992C230.382 228.065 230.341 228.164 230.341 228.268C230.339 228.32 230.348 228.372 230.367 228.42C230.386 228.469 230.414 228.513 230.451 228.55C230.487 228.587 230.531 228.617 230.579 228.636C230.627 228.656 230.679 228.666 230.731 228.665L246.286 228.81C246.339 228.812 246.392 228.804 246.442 228.786C246.492 228.767 246.538 228.739 246.577 228.702C246.615 228.666 246.646 228.622 246.668 228.573C246.689 228.525 246.701 228.472 246.702 228.419H246.677ZM225.805 251.679C225.836 251.609 228.488 244.301 236.464 242.556C236.567 242.534 236.657 242.471 236.713 242.383C236.77 242.294 236.789 242.187 236.767 242.084C236.741 241.983 236.678 241.896 236.59 241.841C236.502 241.786 236.396 241.767 236.294 241.788C227.884 243.627 225.093 251.345 225.061 251.42C225.029 251.52 225.036 251.628 225.082 251.722C225.128 251.816 225.209 251.889 225.307 251.924H225.433C225.517 251.932 225.601 251.912 225.672 251.867C225.744 251.823 225.799 251.757 225.83 251.679H225.805Z" fill="black"/>
<path d="M237.863 246.349H220.027V250.04H221.583L224.803 270.182H233.087L236.307 250.04H237.863V246.349Z" fill="#92E3A9"/>
<path opacity="0.3" d="M237.863 246.349H220.027V250.04H221.583L224.803 270.182H233.087L236.307 250.04H237.863V246.349Z" fill="white"/>
<path d="M77.2887 134.713L56.5428 127.94L54.6969 123.064L50.4822 122.932L42.834 121.483L43.7538 123.064L53.3802 130.051L55.7553 131.235L77.4525 142.569L77.2887 134.713Z" fill="white" stroke="#263238" stroke-width="1.00396" stroke-miterlimit="10"/>
<path d="M54.6969 123.064L52.7187 121.88L48.7686 123.329L49.4238 124.116L54.6969 123.064Z" fill="white" stroke="#263238" stroke-width="1.00396" stroke-linejoin="round"/>
<path d="M77.2887 134.713L56.5428 127.94L54.6969 123.064L50.4822 122.932L42.834 121.483L43.7538 123.064L53.3802 130.051L55.7553 131.235L77.4525 142.569L77.2887 134.713Z" fill="white"/>
<mask id="mask0_309_1996" style="mask-type:luminance" maskUnits="userSpaceOnUse" x="42" y="121" width="36" height="22">
<path d="M77.2887 134.713L56.5428 127.94L54.6969 123.064L50.4822 122.932L42.834 121.483L43.7538 123.064L53.3802 130.051L55.7553 131.235L77.4525 142.569L77.2887 134.713Z" fill="white"/>
</mask>
<g mask="url(#mask0_309_1996)">
<path opacity="0.5" d="M77.2887 134.713L56.5428 127.94L54.6969 123.064L50.4822 122.932L42.834 121.483L43.7538 123.064L53.3802 130.051L55.7553 131.235L77.4525 142.569L77.2887 134.713Z" fill="#92E3A9" stroke="#263238" stroke-width="1.00396" stroke-miterlimit="10"/>
</g>
<path d="M77.2887 134.713L56.5428 127.94L54.6969 123.064L50.4822 122.932L42.834 121.483L43.7538 123.064L53.3802 130.051L55.7553 131.235L77.4525 142.569L77.2887 134.713Z" stroke="#263238" stroke-width="1.00396" stroke-miterlimit="10"/>
<path d="M54.6969 123.064L52.7187 121.88L48.7686 123.329L49.4238 124.116L54.6969 123.064Z" fill="white"/>
<mask id="mask1_309_1996" style="mask-type:luminance" maskUnits="userSpaceOnUse" x="48" y="121" width="7" height="4">
<path d="M54.6969 123.064L52.7187 121.88L48.7686 123.329L49.4238 124.116L54.6969 123.064Z" fill="white"/>
</mask>
<g mask="url(#mask1_309_1996)">
<path opacity="0.5" d="M54.6969 123.064L52.7187 121.88L48.7686 123.329L49.4238 124.116L54.6969 123.064Z" fill="#92E3A9" stroke="#263238" stroke-width="1.00396" stroke-linejoin="round"/>
</g>
<path d="M54.6969 123.064L52.7187 121.88L48.7686 123.329L49.4238 124.116L54.6969 123.064Z" stroke="#263238" stroke-width="1.00396" stroke-linejoin="round"/>
<path d="M81.692 90.7581C81.692 90.7581 81.3707 93.5931 82.1708 95.4138C82.9709 97.2345 87.4124 103.402 87.4124 103.402L79.1216 110.049C79.1216 110.049 75.6818 103.119 75.0266 101.997C74.3714 100.876 73.5839 96.0501 75.7196 92.5914C77.8553 89.1327 80.9297 88.2003 81.692 90.7581Z" fill="white"/>
<mask id="mask2_309_1996" style="mask-type:luminance" maskUnits="userSpaceOnUse" x="74" y="89" width="14" height="22">
<path d="M81.692 90.7581C81.692 90.7581 81.3707 93.5931 82.1708 95.4138C82.9709 97.2345 87.4124 103.402 87.4124 103.402L79.1216 110.049C79.1216 110.049 75.6818 103.119 75.0266 101.997C74.3714 100.876 73.5839 96.0501 75.7196 92.5914C77.8553 89.1327 80.9297 88.2003 81.692 90.7581Z" fill="white"/>
</mask>
<g mask="url(#mask2_309_1996)">
<g style="mix-blend-mode:multiply" opacity="0.5">
<path d="M77.4331 99.8677L81.0304 107.327L79.1152 110.055L75.499 103.597L77.4331 99.8677Z" fill="#92E3A9"/>
</g>
</g>
<path d="M81.692 90.7581C81.692 90.7581 81.3707 93.5931 82.1708 95.4138C82.9709 97.2345 87.4124 103.402 87.4124 103.402L79.1216 110.049C79.1216 110.049 75.6818 103.119 75.0266 101.997C74.3714 100.876 73.5839 96.0501 75.7196 92.5914C77.8553 89.1327 80.9297 88.2003 81.692 90.7581Z" stroke="#263238" stroke-width="1.00396" stroke-miterlimit="10"/>
<path d="M84.262 85.5668C83.7517 82.4168 80.1418 76.0097 74.4151 76.2554C70.6981 76.4192 68.9593 77.1689 67.3465 78.0824C66.0319 78.857 64.8065 79.7739 63.6925 80.8166C60.8953 84.1745 59.9125 85.0943 60.4543 87.6647C60.4099 88.6899 60.5705 89.7137 60.9268 90.6761C61.7836 92.963 62.3695 94.4561 63.1129 95.546C62.8861 96.6107 62.2939 99.4205 62.2624 100.063C62.2309 100.706 64.1524 100.258 65.1226 100.013C66.9244 104.045 70.2256 106.842 71.2525 107.163C73.0417 107.724 75.8704 104.782 77.3698 102.501C78.8692 100.221 77.7352 97.6565 77.7415 96.6359C77.7478 95.6153 81.112 93.3725 82.3594 92.6606C83.6068 91.9487 84.766 88.7105 84.262 85.5668Z" fill="white"/>
<mask id="mask3_309_1996" style="mask-type:luminance" maskUnits="userSpaceOnUse" x="60" y="76" width="25" height="32">
<path d="M84.262 85.5668C83.7517 82.4168 80.1418 76.0097 74.4151 76.2554C70.6981 76.4192 68.9593 77.1689 67.3465 78.0824C66.0319 78.857 64.8065 79.7739 63.6925 80.8166C60.8953 84.1745 59.9125 85.0943 60.4543 87.6647C60.4099 88.6899 60.5705 89.7137 60.9268 90.6761C61.7836 92.963 62.3695 94.4561 63.1129 95.546C62.8861 96.6107 62.2939 99.4205 62.2624 100.063C62.2309 100.706 64.1524 100.258 65.1226 100.013C66.9244 104.045 70.2256 106.842 71.2525 107.163C73.0417 107.724 75.8704 104.782 77.3698 102.501C78.8692 100.221 77.7352 97.6565 77.7415 96.6359C77.7478 95.6153 81.112 93.3725 82.3594 92.6606C83.6068 91.9487 84.766 88.7105 84.262 85.5668Z" fill="white"/>
</mask>
<g mask="url(#mask3_309_1996)">
<g style="mix-blend-mode:multiply" opacity="0.5">
<path d="M60.48 87.6646C60.4356 88.6898 60.5962 89.7136 60.9525 90.676C61.8093 92.9629 62.3952 94.456 63.1386 95.5459C62.9118 96.6106 62.3196 99.4204 62.2881 100.063C62.2566 100.706 64.1781 100.258 65.1483 100.013C66.9501 104.045 70.2513 106.842 71.2782 107.163C73.0674 107.724 75.8961 104.782 77.3955 102.501C77.7701 101.932 78.0133 101.286 78.1074 100.611C78.0255 100.315 77.9688 100.132 77.9688 100.132C77.9688 100.132 77.1246 103.377 75.4488 102.955C73.773 102.533 71.2089 99.1747 69.7788 98.0155C68.3487 96.8563 68.9346 95.3317 68.6511 93.6055C68.3676 91.8793 64.134 90.361 63.8505 89.3719C63.567 88.3828 64.5561 84.2878 64.5561 84.2878C64.5561 84.2878 66.1626 82.1458 65.8161 83.0278C65.5712 83.7926 65.4824 84.5987 65.5549 85.3985C65.6274 86.1982 65.8598 86.9753 66.2382 87.6835C66.5038 88.2424 66.9251 88.7126 67.4514 89.0379C67.9778 89.3631 68.5869 89.5294 69.2055 89.5168L70.7427 81.9001L67.4982 79.2163L63.7182 80.7913C60.8958 84.1744 59.9319 85.0942 60.48 87.6646Z" fill="#92E3A9"/>
</g>
</g>
<path d="M84.262 85.5668C83.7517 82.4168 80.1418 76.0097 74.4151 76.2554C70.6981 76.4192 68.9593 77.1689 67.3465 78.0824C66.0319 78.857 64.8065 79.7739 63.6925 80.8166C60.8953 84.1745 59.9125 85.0943 60.4543 87.6647C60.4099 88.6899 60.5705 89.7137 60.9268 90.6761C61.7836 92.963 62.3695 94.4561 63.1129 95.546C62.8861 96.6107 62.2939 99.4205 62.2624 100.063C62.2309 100.706 64.1524 100.258 65.1226 100.013C66.9244 104.045 70.2256 106.842 71.2525 107.163C73.0417 107.724 75.8704 104.782 77.3698 102.501C78.8692 100.221 77.7352 97.6565 77.7415 96.6359C77.7478 95.6153 81.112 93.3725 82.3594 92.6606C83.6068 91.9487 84.766 88.7105 84.262 85.5668Z" stroke="#263238" stroke-miterlimit="10"/>
<path d="M63.8945 93.6431L64.5245 95.4449C64.5245 95.4449 65.879 95.8922 67.5296 94.0904" stroke="#263238" stroke-miterlimit="10" stroke-linecap="round"/>
<path d="M68.5508 102.06C68.5508 102.06 70.0502 101.909 70.655 99.8047" stroke="#263238" stroke-miterlimit="10" stroke-linecap="round"/>
<path d="M62.8428 92.1377C62.8428 92.1377 63.2901 90.7832 65.9928 90.7832" stroke="#263238" stroke-miterlimit="10" stroke-linecap="round"/>
<path d="M76.696 73.7478C74.7322 73.4654 72.7517 73.3139 70.7677 73.2942C70.7677 73.2942 64.8331 69.8733 59.1316 73.521C53.4301 77.1687 56.1706 83.5569 56.1706 85.1508C56.1706 86.7447 54.3436 86.751 55.4839 88.8048C56.6242 90.8586 60.4798 89.7246 60.4798 89.7246C60.5206 88.95 60.7253 88.1929 61.0804 87.5032C61.4356 86.8136 61.933 86.2072 62.5399 85.7241C64.5937 84.1302 66.2317 83.7837 66.9121 84.2436C66.9121 84.2436 66.4585 87.6645 67.1389 89.0316C67.1389 89.0316 69.4195 90.1719 70.1062 90.1719C70.7929 90.1719 69.6589 91.1358 71.9332 91.9926C72.3476 92.1414 72.7908 92.1921 73.228 92.1408C73.6653 92.0894 74.0847 91.9373 74.4532 91.6965C74.7871 90.3105 75.5179 88.2252 76.8787 88.7103C78.8758 89.4222 80.6965 94.3362 77.9938 96.012C81.2446 96.6042 85.1821 90.8523 85.4152 85.6107C85.6483 80.3691 80.0728 74.34 76.696 73.7478Z" fill="#263238"/>
<path d="M67.0127 81.9944C67.0127 81.9944 68.6885 81.0935 70.7423 83.0213C72.7961 84.9491 76.7903 87.5258 82.0823 86.1083" stroke="white" stroke-width="0.5" stroke-linecap="round" stroke-linejoin="round"/>
<path d="M66.7803 80.4512C66.7803 80.4512 67.9332 78.6494 69.861 78.6494C71.7888 78.6494 76.2933 81.3521 79.8906 81.3521" stroke="white" stroke-width="0.5" stroke-linecap="round" stroke-linejoin="round"/>
<path d="M65.47 83.9223C65.47 83.9223 63.2839 81.2259 61.2301 83.412C59.1763 85.5981 60.4804 87.6645 60.4804 87.6645" stroke="white" stroke-width="0.5" stroke-linecap="round" stroke-linejoin="round"/>
<path d="M56.7314 85.7239C57.9842 84.5941 58.763 83.0321 58.9112 81.3517C59.1695 78.523 63.0314 76.0786 65.4695 78.397" stroke="white" stroke-width="0.5" stroke-linecap="round" stroke-linejoin="round"/>
<path d="M60.7129 75.436C60.7129 75.436 64.5748 71.7064 67.7878 76.4629" stroke="white" stroke-width="0.5" stroke-linecap="round" stroke-linejoin="round"/>
<path d="M92.1439 258.811C92.1439 258.811 94.519 262.502 94.2544 264.877L93.9961 267.253C93.9961 267.253 85.2832 269.64 83.4373 269.64C81.5914 269.64 71.8201 268.714 71.8201 268.714L71.398 267.038C71.3684 266.915 71.3823 266.784 71.4374 266.67C71.4925 266.555 71.5853 266.463 71.7004 266.408L80.4133 262.345L83.1601 259.34L92.1439 258.811Z" fill="white" stroke="#263238" stroke-width="1.00396" stroke-miterlimit="10"/>
<path d="M84.7602 267.781C87.1227 267.964 91.6083 266.521 94.2102 265.602L94.0275 267.252C94.0275 267.252 85.2831 269.64 83.4372 269.64C81.5913 269.64 71.82 268.714 71.82 268.714L71.5176 267.517C73.08 267.523 81.6354 267.542 84.7602 267.781Z" fill="#92E3A9" stroke="#263238" stroke-width="1.00396" stroke-miterlimit="10"/>
<path d="M80.4262 262.345L67.7443 267.863C67.7443 267.863 66.6607 270.579 67.7443 271.121C68.8279 271.662 92.4529 271.121 92.4529 271.121C92.4529 271.121 94.0846 266.83 91.5079 263.951C88.9312 261.072 80.4262 262.345 80.4262 262.345Z" fill="white" stroke="#263238" stroke-width="1.00396" stroke-miterlimit="10"/>
<path d="M92.4529 271.121C92.4529 271.121 68.8279 271.662 67.7443 271.121C67.2214 270.856 67.2025 270.094 67.3222 269.369H92.8687C92.7852 269.965 92.646 270.551 92.4529 271.121Z" fill="#92E3A9" stroke="#263238" stroke-width="1.00396" stroke-miterlimit="10"/>
<path d="M74.4283 166.453C74.4283 166.453 71.1145 181.138 69.8608 190.323C68.6071 199.509 67.8701 217.911 68.1347 220.021C68.3993 222.132 81.5914 257.494 81.5914 257.494L82.9082 260.644L92.1439 258.798C92.1439 258.798 87.923 245.341 86.3417 237.951C84.7604 230.561 81.3017 218.421 81.3017 216.311C81.3017 214.2 89.4916 173.893 90.0775 171.247C90.6634 168.601 93.3221 164.537 93.3221 164.537L75.6379 164.178L74.4283 166.453Z" fill="#92E3A9" stroke="#263238" stroke-width="1.00396" stroke-miterlimit="10"/>
<path d="M74.4285 166.453C74.4285 166.453 72.4881 179.865 73.2882 189.189C74.0883 198.513 75.8082 218.365 75.8082 221.319C75.8082 224.274 80.5773 241.92 80.8482 247.464C81.2703 255.472 80.6781 259.434 80.6781 259.434L80.3946 262.339C80.3946 262.339 85.9575 263.132 87.1734 263.479C88.5777 263.841 90.027 263.998 91.4763 263.945C91.4763 263.945 93.4986 255.043 93.4986 247.458C93.4986 239.873 91.8165 224.261 90.9786 217.936C90.1407 211.611 92.7804 187.211 94.2798 182.656C95.7792 178.101 99.0552 168.456 96.8502 163.529C94.6452 158.603 74.4285 166.453 74.4285 166.453Z" fill="#92E3A9" stroke="#263238" stroke-width="1.00396" stroke-miterlimit="10"/>
<path d="M99.3002 161.06L99.0986 167.057C99.0986 167.057 95.5076 167.769 90.6692 168.607C86.675 169.3 76.6454 168.424 73.2686 168.097C72.9609 168.069 72.6763 167.922 72.477 167.686C72.2776 167.45 72.1794 167.145 72.2039 166.837L72.5315 161.419L99.3002 161.06Z" fill="#263238"/>
<path d="M85.2643 101.272C85.2643 101.272 79.5943 107.402 77.4586 111.214C75.3229 115.025 74.4787 120.865 73.6786 125.464C72.8785 130.063 75.0457 140.862 74.4346 145.82L72.5005 161.437C72.5005 161.437 72.0847 162.496 73.477 163.655C74.8693 164.814 81.667 165.236 87.8095 165.545C90.0523 165.658 96.7492 164.216 97.8454 164.146C99.1684 164.065 99.2125 162.382 99.2692 161.059C99.5338 154.841 100.655 138.266 101.392 131.046C102.911 116.323 94.6009 102.11 85.2643 101.272Z" fill="white" stroke="#263238" stroke-width="1.00396" stroke-miterlimit="10"/>
<g style="mix-blend-mode:multiply">
<path d="M100.699 139.419C100.951 136.149 101.203 133.182 101.424 131.046C101.487 130.416 101.525 129.786 101.556 129.156L86.4929 131.676L73.5527 127.266C73.5541 129.944 73.7056 132.619 74.0063 135.28L86.7008 138.833L100.699 139.419Z" fill="#92E3A9"/>
</g>
<g style="mix-blend-mode:multiply">
<path d="M84.7033 101.89C83.8465 102.841 82.1455 104.776 80.5264 106.829L90.0898 116.55L93.2398 115.29L84.7033 101.89Z" fill="#92E3A9"/>
</g>
<path d="M85.2643 101.272C85.2643 101.272 79.5943 107.402 77.4586 111.214C76.8254 112.372 76.3124 113.592 75.9277 114.855L87.3307 101.682C86.6571 101.478 85.9649 101.341 85.2643 101.272Z" fill="#263238"/>
<g style="mix-blend-mode:multiply">
<path d="M74.1191 122.982L86.4923 127.052L101.518 125.326C101.282 121.583 100.451 117.901 99.0545 114.421L86.9396 119.278L76.1099 114.37C75.2244 117.185 74.5588 120.064 74.1191 122.982Z" fill="#92E3A9"/>
</g>
<g style="mix-blend-mode:multiply">
<path d="M95.4201 154.841C89.1445 155.895 82.7053 155.369 76.6839 153.311L73.6662 152.277L72.7275 159.837L76.1673 160.801C82.7066 162.63 89.5411 163.156 96.2832 162.351L99.0615 162.017C99.2061 161.711 99.2875 161.379 99.3009 161.041C99.3765 159.359 99.5088 156.914 99.6789 154.111L95.4201 154.841Z" fill="#92E3A9"/>
</g>
<g style="mix-blend-mode:multiply">
<path d="M97.1018 144.547C90.8259 145.605 84.3851 145.077 78.3656 143.01L74.5226 141.693C74.6179 143.066 74.5989 144.444 74.4659 145.814L74.0186 149.449L77.849 150.52C84.3856 152.35 91.2181 152.879 97.9586 152.076L99.8486 151.849C100.006 149.329 100.189 146.645 100.384 143.993L97.1018 144.547Z" fill="#92E3A9"/>
</g>
<path d="M37.9964 117.906L50.1777 127.7L50.7028 127.047L38.5215 117.253L37.9964 117.906Z" fill="#263238"/>
<path d="M91.1293 108.07C91.1293 108.07 95.596 111.113 95.6968 118.302C95.7409 121.452 95.4133 124.394 94.6888 129.553C93.9643 134.713 89.4661 151.515 85.9633 153.556C82.4605 155.598 77.0236 151.742 77.0236 151.742L50.7274 134.285L44.3707 129.15L41.2207 123.203L42.2098 121.313L49.9651 127.26L45.7882 123.398L46.6072 122.359L48.1192 123.411L52.5292 125.061L53.4931 131.361L54.8539 132.294L80.0098 141.486C80.0098 141.486 79.6948 127.947 79.9279 125.358C80.161 122.768 80.4823 116.26 83.2543 111.542" fill="white"/>
<mask id="mask4_309_1996" style="mask-type:luminance" maskUnits="userSpaceOnUse" x="41" y="108" width="55" height="47">
<path d="M91.1293 108.07C91.1293 108.07 95.596 111.113 95.6968 118.302C95.7409 121.452 95.4133 124.394 94.6888 129.553C93.9643 134.713 89.4661 151.515 85.9633 153.556C82.4605 155.598 77.0236 151.742 77.0236 151.742L50.7274 134.285L44.3707 129.15L41.2207 123.203L42.2098 121.313L49.9651 127.26L45.7882 123.398L46.6072 122.359L48.1192 123.411L52.5292 125.061L53.4931 131.361L54.8539 132.294L80.0098 141.486C80.0098 141.486 79.6948 127.947 79.9279 125.358C80.161 122.768 80.4823 116.26 83.2543 111.542" fill="white"/>
</mask>
<g mask="url(#mask4_309_1996)">
<g style="mix-blend-mode:multiply" opacity="0.5">
<path d="M79.8338 131.254C79.8338 135.929 79.9913 141.486 79.9913 141.486L54.8606 132.332L53.4998 131.399L52.5359 125.099L48.1259 123.449L46.6202 122.378L45.8012 123.417L49.9655 127.26L42.2102 121.313L41.2715 123.171L44.4215 129.119L50.7782 134.285L52.3784 135.349L87.1229 146.544L79.8338 131.254Z" fill="#92E3A9"/>
</g>
</g>
<path d="M91.1293 108.07C91.1293 108.07 95.596 111.113 95.6968 118.302C95.7409 121.452 95.4133 124.394 94.6888 129.553C93.9643 134.713 89.4661 151.515 85.9633 153.556C82.4605 155.598 77.0236 151.742 77.0236 151.742L50.7274 134.285L44.3707 129.15L41.2207 123.203L42.2098 121.313L49.9651 127.26L45.7882 123.398L46.6072 122.359L48.1192 123.411L52.5292 125.061L53.4931 131.361L54.8539 132.294L80.0098 141.486C80.0098 141.486 79.6948 127.947 79.9279 125.358C80.161 122.768 80.4823 116.26 83.2543 111.542" stroke="#263238" stroke-width="1.00396" stroke-miterlimit="10"/>
<path d="M80.0098 141.485L89.611 148.415L92.0995 144.005C92.0995 144.005 93.8194 142.651 94.0714 141.63C94.3234 140.61 94.0021 138.953 94.2604 137.932C94.5187 136.911 95.8039 135.954 95.9236 133.484C96.0433 131.015 95.9236 128.955 95.9236 128.955C95.9236 128.955 98.0026 120.405 97.7758 116.688C97.549 112.971 93.9643 106.401 91.0915 106.256C88.2187 106.111 84.4828 106.545 81.5848 110.93C78.6868 115.315 79.279 128.117 78.8254 128.917C78.3718 129.717 79.0018 133.667 79.0018 133.667C78.75 133.855 78.5412 134.094 78.3891 134.369C78.237 134.644 78.1452 134.948 78.1198 135.261C78.0694 136.288 79.1782 138.814 79.1782 138.814L80.0098 141.485Z" fill="white" stroke="#263238" stroke-width="1.00396" stroke-miterlimit="10"/>
<g style="mix-blend-mode:multiply">
<path d="M79.0775 125.628C79.0973 126.728 79.015 127.827 78.8318 128.911C78.4286 129.629 78.8885 132.873 78.9893 133.535C84.3896 135.212 90.0999 135.643 95.6906 134.795C95.8107 134.357 95.8826 133.907 95.9048 133.453C96.0308 130.99 95.9048 128.923 95.9048 128.923C95.9048 128.923 96.0875 128.161 96.3395 127.002C90.5495 127.37 84.7365 126.907 79.0775 125.628Z" fill="#92E3A9"/>
</g>
<g style="mix-blend-mode:multiply">
<path d="M81.1947 111.63C80.2938 113.438 79.7898 116.153 79.5 118.906C85.2192 121.089 91.3855 121.84 97.4613 121.092C97.7037 119.635 97.8113 118.159 97.7826 116.682C97.6735 115.515 97.3977 114.37 96.9636 113.28C91.6584 113.404 86.3592 112.85 81.1947 111.63Z" fill="#92E3A9"/>
</g>
<path d="M79.1787 138.883L79.9914 141.485L89.5926 148.415L92.0811 144.005C92.0811 144.005 93.801 142.651 94.053 141.63C94.098 141.453 94.1254 141.271 94.1349 141.088C89.0753 141.001 84.0482 140.26 79.1787 138.883Z" fill="#263238"/>
<path d="M86.1277 263.397C86.1277 263.397 86.3419 257.941 87.3877 249.965C88.4335 241.989 85.9198 230.662 85.4977 228.772C85.0756 226.882 85.7119 222.686 85.2898 221.212C84.8677 219.738 82.8265 213.45 84.0298 206.155C85.2331 198.859 86.2096 179.575 86.2096 179.575C86.2096 179.575 83.1793 177.112 82.291 173.905C81.4027 170.698 82.0831 169.69 82.0831 169.69" stroke="#263238" stroke-width="1.00396" stroke-miterlimit="10"/>
<path d="M87.5327 169.987L86.3672 176.438" stroke="#263238" stroke-width="1.00396" stroke-miterlimit="10"/>
</g>
<defs>
<filter id="filter0_d_309_1996" x="-4" y="0" width="323" height="323" filterUnits="userSpaceOnUse" color-interpolation-filters="sRGB">
<feFlood flood-opacity="0" result="BackgroundImageFix"/>
<feColorMatrix in="SourceAlpha" type="matrix" values="0 0 0 0 0 0 0 0 0 0 0 0 0 0 0 0 0 0 127 0" result="hardAlpha"/>
<feOffset dy="4"/>
<feGaussianBlur stdDeviation="2"/>
<feComposite in2="hardAlpha" operator="out"/>
<feColorMatrix type="matrix" values="0 0 0 0 0 0 0 0 0 0 0 0 0 0 0 0 0 0 0.25 0"/>
<feBlend mode="normal" in2="BackgroundImageFix" result="effect1_dropShadow_309_1996"/>
<feBlend mode="normal" in="SourceGraphic" in2="effect1_dropShadow_309_1996" result="shape"/>
</filter>
</defs>
</svg>
