<svg width="30" height="30" viewBox="0 0 30 30" fill="none" xmlns="http://www.w3.org/2000/svg">
<path d="M12.8794 15.3657C13.4163 14.4799 14.0068 13.6478 14.7047 12.8694C12.2889 11.0173 9.4973 9.72888 6.57151 9.08467C5.73941 8.89677 4.85362 8.95046 4.0752 9.27257C4.42414 9.40678 4.79993 9.54099 5.14888 9.70204C8.12835 11.0173 10.7589 12.9499 12.8794 15.3657Z" fill="#545454"/>
<path d="M15.1076 12.4399C15.8055 11.7152 16.5571 11.0709 17.3892 10.5073C14.2487 8.54779 10.4371 7.79621 6.70605 8.52094C7.96763 8.78936 9.22921 9.192 10.4371 9.702C12.1013 10.4536 13.685 11.3662 15.1076 12.4399Z" fill="#545454"/>
<path d="M4.18263 9.99725C3.53842 9.75568 2.84053 9.80936 2.25 10.1315V19.7141C2.25 21.0025 3.29684 22.0225 4.55842 22.0225H10.7589C10.92 19.8483 11.5642 17.7815 12.5574 15.9025C10.2758 13.2452 7.40369 11.232 4.18263 9.99725Z" fill="#545454"/>
<path d="M23.2138 8.54778C16.7448 9.8362 11.8059 15.312 11.2422 22.0225H14.3827C15.188 17.8888 17.1743 14.1041 20.2075 11.0441C21.1469 10.1315 22.1401 9.29935 23.2138 8.54778Z" fill="#545454"/>
<path d="M27.7498 8.33307C27.1862 8.27938 26.5956 8.46728 26.1662 8.86991C22.5425 12.2252 20.1267 16.842 19.5898 22.0225H25.4414C26.7298 22.0225 27.7498 20.9757 27.7498 19.7141V8.33307Z" fill="#545454"/>
<path d="M25.9521 8.25253C25.0931 8.25253 24.261 8.5478 23.5631 9.03096C19.2147 12.0373 16.0473 16.6541 14.9736 22.0225H19.0268C19.4831 17.1104 21.6305 12.5741 25.1468 9.03096C25.3884 8.78938 25.6836 8.52095 25.9521 8.25253Z" fill="#545454"/>
</svg>
