<svg width="24" height="24" viewBox="0 0 24 24" fill="none" xmlns="http://www.w3.org/2000/svg">
<g clip-path="url(#clip0_2566_2246)">
<mask id="path-1-inside-1_2566_2246" fill="white">
<path d="M23.4211 7.85156L21.26 7.23746C21.466 6.89278 21.6289 6.52032 21.7409 6.12619C22.0414 5.06865 21.9548 3.93573 21.4969 2.93617L21.2422 2.38028C21.1451 2.16831 20.9601 2.00954 20.7358 1.94584C20.5115 1.88219 20.2706 1.91983 20.0766 2.04906L19.5677 2.38797C18.6527 2.99739 17.9832 3.91543 17.6827 4.97298C17.5707 5.3671 17.5134 5.76962 17.5075 6.17115L15.4024 5.57297C15.1991 5.51523 14.9814 5.54058 14.7969 5.64343C14.6124 5.74627 14.4763 5.91821 14.4185 6.12141L14.2626 6.67008C14.0726 7.3388 14.0974 8.03597 14.326 8.68031C14.1618 8.62514 13.9832 8.62387 13.8172 8.67998C13.6171 8.74772 13.4522 8.89214 13.3586 9.08156L13.1118 9.58087C12.7837 10.2449 12.6978 10.9662 12.8201 11.6426L12.4873 11.4359C12.3357 11.3418 12.165 11.3056 11.9999 11.3198C11.8349 11.3057 11.6642 11.3418 11.5127 11.4359L11.1799 11.6426C11.3022 10.9662 11.2163 10.2449 10.8882 9.58087L10.6415 9.08156C10.5478 8.89223 10.3829 8.74777 10.1828 8.67998C10.0168 8.62383 9.83825 8.62514 9.674 8.68031C9.9027 8.03597 9.92741 7.33875 9.73737 6.67008L9.58147 6.12146C9.52377 5.91826 9.38769 5.74632 9.20314 5.64347C9.0186 5.54063 8.80081 5.51537 8.59761 5.57302L6.49255 6.17119C6.48655 5.76966 6.42927 5.36715 6.31729 4.97302C6.01682 3.91548 5.34735 2.99748 4.43231 2.38801L3.92343 2.04911C3.72937 1.91983 3.48848 1.88214 3.26423 1.94589C3.03994 2.00959 2.85492 2.16836 2.7578 2.38032L2.50312 2.93621C2.0452 3.93578 1.95858 5.06869 2.25909 6.12624C2.37108 6.52036 2.53397 6.89283 2.74003 7.2375L0.578956 7.85156C0.155816 7.9718 -0.089668 8.41228 0.0305193 8.83533L0.186425 9.384C0.426097 10.2275 0.992064 10.9294 1.78008 11.3605C2.28361 11.6359 2.83378 11.7768 3.38681 11.7782L2.14041 12.3941C1.74605 12.589 1.58438 13.0666 1.77923 13.461L2.02598 13.9603C2.41397 14.7454 3.08583 15.3366 3.9179 15.6252C4.11857 15.6947 4.32243 15.7438 4.52723 15.774L4.46812 15.8107C4.28868 15.9222 4.16085 16.1003 4.11281 16.306C4.06471 16.5117 4.10034 16.7281 4.21171 16.9076L4.50599 17.3815C4.96799 18.1254 5.6938 18.6488 6.54983 18.8554C6.81036 18.9182 7.07296 18.9493 7.33311 18.9493C7.9341 18.9493 8.52228 18.7835 9.04213 18.4607L10.2225 17.7277C10.4135 17.9132 10.6052 18.0946 10.7968 18.2723C9.66102 19.2229 8.57408 20.0173 7.67535 20.6301C7.31188 20.8779 7.21813 21.3733 7.46596 21.7368C7.62013 21.9629 7.87025 22.0847 8.12474 22.0847C8.27924 22.0847 8.43533 22.0398 8.57267 21.9462C9.5555 21.2762 10.7522 20.3978 12.0001 19.3389C13.2478 20.3978 14.4446 21.2762 15.4275 21.9462C15.5648 22.0398 15.7209 22.0847 15.8754 22.0847C16.1299 22.0847 16.38 21.9629 16.5342 21.7368C16.782 21.3733 16.6882 20.8778 16.3248 20.6301C15.4261 20.0174 14.3391 19.2229 13.2033 18.2723C13.395 18.0946 13.5866 17.9132 13.7777 17.7277L14.958 18.4607C15.4779 18.7835 16.0659 18.9493 16.667 18.9493C16.9271 18.9493 17.1899 18.9182 17.4503 18.8554C18.3063 18.6488 19.0322 18.1254 19.4942 17.3815L19.7884 16.9076C19.8999 16.7281 19.9355 16.5118 19.8873 16.306C19.8393 16.1003 19.7114 15.9222 19.532 15.8107L19.4729 15.774C19.6778 15.7438 19.8817 15.6947 20.0822 15.6252C20.9143 15.3366 21.5862 14.7455 21.9742 13.9603L22.2209 13.461C22.4158 13.0667 22.2541 12.5891 21.8597 12.3942L20.6132 11.7782C21.1662 11.7767 21.7165 11.6358 22.22 11.3605C23.0079 10.9295 23.574 10.2276 23.8136 9.384L23.9695 8.83542C24.0898 8.41228 23.8443 7.9718 23.4211 7.85156ZM5.9901 8.33536C6.00515 8.30583 6.0186 8.27578 6.03299 8.24606C6.24627 7.99931 6.52827 7.81706 6.84744 7.72636L8.25285 7.32703C8.30736 7.69613 8.24057 8.07197 8.05803 8.40567C7.83993 8.80444 7.48316 9.09131 7.05355 9.21337L6.24369 9.44348C6.1198 9.13242 6.0074 8.81737 5.90704 8.49858L5.9901 8.33536ZM3.8257 3.92152C4.28404 4.30904 4.61981 4.82649 4.78513 5.40844C4.95154 5.9941 4.93785 6.60811 4.7511 7.1783C4.29239 6.79149 3.95789 6.27652 3.79148 5.69082C3.62615 5.10887 3.63965 4.49213 3.8257 3.92152ZM1.79583 9.16176L3.25626 8.74678C3.57548 8.65608 3.9112 8.66283 4.2224 8.76056C4.25029 8.77828 4.27757 8.7968 4.30589 8.814L4.34437 8.83734C4.45153 9.18975 4.57246 9.53747 4.70531 9.88059L3.86292 10.1199C3.02915 10.3567 2.13375 9.92465 1.79583 9.16176ZM4.43971 14.1201C4.08257 13.9963 3.78243 13.7664 3.57501 13.462L4.88967 12.8123C5.27235 12.6232 5.71101 12.5877 6.11727 12.7082C6.29755 13.0026 6.48571 13.2919 6.68001 13.5766L5.73126 14.0454C5.33066 14.2434 4.87199 14.27 4.43971 14.1201ZM8.20185 17.1073C7.82207 17.3432 7.36808 17.414 6.92357 17.3068C6.55607 17.2181 6.23502 17.0182 5.99919 16.735L7.24504 15.9613C7.57072 15.759 7.95341 15.6762 8.32944 15.7198C8.57582 16.007 8.82674 16.2876 9.08103 16.5613L8.20185 17.1073ZM8.7051 12.5759L8.11921 12.8654C7.89847 12.549 7.68674 12.2264 7.48527 11.8978C7.64924 11.5798 7.91122 11.3192 8.23672 11.1583L9.55161 10.5086C9.81805 11.3074 9.46939 12.1981 8.7051 12.5759ZM10.4574 15.7066C10.2041 15.4401 9.95394 15.1665 9.7085 14.8863C9.83295 14.5171 10.0819 14.1995 10.4167 13.9917L10.5962 13.8801C10.5905 14.4086 10.7108 14.9319 10.9466 15.4028L10.4574 15.7066ZM12.0001 17.2191C11.8721 17.1019 11.7441 16.9828 11.6164 16.8619L11.86 16.7106C11.9077 16.681 11.9544 16.6503 12 16.6186C12.0457 16.6502 12.0924 16.681 12.14 16.7106L12.3837 16.8619C12.256 16.9828 12.128 17.1018 12.0001 17.2191ZM13.5429 15.7066L12.9805 15.3574C12.256 14.9075 11.9949 13.9871 12.3376 13.2179L13.5836 13.9917C13.9184 14.1996 14.1673 14.5172 14.2918 14.8864C14.0463 15.1665 13.7962 15.44 13.5429 15.7066ZM19.215 5.40844C19.3803 4.82654 19.7162 4.30904 20.1744 3.92152C20.3605 4.49213 20.374 5.10887 20.2086 5.69082C20.0422 6.27647 19.7077 6.79149 19.249 7.1783C19.0623 6.60811 19.0486 5.9941 19.215 5.40844ZM15.7473 7.32699L17.1527 7.72631C17.4719 7.81702 17.7539 7.99927 17.9672 8.24602C17.9816 8.27573 17.995 8.30578 18.01 8.33531L18.0932 8.49848C17.9928 8.81728 17.8804 9.13237 17.7565 9.44339L16.9465 9.21328C16.5169 9.09122 16.1602 8.80434 15.9421 8.40558C15.7596 8.07192 15.6928 7.69603 15.7473 7.32699ZM14.4486 10.5085L15.7635 11.1583C16.089 11.3191 16.351 11.5797 16.5149 11.8978C16.3134 12.2263 16.1017 12.549 15.8809 12.8654L15.2951 12.5759C14.5308 12.1981 14.1821 11.3074 14.4486 10.5085ZM17.0767 17.3067C16.6322 17.414 16.1782 17.3432 15.7984 17.1073L14.9192 16.5613C15.1735 16.2876 15.4244 16.0069 15.6708 15.7197C16.0468 15.676 16.4295 15.759 16.7552 15.9613L18.001 16.735C17.7652 17.0181 17.4442 17.2181 17.0767 17.3067ZM19.5605 14.1201C19.1282 14.2699 18.6695 14.2434 18.2688 14.0454L17.3201 13.5765C17.5144 13.2918 17.7025 13.0025 17.8828 12.7082C18.2891 12.5876 18.7278 12.6231 19.1104 12.8122L20.4251 13.4619C20.2178 13.7664 19.9176 13.9963 19.5605 14.1201ZM20.1373 10.1199L19.2949 9.88059C19.4278 9.53747 19.5487 9.18975 19.6559 8.83734L19.6944 8.81391C19.7227 8.7967 19.7499 8.77828 19.7778 8.76047C20.089 8.66273 20.4248 8.65598 20.7439 8.74669L22.2044 9.16167C21.8665 9.92461 20.9711 10.3569 20.1373 10.1199Z"/>
</mask>
<path d="M23.4211 7.85156L21.26 7.23746C21.466 6.89278 21.6289 6.52032 21.7409 6.12619C22.0414 5.06865 21.9548 3.93573 21.4969 2.93617L21.2422 2.38028C21.1451 2.16831 20.9601 2.00954 20.7358 1.94584C20.5115 1.88219 20.2706 1.91983 20.0766 2.04906L19.5677 2.38797C18.6527 2.99739 17.9832 3.91543 17.6827 4.97298C17.5707 5.3671 17.5134 5.76962 17.5075 6.17115L15.4024 5.57297C15.1991 5.51523 14.9814 5.54058 14.7969 5.64343C14.6124 5.74627 14.4763 5.91821 14.4185 6.12141L14.2626 6.67008C14.0726 7.3388 14.0974 8.03597 14.326 8.68031C14.1618 8.62514 13.9832 8.62387 13.8172 8.67998C13.6171 8.74772 13.4522 8.89214 13.3586 9.08156L13.1118 9.58087C12.7837 10.2449 12.6978 10.9662 12.8201 11.6426L12.4873 11.4359C12.3357 11.3418 12.165 11.3056 11.9999 11.3198C11.8349 11.3057 11.6642 11.3418 11.5127 11.4359L11.1799 11.6426C11.3022 10.9662 11.2163 10.2449 10.8882 9.58087L10.6415 9.08156C10.5478 8.89223 10.3829 8.74777 10.1828 8.67998C10.0168 8.62383 9.83825 8.62514 9.674 8.68031C9.9027 8.03597 9.92741 7.33875 9.73737 6.67008L9.58147 6.12146C9.52377 5.91826 9.38769 5.74632 9.20314 5.64347C9.0186 5.54063 8.80081 5.51537 8.59761 5.57302L6.49255 6.17119C6.48655 5.76966 6.42927 5.36715 6.31729 4.97302C6.01682 3.91548 5.34735 2.99748 4.43231 2.38801L3.92343 2.04911C3.72937 1.91983 3.48848 1.88214 3.26423 1.94589C3.03994 2.00959 2.85492 2.16836 2.7578 2.38032L2.50312 2.93621C2.0452 3.93578 1.95858 5.06869 2.25909 6.12624C2.37108 6.52036 2.53397 6.89283 2.74003 7.2375L0.578956 7.85156C0.155816 7.9718 -0.089668 8.41228 0.0305193 8.83533L0.186425 9.384C0.426097 10.2275 0.992064 10.9294 1.78008 11.3605C2.28361 11.6359 2.83378 11.7768 3.38681 11.7782L2.14041 12.3941C1.74605 12.589 1.58438 13.0666 1.77923 13.461L2.02598 13.9603C2.41397 14.7454 3.08583 15.3366 3.9179 15.6252C4.11857 15.6947 4.32243 15.7438 4.52723 15.774L4.46812 15.8107C4.28868 15.9222 4.16085 16.1003 4.11281 16.306C4.06471 16.5117 4.10034 16.7281 4.21171 16.9076L4.50599 17.3815C4.96799 18.1254 5.6938 18.6488 6.54983 18.8554C6.81036 18.9182 7.07296 18.9493 7.33311 18.9493C7.9341 18.9493 8.52228 18.7835 9.04213 18.4607L10.2225 17.7277C10.4135 17.9132 10.6052 18.0946 10.7968 18.2723C9.66102 19.2229 8.57408 20.0173 7.67535 20.6301C7.31188 20.8779 7.21813 21.3733 7.46596 21.7368C7.62013 21.9629 7.87025 22.0847 8.12474 22.0847C8.27924 22.0847 8.43533 22.0398 8.57267 21.9462C9.5555 21.2762 10.7522 20.3978 12.0001 19.3389C13.2478 20.3978 14.4446 21.2762 15.4275 21.9462C15.5648 22.0398 15.7209 22.0847 15.8754 22.0847C16.1299 22.0847 16.38 21.9629 16.5342 21.7368C16.782 21.3733 16.6882 20.8778 16.3248 20.6301C15.4261 20.0174 14.3391 19.2229 13.2033 18.2723C13.395 18.0946 13.5866 17.9132 13.7777 17.7277L14.958 18.4607C15.4779 18.7835 16.0659 18.9493 16.667 18.9493C16.9271 18.9493 17.1899 18.9182 17.4503 18.8554C18.3063 18.6488 19.0322 18.1254 19.4942 17.3815L19.7884 16.9076C19.8999 16.7281 19.9355 16.5118 19.8873 16.306C19.8393 16.1003 19.7114 15.9222 19.532 15.8107L19.4729 15.774C19.6778 15.7438 19.8817 15.6947 20.0822 15.6252C20.9143 15.3366 21.5862 14.7455 21.9742 13.9603L22.2209 13.461C22.4158 13.0667 22.2541 12.5891 21.8597 12.3942L20.6132 11.7782C21.1662 11.7767 21.7165 11.6358 22.22 11.3605C23.0079 10.9295 23.574 10.2276 23.8136 9.384L23.9695 8.83542C24.0898 8.41228 23.8443 7.9718 23.4211 7.85156ZM5.9901 8.33536C6.00515 8.30583 6.0186 8.27578 6.03299 8.24606C6.24627 7.99931 6.52827 7.81706 6.84744 7.72636L8.25285 7.32703C8.30736 7.69613 8.24057 8.07197 8.05803 8.40567C7.83993 8.80444 7.48316 9.09131 7.05355 9.21337L6.24369 9.44348C6.1198 9.13242 6.0074 8.81737 5.90704 8.49858L5.9901 8.33536ZM3.8257 3.92152C4.28404 4.30904 4.61981 4.82649 4.78513 5.40844C4.95154 5.9941 4.93785 6.60811 4.7511 7.1783C4.29239 6.79149 3.95789 6.27652 3.79148 5.69082C3.62615 5.10887 3.63965 4.49213 3.8257 3.92152ZM1.79583 9.16176L3.25626 8.74678C3.57548 8.65608 3.9112 8.66283 4.2224 8.76056C4.25029 8.77828 4.27757 8.7968 4.30589 8.814L4.34437 8.83734C4.45153 9.18975 4.57246 9.53747 4.70531 9.88059L3.86292 10.1199C3.02915 10.3567 2.13375 9.92465 1.79583 9.16176ZM4.43971 14.1201C4.08257 13.9963 3.78243 13.7664 3.57501 13.462L4.88967 12.8123C5.27235 12.6232 5.71101 12.5877 6.11727 12.7082C6.29755 13.0026 6.48571 13.2919 6.68001 13.5766L5.73126 14.0454C5.33066 14.2434 4.87199 14.27 4.43971 14.1201ZM8.20185 17.1073C7.82207 17.3432 7.36808 17.414 6.92357 17.3068C6.55607 17.2181 6.23502 17.0182 5.99919 16.735L7.24504 15.9613C7.57072 15.759 7.95341 15.6762 8.32944 15.7198C8.57582 16.007 8.82674 16.2876 9.08103 16.5613L8.20185 17.1073ZM8.7051 12.5759L8.11921 12.8654C7.89847 12.549 7.68674 12.2264 7.48527 11.8978C7.64924 11.5798 7.91122 11.3192 8.23672 11.1583L9.55161 10.5086C9.81805 11.3074 9.46939 12.1981 8.7051 12.5759ZM10.4574 15.7066C10.2041 15.4401 9.95394 15.1665 9.7085 14.8863C9.83295 14.5171 10.0819 14.1995 10.4167 13.9917L10.5962 13.8801C10.5905 14.4086 10.7108 14.9319 10.9466 15.4028L10.4574 15.7066ZM12.0001 17.2191C11.8721 17.1019 11.7441 16.9828 11.6164 16.8619L11.86 16.7106C11.9077 16.681 11.9544 16.6503 12 16.6186C12.0457 16.6502 12.0924 16.681 12.14 16.7106L12.3837 16.8619C12.256 16.9828 12.128 17.1018 12.0001 17.2191ZM13.5429 15.7066L12.9805 15.3574C12.256 14.9075 11.9949 13.9871 12.3376 13.2179L13.5836 13.9917C13.9184 14.1996 14.1673 14.5172 14.2918 14.8864C14.0463 15.1665 13.7962 15.44 13.5429 15.7066ZM19.215 5.40844C19.3803 4.82654 19.7162 4.30904 20.1744 3.92152C20.3605 4.49213 20.374 5.10887 20.2086 5.69082C20.0422 6.27647 19.7077 6.79149 19.249 7.1783C19.0623 6.60811 19.0486 5.9941 19.215 5.40844ZM15.7473 7.32699L17.1527 7.72631C17.4719 7.81702 17.7539 7.99927 17.9672 8.24602C17.9816 8.27573 17.995 8.30578 18.01 8.33531L18.0932 8.49848C17.9928 8.81728 17.8804 9.13237 17.7565 9.44339L16.9465 9.21328C16.5169 9.09122 16.1602 8.80434 15.9421 8.40558C15.7596 8.07192 15.6928 7.69603 15.7473 7.32699ZM14.4486 10.5085L15.7635 11.1583C16.089 11.3191 16.351 11.5797 16.5149 11.8978C16.3134 12.2263 16.1017 12.549 15.8809 12.8654L15.2951 12.5759C14.5308 12.1981 14.1821 11.3074 14.4486 10.5085ZM17.0767 17.3067C16.6322 17.414 16.1782 17.3432 15.7984 17.1073L14.9192 16.5613C15.1735 16.2876 15.4244 16.0069 15.6708 15.7197C16.0468 15.676 16.4295 15.759 16.7552 15.9613L18.001 16.735C17.7652 17.0181 17.4442 17.2181 17.0767 17.3067ZM19.5605 14.1201C19.1282 14.2699 18.6695 14.2434 18.2688 14.0454L17.3201 13.5765C17.5144 13.2918 17.7025 13.0025 17.8828 12.7082C18.2891 12.5876 18.7278 12.6231 19.1104 12.8122L20.4251 13.4619C20.2178 13.7664 19.9176 13.9963 19.5605 14.1201ZM20.1373 10.1199L19.2949 9.88059C19.4278 9.53747 19.5487 9.18975 19.6559 8.83734L19.6944 8.81391C19.7227 8.7967 19.7499 8.77828 19.7778 8.76047C20.089 8.66273 20.4248 8.65598 20.7439 8.74669L22.2044 9.16167C21.8665 9.92461 20.9711 10.3569 20.1373 10.1199Z" fill="black" stroke="white" stroke-width="0.6" mask="url(#path-1-inside-1_2566_2246)"/>
</g>
<defs>
<clipPath id="clip0_2566_2246">
<rect width="24" height="24" fill="white"/>
</clipPath>
</defs>
</svg>
