<svg width="16" height="15" viewBox="0 0 16 15" fill="none" xmlns="http://www.w3.org/2000/svg">
<path d="M2 11.75C1.5875 11.75 1.23438 11.6031 0.940625 11.3094C0.646875 11.0156 0.5 10.6625 0.5 10.25V4.3625C0.5 4.175 0.553125 3.99062 0.659375 3.80937C0.765625 3.62812 0.9125 3.4875 1.1 3.3875L6.875 0.5L12.5375 3.3875C12.6875 3.4625 12.8156 3.58125 12.9219 3.74375C13.0281 3.90625 13.1 4.075 13.1375 4.25H10.9437L6.875 2.1875L2 4.60625V11.75ZM4.25 14.75C3.8375 14.75 3.48437 14.6031 3.19062 14.3094C2.89687 14.0156 2.75 13.6625 2.75 13.25V6.5C2.75 6.0875 2.89687 5.73438 3.19062 5.44063C3.48437 5.14687 3.8375 5 4.25 5H14C14.4125 5 14.7656 5.14687 15.0594 5.44063C15.3531 5.73438 15.5 6.0875 15.5 6.5V13.25C15.5 13.6625 15.3531 14.0156 15.0594 14.3094C14.7656 14.6031 14.4125 14.75 14 14.75H4.25ZM9.125 10.5125L4.25 8V13.25H14V8L9.125 10.5125ZM9.125 9.0125L14 6.5H4.25L9.125 9.0125Z" fill="white"/>
</svg>
