<svg width="32" height="32" viewBox="0 0 32 32" fill="none" xmlns="http://www.w3.org/2000/svg">
<g clip-path="url(#clip0_533_7170)">
<rect width="32" height="32" rx="16" fill="white"/>
<path fill-rule="evenodd" clip-rule="evenodd" d="M11.165 22.064L12.4721 22.1367V17.7072C13.1982 18.0702 16.3933 21.4105 17.2647 21.8462C17.773 21.5557 21.9846 17.8524 22.3477 17.6346L22.4203 22.1367H23.7273V13.2051C23.0012 13.7134 19.8788 16.7632 18.9348 17.6346C18.2813 18.1429 17.9182 18.7964 17.2647 19.1595C16.1754 18.5785 11.8186 13.4955 11.165 13.2051V22.064Z" fill="#039441"/>
<path fill-rule="evenodd" clip-rule="evenodd" d="M15.5967 17.1996C15.9598 17.49 16.1776 17.7805 16.6133 18.1436C16.9037 17.6353 16.9764 17.49 17.2668 16.9091C17.4847 17.3448 17.7025 17.7805 17.8477 18.1436L18.9369 17.127L17.2668 13.0605L15.5967 17.1996Z" fill="#D5C95D"/>
<path fill-rule="evenodd" clip-rule="evenodd" d="M19.0088 20.9756L19.3719 21.7017C19.4445 21.7743 19.4445 21.847 19.5171 22.0648L21.1146 22.1374C20.8242 21.3387 20.5337 20.6125 20.3158 19.959C19.8802 20.2494 19.2992 20.6125 19.0088 20.9756Z" fill="#D5C95D"/>
<path fill-rule="evenodd" clip-rule="evenodd" d="M13.7803 22.1371H14.9421H15.3778L15.7409 20.9752C15.2326 20.6848 15.0147 20.3943 14.4338 20.0312L13.7803 22.1371Z" fill="#D5C95D"/>
<path fill-rule="evenodd" clip-rule="evenodd" d="M23.2195 12.4069C23.2195 12.1891 23.1469 11.7534 23.3648 11.5356C23.3648 11.463 23.3648 11.463 23.4374 11.463C23.4374 12.0439 23.3648 12.0439 23.7278 12.4796C23.8731 12.4069 24.0909 12.2617 24.2361 12.1165C24.3088 11.8986 24.2361 11.6082 24.1635 11.3177C24.0909 11.0999 23.7278 10.3737 23.5826 10.2285C23.2922 10.519 23.0017 10.882 22.7839 11.3177C22.566 11.826 22.6386 12.3343 23.2195 12.4069Z" fill="#D5C95D"/>
<path fill-rule="evenodd" clip-rule="evenodd" d="M24.1634 13.5691C24.2361 13.4965 24.2361 13.4239 24.3087 13.3513C24.3087 13.3513 24.3813 13.2061 24.4539 13.2061C24.5265 13.0608 24.6717 12.9882 24.8896 12.9882C24.7444 13.2061 24.4539 13.2061 24.4539 13.9322C24.6717 14.0048 25.0348 14.0048 25.18 13.8596C25.5431 13.6417 25.8336 12.5525 25.761 12.1895C24.9622 12.2621 23.5099 12.6251 24.1634 13.5691Z" fill="#D5C95D"/>
<path fill-rule="evenodd" clip-rule="evenodd" d="M22.4946 13.9322C22.4946 13.6417 22.4219 13.4965 22.3493 13.3513C22.2767 13.2061 22.1315 13.0608 22.0589 12.9882C22.2767 12.9882 22.4946 13.2061 22.6398 13.3513C22.7124 13.4239 22.7124 13.4965 22.785 13.5691C23.4385 12.5525 21.841 12.2621 21.1875 12.1895C21.1875 12.5525 21.3327 13.1334 21.4053 13.4239C21.5506 13.6417 21.6232 13.787 21.7684 13.9322C21.9136 14.0048 22.2767 14.0048 22.4946 13.9322Z" fill="#D5C95D"/>
<path fill-rule="evenodd" clip-rule="evenodd" d="M7.60791 11.3901C7.31746 11.6079 7.39007 11.6805 6.95438 11.8984C6.59131 8.41288 7.24484 10.3009 5.28425 7.17843C5.06641 6.81536 4.84856 6.08922 4.55811 5.72614C3.54151 6.96059 2.37967 9.71994 3.97719 11.4627C4.26765 11.7531 5.06641 12.4067 5.57471 12.4793C5.35687 12.0436 5.21164 11.6805 5.06641 11.1722C4.99379 10.6639 4.84856 10.0104 4.92118 9.64732C4.99379 9.35687 4.99379 9.5021 4.99379 9.35687C5.79255 12.4793 5.93778 10.0104 5.93778 13.859C5.86517 15.6017 6.0104 17.1992 6.5187 18.7967C7.09961 20.8299 8.26144 22.5001 9.93158 23.7345L11.6743 24.8237C9.42327 24.6059 6.22824 22.6453 5.06641 21.5561C4.19503 20.7573 3.54151 20.1038 2.74275 19.0872C2.30706 18.5063 1.21784 16.7635 1 16.0374C1 17.4171 2.67013 20.4669 3.68673 21.7013C4.99379 23.2988 6.5187 24.6059 8.40667 25.5499C9.64112 26.2034 11.0934 26.7117 12.6909 26.9296C16.0312 27.4379 19.5167 26.6391 21.9856 25.1868C23.2926 24.4607 24.9628 23.1536 25.8341 21.9192C26.3424 21.2656 27.2864 20.1764 27.5769 19.305C28.303 19.305 28.5935 19.1598 29.247 19.0872C28.2304 19.6681 27.94 19.6681 27.6495 19.886C28.5209 20.1038 28.9566 20.6121 29.9005 19.886C30.4088 19.5229 30.9171 18.8694 31.135 18.1432C29.9005 18.2884 29.1018 17.998 28.0126 18.5063C28.0852 18.1432 28.0852 18.2884 28.5209 18.0706C28.8113 17.9254 28.9566 17.8528 29.1744 17.7075C30.9898 16.4731 29.9005 14.1494 29.6101 12.9876L29.247 13.5685C28.7387 14.2946 25.8341 16.2552 27.0686 17.998C27.6495 17.6349 28.0852 16.8362 28.4483 16.2552L28.6661 15.8922C28.5935 16.8362 26.996 19.2324 26.2698 19.9586C23.4379 23.0084 19.7345 25.1142 15.305 25.1868C14.5063 25.1868 13.7075 24.4607 13.1266 24.0976C11.0208 22.6453 8.26144 20.0312 7.17223 17.054C6.5187 15.2386 6.66393 13.278 7.75314 12.1162C8.47929 11.3175 9.20543 9.35687 10.7303 8.55811C10.1494 9.64732 8.98759 11.027 8.84236 12.6971C10.7303 12.6971 11.8196 11.3175 12.3279 9.86517C12.6183 9.06641 12.8362 8.19504 13.054 7.32366C13.4897 5.58092 13.6349 5.94399 14.0706 5C11.8196 5.14523 8.62452 6.23445 7.82576 8.41288C7.39007 9.57471 7.60791 10.1556 7.60791 11.3901Z" fill="#039441"/>
</g>
<defs>
<clipPath id="clip0_533_7170">
<rect width="32" height="32" rx="16" fill="white"/>
</clipPath>
</defs>
</svg>
