<svg width="30" height="30" viewBox="0 0 30 30" fill="none" xmlns="http://www.w3.org/2000/svg">
<path d="M27.1355 24.8496H25.808C25.8753 24.668 25.8894 24.4656 25.8292 24.2662L24.855 21.0188L25.3936 17.9305C25.3945 17.9259 25.3939 17.9216 25.3945 17.917C25.447 17.697 25.4611 17.4644 25.4267 17.2273L24.4842 10.6904C24.3388 9.68264 23.4024 8.98216 22.3965 9.12901C21.3891 9.27433 20.6899 10.2089 20.8352 11.2166L20.845 11.2858L20.5393 12.1988L16.9386 13.55C16.5417 13.699 16.3404 14.1421 16.4894 14.5393C16.6053 14.8475 16.8978 15.0376 17.2087 15.0376C17.2984 15.0376 17.3896 15.0217 17.4787 14.9885L21.1787 13.5995L21.3639 14.8828L19.7836 15.6837L18.793 15.7449C18.4032 15.7688 18.103 16.0804 18.0775 16.4595C17.3948 16.5809 16.8606 17.1219 16.7472 17.8073H16.5653L16.5583 19.1932C16.553 20.1889 17.3561 21 18.3519 21.0053C19.3476 21.0105 20.159 20.2074 20.1642 19.2117L20.171 17.8073H19.9823C19.9473 17.5959 19.8723 17.3999 19.7648 17.2242L20.0364 17.2073C20.1412 17.2008 20.2432 17.1732 20.3369 17.1256L21.5956 16.4875L21.7428 17.5078L20.4186 19.4728C20.3178 19.6224 20.2631 19.7988 20.2613 19.9791L20.2189 24.5221C20.2177 24.6376 20.2404 24.747 20.2782 24.8493H13.9788V24.0969C14.0233 24.1043 14.0669 24.1095 14.1084 24.1095C14.6464 24.1095 14.82 23.511 14.8372 23.1571L14.8455 22.9943L14.6829 23.0072C14.3711 23.0314 14.1355 23.1193 13.9788 23.2668V22.9921C14.1213 22.8886 14.211 22.7577 14.2393 22.5985C14.3127 22.1835 13.9382 21.7524 13.9219 21.7343L13.8144 21.6123L13.7069 21.7343C13.4513 22.0246 13.345 22.3033 13.3904 22.5614C13.4337 22.8068 13.6036 22.9574 13.6921 23.021V23.3344C13.5493 23.1549 13.3093 23.0379 12.9769 22.9866L12.8159 22.9614L12.8116 23.1242C12.811 23.146 12.8009 23.6656 13.0771 23.9488C13.195 24.0699 13.3443 24.1313 13.521 24.1313C13.5742 24.1313 13.6307 24.1255 13.6884 24.1138L13.6921 24.1132V24.8493H10.9065V24.0969C10.951 24.1043 10.9947 24.1095 11.0361 24.1095C11.5741 24.1095 11.7477 23.511 11.7649 23.1571L11.7732 22.9943L11.6106 23.0072C11.2988 23.0314 11.0632 23.1193 10.9065 23.2668V22.9921C11.049 22.8886 11.1387 22.7577 11.167 22.5985C11.2404 22.1835 10.8659 21.7524 10.8496 21.7343L10.7421 21.6123L10.6346 21.7343C10.379 22.0246 10.2727 22.3033 10.3181 22.5614C10.3615 22.8068 10.5314 22.9574 10.6198 23.021V23.3344C10.477 23.1549 10.237 23.0379 9.90461 22.9866L9.74362 22.9614L9.73932 23.1242C9.7387 23.146 9.72857 23.6656 10.0048 23.9488C10.1227 24.0699 10.2721 24.1313 10.4487 24.1313C10.5019 24.1313 10.5584 24.1255 10.6162 24.1138L10.6198 24.1132V24.8493H7.83419V24.0969C7.87874 24.1043 7.92237 24.1095 7.96384 24.1095C8.5018 24.1095 8.67539 23.511 8.69259 23.1571L8.70089 22.9943L8.53836 23.0072C8.22652 23.0314 7.99088 23.1193 7.83419 23.2668V22.9921C7.97675 22.8886 8.06646 22.7577 8.09472 22.5985C8.16815 22.1835 7.79364 21.7524 7.77736 21.7343L7.66983 21.6123L7.5623 21.7343C7.30668 22.0246 7.20038 22.3033 7.24585 22.5614C7.28917 22.8068 7.45907 22.9574 7.54755 23.021V23.3344C7.40469 23.1549 7.16474 23.0379 6.83232 22.9866L6.67133 22.9614L6.66703 23.1242C6.66642 23.146 6.65628 23.6656 6.93248 23.9488C7.05045 24.0699 7.19977 24.1313 7.37642 24.1313C7.42957 24.1313 7.4861 24.1255 7.54386 24.1138L7.54755 24.1132V24.8493H4.7619V24.0969C4.80645 24.1043 4.85008 24.1095 4.89155 24.1095C5.42951 24.1095 5.6031 23.511 5.6203 23.1571L5.6286 22.9943L5.46607 23.0072C5.15423 23.0314 4.91859 23.1193 4.7619 23.2668V22.9921C4.90446 22.8886 4.99417 22.7577 5.02243 22.5985C5.09586 22.1835 4.72135 21.7524 4.70507 21.7343L4.59754 21.6123L4.49001 21.7343C4.23439 22.0246 4.12809 22.3033 4.17356 22.5614C4.21688 22.8068 4.38678 22.9574 4.47526 23.021V23.3344C4.3324 23.1549 4.09245 23.0379 3.76003 22.9866L3.59904 22.9614L3.59474 23.1242C3.59413 23.146 3.58399 23.6656 3.86019 23.9488C3.97816 24.0699 4.12748 24.1313 4.30413 24.1313C4.35728 24.1313 4.41381 24.1255 4.47157 24.1138L4.47526 24.1132V24.8493H2.86446C2.52528 24.8493 2.25 25.1246 2.25 25.4638C2.25 25.8029 2.52528 26.0782 2.86446 26.0782H27.1355C27.4747 26.0782 27.75 25.8029 27.75 25.4638C27.75 25.1246 27.4747 24.8496 27.1355 24.8496ZM17.3746 17.8073C17.4873 17.391 17.8529 17.0813 18.2972 17.0518C18.437 17.1922 18.6287 17.2795 18.8397 17.2795C18.8557 17.2795 18.8717 17.2789 18.8874 17.278L19.001 17.2712C19.1712 17.4061 19.2969 17.5919 19.355 17.8073H17.3746ZM22.0021 24.8496C22.038 24.7525 22.0613 24.6493 22.0623 24.5396L22.1019 20.2731L22.8485 19.1656C22.9867 19.2279 23.1308 19.278 23.2829 19.3051L23.0018 20.9162C22.9772 21.0572 22.9855 21.2022 23.027 21.3395L24.0639 24.7958C24.0697 24.8149 24.0783 24.8315 24.0848 24.8496H22.0021Z" fill="#545454"/>
<path d="M11.5777 15.4929C11.7762 15.4929 11.759 15.1863 11.5614 15.1863C11.3632 15.1863 11.3801 15.4929 11.5777 15.4929Z" fill="#545454"/>
<path d="M13.4205 15.0321C13.6189 15.0321 13.6017 14.7255 13.4042 14.7255C13.206 14.7255 13.2229 15.0321 13.4205 15.0321Z" fill="#545454"/>
<path d="M15.3666 14.6226C15.5651 14.6226 15.5479 14.3159 15.3504 14.3159C15.1522 14.3159 15.1694 14.6226 15.3666 14.6226Z" fill="#545454"/>
<path d="M15.4692 16.7219C15.6677 16.7219 15.6504 16.4152 15.4529 16.4152C15.2547 16.4152 15.2719 16.7219 15.4692 16.7219Z" fill="#545454"/>
<path d="M15.059 20.3576C15.2575 20.3576 15.2403 20.051 15.0427 20.051C14.8446 20.051 14.8618 20.3576 15.059 20.3576Z" fill="#545454"/>
<path d="M14.2397 16.261C14.4382 16.261 14.421 15.9544 14.2234 15.9544C14.0252 15.9544 14.0425 16.261 14.2397 16.261Z" fill="#545454"/>
<path d="M12.7036 18.0021C12.902 18.0021 12.8848 17.6955 12.6873 17.6955C12.4891 17.6955 12.5063 18.0021 12.7036 18.0021Z" fill="#545454"/>
<path d="M12.2426 19.8968C12.4411 19.8968 12.4239 19.5901 12.2263 19.5901C12.0282 19.5901 12.0454 19.8968 12.2426 19.8968Z" fill="#545454"/>
<path d="M9.68305 18.4629C9.88152 18.4629 9.86432 18.1563 9.66677 18.1563C9.4686 18.1563 9.48581 18.4629 9.68305 18.4629Z" fill="#545454"/>
<path d="M9.78461 20.8184C9.98308 20.8184 9.96588 20.5118 9.76833 20.5118C9.57017 20.5118 9.58737 20.8184 9.78461 20.8184Z" fill="#545454"/>
<path d="M14.189 21.4839C14.3875 21.4839 14.3703 21.1773 14.1727 21.1773C13.9746 21.1773 13.9915 21.4839 14.189 21.4839Z" fill="#545454"/>
<path d="M12.8062 21.3816C13.0047 21.3816 12.9875 21.075 12.7899 21.075C12.5918 21.075 12.6087 21.3816 12.8062 21.3816Z" fill="#545454"/>
<path d="M16.3901 21.8424C16.5886 21.8424 16.5713 21.5358 16.3738 21.5358C16.1756 21.5358 16.1928 21.8424 16.3901 21.8424Z" fill="#545454"/>
<path d="M14.189 18.4629C14.3875 18.4629 14.3703 18.1563 14.1727 18.1563C13.9746 18.1563 13.9915 18.4629 14.189 18.4629Z" fill="#545454"/>
<path d="M10.9634 17.4389C11.1619 17.4389 11.1447 17.1323 10.9472 17.1323C10.749 17.1323 10.7659 17.4389 10.9634 17.4389Z" fill="#545454"/>
<path d="M19.7578 7.28654C20.069 8.07396 20.8352 8.63189 21.7333 8.63189C22.9066 8.63189 23.8584 7.6804 23.8584 6.50679C23.8584 6.42322 23.8522 6.34088 23.8427 6.25978C25.5226 5.73902 26.6597 5.23609 26.6001 5.00137C26.5463 4.78876 25.5211 4.85113 24.0446 5.11904C23.4452 4.0594 22.1824 3.50486 20.96 3.85448C19.7891 4.18936 19.0244 5.2493 19.0078 6.40725C17.6742 6.85365 16.8148 7.26196 16.8665 7.46688C16.9248 7.69546 18.1034 7.60667 19.7578 7.28654Z" fill="#545454"/>
<path fill-rule="evenodd" clip-rule="evenodd" d="M6.18753 20.0175C6.18753 20.0175 6.96667 19.5749 6.18753 18.75C5.40833 19.5749 6.18753 20.0175 6.18753 20.0175ZM6.14749 22.1448H6.22751C6.23776 21.8416 6.80575 21.5202 7.125 21.4876C7.08681 21.8914 6.63677 22.6785 6.30794 22.3367C6.29883 22.3273 6.29071 22.3177 6.2832 22.3081V25.25H6.09174V22.3081C6.08429 22.3177 6.07617 22.3273 6.06706 22.3367C5.73816 22.6785 5.28819 21.8914 5.25 21.4876C5.56919 21.5202 6.13717 21.8416 6.14749 22.1448ZM5.25 20.6009C5.63857 20.6405 6.39596 21.1082 6.06706 21.4499C5.73816 21.7917 5.28819 21.0047 5.25 20.6009ZM5.25 19.714C5.63857 19.7538 6.39596 20.2214 6.06706 20.5632C5.73816 20.905 5.28819 20.1179 5.25 19.714ZM7.125 20.6009C6.73643 20.6405 5.97904 21.1082 6.30794 21.4499C6.63677 21.7917 7.08681 21.0047 7.125 20.6009ZM7.125 19.714C6.73643 19.7538 5.97904 20.2214 6.30794 20.5632C6.63677 20.905 7.08681 20.1179 7.125 19.714Z" fill="#545454"/>
<path fill-rule="evenodd" clip-rule="evenodd" d="M9.18753 20.0175C9.18753 20.0175 9.96667 19.5749 9.18753 18.75C8.40833 19.5749 9.18753 20.0175 9.18753 20.0175ZM9.14749 22.1448H9.22751C9.23776 21.8416 9.80575 21.5202 10.125 21.4876C10.0868 21.8914 9.63677 22.6785 9.30794 22.3367C9.29883 22.3273 9.29071 22.3177 9.2832 22.3081V25.25H9.09174V22.3081C9.08429 22.3177 9.07617 22.3273 9.06706 22.3367C8.73816 22.6785 8.28819 21.8914 8.25 21.4876C8.56919 21.5202 9.13717 21.8416 9.14749 22.1448ZM8.25 20.6009C8.63857 20.6405 9.39596 21.1082 9.06706 21.4499C8.73816 21.7917 8.28819 21.0047 8.25 20.6009ZM8.25 19.714C8.63857 19.7538 9.39596 20.2214 9.06706 20.5632C8.73816 20.905 8.28819 20.1179 8.25 19.714ZM10.125 20.6009C9.73643 20.6405 8.97904 21.1082 9.30794 21.4499C9.63677 21.7917 10.0868 21.0047 10.125 20.6009ZM10.125 19.714C9.73643 19.7538 8.97904 20.2214 9.30794 20.5632C9.63677 20.905 10.0868 20.1179 10.125 19.714Z" fill="#545454"/>
<path fill-rule="evenodd" clip-rule="evenodd" d="M12.1875 20.0175C12.1875 20.0175 12.9667 19.5749 12.1875 18.75C11.4083 19.5749 12.1875 20.0175 12.1875 20.0175ZM12.1475 22.1448H12.2275C12.2378 21.8416 12.8057 21.5202 13.125 21.4876C13.0868 21.8914 12.6368 22.6785 12.3079 22.3367C12.2988 22.3273 12.2907 22.3177 12.2832 22.3081V25.25H12.0917V22.3081C12.0843 22.3177 12.0762 22.3273 12.0671 22.3367C11.7382 22.6785 11.2882 21.8914 11.25 21.4876C11.5692 21.5202 12.1372 21.8416 12.1475 22.1448ZM11.25 20.6009C11.6386 20.6405 12.396 21.1082 12.0671 21.4499C11.7382 21.7917 11.2882 21.0047 11.25 20.6009ZM11.25 19.714C11.6386 19.7538 12.396 20.2214 12.0671 20.5632C11.7382 20.905 11.2882 20.1179 11.25 19.714ZM13.125 20.6009C12.7364 20.6405 11.979 21.1082 12.3079 21.4499C12.6368 21.7917 13.0868 21.0047 13.125 20.6009ZM13.125 19.714C12.7364 19.7538 11.979 20.2214 12.3079 20.5632C12.6368 20.905 13.0868 20.1179 13.125 19.714Z" fill="#545454"/>
</svg>
