<svg width="30" height="30" viewBox="0 0 30 30" fill="none" xmlns="http://www.w3.org/2000/svg">
<g clip-path="url(#clip0_2649_2287)">
<path d="M29.4191 18.4933C29.3799 18.4911 25.1228 18.2607 20.3031 20.0209C19.2194 20.4167 18.1885 20.8838 17.2172 21.4182C13.0763 19.7469 8.83598 19.0389 5.98105 18.7397C5.92428 18.7338 5.86867 18.7282 5.81254 18.7225V18.0401C6.32951 18.0028 7.03041 17.8497 7.53947 17.3439C8.39055 16.4976 8.25115 15.0903 8.2324 14.9326L8.22555 14.9334C8.19408 14.6586 7.97781 14.4308 7.69129 14.3958C7.53408 14.3767 6.13164 14.2324 5.28414 15.0748C5.25742 15.1013 5.23182 15.1283 5.20697 15.1559C5.18225 15.1283 5.15658 15.1013 5.12986 15.0748C4.28201 14.2323 2.87957 14.3766 2.7226 14.3958V14.396C2.44551 14.4263 2.21576 14.6442 2.18154 14.9328C2.16279 15.0905 2.0234 16.4978 2.87465 17.3441C3.37926 17.8455 4.07236 18.0003 4.58787 18.0393V18.6135C2.2048 18.4317 0.665723 18.4899 0.59002 18.493C0.261719 18.5063 0.00238282 18.7763 0.00244142 19.1049L0.00490235 29.388C0.00513673 29.726 0.279238 30 0.617324 30H29.3852C29.7233 30 29.9975 29.7259 29.9975 29.3878V19.1046C29.9975 18.7797 29.7436 18.5113 29.4191 18.4933ZM6.14723 15.9432C6.36139 15.7304 6.70762 15.6419 7.01295 15.6115C6.98049 15.9168 6.8899 16.2631 6.67633 16.4753C6.46633 16.6839 6.12906 16.7743 5.82877 16.8083C5.82725 16.7855 5.82525 16.7623 5.82326 16.7389C5.86012 16.4506 5.95018 16.139 6.14723 15.9432ZM15.8876 22.2165C15.4139 22.5261 14.9566 22.8527 14.5176 23.1969C14.3858 23.3003 14.2557 23.4055 14.1269 23.512C11.763 21.9405 9.13158 20.8332 6.96109 20.0925C9.59002 20.4299 12.7552 21.0574 15.8876 22.2165ZM4.58535 16.8083C4.28494 16.7743 3.94779 16.6839 3.73803 16.4755C3.52439 16.2631 3.43381 15.9172 3.40135 15.6114C3.70604 15.6418 4.05268 15.7302 4.26701 15.9432C4.464 16.1391 4.554 16.4506 4.59092 16.7385C4.58881 16.7621 4.58693 16.7854 4.58535 16.8083ZM1.22951 28.7755L1.2274 20.084C2.99588 21.0322 7.10283 23.6891 9.19557 28.7755H1.22951ZM4.74584 20.9518C4.56121 20.804 4.37951 20.6641 4.20121 20.531C6.73943 21.2264 10.1832 22.4256 13.1782 24.3543C12.0399 25.4335 11.0419 26.6508 10.1942 27.9939C8.73186 24.6329 6.47148 22.3332 4.74584 20.9518ZM11.148 28.7755C14.7371 22.9887 20.5582 20.885 24.6235 20.1268C24.3048 20.2762 23.978 20.4377 23.6455 20.6122C21.8917 21.5332 20.3499 22.6262 19.0628 23.8608C17.5491 25.3129 16.3868 26.9647 15.6027 28.7755H11.148ZM16.9505 28.7755C18.6812 25.1979 21.7926 22.9732 24.1838 21.7126C25.0303 21.2665 25.845 20.9079 26.5718 20.6244C26.4503 20.7495 26.3268 20.8801 26.2015 21.0178C24.854 22.4982 23.0605 25.0285 22.0163 28.7755H16.9505ZM28.773 28.7755H23.2904C24.273 25.466 25.8646 23.2171 27.0687 21.8842C27.7117 21.1724 28.3107 20.6439 28.773 20.2788V28.7755Z" fill="#19884A"/>
<path d="M11.6317 2.16182C10.9495 0.852715 9.56729 0 8.06453 0C6.56178 0 5.17967 0.852715 4.49734 2.16176C2.61613 2.21039 1.10107 3.75146 1.10107 5.63883C1.10107 5.97691 1.37523 6.25107 1.71332 6.25107H5.52473L5.30658 6.46922C5.06752 6.70828 5.06752 7.096 5.30658 7.33512C5.42617 7.45465 5.58285 7.51441 5.73947 7.51441C5.89621 7.51441 6.05283 7.45459 6.17236 7.33512L7.25635 6.25113H10.2084L9.9891 6.47039C9.75004 6.70945 9.75004 7.09717 9.9891 7.33629C10.1087 7.45588 10.2654 7.51564 10.422 7.51564C10.5787 7.51564 10.7354 7.45588 10.8549 7.33629L11.94 6.25113H14.4156C14.7537 6.25113 15.0278 5.97697 15.0278 5.63889C15.028 3.75164 13.5128 2.21062 11.6317 2.16182ZM2.41047 5.02658C2.67912 4.08035 3.55416 3.38502 4.58916 3.38502C4.66369 3.38502 4.74291 3.38912 4.82471 3.39732C5.09887 3.42434 5.35809 3.26508 5.45699 3.00762C5.86656 1.94104 6.91451 1.22443 8.06459 1.22443C9.21467 1.22443 10.2626 1.94098 10.6722 3.00756C10.771 3.26508 11.0297 3.42451 11.3045 3.39732C11.3862 3.38912 11.4654 3.38502 11.5399 3.38502C12.575 3.38502 13.4502 4.08035 13.7188 5.02658H2.41047Z" fill="#19884A"/>
<path d="M15.3061 13C14.5707 13 13.9102 13.3249 13.4592 13.8381C13.0081 13.3248 12.3476 13 11.6122 13C11.2742 13 11 13.2741 11 13.6122C11 13.9504 11.2742 14.2245 11.6122 14.2245C12.293 14.2245 12.8469 14.7784 12.8469 15.4591C12.8469 15.7973 13.121 16.0714 13.4591 16.0714C13.7972 16.0714 14.0714 15.7973 14.0714 15.4591C14.0714 14.7784 14.6253 14.2245 15.306 14.2245C15.6441 14.2245 15.9182 13.9504 15.9182 13.6122C15.9183 13.2741 15.6441 13 15.3061 13Z" fill="#19884A"/>
<path d="M21.2245 14.8469C20.4891 14.8469 19.8286 15.1718 19.3776 15.685C18.9265 15.1718 18.2661 14.8469 17.5307 14.8469C17.1926 14.8469 16.9185 15.121 16.9185 15.4592C16.9185 15.7973 17.1926 16.0714 17.5307 16.0714C18.2114 16.0714 18.7653 16.6253 18.7653 17.306C18.7653 17.6442 19.0395 17.9183 19.3776 17.9183C19.7157 17.9183 19.9898 17.6442 19.9898 17.306C19.9898 16.6253 20.5437 16.0714 21.2245 16.0714C21.5625 16.0714 21.8367 15.7973 21.8367 15.4592C21.8367 15.121 21.5625 14.8469 21.2245 14.8469Z" fill="#19884A"/>
<path d="M4.05269 6.87809C3.81357 6.63903 3.42598 6.63903 3.18685 6.87809L1.92246 8.14248C1.6834 8.38155 1.6834 8.76926 1.92246 9.00838C2.04205 9.12797 2.19873 9.18768 2.35535 9.18768C2.51203 9.18768 2.66871 9.12791 2.78824 9.00838L4.05264 7.74399C4.29176 7.50492 4.29176 7.11721 4.05269 6.87809Z" fill="#19884A"/>
<path d="M1.3217 9.60905C1.08258 9.36998 0.694981 9.36998 0.455801 9.60905L0.179297 9.88555C-0.0597656 10.1246 -0.0597656 10.5123 0.179297 10.7514C0.298945 10.871 0.455567 10.9307 0.612306 10.9307C0.769044 10.9307 0.925664 10.8709 1.0452 10.7514L1.3217 10.4749C1.56082 10.2358 1.56082 9.84817 1.3217 9.60905Z" fill="#19884A"/>
<path d="M9.10867 6.87778C8.86955 6.63872 8.48195 6.63872 8.24283 6.87778L6.37949 8.74112C6.14043 8.98019 6.14043 9.3679 6.37949 9.60702C6.49908 9.72661 6.65576 9.78632 6.81238 9.78632C6.96912 9.78632 7.12574 9.72655 7.24527 9.60702L9.10861 7.74362C9.34773 7.50456 9.34773 7.1169 9.10867 6.87778Z" fill="#19884A"/>
<path d="M5.76652 10.2199C5.5274 9.98088 5.1398 9.98088 4.90068 10.2199L4.58457 10.5361C4.34551 10.7751 4.34551 11.1628 4.58457 11.402C4.70416 11.5215 4.86084 11.5813 5.01746 11.5813C5.1742 11.5813 5.33082 11.5215 5.45035 11.402L5.76646 11.0858C6.00559 10.8467 6.00559 10.4591 5.76652 10.2199Z" fill="#19884A"/>
<path d="M22 7H26" stroke="#19884A" stroke-width="1.2" stroke-linecap="round" stroke-linejoin="round"/>
<path d="M24 5V9" stroke="#19884A" stroke-width="1.2" stroke-linecap="round" stroke-linejoin="round"/>
<path d="M29 7C29 9.76144 26.7614 12 24 12C21.2386 12 19 9.76144 19 7C19 4.23858 21.2386 2 24 2C26.7614 2 29 4.23858 29 7Z" stroke="#19884A" stroke-width="1.2"/>
</g>
<defs>
<clipPath id="clip0_2649_2287">
<rect width="30" height="30" fill="white"/>
</clipPath>
</defs>
</svg>
