<svg width="42" height="56" viewBox="0 0 42 56" fill="none" xmlns="http://www.w3.org/2000/svg">
<path fill-rule="evenodd" clip-rule="evenodd" d="M20.6008 6.78796C28.2578 6.78796 34.4648 12.995 34.4648 20.6569C34.4648 28.3138 28.2578 34.5208 20.6008 34.5208C12.9389 34.5208 6.73193 28.3138 6.73193 20.6569C6.73193 12.995 12.9389 6.78796 20.6008 6.78796Z" stroke="#064E6E" stroke-width="1.33345"/>
<path d="M18.2028 0.58594C18.2028 0.91367 17.9347 1.17685 17.6119 1.17685C17.2842 1.17685 17.021 0.91367 17.021 0.58594C17.021 0.263177 17.2842 0 17.6119 0C17.9347 0 18.2028 0.263177 18.2028 0.58594Z" fill="#E31E24"/>
<path d="M20.1691 3.15814C20.1592 3.00421 20.1443 2.85524 20.1244 2.70131C20.04 2.1104 19.8513 1.52943 19.4938 1.06266C19.2356 0.729966 18.9078 0.461824 18.5752 0.203613C18.7738 0.779622 18.8582 1.39536 18.8185 2.00116C18.0885 1.68833 16.6435 1.27618 15.854 1.17687C17.9545 2.61193 19.1065 4.30023 19.7421 6.12757C19.7868 5.99846 19.8314 5.86936 19.8712 5.74025C20.1244 4.90603 20.2237 4.02712 20.1691 3.15814Z" fill="#E31E24"/>
<path d="M22.9995 0.58594C22.9995 0.91367 23.2627 1.17685 23.5904 1.17685C23.9132 1.17685 24.1764 0.91367 24.1764 0.58594C24.1764 0.263177 23.9132 0 23.5904 0C23.2627 0 22.9995 0.263177 22.9995 0.58594Z" fill="#E31E24"/>
<path d="M21.0283 3.15814C21.0382 3.00421 21.0581 2.85524 21.0779 2.70131C21.1624 2.1104 21.3461 1.52943 21.7086 1.06266C21.9618 0.729966 22.2945 0.461824 22.6222 0.203613C22.4236 0.779622 22.3442 1.39536 22.3789 2.00116C23.1138 1.68833 24.5539 1.27618 25.3434 1.17687C23.2429 2.61193 22.0909 4.30023 21.4553 6.12757C21.4106 5.99846 21.3709 5.86936 21.3312 5.74025C21.0779 4.90603 20.9737 4.02712 21.0283 3.15814Z" fill="#E31E24"/>
<path d="M6.86635 5.82954C7.05505 6.09272 6.99546 6.46018 6.73228 6.65383C6.46911 6.84253 6.10165 6.7879 5.90799 6.52473C5.7193 6.26155 5.77889 5.88913 6.04206 5.70044C6.30524 5.50678 6.6727 5.56637 6.86635 5.82954Z" fill="#E5097F"/>
<path d="M9.96478 6.75314C9.87043 6.63396 9.76615 6.51975 9.66187 6.41051C9.24476 5.98347 8.75814 5.62098 8.18709 5.45215C7.78488 5.33298 7.3628 5.31311 6.94073 5.29822C7.43729 5.64581 7.86929 6.09768 8.19702 6.60913C7.41742 6.7879 6.01216 7.29935 5.31201 7.68667C7.8544 7.61219 9.78105 8.29744 11.3651 9.40477C11.3253 9.27566 11.2856 9.14655 11.2409 9.01745C10.9579 8.19316 10.5209 7.42349 9.96478 6.75314Z" fill="#E5097F"/>
<path d="M10.7442 3.00914C10.9378 3.27231 11.3053 3.3319 11.5685 3.13824C11.8317 2.94955 11.8912 2.5821 11.6976 2.31892C11.5089 2.05574 11.1414 1.99616 10.8733 2.18485C10.6101 2.37851 10.5555 2.74596 10.7442 3.00914Z" fill="#E5097F"/>
<path d="M10.6651 6.24669C10.5807 6.11759 10.5062 5.98352 10.4367 5.84945C10.1536 5.32309 9.96493 4.74708 9.97983 4.15121C9.98976 3.7341 10.104 3.32196 10.2132 2.91974C10.3969 3.50072 10.6899 4.04693 11.0772 4.51867C11.4844 3.83341 12.408 2.6516 12.989 2.11035C12.1349 4.50377 12.1945 6.54463 12.7556 8.3968C12.6414 8.32231 12.5321 8.24286 12.4279 8.15845C11.7277 7.63706 11.1318 6.9816 10.6651 6.24669Z" fill="#E5097F"/>
<path d="M0.77327 16.734C1.08114 16.8333 1.25493 17.166 1.15066 17.4789C1.05134 17.7867 0.718648 17.9556 0.410781 17.8563C0.0979489 17.7569 -0.0708814 17.4243 0.0284305 17.1114C0.132708 16.8036 0.465403 16.6347 0.77327 16.734Z" fill="#6C4323"/>
<path d="M3.82702 15.6566C3.67806 15.6218 3.52909 15.5871 3.38012 15.5622C2.78921 15.458 2.18341 15.453 1.6223 15.6516C1.22505 15.7906 0.872494 16.024 0.524902 16.2574C1.1307 16.2475 1.74147 16.3617 2.30755 16.5851C1.78616 17.181 0.946978 18.4274 0.609317 19.1474C2.62038 17.5932 4.58179 17.0171 6.51838 16.9774C6.40913 16.898 6.29989 16.8185 6.19065 16.7391C5.4756 16.2425 4.67117 15.8751 3.82702 15.6566Z" fill="#6C4323"/>
<path d="M2.25795 12.1707C2.56582 12.275 2.89851 12.1012 2.99782 11.7933C3.09714 11.4854 2.9283 11.1527 2.62044 11.0485C2.31257 10.9491 1.97988 11.118 1.8756 11.4308C1.77629 11.7387 1.94512 12.0714 2.25795 12.1707Z" fill="#6C4323"/>
<path d="M4.09042 14.8372C3.95138 14.7826 3.81234 14.7181 3.67331 14.6535C3.13702 14.3903 2.64543 14.0378 2.30777 13.5462C2.06942 13.2035 1.92045 12.8063 1.77148 12.4091C2.26308 12.7765 2.81922 13.0446 3.41013 13.1986C3.33565 12.4041 3.39027 10.9045 3.53924 10.1249C4.25428 12.563 5.50561 14.1818 7.04991 15.3487C6.91088 15.3537 6.7768 15.3537 6.64273 15.3487C5.76879 15.3338 4.89981 15.16 4.09042 14.8372Z" fill="#6C4323"/>
<path d="M2.25795 29.1381C2.56582 29.0339 2.89851 29.2077 2.99782 29.5155C3.09714 29.8234 2.9283 30.1561 2.62044 30.2604C2.31257 30.3597 1.97988 30.1908 1.8756 29.878C1.77629 29.5701 1.94512 29.2375 2.25795 29.1381Z" fill="#332F60"/>
<path d="M4.09042 26.4716C3.95138 26.5262 3.81234 26.5908 3.67331 26.6553C3.13702 26.9185 2.64543 27.2711 2.30777 27.7627C2.06942 28.1053 1.92045 28.5026 1.77148 28.8998C2.26308 28.5323 2.81922 28.2642 3.41013 28.1103C3.33565 28.9048 3.39027 30.4044 3.53924 31.184C4.25428 28.7459 5.50561 27.1271 7.04991 25.9602C6.91088 25.9552 6.7768 25.9552 6.64273 25.9552C5.76879 25.9751 4.89981 26.1489 4.09042 26.4716Z" fill="#332F60"/>
<path d="M0.77327 24.5748C1.08114 24.4755 1.25493 24.1428 1.15066 23.8299C1.05134 23.5221 0.718648 23.3532 0.410781 23.4525C0.0979489 23.5519 -0.0708814 23.8845 0.0284305 24.1974C0.132708 24.5052 0.465403 24.6741 0.77327 24.5748Z" fill="#332F60"/>
<path d="M3.82702 25.6523C3.67806 25.6871 3.52909 25.7218 3.38012 25.7467C2.78921 25.8509 2.18341 25.8559 1.6223 25.6573C1.22505 25.5182 0.872494 25.2849 0.524902 25.0515C1.1307 25.0614 1.74147 24.9472 2.30755 24.7237C1.78616 24.1279 0.946978 22.8815 0.609317 22.1615C2.62038 23.7157 4.58179 24.2917 6.51838 24.3315C6.40913 24.4109 6.29989 24.4904 6.19065 24.5648C5.4756 25.0664 4.67117 25.4338 3.82702 25.6523Z" fill="#332F60"/>
<path d="M10.7442 38.2996C10.9378 38.0365 11.3053 37.9769 11.5685 38.1705C11.8317 38.3592 11.8912 38.7267 11.6976 38.9899C11.5089 39.253 11.1365 39.3126 10.8733 39.1239C10.6101 38.9303 10.5555 38.5628 10.7442 38.2996Z" fill="#AE4A84"/>
<path d="M10.6651 35.0621C10.5807 35.1912 10.5062 35.3253 10.4367 35.4593C10.1536 35.9857 9.96493 36.5617 9.97983 37.1576C9.98976 37.5747 10.104 37.9868 10.2132 38.389C10.392 37.8081 10.6899 37.2618 11.0772 36.7901C11.4844 37.4754 12.408 38.6572 12.989 39.1984C12.1349 36.805 12.1945 34.7642 12.7556 32.912C12.6414 32.9865 12.5321 33.0659 12.4279 33.1503C11.7277 33.6717 11.1318 34.3272 10.6651 35.0621Z" fill="#AE4A84"/>
<path d="M6.86635 35.4792C7.05505 35.216 6.99546 34.8486 6.73228 34.6549C6.46911 34.4612 6.10165 34.5208 5.90799 34.784C5.7193 35.0472 5.77889 35.4196 6.04206 35.6083C6.30524 35.802 6.6727 35.7424 6.86635 35.4792Z" fill="#AE4A84"/>
<path d="M9.96478 34.5556C9.87043 34.6747 9.76615 34.7889 9.66187 34.8982C9.24476 35.3252 8.75814 35.6877 8.18709 35.8565C7.78488 35.9757 7.3628 35.9956 6.94073 36.0105C7.43729 35.6629 7.86929 35.211 8.19702 34.6996C7.41742 34.5208 6.01216 34.0093 5.31201 33.622C7.8544 33.6965 9.78105 33.0113 11.3651 31.9039C11.3253 32.033 11.2856 32.1621 11.2409 32.2863C10.9579 33.1155 10.5209 33.8852 9.96478 34.5556Z" fill="#AE4A84"/>
<path d="M22.9995 40.7229C22.9995 40.3951 23.2627 40.132 23.5904 40.132C23.9132 40.132 24.1764 40.3951 24.1764 40.7229C24.1764 41.0456 23.9132 41.3088 23.5904 41.3088C23.2627 41.3088 22.9995 41.0456 22.9995 40.7229Z" fill="#00A0E3"/>
<path d="M21.0283 38.1507C21.0382 38.3046 21.0581 38.4536 21.0779 38.6075C21.1624 39.1984 21.3461 39.7794 21.7086 40.2462C21.9618 40.5789 22.2945 40.847 22.6222 41.1052C22.4236 40.5292 22.3442 39.9135 22.3789 39.3077C23.1138 39.6205 24.5539 40.0327 25.3434 40.132C23.2429 38.6969 22.0909 37.0086 21.4553 35.1813C21.4106 35.3104 21.3709 35.4395 21.3312 35.5686C21.0779 36.4028 20.9737 37.2817 21.0283 38.1507Z" fill="#00A0E3"/>
<path d="M18.2028 40.7229C18.2028 40.3951 17.9347 40.132 17.6119 40.132C17.2842 40.132 17.021 40.3951 17.021 40.7229C17.021 41.0456 17.2842 41.3088 17.6119 41.3088C17.9347 41.3088 18.2028 41.0456 18.2028 40.7229Z" fill="#00A0E3" stroke="#04A29B" stroke-width="0.288006"/>
<path d="M20.1691 38.1507C20.1592 38.3046 20.1443 38.4536 20.1195 38.6075C20.035 39.1984 19.8513 39.7794 19.4938 40.2462C19.2356 40.5789 18.9078 40.847 18.5752 41.1052C18.7738 40.5292 18.8582 39.9135 18.8185 39.3077C18.0885 39.6205 16.6435 40.0327 15.854 40.132C17.9545 38.6969 19.1065 37.0086 19.7421 35.1813C19.7868 35.3104 19.8314 35.4395 19.8662 35.5686C20.1244 36.4028 20.2237 37.2817 20.1691 38.1507Z" fill="#00A0E3"/>
<path d="M34.3357 35.4791C34.142 35.2159 34.2016 34.8485 34.4648 34.6548C34.728 34.4661 35.0954 34.5208 35.2891 34.7839C35.4827 35.0471 35.4232 35.4195 35.16 35.6082C34.8968 35.8019 34.5244 35.7423 34.3357 35.4791Z" fill="#5B5B5B"/>
<path d="M31.2318 34.5556C31.3312 34.6747 31.4305 34.7889 31.5347 34.8982C31.9519 35.3252 32.4434 35.6877 33.0095 35.8565C33.4117 35.9757 33.8388 35.9956 34.2559 36.0105C33.7593 35.6629 33.3323 35.211 33.0046 34.6996C33.7792 34.5208 35.1894 34.0093 35.8846 33.622C33.3472 33.6965 31.4205 33.0113 29.8315 31.9039C29.8713 32.033 29.911 32.1621 29.9557 32.2912C30.2387 33.1155 30.6757 33.8852 31.2318 34.5556Z" fill="#5B5B5B"/>
<path d="M30.4527 38.2996C30.264 38.0365 29.8915 37.9769 29.6284 38.1705C29.3652 38.3592 29.3056 38.7267 29.4993 38.9899C29.6929 39.258 30.0604 39.3126 30.3236 39.1239C30.5867 38.9303 30.6463 38.5628 30.4527 38.2996Z" fill="#5B5B5B"/>
<path d="M30.5369 35.0621C30.6163 35.1912 30.6908 35.3253 30.7653 35.4593C31.0434 35.9857 31.237 36.5617 31.2221 37.1576C31.2072 37.5747 31.098 37.9868 30.9838 38.389C30.805 37.8081 30.512 37.2618 30.1247 36.7901C29.7126 37.4754 28.789 38.6572 28.208 39.1984C29.0671 36.805 29.0075 34.7642 28.4464 32.912C28.5556 32.9865 28.6648 33.0659 28.7741 33.1503C29.4693 33.6717 30.0701 34.3272 30.5369 35.0621Z" fill="#5B5B5B"/>
<path d="M40.4234 24.5748C40.1156 24.4755 39.9467 24.1428 40.046 23.8299C40.1454 23.5221 40.4781 23.3532 40.7909 23.4525C41.0988 23.5519 41.2676 23.8845 41.1683 24.1974C41.069 24.5052 40.7363 24.6741 40.4234 24.5748Z" fill="#307430"/>
<path d="M37.3745 25.6523C37.5185 25.6871 37.6675 25.7218 37.8214 25.7467C38.4074 25.8509 39.0182 25.8559 39.5743 25.6573C39.9715 25.5182 40.3241 25.2849 40.6767 25.0515C40.0659 25.0614 39.4551 24.9472 38.889 24.7237C39.4154 24.1279 40.2496 22.8815 40.5873 22.1615C38.5762 23.7157 36.6148 24.2917 34.6782 24.3315C34.7875 24.4109 34.8967 24.4904 35.006 24.5698C35.721 25.0664 36.5304 25.4338 37.3745 25.6523Z" fill="#307430"/>
<path d="M38.9437 29.1381C38.6309 29.0339 38.2982 29.2077 38.1989 29.5155C38.0996 29.8234 38.2684 30.1561 38.5763 30.2604C38.8891 30.3597 39.2218 30.1908 39.3211 29.878C39.4204 29.5701 39.2516 29.2375 38.9437 29.1381Z" fill="#307430"/>
<path d="M37.1064 26.4716C37.2454 26.5262 37.3894 26.5908 37.5235 26.6553C38.0598 26.9185 38.5563 27.2711 38.894 27.7627C39.1274 28.1053 39.2764 28.5025 39.4253 28.8998C38.9387 28.5323 38.3776 28.2642 37.7867 28.1102C37.8612 28.9047 37.8065 30.4044 37.6576 31.184C36.9425 28.7458 35.6912 27.1271 34.1519 25.9601C34.2859 25.9552 34.42 25.9552 34.5541 25.9601C35.428 25.975 36.297 26.1488 37.1064 26.4716Z" fill="#307430"/>
<path d="M38.9437 12.1707C38.6309 12.275 38.2982 12.1012 38.1989 11.7933C38.0996 11.4854 38.2684 11.1527 38.5763 11.0485C38.8891 10.9491 39.2218 11.118 39.3211 11.4308C39.4204 11.7387 39.2516 12.0714 38.9437 12.1707Z" fill="#FFDD00"/>
<path d="M37.1064 14.8372C37.2454 14.7826 37.3894 14.7181 37.5235 14.6535C38.0598 14.3903 38.5563 14.0378 38.894 13.5462C39.1274 13.2035 39.2764 12.8063 39.4253 12.4091C38.9387 12.7765 38.3776 13.0446 37.7867 13.1986C37.8612 12.4041 37.8065 10.9045 37.6576 10.1249C36.9425 12.563 35.6912 14.1818 34.1519 15.3487C34.2859 15.3537 34.42 15.3537 34.5541 15.3537C35.428 15.3338 36.297 15.16 37.1064 14.8372Z" fill="#FFDD00"/>
<path d="M40.4234 16.734C40.1156 16.8333 39.9467 17.166 40.046 17.4789C40.1454 17.7867 40.4781 17.9556 40.7909 17.8563C41.0988 17.7569 41.2676 17.4243 41.1683 17.1114C41.069 16.8036 40.7363 16.6347 40.4234 16.734Z" fill="#FFDD00"/>
<path d="M37.3745 15.6566C37.5185 15.6218 37.6675 15.5871 37.8214 15.5622C38.4074 15.458 39.0182 15.453 39.5743 15.6516C39.9715 15.7906 40.3241 16.024 40.6767 16.2574C40.0659 16.2475 39.4551 16.3617 38.889 16.5851C39.4154 17.181 40.2496 18.4274 40.5873 19.1474C38.5762 17.5932 36.6148 17.0171 34.6782 16.9774C34.7875 16.898 34.8967 16.8185 35.006 16.744C35.721 16.2425 36.5304 15.8751 37.3745 15.6566Z" fill="#FFDD00"/>
<path d="M30.4527 3.00914C30.264 3.27231 29.8915 3.3319 29.6284 3.13824C29.3652 2.94955 29.3056 2.5821 29.4993 2.31892C29.6929 2.05574 30.0604 1.99616 30.3236 2.18485C30.5867 2.37851 30.6463 2.74596 30.4527 3.00914Z" fill="#EF7F1A"/>
<path d="M30.5369 6.24669C30.6163 6.11759 30.6908 5.98352 30.7653 5.84945C31.0434 5.32309 31.237 4.74708 31.2221 4.15121C31.2072 3.7341 31.098 3.32196 30.9838 2.91974C30.805 3.50072 30.512 4.04693 30.1247 4.51867C29.7126 3.83341 28.789 2.6516 28.208 2.11035C29.0671 4.50377 29.0075 6.54463 28.4464 8.3968C28.5556 8.32231 28.6648 8.24286 28.7741 8.15845C29.4693 7.63706 30.0701 6.9816 30.5369 6.24669Z" fill="#EF7F1A"/>
<path d="M34.3357 5.82954C34.142 6.09272 34.2016 6.46018 34.4648 6.65383C34.728 6.84749 35.0954 6.7879 35.2891 6.52473C35.4827 6.26155 35.4232 5.88913 35.16 5.70044C34.8968 5.50678 34.5244 5.56637 34.3357 5.82954Z" fill="#EF7F1A"/>
<path d="M31.2318 6.75314C31.3312 6.63396 31.4305 6.51975 31.5347 6.41051C31.9519 5.98347 32.4434 5.62098 33.0095 5.45215C33.4117 5.33298 33.8388 5.31311 34.2559 5.29822C33.7593 5.64581 33.3323 6.09768 33.0046 6.60913C33.7792 6.7879 35.1894 7.29935 35.8846 7.68667C33.3472 7.61219 31.4205 8.29744 29.8315 9.40477C29.8713 9.27566 29.911 9.14655 29.9557 9.02241C30.2387 8.19316 30.6757 7.42349 31.2318 6.75314Z" fill="#EF7F1A"/>
<path d="M33.4667 20.6568C33.4667 27.7626 27.7066 33.5227 20.6008 33.5227C13.4901 33.5227 7.72998 27.7626 7.72998 20.6568C7.72998 13.5461 13.4901 7.78601 20.6008 7.78601C27.7066 7.78601 33.4667 13.5461 33.4667 20.6568Z" fill="#FEFEFE"/>
<path d="M16.7227 26.6602L16.7128 26.6304L16.7178 26.6453L16.7227 26.6602ZM16.7475 26.7099L16.7376 26.69L16.7426 26.6999C16.7277 26.6652 16.7277 26.6652 16.7078 26.6552C16.7029 26.6751 16.7029 26.6751 16.6979 26.8886C16.678 26.8539 16.6731 26.8439 16.6582 26.8042C16.6035 26.9432 16.6035 27.0128 16.6433 27.3653C16.6979 27.8073 16.6135 28.6713 16.3602 28.6911C16.2709 28.6961 16.0971 28.567 16.0375 28.3634C15.9779 28.1697 15.9034 27.1617 15.9034 27.1568C15.9133 27.0177 16.0474 26.978 16.112 26.8886C16.1318 26.8588 16.1417 26.8241 16.1616 26.7992C16.1715 26.7843 16.1864 26.7694 16.2013 26.7546C16.3006 26.6552 16.3106 26.5063 16.3851 26.3871C16.4248 26.3176 16.4446 26.2332 16.5042 26.1736C16.5837 26.1537 16.6433 26.3325 16.683 26.4914C16.7128 26.6105 16.7227 26.6503 16.7475 26.7099ZM22.1203 21.7443V21.7492C22.1154 21.7294 22.1054 21.7095 22.0955 21.6847L22.1005 21.7095L22.1203 21.7443ZM29.9759 23.3432C29.966 23.3581 29.956 23.373 29.9461 23.3829C29.956 23.3233 29.9461 23.2588 29.956 23.1992C29.966 23.1446 29.966 23.1446 29.9858 23.1247L29.9709 23.1346C29.9312 23.1644 29.8865 23.224 29.8667 23.4226L29.8567 23.4127C29.8518 23.4375 29.8617 23.6511 29.8716 23.7007C29.8865 23.7951 29.9113 23.8 29.9262 23.7951C29.8716 23.5517 30.0305 23.5567 30.0305 23.5567C30.0107 23.4624 30.0107 23.4177 30.0653 23.2588C30.0355 23.2488 29.9709 23.3233 29.9759 23.3432ZM29.38 20.8852C29.4148 20.8107 29.4297 20.766 29.4297 20.7313V20.7214C29.4744 20.7611 29.5191 20.8405 29.5141 20.915C29.5091 20.9299 29.5042 20.9448 29.5042 20.9547C29.4644 20.8703 29.4247 20.8604 29.3651 20.92V20.9001C29.3701 20.8753 29.3701 20.8753 29.3701 20.8753L29.38 20.8852ZM29.3006 21.5059C29.3304 21.5109 29.39 21.4116 29.4148 21.3569C29.4148 21.3569 29.4297 21.2725 29.4346 21.2328C29.4446 21.0987 29.385 21.1087 29.385 21.1087C29.3204 21.1583 29.246 21.5059 29.3006 21.5059ZM29.7822 22.0521C29.7922 22.1812 29.7922 22.1862 29.817 22.2061C29.8269 22.1713 29.8369 22.1217 29.8418 22.0869C29.8468 22.0819 29.9064 21.6003 29.7425 21.3967V21.3917C29.7624 21.3818 29.7624 21.3818 29.7524 21.2378C29.7425 21.2676 29.7276 21.2974 29.7177 21.3272L29.7276 21.3669C29.673 21.3272 29.673 21.3272 29.6581 21.064C29.7723 21.1136 29.7375 20.9349 29.7028 20.8554C29.6581 20.7462 29.6482 20.7511 29.5439 20.7611C29.4644 20.4929 29.4644 20.4929 29.4297 20.488C29.4098 20.5029 29.4098 20.5029 29.3999 20.5376C29.38 20.4085 29.241 20.4085 29.2112 20.4333C29.1963 20.4482 29.1913 20.4681 29.1913 20.483C29.1814 20.4383 29.1814 20.4085 29.1764 20.344H29.1814C29.1814 20.3191 29.1864 20.3092 29.1814 20.2844V20.2645C29.1715 20.0411 29.241 19.8126 29.1516 19.5942C29.0871 19.4303 28.8636 19.5395 28.7941 19.3856L28.7891 19.3757L28.7941 19.3955C28.8189 19.5892 28.7395 19.7878 28.8288 19.9765C28.8189 19.9715 28.799 19.9815 28.7842 19.9864C28.7544 20.1007 28.809 20.3142 28.9182 20.3936C28.953 20.3738 28.9579 20.3489 28.9331 20.3042C28.9877 20.339 28.9877 20.339 28.9629 20.5277L28.9282 20.5327C28.8984 20.6022 28.9381 20.6469 29.0871 20.8157C29.1715 20.7114 29.0672 20.5922 28.9977 20.5327C29.0324 20.5227 29.0672 20.5178 29.1466 20.5277C29.1268 20.5724 29.1516 20.5922 29.1764 20.6022C29.1913 20.5922 29.2062 20.5873 29.1864 20.5376C29.2807 20.5674 29.3105 20.6667 29.385 20.7164C29.3701 20.6469 29.3353 20.6171 29.3254 20.6121C29.3304 20.5823 29.3353 20.4979 29.4247 20.5922C29.4744 20.6469 29.5191 20.7362 29.534 20.7611L29.524 20.766C29.5091 20.8405 29.5091 20.8405 29.6333 21.0143C29.6084 21.0342 29.5886 21.0392 29.5687 21.0094H29.5836C29.5836 20.9796 29.5836 20.9796 29.5687 20.9498C29.5588 20.9597 29.5538 20.9696 29.5637 20.9994L29.5538 20.9845C29.529 21.0491 29.534 21.0987 29.5588 21.1881H29.5489C29.5489 21.1881 29.5489 21.1881 29.5935 21.2676L29.7127 21.4811C29.6879 21.5705 29.6879 21.5705 29.4942 21.784L29.5042 21.7641C29.4744 21.7145 29.3155 21.7244 29.2857 21.8287C29.2658 21.8982 29.2757 21.9677 29.241 22.0273C29.3055 21.9479 29.3204 21.9131 29.3254 21.8932C29.3552 21.933 29.4049 21.9181 29.4545 21.9081C29.5042 21.8932 29.5489 21.8783 29.5489 21.933C29.5489 22.0124 29.4942 22.0869 29.5191 22.1663C29.5439 22.2408 29.6283 22.2657 29.668 22.3302C29.668 22.221 29.7574 22.1514 29.7822 22.0521ZM29.241 22.0323V22.0273L29.2211 22.0521L29.241 22.0323ZM29.529 24.4207C29.5687 24.4455 29.6382 24.4207 29.6581 24.3711V24.3462C29.6531 24.3015 29.5985 24.2618 29.5439 24.2668C29.4992 24.2767 29.4942 24.3115 29.4942 24.3214C29.4942 24.3413 29.4843 24.3959 29.529 24.4207ZM30.8151 25.8707C30.5122 26.263 30.393 26.7645 30.0404 27.117C29.8319 27.3256 29.7822 26.9085 29.7822 26.9035C29.7723 26.7794 29.7723 26.7794 30.1447 26.0941C30.1199 26.119 30.1199 26.119 30.0504 26.1885C30.0504 26.1438 30.0802 26.1041 30.0851 26.0594C30.0404 26.1587 30.0404 26.1587 29.7028 25.9452C29.5687 26.1984 29.5687 26.1984 29.5042 26.2133C29.3651 26.253 29.1665 26.4119 29.0821 26.7446C29.0175 26.7099 29.0076 26.7099 28.9133 26.7446C28.9232 26.6254 28.7891 26.5957 28.7643 26.4963C28.7444 26.5162 28.3968 26.8737 28.223 26.9432C28.2181 27.0177 28.2081 27.0376 28.1734 27.122L28.1635 27.0922C28.1386 27.117 28.1386 27.117 28.1088 27.1816C28.1088 27.1419 28.1088 27.1021 28.1386 26.973C28.0542 27.0277 27.9897 27.0723 27.8109 27.2759C27.6371 27.4795 27.5775 27.5242 27.4881 27.5739C27.3342 27.6583 27.1554 27.6732 26.9965 27.7427C26.7979 27.8371 26.6589 28.0307 26.4205 28.0506C26.4205 28.0307 26.4255 27.996 26.4354 27.9761C26.0978 28.1499 25.9935 28.5372 25.9538 28.706C25.9289 28.7904 25.9289 28.7904 25.9041 28.8202C25.9041 28.8004 25.8991 28.7755 25.8942 28.7607C25.6807 29.0139 25.7551 29.3764 25.5664 29.6396C25.4522 29.8034 25.2635 29.8928 25.1642 30.0716C25.1593 30.0865 25.1593 30.1063 25.1593 30.1163C25.2586 30.2007 25.5416 30.0914 25.7452 30.007C25.7601 30.0021 27.1107 29.5055 27.359 29.6892C27.359 29.7389 27.359 29.7389 27.1207 30.151C27.3044 30.0269 27.503 29.9226 27.6719 29.7836C27.5626 29.9971 27.3193 30.0517 27.1505 30.1907C27.22 30.1808 27.2448 30.161 27.4385 30.0219C27.4335 30.0318 27.4335 30.0318 27.215 30.2205L27.2448 30.2305C27.1902 30.3993 26.9667 30.449 26.9469 30.6426C26.9717 30.6674 26.9717 30.6674 27.3143 30.5582C27.2696 30.5979 27.2696 30.5979 27.225 30.6178H27.2597C27.2448 30.6575 27.2448 30.6575 27.1902 30.7171C28.6253 30.0467 29.4893 29.0834 29.7922 28.7011C29.7773 28.7209 29.7574 28.7458 29.7425 28.7607C29.7723 28.7259 29.8021 28.6911 29.8319 28.6514L29.812 28.6762L29.822 28.6613L29.8269 28.6564L29.8518 28.6216L29.8369 28.6464C29.8716 28.5968 29.9858 28.4429 30.0603 28.2442C30.1249 28.0754 30.2043 27.9115 30.2589 27.7377C30.3136 27.5888 30.2738 27.4199 30.3483 27.2759C30.6413 26.69 30.6413 26.69 30.6512 26.4814C30.6661 26.114 30.7356 26.0097 30.82 25.8707H30.8151ZM26.1176 24.8428C26.1027 24.808 26.1027 24.808 26.0978 24.7931C26.1474 24.7733 26.202 24.7882 26.2467 24.7584C26.2914 24.7286 26.351 24.674 26.3709 24.6193C26.4404 24.4158 26.3758 24.2122 26.3411 24.1079C26.4702 24.3264 26.5 24.381 26.6291 24.3115C26.5844 24.2668 26.6142 24.2221 26.6291 24.2122L26.6589 24.2221L26.639 24.1973H26.644L26.634 24.1873H26.6291C26.3858 23.954 26.3858 23.954 26.2964 24.0135C26.2169 23.8745 26.1176 23.7504 26.058 23.6014C26.0282 23.512 26.0481 23.4177 26.0034 23.3333C25.9736 23.2687 25.9438 23.2588 25.8793 23.2389C25.8594 23.2737 25.8594 23.2786 25.8644 23.3084C25.8296 23.2687 25.8098 23.2488 25.77 23.224C25.7949 23.2339 25.7949 23.2339 25.8147 23.229C25.8396 23.1396 25.7154 23.0353 25.7104 23.0304C25.6111 22.9509 25.482 22.9062 25.3827 22.8218C25.2536 22.7126 25.1692 22.5636 25.0252 22.4643C24.9805 22.4295 24.8812 22.365 24.7521 22.365H24.7173C24.916 22.4047 25.2189 23.0403 25.6211 23.9788C25.8942 24.6243 26.0183 24.9074 26.1176 24.8428ZM31.118 23.9689C30.8796 23.9738 30.8548 24.2767 30.6413 24.3115C30.5569 24.3214 30.6065 24.0533 30.6065 24.0483L30.6016 24.0632C30.6264 23.81 30.6413 23.6957 30.4725 23.7106C30.398 23.7305 30.3334 23.7653 30.254 23.8646C30.2639 23.7851 30.2391 23.7702 30.2291 23.7603C30.2142 23.7653 30.2093 23.7702 30.1894 23.8C30.2887 23.9689 30.3781 24.1178 30.537 24.0731C30.4774 24.1526 30.3731 24.1426 30.3036 24.1973C30.4079 24.2867 30.2738 24.4009 30.3334 24.4952C30.3533 24.4952 30.3682 24.4952 30.4476 24.3413C30.4377 24.4108 30.4327 24.4505 30.4725 24.5051C30.5122 24.5647 30.5916 24.5697 30.6413 24.6144C30.7207 24.6889 30.7207 24.6988 30.7356 25.2003C30.7257 25.1705 30.6909 25.096 30.532 25.4089C30.6165 25.3692 30.7108 25.3741 30.7903 25.3344C30.7058 25.5777 30.8846 25.5678 30.8995 25.5578C30.9144 25.5529 31.0634 25.4337 31.0385 25.3741H31.0286C31.108 25.3344 31.108 25.3344 31.1279 25.3195L31.1229 25.3046L31.1279 25.3145C31.1478 25.2897 31.1627 25.2748 31.1825 25.2152C31.2024 25.2897 31.2818 25.3294 31.2967 25.4039C31.3265 25.5231 31.262 25.6522 31.3166 25.7714C31.3812 25.9154 31.4556 25.8458 31.4556 25.8458C31.4805 25.8161 31.4854 25.7565 31.4904 25.7217C31.5152 25.5777 31.4507 25.4387 31.4705 25.2947C31.4904 25.1507 31.5847 25.0265 31.6046 24.8825C31.6096 24.8378 31.6096 24.7832 31.5996 24.7385C31.5996 24.7336 31.3911 23.9639 31.118 23.9689ZM21.9167 21.4612C21.8869 21.4314 21.877 21.4463 21.877 21.4463C21.877 21.4463 21.8671 21.4662 21.8919 21.4662C21.8919 21.4662 21.9018 21.4662 21.9118 21.4612H21.9167ZM22.1005 21.7095C22.1104 21.9479 22.1054 22.1266 22.0756 22.2309C22.0011 22.4891 21.8422 22.2557 21.8422 22.2508C21.7727 22.1316 21.8025 21.9876 21.8373 21.8237C21.877 21.6499 21.8969 21.5357 21.8373 21.4414C21.8274 21.4414 21.8025 21.4364 21.7976 21.4066L21.8125 21.4165L21.8075 21.4066C21.8174 21.3967 21.8274 21.3917 21.8422 21.3917C21.8621 21.3917 21.9515 21.3967 22.0657 21.5307C22.0905 21.5655 22.1352 21.635 22.0955 21.6847C22.0905 21.6896 22.0905 21.6896 22.1005 21.7095ZM32.1111 24.5548V24.5598C32.1707 24.3512 32.1558 24.1526 32.1012 24.1575C32.0863 24.1625 32.0763 24.1724 32.0614 24.1923C32.0614 24.2072 32.0664 24.2171 32.0664 24.242L32.0565 24.237L32.0416 24.2618C32.0515 24.2618 32.0515 24.2618 32.0614 24.2519C32.0714 24.3164 32.0565 24.5101 32.0565 24.5101L32.0267 24.5449C31.9919 24.5995 31.9721 24.6591 31.9274 24.7137C31.9025 24.7435 31.8926 24.7385 31.8827 24.7336C31.838 24.6988 31.8181 24.6839 31.7585 24.7485C31.7486 24.7584 31.7486 24.7584 31.7238 24.8875C31.7287 24.8925 31.9075 24.9818 32.0515 24.5647C32.0515 24.6293 32.0515 24.6491 32.0565 24.6591H32.0614C32.0863 24.6342 32.0912 24.6193 32.1012 24.5945L32.1111 24.5697V24.5598V24.5647V24.5548ZM22.1303 21.6599C22.1203 21.6599 22.1154 21.6698 22.0955 21.6847C22.1154 21.7244 22.1203 21.7244 22.1203 21.7244L22.1154 21.7045H22.1253V21.6996L22.1352 21.6747L22.1303 21.6599ZM14.662 14.6236C14.8755 14.6435 14.9897 14.5044 15.0195 14.4647C15.1337 14.3058 14.9152 14.0426 14.6421 13.8738C14.5428 13.8092 14.4385 13.839 14.3392 13.8688C14.2449 13.8937 14.1505 13.9235 14.0562 13.8738C14.0463 13.8291 14.0463 13.8291 14.2201 13.6801C14.0761 13.6007 13.9767 13.556 13.8476 13.6206L13.8278 13.6007L13.8377 13.6206H13.8427C13.7185 13.6901 13.6341 13.8341 13.5398 13.9979C13.4305 14.1916 13.3908 14.2264 13.2865 14.3108C13.3263 14.3406 13.3411 14.3505 13.3759 14.415C13.4007 14.4647 13.4405 14.5442 13.4852 14.559C13.6093 14.5839 13.7136 14.5342 13.8129 14.4796C13.9172 14.4299 14.0214 14.3753 14.1406 14.4051C14.3293 14.4448 14.4634 14.6037 14.662 14.6236ZM14.369 13.6404C14.3194 13.7199 14.4187 13.7397 14.6769 13.7844C14.7017 13.7248 14.7414 13.6255 14.811 13.6503C14.806 13.6206 14.806 13.6156 14.7712 13.5957C14.7414 13.5808 14.7365 13.5759 14.7414 13.5411C14.801 13.551 14.8606 13.5312 14.9252 13.4865L14.945 13.4716C14.8209 13.4021 14.5825 13.4865 14.4137 13.6007L14.4286 13.5858C14.4286 13.5908 14.3939 13.6156 14.374 13.6305V13.6354H14.369V13.6404ZM15.8686 14.0526C15.9034 14.0675 15.9034 14.0675 15.9481 14.0476C15.8289 14.2313 15.8537 14.3207 16.0822 14.5044C16.2262 14.6236 16.2609 14.6633 16.2758 14.7378C16.112 14.713 16.0325 15.006 16.0474 15.1053C16.0673 15.2642 16.2063 15.3386 16.3205 15.3982C16.3553 15.4181 16.3553 15.4231 16.3602 15.438C16.4546 15.4975 16.539 15.4628 16.6234 15.433C16.683 15.4082 16.7426 15.3883 16.8071 15.3933C16.8022 14.8272 16.7972 14.4846 16.5539 14.2462C16.3851 14.0824 16.3751 14.0426 16.3702 13.9781C16.39 13.9532 16.4347 13.9334 16.4645 13.9284C16.4248 13.839 16.4248 13.839 16.6979 13.7844C16.6582 13.7497 16.6482 13.7397 16.6681 13.6454C16.683 13.5808 16.7078 13.4815 16.5042 13.4716C16.2808 13.4617 16.2013 13.7099 16.0027 13.7497C15.9779 13.7497 15.958 13.7397 15.9431 13.7199C15.9431 13.8341 15.8438 13.9284 15.8686 14.0526ZM24.7322 19.8772C24.7223 19.8673 24.7124 19.8524 24.7074 19.8375C24.4839 19.9815 24.4839 19.9815 24.4194 19.8971C24.33 19.7829 24.3052 19.6041 24.2953 19.5197C24.2456 19.1572 23.9427 18.9387 23.7689 18.6507C23.749 18.6159 23.7242 18.5663 23.7043 18.5365C23.6845 18.5017 23.6547 18.457 23.6299 18.4272C23.6001 18.4322 23.5554 18.4322 23.5256 18.4372C23.5057 18.5861 23.5057 18.5861 23.4461 18.6557C23.4263 18.6308 23.4064 18.5961 23.3965 18.5663C23.3816 18.5911 23.3518 18.6209 23.3319 18.6358C23.3021 18.6259 23.2624 18.6209 23.2326 18.6259C23.2227 18.6358 23.2078 18.6557 23.1979 18.6656L23.1631 18.6358L23.1234 18.6606C23.1035 18.6408 23.0886 18.601 23.0886 18.5712C22.8552 19.1125 22.2345 19.3211 21.9962 19.8623C21.7678 20.3787 21.9167 20.9746 21.6585 21.4861C21.6238 21.5655 21.5741 21.6797 21.4996 21.7194C21.2017 21.8982 19.856 19.4651 20.2781 18.6557C20.2632 18.6457 20.2433 18.6358 20.2284 18.6259C20.2284 18.5961 20.2185 18.5613 20.2086 18.5315C20.1937 18.5266 20.1788 18.5216 20.1639 18.5216C20.1688 18.5365 20.1837 18.5613 20.1887 18.5762C20.2284 18.7252 20.0298 18.8791 19.9106 18.8642C19.6971 18.8295 19.7368 18.5762 19.5829 18.4868C19.7319 18.4719 19.7517 18.4223 19.7716 18.3826C19.6425 18.3875 19.5283 18.3627 19.3545 18.2336C19.0814 18.0052 19.0466 17.8661 19.0317 17.8165C18.7983 17.6923 18.5501 17.7271 18.3018 17.7619C18.0336 17.7966 17.7605 17.8363 17.5122 17.6725C17.4626 17.6377 17.403 17.593 17.3533 17.5682C17.2342 17.4937 17.1051 17.5036 16.976 17.5086C16.8618 17.5136 16.7426 17.5185 16.6333 17.4689C16.3404 17.3299 16.3702 16.9078 16.0474 16.8035C16.0275 16.7936 15.9977 16.7985 15.9779 16.7936C15.9779 16.7936 15.9084 16.878 15.7942 16.9525C15.9084 16.9823 15.9282 17.0071 15.9729 17.2305L16.3205 17.9754C16.5092 18.1839 17.2044 18.1641 17.2342 17.598C17.3682 17.742 17.259 17.9456 17.3682 18.0896C17.4775 18.2386 17.7009 18.2038 17.8003 18.3627C17.83 18.4124 17.835 18.5017 17.8251 18.5613C17.7854 18.745 17.5222 19.2565 16.7873 19.8375C16.7724 19.8474 15.3472 20.9696 15.0344 20.6667L13.8526 17.5682C13.8377 17.5334 13.8228 17.4888 13.8079 17.454C13.7334 17.2256 13.7483 17.0915 13.7732 16.9376C13.6242 17.1362 13.6292 17.2007 13.6341 17.3348C13.4901 17.1412 13.4454 17.0269 13.4305 16.8383C13.2816 17.0915 13.2667 17.2802 13.5596 17.8016C13.7781 18.1889 13.7781 18.1889 14.1108 19.3757C14.2499 19.8822 14.3988 20.1503 14.6421 20.339C14.7563 20.4284 14.9699 20.5922 15.0146 20.7015C15.0791 20.8455 15.0146 20.9001 14.8954 20.9945C15.4962 21.2179 15.4962 21.2179 15.6452 21.1732C16.4297 20.9398 16.4297 20.9398 16.4397 20.9796C16.4446 21.0143 16.5738 21.8336 15.3324 23.3978C14.1009 24.9421 15.0146 25.8012 15.0245 25.8111C15.0195 25.831 15.0195 25.8558 15.0146 25.8707C15.0344 26.1736 15.233 26.4268 15.2479 26.7297C15.2678 27.1121 14.8408 27.1816 14.7365 27.4746C14.6024 27.8519 15.0741 28.0804 14.9848 28.4478C14.955 28.5869 14.8408 28.6713 14.7762 28.716C14.9599 28.8898 15.1337 29.0487 14.9053 29.6545C14.6819 30.2354 14.1754 30.0914 14.1704 30.0865C14.0711 30.0418 12.8843 28.7855 12.8347 28.7309C12.4672 28.3386 11.6926 27.1667 11.6876 27.1568C11.4791 26.7546 11.5337 26.2828 11.3499 25.8707L11.335 25.8359C11.3301 25.826 10.8683 25.0563 10.9626 24.8676C10.6597 24.7187 10.0589 23.9837 10.2923 23.5716C10.0291 23.2886 10.3022 22.8367 9.96951 22.5785C9.95461 22.5884 9.93972 22.6083 9.92482 22.6182C9.90992 22.6132 9.88509 22.6033 9.8702 22.5983C9.85033 22.6232 9.80564 22.648 9.77585 22.653C9.30908 22.1862 9.30908 22.1862 9.17998 22.2855C8.55431 22.7473 8.47983 22.5686 8.35073 22.2706C8.35073 22.2657 8.05279 21.4165 7.97831 20.2298C7.94355 19.7431 8.1372 19.2863 8.12231 18.7997C8.12231 18.8195 8.11734 18.8444 8.11734 18.8593C8.18686 17.8413 9.27929 16.0537 9.29419 16.0338C9.45805 15.7905 9.5375 15.6962 9.58219 15.6763C9.65171 15.6515 9.6964 15.7061 9.75599 15.721C9.80564 15.7309 9.82551 15.721 10.0341 15.582C10.2228 15.4529 10.2923 15.4131 10.4065 15.3833C10.4561 15.3734 10.4561 15.3734 10.9378 15.3386C11.047 15.3337 11.1215 15.3337 11.0172 15.5621C10.9477 15.721 10.8236 15.8551 10.8037 16.0338C10.8484 16.3665 11.6429 16.9922 11.7919 16.5155C11.8614 16.297 11.9458 16.2474 12.0004 16.2474C12.0253 16.2474 12.06 16.2474 12.0849 16.2523C12.3232 16.297 12.4672 16.5205 12.7006 16.58C12.8148 16.6098 12.924 16.5751 13.0283 16.5403C13.1326 16.5105 13.2369 16.4758 13.3461 16.5006C13.361 16.5354 13.3908 16.58 13.4156 16.6098C13.7434 16.5651 13.8874 16.2722 14.0016 16.0338C14.225 15.5621 14.1456 15.4628 14.1207 15.4429C14.1207 15.4429 13.5795 15.4578 13.4603 15.4678C13.2319 15.4826 13.0978 15.438 13.0531 15.4231C13.0631 15.4082 13.073 15.3933 13.078 15.3784C13.0432 15.3684 12.9985 15.3635 12.9638 15.3585C12.9787 15.2741 12.9687 15.1797 13.0134 15.0953C12.8694 14.9414 13.073 14.7974 13.0531 14.6484C12.9538 14.5789 12.8645 14.5541 12.7453 14.6335C12.7403 14.6683 12.7502 14.7179 12.7651 14.7527C12.7304 14.7527 12.6907 14.7577 12.6559 14.7676C12.6559 14.7825 12.6509 14.8024 12.646 14.8222C12.6311 14.7825 12.6062 14.7378 12.5864 14.7031C12.5467 14.8719 12.6708 15.0159 12.646 15.1847C12.636 15.1698 12.6261 15.15 12.6162 15.1351C12.6162 15.1649 12.5963 15.2095 12.5764 15.2294C12.5516 15.2095 12.5119 15.1996 12.4771 15.1996C12.492 15.2145 12.5069 15.2344 12.5169 15.2493C12.492 15.2741 12.4573 15.3039 12.4275 15.3238C12.4275 15.3635 12.4225 15.4131 12.4175 15.4529C12.4027 15.4628 12.3828 15.4727 12.3679 15.4826C12.1544 15.3436 12.2835 15.1748 12.3282 15.1202C12.2934 15.1202 12.2189 15.1152 12.1991 15.0109C12.1742 14.8917 12.214 14.6981 12.214 14.6981C12.2586 14.4995 12.1196 14.3455 12.0948 14.1618C12.0849 14.1121 12.0501 14.0575 12.0451 14.0079C12.0451 13.9632 12.06 13.9036 12.0849 13.8688C12.0749 13.8539 12.065 13.8341 12.06 13.8192C12.0451 13.8241 12.0253 13.8291 12.0104 13.8341C11.9955 13.8291 11.9756 13.8192 11.9607 13.8092C11.8018 13.9235 11.7422 13.9681 11.7671 14.1966C11.7869 14.4299 12.0203 14.559 12.06 14.7875C12.0153 14.8024 11.9706 14.7924 11.9309 14.7825C11.9011 14.7775 11.8713 14.7676 11.8415 14.7726C11.8415 14.7775 11.8167 15.0705 11.6826 15.2244C11.6231 15.2195 11.5784 15.2443 11.5287 15.2741C11.484 15.294 11.4393 15.3188 11.3847 15.3188C11.3003 15.1599 11.5883 15.1649 11.6677 15.0556C11.9011 14.7279 11.5535 14.137 11.5486 14.132C11.4741 14.0079 11.3599 14.0476 11.2457 14.0873C11.191 14.1072 11.1315 14.127 11.0768 14.127C11.0768 14.127 11.0768 14.127 11.0371 14.127C11.0371 14.132 10.5257 14.5392 10.2625 15.001C10.0837 15.3089 9.89503 15.4876 9.69144 15.5472C9.61695 15.4926 9.62688 15.3982 9.58219 15.3287C9.5673 15.3337 9.54247 15.3386 9.52757 15.3436C9.63185 15.1053 9.63185 15.1053 9.68647 15.001L9.67654 15.0159C10.0837 14.1469 10.0837 14.1469 10.4313 14.1618C10.615 14.1717 11.0719 13.6106 10.8981 13.3028C11.0024 13.2382 11.0073 13.2382 11.1662 13.1935C11.2705 12.9353 12.3778 12.3196 12.3878 12.3196L12.4225 12.3543C12.5467 12.2252 12.6162 12.0564 12.7353 11.9223C12.7552 11.9025 12.785 11.8776 12.8049 11.8578H12.8098C12.9042 11.7783 12.9439 11.7733 12.9985 11.7684C12.9042 11.8677 12.8396 11.9918 12.7254 12.0663C12.7403 12.0663 12.7651 12.0614 12.785 12.0614C12.7254 12.1507 12.7254 12.1507 12.6509 12.1607C12.6559 12.1408 12.6658 12.1209 12.6758 12.1011C12.6162 12.2004 12.6162 12.2054 12.6509 12.2649C12.6509 12.2649 12.7453 12.255 12.8793 12.2451C12.8694 12.255 12.8496 12.2649 12.8347 12.2749C12.8446 12.2898 12.8545 12.3096 12.8645 12.3245C12.8694 12.3245 13.3709 12.2798 13.4802 12.2103C13.6391 11.972 13.7732 11.818 13.8824 11.7485C13.9122 11.7684 13.942 11.7982 13.9569 11.823C14.1406 11.8031 14.0959 11.6095 14.1952 11.5201C14.2548 11.4655 14.2548 11.4655 14.7563 11.4357C14.7514 11.4158 14.7464 11.391 14.7365 11.3711C14.7216 11.3612 14.6968 11.3513 14.6819 11.3413L14.6719 11.3016C14.225 11.3811 14.225 11.3811 14.1456 11.3513C14.2796 11.1477 14.2796 11.1477 14.7961 10.7504C14.5875 10.6015 14.5279 10.7802 14.5081 10.8398C13.8129 11.108 13.8476 11.3215 13.8625 11.4208C13.1177 12.0713 13.1177 12.0713 12.934 12.0862C12.9389 12.0663 12.9489 12.0415 12.9538 12.0216C12.8049 12.1756 12.8049 12.1756 12.7602 12.2103C12.7453 12.2004 12.7254 12.1905 12.7105 12.1855C12.8049 12.1507 12.8049 12.1507 12.8198 12.0365C13.0283 12.0763 13.1624 11.6641 13.217 11.4853C13.0631 11.6095 12.9985 11.6492 12.8744 11.6939C12.8595 11.684 12.8446 11.6691 12.8297 11.6641C12.8396 11.6045 12.8793 11.5549 12.8793 11.5002C13.0085 11.3811 13.078 11.2073 13.2518 11.1278C13.361 11.0782 13.3759 11.0682 13.4703 11.0235C13.7483 10.8895 13.9966 10.7057 14.2598 10.5518H14.2647C14.3839 10.4724 14.4137 10.4525 14.4385 10.4326L14.4634 10.4078C14.4286 10.4177 14.379 10.4227 14.3392 10.4277C14.4385 10.3681 14.5478 10.3333 14.6521 10.2837C14.6372 10.2936 14.6272 10.3135 14.6173 10.3234C14.7464 10.3135 14.8408 10.2191 14.9599 10.1844C14.9599 10.1993 14.955 10.2241 14.955 10.239C15.089 10.2042 15.089 10.2042 15.1089 10.1844C15.1288 10.1844 15.1486 10.1893 15.1685 10.1943C15.2181 10.1297 15.2281 10.1148 15.3423 10.0751C15.3572 10.085 15.377 10.095 15.3919 10.1049C15.3621 10.1248 15.3175 10.1496 15.2877 10.1744C15.3969 10.1198 15.5111 10.1049 15.5558 10.095C15.5459 10.1049 15.526 10.1198 15.5111 10.1297C15.531 10.1248 15.5558 10.1148 15.5757 10.1099C15.5906 10.1198 15.6154 10.1297 15.6303 10.1397C15.5955 10.1546 15.5459 10.1695 15.5061 10.1844C15.6799 10.1943 15.6799 10.1943 15.7048 10.1993C15.7048 10.2142 15.7097 10.234 15.7147 10.2489C16.0077 10.3135 16.1169 10.3383 16.1467 10.4078C16.1914 10.5071 16.0126 10.6313 15.9282 10.6462C15.7693 10.6809 15.6551 10.5568 15.5111 10.5369C15.6005 10.9093 15.6005 10.9093 15.7048 10.8845C15.6948 10.8497 15.6799 10.81 15.6601 10.7802C15.8786 10.7753 16.0375 10.5915 16.256 10.5965C16.2659 10.6114 16.2758 10.6263 16.2857 10.6412C16.3702 10.4575 16.3702 10.4575 16.3851 10.3929C16.3751 10.383 16.3652 10.3631 16.3553 10.3482C16.4993 10.2737 16.5738 10.3035 16.5787 10.4376C16.4546 10.4426 16.4297 10.4475 16.4099 10.5419C16.5589 10.5518 16.683 10.4922 16.8071 10.4277C16.9313 10.3631 17.0554 10.3035 17.1994 10.3135C17.1696 10.3333 17.1299 10.3631 17.1051 10.3879C17.542 10.3631 17.6066 10.3333 17.686 10.2886C17.6811 10.2837 17.6811 10.2837 17.5222 10.1595C18.2372 10.3731 18.2372 10.3731 18.267 10.3681C18.1776 10.2737 18.1379 10.1844 18.1578 10.1049C18.1826 9.98077 18.3415 9.97084 18.3713 9.8467C18.4061 9.85166 18.4507 9.86159 18.4805 9.87153H18.4905C18.5054 9.87649 18.5302 9.88642 18.5451 9.89139C18.6196 10.0503 18.5898 10.239 18.6692 10.3979C18.6245 10.5171 18.6245 10.527 18.4656 10.5915C18.8331 10.5667 18.7934 10.4277 18.7735 10.3482C18.9274 10.2688 19.0119 10.4277 19.131 10.4575H19.136C18.9622 10.3135 18.7288 10.2489 18.6096 10.0404C18.6941 9.98573 18.6941 9.98573 18.7139 9.90132C18.7288 9.91125 18.7437 9.92118 18.7586 9.93111C18.7586 9.9758 18.7685 10.0304 18.7785 10.0701C18.8083 10.085 18.8083 10.085 19.0119 10.0999C18.992 10.0701 18.992 10.0701 18.848 10.0006C18.8629 10.0006 18.8828 10.0056 18.8977 10.0106C18.9125 10.0006 18.9274 9.98573 18.9374 9.9758C18.9274 9.97084 18.9076 9.95594 18.8927 9.95098C18.8977 9.95098 19.1459 10.0056 19.2999 10.0106C19.2254 9.91125 19.1857 9.88642 19.0565 9.86656C19.0565 9.86656 19.0565 9.86656 19.0814 9.85663C19.2204 9.8169 19.3694 9.86159 19.5084 9.80201C19.4935 9.79704 19.4687 9.78711 19.4538 9.78215C19.424 9.63814 19.4985 9.63814 19.8163 9.64311C19.8361 9.61828 19.8808 9.59842 19.9106 9.59345C19.9106 9.59345 20 9.61828 20.2185 9.60835C20.2036 9.59842 20.1887 9.58352 20.1738 9.57359C20.1887 9.57359 20.2086 9.57359 20.2235 9.57359C20.2781 9.49911 20.2781 9.49911 20.3526 9.48421C20.6654 9.47924 20.9534 9.59345 21.2414 9.70766C21.5245 9.82187 21.8075 9.93608 22.1203 9.93111C22.1303 9.91622 22.1452 9.90132 22.1501 9.89139C22.1452 9.87153 22.1402 9.85166 22.1352 9.83677C22.4481 9.91622 22.7162 10.1546 23.0638 10.0801C23.0588 10.0652 23.0539 10.0404 23.0489 10.0205C23.2028 9.97084 23.3518 10.0503 23.5008 10.0652C23.5008 10.0652 23.5008 10.0652 23.466 10.0553L23.4263 10.0255C23.4859 10.0205 23.4859 10.0205 23.5852 10.0304C23.5504 10.0155 23.5008 9.99567 23.461 9.98077C23.4561 9.96587 23.4511 9.94601 23.4461 9.93111C24.0271 9.88146 24.0668 9.91125 24.2208 10.0354C24.3946 10.1744 24.5882 10.1595 24.7819 10.1397C24.8812 10.1347 24.9805 10.1248 25.0749 10.1347C25.3281 10.1695 25.5813 10.1695 25.8296 10.2042C25.8644 10.2042 25.8991 10.2241 25.9289 10.239C25.914 10.239 25.8942 10.229 25.8793 10.2241C26.0878 10.3035 26.1176 10.3085 26.2169 10.3234C25.9935 10.229 25.9935 10.229 25.9637 10.1744C26.4603 10.1496 27.6619 10.4773 27.8605 10.6958C27.8457 10.6958 27.8208 10.6958 27.8059 10.6958C27.8308 10.7057 27.9549 10.7653 28.0592 10.8448C27.7712 10.9987 27.6123 10.7008 27.3789 10.6511C27.4931 10.7306 27.4931 10.7306 27.5378 10.7604C27.5279 10.7753 27.5179 10.7902 27.508 10.8051C27.7066 10.9093 27.9251 10.9838 28.1088 11.1179C28.0443 11.0931 28.0343 11.0881 27.935 11.0782C27.9499 11.098 27.9648 11.1278 27.9748 11.1477C27.9648 11.1626 27.9499 11.1775 27.94 11.1924C28.0046 11.247 28.0145 11.2619 28.084 11.3811C28.079 11.391 28.0691 11.4109 28.0592 11.4258C27.8159 11.3711 27.7513 11.386 27.7017 11.4009C27.7215 11.53 28.0641 11.7237 28.0641 11.7287C28.0691 11.7287 28.4614 11.962 28.66 12.1954C28.66 12.2153 28.655 12.2401 28.655 12.26C28.7047 12.3196 28.7047 12.3196 28.8437 12.4586C28.8437 12.4586 28.8437 12.4586 28.8189 12.4685C28.8537 12.5877 28.9431 12.6771 29.0026 12.7814C29.0126 12.7963 29.0225 12.8558 29.0324 12.9105C29.0225 12.9005 29.0076 12.8807 28.9927 12.8658C28.9828 12.8459 28.9977 12.8211 28.9977 12.8012C28.6054 12.3742 28.079 12.111 27.647 11.7287H27.652C27.6619 11.7138 27.6768 11.6939 27.6868 11.679C27.5229 11.2222 27.2101 11.0831 27.1207 11.0831C27.215 11.1526 27.2399 11.1675 27.3243 11.2172C27.3094 11.2172 27.2895 11.2222 27.2746 11.2222C27.2845 11.2619 27.3044 11.3115 27.3193 11.3463C27.0512 11.1675 27.0263 11.1576 26.9022 11.1328L26.8674 11.1675C26.8823 11.2619 26.8823 11.2619 27.2299 11.5449C27.1107 11.7088 26.9767 11.5896 26.9469 11.5648C26.9618 11.5549 26.9767 11.5449 26.9916 11.535L26.9816 11.53C26.9518 11.5251 26.9121 11.5201 26.8823 11.5201H26.8674C26.8674 11.5201 26.8625 11.5201 26.8277 11.5201C26.7929 11.5201 26.7433 11.5151 26.7085 11.5102L26.7135 11.5151C26.6539 11.53 26.5894 11.5151 26.5248 11.5002C26.4205 11.4704 26.3212 11.4456 26.2269 11.5449C26.1027 11.679 26.0928 12.3196 26.6688 12.3345C26.5 12.1805 26.5 12.1805 26.4801 12.1309C26.4851 12.1309 26.7036 12.2699 26.7433 12.3841C26.7681 12.3692 26.8029 12.3543 26.8327 12.3444C26.8078 12.3196 26.783 12.2848 26.7681 12.255C26.8972 12.255 27.0859 12.2898 27.2399 12.4636C27.225 12.4586 27.2001 12.4586 27.1852 12.4536C28.0641 12.975 28.2876 13.9632 28.1486 14.2561C28.1287 14.2611 28.1088 14.271 28.089 14.276C28.0244 14.2462 28.0244 14.2462 27.9549 14.1668L27.9201 14.2065C27.9102 14.1916 27.9003 14.1767 27.8953 14.1618C27.9102 14.1966 27.9201 14.2512 27.9152 14.2909C27.9003 14.2859 27.8804 14.2859 27.8655 14.281C28.089 14.4746 27.8804 14.7676 28.0294 14.9762C28.1585 15.1599 28.4117 15.2046 28.521 15.4181C28.5607 15.4975 28.5607 15.4975 28.6253 15.7905C28.5955 15.7955 28.5557 15.8054 28.5259 15.8153C28.5259 15.8302 28.5259 15.8501 28.5259 15.865C28.2379 15.9742 28.1237 15.428 28.1287 15.3734L28.1734 15.4032C28.1585 15.3188 28.1486 15.294 28.0145 15.2294L28.0244 15.2244H28.0095L28.0145 15.2294C27.9201 15.1946 27.8159 15.1847 27.7215 15.145C27.7165 15.1152 27.7165 15.0655 27.7364 15.0407C27.6172 14.9861 27.5676 14.8272 27.4136 14.8272C27.2696 14.8272 27.3441 15.0457 27.2001 15.0407C27.1852 15.0407 27.1654 15.0308 27.1505 15.0258C27.1356 14.9066 27.1207 14.9017 27.0611 14.8868C27.071 14.8669 27.0909 14.8471 27.0909 14.8272C27.0958 14.7875 27.0263 14.5988 26.8972 14.6484C26.8923 14.6534 26.5149 14.9116 26.6936 15.1102C26.9171 15.3535 27.2448 15.1897 27.4981 15.3188C27.4732 15.4529 27.3243 15.5323 27.3441 15.6813C27.3541 15.7359 27.359 15.7856 27.5874 16.0338C27.7861 16.2474 27.94 16.3914 28.0939 16.5056L28.0542 16.5354C27.9748 16.4956 27.9251 16.4162 27.8407 16.3963C27.8457 16.4013 28.0443 16.4857 28.0691 16.7389L28.0393 16.7737C28.2578 16.8234 28.2578 16.8234 28.2975 16.9823C28.2926 16.9972 28.2777 17.0071 28.2677 17.022C28.3273 17.1412 28.3223 17.1511 28.3124 17.2305C28.2975 17.2355 28.2777 17.2355 28.2628 17.2405C28.2379 17.31 28.2081 17.6576 28.2727 17.7966C28.2727 17.7966 28.2727 17.7966 28.2876 17.7817C28.2578 17.9754 28.2528 18.0052 28.1088 18.1492C27.945 18.3031 27.7215 18.3577 27.5527 18.5017C27.5378 18.4471 27.5328 18.4272 27.4633 18.3826C27.5179 18.4918 27.5279 18.5117 27.3988 18.6755C27.3938 18.6755 27.0909 18.4372 27.0263 18.9735C27.1356 19.0678 27.1803 19.1522 27.1306 19.3608C27.081 19.5147 26.927 19.5495 26.8426 19.5594C26.8575 19.5246 26.8823 19.4849 26.8972 19.4502C26.9171 19.0231 26.9171 19.0231 26.9866 18.9834C26.9866 18.9238 26.9866 18.7798 26.8923 18.7351C26.8426 18.7153 26.2815 18.7649 26.3212 19.0777C26.3907 19.6686 27.0263 19.9517 27.1058 20.5327C27.1356 20.7412 27.0512 21.4513 26.7433 21.2229C26.7334 21.3768 26.5894 21.784 26.3858 21.6747C26.4056 21.64 26.4305 21.5953 26.4503 21.5605C26.3411 21.1037 25.8296 20.9597 25.6608 20.5426C25.2983 20.7859 25.4125 21.3768 25.4274 21.4414C25.487 21.7095 25.7253 21.8535 25.8693 22.0621C26.1127 22.4246 26.0382 22.8814 26.207 23.2637C26.2169 23.2786 26.2418 23.2935 26.2567 23.3084C25.8991 23.373 25.7651 23.08 25.6211 22.4345C25.5019 21.8932 25.4423 21.7194 25.2437 21.8734C25.199 21.6946 25.1791 21.6201 25.2189 21.2974C25.3281 20.4433 24.9507 19.8126 24.8315 19.6389C24.8365 19.8325 24.7918 19.8524 24.7322 19.8772ZM26.1673 25.0265H26.1722L26.1524 25.0116V25.0166L26.1673 25.0265ZM28.6501 18.5861C28.6352 18.5712 28.6253 18.5514 28.6054 18.5365H28.6104C28.6153 18.5514 28.6253 18.5712 28.6501 18.5861ZM28.5557 18.4769L28.5359 18.457L28.5508 18.4719L28.5557 18.4769ZM28.5706 18.0797C28.6253 17.9803 28.6451 17.9456 28.6352 17.9059L28.6302 17.8959C28.6401 17.9108 28.655 17.9357 28.66 17.9903C28.66 18.0648 28.6451 18.1541 28.6253 18.2336C28.5955 18.3776 28.5806 18.457 28.6054 18.5365C28.5657 18.4819 28.5657 18.4819 28.5259 18.4521L28.5309 18.457C28.516 18.4421 28.516 18.4421 28.516 18.4421L28.5309 18.4471C28.4465 18.3478 28.4812 18.2485 28.5706 18.0797ZM27.9996 24.4058C27.9996 24.4058 28.1237 24.3661 28.0244 24.4902C28.0542 24.4555 28.089 24.4058 28.1088 24.3661C28.1684 24.2519 28.1535 24.1129 28.2081 23.9986C28.2727 23.8546 28.4018 23.7553 28.4664 23.6113C28.511 23.5071 28.5061 23.4673 28.5011 23.3928C28.5855 23.4922 28.6203 23.4326 28.6302 23.4028C28.655 23.3283 28.6501 23.1793 28.4515 22.8913C28.4763 22.9112 28.4763 22.9112 28.4961 22.9161C28.4961 22.9112 28.4961 22.9112 28.4316 22.8069C28.4614 22.8119 28.5458 22.8119 28.521 22.7175L28.5309 22.7275L28.5408 22.7225C28.5408 22.7126 28.5359 22.6877 28.521 22.6381C28.5905 22.6977 28.6352 22.6182 28.6302 22.5686C28.6253 22.5537 28.6203 22.5338 28.6104 22.5189H28.6153C28.6352 22.4941 28.8239 22.2806 28.7196 22.2756C28.6848 22.2756 28.6153 22.3054 28.5806 22.3203C28.6104 22.3054 28.6104 22.3054 28.6153 22.2905C28.5955 22.2806 28.5955 22.2806 28.5359 22.2855C28.6004 22.1365 28.4862 22.067 28.4614 22.067C28.4415 22.077 28.4366 22.0819 28.4217 22.0968V22.0869C28.4217 22.0869 28.223 22.0968 28.1436 22.5884C28.1386 22.5437 28.1337 22.5338 28.1088 22.504C28.0691 22.5785 28.0542 22.6232 28.0343 22.7026C27.9698 22.6877 27.9946 22.5934 27.9301 22.5785C27.8556 22.787 27.513 23.0701 27.4683 23.0006L27.4633 22.9857C27.4186 23.0949 27.4037 23.1644 27.3988 23.2786C27.3292 23.229 27.1803 23.2538 27.1902 23.1346C27.071 23.2488 27.0214 23.2985 27.0412 23.5368C27.0412 23.5418 27.1455 24.3164 27.2796 24.3214C27.3193 24.3264 27.3541 24.2618 27.3739 24.232C27.3988 24.3611 27.6818 24.376 27.7612 24.3313C27.7165 24.5151 27.9102 24.4455 27.9996 24.4058ZM29.3353 25.3592C29.3453 25.3344 29.3254 25.3394 29.2956 25.3394C28.9629 25.4188 28.7593 25.7018 28.7047 25.8012C28.7246 25.7962 28.7693 25.7813 28.9182 25.7018C29.0523 25.6274 29.3055 25.4287 29.3353 25.3592ZM26.7483 25.2549L26.7731 25.25H26.7334L26.7483 25.2549ZM26.7334 25.2549H26.7383C26.5049 25.2053 26.3609 25.1606 26.1425 25.0563C26.2567 25.0216 26.346 24.9322 26.4553 24.8875C26.5546 24.8726 26.6291 24.9173 26.7085 24.962C26.778 25.0067 26.8476 25.0464 26.9369 25.0464C27.0909 25.0365 27.2349 24.9669 27.3938 24.9818L27.4285 24.9868C27.5328 25.0116 27.5477 25.0613 27.5576 25.106C27.4981 25.1457 27.4335 25.1805 27.3441 25.1457C27.3888 25.2202 27.3988 25.2301 27.5378 25.2549C27.7513 25.2847 27.7314 25.3692 27.7165 25.394L27.7066 25.4089C27.6818 25.4387 27.5428 25.4933 27.5428 25.3543C27.513 25.4536 27.3193 25.4039 26.7284 25.2549H26.7334ZM28.7941 25.3692L28.8537 25.389L28.8487 25.3989C28.8288 25.4039 28.804 25.4089 28.7842 25.4138C28.7941 25.4238 28.7941 25.4238 28.8388 25.4436L28.8437 25.4387C28.8884 25.4238 28.9282 25.4039 28.9679 25.394L28.9579 25.4138C28.9778 25.4089 28.9977 25.4089 29.0126 25.3989C29.0275 25.384 29.0324 25.3642 29.0473 25.3493L29.0573 25.3443H29.0473H29.0424C29.0374 25.3394 29.0275 25.3443 29.0175 25.3443C29.0076 25.3443 28.9977 25.3493 28.9877 25.3443C28.948 25.3493 28.9282 25.3543 28.9033 25.3592C28.8537 25.3046 28.7891 25.3592 28.7891 25.3592C28.665 25.3245 28.4763 25.3394 28.377 25.3543C28.3124 25.3692 28.2578 25.4089 28.1883 25.4188C28.1436 25.4238 28.0939 25.4089 28.0492 25.4039C28.0592 25.4188 28.0691 25.4287 28.089 25.4337C28.0492 25.4635 28.0294 25.4436 27.9996 25.3989C27.9251 25.3989 27.8953 25.4138 27.8754 25.4188C27.8506 25.3493 27.8159 25.3294 27.796 25.3294C27.7314 25.3543 27.7761 25.4089 27.8457 25.4983L27.8506 25.4933C27.9052 25.5132 27.9648 25.5032 28.0244 25.4983C28.0741 25.4933 28.1287 25.4834 28.1783 25.4933C28.1436 25.4138 28.5607 25.4585 28.5657 25.4585L28.5607 25.4685C28.6401 25.4387 28.7097 25.394 28.7941 25.3692ZM29.1764 21.2278C29.2062 21.2924 29.3254 21.1832 29.3254 21.1832C29.3453 21.1633 29.3602 21.1434 29.3602 21.1236C29.3651 21.0987 29.3502 21.0838 29.3204 21.0441C29.246 20.9597 29.2261 20.9349 29.2112 20.91C29.2062 20.915 29.2062 20.91 29.1963 20.9001C29.1963 20.915 29.1963 20.9249 29.1864 20.9746C29.1764 21.054 29.1566 21.1832 29.1764 21.2278ZM29.8667 24.237C29.7971 24.242 29.6978 24.2767 29.7822 24.3512L29.817 24.376L29.8071 24.381H29.812L29.817 24.376C29.9362 24.4406 30.0553 24.4455 30.0951 24.386C30.1199 24.3462 30.0851 24.3115 30.0802 24.3065C30.0802 24.3214 30.0951 24.3363 30.1 24.3512C30.0355 24.237 29.8964 24.237 29.8667 24.237ZM29.5935 23.3084C29.5985 23.2836 29.5935 23.2538 29.5935 23.229C29.5737 23.2339 29.5439 23.2389 29.524 23.2439C29.3353 23.2786 29.1466 23.2935 28.9629 23.3382C28.9133 23.3482 28.8735 23.373 28.8487 23.4077C28.8338 23.4276 28.8239 23.4475 28.8189 23.4624C28.7792 23.5567 28.7593 23.656 28.7295 23.7504C28.6699 23.9291 28.5309 24.0682 28.4763 24.2519C28.4217 24.4356 28.4664 24.6293 28.4316 24.818C28.4961 24.7931 28.5408 24.7931 28.5955 24.813C28.5955 24.808 28.6948 24.3015 28.7792 24.2171C28.8189 24.2718 28.8239 24.2817 28.804 24.4505C28.7742 24.6839 28.9033 24.6392 28.9282 24.6293C28.9182 24.6541 28.8835 24.7286 28.8934 24.818L28.9083 24.8229C28.9828 24.7882 29.0473 24.5995 29.0473 24.53C29.0175 24.5349 28.9977 24.5449 28.9728 24.5697C29.0026 24.376 28.9182 24.1973 28.9133 24.0086C29.0324 24.1575 29.1019 23.8 29.246 23.7653C29.1814 23.7504 29.1119 23.7603 29.0473 23.7702C28.9579 23.7851 28.8636 23.7951 28.7742 23.7553C28.7146 23.7255 28.7395 23.6759 28.8686 23.5865C29.0026 23.4872 29.0871 23.4971 29.2559 23.5219C29.4049 23.5368 29.4148 23.5269 29.4793 23.4673L29.4545 23.4971C29.5786 23.3531 29.5786 23.3531 29.5935 23.3084ZM28.8636 21.203C28.8735 21.1087 28.8388 21.054 28.8189 21.0193L28.809 21.0342C28.7891 21.0838 28.7494 21.1782 28.7643 21.1931C28.7693 21.1931 28.7742 21.1931 28.799 21.1583C28.6948 21.3421 28.5756 21.5258 28.5657 21.5407L28.5508 21.5655C28.511 21.6251 28.4912 21.6648 28.4664 21.7343C28.6253 21.6549 28.8487 21.4215 28.8636 21.203ZM11.2308 14.5342C11.2506 14.5094 11.3053 14.425 11.3648 14.3008C11.3897 14.2611 11.4046 14.2264 11.4095 14.2115L11.3946 14.2164C11.3152 14.271 11.2407 14.415 11.2407 14.425C11.2159 14.4796 11.2159 14.5044 11.2308 14.5342ZM11.1116 14.6037V14.6087C11.1066 14.6286 11.1017 14.6484 11.0768 14.7179C11.0371 14.8421 10.9626 15.0506 11.0222 15.0109C11.0768 14.9762 11.1761 14.8073 11.2258 14.7031C11.2854 14.5739 11.2506 14.5739 11.2407 14.5739C11.2308 14.5739 11.2109 14.5789 11.1563 14.6137C11.1116 14.6385 11.1116 14.6335 11.1116 14.6037ZM16.0623 17.4143C16.0971 17.4192 16.107 17.4143 16.112 17.4093C16.1169 17.4043 16.0971 17.3994 16.0822 17.3994C16.0722 17.3994 16.0623 17.4043 16.0623 17.4143ZM26.9916 30.9405C26.9618 30.9405 26.927 30.9356 26.8972 30.9356C26.8674 30.9356 26.8029 30.9405 26.6887 31.0101C26.5645 31.0945 26.4553 31.2037 26.3361 31.2931C26.4801 31.2683 26.5 31.2583 26.6688 31.1441C26.8277 31.0399 26.9518 30.9554 26.9816 30.9405H26.9916ZM28.9331 30.3347C28.9133 30.3496 28.8984 30.3695 28.8785 30.3894C28.9033 30.3645 28.9232 30.3496 28.9331 30.3347ZM29.8567 28.6166L29.8766 28.5918V28.5968L29.8567 28.6166ZM27.2101 30.2205H27.215L27.2051 30.2255L27.2101 30.2205ZM11.1364 12.7069C11.1712 12.692 11.345 12.6076 11.6131 12.2798C11.6429 12.2451 11.7273 12.1408 11.6677 12.1408L11.6578 12.1458C11.5486 12.1805 11.4791 12.2699 11.3797 12.3146C11.3599 12.3593 11.345 12.3841 11.3053 12.4089C11.3251 12.4288 11.2854 12.4735 11.191 12.5678C11.1414 12.6175 10.9875 12.7665 11.1364 12.7069ZM29.2162 30.0666C29.1069 30.156 29.0126 30.2553 28.9083 30.3447C28.9232 30.3397 28.9331 30.3298 28.948 30.3198L28.9331 30.3347C29.0374 30.2404 29.1367 30.1411 29.241 30.0467L29.2162 30.0666ZM28.0145 31.015C28.079 31.015 28.6104 30.6525 28.7941 30.5036L28.799 30.4986C28.7593 30.5085 28.7345 30.5483 28.6948 30.5632C28.7097 30.5433 28.7097 30.5433 28.9331 30.3496C28.8984 30.3794 28.8636 30.4043 28.8288 30.4341C28.8437 30.4192 28.8586 30.4043 28.8785 30.3894C28.66 30.5731 28.0244 31.0101 28.0145 31.015ZM28.1386 30.9257C28.0939 30.9455 28.0542 30.9703 28.0095 30.9952C28.1386 30.9058 28.1386 30.9058 28.1436 30.8909L28.1088 30.9008C27.8804 31.0299 27.6719 31.1938 27.4285 31.2981C27.0859 31.447 27.0859 31.447 26.9965 31.5017C26.8078 31.6059 26.7929 31.6308 26.788 31.6457C26.8724 31.6804 27.8208 31.1441 28.0691 30.9703C28.0939 30.9554 28.1188 30.9356 28.1386 30.9257ZM17.12 9.26572C17.1448 9.26076 17.1945 9.25579 17.2491 9.26076C17.2143 9.26572 17.2143 9.26572 17.2093 9.26572L17.2143 9.27069C17.1895 9.27565 17.1746 9.28062 17.1547 9.28062C17.1696 9.30545 17.2044 9.31041 17.2938 9.28559L17.2739 9.29552H17.2987C17.2888 9.30545 17.2739 9.32531 17.3136 9.32034C17.3335 9.32034 17.3682 9.31041 17.3831 9.30545L17.3881 9.30048C17.3633 9.29055 17.3385 9.29055 17.3037 9.29552C17.3186 9.29552 17.3236 9.29055 17.3385 9.28062H17.3236C17.3533 9.27069 17.3831 9.26572 17.408 9.25579C17.408 9.2409 17.403 9.2111 17.3087 9.2111C17.2391 9.21607 17.1696 9.23096 17.0902 9.26076C17.1051 9.26572 17.11 9.26572 17.12 9.26572ZM29.1963 13.1637L29.1864 13.1488H29.1814C29.1764 13.1488 29.1814 13.1588 29.1963 13.1885V13.1637ZM17.547 9.28559L17.6165 9.30048C17.6364 9.30048 17.6513 9.29552 17.6612 9.29552L17.6513 9.28062L17.6711 9.27565C17.7258 9.30048 17.7258 9.30048 17.8449 9.25083C17.8598 9.29055 17.8598 9.29055 18.0634 9.22103L18.0585 9.23593C18.0436 9.24586 18.0436 9.25083 18.0386 9.25579C18.0436 9.25579 18.0585 9.25083 18.0783 9.24586L18.0833 9.23593V9.23096C18.0883 9.21607 18.0883 9.2111 18.0883 9.20614C18.0634 9.1962 18.0585 9.1962 17.9939 9.20117L18.0237 9.17634C17.984 9.17634 17.9443 9.1962 17.9045 9.1962C17.9045 9.20117 17.9095 9.21607 17.9492 9.21607C17.9244 9.22103 17.8996 9.226 17.8747 9.23593C17.8598 9.23593 17.84 9.23593 17.7506 9.26076V9.27069C17.7357 9.26572 17.7258 9.26572 17.7059 9.26572C17.7357 9.25579 17.7506 9.25083 17.7754 9.2409C17.7407 9.23096 17.7158 9.23096 17.6761 9.226C17.696 9.226 17.7307 9.21607 17.7506 9.2111C17.7754 9.21607 17.835 9.23096 17.8449 9.20614L17.835 9.20117C17.8201 9.1962 17.8003 9.20117 17.7854 9.19124C17.7407 9.17138 17.7357 9.17138 17.7258 9.17138C17.7258 9.17634 17.7258 9.17634 17.7307 9.1962C17.6761 9.20614 17.6215 9.23096 17.5569 9.23096L17.547 9.23593V9.24586C17.542 9.25083 17.542 9.25083 17.5222 9.24586L17.5271 9.26076H17.5222C17.5023 9.25579 17.4825 9.25083 17.4427 9.25579C17.4427 9.26572 17.4427 9.27565 17.4427 9.28559C17.547 9.28062 17.547 9.28062 17.547 9.28559ZM29.3006 13.3623L29.3055 13.3574L29.2807 13.3375L29.3006 13.3623ZM29.3602 13.6354L29.3552 13.6305H29.3453C29.3304 13.6354 29.3304 13.6503 29.3304 13.6702V13.6652C29.3304 13.6652 29.3254 13.6702 29.3602 13.7397C29.3751 13.7298 29.3949 13.7099 29.3602 13.6354ZM29.2658 13.3028V13.2978L29.246 13.2829V13.2879C29.246 13.3077 29.2608 13.3028 29.2658 13.3028ZM29.1566 13.0942L29.1516 13.0793C29.1417 13.0644 29.1119 13.0247 29.097 13.0197C29.1019 13.0296 29.1168 13.0594 29.1317 13.0743L29.1566 13.0942ZM23.6895 9.71759L23.6944 9.70766C23.6001 9.64807 23.5206 9.62325 23.4213 9.62821C23.3766 9.63318 23.3518 9.63814 23.3071 9.65304C23.317 9.65304 23.3468 9.66297 23.4014 9.68283C23.5057 9.71759 23.6646 9.77221 23.6895 9.71759ZM20.1093 9.46931C20.2433 9.46931 20.3327 9.43952 20.3675 9.41966L20.3873 9.41469C20.3377 9.37 20.2235 9.33028 20.149 9.33028C20.0596 9.33524 20.0447 9.43455 20.0745 9.45938C20.0894 9.46931 20.1043 9.46931 20.1093 9.46931ZM22.741 9.66794L22.7261 9.6729C22.7559 9.67787 22.7907 9.6729 22.8205 9.67787C22.9297 9.69276 23.039 9.72752 23.1482 9.73745C23.2177 9.74242 23.2674 9.73745 23.2823 9.72752C23.2674 9.69773 23.0836 9.6729 23.0836 9.6729C23.034 9.66794 22.9893 9.65304 22.9446 9.64807C22.9049 9.64807 22.8652 9.63318 22.8254 9.61828C22.7907 9.60338 22.751 9.58849 22.7112 9.58849C22.6864 9.59345 22.6864 9.59842 22.6814 9.60338C22.6963 9.63318 22.7261 9.64311 22.741 9.66794ZM19.4886 9.32034C19.5332 9.30545 19.5779 9.30048 19.6574 9.29552C19.5978 9.30048 19.5879 9.31538 19.573 9.33524C19.6624 9.36504 19.7418 9.42462 19.8361 9.43952C19.9156 9.45442 19.9603 9.42462 19.9802 9.40973C19.9851 9.40973 20 9.39483 20.0199 9.37497C20.0149 9.37497 20.0149 9.37497 19.9901 9.36504C19.9603 9.35014 19.9603 9.34517 19.9901 9.32531C19.8908 9.32531 19.851 9.30545 19.8014 9.28062C19.7418 9.24586 19.6921 9.23096 19.5879 9.23593C19.5531 9.23593 19.5283 9.23593 19.4935 9.2409C19.4985 9.26572 19.4985 9.29055 19.4488 9.28062C19.4836 9.29055 19.5084 9.29552 19.5432 9.29552C19.5035 9.29552 19.4786 9.29552 19.4439 9.29552C19.4488 9.30048 19.4687 9.32531 19.4886 9.32034ZM12.065 11.0186V11.0235L12.0551 11.0285C12.0799 11.0086 12.1047 10.9888 12.1295 10.964C12.1047 10.9888 12.0799 11.0086 12.065 11.0186ZM12.9886 10.5965C12.9737 10.6015 12.9588 10.6015 12.9439 10.6015C12.929 10.6015 12.9141 10.5965 12.8992 10.6064C12.8595 10.6213 12.8347 10.6412 12.79 10.6809C12.8148 10.6561 12.8247 10.6462 12.8247 10.6362C12.8098 10.6263 12.7453 10.6611 12.6559 10.7306C12.7999 10.6015 12.8148 10.5816 12.8247 10.5667H12.8198C12.7999 10.5816 12.7701 10.6064 12.7304 10.6412L12.7403 10.6263C12.7353 10.6213 12.7304 10.6213 12.6559 10.6859L12.6609 10.6809C12.6559 10.6809 12.6509 10.6809 12.6062 10.7107H12.6112V10.7306L12.6162 10.7355L12.5963 10.7504L12.5913 10.7604L12.5963 10.7653C12.5963 10.7653 12.4871 10.8051 12.492 10.8349L12.5069 10.8299C12.3431 10.9491 12.4126 10.9689 12.4175 10.9689C12.4473 10.9739 12.5616 10.9391 12.6708 10.8696C12.6956 10.8547 12.7254 10.8349 12.7453 10.82C12.78 10.7951 12.8148 10.7554 12.8545 10.7355L12.8496 10.7306C12.8545 10.7206 12.8645 10.6958 12.9886 10.5965ZM29.3701 13.5312C29.3701 13.5212 29.3602 13.4964 29.3403 13.4617C29.3353 13.4716 29.3353 13.4865 29.3403 13.5063L29.3304 13.5014C29.3403 13.5113 29.3651 13.5411 29.3701 13.5312ZM11.5933 12.4189C11.4989 12.4834 11.4989 12.4834 11.3202 12.6821C11.3202 12.6821 11.3003 12.7367 11.3499 12.7367C11.3797 12.7416 11.4244 12.7118 11.4393 12.7019C11.4244 12.7168 11.4145 12.7267 11.3996 12.7367C11.5982 12.6324 11.6379 12.6821 11.6528 12.7317C11.6777 12.6473 11.7671 12.6225 11.8167 12.5579C11.8862 12.4785 11.8266 12.4834 11.7919 12.4884C11.777 12.4884 11.772 12.4884 11.7671 12.4884C11.8018 12.4437 11.8614 12.3742 11.8465 12.3494C11.8962 12.3643 11.9756 12.0167 11.9756 12.0167L11.9607 12.0018C12.0749 11.9521 12.2586 11.7932 12.2686 11.7386C12.2537 11.7187 12.2289 11.7287 12.1295 11.7733C12.2934 11.6542 12.2934 11.6542 12.3331 11.6095C12.3232 11.6194 12.3033 11.6393 12.2934 11.6492C12.1494 11.7585 12.0551 11.7833 12.0253 11.7882C12.0352 11.7783 12.0402 11.7634 12.0451 11.7535L12.0402 11.7485C12.0948 11.7138 12.1295 11.679 12.1593 11.6393C12.1395 11.6393 12.1246 11.6492 12.0749 11.6939C12.0054 11.7535 12.0054 11.7535 12.0004 11.7585C11.9557 11.7932 11.926 11.8329 11.921 11.8429C11.9508 11.8131 11.9756 11.7882 12.0004 11.7585V11.7634L12.0054 11.7684L12.0253 11.7634C11.9706 11.8081 11.9458 11.8528 11.9458 11.8528C11.9607 11.8578 11.9657 11.8528 11.9756 11.8329V11.8379C11.9855 11.8379 11.9905 11.8379 12.0253 11.8131L11.8217 11.9869C11.8217 11.9869 11.9309 11.9273 11.9706 11.8925C11.9458 11.9223 11.9458 11.9223 11.8614 11.9918L11.8813 11.972C11.8068 12.0216 11.8068 12.0216 11.7571 12.0763C11.782 12.0614 11.7919 12.0514 11.8167 12.0316C11.8018 12.0465 11.772 12.0763 11.7571 12.111C11.7671 12.111 11.782 12.111 11.8763 12.0167C11.7968 12.1011 11.7869 12.1209 11.782 12.1507C11.7919 12.1607 11.7919 12.1607 11.8415 12.1656C11.8018 12.1954 11.7472 12.255 11.7323 12.2898L11.7373 12.2947L11.7472 12.2898C11.6926 12.3494 11.6727 12.3692 11.5933 12.4189ZM28.66 15.8153L28.665 15.8203L28.66 15.8104V15.8153ZM17.11 10.0751C17.115 10.0801 17.115 10.09 17.1498 10.0999L17.1696 10.0801L17.1547 10.0652L17.1696 10.0453C17.254 10.1744 17.3484 10.1993 17.4676 10.1198C17.4378 10.0602 17.3881 10.0106 17.3583 9.94601C17.4427 9.92615 17.5222 9.85663 17.542 9.78711C17.5867 9.80697 17.6414 9.77718 17.7705 9.69773C17.9095 9.61828 18.0734 9.63814 18.2223 9.58849C18.2372 9.58352 18.2621 9.57359 18.2819 9.56862C18.1776 9.55373 18.0783 9.5438 17.979 9.5438C17.9194 9.54876 17.8946 9.55373 17.8499 9.56366C17.8201 9.57359 17.8003 9.59842 17.7705 9.60835C17.6662 9.64311 17.5569 9.65801 17.4527 9.69773C17.4725 9.72256 17.4626 9.73249 17.3931 9.76725C17.3881 9.77221 17.0653 9.9758 17.0703 10.0205C17.1001 10.0354 17.1299 10.0304 17.1547 10.0503C17.1249 10.0602 17.115 10.0602 17.11 10.0751ZM28.7146 13.6454C28.6749 13.5908 28.6401 13.556 28.4713 13.4021C28.3174 13.263 28.2926 13.2332 28.2777 13.1935L28.2826 13.1836C28.3025 13.1786 28.3174 13.1736 28.4018 13.2034C28.377 13.1389 28.3571 13.0992 28.2578 13.0197C28.1138 12.8956 27.9251 12.8459 27.7712 12.7317C27.6172 12.6175 27.4981 12.4586 27.3441 12.3444C27.2895 12.3047 27.22 12.26 27.1554 12.26C27.1356 12.2649 27.1306 12.2649 27.1157 12.2699C27.1654 12.3245 27.2399 12.3494 27.2845 12.4089C27.5229 12.5579 28.0393 13.1041 28.2926 13.3673C28.511 13.5957 28.5607 13.6503 28.6104 13.6851C28.5706 13.6305 28.5508 13.5957 28.521 13.5361C28.5359 13.5411 28.5359 13.5411 28.5955 13.5808C28.6501 13.6206 28.6997 13.6553 28.7146 13.6454ZM12.4622 10.6958C12.5367 10.6511 12.8843 10.4128 12.8893 10.4078L12.8793 10.4227C12.9141 10.4128 12.924 10.4128 13.0432 10.3482C13.1525 10.2737 13.3163 10.2837 13.3858 10.1446C13.356 10.1446 13.3263 10.1595 13.2965 10.1695C13.356 10.1347 13.4107 10.0999 13.4703 10.0701C13.4504 10.09 13.4256 10.1099 13.4007 10.1347C13.4454 10.1248 13.5596 10.0503 13.5696 10.0404L13.5348 10.0553C13.5696 10.0354 13.6043 10.0155 13.6391 9.99567L13.6043 10.0155C13.6043 10.0056 13.6043 10.0056 13.7583 9.87153C13.7732 9.87649 13.8129 9.88146 13.8327 9.83677L13.8377 9.85166C13.8923 9.87153 13.9221 9.8169 13.9668 9.80201C13.942 9.80697 13.942 9.80697 13.9023 9.82684C14.0016 9.76228 14.0065 9.76228 14.081 9.74739C14.1803 9.71759 14.2449 9.62821 14.3343 9.58352H14.3194V9.56862C14.3839 9.5289 14.4634 9.5438 14.518 9.49414H14.5031C14.523 9.47924 14.5428 9.47428 14.5627 9.45938C14.5478 9.45938 14.5478 9.45938 14.4932 9.47428C14.7067 9.36504 14.9401 9.30545 15.1635 9.21607C15.1784 9.2111 15.1983 9.20117 15.2132 9.19124C15.1288 9.17138 15.1288 9.17138 14.8557 9.27069C14.9401 9.14158 15.1536 9.25083 15.2032 9.07206C15.1933 9.0671 15.1784 9.06213 15.1635 9.06213C15.1039 9.07206 15.0245 9.09193 14.9897 9.10682L14.9748 9.11179H14.9848H14.9798L14.9699 9.11676L14.9897 9.10682C14.8954 9.12669 14.8954 9.12669 14.7911 9.18131C14.811 9.17138 14.811 9.17138 14.8457 9.14655C14.8209 9.15648 14.7961 9.17138 14.7712 9.18131L14.7861 9.17138C14.7762 9.17634 14.7613 9.18627 14.7464 9.19124C14.7613 9.18627 14.7762 9.17634 14.7911 9.16641C14.7613 9.18131 14.7216 9.20117 14.6868 9.22103C14.0959 9.5289 13.5298 9.87649 12.9985 10.2688C12.7006 10.4873 12.4076 10.7206 12.1295 10.964C12.2537 10.8547 12.492 10.6561 12.5665 10.6114C12.5318 10.6412 12.497 10.666 12.4622 10.6958ZM15.526 9.54876C15.5657 9.5438 15.6055 9.52393 15.6998 9.47428C15.819 9.41469 15.8339 9.40973 15.8537 9.41469C15.8587 9.42462 15.8537 9.44945 15.7693 9.49911C15.7842 9.50904 15.814 9.50904 15.8835 9.49414C15.9431 9.47924 15.9481 9.47924 15.9779 9.47924C15.9878 9.43952 15.9878 9.43455 15.9729 9.40973C15.9531 9.3849 15.9183 9.37993 15.8885 9.36007C15.9431 9.36007 16.0375 9.3551 16.2063 9.32531C16.3453 9.30048 16.3006 9.23096 16.3006 9.23096C16.2857 9.21607 16.246 9.21607 16.2262 9.22103C16.0871 9.226 15.963 9.26572 15.9282 9.28559L15.9233 9.29055C15.9084 9.29552 15.8885 9.29552 15.8686 9.30048L15.8488 9.31538C15.8587 9.32034 15.8637 9.32034 15.8885 9.32034L15.8637 9.33524C15.8239 9.31538 15.7942 9.33028 15.7445 9.37497C15.7445 9.3551 15.7097 9.34021 15.7296 9.31538C15.7147 9.32531 15.665 9.34517 15.6253 9.33028H15.6055C15.5856 9.34517 15.5806 9.37 15.5558 9.37993V9.36504C15.5409 9.36504 15.5161 9.40476 15.521 9.41469C15.531 9.42959 15.5409 9.41469 15.5508 9.38986C15.5757 9.39483 15.6005 9.39483 15.6253 9.39483C15.6551 9.39483 15.6849 9.38986 15.7147 9.40476C15.4714 9.49414 15.4714 9.49414 15.4615 9.514C15.4714 9.53387 15.526 9.54876 15.526 9.54876ZM28.7047 13.7844C28.8338 13.8589 28.9579 13.9433 29.097 14.0029C29.241 14.0675 29.2211 14.0029 29.2112 13.9731C29.2211 13.983 29.2311 13.9979 29.241 14.0128C29.241 13.988 29.246 13.9681 29.2857 13.9582V13.9483C29.2708 13.8639 29.2708 13.8639 29.3304 13.7943C29.3204 13.849 29.3403 13.9036 29.3254 13.9582L29.3006 13.9681H29.2956C29.3155 14.0476 29.3155 14.0526 29.3055 14.0774H29.2857L29.2807 14.0724C29.3204 14.127 29.39 14.1419 29.4396 14.1817C29.4346 14.2115 29.4098 14.3704 29.2162 14.4448C29.4446 14.6385 29.6134 14.9662 29.8468 15.4181C29.8269 15.3833 29.8269 15.3833 29.8269 15.3684C29.8269 15.3734 30.0404 15.6713 30.0404 15.8352L30.0305 15.8451C29.961 15.8054 29.9709 15.7111 29.9213 15.6614L29.9113 15.6763C29.9163 15.7011 29.9312 15.726 29.9362 15.7508C29.9163 15.7359 29.9163 15.7359 29.9014 15.7359C29.9014 15.7806 29.9362 15.8203 29.9213 15.865C29.8964 15.86 29.8418 15.8153 29.8716 15.7806L29.8468 15.7657C29.8369 15.7806 29.8269 15.7905 29.8617 15.8749C29.8369 15.865 29.8269 15.865 29.7922 15.87H29.7822C29.7425 15.865 29.7375 15.865 29.7127 15.8551C29.7127 15.8799 29.7276 15.9444 29.7127 16.0338V16.0388C29.6879 16.1381 29.6333 16.0636 29.6184 16.0338C29.5985 16.009 29.5886 15.9941 29.5637 15.9494C29.5687 15.9792 29.5737 16.009 29.5786 16.0338L29.5836 16.0587C29.5935 16.1033 29.5985 16.153 29.6084 16.2027C29.5637 16.1679 29.5389 16.1629 29.529 16.1828C29.5191 16.1927 29.5191 16.2275 29.5191 16.2424C29.5191 16.302 29.5191 16.3119 29.5141 16.3367C29.4396 16.2474 29.3701 16.2027 29.2857 16.1778C29.3552 16.1778 29.39 16.1331 29.4297 16.0338C29.4644 15.9494 29.4793 15.9196 29.524 15.8849C29.4197 15.7657 29.1119 15.8849 29.0672 15.9991C29.097 16.009 29.1069 16.014 29.1367 16.0338C29.2857 16.158 29.3751 16.4062 29.3949 16.4956C29.4197 16.6247 29.3602 16.6049 29.3453 16.5949C29.2311 16.5056 29.1764 16.3665 29.0821 16.2573L29.0722 16.2523C29.0722 16.2573 29.0722 16.2622 29.0672 16.292C29.0573 16.2523 29.0473 16.2424 29.0026 16.1927C28.948 16.1431 28.9431 16.1083 28.9629 16.0338C28.9927 15.9395 29.1615 15.4628 29.4694 15.6415C29.2906 15.294 29.3701 15.289 29.4148 15.289C29.5091 15.289 29.5091 14.857 29.1665 14.5293C29.2112 14.559 29.2608 14.5789 29.3006 14.6186C29.2757 14.5839 29.2757 14.5839 29.2062 14.4895L29.2013 14.5044C29.1913 14.5144 29.1864 14.5193 29.1367 14.5044C29.1317 14.4995 28.7643 14.3157 28.9778 14.2015C28.953 14.1916 28.9232 14.1717 28.9083 14.1519C28.8437 14.0476 28.804 13.9334 28.7444 13.8291C28.7295 13.8192 28.7146 13.7993 28.7047 13.7844Z" fill="#727271"/>
<path d="M20.3772 33.5226H20.3722C20.3772 33.5226 20.3772 33.5226 20.3772 33.5226ZM33.4665 20.3936V20.3886C33.4665 20.3886 33.4665 20.3886 33.4665 20.3936Z" fill="#727271"/>
<path d="M26.798 31.6506C26.793 31.6506 26.793 31.6456 26.7881 31.6456C26.793 31.6307 26.8079 31.6059 26.9966 31.5016C27.086 31.447 27.086 31.447 27.4286 31.298C27.6719 31.1938 27.8805 31.0299 28.1089 30.9008L28.1437 30.8909C28.1387 30.9058 28.1387 30.9058 28.0096 30.9951C28.0543 30.9703 28.094 30.9455 28.1387 30.9256C28.1188 30.9356 28.094 30.9554 28.0692 30.9703C27.8259 31.1391 26.9271 31.6506 26.798 31.6506ZM26.3362 31.2931C26.4554 31.2037 26.5646 31.0945 26.6887 31.01C26.8029 30.9405 26.8675 30.9356 26.8973 30.9356H26.9023C26.9321 30.9356 26.9618 30.9405 26.9916 30.9405H26.9817C26.9519 30.9554 26.8278 31.0398 26.6689 31.1441C26.5 31.2583 26.4802 31.2682 26.3362 31.2931ZM28.0146 31.015C28.0245 31.01 28.6601 30.5731 28.8786 30.3893C28.8587 30.4042 28.8438 30.4191 28.8289 30.434C28.8637 30.4042 28.8984 30.3794 28.9332 30.3496C28.7097 30.5433 28.7097 30.5433 28.6948 30.5631C28.7346 30.5482 28.7594 30.5085 28.7991 30.4986L28.7942 30.5035C28.6104 30.6525 28.0791 31.015 28.0146 31.015ZM27.1903 30.7171C27.2449 30.6575 27.2449 30.6575 27.2598 30.6178H27.225C27.2697 30.5979 27.2697 30.5979 27.3144 30.5582C27.081 30.6327 27.0065 30.6525 26.9767 30.6525C26.9618 30.6525 26.9569 30.6475 26.947 30.6426C26.9668 30.4489 27.1903 30.3993 27.2449 30.2304L27.2151 30.2205C27.4336 30.0318 27.4336 30.0318 27.4385 30.0219C27.2449 30.1609 27.2201 30.1808 27.1505 30.1907C27.3194 30.0517 27.5627 29.9971 27.6719 29.7835C27.5031 29.9226 27.3045 30.0268 27.1207 30.151C27.3591 29.7388 27.3591 29.7388 27.3591 29.6892C27.3194 29.6644 27.2548 29.6495 27.1704 29.6495C26.7185 29.6495 25.7602 30.002 25.7453 30.007C25.5913 30.0715 25.3927 30.146 25.2636 30.146C25.2189 30.146 25.1842 30.1411 25.1593 30.1162C25.1593 30.1063 25.1593 30.0864 25.1643 30.0715C25.2636 29.8928 25.4523 29.8034 25.5665 29.6395C25.7552 29.3764 25.6807 29.0139 25.8942 28.7606C25.8992 28.7755 25.9042 28.8003 25.9042 28.8202C25.929 28.7904 25.929 28.7904 25.9538 28.706C25.9936 28.5372 26.0978 28.1499 26.4355 27.9761C26.4256 27.9959 26.4206 28.0307 26.4206 28.0505C26.6589 28.0307 26.798 27.837 26.9966 27.7427C27.1555 27.6732 27.3343 27.6583 27.4882 27.5738C27.5776 27.5242 27.6372 27.4795 27.811 27.2759C27.9897 27.0723 28.0543 27.0276 28.1387 26.973C28.1089 27.1021 28.1089 27.1418 28.1089 27.1816C28.1387 27.117 28.1387 27.117 28.1635 27.0922L28.1735 27.122C28.2082 27.0376 28.2181 27.0177 28.2231 26.9432C28.3969 26.8737 28.7445 26.5162 28.7644 26.4963C28.7892 26.5956 28.9233 26.6254 28.9133 26.7446C28.958 26.7297 28.9828 26.7198 29.0077 26.7198C29.0275 26.7198 29.0474 26.7297 29.0822 26.7446C29.1666 26.4119 29.3652 26.253 29.5042 26.2133C29.5688 26.1984 29.5688 26.1984 29.7029 25.9451C29.9015 26.0742 29.9859 26.1239 30.0256 26.1239C30.0554 26.1239 30.0653 26.0991 30.0852 26.0593C30.0802 26.104 30.0504 26.1438 30.0504 26.1884C30.12 26.1189 30.12 26.1189 30.1448 26.0941C29.7724 26.7793 29.7724 26.7793 29.7823 26.9035C29.7823 26.9085 29.8171 27.1766 29.9313 27.1766C29.9611 27.1766 29.9958 27.1617 30.0405 27.117C30.3931 26.7645 30.5122 26.2629 30.8152 25.8706H30.8201C30.7357 26.0097 30.6662 26.114 30.6513 26.4814C30.6414 26.69 30.6414 26.69 30.3484 27.2759C30.2739 27.4199 30.3136 27.5887 30.259 27.7377C30.2044 27.9115 30.1249 28.0754 30.0604 28.2442C29.9859 28.4428 29.8717 28.5968 29.8369 28.6464L29.8518 28.6216L29.827 28.6563L29.822 28.6613L29.8121 28.6762L29.832 28.6514C29.8022 28.6911 29.7724 28.7259 29.7426 28.7606C29.7575 28.7457 29.7773 28.7209 29.7922 28.701C29.4893 29.0834 28.6253 30.0467 27.1903 30.7171ZM28.8786 30.3893C28.8984 30.3695 28.9133 30.3496 28.9332 30.3347C28.9233 30.3496 28.9034 30.3645 28.8786 30.3893ZM28.9084 30.3446C29.0126 30.2553 29.107 30.156 29.2162 30.0666L29.2411 30.0467C29.1368 30.1411 29.0375 30.2404 28.9332 30.3347L28.9481 30.3198C28.9332 30.3298 28.9233 30.3397 28.9084 30.3446ZM27.2052 30.2255L27.2101 30.2205H27.2151L27.2052 30.2255ZM14.3145 30.1063C14.2301 30.1063 14.1705 30.0914 14.1705 30.0864C14.1159 30.0616 13.7236 29.6644 13.376 29.3019C13.8775 29.4409 14.389 29.5551 14.9103 29.6346C14.9103 29.6395 14.9054 29.6445 14.9054 29.6544C14.7564 30.0417 14.4833 30.1063 14.3145 30.1063ZM29.8568 28.6166L29.8767 28.5968V28.5918L29.8568 28.6166ZM31.411 25.8607C31.3812 25.8607 31.3465 25.8458 31.3167 25.7713C31.2621 25.6522 31.3266 25.5231 31.2968 25.4039C31.2819 25.3294 31.2025 25.2897 31.1826 25.2152C31.1627 25.2748 31.1478 25.2897 31.128 25.3145L31.123 25.3046L31.128 25.3195C31.1081 25.3344 31.1081 25.3344 31.0287 25.3741H31.0386C31.0634 25.4337 30.9145 25.5528 30.8996 25.5578C30.8946 25.5628 30.8847 25.5628 30.8747 25.5628C30.8251 25.5628 30.7208 25.533 30.7903 25.3344C30.7109 25.3741 30.6165 25.3691 30.5321 25.4088C30.6314 25.2152 30.6811 25.1705 30.7109 25.1705C30.7258 25.1705 30.7357 25.1904 30.7357 25.2003C30.7208 24.6988 30.7208 24.6888 30.6414 24.6143C30.5917 24.5697 30.5122 24.5647 30.4725 24.5051C30.4328 24.4505 30.4378 24.4108 30.4477 24.3412C30.3732 24.4803 30.3583 24.4952 30.3385 24.4952C30.3335 24.4952 30.3335 24.4952 30.3335 24.4952C30.2739 24.4008 30.408 24.2866 30.3037 24.1972C30.3732 24.1426 30.4775 24.1525 30.5371 24.0731C30.5172 24.0781 30.4974 24.083 30.4825 24.083C30.3533 24.083 30.2789 23.949 30.1895 23.8C30.2093 23.7702 30.2143 23.7652 30.2292 23.7603C30.2391 23.7702 30.264 23.7851 30.254 23.8645C30.3335 23.7652 30.398 23.7305 30.4725 23.7106C30.4825 23.7106 30.4924 23.7106 30.5023 23.7106C30.6414 23.7106 30.6265 23.8248 30.6016 24.0632L30.6066 24.0483C30.6066 24.0532 30.5569 24.3114 30.6364 24.3114H30.6414C30.8549 24.2767 30.8797 23.9738 31.1181 23.9688C31.3912 23.9688 31.5997 24.7335 31.5997 24.7385C31.6096 24.7832 31.6096 24.8378 31.6047 24.8825C31.5848 25.0265 31.4905 25.1506 31.4706 25.2946C31.4507 25.4386 31.5153 25.5777 31.4905 25.7217C31.4855 25.7564 31.4805 25.816 31.4557 25.8458C31.4557 25.8458 31.4359 25.8607 31.411 25.8607ZM28.7048 25.8011C28.7594 25.7018 28.963 25.4188 29.2957 25.3393C29.3056 25.3393 29.3155 25.3393 29.3205 25.3393C29.3354 25.3393 29.3404 25.3443 29.3354 25.3592C29.3056 25.4287 29.0524 25.6273 28.9183 25.7018C28.7693 25.7813 28.7246 25.7962 28.7048 25.8011ZM27.9301 25.5032C27.9003 25.5032 27.8755 25.5032 27.8507 25.4933L27.8457 25.4982C27.7762 25.4088 27.7315 25.3542 27.7961 25.3294C27.801 25.3294 27.801 25.3294 27.801 25.3294C27.8159 25.3294 27.8507 25.3493 27.8755 25.4188C27.8954 25.4138 27.9202 25.3989 27.9897 25.3989C27.9947 25.3989 27.9947 25.3989 27.9997 25.3989C28.0195 25.4287 28.0344 25.4486 28.0543 25.4486C28.0642 25.4486 28.0741 25.4436 28.089 25.4337C28.0692 25.4287 28.0592 25.4188 28.0493 25.4039C28.089 25.4088 28.1288 25.4188 28.1685 25.4188C28.1735 25.4188 28.1834 25.4188 28.1884 25.4188C28.2579 25.4088 28.3125 25.3691 28.377 25.3542C28.4317 25.3443 28.5161 25.3393 28.5955 25.3393C28.665 25.3393 28.7346 25.3443 28.7892 25.3592C28.7892 25.3592 28.819 25.3344 28.8488 25.3344C28.8686 25.3344 28.8885 25.3443 28.9034 25.3592C28.9282 25.3542 28.9481 25.3493 28.9878 25.3443C28.9928 25.3443 28.9977 25.3443 29.0027 25.3443C29.0077 25.3443 29.0126 25.3443 29.0176 25.3443C29.0275 25.3443 29.0325 25.3443 29.0375 25.3443H29.0424H29.0474H29.0573L29.0474 25.3493C29.0325 25.3642 29.0275 25.384 29.0126 25.3989C28.9977 25.4088 28.9779 25.4088 28.958 25.4138L28.9679 25.3939C28.9282 25.4039 28.8885 25.4237 28.8438 25.4386L28.8388 25.4436C28.7942 25.4237 28.7942 25.4237 28.7842 25.4138C28.8041 25.4088 28.8289 25.4039 28.8488 25.3989L28.8537 25.389L28.7942 25.3691C28.7097 25.3939 28.6402 25.4386 28.5608 25.4684L28.5657 25.4585C28.5657 25.4585 28.4466 25.4436 28.3373 25.4436C28.2479 25.4436 28.1635 25.4535 28.1784 25.4933C28.1586 25.4883 28.1437 25.4883 28.1238 25.4883C28.089 25.4883 28.0592 25.4933 28.0245 25.4982C27.9947 25.5032 27.9599 25.5032 27.9301 25.5032ZM27.6123 25.4436C27.5726 25.4436 27.5428 25.4237 27.5428 25.3542C27.5329 25.389 27.5031 25.4039 27.4385 25.4039C27.3293 25.4039 27.1108 25.3493 26.7285 25.2549H26.7384C26.7136 25.2499 26.6887 25.245 26.6639 25.24C26.7235 25.1705 26.7831 25.101 26.8377 25.0315C26.8675 25.0364 26.8973 25.0464 26.9271 25.0464C26.9271 25.0464 26.9321 25.0464 26.937 25.0464C27.0761 25.0414 27.2052 24.9818 27.3442 24.9818C27.3591 24.9818 27.379 24.9818 27.3939 24.9818L27.4286 24.9868C27.5329 25.0116 27.5478 25.0613 27.5577 25.1059C27.518 25.1357 27.4733 25.1606 27.4187 25.1606C27.3939 25.1606 27.369 25.1556 27.3442 25.1457C27.3889 25.2202 27.3988 25.2301 27.5379 25.2549C27.7514 25.2847 27.7315 25.3691 27.7166 25.3939L27.7067 25.4088C27.6918 25.4237 27.6521 25.4436 27.6123 25.4436ZM26.7334 25.2499L26.7483 25.2549L26.7732 25.2499H26.7334ZM31.7735 24.8974C31.7437 24.8974 31.7239 24.8875 31.7239 24.8875C31.7487 24.7584 31.7487 24.7584 31.7586 24.7484C31.7884 24.7137 31.8083 24.7037 31.8281 24.7037C31.843 24.7037 31.8629 24.7137 31.8828 24.7335C31.8828 24.7335 31.8877 24.7385 31.8927 24.7385C31.9026 24.7385 31.9125 24.7335 31.9274 24.7137C31.9721 24.659 31.992 24.5995 32.0268 24.5448L32.0566 24.5101C32.0566 24.5101 32.0714 24.3164 32.0615 24.2519C32.0516 24.2618 32.0516 24.2618 32.0417 24.2618L32.0566 24.237L32.0665 24.2419C32.0665 24.2171 32.0615 24.2072 32.0615 24.1923C32.0764 24.1724 32.0863 24.1625 32.1012 24.1575C32.1559 24.1575 32.1658 24.3561 32.1112 24.5597V24.5548V24.5647V24.5597V24.5697L32.1012 24.5945C32.0913 24.6193 32.0863 24.6342 32.0615 24.659H32.0566C32.0516 24.6491 32.0516 24.6292 32.0516 24.5647C31.9523 24.8527 31.8381 24.8974 31.7735 24.8974ZM28.9084 24.8229L28.8935 24.8179C28.8835 24.7286 28.9183 24.6541 28.9282 24.6292C28.9183 24.6342 28.8984 24.6392 28.8786 24.6392C28.8339 24.6392 28.7842 24.6094 28.8041 24.4505C28.8239 24.2817 28.819 24.2717 28.7793 24.2171C28.6948 24.3015 28.5955 24.808 28.5955 24.813C28.5707 24.803 28.5459 24.7981 28.521 24.7981C28.4962 24.7981 28.4664 24.803 28.4317 24.8179C28.4664 24.6292 28.4217 24.4356 28.4764 24.2519C28.531 24.0681 28.67 23.9291 28.7296 23.7503C28.7594 23.656 28.7793 23.5567 28.819 23.4623C28.8239 23.4474 28.8339 23.4276 28.8488 23.4077C28.8736 23.373 28.9133 23.3481 28.963 23.3382C29.1467 23.2935 29.3354 23.2786 29.5241 23.2438C29.544 23.2389 29.5738 23.2339 29.5936 23.2289C29.5936 23.2538 29.5986 23.2836 29.5936 23.3084C29.5787 23.3531 29.5787 23.3531 29.4546 23.4971L29.4794 23.4673C29.4347 23.512 29.4149 23.5269 29.3553 23.5269C29.3304 23.5269 29.3006 23.5269 29.256 23.5219C29.1964 23.512 29.1417 23.507 29.0971 23.507C29.0176 23.507 28.9531 23.5219 28.8686 23.5865C28.7395 23.6759 28.7147 23.7255 28.7743 23.7553C28.8239 23.7752 28.8686 23.7801 28.9183 23.7801C28.958 23.7801 29.0027 23.7752 29.0474 23.7702C29.0921 23.7652 29.1318 23.7603 29.1765 23.7603C29.2013 23.7603 29.2212 23.7603 29.246 23.7652C29.1268 23.795 29.0573 24.0433 28.9729 24.0433C28.9531 24.0433 28.9332 24.0334 28.9133 24.0085C28.9183 24.1972 29.0027 24.376 28.9729 24.5697C28.9977 24.5448 29.0176 24.5349 29.0474 24.5299C29.0474 24.5995 28.9828 24.7881 28.9084 24.8229ZM28.0245 24.4902C28.0841 24.4108 28.0642 24.3959 28.0344 24.3959C28.0195 24.3959 27.9997 24.4058 27.9997 24.4058C27.955 24.4257 27.8854 24.4505 27.8308 24.4505C27.7762 24.4505 27.7414 24.4257 27.7613 24.3313C27.7365 24.3462 27.6868 24.3561 27.6372 24.3561C27.5478 24.3561 27.4485 24.3313 27.4038 24.2817C27.8408 23.656 28.2281 22.9856 28.5508 22.2855C28.5707 22.2805 28.5806 22.2805 28.5856 22.2805C28.6005 22.2805 28.6055 22.2855 28.6154 22.2905C28.6104 22.3053 28.6104 22.3053 28.5806 22.3202C28.6154 22.3053 28.6799 22.2756 28.7197 22.2756C28.8239 22.2805 28.6353 22.494 28.6154 22.5189H28.6104C28.6204 22.5338 28.6253 22.5536 28.6303 22.5685C28.6303 22.6082 28.6104 22.6579 28.5707 22.6579C28.5558 22.6579 28.5409 22.6529 28.521 22.638C28.5359 22.6877 28.5409 22.7125 28.5409 22.7225L28.531 22.7274L28.521 22.7175C28.5409 22.7969 28.4813 22.8069 28.4466 22.8069C28.4416 22.8069 28.4366 22.8069 28.4317 22.8069C28.4962 22.9111 28.4962 22.9111 28.4962 22.9161C28.4764 22.9111 28.4764 22.9111 28.4515 22.8913C28.6502 23.1793 28.6551 23.3283 28.6303 23.4027C28.6204 23.4226 28.6104 23.4474 28.5806 23.4474C28.5608 23.4474 28.5359 23.4325 28.5012 23.3928C28.5061 23.4673 28.5111 23.507 28.4664 23.6113C28.4019 23.7553 28.2728 23.8546 28.2082 23.9986C28.1536 24.1128 28.1685 24.2519 28.1089 24.3661C28.089 24.4058 28.0543 24.4555 28.0245 24.4902ZM29.5638 24.4306C29.5489 24.4306 29.539 24.4257 29.5291 24.4207C29.4844 24.3959 29.4943 24.3412 29.4943 24.3214C29.4943 24.3114 29.4993 24.2767 29.544 24.2668C29.5489 24.2668 29.5489 24.2668 29.5539 24.2668C29.6035 24.2668 29.6532 24.3015 29.6582 24.3462V24.371C29.6433 24.4058 29.6035 24.4306 29.5638 24.4306ZM29.9958 24.4257C29.9462 24.4257 29.8816 24.4108 29.8171 24.376L29.8121 24.381H29.8071L29.8171 24.376L29.7823 24.3512C29.6979 24.2767 29.7972 24.2419 29.8667 24.237H29.8717C29.9064 24.237 30.0356 24.2419 30.1001 24.3512C30.0951 24.3363 30.0802 24.3214 30.0802 24.3065C30.0852 24.3114 30.12 24.3462 30.0951 24.3859C30.0753 24.4157 30.0405 24.4257 29.9958 24.4257ZM29.9213 23.8C29.9064 23.8 29.8866 23.7801 29.8717 23.7007C29.8618 23.651 29.8518 23.4375 29.8568 23.4127L29.8667 23.4226C29.8866 23.224 29.9313 23.1644 29.971 23.1346L29.9859 23.1247C29.966 23.1445 29.966 23.1445 29.9561 23.1992C29.9462 23.2587 29.9561 23.3233 29.9462 23.3829C29.9561 23.373 29.966 23.3581 29.976 23.3432C29.971 23.3233 30.0256 23.2587 30.0604 23.2587H30.0653C30.0107 23.4176 30.0107 23.4623 30.0306 23.5567C30.0157 23.5567 29.8717 23.5616 29.9263 23.795L29.9213 23.8ZM29.6681 22.3302C29.6284 22.2656 29.544 22.2408 29.5191 22.1663C29.4943 22.0869 29.5489 22.0124 29.5489 21.9329C29.5489 21.9031 29.534 21.8932 29.5142 21.8932C29.4943 21.8932 29.4744 21.9031 29.4546 21.9081C29.4298 21.9131 29.4049 21.918 29.3851 21.918C29.3602 21.918 29.3404 21.9131 29.3255 21.8932C29.3205 21.9131 29.3056 21.9478 29.2411 22.0273C29.2758 21.9677 29.2659 21.8982 29.2857 21.8287C29.3056 21.7641 29.3751 21.7343 29.4347 21.7343C29.4645 21.7343 29.4943 21.7442 29.5042 21.7641L29.4943 21.784C29.688 21.5704 29.688 21.5704 29.7128 21.4811L29.5936 21.2675C29.5489 21.1881 29.5489 21.1881 29.5489 21.1881H29.5589C29.534 21.0987 29.5291 21.0491 29.5539 20.9845L29.5638 20.9994C29.5539 20.9696 29.5589 20.9597 29.5688 20.9497C29.5837 20.9795 29.5837 20.9795 29.5837 21.0093H29.5688C29.5787 21.0242 29.5886 21.0292 29.5986 21.0292C29.6085 21.0292 29.6184 21.0242 29.6333 21.0143C29.5092 20.8405 29.5092 20.8405 29.5241 20.766L29.534 20.761C29.5191 20.7362 29.4744 20.6468 29.4248 20.5922C29.395 20.5624 29.3751 20.5475 29.3602 20.5475C29.3304 20.5475 29.3255 20.5922 29.3255 20.6121C29.3354 20.617 29.3702 20.6468 29.3851 20.7164C29.3155 20.6667 29.2808 20.5773 29.2013 20.5426C29.2162 20.5028 29.2262 20.4631 29.2361 20.4234C29.246 20.4234 29.256 20.4234 29.2609 20.4234C29.3155 20.4234 29.39 20.4482 29.4 20.5376C29.4099 20.5028 29.4099 20.5028 29.4298 20.4879C29.4645 20.4929 29.4645 20.4929 29.544 20.761C29.5688 20.761 29.5936 20.7561 29.6085 20.7561C29.6582 20.7561 29.6731 20.7759 29.7029 20.8554C29.7327 20.9249 29.7674 21.0739 29.6929 21.0739C29.683 21.0739 29.6731 21.0689 29.6582 21.0639C29.6731 21.3271 29.6731 21.3271 29.7277 21.3668L29.7178 21.3271C29.7277 21.2973 29.7426 21.2675 29.7525 21.2377C29.7624 21.3817 29.7624 21.3817 29.7426 21.3917V21.3966C29.9064 21.6002 29.8469 22.0819 29.8419 22.0869C29.8369 22.1216 29.827 22.1713 29.8171 22.206C29.7922 22.1862 29.7922 22.1812 29.7823 22.0521C29.7575 22.1514 29.6681 22.2209 29.6681 22.3302ZM29.2212 22.0521L29.2411 22.0273V22.0322L29.2212 22.0521ZM29.3006 21.5059C29.246 21.5059 29.3205 21.1583 29.3851 21.1086C29.4 21.1086 29.4446 21.1186 29.4347 21.2328C29.4298 21.2725 29.4149 21.3569 29.4149 21.3569C29.39 21.4115 29.3304 21.5059 29.3006 21.5059ZM29.2113 21.2477C29.1964 21.2477 29.1815 21.2427 29.1765 21.2278C29.1566 21.1831 29.1765 21.054 29.1864 20.9746C29.1964 20.9249 29.1964 20.915 29.1964 20.9001C29.2013 20.91 29.2063 20.915 29.2113 20.915C29.2113 20.915 29.2113 20.915 29.2113 20.91C29.2262 20.9348 29.246 20.9597 29.3205 21.0441C29.3503 21.0838 29.3652 21.0987 29.3602 21.1235C29.3602 21.1434 29.3453 21.1633 29.3255 21.1831C29.3255 21.1831 29.256 21.2477 29.2113 21.2477ZM29.5042 20.9547C29.4844 20.905 29.4595 20.8802 29.4298 20.8802C29.4099 20.8802 29.39 20.8951 29.3652 20.9199V20.9001C29.3702 20.8753 29.3702 20.8753 29.3702 20.8753L29.3801 20.8852C29.4149 20.8107 29.4298 20.766 29.4298 20.7313V20.7213C29.4744 20.761 29.5191 20.8405 29.5142 20.915C29.5092 20.9299 29.5042 20.9448 29.5042 20.9547ZM29.1864 20.5922C29.1914 20.5823 29.1914 20.5773 29.1964 20.5674C29.1964 20.5823 29.1914 20.5873 29.1864 20.5922ZM29.6979 16.0785C29.6731 15.6763 29.6284 15.284 29.5688 14.8967C29.6532 15.0456 29.7426 15.2194 29.8469 15.4181C29.827 15.3833 29.827 15.3833 29.827 15.3684C29.827 15.3734 30.0405 15.6713 30.0405 15.8352L30.0306 15.8451C29.9611 15.8054 29.971 15.711 29.9213 15.6614L29.9114 15.6763C29.9164 15.7011 29.9313 15.7259 29.9362 15.7508C29.9213 15.7359 29.9164 15.7359 29.9064 15.7359H29.9015C29.9015 15.7806 29.9362 15.8203 29.9213 15.865C29.8965 15.86 29.8419 15.8153 29.8717 15.7806L29.8469 15.7657C29.8369 15.7806 29.827 15.7905 29.8618 15.8749C29.8419 15.8699 29.832 15.865 29.8121 15.865C29.8071 15.865 29.8022 15.865 29.7922 15.8699H29.7823C29.7426 15.865 29.7376 15.865 29.7128 15.855C29.7128 15.8799 29.7277 15.9444 29.7128 16.0338V16.0388C29.7078 16.0537 29.7029 16.0686 29.6979 16.0785ZM29.4347 14.1916C29.4347 14.1866 29.4347 14.1816 29.4347 14.1767C29.4347 14.1767 29.4347 14.1767 29.4397 14.1816C29.4397 14.1816 29.4397 14.1866 29.4347 14.1916ZM29.3602 13.7397C29.3255 13.6702 29.3304 13.6652 29.3304 13.6652V13.6702C29.3304 13.6503 29.3304 13.6354 29.3453 13.6305H29.3553L29.3602 13.6354C29.395 13.7099 29.3751 13.7298 29.3602 13.7397ZM29.3652 13.5311C29.3602 13.5311 29.3404 13.5113 29.3304 13.5013L29.3404 13.5063C29.3354 13.4865 29.3354 13.4716 29.3404 13.4616C29.3602 13.4964 29.3702 13.5212 29.3702 13.5311C29.3652 13.5311 29.3652 13.5311 29.3652 13.5311ZM29.3006 13.3623L29.2808 13.3375L29.3056 13.3573L29.3006 13.3623ZM29.2609 13.3027C29.256 13.3027 29.246 13.2978 29.246 13.2878V13.2829L29.2659 13.2978V13.3027H29.2609ZM29.1964 13.1885C29.1815 13.1587 29.1765 13.1488 29.1815 13.1488H29.1864L29.1964 13.1637V13.1885ZM29.1566 13.0942L29.1467 13.0842C29.1417 13.0743 29.1368 13.0644 29.1368 13.0544C29.1417 13.0644 29.1517 13.0743 29.1517 13.0793L29.1566 13.0942Z" fill="#727271"/>
<path d="M20.6008 17.166C19.8014 16.4509 18.7785 15.9792 17.7158 15.8501C18.4905 16.5453 19.1509 17.3795 19.6574 18.2932C20.0745 19.0529 20.3873 19.8673 20.576 20.7114C20.581 20.7362 20.5859 20.7611 20.5959 20.7859L20.6008 20.771L20.6058 20.7859C20.6108 20.7611 20.6157 20.7362 20.6207 20.7114C20.8094 19.8673 21.1222 19.0529 21.5443 18.2932C22.0508 17.3795 22.7062 16.5453 23.4858 15.8501C22.4232 15.9792 21.4003 16.4509 20.6008 17.166Z" fill="#064E6E"/>
<path d="M21.2563 15.5771C21.2563 15.9395 20.9633 16.2325 20.6009 16.2325C20.2334 16.2325 19.9404 15.9395 19.9404 15.5771C19.9404 15.2096 20.2334 14.9166 20.6009 14.9166C20.9633 14.9166 21.2563 15.2096 21.2563 15.5771Z" fill="#064E6E"/>
<path d="M17.1 18.3131C17.1 18.7848 16.7127 19.1722 16.241 19.1722C15.7643 19.1722 15.377 18.7848 15.377 18.3131C15.377 17.8364 15.7643 17.4491 16.241 17.4491C16.7127 17.4491 17.1 17.8364 17.1 18.3131Z" fill="#064E6E"/>
<path d="M19.9701 22.0572C19.9552 21.8387 19.9354 21.6153 19.9006 21.3968C19.7814 20.5328 19.5133 19.6886 18.982 19.0034C18.6145 18.5167 18.1279 18.1294 17.6512 17.752V17.7471C17.9342 18.5912 18.0584 19.49 18.0037 20.3739C16.9361 19.917 14.8307 19.3162 13.6787 19.1722C16.7425 21.2627 18.4258 23.7256 19.3494 26.3922C19.414 26.2035 19.4736 26.0198 19.5331 25.8311C19.9056 24.6145 20.0545 23.3284 19.9701 22.0572Z" fill="#064E6E"/>
<path d="M24.0967 18.3131C24.0967 18.7848 24.484 19.1722 24.9607 19.1722C25.4324 19.1722 25.8197 18.7848 25.8197 18.3131C25.8197 17.8364 25.4324 17.4491 24.9607 17.4491C24.484 17.4491 24.0967 17.8364 24.0967 18.3131Z" fill="#064E6E"/>
<path d="M21.2263 22.0572C21.2412 21.8387 21.2661 21.6153 21.2959 21.3968C21.42 20.5328 21.6881 19.6886 22.2145 19.0034C22.5869 18.5167 23.0686 18.1294 23.5502 17.752V17.7471C23.2622 18.5912 23.1431 19.49 23.1977 20.3739C24.2653 19.917 26.3657 19.3162 27.5178 19.1722C24.4589 21.2627 22.7756 23.7256 21.847 26.3922C21.7875 26.2035 21.7229 26.0198 21.6633 25.8311C21.2959 24.6145 21.1469 23.3284 21.2263 22.0572Z" fill="#064E6E"/>
<path d="M4.43764 48.0471H2.71457V48.9458H3.5041V49.6609C3.32534 49.7602 3.01251 49.8744 2.59043 49.8744C1.76118 49.8744 1.21993 49.2785 1.21993 48.4592C1.21993 47.6349 1.76118 47.039 2.59043 47.039C3.08203 47.039 3.39983 47.183 3.65804 47.4562L4.34329 46.7113C3.90135 46.2992 3.28562 46.1452 2.59043 46.1452C1.21496 46.1452 0.211914 47.044 0.211914 48.4592C0.211914 49.8694 1.21496 50.7732 2.59043 50.7732C3.23596 50.7732 3.86659 50.649 4.43764 50.3511V48.0471ZM5.17254 50.659H6.10608V49.3977C6.10608 48.7919 6.19049 48.3847 6.90057 48.3847C7.03961 48.3847 7.16871 48.4095 7.29782 48.4443V47.5952C7.2134 47.5704 7.09423 47.5604 6.98995 47.5604C6.57781 47.5604 6.31463 47.7541 6.11601 48.1215H6.10608V47.6349H5.17254V50.659ZM9.60186 50.659H10.4609V49.1246C10.4609 48.1166 10.1679 47.5604 9.08047 47.5604C8.58887 47.5604 8.08735 47.7243 7.74969 48.0471L8.24625 48.5585C8.44487 48.3351 8.69812 48.196 9.00598 48.196C9.32875 48.196 9.60186 48.4095 9.60186 48.7373C8.82226 48.7373 7.55603 48.7571 7.55603 49.7999C7.55603 50.4107 8.06252 50.7334 8.63356 50.7334C9.01095 50.7334 9.38337 50.6043 9.58696 50.2816H9.60186V50.659ZM9.60186 49.3331V49.5367C9.60186 49.9092 9.25923 50.1028 8.89178 50.1028C8.68819 50.1028 8.44984 49.9936 8.44984 49.7701C8.44984 49.358 9.08543 49.3331 9.37344 49.3331H9.60186ZM11.0468 50.659H11.9804V49.1544C11.9804 48.7621 12.0549 48.3847 12.5365 48.3847C12.9685 48.3847 12.9536 48.8366 12.9536 49.06V50.659H13.8872V49.06C13.8872 48.6876 14.0262 48.3847 14.4532 48.3847C14.7611 48.3847 14.8654 48.6181 14.8654 48.9011V50.659H15.7989V48.8763C15.7989 48.1414 15.5506 47.5604 14.7263 47.5604C14.2794 47.5604 13.9865 47.7193 13.768 48.1017C13.6091 47.7342 13.2615 47.5604 12.8394 47.5604C12.3826 47.5604 12.0797 47.8087 11.9555 48.0471H11.9407V47.6349H11.0468V50.659ZM16.4693 50.659H17.4028V47.6349H16.4693V50.659ZM16.3948 46.6865C16.3948 46.9844 16.6381 47.2277 16.936 47.2277C17.234 47.2277 17.4773 46.9844 17.4773 46.6865C17.4773 46.3885 17.234 46.1452 16.936 46.1452C16.6381 46.1452 16.3948 46.3885 16.3948 46.6865ZM18.0781 50.659H19.0117V49.1544C19.0117 48.7621 19.0861 48.3847 19.5678 48.3847C20.0495 48.3847 20.0544 48.8316 20.0544 49.1792V50.659H20.988V48.9955C20.988 48.1861 20.8142 47.5604 19.8657 47.5604C19.4139 47.5604 19.111 47.8087 18.9868 48.0471H18.9719V47.6349H18.0781V50.659ZM26.4501 46.6021C26.0777 46.2743 25.596 46.1452 25.0995 46.1452C24.2355 46.1452 23.4211 46.6368 23.4211 47.5753C23.4211 49.0451 25.4868 48.6082 25.4868 49.4176C25.4868 49.7254 25.1293 49.8744 24.8164 49.8744C24.4887 49.8744 24.1659 49.7205 23.9673 49.4623L23.2771 50.217C23.6942 50.6043 24.1908 50.7732 24.7569 50.7732C25.6656 50.7732 26.4551 50.3064 26.4551 49.3232C26.4551 47.7789 24.4291 48.2953 24.4291 47.4959C24.4291 47.1632 24.8065 47.039 25.0796 47.039C25.318 47.039 25.6308 47.1334 25.7847 47.332L26.4501 46.6021ZM27.0609 45.9565V50.659H27.9944V49.1544C27.9944 48.7621 28.0689 48.3847 28.5555 48.3847C29.0322 48.3847 29.0372 48.8316 29.0372 49.1792V50.659H29.9707V48.9955C29.9707 48.1861 29.7969 47.5604 28.8535 47.5604C28.3966 47.5604 28.0937 47.8087 28.0044 48.0471H27.9944V45.9565H27.0609ZM32.528 50.659H33.3871V49.1246C33.3871 48.1166 33.0941 47.5604 32.0066 47.5604C31.515 47.5604 31.0185 47.7243 30.6758 48.0471L31.1724 48.5585C31.371 48.3351 31.6292 48.196 31.9321 48.196C32.2549 48.196 32.528 48.4095 32.528 48.7373C31.7534 48.7373 30.4822 48.7571 30.4822 49.7999C30.4822 50.4107 30.9936 50.7334 31.5597 50.7334C31.9371 50.7334 32.3095 50.6043 32.5181 50.2816H32.528V50.659ZM32.528 49.3331V49.5367C32.528 49.9092 32.1854 50.1028 31.8179 50.1028C31.6143 50.1028 31.381 49.9936 31.381 49.7701C31.381 49.358 32.0116 49.3331 32.2996 49.3331H32.528ZM33.973 50.659H34.9065V49.1296H34.9165L35.9394 50.659H37.1162L35.8848 49.0005L37.0864 47.6349H35.9394L34.9065 48.8316V45.9565H33.973V50.659ZM39.4898 47.6349H38.6705V46.7411H37.7369V47.6349H37.141V48.3847H37.7369V49.8198C37.7369 50.4802 38.2186 50.7334 38.8393 50.7334C39.0578 50.7334 39.2862 50.7185 39.4898 50.6441V49.8645C39.4103 49.939 39.2117 49.9489 39.1124 49.9489C38.7102 49.9489 38.6705 49.7155 38.6705 49.3927V48.3847H39.4898V47.6349ZM39.9764 50.659H40.9099V47.6349H39.9764V50.659ZM39.9019 46.6865C39.9019 46.9844 40.1452 47.2277 40.4432 47.2277C40.7411 47.2277 40.9844 46.9844 40.9844 46.6865C40.9844 46.3885 40.7411 46.1452 40.4432 46.1452C40.1452 46.1452 39.9019 46.3885 39.9019 46.6865Z" fill="white"/>
<path d="M1.70674 53.2411C1.55777 53.0474 1.30453 52.9779 1.1059 52.9779C0.544791 52.9779 0.142578 53.3454 0.142578 53.9164C0.142578 54.4875 0.544791 54.8549 1.1059 54.8549C1.34922 54.8549 1.60246 54.7556 1.75143 54.5471L1.4237 54.2988C1.34425 54.4229 1.21515 54.4924 1.05625 54.4924C0.768243 54.4924 0.549757 54.2491 0.549757 53.9164C0.549757 53.5837 0.768243 53.3404 1.06618 53.3404C1.21515 53.3404 1.32439 53.395 1.40384 53.4894L1.70674 53.2411ZM1.96992 54.1945C1.96992 54.5868 2.27282 54.84 2.6502 54.84C3.02759 54.84 3.33049 54.5868 3.33049 54.1945C3.33049 53.8072 3.02759 53.5539 2.6502 53.5539C2.27282 53.5539 1.96992 53.8072 1.96992 54.1945ZM2.3473 54.1945C2.3473 54.0108 2.46151 53.8866 2.6502 53.8866C2.8389 53.8866 2.95311 54.0108 2.95311 54.1945C2.95311 54.3832 2.8389 54.5073 2.6502 54.5073C2.46151 54.5073 2.3473 54.3832 2.3473 54.1945ZM3.65325 54.8102H4.03064V54.1995C4.03064 54.0406 4.06043 53.8866 4.25906 53.8866C4.45271 53.8866 4.45768 54.0704 4.45768 54.2094V54.8102H4.83507V54.1349C4.83507 53.8072 4.76555 53.5539 4.37823 53.5539C4.1945 53.5539 4.07036 53.6532 4.02071 53.7526H4.01574V53.5837H3.65325V54.8102ZM5.20252 54.8102H5.57991V54.1995C5.57991 54.0406 5.6097 53.8866 5.80336 53.8866C6.00198 53.8866 6.00198 54.0704 6.00198 54.2094V54.8102H6.37937V54.1349C6.37937 53.8072 6.30985 53.5539 5.9275 53.5539C5.74377 53.5539 5.61963 53.6532 5.56997 53.7526H5.56501V53.5837H5.20252V54.8102ZM7.64063 54.4031C7.58104 54.4875 7.49662 54.552 7.37249 54.552C7.22848 54.552 7.11924 54.4577 7.08945 54.3137H7.96339V54.1945C7.96339 53.8072 7.7449 53.5539 7.39235 53.5539C7.01 53.5539 6.7071 53.8072 6.7071 54.1945C6.7071 54.5868 7.01 54.84 7.39235 54.84C7.58601 54.84 7.78463 54.7506 7.90877 54.5967L7.64063 54.4031ZM7.08945 54.0555C7.09938 53.9413 7.18876 53.827 7.35759 53.827C7.49166 53.827 7.59097 53.9313 7.58601 54.0555H7.08945ZM9.37362 53.7178C9.25445 53.5986 9.08065 53.5539 8.93665 53.5539C8.55926 53.5539 8.25636 53.8072 8.25636 54.1945C8.25636 54.5868 8.55926 54.84 8.93665 54.84C9.08065 54.84 9.25445 54.7953 9.37362 54.6762L9.12534 54.413C9.08065 54.4626 9.02106 54.5073 8.93665 54.5073C8.74796 54.5073 8.63375 54.3832 8.63375 54.1945C8.63375 54.0108 8.74796 53.8866 8.93665 53.8866C9.0161 53.8866 9.08562 53.9264 9.12534 53.981L9.37362 53.7178ZM10.4462 53.5837H10.1085V53.2212H9.73114V53.5837H9.48783V53.8866H9.73114V54.4676C9.73114 54.7357 9.9248 54.84 10.178 54.84C10.2674 54.84 10.3618 54.8351 10.4462 54.8003V54.4875C10.4114 54.5173 10.332 54.5222 10.2923 54.5222C10.1234 54.5222 10.1085 54.4279 10.1085 54.2938V53.8866H10.4462V53.5837ZM12.3877 54.8102H13.649V54.4477H12.785V54.0803H13.5596V53.7178H12.785V53.3851H13.6043V53.0226H12.3877V54.8102ZM14.0165 54.8102H14.3938V54.1995C14.3938 54.0406 14.4236 53.8866 14.6223 53.8866C14.7961 53.8866 14.7911 54.0704 14.7911 54.1597V54.8102H15.1685V54.1597C15.1685 54.0108 15.2231 53.8866 15.3969 53.8866C15.521 53.8866 15.5657 53.981 15.5657 54.0952V54.8102H15.9431V54.0853C15.9431 53.7873 15.8438 53.5539 15.5061 53.5539C15.3274 53.5539 15.2082 53.6185 15.1188 53.7724C15.0543 53.6235 14.9152 53.5539 14.7414 53.5539C14.5577 53.5539 14.4336 53.6532 14.3839 53.7526H14.3789V53.5837H14.0165V54.8102ZM16.3453 55.3862H16.7227V54.6811H16.7277C16.8121 54.7953 16.9611 54.84 17.115 54.84C17.4626 54.84 17.6761 54.5272 17.6761 54.1846C17.6761 53.8171 17.4377 53.5539 17.0753 53.5539C16.9015 53.5539 16.7525 53.6582 16.6979 53.7426H16.6929V53.5837H16.3453V55.3862ZM16.6929 54.1945C16.6929 54.0108 16.8071 53.8866 16.9958 53.8866C17.1845 53.8866 17.2987 54.0108 17.2987 54.1945C17.2987 54.3832 17.1845 54.5073 16.9958 54.5073C16.8071 54.5073 16.6929 54.3832 16.6929 54.1945ZM17.9492 54.1945C17.9492 54.5868 18.2521 54.84 18.6345 54.84C19.0118 54.84 19.3147 54.5868 19.3147 54.1945C19.3147 53.8072 19.0118 53.5539 18.6345 53.5539C18.2521 53.5539 17.9492 53.8072 17.9492 54.1945ZM18.3316 54.1945C18.3316 54.0108 18.4408 53.8866 18.6345 53.8866C18.8231 53.8866 18.9374 54.0108 18.9374 54.1945C18.9374 54.3832 18.8231 54.5073 18.6345 54.5073C18.4408 54.5073 18.3316 54.3832 18.3316 54.1945ZM19.9354 54.8102H20.3178L20.5462 53.9959H20.5512L20.8044 54.8102H21.1768L21.6138 53.5837H21.2315L21.003 54.3534H20.9981L20.7697 53.5837H20.3575L20.144 54.3534H20.139L19.8908 53.5837H19.4885L19.9354 54.8102ZM22.7311 54.4031C22.6665 54.4875 22.5821 54.552 22.458 54.552C22.314 54.552 22.2047 54.4577 22.1749 54.3137H23.0538V54.1945C23.0538 53.8072 22.8304 53.5539 22.4778 53.5539C22.1004 53.5539 21.7975 53.8072 21.7975 54.1945C21.7975 54.5868 22.1004 54.84 22.4778 54.84C22.6765 54.84 22.8751 54.7506 22.9942 54.5967L22.7311 54.4031ZM22.1749 54.0555C22.1849 53.9413 22.2742 53.827 22.4431 53.827C22.5771 53.827 22.6765 53.9313 22.6765 54.0555H22.1749ZM23.3816 54.8102H23.7589V54.2988C23.7589 54.0505 23.7937 53.8866 24.0817 53.8866C24.1363 53.8866 24.191 53.8966 24.2456 53.9115V53.5639C24.2108 53.5539 24.1612 53.5539 24.1165 53.5539C23.9526 53.5539 23.8434 53.6334 23.7639 53.7824H23.7589V53.5837H23.3816V54.8102ZM26.0233 54.8102H26.3709V54.1846C26.3709 53.7774 26.2517 53.5539 25.8097 53.5539C25.6111 53.5539 25.4125 53.6185 25.2735 53.7526L25.4721 53.9561C25.5515 53.8668 25.6558 53.8121 25.7799 53.8121C25.914 53.8121 26.0233 53.8966 26.0233 54.0306C25.7055 54.0306 25.194 54.0356 25.194 54.4626C25.194 54.7109 25.3976 54.84 25.631 54.84C25.7849 54.84 25.9339 54.7854 26.0183 54.6563H26.0233V54.8102ZM26.0233 54.2739V54.3534C26.0233 54.5024 25.8842 54.5818 25.7353 54.5818C25.6508 54.5818 25.5565 54.5421 25.5565 54.4477C25.5565 54.2839 25.8147 54.2739 25.9289 54.2739H26.0233ZM26.7085 54.8102H27.0859V54.1995C27.0859 54.0406 27.1157 53.8866 27.3143 53.8866C27.508 53.8866 27.508 54.0704 27.508 54.2094V54.8102H27.8903V54.1349C27.8903 53.8072 27.8158 53.5539 27.4335 53.5539C27.2498 53.5539 27.1256 53.6532 27.076 53.7526H27.071V53.5837H26.7085V54.8102ZM29.5389 52.9034H29.1615V53.7128H29.1566C29.0721 53.5986 28.9232 53.5539 28.7692 53.5539C28.4216 53.5539 28.2081 53.8668 28.2081 54.2044C28.2081 54.5768 28.4465 54.84 28.8139 54.84C28.9828 54.84 29.1317 54.7357 29.1863 54.6464H29.1913V54.8102H29.5389V52.9034ZM29.1913 54.1945C29.1913 54.3832 29.0771 54.5073 28.8884 54.5073C28.6997 54.5073 28.5855 54.3832 28.5855 54.1945C28.5855 54.0108 28.6997 53.8866 28.8884 53.8866C29.0771 53.8866 29.1913 54.0108 29.1913 54.1945ZM30.7356 54.8102H31.3811C31.9125 54.8102 32.3842 54.4974 32.3842 53.9214C32.3842 53.2659 31.9025 53.0226 31.3265 53.0226H30.7356V54.8102ZM31.1329 53.3851H31.3613C31.694 53.3851 31.977 53.549 31.977 53.9015C31.977 54.3087 31.6989 54.4477 31.3364 54.4477H31.1329V53.3851ZM33.6008 54.4031C33.5362 54.4875 33.4518 54.552 33.3277 54.552C33.1837 54.552 33.0744 54.4577 33.0446 54.3137H33.9235V54.1945C33.9235 53.8072 33.7001 53.5539 33.3475 53.5539C32.9701 53.5539 32.6672 53.8072 32.6672 54.1945C32.6672 54.5868 32.9701 54.84 33.3475 54.84C33.5412 54.84 33.7448 54.7506 33.8639 54.5967L33.6008 54.4031ZM33.0446 54.0555C33.0545 53.9413 33.1439 53.827 33.3128 53.827C33.4468 53.827 33.5461 53.9313 33.5412 54.0555H33.0446ZM34.6286 54.8102H35.0309L35.5125 53.5837H35.1351L34.8471 54.4179H34.8422L34.5293 53.5837H34.1221L34.6286 54.8102ZM36.6447 54.4031C36.5851 54.4875 36.5007 54.552 36.3765 54.552C36.2325 54.552 36.1233 54.4577 36.0935 54.3137H36.9674V54.1945C36.9674 53.8072 36.7489 53.5539 36.3964 53.5539C36.014 53.5539 35.7111 53.8072 35.7111 54.1945C35.7111 54.5868 36.014 54.84 36.3964 54.84C36.59 54.84 36.7887 54.7506 36.9128 54.5967L36.6447 54.4031ZM36.0935 54.0555C36.1034 53.9413 36.1928 53.827 36.3616 53.827C36.4957 53.827 36.595 53.9313 36.59 54.0555H36.0935ZM37.3051 54.8102H37.6825V52.9034H37.3051V54.8102ZM38.0052 54.1945C38.0052 54.5868 38.3081 54.84 38.6905 54.84C39.0679 54.84 39.3708 54.5868 39.3708 54.1945C39.3708 53.8072 39.0679 53.5539 38.6905 53.5539C38.3081 53.5539 38.0052 53.8072 38.0052 54.1945ZM38.3876 54.1945C38.3876 54.0108 38.4968 53.8866 38.6905 53.8866C38.8792 53.8866 38.9934 54.0108 38.9934 54.1945C38.9934 54.3832 38.8792 54.5073 38.6905 54.5073C38.4968 54.5073 38.3876 54.3832 38.3876 54.1945ZM39.7233 55.3862H40.1057V54.6811H40.1107C40.1951 54.7953 40.3391 54.84 40.498 54.84C40.8456 54.84 41.0591 54.5272 41.0591 54.1846C41.0591 53.8171 40.8158 53.5539 40.4533 53.5539C40.2845 53.5539 40.1355 53.6582 40.0809 53.7426H40.0759V53.5837H39.7233V55.3862ZM40.0759 54.1945C40.0759 54.0108 40.1851 53.8866 40.3788 53.8866C40.5675 53.8866 40.6817 54.0108 40.6817 54.1945C40.6817 54.3832 40.5675 54.5073 40.3788 54.5073C40.1851 54.5073 40.0759 54.3832 40.0759 54.1945ZM10.6448 55.1131H10.9676L11.191 54.4031H10.8285L10.6448 55.1131Z" fill="white"/>
</svg>
