<svg width="150" height="150" viewBox="0 0 150 150" fill="none" xmlns="http://www.w3.org/2000/svg">
<g filter="url(#filter0_d_2129_6162)">
<path d="M122.739 30.8999C115.275 13.8809 97.3589 7.47295 83.2229 18.8999C77.7029 23.3579 74.2589 30.4529 67.4999 33.2999C61.1579 35.9699 53.1239 35.1839 46.2659 36.6299C31.6619 39.6899 11.9999 51.2999 13.4999 69.1889C14.1569 77.0249 19.4429 85.7279 22.0559 93.0599C25.0559 101.496 26.8559 112.05 34.7969 117.093C48.4109 125.751 64.8329 118.674 77.0969 111.693C83.6969 107.94 87.3299 105.633 94.4369 106.92C101.016 108.12 106.941 112.32 113.37 107.337C118.197 103.596 118.596 96.0149 122.649 91.5629C127.215 86.5469 131.844 86.1839 134.217 78.6449C137.094 69.4979 132.855 63.7829 129.99 55.6109C127.125 47.4389 126.255 38.9069 122.739 30.8999Z" fill="#92E3A9"/>
<g opacity="0.7">
<path d="M122.739 30.8999C115.275 13.8809 97.3589 7.47295 83.2229 18.8999C77.7029 23.3579 74.2589 30.4529 67.4999 33.2999C61.1579 35.9699 53.1239 35.1839 46.2659 36.6299C31.6619 39.6899 11.9999 51.2999 13.4999 69.1889C14.1569 77.0249 19.4429 85.7279 22.0559 93.0599C25.0559 101.496 26.8559 112.05 34.7969 117.093C48.4109 125.751 64.8329 118.674 77.0969 111.693C83.6969 107.94 87.3299 105.633 94.4369 106.92C101.016 108.12 106.941 112.32 113.37 107.337C118.197 103.596 118.596 96.0149 122.649 91.5629C127.215 86.5469 131.844 86.1839 134.217 78.6449C137.094 69.4979 132.855 63.7829 129.99 55.6109C127.125 47.4389 126.255 38.9069 122.739 30.8999Z" fill="white"/>
</g>
<path d="M65.9428 131.304C91.5545 131.304 112.317 130.011 112.317 128.415C112.317 126.82 91.5545 125.526 65.9428 125.526C40.3312 125.526 19.5688 126.82 19.5688 128.415C19.5688 130.011 40.3312 131.304 65.9428 131.304Z" fill="#92E3A9"/>
<path opacity="0.8" d="M65.9428 131.304C91.5545 131.304 112.317 130.011 112.317 128.415C112.317 126.82 91.5545 125.526 65.9428 125.526C40.3312 125.526 19.5688 126.82 19.5688 128.415C19.5688 130.011 40.3312 131.304 65.9428 131.304Z" fill="white"/>
<path d="M100.791 18.5581H54.162C50.9427 18.5581 48.333 21.1678 48.333 24.3871V122.829C48.333 126.048 50.9427 128.658 54.162 128.658H100.791C104.01 128.658 106.62 126.048 106.62 122.829V24.3871C106.62 21.1678 104.01 18.5581 100.791 18.5581Z" fill="#263238"/>
<path d="M104.028 30.6482H50.9219V116.568H104.028V30.6482Z" fill="white" stroke="#263238" stroke-width="1.33739" stroke-miterlimit="10"/>
<path d="M85.6158 65.4395C90.1111 60.9442 90.1111 53.6559 85.6158 49.1605C81.1205 44.6652 73.8321 44.6652 69.3368 49.1605C64.8414 53.6559 64.8414 60.9442 69.3368 65.4396C73.8321 69.9349 81.1205 69.9349 85.6158 65.4395Z" fill="#92E3A9"/>
<path d="M92.5892 111.165H62.3672C62.2991 111.166 62.2317 111.152 62.1688 111.127C62.1058 111.101 62.0486 111.063 62.0003 111.015C61.9521 110.967 61.9138 110.91 61.8877 110.847C61.8616 110.784 61.8482 110.717 61.8482 110.649C61.8478 110.581 61.8609 110.513 61.8868 110.45C61.9128 110.387 61.951 110.33 61.9993 110.281C62.0475 110.233 62.1049 110.195 62.1681 110.169C62.2312 110.143 62.2989 110.13 62.3672 110.13H92.5892C92.6572 110.13 92.7245 110.144 92.7873 110.17C92.8501 110.196 92.9071 110.234 92.9551 110.282C93.003 110.331 93.041 110.388 93.0667 110.451C93.0925 110.514 93.1056 110.581 93.1052 110.649C93.1052 110.786 93.0508 110.917 92.954 111.014C92.8573 111.111 92.726 111.165 92.5892 111.165Z" fill="#92E3A9"/>
<path d="M93.5728 75.2822H61.3798C60.7154 75.2822 60.1768 75.8208 60.1768 76.4852V80.2802C60.1768 80.9446 60.7154 81.4832 61.3798 81.4832H93.5728C94.2372 81.4832 94.7758 80.9446 94.7758 80.2802V76.4852C94.7758 75.8208 94.2372 75.2822 93.5728 75.2822Z" fill="#92E3A9"/>
<path d="M93.5728 86.8801H61.3798C60.7154 86.8801 60.1768 87.4187 60.1768 88.0831V91.8781C60.1768 92.5425 60.7154 93.0811 61.3798 93.0811H93.5728C94.2372 93.0811 94.7758 92.5425 94.7758 91.8781V88.0831C94.7758 87.4187 94.2372 86.8801 93.5728 86.8801Z" fill="#92E3A9"/>
<path d="M83.2079 63.0421L79.8209 61.0921V59.4811C80.3113 58.8878 80.6665 58.1947 80.8619 57.4501C80.9784 57.4915 81.1012 57.5128 81.2249 57.5131C81.6449 57.5131 81.9119 56.2111 81.9569 55.2811C82.4459 54.2461 81.7799 53.6401 81.7799 53.6401C81.7799 53.6401 82.0559 53.3641 82.2389 52.2571C82.4219 51.1501 81.5939 51.6121 80.9489 50.5981C80.3039 49.5841 79.8419 48.4801 77.7239 48.4801C77.1403 48.4609 76.5644 48.6177 76.0711 48.9302C75.5778 49.2426 75.1899 49.6963 74.9579 50.2321C74.4306 50.234 73.9053 50.2954 73.3919 50.4151C72.7439 50.5981 72.5609 52.7191 73.1129 53.5501C73.36 54.0042 73.4918 54.5121 73.4969 55.0291C73.3499 54.8491 73.1969 54.8011 73.1129 55.2091C72.9299 56.1301 73.6679 57.4201 73.6679 57.4201L74.0489 57.3121C74.2408 58.1078 74.6111 58.8495 75.1319 59.4811V61.0921L71.7449 63.0421C71.3493 63.2705 71.0208 63.5988 70.7923 63.9943C70.5637 64.3897 70.4432 64.8383 70.4429 65.2951V66.4111C72.4573 67.9672 74.9309 68.8114 77.4764 68.8114C80.0219 68.8114 82.4955 67.9672 84.5099 66.4111V65.2951C84.5101 64.8382 84.3899 64.3894 84.1613 63.9938C83.9327 63.5983 83.6038 63.27 83.2079 63.0421Z" fill="#263238"/>
<path d="M64.5599 91.5391C64.4823 91.538 64.4081 91.5068 64.3529 91.4521C64.3234 91.4257 64.2999 91.3933 64.2838 91.3571C64.2678 91.3209 64.2597 91.2817 64.2599 91.2421C64.2609 91.188 64.2764 91.1351 64.3049 91.0891L64.8449 90.2251L63.7919 90.2581C63.7523 90.2606 63.7125 90.2546 63.6753 90.2407C63.6381 90.2267 63.6042 90.2051 63.5759 90.1771C63.527 90.1221 63.5 90.0511 63.5 89.9776C63.5 89.904 63.527 89.833 63.5759 89.7781C63.6036 89.7491 63.6373 89.7265 63.6746 89.712C63.7119 89.6975 63.752 89.6914 63.7919 89.6941L64.8299 89.7331L64.296 88.8721C64.2669 88.8252 64.2513 88.7712 64.2509 88.7161C64.2507 88.6765 64.2588 88.6373 64.2748 88.6011C64.2909 88.5649 64.3144 88.5325 64.3439 88.5061C64.3991 88.4514 64.4733 88.4202 64.5509 88.4191C64.6021 88.4194 64.652 88.4343 64.6951 88.4619C64.7381 88.4895 64.7724 88.5287 64.7939 88.5751L65.3069 89.5021L65.8139 88.5811C65.838 88.5319 65.875 88.4903 65.921 88.4607C65.967 88.4311 66.0203 88.4146 66.0749 88.4131C66.1129 88.4133 66.1503 88.4214 66.1849 88.4369C66.2195 88.4524 66.2505 88.475 66.2759 88.5031C66.331 88.5602 66.3612 88.6368 66.3599 88.7161C66.3598 88.7676 66.3464 88.8182 66.321 88.8631L65.7779 89.7331L66.8309 89.6941C66.8709 89.6914 66.911 89.6975 66.9483 89.712C66.9856 89.7265 67.0193 89.7491 67.0469 89.7781C67.0981 89.8312 67.1261 89.9024 67.1249 89.9761C67.1248 90.0504 67.097 90.1221 67.0469 90.1771C67.0187 90.2051 66.9848 90.2267 66.9476 90.2407C66.9104 90.2546 66.8706 90.2606 66.8309 90.2581L65.7719 90.2251L66.2999 91.0801C66.3295 91.1278 66.3451 91.1829 66.3449 91.2391C66.3449 91.3187 66.3133 91.395 66.2571 91.4512C66.2008 91.5075 66.1245 91.5391 66.0449 91.5391C65.9935 91.5384 65.9434 91.5227 65.9008 91.4939C65.8581 91.4651 65.8248 91.4245 65.8049 91.3771L65.3039 90.4771L64.8059 91.3771C64.7839 91.4241 64.7492 91.4642 64.7058 91.4928C64.6624 91.5213 64.6119 91.5374 64.5599 91.5391Z" fill="#263238"/>
<path d="M69.4262 91.5391C69.3485 91.538 69.2743 91.5068 69.2192 91.4521C69.1897 91.4257 69.1661 91.3933 69.1501 91.3571C69.134 91.3209 69.1259 91.2817 69.1262 91.2421C69.1271 91.188 69.1427 91.1351 69.1712 91.0891L69.7112 90.2251L68.6612 90.2581C68.6211 90.2599 68.5811 90.2537 68.5435 90.2398C68.5059 90.2259 68.4714 90.2045 68.4422 90.1771C68.4024 90.136 68.3758 90.0839 68.366 90.0275C68.3562 89.9712 68.3636 89.9131 68.3873 89.861C68.4109 89.8089 68.4496 89.7651 68.4985 89.7354C68.5474 89.7056 68.604 89.6912 68.6612 89.6941L69.6962 89.7331L69.1622 88.8721C69.1331 88.8252 69.1176 88.7712 69.1172 88.7161C69.1169 88.6765 69.125 88.6373 69.1411 88.6011C69.1571 88.5649 69.1807 88.5325 69.2102 88.5061C69.2653 88.4514 69.3395 88.4202 69.4172 88.4191C69.4683 88.4194 69.5183 88.4343 69.5613 88.4619C69.6043 88.4895 69.6386 88.5288 69.6602 88.5751L70.1732 89.5021L70.6802 88.5811C70.7042 88.5319 70.7413 88.4903 70.7873 88.4607C70.8333 88.4311 70.8865 88.4146 70.9412 88.4131C70.9792 88.4129 71.0167 88.4209 71.0514 88.4364C71.0861 88.4519 71.117 88.4747 71.1422 88.5031C71.17 88.5311 71.192 88.5644 71.2069 88.6009C71.2218 88.6375 71.2294 88.6766 71.2292 88.7161C71.2281 88.7679 71.2136 88.8185 71.1872 88.8631L70.6442 89.7331L71.7002 89.7001C71.7397 89.6974 71.7793 89.7036 71.8161 89.7181C71.853 89.7326 71.8861 89.7552 71.9132 89.7841C71.9643 89.8372 71.9924 89.9084 71.9912 89.9821C71.991 90.0564 71.9632 90.1281 71.9132 90.1831C71.8855 90.211 71.8522 90.2326 71.8154 90.2466C71.7787 90.2606 71.7394 90.2665 71.7002 90.2641L70.6382 90.2311L71.1662 91.0861C71.1958 91.1338 71.2114 91.1889 71.2112 91.2451C71.2112 91.3247 71.1796 91.401 71.1233 91.4572C71.067 91.5135 70.9907 91.5451 70.9112 91.5451C70.8597 91.5444 70.8096 91.5287 70.767 91.4999C70.7243 91.4711 70.6911 91.4305 70.6712 91.3831L70.1702 90.4831L69.6722 91.3831C69.6493 91.429 69.6142 91.4678 69.5709 91.4953C69.5275 91.5228 69.4775 91.5379 69.4262 91.5391Z" fill="#263238"/>
<path d="M74.2948 91.5391C74.2161 91.5388 74.1407 91.5075 74.0848 91.4521C74.0553 91.4257 74.0318 91.3933 74.0157 91.3571C73.9997 91.3209 73.9915 91.2817 73.9918 91.2421C73.9928 91.188 74.0083 91.1351 74.0368 91.0891L74.5768 90.2251L73.5268 90.2581C73.4703 90.2603 73.4144 90.2457 73.3662 90.2161C73.318 90.1864 73.2797 90.1431 73.2562 90.0916C73.2327 90.0401 73.2251 89.9828 73.2343 89.927C73.2435 89.8711 73.2691 89.8193 73.3078 89.7781C73.3362 89.7492 73.3704 89.7267 73.4082 89.7122C73.446 89.6977 73.4864 89.6916 73.5268 89.6941L74.5618 89.7331L74.0278 88.8721C73.9988 88.8252 73.9832 88.7712 73.9828 88.7161C73.9838 88.6767 73.9925 88.6379 74.0084 88.6018C74.0244 88.5658 74.0473 88.5333 74.0758 88.5061C74.1317 88.4507 74.2071 88.4194 74.2858 88.4191C74.3364 88.42 74.3858 88.4351 74.4282 88.4627C74.4706 88.4903 74.5045 88.5292 74.5258 88.5751L75.0388 89.5021L75.5458 88.5811C75.5699 88.5319 75.6069 88.4903 75.6529 88.4607C75.6989 88.4311 75.7521 88.4146 75.8068 88.4131C75.8448 88.4129 75.8824 88.4209 75.917 88.4364C75.9517 88.4519 75.9827 88.4747 76.0078 88.5031C76.0356 88.5311 76.0576 88.5644 76.0726 88.6009C76.0875 88.6375 76.0951 88.6766 76.0948 88.7161C76.0938 88.7679 76.0793 88.8185 76.0528 88.8631L75.5098 89.7331L76.5658 89.6941C76.6047 89.6902 76.6439 89.6947 76.6808 89.7072C76.7178 89.7198 76.7516 89.7401 76.78 89.7668C76.8084 89.7935 76.8308 89.826 76.8456 89.8621C76.8604 89.8982 76.8673 89.9371 76.8658 89.9761C76.8665 90.05 76.8398 90.1216 76.7908 90.1771C76.7626 90.2051 76.7287 90.2267 76.6915 90.2407C76.6543 90.2547 76.6145 90.2606 76.5748 90.2581L75.5158 90.2251L76.0408 91.0801C76.0704 91.1278 76.086 91.1829 76.0858 91.2391C76.0849 91.2785 76.0762 91.3173 76.0602 91.3533C76.0443 91.3894 76.0214 91.4219 75.9928 91.4491C75.9667 91.4772 75.9352 91.4996 75.9001 91.5151C75.865 91.5306 75.8272 91.5387 75.7888 91.5391C75.7378 91.5382 75.6882 91.5224 75.6461 91.4936C75.6039 91.4648 75.5712 91.4243 75.5518 91.3771L75.0478 90.4771L74.5498 91.3771C74.5274 91.4257 74.4914 91.4669 74.4462 91.4956C74.4009 91.5243 74.3484 91.5394 74.2948 91.5391Z" fill="#263238"/>
<path d="M79.1611 91.5391C79.0824 91.5388 79.007 91.5075 78.9511 91.4521C78.8946 91.3967 78.8622 91.3212 78.8611 91.2421C78.8602 91.1881 78.8747 91.135 78.9031 91.0891L79.4431 90.2251L78.3931 90.2581C78.353 90.2599 78.313 90.2537 78.2754 90.2398C78.2378 90.2259 78.2033 90.2045 78.1741 90.1771C78.1252 90.1222 78.0981 90.0511 78.0981 89.9776C78.0981 89.904 78.1252 89.833 78.1741 89.7781C78.2031 89.7501 78.2374 89.7282 78.275 89.7138C78.3127 89.6994 78.3528 89.6927 78.3931 89.6941L79.4311 89.7331L78.9001 88.8721C78.871 88.8252 78.8555 88.7712 78.8551 88.7161C78.856 88.6767 78.8647 88.6379 78.8807 88.6018C78.8967 88.5658 78.9196 88.5333 78.9481 88.5061C79.004 88.4507 79.0794 88.4194 79.1581 88.4191C79.2092 88.4194 79.2592 88.4343 79.3022 88.4619C79.3452 88.4895 79.3795 88.5288 79.4011 88.5751L79.9111 89.5021L80.4181 88.5811C80.4421 88.5319 80.4792 88.4903 80.5252 88.4607C80.5712 88.4311 80.6244 88.4146 80.6791 88.4131C80.7171 88.4129 80.7546 88.4209 80.7893 88.4364C80.824 88.4519 80.8549 88.4747 80.8801 88.5031C80.9079 88.5311 80.9299 88.5644 80.9448 88.6009C80.9598 88.6375 80.9673 88.6766 80.9671 88.7161C80.966 88.7679 80.9516 88.8185 80.9251 88.8631L80.3821 89.7331L81.4381 89.6941C81.4769 89.6902 81.5161 89.6947 81.5531 89.7072C81.59 89.7198 81.6238 89.7401 81.6523 89.7668C81.6807 89.7935 81.7031 89.826 81.7179 89.8621C81.7327 89.8982 81.7396 89.9371 81.7381 89.9761C81.7387 90.05 81.712 90.1216 81.6631 90.1771C81.6348 90.2051 81.601 90.2267 81.5638 90.2407C81.5265 90.2547 81.4868 90.2606 81.4471 90.2581L80.3881 90.2251L80.9131 91.0801C80.9427 91.1278 80.9583 91.1829 80.9581 91.2391C80.9584 91.2787 80.9502 91.3179 80.9342 91.3541C80.9182 91.3903 80.8946 91.4227 80.8651 91.4491C80.839 91.4772 80.8074 91.4996 80.7724 91.5151C80.7373 91.5306 80.6994 91.5387 80.6611 91.5391C80.6101 91.5382 80.5604 91.5224 80.5183 91.4936C80.4762 91.4648 80.4434 91.4243 80.4241 91.3771L79.9201 90.4771L79.4221 91.3771C79.3992 91.4267 79.3623 91.4684 79.3159 91.4972C79.2695 91.526 79.2157 91.5406 79.1611 91.5391Z" fill="#263238"/>
<path d="M84.0268 91.5391C83.9481 91.5388 83.8727 91.5075 83.8168 91.4521C83.7703 91.405 83.7407 91.3439 83.7326 91.2782C83.7245 91.2126 83.7382 91.1461 83.7718 91.0891L84.3088 90.2251L83.2588 90.2581C83.2187 90.2599 83.1787 90.2537 83.1411 90.2398C83.1035 90.2259 83.069 90.2045 83.0398 90.1771C82.9909 90.1222 82.9639 90.0512 82.9639 89.9776C82.9639 89.904 82.9909 89.833 83.0398 89.7781C83.0688 89.7501 83.1031 89.7282 83.1408 89.7138C83.1784 89.6994 83.2185 89.6927 83.2588 89.6941L84.2968 89.7331L83.7628 88.8721C83.7338 88.8252 83.7182 88.7712 83.7178 88.7161C83.7189 88.637 83.7513 88.5615 83.8078 88.5061C83.8637 88.4507 83.9391 88.4194 84.0178 88.4191C84.0689 88.4194 84.1189 88.4343 84.1619 88.4619C84.2049 88.4895 84.2392 88.5288 84.2608 88.5751L84.7708 89.5021L85.2778 88.5811C85.3019 88.5319 85.3389 88.4903 85.3849 88.4607C85.4309 88.4311 85.4841 88.4146 85.5388 88.4131C85.5772 88.4129 85.6153 88.4208 85.6504 88.4363C85.6856 88.4518 85.7171 88.4746 85.7428 88.5031C85.7979 88.5602 85.8281 88.6368 85.8268 88.7161C85.8257 88.7679 85.8113 88.8185 85.7848 88.8631L85.2418 89.7331L86.2978 89.6941C86.3366 89.6902 86.3758 89.6947 86.4128 89.7072C86.4497 89.7198 86.4836 89.7401 86.512 89.7668C86.5404 89.7935 86.5628 89.826 86.5776 89.8621C86.5924 89.8982 86.5993 89.9371 86.5978 89.9761C86.5984 90.0501 86.5717 90.1216 86.5228 90.1771C86.4946 90.2051 86.4607 90.2267 86.4235 90.2407C86.3862 90.2547 86.3465 90.2606 86.3068 90.2581L85.2478 90.2251L85.7728 91.0801C85.8024 91.1278 85.818 91.1829 85.8178 91.2391C85.8181 91.2787 85.81 91.3179 85.7939 91.3541C85.7779 91.3903 85.7543 91.4227 85.7248 91.4491C85.6987 91.4772 85.6672 91.4996 85.6321 91.5151C85.597 91.5306 85.5592 91.5387 85.5208 91.5391C85.4698 91.5382 85.4202 91.5224 85.378 91.4936C85.3359 91.4648 85.3032 91.4243 85.2838 91.3771L84.7798 90.4771L84.2818 91.3771C84.2593 91.4257 84.2234 91.4669 84.1781 91.4956C84.1329 91.5243 84.0804 91.5394 84.0268 91.5391Z" fill="#263238"/>
<path d="M88.8932 91.5391C88.8156 91.538 88.7414 91.5068 88.6862 91.4521C88.6567 91.4257 88.6331 91.3933 88.6171 91.3571C88.6011 91.3209 88.5929 91.2817 88.5932 91.2421C88.5941 91.188 88.6097 91.1351 88.6382 91.0891L89.1752 90.2251L88.1252 90.2581C88.0866 90.261 88.0478 90.2559 88.0113 90.243C87.9748 90.2301 87.9413 90.2097 87.9131 90.1832C87.8849 90.1566 87.8625 90.1245 87.8474 90.0889C87.8322 90.0532 87.8247 90.0148 87.8252 89.9761C87.825 89.9394 87.8321 89.903 87.846 89.869C87.8599 89.835 87.8804 89.8041 87.9062 89.7781C87.9339 89.7491 87.9675 89.7265 88.0049 89.712C88.0422 89.6975 88.0823 89.6914 88.1222 89.6941L89.1602 89.7331L88.6262 88.8721C88.5972 88.8252 88.5816 88.7712 88.5812 88.7161C88.5823 88.637 88.6147 88.5615 88.6712 88.5061C88.7271 88.4507 88.8025 88.4194 88.8812 88.4191C88.9323 88.4194 88.9823 88.4343 89.0253 88.4619C89.0683 88.4895 89.1026 88.5288 89.1242 88.5751L89.6342 89.5021L90.1442 88.5811C90.168 88.5324 90.2046 88.4911 90.25 88.4615C90.2955 88.4319 90.348 88.4152 90.4022 88.4131C90.4406 88.4129 90.4787 88.4208 90.5138 88.4363C90.549 88.4518 90.5805 88.4746 90.6062 88.5031C90.6613 88.5602 90.6915 88.6368 90.6902 88.7161C90.6901 88.7676 90.6766 88.8183 90.6512 88.8631L90.1082 89.7331L91.1612 89.6941C91.2012 89.6914 91.2413 89.6975 91.2786 89.712C91.3159 89.7265 91.3496 89.7491 91.3772 89.7781C91.4284 89.8312 91.4564 89.9024 91.4552 89.9761C91.455 90.0504 91.4272 90.1221 91.3772 90.1771C91.349 90.2051 91.3151 90.2267 91.2779 90.2407C91.2407 90.2547 91.2009 90.2606 91.1612 90.2581L90.1022 90.2251L90.6272 91.0801C90.6568 91.1278 90.6724 91.1829 90.6722 91.2391C90.6711 91.3182 90.6387 91.3937 90.5822 91.4491C90.5276 91.5049 90.4533 91.5372 90.3752 91.5391C90.3242 91.5382 90.2746 91.5224 90.2324 91.4936C90.1903 91.4648 90.1576 91.4243 90.1382 91.3771L89.6342 90.4771L89.1362 91.3771C89.1146 91.4239 89.0805 91.4638 89.0376 91.4924C88.9947 91.521 88.9447 91.5372 88.8932 91.5391Z" fill="#263238"/>
<g style="mix-blend-mode:multiply">
<path d="M104.028 30.7622H50.9219V34.0892H104.028V30.7622Z" fill="#92E3A9"/>
</g>
<path d="M83.2501 24.633H71.7001C71.4916 24.633 71.2917 24.5502 71.1443 24.4028C70.9969 24.2554 70.9141 24.0555 70.9141 23.847C70.9141 23.6386 70.9969 23.4387 71.1443 23.2912C71.2917 23.1438 71.4916 23.061 71.7001 23.061H83.2501C83.4585 23.061 83.6584 23.1438 83.8059 23.2912C83.9533 23.4387 84.0361 23.6386 84.0361 23.847C84.0361 24.0555 83.9533 24.2554 83.8059 24.4028C83.6584 24.5502 83.4585 24.633 83.2501 24.633Z" fill="#92E3A9" stroke="#263238" stroke-width="1.33739" stroke-linecap="round" stroke-linejoin="round"/>
<path d="M80.6252 121.422C80.6258 120.799 80.4415 120.189 80.0956 119.671C79.7497 119.152 79.2577 118.748 78.682 118.509C78.1063 118.271 77.4727 118.208 76.8614 118.329C76.2501 118.451 75.6885 118.751 75.2478 119.192C74.8071 119.632 74.507 120.194 74.3856 120.805C74.2641 121.417 74.3268 122.05 74.5655 122.626C74.8043 123.202 75.2085 123.694 75.727 124.039C76.2455 124.385 76.8549 124.57 77.4782 124.569C78.3126 124.568 79.1126 124.236 79.7026 123.646C80.2926 123.056 80.6244 122.256 80.6252 121.422Z" fill="#92E3A9"/>
<path d="M79.0738 119.826H75.8818V123.018H79.0738V119.826Z" fill="#92E3A9" stroke="#263238" stroke-width="1.33739" stroke-linecap="round" stroke-linejoin="round"/>
<path d="M115.5 85.2C115.5 85.2 111.318 74.574 115.041 73.311C118.917 71.994 118.746 79.011 118.596 82.431C118.281 89.739 117.474 91.098 116.871 89.313L115.5 85.2ZM114.243 93.489C115.392 94.989 115.716 93.435 113.643 86.418C112.671 83.118 110.559 76.443 107.319 78.948C104.208 81.348 111.612 90.048 111.612 90.048L114.243 93.489ZM112.023 99.579C113.118 100.551 113.139 99.324 110.538 94.257C109.317 91.884 106.734 87.081 104.619 89.457C102.588 91.749 109.509 97.32 109.509 97.32L112.023 99.579ZM109.623 106.821C110.718 107.796 110.739 106.566 108.138 101.502C106.917 99.129 104.334 94.323 102.219 96.702C100.2 99 107.1 104.571 107.1 104.571L109.623 106.821ZM116.553 92.079C114.801 92.763 116.193 93.507 123.51 93.486C126.942 93.486 133.95 93.33 132.456 89.517C131.025 85.854 120.603 90.519 120.603 90.519L116.553 92.079ZM114.558 96.951C112.704 97.272 113.922 98.28 121.098 99.714C124.461 100.389 131.358 101.634 130.653 97.614C129.978 93.738 118.836 96.24 118.836 96.24L114.558 96.951ZM112.326 102.9C110.748 103.128 111.756 104.007 117.789 105.387C120.618 106.035 126.423 107.25 125.919 103.821C125.439 100.521 115.959 102.387 115.959 102.387L112.326 102.9ZM110.631 108.411C109.086 108.804 110.181 109.572 116.331 110.304C119.211 110.646 125.112 111.24 124.251 107.883C123.42 104.661 114.192 107.514 114.192 107.514L110.631 108.411ZM119.673 86.1C118.773 88.116 120.642 87.81 126.996 82.266C129.972 79.665 135.942 74.223 131.214 71.514C126.675 68.91 121.794 81.474 121.794 81.474L119.673 86.1ZM110.865 115.59C109.914 116.145 110.847 116.361 115.209 115.491C117.255 115.086 121.416 114.186 120.009 112.41C118.647 110.7 113.067 114.3 113.067 114.3L110.865 115.59Z" fill="#92E3A9"/>
<path opacity="0.3" d="M115.5 85.2C115.5 85.2 111.318 74.574 115.041 73.311C118.917 71.994 118.746 79.011 118.596 82.431C118.281 89.739 117.474 91.098 116.871 89.313L115.5 85.2ZM114.243 93.489C115.392 94.989 115.716 93.435 113.643 86.418C112.671 83.118 110.559 76.443 107.319 78.948C104.208 81.348 111.612 90.048 111.612 90.048L114.243 93.489ZM112.023 99.579C113.118 100.551 113.139 99.324 110.538 94.257C109.317 91.884 106.734 87.081 104.619 89.457C102.588 91.749 109.509 97.32 109.509 97.32L112.023 99.579ZM109.623 106.821C110.718 107.796 110.739 106.566 108.138 101.502C106.917 99.129 104.334 94.323 102.219 96.702C100.2 99 107.1 104.571 107.1 104.571L109.623 106.821ZM116.553 92.079C114.801 92.763 116.193 93.507 123.51 93.486C126.942 93.486 133.95 93.33 132.456 89.517C131.025 85.854 120.603 90.519 120.603 90.519L116.553 92.079ZM114.558 96.951C112.704 97.272 113.922 98.28 121.098 99.714C124.461 100.389 131.358 101.634 130.653 97.614C129.978 93.738 118.836 96.24 118.836 96.24L114.558 96.951ZM112.326 102.9C110.748 103.128 111.756 104.007 117.789 105.387C120.618 106.035 126.423 107.25 125.919 103.821C125.439 100.521 115.959 102.387 115.959 102.387L112.326 102.9ZM110.631 108.411C109.086 108.804 110.181 109.572 116.331 110.304C119.211 110.646 125.112 111.24 124.251 107.883C123.42 104.661 114.192 107.514 114.192 107.514L110.631 108.411ZM119.673 86.1C118.773 88.116 120.642 87.81 126.996 82.266C129.972 79.665 135.942 74.223 131.214 71.514C126.675 68.91 121.794 81.474 121.794 81.474L119.673 86.1ZM110.865 115.59C109.914 116.145 110.847 116.361 115.209 115.491C117.255 115.086 121.416 114.186 120.009 112.41C118.647 110.7 113.067 114.3 113.067 114.3L110.865 115.59Z" fill="white"/>
<path d="M117.345 90.1469L116.616 78.0179L117.345 90.1469ZM115.038 94.1489L110.43 83.7179L115.038 94.1489ZM126.93 91.1159L115.887 92.6999L126.93 91.1159ZM112.65 99.7709L106.671 92.0999L112.65 99.7709ZM113.7 97.4189L121.938 97.8329L113.7 97.4189ZM111.75 103.302L118.05 103.926L111.75 103.302ZM110.229 107.04L107.1 102.333L110.229 107.04ZM109.869 108.702L117.276 108.771L109.869 108.702ZM108.369 122.598C108.419 122.594 108.465 122.571 108.497 122.533C108.53 122.496 108.546 122.447 108.543 122.397C108.072 115.323 110.808 103.737 115.197 94.2269C118.002 88.1489 128.997 76.2029 129.114 76.0829C129.149 76.0475 129.169 75.9995 129.169 75.9494C129.169 75.8994 129.149 75.8514 129.114 75.8159C129.097 75.7985 129.076 75.7847 129.054 75.7753C129.031 75.7658 129.007 75.761 128.982 75.761C128.958 75.761 128.933 75.7658 128.911 75.7753C128.888 75.7847 128.867 75.7985 128.85 75.8159C128.739 75.9359 117.699 87.9269 114.87 94.0589C110.4 103.8 107.7 115.176 108.18 122.421C108.184 122.469 108.205 122.513 108.24 122.546C108.275 122.579 108.321 122.597 108.369 122.598ZM117.342 90.3329C117.392 90.3298 117.438 90.3073 117.471 90.2703C117.504 90.2332 117.522 90.1846 117.519 90.1349L116.802 77.9999C116.801 77.9752 116.795 77.951 116.784 77.9287C116.774 77.9063 116.759 77.8864 116.74 77.8699C116.722 77.8534 116.7 77.8408 116.677 77.8327C116.654 77.8246 116.629 77.8213 116.604 77.8229C116.555 77.826 116.508 77.8486 116.475 77.8856C116.442 77.9227 116.425 77.9713 116.427 78.0209L117.156 90.1499C117.158 90.1977 117.179 90.2427 117.214 90.2757C117.248 90.3086 117.294 90.327 117.342 90.3269V90.3329ZM115.104 94.3199C115.149 94.2996 115.184 94.2625 115.202 94.2165C115.22 94.1705 115.219 94.1194 115.2 94.0739L110.589 83.6429C110.569 83.5976 110.532 83.562 110.486 83.544C110.44 83.526 110.388 83.5271 110.343 83.5469C110.298 83.5668 110.262 83.6039 110.244 83.6501C110.226 83.6962 110.227 83.7476 110.247 83.7929L114.855 94.2239C114.87 94.2574 114.893 94.286 114.924 94.3062C114.954 94.3264 114.99 94.3375 115.026 94.3379C115.057 94.3396 115.088 94.3334 115.116 94.3199H115.104ZM115.902 92.8799L126.939 91.3019C126.966 91.3014 126.992 91.2952 127.016 91.2838C127.04 91.2724 127.062 91.256 127.079 91.2357C127.096 91.2155 127.109 91.1918 127.117 91.1662C127.124 91.1406 127.126 91.1137 127.122 91.0873C127.119 91.0609 127.11 91.0356 127.096 91.0129C127.081 90.9903 127.063 90.9709 127.041 90.9561C127.018 90.9412 126.993 90.9312 126.967 90.9267C126.941 90.9222 126.914 90.9233 126.888 90.9299L115.851 92.5079C115.802 92.5111 115.756 92.5338 115.723 92.5709C115.69 92.608 115.674 92.6566 115.677 92.7059C115.68 92.7553 115.703 92.8013 115.74 92.834C115.777 92.8666 115.826 92.8831 115.875 92.8799H115.902ZM112.755 99.9209C112.794 99.8902 112.82 99.8452 112.826 99.7957C112.832 99.7463 112.819 99.6964 112.788 99.6569L106.806 91.9709C106.775 91.9312 106.73 91.9052 106.681 91.8987C106.631 91.8922 106.58 91.9058 106.541 91.9364C106.501 91.9671 106.475 92.0123 106.468 92.0621C106.462 92.1118 106.475 92.1622 106.506 92.2019L112.5 99.8999C112.518 99.9224 112.54 99.9405 112.565 99.953C112.591 99.9655 112.619 99.9719 112.647 99.9719C112.692 99.9697 112.734 99.9516 112.767 99.9209H112.755ZM122.103 97.8419C122.105 97.7923 122.087 97.744 122.053 97.7075C122.019 97.6711 121.973 97.6493 121.923 97.6469L113.7 97.2299C113.654 97.2331 113.61 97.2532 113.578 97.2863C113.546 97.3193 113.527 97.3632 113.524 97.4094C113.522 97.4557 113.537 97.5012 113.566 97.5372C113.595 97.5733 113.636 97.5974 113.682 97.6049L121.92 98.0219C121.97 98.0236 122.018 98.0056 122.055 97.9719C122.091 97.9382 122.113 97.8916 122.115 97.8419H122.103ZM118.224 103.944C118.227 103.919 118.225 103.894 118.218 103.87C118.211 103.847 118.199 103.824 118.184 103.805C118.168 103.786 118.149 103.77 118.127 103.758C118.105 103.746 118.081 103.739 118.056 103.737L111.756 103.116C111.732 103.113 111.707 103.116 111.683 103.123C111.66 103.13 111.638 103.142 111.619 103.157C111.6 103.173 111.584 103.192 111.573 103.214C111.561 103.236 111.554 103.259 111.552 103.284C111.548 103.333 111.563 103.382 111.595 103.42C111.626 103.458 111.671 103.483 111.72 103.488L118.02 104.112H118.038C118.087 104.115 118.134 104.1 118.171 104.068C118.208 104.037 118.232 103.992 118.236 103.944H118.224ZM110.319 107.196C110.361 107.168 110.39 107.125 110.4 107.077C110.41 107.028 110.4 106.977 110.373 106.935L107.259 102.228C107.231 102.187 107.188 102.159 107.139 102.15C107.09 102.14 107.04 102.15 106.998 102.177C106.956 102.204 106.927 102.247 106.917 102.296C106.907 102.345 106.917 102.396 106.944 102.438L110.058 107.145C110.076 107.171 110.1 107.192 110.127 107.206C110.155 107.221 110.186 107.229 110.217 107.229C110.258 107.231 110.298 107.22 110.331 107.196H110.319ZM117.465 108.771C117.464 108.722 117.445 108.674 117.41 108.639C117.375 108.604 117.328 108.583 117.279 108.582L109.872 108.513C109.823 108.513 109.775 108.533 109.741 108.567C109.706 108.602 109.686 108.65 109.686 108.699C109.685 108.724 109.69 108.748 109.699 108.772C109.708 108.795 109.721 108.816 109.739 108.833C109.756 108.851 109.777 108.865 109.8 108.874C109.823 108.884 109.847 108.888 109.872 108.888L117.279 108.957C117.304 108.958 117.33 108.954 117.354 108.945C117.377 108.937 117.399 108.923 117.418 108.906C117.436 108.889 117.451 108.868 117.461 108.844C117.471 108.821 117.477 108.796 117.477 108.771H117.465ZM107.526 119.847C107.541 119.814 108.804 116.334 112.602 115.503C112.651 115.492 112.694 115.462 112.721 115.42C112.748 115.378 112.757 115.327 112.746 115.278C112.734 115.23 112.704 115.189 112.662 115.162C112.62 115.136 112.57 115.127 112.521 115.137C108.516 116.013 107.187 119.688 107.172 119.724C107.157 119.771 107.16 119.823 107.182 119.868C107.204 119.912 107.242 119.947 107.289 119.964H107.349C107.389 119.967 107.429 119.958 107.463 119.937C107.497 119.916 107.523 119.884 107.538 119.847H107.526ZM108.369 122.598C108.419 122.594 108.465 122.571 108.497 122.533C108.53 122.496 108.546 122.447 108.543 122.397C108.072 115.323 110.808 103.737 115.197 94.2269C118.002 88.1489 128.997 76.2029 129.114 76.0829C129.149 76.0475 129.169 75.9995 129.169 75.9494C129.169 75.8994 129.149 75.8514 129.114 75.8159C129.097 75.7985 129.076 75.7847 129.054 75.7753C129.031 75.7658 129.007 75.761 128.982 75.761C128.958 75.761 128.933 75.7658 128.911 75.7753C128.888 75.7847 128.867 75.7985 128.85 75.8159C128.739 75.9359 117.699 87.9269 114.87 94.0589C110.4 103.8 107.7 115.176 108.18 122.421C108.184 122.469 108.205 122.513 108.24 122.546C108.275 122.579 108.321 122.597 108.369 122.598ZM117.342 90.3329C117.392 90.3298 117.438 90.3073 117.471 90.2703C117.504 90.2332 117.522 90.1846 117.519 90.1349L116.802 77.9999C116.801 77.9752 116.795 77.951 116.784 77.9287C116.774 77.9063 116.759 77.8864 116.74 77.8699C116.722 77.8534 116.7 77.8408 116.677 77.8327C116.654 77.8246 116.629 77.8213 116.604 77.8229C116.555 77.826 116.508 77.8486 116.475 77.8856C116.442 77.9227 116.425 77.9713 116.427 78.0209L117.156 90.1499C117.158 90.1977 117.179 90.2427 117.214 90.2757C117.248 90.3086 117.294 90.327 117.342 90.3269V90.3329ZM115.104 94.3199C115.149 94.2996 115.184 94.2625 115.202 94.2165C115.22 94.1705 115.219 94.1194 115.2 94.0739L110.589 83.6429C110.569 83.5976 110.532 83.562 110.486 83.544C110.44 83.526 110.388 83.5271 110.343 83.5469C110.298 83.5668 110.262 83.6039 110.244 83.6501C110.226 83.6962 110.227 83.7476 110.247 83.7929L114.855 94.2239C114.87 94.2574 114.893 94.286 114.924 94.3062C114.954 94.3264 114.99 94.3375 115.026 94.3379C115.057 94.3396 115.088 94.3334 115.116 94.3199H115.104ZM115.902 92.8799L126.939 91.3019C126.966 91.3014 126.992 91.2952 127.016 91.2838C127.04 91.2724 127.062 91.256 127.079 91.2357C127.096 91.2155 127.109 91.1918 127.117 91.1662C127.124 91.1406 127.126 91.1137 127.122 91.0873C127.119 91.0609 127.11 91.0356 127.096 91.0129C127.081 90.9903 127.063 90.9709 127.041 90.9561C127.018 90.9412 126.993 90.9312 126.967 90.9267C126.941 90.9222 126.914 90.9233 126.888 90.9299L115.851 92.5079C115.802 92.5111 115.756 92.5338 115.723 92.5709C115.69 92.608 115.674 92.6566 115.677 92.7059C115.68 92.7553 115.703 92.8013 115.74 92.834C115.777 92.8666 115.826 92.8831 115.875 92.8799H115.902ZM112.755 99.9209C112.794 99.8902 112.82 99.8452 112.826 99.7957C112.832 99.7463 112.819 99.6964 112.788 99.6569L106.806 91.9709C106.791 91.9513 106.772 91.9347 106.75 91.9223C106.729 91.9099 106.705 91.9019 106.681 91.8987C106.656 91.8955 106.631 91.8972 106.607 91.9037C106.583 91.9101 106.56 91.9213 106.541 91.9364C106.521 91.9516 106.504 91.9705 106.492 91.9921C106.48 92.0136 106.472 92.0374 106.468 92.0621C106.465 92.0867 106.467 92.1117 106.473 92.1358C106.48 92.1598 106.491 92.1822 106.506 92.2019L112.5 99.8999C112.518 99.9224 112.54 99.9405 112.565 99.953C112.591 99.9655 112.619 99.9719 112.647 99.9719C112.692 99.9697 112.734 99.9516 112.767 99.9209H112.755ZM122.103 97.8419C122.105 97.7923 122.087 97.744 122.053 97.7075C122.019 97.6711 121.973 97.6493 121.923 97.6469L113.7 97.2299C113.654 97.2331 113.61 97.2532 113.578 97.2863C113.546 97.3193 113.527 97.3632 113.524 97.4094C113.522 97.4557 113.537 97.5012 113.566 97.5372C113.595 97.5733 113.636 97.5974 113.682 97.6049L121.92 98.0219C121.97 98.0236 122.018 98.0056 122.055 97.9719C122.091 97.9382 122.113 97.8916 122.115 97.8419H122.103ZM118.224 103.944C118.227 103.919 118.225 103.894 118.218 103.87C118.211 103.847 118.199 103.824 118.184 103.805C118.168 103.786 118.149 103.77 118.127 103.758C118.105 103.746 118.081 103.739 118.056 103.737L111.756 103.116C111.732 103.113 111.707 103.116 111.683 103.123C111.66 103.13 111.638 103.142 111.619 103.157C111.6 103.173 111.584 103.192 111.573 103.214C111.561 103.236 111.554 103.259 111.552 103.284C111.548 103.333 111.563 103.382 111.595 103.42C111.626 103.458 111.671 103.483 111.72 103.488L118.02 104.112H118.038C118.087 104.115 118.134 104.1 118.171 104.068C118.208 104.037 118.232 103.992 118.236 103.944H118.224ZM110.319 107.196C110.361 107.168 110.39 107.125 110.4 107.077C110.41 107.028 110.4 106.977 110.373 106.935L107.259 102.228C107.231 102.187 107.188 102.159 107.139 102.15C107.09 102.14 107.04 102.15 106.998 102.177C106.956 102.204 106.927 102.247 106.917 102.296C106.907 102.345 106.917 102.396 106.944 102.438L110.058 107.145C110.076 107.171 110.1 107.192 110.127 107.206C110.155 107.221 110.186 107.229 110.217 107.229C110.258 107.231 110.298 107.22 110.331 107.196H110.319ZM117.465 108.771C117.464 108.722 117.445 108.674 117.41 108.639C117.375 108.604 117.328 108.583 117.279 108.582L109.872 108.513C109.823 108.513 109.775 108.533 109.741 108.567C109.706 108.602 109.686 108.65 109.686 108.699C109.685 108.724 109.69 108.748 109.699 108.772C109.708 108.795 109.721 108.816 109.739 108.833C109.756 108.851 109.777 108.865 109.8 108.874C109.823 108.884 109.847 108.888 109.872 108.888L117.279 108.957C117.304 108.958 117.33 108.954 117.354 108.945C117.377 108.937 117.399 108.923 117.418 108.906C117.436 108.889 117.451 108.868 117.461 108.844C117.471 108.821 117.477 108.796 117.477 108.771H117.465ZM107.526 119.847C107.541 119.814 108.804 116.334 112.602 115.503C112.651 115.492 112.694 115.462 112.721 115.42C112.748 115.378 112.757 115.327 112.746 115.278C112.734 115.23 112.704 115.189 112.662 115.162C112.62 115.136 112.57 115.127 112.521 115.137C108.516 116.013 107.187 119.688 107.172 119.724C107.157 119.771 107.16 119.823 107.182 119.868C107.204 119.912 107.242 119.947 107.289 119.964H107.349C107.389 119.967 107.429 119.958 107.463 119.937C107.497 119.916 107.523 119.884 107.538 119.847H107.526Z" fill="#92E3A9"/>
<path opacity="0.2" d="M117.345 90.1469L116.616 78.0179L117.345 90.1469ZM115.038 94.1489L110.43 83.7179L115.038 94.1489ZM126.93 91.1159L115.887 92.6999L126.93 91.1159ZM112.65 99.7709L106.671 92.0999L112.65 99.7709ZM113.7 97.4189L121.938 97.8329L113.7 97.4189ZM111.75 103.302L118.05 103.926L111.75 103.302ZM110.229 107.04L107.1 102.333L110.229 107.04ZM109.869 108.702L117.276 108.771L109.869 108.702ZM108.369 122.598C108.419 122.594 108.465 122.571 108.497 122.533C108.53 122.496 108.546 122.447 108.543 122.397C108.072 115.323 110.808 103.737 115.197 94.2269C118.002 88.1489 128.997 76.2029 129.114 76.0829C129.149 76.0475 129.169 75.9995 129.169 75.9494C129.169 75.8994 129.149 75.8514 129.114 75.8159C129.097 75.7985 129.076 75.7847 129.054 75.7753C129.031 75.7658 129.007 75.761 128.982 75.761C128.958 75.761 128.933 75.7658 128.911 75.7753C128.888 75.7847 128.867 75.7985 128.85 75.8159C128.739 75.9359 117.699 87.9269 114.87 94.0589C110.4 103.8 107.7 115.176 108.18 122.421C108.184 122.469 108.205 122.513 108.24 122.546C108.275 122.579 108.321 122.597 108.369 122.598ZM117.342 90.3329C117.392 90.3298 117.438 90.3073 117.471 90.2703C117.504 90.2332 117.522 90.1846 117.519 90.1349L116.802 77.9999C116.801 77.9752 116.795 77.951 116.784 77.9287C116.774 77.9063 116.759 77.8864 116.74 77.8699C116.722 77.8534 116.7 77.8408 116.677 77.8327C116.654 77.8246 116.629 77.8213 116.604 77.8229C116.555 77.826 116.508 77.8486 116.475 77.8856C116.442 77.9227 116.425 77.9713 116.427 78.0209L117.156 90.1499C117.158 90.1977 117.179 90.2427 117.214 90.2757C117.248 90.3086 117.294 90.327 117.342 90.3269V90.3329ZM115.104 94.3199C115.149 94.2996 115.184 94.2625 115.202 94.2165C115.22 94.1705 115.219 94.1194 115.2 94.0739L110.589 83.6429C110.569 83.5976 110.532 83.562 110.486 83.544C110.44 83.526 110.388 83.5271 110.343 83.5469C110.298 83.5668 110.262 83.6039 110.244 83.6501C110.226 83.6962 110.227 83.7476 110.247 83.7929L114.855 94.2239C114.87 94.2574 114.893 94.286 114.924 94.3062C114.954 94.3264 114.99 94.3375 115.026 94.3379C115.057 94.3396 115.088 94.3334 115.116 94.3199H115.104ZM115.902 92.8799L126.939 91.3019C126.966 91.3014 126.992 91.2952 127.016 91.2838C127.04 91.2724 127.062 91.256 127.079 91.2357C127.096 91.2155 127.109 91.1918 127.117 91.1662C127.124 91.1406 127.126 91.1137 127.122 91.0873C127.119 91.0609 127.11 91.0356 127.096 91.0129C127.081 90.9903 127.063 90.9709 127.041 90.9561C127.018 90.9412 126.993 90.9312 126.967 90.9267C126.941 90.9222 126.914 90.9233 126.888 90.9299L115.851 92.5079C115.802 92.5111 115.756 92.5338 115.723 92.5709C115.69 92.608 115.674 92.6566 115.677 92.7059C115.68 92.7553 115.703 92.8013 115.74 92.834C115.777 92.8666 115.826 92.8831 115.875 92.8799H115.902ZM112.755 99.9209C112.794 99.8902 112.82 99.8452 112.826 99.7957C112.832 99.7463 112.819 99.6964 112.788 99.6569L106.806 91.9709C106.775 91.9312 106.73 91.9052 106.681 91.8987C106.631 91.8922 106.58 91.9058 106.541 91.9364C106.501 91.9671 106.475 92.0123 106.468 92.0621C106.462 92.1118 106.475 92.1622 106.506 92.2019L112.5 99.8999C112.518 99.9224 112.54 99.9405 112.565 99.953C112.591 99.9655 112.619 99.9719 112.647 99.9719C112.692 99.9697 112.734 99.9516 112.767 99.9209H112.755ZM122.103 97.8419C122.105 97.7923 122.087 97.744 122.053 97.7075C122.019 97.6711 121.973 97.6493 121.923 97.6469L113.7 97.2299C113.654 97.2331 113.61 97.2532 113.578 97.2863C113.546 97.3193 113.527 97.3632 113.524 97.4094C113.522 97.4557 113.537 97.5012 113.566 97.5372C113.595 97.5733 113.636 97.5974 113.682 97.6049L121.92 98.0219C121.97 98.0236 122.018 98.0056 122.055 97.9719C122.091 97.9382 122.113 97.8916 122.115 97.8419H122.103ZM118.224 103.944C118.227 103.919 118.225 103.894 118.218 103.87C118.211 103.847 118.199 103.824 118.184 103.805C118.168 103.786 118.149 103.77 118.127 103.758C118.105 103.746 118.081 103.739 118.056 103.737L111.756 103.116C111.732 103.113 111.707 103.116 111.683 103.123C111.66 103.13 111.638 103.142 111.619 103.157C111.6 103.173 111.584 103.192 111.573 103.214C111.561 103.236 111.554 103.259 111.552 103.284C111.548 103.333 111.563 103.382 111.595 103.42C111.626 103.458 111.671 103.483 111.72 103.488L118.02 104.112H118.038C118.087 104.115 118.134 104.1 118.171 104.068C118.208 104.037 118.232 103.992 118.236 103.944H118.224ZM110.319 107.196C110.361 107.168 110.39 107.125 110.4 107.077C110.41 107.028 110.4 106.977 110.373 106.935L107.259 102.228C107.231 102.187 107.188 102.159 107.139 102.15C107.09 102.14 107.04 102.15 106.998 102.177C106.956 102.204 106.927 102.247 106.917 102.296C106.907 102.345 106.917 102.396 106.944 102.438L110.058 107.145C110.076 107.171 110.1 107.192 110.127 107.206C110.155 107.221 110.186 107.229 110.217 107.229C110.258 107.231 110.298 107.22 110.331 107.196H110.319ZM117.465 108.771C117.464 108.722 117.445 108.674 117.41 108.639C117.375 108.604 117.328 108.583 117.279 108.582L109.872 108.513C109.823 108.513 109.775 108.533 109.741 108.567C109.706 108.602 109.686 108.65 109.686 108.699C109.685 108.724 109.69 108.748 109.699 108.772C109.708 108.795 109.721 108.816 109.739 108.833C109.756 108.851 109.777 108.865 109.8 108.874C109.823 108.884 109.847 108.888 109.872 108.888L117.279 108.957C117.304 108.958 117.33 108.954 117.354 108.945C117.377 108.937 117.399 108.923 117.418 108.906C117.436 108.889 117.451 108.868 117.461 108.844C117.471 108.821 117.477 108.796 117.477 108.771H117.465ZM107.526 119.847C107.541 119.814 108.804 116.334 112.602 115.503C112.651 115.492 112.694 115.462 112.721 115.42C112.748 115.378 112.757 115.327 112.746 115.278C112.734 115.23 112.704 115.189 112.662 115.162C112.62 115.136 112.57 115.127 112.521 115.137C108.516 116.013 107.187 119.688 107.172 119.724C107.157 119.771 107.16 119.823 107.182 119.868C107.204 119.912 107.242 119.947 107.289 119.964H107.349C107.389 119.967 107.429 119.958 107.463 119.937C107.497 119.916 107.523 119.884 107.538 119.847H107.526ZM108.369 122.598C108.419 122.594 108.465 122.571 108.497 122.533C108.53 122.496 108.546 122.447 108.543 122.397C108.072 115.323 110.808 103.737 115.197 94.2269C118.002 88.1489 128.997 76.2029 129.114 76.0829C129.149 76.0475 129.169 75.9995 129.169 75.9494C129.169 75.8994 129.149 75.8514 129.114 75.8159C129.097 75.7985 129.076 75.7847 129.054 75.7753C129.031 75.7658 129.007 75.761 128.982 75.761C128.958 75.761 128.933 75.7658 128.911 75.7753C128.888 75.7847 128.867 75.7985 128.85 75.8159C128.739 75.9359 117.699 87.9269 114.87 94.0589C110.4 103.8 107.7 115.176 108.18 122.421C108.184 122.469 108.205 122.513 108.24 122.546C108.275 122.579 108.321 122.597 108.369 122.598ZM117.342 90.3329C117.392 90.3298 117.438 90.3073 117.471 90.2703C117.504 90.2332 117.522 90.1846 117.519 90.1349L116.802 77.9999C116.801 77.9752 116.795 77.951 116.784 77.9287C116.774 77.9063 116.759 77.8864 116.74 77.8699C116.722 77.8534 116.7 77.8408 116.677 77.8327C116.654 77.8246 116.629 77.8213 116.604 77.8229C116.555 77.826 116.508 77.8486 116.475 77.8856C116.442 77.9227 116.425 77.9713 116.427 78.0209L117.156 90.1499C117.158 90.1977 117.179 90.2427 117.214 90.2757C117.248 90.3086 117.294 90.327 117.342 90.3269V90.3329ZM115.104 94.3199C115.149 94.2996 115.184 94.2625 115.202 94.2165C115.22 94.1705 115.219 94.1194 115.2 94.0739L110.589 83.6429C110.569 83.5976 110.532 83.562 110.486 83.544C110.44 83.526 110.388 83.5271 110.343 83.5469C110.298 83.5668 110.262 83.6039 110.244 83.6501C110.226 83.6962 110.227 83.7476 110.247 83.7929L114.855 94.2239C114.87 94.2574 114.893 94.286 114.924 94.3062C114.954 94.3264 114.99 94.3375 115.026 94.3379C115.057 94.3396 115.088 94.3334 115.116 94.3199H115.104ZM115.902 92.8799L126.939 91.3019C126.966 91.3014 126.992 91.2952 127.016 91.2838C127.04 91.2724 127.062 91.256 127.079 91.2357C127.096 91.2155 127.109 91.1918 127.117 91.1662C127.124 91.1406 127.126 91.1137 127.122 91.0873C127.119 91.0609 127.11 91.0356 127.096 91.0129C127.081 90.9903 127.063 90.9709 127.041 90.9561C127.018 90.9412 126.993 90.9312 126.967 90.9267C126.941 90.9222 126.914 90.9233 126.888 90.9299L115.851 92.5079C115.802 92.5111 115.756 92.5338 115.723 92.5709C115.69 92.608 115.674 92.6566 115.677 92.7059C115.68 92.7553 115.703 92.8013 115.74 92.834C115.777 92.8666 115.826 92.8831 115.875 92.8799H115.902ZM112.755 99.9209C112.794 99.8902 112.82 99.8452 112.826 99.7957C112.832 99.7463 112.819 99.6964 112.788 99.6569L106.806 91.9709C106.791 91.9513 106.772 91.9347 106.75 91.9223C106.729 91.9099 106.705 91.9019 106.681 91.8987C106.656 91.8955 106.631 91.8972 106.607 91.9037C106.583 91.9101 106.56 91.9213 106.541 91.9364C106.521 91.9516 106.504 91.9705 106.492 91.9921C106.48 92.0136 106.472 92.0374 106.468 92.0621C106.465 92.0867 106.467 92.1117 106.473 92.1358C106.48 92.1598 106.491 92.1822 106.506 92.2019L112.5 99.8999C112.518 99.9224 112.54 99.9405 112.565 99.953C112.591 99.9655 112.619 99.9719 112.647 99.9719C112.692 99.9697 112.734 99.9516 112.767 99.9209H112.755ZM122.103 97.8419C122.105 97.7923 122.087 97.744 122.053 97.7075C122.019 97.6711 121.973 97.6493 121.923 97.6469L113.7 97.2299C113.654 97.2331 113.61 97.2532 113.578 97.2863C113.546 97.3193 113.527 97.3632 113.524 97.4094C113.522 97.4557 113.537 97.5012 113.566 97.5372C113.595 97.5733 113.636 97.5974 113.682 97.6049L121.92 98.0219C121.97 98.0236 122.018 98.0056 122.055 97.9719C122.091 97.9382 122.113 97.8916 122.115 97.8419H122.103ZM118.224 103.944C118.227 103.919 118.225 103.894 118.218 103.87C118.211 103.847 118.199 103.824 118.184 103.805C118.168 103.786 118.149 103.77 118.127 103.758C118.105 103.746 118.081 103.739 118.056 103.737L111.756 103.116C111.732 103.113 111.707 103.116 111.683 103.123C111.66 103.13 111.638 103.142 111.619 103.157C111.6 103.173 111.584 103.192 111.573 103.214C111.561 103.236 111.554 103.259 111.552 103.284C111.548 103.333 111.563 103.382 111.595 103.42C111.626 103.458 111.671 103.483 111.72 103.488L118.02 104.112H118.038C118.087 104.115 118.134 104.1 118.171 104.068C118.208 104.037 118.232 103.992 118.236 103.944H118.224ZM110.319 107.196C110.361 107.168 110.39 107.125 110.4 107.077C110.41 107.028 110.4 106.977 110.373 106.935L107.259 102.228C107.231 102.187 107.188 102.159 107.139 102.15C107.09 102.14 107.04 102.15 106.998 102.177C106.956 102.204 106.927 102.247 106.917 102.296C106.907 102.345 106.917 102.396 106.944 102.438L110.058 107.145C110.076 107.171 110.1 107.192 110.127 107.206C110.155 107.221 110.186 107.229 110.217 107.229C110.258 107.231 110.298 107.22 110.331 107.196H110.319ZM117.465 108.771C117.464 108.722 117.445 108.674 117.41 108.639C117.375 108.604 117.328 108.583 117.279 108.582L109.872 108.513C109.823 108.513 109.775 108.533 109.741 108.567C109.706 108.602 109.686 108.65 109.686 108.699C109.685 108.724 109.69 108.748 109.699 108.772C109.708 108.795 109.721 108.816 109.739 108.833C109.756 108.851 109.777 108.865 109.8 108.874C109.823 108.884 109.847 108.888 109.872 108.888L117.279 108.957C117.304 108.958 117.33 108.954 117.354 108.945C117.377 108.937 117.399 108.923 117.418 108.906C117.436 108.889 117.451 108.868 117.461 108.844C117.471 108.821 117.477 108.796 117.477 108.771H117.465ZM107.526 119.847C107.541 119.814 108.804 116.334 112.602 115.503C112.651 115.492 112.694 115.462 112.721 115.42C112.748 115.378 112.757 115.327 112.746 115.278C112.734 115.23 112.704 115.189 112.662 115.162C112.62 115.136 112.57 115.127 112.521 115.137C108.516 116.013 107.187 119.688 107.172 119.724C107.157 119.771 107.16 119.823 107.182 119.868C107.204 119.912 107.242 119.947 107.289 119.964H107.349C107.389 119.967 107.429 119.958 107.463 119.937C107.497 119.916 107.523 119.884 107.538 119.847H107.526Z" fill="black"/>
<path d="M113.268 117.309H104.775V119.067H105.516L107.049 128.658H110.994L112.527 119.067H113.268V117.309Z" fill="#92E3A9"/>
<path opacity="0.3" d="M113.268 117.309H104.775V119.067H105.516L107.049 128.658H110.994L112.527 119.067H113.268V117.309Z" fill="white"/>
<path d="M36.804 64.1491L26.925 60.9241L26.046 58.6021L24.039 58.5391L20.397 57.8491L20.835 58.6021L25.419 61.9291L26.55 62.4931L36.882 67.8901L36.804 64.1491Z" fill="white" stroke="#263238" stroke-width="1.00396" stroke-miterlimit="10"/>
<path d="M26.0457 58.6021L25.1037 58.0381L23.2227 58.7281L23.5347 59.1031L26.0457 58.6021Z" fill="white" stroke="#263238" stroke-width="1.00396" stroke-linejoin="round"/>
<path d="M36.804 64.1491L26.925 60.9241L26.046 58.6021L24.039 58.5391L20.397 57.8491L20.835 58.6021L25.419 61.9291L26.55 62.4931L36.882 67.8901L36.804 64.1491Z" fill="white"/>
<mask id="mask0_2129_6162" style="mask-type:luminance" maskUnits="userSpaceOnUse" x="20" y="57" width="17" height="11">
<path d="M36.804 64.1491L26.925 60.9241L26.046 58.6021L24.039 58.5391L20.397 57.8491L20.835 58.6021L25.419 61.9291L26.55 62.4931L36.882 67.8901L36.804 64.1491Z" fill="white"/>
</mask>
<g mask="url(#mask0_2129_6162)">
<path opacity="0.5" d="M36.804 64.1491L26.925 60.9241L26.046 58.6021L24.039 58.5391L20.397 57.8491L20.835 58.6021L25.419 61.9291L26.55 62.4931L36.882 67.8901L36.804 64.1491Z" fill="#92E3A9" stroke="#263238" stroke-width="1.00396" stroke-miterlimit="10"/>
</g>
<path d="M36.804 64.1491L26.925 60.9241L26.046 58.6021L24.039 58.5391L20.397 57.8491L20.835 58.6021L25.419 61.9291L26.55 62.4931L36.882 67.8901L36.804 64.1491Z" stroke="#263238" stroke-width="1.00396" stroke-miterlimit="10"/>
<path d="M26.0457 58.6021L25.1037 58.0381L23.2227 58.7281L23.5347 59.1031L26.0457 58.6021Z" fill="white"/>
<mask id="mask1_2129_6162" style="mask-type:luminance" maskUnits="userSpaceOnUse" x="23" y="58" width="4" height="2">
<path d="M26.0457 58.6021L25.1037 58.0381L23.2227 58.7281L23.5347 59.1031L26.0457 58.6021Z" fill="white"/>
</mask>
<g mask="url(#mask1_2129_6162)">
<path opacity="0.5" d="M26.0457 58.6021L25.1037 58.0381L23.2227 58.7281L23.5347 59.1031L26.0457 58.6021Z" fill="#92E3A9" stroke="#263238" stroke-width="1.00396" stroke-linejoin="round"/>
</g>
<path d="M26.0457 58.6021L25.1037 58.0381L23.2227 58.7281L23.5347 59.1031L26.0457 58.6021Z" stroke="#263238" stroke-width="1.00396" stroke-linejoin="round"/>
<path d="M38.9011 43.2181C38.9011 43.2181 38.7481 44.5681 39.1291 45.4351C39.5101 46.3021 41.6251 49.2391 41.6251 49.2391L37.6771 52.4041C37.6771 52.4041 36.0391 49.1041 35.7271 48.5701C35.4151 48.0361 35.0401 45.7381 36.0571 44.0911C37.0741 42.4441 38.5381 42.0001 38.9011 43.2181Z" fill="white"/>
<mask id="mask2_2129_6162" style="mask-type:luminance" maskUnits="userSpaceOnUse" x="35" y="42" width="7" height="11">
<path d="M38.9011 43.2181C38.9011 43.2181 38.7481 44.5681 39.1291 45.4351C39.5101 46.3021 41.6251 49.2391 41.6251 49.2391L37.6771 52.4041C37.6771 52.4041 36.0391 49.1041 35.7271 48.5701C35.4151 48.0361 35.0401 45.7381 36.0571 44.0911C37.0741 42.4441 38.5381 42.0001 38.9011 43.2181Z" fill="white"/>
</mask>
<g mask="url(#mask2_2129_6162)">
<g style="mix-blend-mode:multiply" opacity="0.5">
<path d="M36.8732 47.5562L38.5861 51.1082L37.6741 52.4072L35.9521 49.3322L36.8732 47.5562Z" fill="#92E3A9"/>
</g>
</g>
<path d="M38.9011 43.2181C38.9011 43.2181 38.7481 44.5681 39.1291 45.4351C39.5101 46.3021 41.6251 49.2391 41.6251 49.2391L37.6771 52.4041C37.6771 52.4041 36.0391 49.1041 35.7271 48.5701C35.4151 48.0361 35.0401 45.7381 36.0571 44.0911C37.0741 42.4441 38.5381 42.0001 38.9011 43.2181Z" stroke="#263238" stroke-width="1.00396" stroke-miterlimit="10"/>
<path d="M40.1247 40.7461C39.8817 39.2461 38.1627 36.1951 35.4357 36.3121C33.6657 36.3901 32.8377 36.7471 32.0697 37.1821C31.4437 37.5509 30.8602 37.9876 30.3297 38.4841C28.9977 40.0831 28.5297 40.5211 28.7877 41.7451C28.7666 42.2333 28.8431 42.7208 29.0127 43.1791C29.4207 44.2681 29.6997 44.9791 30.0537 45.4981C29.9457 46.0051 29.6637 47.3431 29.6487 47.6491C29.6337 47.9551 30.5487 47.7421 31.0107 47.6251C31.8687 49.5451 33.4407 50.8771 33.9297 51.0301C34.7817 51.2971 36.1287 49.8961 36.8427 48.8101C37.5567 47.7241 37.0167 46.5031 37.0197 46.0171C37.0227 45.5311 38.6247 44.4631 39.2187 44.1241C39.8127 43.7851 40.3647 42.2431 40.1247 40.7461Z" fill="white"/>
<mask id="mask3_2129_6162" style="mask-type:luminance" maskUnits="userSpaceOnUse" x="28" y="36" width="13" height="16">
<path d="M40.1247 40.7461C39.8817 39.2461 38.1627 36.1951 35.4357 36.3121C33.6657 36.3901 32.8377 36.7471 32.0697 37.1821C31.4437 37.5509 30.8602 37.9876 30.3297 38.4841C28.9977 40.0831 28.5297 40.5211 28.7877 41.7451C28.7666 42.2333 28.8431 42.7208 29.0127 43.1791C29.4207 44.2681 29.6997 44.9791 30.0537 45.4981C29.9457 46.0051 29.6637 47.3431 29.6487 47.6491C29.6337 47.9551 30.5487 47.7421 31.0107 47.6251C31.8687 49.5451 33.4407 50.8771 33.9297 51.0301C34.7817 51.2971 36.1287 49.8961 36.8427 48.8101C37.5567 47.7241 37.0167 46.5031 37.0197 46.0171C37.0227 45.5311 38.6247 44.4631 39.2187 44.1241C39.8127 43.7851 40.3647 42.2431 40.1247 40.7461Z" fill="white"/>
</mask>
<g mask="url(#mask3_2129_6162)">
<g style="mix-blend-mode:multiply" opacity="0.5">
<path d="M28.7995 41.7452C28.7783 42.2334 28.8548 42.7209 29.0245 43.1792C29.4325 44.2682 29.7115 44.9792 30.0655 45.4982C29.9575 46.0052 29.6755 47.3432 29.6605 47.6492C29.6455 47.9552 30.5605 47.7422 31.0225 47.6252C31.8805 49.5452 33.4525 50.8772 33.9415 51.0302C34.7935 51.2972 36.1405 49.8962 36.8545 48.8102C37.0329 48.539 37.1487 48.2316 37.1935 47.9102C37.1545 47.7692 37.1275 47.6822 37.1275 47.6822C37.1275 47.6822 36.7255 49.2272 35.9275 49.0262C35.1295 48.8252 33.9085 47.2262 33.2275 46.6742C32.5465 46.1222 32.8255 45.3962 32.6905 44.5742C32.5555 43.7522 30.5395 43.0292 30.4045 42.5582C30.2695 42.0872 30.7405 40.1372 30.7405 40.1372C30.7405 40.1372 31.5055 39.1172 31.3405 39.5372C31.2239 39.9013 31.1816 40.2852 31.2161 40.6661C31.2506 41.0469 31.3613 41.4169 31.5415 41.7542C31.668 42.0203 31.8686 42.2442 32.1192 42.3991C32.3699 42.554 32.6599 42.6332 32.9545 42.6272L33.6865 39.0002L32.1415 37.7222L30.3415 38.4722C28.9975 40.0832 28.5385 40.5212 28.7995 41.7452Z" fill="#92E3A9"/>
</g>
</g>
<path d="M40.1247 40.7461C39.8817 39.2461 38.1627 36.1951 35.4357 36.3121C33.6657 36.3901 32.8377 36.7471 32.0697 37.1821C31.4437 37.5509 30.8602 37.9876 30.3297 38.4841C28.9977 40.0831 28.5297 40.5211 28.7877 41.7451C28.7666 42.2333 28.8431 42.7208 29.0127 43.1791C29.4207 44.2681 29.6997 44.9791 30.0537 45.4981C29.9457 46.0051 29.6637 47.3431 29.6487 47.6491C29.6337 47.9551 30.5487 47.7421 31.0107 47.6251C31.8687 49.5451 33.4407 50.8771 33.9297 51.0301C34.7817 51.2971 36.1287 49.8961 36.8427 48.8101C37.5567 47.7241 37.0167 46.5031 37.0197 46.0171C37.0227 45.5311 38.6247 44.4631 39.2187 44.1241C39.8127 43.7851 40.3647 42.2431 40.1247 40.7461Z" stroke="#263238" stroke-miterlimit="10"/>
<path d="M30.4258 44.592L30.7258 45.45C30.7258 45.45 31.3708 45.663 32.1568 44.805" stroke="#263238" stroke-miterlimit="10" stroke-linecap="round"/>
<path d="M32.6431 48.6001C32.6431 48.6001 33.3571 48.5281 33.6451 47.5261" stroke="#263238" stroke-miterlimit="10" stroke-linecap="round"/>
<path d="M29.9248 43.875C29.9248 43.875 30.1378 43.23 31.4248 43.23" stroke="#263238" stroke-miterlimit="10" stroke-linecap="round"/>
<path d="M36.522 35.118C35.5869 34.9835 34.6438 34.9114 33.699 34.902C33.699 34.902 30.873 33.273 28.158 35.01C25.443 36.747 26.748 39.789 26.748 40.548C26.748 41.307 25.878 41.31 26.421 42.288C26.964 43.266 28.8 42.726 28.8 42.726C28.8194 42.3571 28.9169 41.9966 29.086 41.6682C29.2551 41.3398 29.492 41.0511 29.781 40.821C30.759 40.062 31.539 39.897 31.863 40.116C31.863 40.116 31.647 41.745 31.971 42.396C31.971 42.396 33.057 42.939 33.384 42.939C33.711 42.939 33.171 43.398 34.254 43.806C34.4514 43.8769 34.6624 43.901 34.8706 43.8766C35.0788 43.8521 35.2785 43.7797 35.454 43.665C35.613 43.005 35.961 42.012 36.609 42.243C37.56 42.582 38.427 44.922 37.14 45.72C38.688 46.002 40.563 43.263 40.674 40.767C40.785 38.271 38.13 35.4 36.522 35.118Z" fill="#263238"/>
<path d="M31.9106 39.0449C31.9106 39.0449 32.7086 38.616 33.6866 39.534C34.6646 40.452 36.5666 41.6789 39.0866 41.0039" stroke="white" stroke-width="0.5" stroke-linecap="round" stroke-linejoin="round"/>
<path d="M31.7998 38.3099C31.7998 38.3099 32.3488 37.4519 33.2668 37.4519C34.1848 37.4519 36.3298 38.7389 38.0428 38.7389" stroke="white" stroke-width="0.5" stroke-linecap="round" stroke-linejoin="round"/>
<path d="M31.1758 39.9631C31.1758 39.9631 30.1348 38.6791 29.1568 39.7201C28.1788 40.7611 28.7998 41.7451 28.7998 41.7451" stroke="white" stroke-width="0.5" stroke-linecap="round" stroke-linejoin="round"/>
<path d="M27.0146 40.821C27.6112 40.2831 27.982 39.5392 28.0526 38.739C28.1756 37.392 30.0146 36.228 31.1756 37.332" stroke="white" stroke-width="0.5" stroke-linecap="round" stroke-linejoin="round"/>
<path d="M28.9106 35.922C28.9106 35.922 30.7496 34.146 32.2796 36.411" stroke="white" stroke-width="0.5" stroke-linecap="round" stroke-linejoin="round"/>
<path d="M43.8779 123.243C43.8779 123.243 45.0089 125.001 44.8829 126.132L44.7599 127.263C44.7599 127.263 40.6109 128.4 39.7319 128.4C38.8529 128.4 34.1999 127.959 34.1999 127.959L33.9989 127.161C33.9848 127.102 33.9915 127.04 34.0177 126.985C34.0439 126.931 34.0881 126.887 34.1429 126.861L38.2919 124.926L39.5999 123.495L43.8779 123.243Z" fill="white" stroke="#263238" stroke-width="1.00396" stroke-miterlimit="10"/>
<path d="M40.3617 127.515C41.4867 127.602 43.6227 126.915 44.8617 126.477L44.7747 127.263C44.7747 127.263 40.6107 128.4 39.7317 128.4C38.8527 128.4 34.1997 127.959 34.1997 127.959L34.0557 127.389C34.7997 127.392 38.8737 127.401 40.3617 127.515Z" fill="#92E3A9" stroke="#263238" stroke-width="1.00396" stroke-miterlimit="10"/>
<path d="M38.2981 124.926L32.2591 127.554C32.2591 127.554 31.7431 128.847 32.2591 129.105C32.7751 129.363 44.0251 129.105 44.0251 129.105C44.0251 129.105 44.8021 127.062 43.5751 125.691C42.3481 124.32 38.2981 124.926 38.2981 124.926Z" fill="white" stroke="#263238" stroke-width="1.00396" stroke-miterlimit="10"/>
<path d="M44.0251 129.105C44.0251 129.105 32.7751 129.363 32.2591 129.105C32.0101 128.979 32.0011 128.616 32.0581 128.271H44.2231C44.1833 128.555 44.1171 128.834 44.0251 129.105Z" fill="#92E3A9" stroke="#263238" stroke-width="1.00396" stroke-miterlimit="10"/>
<path d="M35.442 79.2629C35.442 79.2629 33.864 86.2559 33.267 90.6299C32.67 95.0039 32.319 103.767 32.445 104.772C32.571 105.777 38.853 122.616 38.853 122.616L39.48 124.116L43.878 123.237C43.878 123.237 41.868 116.829 41.115 113.31C40.362 109.791 38.715 104.01 38.715 103.005C38.715 102 42.615 82.8059 42.894 81.5459C43.173 80.2859 44.439 78.3509 44.439 78.3509L36.018 78.1799L35.442 79.2629Z" fill="#92E3A9" stroke="#263238" stroke-width="1.00396" stroke-miterlimit="10"/>
<path d="M35.4418 79.263C35.4418 79.263 34.5178 85.65 34.8988 90.09C35.2798 94.53 36.0988 103.983 36.0988 105.39C36.0988 106.797 38.3698 115.2 38.4988 117.84C38.6998 121.653 38.4178 123.54 38.4178 123.54L38.2828 124.923C38.2828 124.923 40.9318 125.301 41.5108 125.466C42.1795 125.638 42.8696 125.713 43.5598 125.688C43.5598 125.688 44.5228 121.449 44.5228 117.837C44.5228 114.225 43.7218 106.791 43.3228 103.779C42.9238 100.767 44.1808 89.148 44.8948 86.979C45.6088 84.81 47.1688 80.217 46.1188 77.871C45.0688 75.525 35.4418 79.263 35.4418 79.263Z" fill="#92E3A9" stroke="#263238" stroke-width="1.00396" stroke-miterlimit="10"/>
<path d="M47.2861 76.6951L47.1901 79.5511C47.1901 79.5511 45.4801 79.8901 43.1761 80.2891C41.2741 80.6191 36.4981 80.2021 34.8901 80.0461C34.7436 80.0331 34.6081 79.9628 34.5131 79.8504C34.4182 79.738 34.3715 79.5927 34.3831 79.4461L34.5391 76.8661L47.2861 76.6951Z" fill="#263238"/>
<path d="M40.6018 48.2251C40.6018 48.2251 37.9018 51.1441 36.8848 52.9591C35.8678 54.7741 35.4658 57.5551 35.0848 59.7451C34.7038 61.9351 35.7358 67.0771 35.4448 69.4381L34.5238 76.8751C34.5238 76.8751 34.3258 77.3791 34.9888 77.9311C35.6518 78.4831 38.8888 78.6841 41.8138 78.8311C42.8818 78.8851 46.0708 78.1981 46.5928 78.1651C47.2228 78.1261 47.2438 77.3251 47.2708 76.6951C47.3968 73.7341 47.9308 65.8411 48.2818 62.4031C49.0048 55.3921 45.0478 48.6241 40.6018 48.2251Z" fill="white" stroke="#263238" stroke-width="1.00396" stroke-miterlimit="10"/>
<g style="mix-blend-mode:multiply">
<path d="M47.9519 66.39C48.0719 64.833 48.1919 63.42 48.2969 62.403C48.3269 62.103 48.3449 61.803 48.3599 61.503L41.1869 62.703L35.0249 60.603C35.0256 61.8781 35.0977 63.1521 35.2409 64.419L41.2859 66.111L47.9519 66.39Z" fill="#92E3A9"/>
</g>
<g style="mix-blend-mode:multiply">
<path d="M40.3347 48.519C39.9267 48.972 39.1167 49.893 38.3457 50.871L42.8997 55.5L44.3997 54.9L40.3347 48.519Z" fill="#92E3A9"/>
</g>
<path d="M40.6018 48.2251C40.6018 48.2251 37.9018 51.1441 36.8848 52.9591C36.5832 53.5107 36.3389 54.0917 36.1558 54.6931L41.5858 48.4201C41.265 48.3229 40.9354 48.2576 40.6018 48.2251Z" fill="#263238"/>
<g style="mix-blend-mode:multiply">
<path d="M35.2949 58.5629L41.1869 60.5009L48.3419 59.6789C48.2298 57.8965 47.8338 56.1435 47.1689 54.4859L41.3999 56.7989L36.2429 54.4619C35.8212 55.8023 35.5043 57.1734 35.2949 58.5629Z" fill="#92E3A9"/>
</g>
<g style="mix-blend-mode:multiply">
<path d="M45.4378 73.7339C42.4494 74.2357 39.3831 73.9852 36.5158 73.0049L35.0788 72.5129L34.6318 76.1129L36.2698 76.5719C39.3837 77.4426 42.6383 77.6933 45.8488 77.3099L47.1718 77.1509C47.2407 77.0052 47.2795 76.847 47.2858 76.6859C47.3218 75.8849 47.3848 74.7209 47.4658 73.3859L45.4378 73.7339Z" fill="#92E3A9"/>
</g>
<g style="mix-blend-mode:multiply">
<path d="M46.2391 68.8319C43.2506 69.3356 40.1835 69.084 37.3171 68.0999L35.4871 67.4729C35.5325 68.1265 35.5234 68.7828 35.4601 69.4349L35.2471 71.1659L37.0711 71.6759C40.1838 72.5474 43.4373 72.7992 46.6471 72.4169L47.5471 72.3089C47.6221 71.1089 47.7091 69.8309 47.8021 68.5679L46.2391 68.8319Z" fill="#92E3A9"/>
</g>
<path d="M18.0934 56.1455L23.894 60.8093L24.1441 60.4984L18.3434 55.8346L18.0934 56.1455Z" fill="#263238"/>
<path d="M43.3949 51.4619C43.3949 51.4619 45.5219 52.9109 45.5699 56.3339C45.5909 57.8339 45.4349 59.2349 45.0899 61.6919C44.7449 64.1489 42.6029 72.1499 40.9349 73.1219C39.2669 74.0939 36.6779 72.2579 36.6779 72.2579L24.1559 63.9449L21.1289 61.4999L19.6289 58.6679L20.0999 57.7679L23.7929 60.5999L21.8039 58.7609L22.1939 58.2659L22.9139 58.7669L25.0139 59.5529L25.4729 62.5529L26.1209 62.9969L38.0999 67.3739C38.0999 67.3739 37.9499 60.9269 38.0609 59.6939C38.1719 58.4609 38.3249 55.3619 39.6449 53.1149" fill="white"/>
<mask id="mask4_2129_6162" style="mask-type:luminance" maskUnits="userSpaceOnUse" x="19" y="51" width="27" height="23">
<path d="M43.3949 51.4619C43.3949 51.4619 45.5219 52.9109 45.5699 56.3339C45.5909 57.8339 45.4349 59.2349 45.0899 61.6919C44.7449 64.1489 42.6029 72.1499 40.9349 73.1219C39.2669 74.0939 36.6779 72.2579 36.6779 72.2579L24.1559 63.9449L21.1289 61.4999L19.6289 58.6679L20.0999 57.7679L23.7929 60.5999L21.8039 58.7609L22.1939 58.2659L22.9139 58.7669L25.0139 59.5529L25.4729 62.5529L26.1209 62.9969L38.0999 67.3739C38.0999 67.3739 37.9499 60.9269 38.0609 59.6939C38.1719 58.4609 38.3249 55.3619 39.6449 53.1149" fill="white"/>
</mask>
<g mask="url(#mask4_2129_6162)">
<g style="mix-blend-mode:multiply" opacity="0.5">
<path d="M38.0158 62.5018C38.0158 64.7278 38.0908 67.3738 38.0908 67.3738L26.1238 63.0148L25.4758 62.5708L25.0168 59.5708L22.9168 58.7848L22.1998 58.2748L21.8098 58.7698L23.7928 60.5998L20.0998 57.7678L19.6528 58.6528L21.1528 61.4848L24.1798 63.9448L24.9418 64.4518L41.4868 69.7828L38.0158 62.5018Z" fill="#92E3A9"/>
</g>
</g>
<path d="M43.3949 51.4619C43.3949 51.4619 45.5219 52.9109 45.5699 56.3339C45.5909 57.8339 45.4349 59.2349 45.0899 61.6919C44.7449 64.1489 42.6029 72.1499 40.9349 73.1219C39.2669 74.0939 36.6779 72.2579 36.6779 72.2579L24.1559 63.9449L21.1289 61.4999L19.6289 58.6679L20.0999 57.7679L23.7929 60.5999L21.8039 58.7609L22.1939 58.2659L22.9139 58.7669L25.0139 59.5529L25.4729 62.5529L26.1209 62.9969L38.0999 67.3739C38.0999 67.3739 37.9499 60.9269 38.0609 59.6939C38.1719 58.4609 38.3249 55.3619 39.6449 53.1149" stroke="#263238" stroke-width="1.00396" stroke-miterlimit="10"/>
<path d="M38.1 67.374L42.672 70.674L43.857 68.574C43.857 68.574 44.676 67.929 44.796 67.443C44.916 66.957 44.763 66.168 44.886 65.682C45.009 65.196 45.621 64.74 45.678 63.564C45.735 62.388 45.678 61.407 45.678 61.407C45.678 61.407 46.668 57.336 46.56 55.566C46.452 53.796 44.745 50.667 43.377 50.598C42.009 50.529 40.23 50.736 38.85 52.824C37.47 54.912 37.752 61.008 37.536 61.389C37.32 61.77 37.62 63.651 37.62 63.651C37.5001 63.7404 37.4006 63.8543 37.3282 63.9852C37.2558 64.1161 37.2121 64.2609 37.2 64.41C37.176 64.899 37.704 66.102 37.704 66.102L38.1 67.374Z" fill="white" stroke="#263238" stroke-width="1.00396" stroke-miterlimit="10"/>
<g style="mix-blend-mode:multiply">
<path d="M37.656 59.823C37.6654 60.3465 37.6262 60.8697 37.539 61.386C37.347 61.728 37.566 63.273 37.614 63.588C40.1855 64.3867 42.9047 64.5919 45.567 64.188C45.6242 63.9794 45.6584 63.7651 45.669 63.549C45.729 62.376 45.669 61.392 45.669 61.392C45.669 61.392 45.756 61.029 45.876 60.477C43.1188 60.6523 40.3508 60.432 37.656 59.823Z" fill="#92E3A9"/>
</g>
<g style="mix-blend-mode:multiply">
<path d="M38.6639 53.157C38.2349 54.018 37.9949 55.311 37.8569 56.622C40.5804 57.6614 43.5167 58.0187 46.4099 57.663C46.5254 56.9692 46.5766 56.2662 46.5629 55.563C46.511 55.0071 46.3796 54.4616 46.1729 53.943C43.6467 54.0019 41.1232 53.7378 38.6639 53.157Z" fill="#92E3A9"/>
</g>
<path d="M37.7041 66.135L38.0911 67.374L42.6631 70.674L43.8481 68.574C43.8481 68.574 44.6671 67.929 44.7871 67.443C44.8085 67.3585 44.8216 67.2721 44.8261 67.185C42.4168 67.1434 40.0229 66.7905 37.7041 66.135Z" fill="#263238"/>
<path d="M41.0129 125.427C41.0129 125.427 41.1149 122.829 41.6129 119.031C42.1109 115.233 40.9139 109.839 40.7129 108.939C40.5119 108.039 40.8149 106.041 40.6139 105.339C40.4129 104.637 39.4409 101.643 40.0139 98.1689C40.5869 94.6949 41.0519 85.5119 41.0519 85.5119C41.0519 85.5119 39.6089 84.3389 39.1859 82.8119C38.7629 81.2849 39.0869 80.8049 39.0869 80.8049" stroke="#263238" stroke-width="1.00396" stroke-miterlimit="10"/>
<path d="M41.682 80.946L41.127 84.018" stroke="#263238" stroke-width="1.00396" stroke-miterlimit="10"/>
</g>
<defs>
<filter id="filter0_d_2129_6162" x="-4" y="0" width="158" height="158" filterUnits="userSpaceOnUse" color-interpolation-filters="sRGB">
<feFlood flood-opacity="0" result="BackgroundImageFix"/>
<feColorMatrix in="SourceAlpha" type="matrix" values="0 0 0 0 0 0 0 0 0 0 0 0 0 0 0 0 0 0 127 0" result="hardAlpha"/>
<feOffset dy="4"/>
<feGaussianBlur stdDeviation="2"/>
<feComposite in2="hardAlpha" operator="out"/>
<feColorMatrix type="matrix" values="0 0 0 0 0 0 0 0 0 0 0 0 0 0 0 0 0 0 0.25 0"/>
<feBlend mode="normal" in2="BackgroundImageFix" result="effect1_dropShadow_2129_6162"/>
<feBlend mode="normal" in="SourceGraphic" in2="effect1_dropShadow_2129_6162" result="shape"/>
</filter>
</defs>
</svg>
