<svg width="32" height="32" viewBox="0 0 32 32" fill="none" xmlns="http://www.w3.org/2000/svg">
<rect width="32" height="32" rx="16" fill="white"/>
<path fill-rule="evenodd" clip-rule="evenodd" d="M16.0007 7.27246C20.833 7.27246 24.7503 11.1792 24.7503 16.0016C24.7503 20.8209 20.833 24.7277 16.0007 24.7277C11.1653 24.7277 7.24805 20.8209 7.24805 16.0016C7.24805 11.1792 11.1653 7.27246 16.0007 7.27246Z" stroke="#064E6E" stroke-width="1.33345"/>
<path d="M14.4875 3.36879C14.4875 3.57507 14.3183 3.74071 14.1146 3.74071C13.9078 3.74071 13.7417 3.57507 13.7417 3.36879C13.7417 3.16564 13.9078 3 14.1146 3C14.3183 3 14.4875 3.16564 14.4875 3.36879Z" fill="#E31E24"/>
<path d="M15.7286 4.98777C15.7224 4.89088 15.713 4.79712 15.7004 4.70024C15.6472 4.32832 15.5281 3.96265 15.3024 3.66886C15.1395 3.45946 14.9327 3.29069 14.7227 3.12817C14.848 3.49072 14.9013 3.87826 14.8762 4.25956C14.4156 4.06266 13.5036 3.80325 13.0054 3.74075C14.331 4.64398 15.058 5.7066 15.4591 6.85674C15.4873 6.77548 15.5155 6.69422 15.5406 6.61296C15.7004 6.0879 15.7631 5.53471 15.7286 4.98777Z" fill="#E31E24"/>
<path d="M17.5146 3.36879C17.5146 3.57507 17.6807 3.74071 17.8876 3.74071C18.0913 3.74071 18.2574 3.57507 18.2574 3.36879C18.2574 3.16564 18.0913 3 17.8876 3C17.6807 3 17.5146 3.16564 17.5146 3.36879Z" fill="#E31E24"/>
<path d="M16.2711 4.98777C16.2774 4.89088 16.2899 4.79712 16.3025 4.70024C16.3557 4.32832 16.4717 3.96265 16.7005 3.66886C16.8603 3.45946 17.0702 3.29069 17.2771 3.12817C17.1517 3.49072 17.1016 3.87826 17.1235 4.25956C17.5873 4.06266 18.4961 3.80325 18.9944 3.74075C17.6688 4.64398 16.9418 5.7066 16.5406 6.85674C16.5124 6.77548 16.4874 6.69422 16.4623 6.61296C16.3025 6.0879 16.2367 5.53471 16.2711 4.98777Z" fill="#E31E24"/>
<path d="M7.33351 6.66901C7.4526 6.83466 7.41499 7.06593 7.2489 7.18782C7.08281 7.30659 6.85091 7.27221 6.72869 7.10656C6.60961 6.94092 6.64721 6.70652 6.8133 6.58775C6.97939 6.46586 7.21129 6.50337 7.33351 6.66901Z" fill="#E5097F"/>
<path d="M9.2889 7.25045C9.22936 7.17544 9.16355 7.10356 9.09774 7.0348C8.8345 6.76602 8.52739 6.53787 8.167 6.4316C7.91317 6.35659 7.64679 6.34409 7.38042 6.33472C7.6938 6.55349 7.96644 6.8379 8.17327 7.15981C7.68127 7.27233 6.7944 7.59424 6.35254 7.83802C7.95704 7.79114 9.17295 8.22244 10.1726 8.9194C10.1476 8.83814 10.1225 8.75688 10.0943 8.67562C9.91566 8.15681 9.63989 7.67238 9.2889 7.25045Z" fill="#E5097F"/>
<path d="M9.78105 4.89404C9.90327 5.05969 10.1352 5.09719 10.3013 4.9753C10.4673 4.85654 10.505 4.62526 10.3827 4.45962C10.2637 4.29397 10.0318 4.25647 9.86253 4.37523C9.69644 4.49712 9.66196 4.7284 9.78105 4.89404Z" fill="#E5097F"/>
<path d="M9.73083 6.9318C9.67756 6.85054 9.63055 6.76616 9.58668 6.68177C9.40805 6.35048 9.28897 5.98794 9.29837 5.6129C9.30464 5.35037 9.37672 5.09096 9.44566 4.8378C9.56161 5.20347 9.7465 5.54726 9.99094 5.84417C10.2479 5.41287 10.8308 4.66903 11.1974 4.32837C10.6584 5.8348 10.696 7.11932 11.0502 8.28509C10.9781 8.23821 10.9091 8.1882 10.8433 8.13507C10.4015 7.80691 10.0254 7.39436 9.73083 6.9318Z" fill="#E5097F"/>
<path d="M3.48801 13.5324C3.68231 13.595 3.79199 13.8044 3.72618 14.0012C3.6635 14.195 3.45354 14.3013 3.25924 14.2388C3.06182 14.1763 2.95527 13.9669 3.01794 13.77C3.08375 13.5762 3.29372 13.4699 3.48801 13.5324Z" fill="#6C4323"/>
<path d="M5.41551 12.8543C5.3215 12.8324 5.22749 12.8105 5.13347 12.7949C4.76055 12.7293 4.37823 12.7261 4.02411 12.8512C3.77341 12.9387 3.55091 13.0856 3.33154 13.2324C3.71387 13.2262 4.09932 13.2981 4.45657 13.4387C4.12753 13.8138 3.59792 14.5982 3.38482 15.0514C4.654 14.0732 5.89185 13.7106 7.11403 13.6856C7.04508 13.6356 6.97614 13.5856 6.9072 13.5356C6.45593 13.2231 5.94826 12.9918 5.41551 12.8543Z" fill="#6C4323"/>
<path d="M4.42477 10.6603C4.61907 10.7259 4.82903 10.6165 4.89171 10.4227C4.95438 10.229 4.84783 10.0196 4.65354 9.95393C4.45924 9.89142 4.24928 9.99768 4.18347 10.1946C4.12079 10.3884 4.22734 10.5978 4.42477 10.6603Z" fill="#6C4323"/>
<path d="M5.58116 12.3387C5.49341 12.3043 5.40566 12.2636 5.31792 12.223C4.97947 12.0574 4.66922 11.8355 4.45613 11.5261C4.3057 11.3104 4.21169 11.0604 4.11768 10.8104C4.42792 11.0416 4.77891 11.2104 5.15183 11.3073C5.10482 10.8072 5.13929 9.86336 5.2333 9.37268C5.68457 10.9072 6.47429 11.9261 7.44889 12.6606C7.36115 12.6637 7.27654 12.6637 7.19192 12.6606C6.64038 12.6512 6.09196 12.5418 5.58116 12.3387Z" fill="#6C4323"/>
<path d="M4.42477 21.3397C4.61907 21.274 4.82903 21.3834 4.89171 21.5772C4.95438 21.771 4.84783 21.9804 4.65354 22.046C4.45924 22.1085 4.24928 22.0022 4.18347 21.8053C4.12079 21.6116 4.22734 21.4022 4.42477 21.3397Z" fill="#332F60"/>
<path d="M5.58116 19.6613C5.49341 19.6957 5.40566 19.7364 5.31792 19.777C4.97947 19.9426 4.66922 20.1645 4.45613 20.4739C4.3057 20.6896 4.21169 20.9396 4.11768 21.1896C4.42792 20.9584 4.77891 20.7896 5.15183 20.6927C5.10482 21.1928 5.13929 22.1366 5.2333 22.6273C5.68457 21.0928 6.47429 20.0739 7.44889 19.3394C7.36115 19.3363 7.27654 19.3363 7.19192 19.3363C6.64038 19.3488 6.09196 19.4582 5.58116 19.6613Z" fill="#332F60"/>
<path d="M3.48801 18.4675C3.68231 18.405 3.79199 18.1956 3.72618 17.9987C3.6635 17.805 3.45354 17.6987 3.25924 17.7612C3.06182 17.8237 2.95527 18.0331 3.01794 18.23C3.08375 18.4238 3.29372 18.53 3.48801 18.4675Z" fill="#332F60"/>
<path d="M5.41551 19.1456C5.3215 19.1675 5.22749 19.1894 5.13347 19.205C4.76055 19.2706 4.37823 19.2738 4.02411 19.1487C3.77341 19.0612 3.55091 18.9143 3.33154 18.7675C3.71387 18.7737 4.09932 18.7018 4.45657 18.5612C4.12753 18.1861 3.59792 17.4017 3.38482 16.9485C4.654 17.9267 5.89185 18.2893 7.11403 18.3143C7.04508 18.3643 6.97614 18.4143 6.9072 18.4612C6.45593 18.7768 5.94826 19.0081 5.41551 19.1456Z" fill="#332F60"/>
<path d="M9.78105 27.1059C9.90327 26.9403 10.1352 26.9028 10.3013 27.0246C10.4673 27.1434 10.505 27.3747 10.3827 27.5403C10.2637 27.706 10.0286 27.7435 9.86253 27.6247C9.69644 27.5028 9.66196 27.2715 9.78105 27.1059Z" fill="#AE4A84"/>
<path d="M9.73083 25.0683C9.67756 25.1495 9.63055 25.2339 9.58668 25.3183C9.40805 25.6496 9.28897 26.0121 9.29837 26.3872C9.30464 26.6497 9.37672 26.9091 9.44566 27.1622C9.55848 26.7966 9.7465 26.4528 9.99094 26.1559C10.2479 26.5872 10.8308 27.331 11.1974 27.6717C10.6584 26.1653 10.696 24.8807 11.0502 23.715C10.9781 23.7618 10.9091 23.8119 10.8433 23.865C10.4015 24.1931 10.0254 24.6057 9.73083 25.0683Z" fill="#AE4A84"/>
<path d="M7.33351 25.3308C7.4526 25.1652 7.41499 24.9339 7.2489 24.812C7.08281 24.6901 6.85091 24.7276 6.72869 24.8933C6.60961 25.0589 6.64721 25.2933 6.8133 25.4121C6.97939 25.534 7.21129 25.4965 7.33351 25.3308Z" fill="#AE4A84"/>
<path d="M9.2889 24.7495C9.22936 24.8245 9.16355 24.8964 9.09774 24.9652C8.8345 25.2339 8.52739 25.4621 8.167 25.5684C7.91317 25.6434 7.64679 25.6559 7.38042 25.6652C7.6938 25.4465 7.96644 25.1621 8.17327 24.8401C7.68127 24.7276 6.7944 24.4057 6.35254 24.1619C7.95704 24.2088 9.17295 23.7775 10.1726 23.0806C10.1476 23.1618 10.1225 23.2431 10.0943 23.3212C9.91566 23.8432 9.63989 24.3276 9.2889 24.7495Z" fill="#AE4A84"/>
<path d="M17.5146 28.6311C17.5146 28.4248 17.6807 28.2592 17.8876 28.2592C18.0913 28.2592 18.2574 28.4248 18.2574 28.6311C18.2574 28.8342 18.0913 28.9999 17.8876 28.9999C17.6807 28.9999 17.5146 28.8342 17.5146 28.6311Z" fill="#00A0E3"/>
<path d="M16.2711 27.0123C16.2774 27.1092 16.2899 27.2029 16.3025 27.2998C16.3557 27.6717 16.4717 28.0374 16.7005 28.3312C16.8603 28.5406 17.0702 28.7094 17.2771 28.8719C17.1517 28.5093 17.1016 28.1218 17.1235 27.7405C17.5873 27.9374 18.4961 28.1968 18.9944 28.2593C17.6688 27.3561 16.9418 26.2934 16.5406 25.1433C16.5124 25.2246 16.4874 25.3058 16.4623 25.3871C16.3025 25.9122 16.2367 26.4653 16.2711 27.0123Z" fill="#00A0E3"/>
<path d="M14.4875 28.6311C14.4875 28.4248 14.3183 28.2592 14.1146 28.2592C13.9078 28.2592 13.7417 28.4248 13.7417 28.6311C13.7417 28.8342 13.9078 28.9999 14.1146 28.9999C14.3183 28.9999 14.4875 28.8342 14.4875 28.6311Z" fill="#00A0E3" stroke="#04A29B" stroke-width="0.288006"/>
<path d="M15.7286 27.0123C15.7224 27.1092 15.713 27.2029 15.6973 27.2998C15.644 27.6717 15.5281 28.0374 15.3024 28.3312C15.1395 28.5406 14.9327 28.7094 14.7227 28.8719C14.848 28.5093 14.9013 28.1218 14.8762 27.7405C14.4156 27.9374 13.5036 28.1968 13.0054 28.2593C14.331 27.3561 15.058 26.2934 15.4591 25.1433C15.4873 25.2246 15.5155 25.3058 15.5375 25.3871C15.7004 25.9122 15.7631 26.4653 15.7286 27.0123Z" fill="#00A0E3"/>
<path d="M24.6701 25.3308C24.5479 25.1652 24.5855 24.9339 24.7516 24.812C24.9177 24.6932 25.1496 24.7276 25.2718 24.8932C25.394 25.0589 25.3564 25.2933 25.1903 25.4121C25.0242 25.5339 24.7892 25.4964 24.6701 25.3308Z" fill="#5B5B5B"/>
<path d="M22.7109 24.7495C22.7736 24.8245 22.8362 24.8964 22.902 24.9652C23.1653 25.2339 23.4755 25.4621 23.8328 25.5684C24.0866 25.6434 24.3561 25.6559 24.6194 25.6652C24.306 25.4465 24.0365 25.1621 23.8296 24.8401C24.3185 24.7276 25.2085 24.4057 25.6472 24.1619C24.0459 24.2088 22.83 23.7775 21.8271 23.0806C21.8522 23.1618 21.8773 23.2431 21.9055 23.3243C22.0841 23.8432 22.3599 24.3276 22.7109 24.7495Z" fill="#5B5B5B"/>
<path d="M22.2195 27.1059C22.1005 26.9403 21.8654 26.9028 21.6993 27.0246C21.5332 27.1434 21.4956 27.3747 21.6179 27.5403C21.7401 27.7091 21.972 27.7435 22.1381 27.6247C22.3042 27.5028 22.3418 27.2715 22.2195 27.1059Z" fill="#5B5B5B"/>
<path d="M22.272 25.0683C22.3221 25.1495 22.3691 25.2339 22.4161 25.3183C22.5916 25.6496 22.7139 26.0121 22.7045 26.3872C22.6951 26.6497 22.6261 26.9091 22.554 27.1622C22.4412 26.7966 22.2563 26.4528 22.0119 26.1559C21.7518 26.5872 21.1689 27.331 20.8022 27.6717C21.3444 26.1653 21.3068 24.8807 20.9527 23.715C21.0216 23.7618 21.0906 23.8119 21.1595 23.865C21.5982 24.1931 21.9774 24.6057 22.272 25.0683Z" fill="#5B5B5B"/>
<path d="M28.512 18.4675C28.3177 18.405 28.2111 18.1956 28.2738 17.9987C28.3365 17.805 28.5465 17.6987 28.7439 17.7612C28.9382 17.8237 29.0447 18.0331 28.9821 18.23C28.9194 18.4238 28.7094 18.53 28.512 18.4675Z" fill="#307430"/>
<path d="M26.5869 19.1456C26.6778 19.1675 26.7718 19.1894 26.8689 19.205C27.2387 19.2706 27.6242 19.2738 27.9752 19.1487C28.2259 19.0612 28.4484 18.9143 28.6709 18.7675C28.2854 18.7737 27.9 18.7018 27.5427 18.5612C27.8749 18.1861 28.4014 17.4017 28.6145 16.9485C27.3453 17.9267 26.1074 18.2893 24.8853 18.3143C24.9542 18.3643 25.0231 18.4143 25.0921 18.4643C25.5433 18.7768 26.0542 19.0081 26.5869 19.1456Z" fill="#307430"/>
<path d="M27.5784 21.3397C27.3809 21.274 27.171 21.3834 27.1083 21.5772C27.0456 21.771 27.1522 21.9804 27.3465 22.046C27.5439 22.1085 27.7539 22.0022 27.8165 21.8053C27.8792 21.6116 27.7727 21.4022 27.5784 21.3397Z" fill="#307430"/>
<path d="M26.4183 19.6614C26.5061 19.6958 26.5969 19.7364 26.6816 19.7771C27.02 19.9427 27.3334 20.1646 27.5465 20.474C27.6938 20.6897 27.7878 20.9397 27.8818 21.1897C27.5747 20.9584 27.2206 20.7897 26.8476 20.6928C26.8947 21.1928 26.8602 22.1367 26.7662 22.6274C26.3149 21.0928 25.5252 20.074 24.5537 19.3395C24.6383 19.3364 24.7229 19.3364 24.8075 19.3395C25.3591 19.3489 25.9075 19.4583 26.4183 19.6614Z" fill="#307430"/>
<path d="M27.5784 10.6603C27.3809 10.7259 27.171 10.6165 27.1083 10.4227C27.0456 10.229 27.1522 10.0196 27.3465 9.95393C27.5439 9.89142 27.7539 9.99768 27.8165 10.1946C27.8792 10.3884 27.7727 10.5978 27.5784 10.6603Z" fill="#FFDD00"/>
<path d="M26.4183 12.3387C26.5061 12.3043 26.5969 12.2636 26.6816 12.223C27.02 12.0574 27.3334 11.8355 27.5465 11.5261C27.6938 11.3104 27.7878 11.0604 27.8818 10.8104C27.5747 11.0416 27.2206 11.2104 26.8476 11.3073C26.8947 10.8072 26.8602 9.86336 26.7662 9.37268C26.3149 10.9072 25.5252 11.9261 24.5537 12.6606C24.6383 12.6637 24.7229 12.6637 24.8075 12.6637C25.3591 12.6512 25.9075 12.5418 26.4183 12.3387Z" fill="#FFDD00"/>
<path d="M28.512 13.5324C28.3177 13.595 28.2111 13.8044 28.2738 14.0012C28.3365 14.195 28.5465 14.3013 28.7439 14.2388C28.9382 14.1763 29.0447 13.9669 28.9821 13.77C28.9194 13.5762 28.7094 13.4699 28.512 13.5324Z" fill="#FFDD00"/>
<path d="M26.5869 12.8543C26.6778 12.8324 26.7718 12.8105 26.8689 12.7949C27.2387 12.7293 27.6242 12.7261 27.9752 12.8512C28.2259 12.9387 28.4484 13.0856 28.6709 13.2324C28.2854 13.2262 27.9 13.2981 27.5427 13.4387C27.8749 13.8138 28.4014 14.5982 28.6145 15.0514C27.3453 14.0732 26.1074 13.7106 24.8853 13.6856C24.9542 13.6356 25.0231 13.5856 25.0921 13.5387C25.5433 13.2231 26.0542 12.9918 26.5869 12.8543Z" fill="#FFDD00"/>
<path d="M22.2195 4.89404C22.1005 5.05969 21.8654 5.09719 21.6993 4.9753C21.5332 4.85654 21.4956 4.62526 21.6179 4.45962C21.7401 4.29397 21.972 4.25647 22.1381 4.37523C22.3042 4.49712 22.3418 4.7284 22.2195 4.89404Z" fill="#EF7F1A"/>
<path d="M22.272 6.9318C22.3221 6.85054 22.3691 6.76616 22.4161 6.68177C22.5916 6.35048 22.7139 5.98794 22.7045 5.6129C22.6951 5.35037 22.6261 5.09096 22.554 4.8378C22.4412 5.20347 22.2563 5.54726 22.0119 5.84417C21.7518 5.41287 21.1689 4.66903 20.8022 4.32837C21.3444 5.8348 21.3068 7.11932 20.9527 8.28509C21.0216 8.23821 21.0906 8.1882 21.1595 8.13507C21.5982 7.80691 21.9774 7.39436 22.272 6.9318Z" fill="#EF7F1A"/>
<path d="M24.6701 6.66901C24.5479 6.83466 24.5855 7.06593 24.7516 7.18782C24.9177 7.30971 25.1496 7.27221 25.2718 7.10656C25.394 6.94092 25.3564 6.70652 25.1903 6.58775C25.0242 6.46586 24.7892 6.50337 24.6701 6.66901Z" fill="#EF7F1A"/>
<path d="M22.7109 7.25045C22.7736 7.17544 22.8362 7.10356 22.902 7.0348C23.1653 6.76602 23.4755 6.53787 23.8328 6.4316C24.0866 6.35659 24.3561 6.34409 24.6194 6.33472C24.306 6.55349 24.0365 6.8379 23.8296 7.15981C24.3185 7.27233 25.2085 7.59424 25.6472 7.83802C24.0459 7.79114 22.83 8.22244 21.8271 8.9194C21.8522 8.83814 21.8773 8.75688 21.9055 8.67874C22.0841 8.15681 22.3599 7.67238 22.7109 7.25045Z" fill="#EF7F1A"/>
<path d="M24.1209 16.0015C24.1209 20.4739 20.4857 24.0993 16.0012 24.0993C11.5136 24.0993 7.87842 20.4739 7.87842 16.0015C7.87842 11.5259 11.5136 7.90051 16.0012 7.90051C20.4857 7.90051 24.1209 11.5259 24.1209 16.0015Z" fill="#FEFEFE"/>
<path d="M13.554 19.78L13.5477 19.7613L13.5508 19.7707L13.554 19.78ZM13.5696 19.8113L13.5634 19.7988L13.5665 19.8051C13.5571 19.7832 13.5571 19.7832 13.5446 19.7769C13.5414 19.7894 13.5414 19.7894 13.5383 19.9238C13.5258 19.9019 13.5226 19.8957 13.5132 19.8707C13.4787 19.9582 13.4787 20.0019 13.5038 20.2239C13.5383 20.502 13.485 21.0458 13.3252 21.0583C13.2688 21.0614 13.1591 20.9802 13.1215 20.852C13.0839 20.7302 13.0369 20.0957 13.0369 20.0926C13.0432 20.0051 13.1278 19.9801 13.1685 19.9238C13.181 19.9051 13.1873 19.8832 13.1998 19.8676C13.2061 19.8582 13.2155 19.8488 13.2249 19.8394C13.2876 19.7769 13.2939 19.6832 13.3409 19.6082C13.3659 19.5644 13.3785 19.5113 13.4161 19.4738C13.4662 19.4613 13.5038 19.5738 13.5289 19.6738C13.5477 19.7488 13.554 19.7738 13.5696 19.8113ZM16.9604 16.6859V16.6891C16.9573 16.6766 16.951 16.6641 16.9447 16.6484L16.9479 16.6641L16.9604 16.6859ZM21.918 17.6923C21.9118 17.7017 21.9055 17.7111 21.8992 17.7173C21.9055 17.6798 21.8992 17.6392 21.9055 17.6017C21.9118 17.5673 21.9118 17.5673 21.9243 17.5548L21.9149 17.561C21.8898 17.5798 21.8616 17.6173 21.8491 17.7423L21.8428 17.7361C21.8397 17.7517 21.846 17.8861 21.8522 17.9173C21.8616 17.9767 21.8773 17.9798 21.8867 17.9767C21.8522 17.8236 21.9525 17.8267 21.9525 17.8267C21.94 17.7673 21.94 17.7392 21.9745 17.6392C21.9557 17.6329 21.9149 17.6798 21.918 17.6923ZM21.542 16.1452C21.5639 16.0984 21.5733 16.0702 21.5733 16.0484V16.0421C21.6015 16.0671 21.6297 16.1171 21.6266 16.164C21.6235 16.1734 21.6203 16.1827 21.6203 16.189C21.5953 16.1359 21.5702 16.1296 21.5326 16.1671V16.1546C21.5357 16.139 21.5357 16.139 21.5357 16.139L21.542 16.1452ZM21.4918 16.5359C21.5107 16.539 21.5483 16.4765 21.5639 16.4422C21.5639 16.4422 21.5733 16.389 21.5765 16.364C21.5827 16.2796 21.5451 16.2859 21.5451 16.2859C21.5044 16.3171 21.4574 16.5359 21.4918 16.5359ZM21.7958 16.8797C21.8021 16.961 21.8021 16.9641 21.8178 16.9766C21.824 16.9547 21.8303 16.9235 21.8334 16.9016C21.8366 16.8985 21.8742 16.5953 21.7708 16.4672V16.464C21.7833 16.4578 21.7833 16.4578 21.777 16.3671C21.7708 16.3859 21.7614 16.4046 21.7551 16.4234L21.7614 16.4484C21.7269 16.4234 21.7269 16.4234 21.7175 16.2578C21.7896 16.289 21.7676 16.1765 21.7457 16.1265C21.7175 16.0577 21.7112 16.0609 21.6454 16.0671C21.5953 15.8983 21.5953 15.8983 21.5733 15.8952C21.5608 15.9046 21.5608 15.9046 21.5545 15.9265C21.542 15.8452 21.4542 15.8452 21.4354 15.8608C21.426 15.8702 21.4229 15.8827 21.4229 15.8921C21.4166 15.864 21.4166 15.8452 21.4135 15.8046H21.4166C21.4166 15.7889 21.4198 15.7827 21.4166 15.7671V15.7546C21.4104 15.6139 21.4542 15.4702 21.3978 15.3326C21.3571 15.2295 21.2161 15.2983 21.1722 15.2014L21.1691 15.1951L21.1722 15.2076C21.1879 15.3295 21.1377 15.4545 21.1941 15.5733C21.1879 15.5702 21.1753 15.5764 21.1659 15.5795C21.1471 15.6514 21.1816 15.7858 21.2505 15.8358C21.2725 15.8233 21.2756 15.8077 21.2599 15.7796C21.2944 15.8015 21.2944 15.8015 21.2788 15.9202L21.2568 15.9233C21.238 15.9671 21.2631 15.9952 21.3571 16.1015C21.4104 16.0359 21.3446 15.9608 21.3007 15.9233C21.3226 15.9171 21.3446 15.914 21.3947 15.9202C21.3822 15.9483 21.3978 15.9608 21.4135 15.9671C21.4229 15.9608 21.4323 15.9577 21.4198 15.9265C21.4793 15.9452 21.4981 16.0077 21.5451 16.039C21.5357 15.9952 21.5138 15.9765 21.5075 15.9733C21.5107 15.9546 21.5138 15.9015 21.5702 15.9608C21.6015 15.9952 21.6297 16.0515 21.6391 16.0671L21.6329 16.0702C21.6235 16.1171 21.6235 16.1171 21.7018 16.2265C21.6861 16.239 21.6736 16.2421 21.6611 16.2234H21.6705C21.6705 16.2046 21.6705 16.2046 21.6611 16.1859C21.6548 16.1921 21.6517 16.1984 21.6579 16.2171L21.6517 16.2077C21.636 16.2484 21.6391 16.2796 21.6548 16.3359H21.6485C21.6485 16.3359 21.6485 16.3359 21.6767 16.3859L21.752 16.5203C21.7363 16.5765 21.7363 16.5765 21.6141 16.7109L21.6203 16.6984C21.6015 16.6672 21.5013 16.6734 21.4824 16.7391C21.4699 16.7828 21.4762 16.8266 21.4542 16.8641C21.495 16.8141 21.5044 16.7922 21.5075 16.7797C21.5263 16.8047 21.5577 16.7953 21.589 16.7891C21.6203 16.7797 21.6485 16.7703 21.6485 16.8047C21.6485 16.8547 21.6141 16.9016 21.6297 16.9516C21.6454 16.9985 21.6987 17.0141 21.7238 17.0547C21.7238 16.986 21.7802 16.9422 21.7958 16.8797ZM21.4542 16.8672V16.8641L21.4417 16.8797L21.4542 16.8672ZM21.636 18.3705C21.6611 18.3861 21.7049 18.3705 21.7175 18.3393V18.3236C21.7143 18.2955 21.6799 18.2705 21.6454 18.2736C21.6172 18.2799 21.6141 18.3017 21.6141 18.308C21.6141 18.3205 21.6078 18.3549 21.636 18.3705ZM22.4477 19.2831C22.2565 19.53 22.1813 19.8457 21.9588 20.0676C21.8272 20.1988 21.7958 19.9363 21.7958 19.9332C21.7896 19.8551 21.7896 19.8551 22.0246 19.4238C22.0089 19.4394 22.0089 19.4394 21.9651 19.4831C21.9651 19.455 21.9839 19.43 21.987 19.4019C21.9588 19.4644 21.9588 19.4644 21.7457 19.33C21.6611 19.4894 21.6611 19.4894 21.6203 19.4988C21.5326 19.5238 21.4072 19.6238 21.354 19.8332C21.3132 19.8113 21.307 19.8113 21.2474 19.8332C21.2537 19.7582 21.1691 19.7394 21.1534 19.6769C21.1409 19.6894 20.9215 19.9144 20.8118 19.9582C20.8087 20.0051 20.8024 20.0176 20.7805 20.0707L20.7742 20.052C20.7585 20.0676 20.7585 20.0676 20.7397 20.1082C20.7397 20.0832 20.7397 20.0582 20.7585 19.9769C20.7053 20.0113 20.6645 20.0395 20.5517 20.1676C20.442 20.2957 20.4044 20.3239 20.348 20.3551C20.2509 20.4082 20.1381 20.4176 20.0378 20.4614C19.9124 20.5208 19.8247 20.6426 19.6743 20.6552C19.6743 20.6426 19.6774 20.6208 19.6837 20.6083C19.4706 20.7177 19.4047 20.9614 19.3797 21.0677C19.364 21.1208 19.364 21.1208 19.3483 21.1396C19.3483 21.1271 19.3452 21.1115 19.3421 21.1021C19.2073 21.2615 19.2543 21.4896 19.1352 21.6553C19.0632 21.7584 18.9441 21.8147 18.8814 21.9272C18.8783 21.9366 18.8783 21.9491 18.8783 21.9553C18.9409 22.0084 19.1196 21.9397 19.2481 21.8865C19.2575 21.8834 20.1098 21.5709 20.2665 21.6865C20.2665 21.7178 20.2665 21.7178 20.1161 21.9772C20.2321 21.899 20.3574 21.8334 20.464 21.7459C20.395 21.8803 20.2415 21.9147 20.1349 22.0022C20.1788 21.9959 20.1945 21.9834 20.3167 21.8959C20.3135 21.9022 20.3135 21.9022 20.1757 22.0209L20.1945 22.0272C20.16 22.1335 20.019 22.1647 20.0064 22.2866C20.0221 22.3022 20.0221 22.3022 20.2383 22.2335C20.2101 22.2585 20.2101 22.2585 20.1819 22.271H20.2039C20.1945 22.296 20.1945 22.296 20.16 22.3335C21.0657 21.9115 21.6109 21.3052 21.8021 21.0646C21.7927 21.0771 21.7802 21.0927 21.7708 21.1021C21.7896 21.0802 21.8084 21.0583 21.8272 21.0333L21.8146 21.0489L21.8209 21.0396L21.824 21.0364L21.8397 21.0146L21.8303 21.0302C21.8522 20.9989 21.9243 20.9021 21.9713 20.777C22.0121 20.6708 22.0622 20.5676 22.0967 20.4583C22.1311 20.3645 22.1061 20.2582 22.1531 20.1676C22.338 19.7988 22.338 19.7988 22.3442 19.6675C22.3536 19.4363 22.3975 19.3706 22.4508 19.2831H22.4477ZM19.4831 18.6362C19.4737 18.6143 19.4737 18.6143 19.4706 18.6049C19.5019 18.5924 19.5364 18.6018 19.5646 18.583C19.5928 18.5643 19.6304 18.5299 19.6429 18.4955C19.6868 18.3674 19.646 18.2392 19.6241 18.1736C19.7056 18.3111 19.7244 18.3455 19.8059 18.3017C19.7777 18.2736 19.7965 18.2455 19.8059 18.2392L19.8247 18.2455L19.8121 18.2299H19.8153L19.809 18.2236H19.8059C19.6523 18.0767 19.6523 18.0767 19.5959 18.1142C19.5458 18.0267 19.4831 17.9486 19.4455 17.8548C19.4267 17.7986 19.4392 17.7392 19.411 17.686C19.3922 17.6454 19.3734 17.6392 19.3327 17.6267C19.3201 17.6485 19.3201 17.6517 19.3233 17.6704C19.3013 17.6454 19.2888 17.6329 19.2637 17.6173C19.2794 17.6235 19.2794 17.6235 19.2919 17.6204C19.3076 17.5642 19.2293 17.4985 19.2261 17.4954C19.1634 17.4454 19.082 17.4173 19.0193 17.3641C18.9378 17.2954 18.8845 17.2016 18.7937 17.1391C18.7655 17.1172 18.7028 17.0766 18.6213 17.0766H18.5994C18.7247 17.1016 18.9159 17.5017 19.1697 18.0923C19.3421 18.4986 19.4204 18.6768 19.4831 18.6362ZM22.6388 18.0861C22.4884 18.0892 22.4727 18.2799 22.338 18.3017C22.2847 18.308 22.316 18.1392 22.316 18.1361L22.3129 18.1455C22.3286 17.9861 22.338 17.9142 22.2314 17.9236C22.1844 17.9361 22.1437 17.958 22.0935 18.0205C22.0998 17.9705 22.0841 17.9611 22.0779 17.9548C22.0685 17.958 22.0653 17.9611 22.0528 17.9798C22.1155 18.0861 22.1719 18.1799 22.2722 18.1517C22.2346 18.2017 22.1687 18.1955 22.1249 18.2299C22.1907 18.2861 22.1061 18.358 22.1437 18.4174C22.1562 18.4174 22.1656 18.4174 22.2158 18.3205C22.2095 18.3643 22.2064 18.3893 22.2314 18.4236C22.2565 18.4611 22.3066 18.4643 22.338 18.4924C22.3881 18.5393 22.3881 18.5455 22.3975 18.8612C22.3912 18.8424 22.3693 18.7956 22.269 18.9925C22.3223 18.9675 22.3818 18.9706 22.432 18.9456C22.3787 19.0987 22.4915 19.0925 22.5009 19.0862C22.5103 19.0831 22.6043 19.0081 22.5887 18.9706H22.5824C22.6325 18.9456 22.6325 18.9456 22.6451 18.9362L22.642 18.9268L22.6451 18.9331C22.6576 18.9174 22.667 18.9081 22.6796 18.8706C22.6921 18.9174 22.7422 18.9424 22.7516 18.9893C22.7704 19.0643 22.7297 19.1456 22.7642 19.2206C22.8049 19.3112 22.8519 19.2675 22.8519 19.2675C22.8676 19.2487 22.8707 19.2112 22.8739 19.1894C22.8895 19.0987 22.8488 19.0112 22.8613 18.9206C22.8739 18.8299 22.9334 18.7518 22.9459 18.6612C22.9491 18.633 22.9491 18.5987 22.9428 18.5705C22.9428 18.5674 22.8112 18.083 22.6388 18.0861ZM16.8319 16.5078C16.8131 16.489 16.8068 16.4984 16.8068 16.4984C16.8068 16.4984 16.8006 16.5109 16.8162 16.5109C16.8162 16.5109 16.8225 16.5109 16.8288 16.5078H16.8319ZM16.9479 16.6641C16.9541 16.8141 16.951 16.9266 16.9322 16.9922C16.8852 17.1547 16.7849 17.0078 16.7849 17.0047C16.741 16.9297 16.7598 16.8391 16.7818 16.7359C16.8068 16.6265 16.8194 16.5547 16.7818 16.4953C16.7755 16.4953 16.7598 16.4922 16.7567 16.4734L16.7661 16.4797L16.763 16.4734C16.7692 16.4672 16.7755 16.464 16.7849 16.464C16.7974 16.464 16.8538 16.4672 16.9259 16.5515C16.9416 16.5734 16.9698 16.6172 16.9447 16.6484C16.9416 16.6516 16.9416 16.6516 16.9479 16.6641ZM23.2656 18.4549V18.458C23.3032 18.3268 23.2938 18.2017 23.2593 18.2049C23.2499 18.208 23.2436 18.2142 23.2342 18.2267C23.2342 18.2361 23.2374 18.2424 23.2374 18.258L23.2311 18.2549L23.2217 18.2705C23.228 18.2705 23.228 18.2705 23.2342 18.2642C23.2405 18.3049 23.2311 18.4268 23.2311 18.4268L23.2123 18.4486C23.1904 18.483 23.1778 18.5205 23.1496 18.5549C23.134 18.5737 23.1277 18.5705 23.1214 18.5674C23.0932 18.5455 23.0807 18.5361 23.0431 18.5768C23.0368 18.583 23.0368 18.583 23.0211 18.6643C23.0243 18.6674 23.1371 18.7237 23.228 18.4611C23.228 18.5018 23.228 18.5143 23.2311 18.5205H23.2342C23.2499 18.5049 23.253 18.4955 23.2593 18.4799L23.2656 18.4643V18.458V18.4611V18.4549ZM16.9667 16.6328C16.9604 16.6328 16.9573 16.6391 16.9447 16.6484C16.9573 16.6734 16.9604 16.6734 16.9604 16.6734L16.9573 16.6609H16.9635V16.6578L16.9698 16.6422L16.9667 16.6328ZM12.2534 12.2041C12.3882 12.2167 12.4603 12.1291 12.4791 12.1041C12.5511 12.0041 12.4133 11.8385 12.2409 11.7322C12.1782 11.6916 12.1124 11.7103 12.0497 11.7291C11.9902 11.7447 11.9307 11.7635 11.8711 11.7322C11.8648 11.7041 11.8648 11.7041 11.9745 11.6103C11.8836 11.5603 11.821 11.5322 11.7395 11.5728L11.727 11.5603L11.7332 11.5728H11.7364C11.658 11.6166 11.6047 11.7072 11.5452 11.8104C11.4763 11.9322 11.4512 11.9541 11.3854 12.0073C11.4104 12.026 11.4198 12.0323 11.4418 12.0729C11.4575 12.1041 11.4825 12.1541 11.5107 12.1635C11.5891 12.1791 11.6549 12.1479 11.7176 12.1135C11.7834 12.0823 11.8492 12.0479 11.9244 12.0666C12.0435 12.0916 12.1281 12.1916 12.2534 12.2041ZM12.0685 11.5853C12.0372 11.6353 12.0999 11.6478 12.2628 11.676C12.2785 11.6385 12.3036 11.576 12.3475 11.5916C12.3443 11.5728 12.3443 11.5697 12.3224 11.5572C12.3036 11.5478 12.3004 11.5447 12.3036 11.5228C12.3412 11.5291 12.3788 11.5166 12.4195 11.4884L12.4321 11.4791C12.3537 11.4353 12.2033 11.4884 12.0967 11.5603L12.1061 11.5509C12.1061 11.5541 12.0842 11.5697 12.0717 11.5791V11.5822H12.0685V11.5853ZM13.0149 11.8447C13.0369 11.8541 13.0369 11.8541 13.0651 11.8416C12.9899 11.9572 13.0055 12.0135 13.1497 12.1291C13.2406 12.2041 13.2625 12.2292 13.2719 12.276C13.1685 12.2604 13.1184 12.4448 13.1278 12.5073C13.1403 12.6073 13.228 12.6542 13.3001 12.6917C13.3221 12.7042 13.3221 12.7073 13.3252 12.7167C13.3847 12.7542 13.438 12.7323 13.4913 12.7136C13.5289 12.698 13.5665 12.6855 13.6072 12.6886C13.6041 12.3323 13.601 12.1166 13.4474 11.9666C13.3409 11.8635 13.3346 11.8385 13.3315 11.7979C13.344 11.7822 13.3722 11.7697 13.391 11.7666C13.3659 11.7103 13.3659 11.7103 13.5383 11.676C13.5132 11.6541 13.507 11.6478 13.5195 11.5885C13.5289 11.5478 13.5446 11.4853 13.4161 11.4791C13.2751 11.4728 13.2249 11.6291 13.0996 11.6541C13.0839 11.6541 13.0714 11.6478 13.062 11.6353C13.062 11.7072 12.9993 11.7666 13.0149 11.8447ZM18.6088 15.5108C18.6025 15.5045 18.5962 15.4952 18.5931 15.4858C18.4521 15.5764 18.4521 15.5764 18.4113 15.5233C18.3549 15.4514 18.3393 15.3389 18.333 15.2858C18.3017 15.0576 18.1105 14.9201 18.0008 14.7388C17.9883 14.7169 17.9726 14.6857 17.9601 14.6669C17.9475 14.6451 17.9287 14.6169 17.9131 14.5982C17.8943 14.6013 17.8661 14.6013 17.8473 14.6044C17.8347 14.6982 17.8347 14.6982 17.7971 14.742C17.7846 14.7263 17.772 14.7044 17.7658 14.6857C17.7564 14.7013 17.7376 14.7201 17.725 14.7294C17.7062 14.7232 17.6812 14.7201 17.6624 14.7232C17.6561 14.7294 17.6467 14.742 17.6404 14.7482L17.6185 14.7294L17.5934 14.7451C17.5809 14.7326 17.5715 14.7076 17.5715 14.6888C17.4242 15.0295 17.0325 15.1608 16.882 15.5014C16.7379 15.8265 16.8319 16.2015 16.6689 16.5234C16.647 16.5734 16.6157 16.6453 16.5687 16.6703C16.3806 16.7828 15.5314 15.2514 15.7978 14.742C15.7884 14.7357 15.7758 14.7294 15.7664 14.7232C15.7664 14.7044 15.7601 14.6826 15.7539 14.6638C15.7445 14.6607 15.7351 14.6576 15.7257 14.6576C15.7288 14.6669 15.7382 14.6826 15.7413 14.6919C15.7664 14.7857 15.6411 14.8826 15.5659 14.8732C15.4311 14.8513 15.4562 14.6919 15.359 14.6357C15.453 14.6263 15.4656 14.5951 15.4781 14.5701C15.3966 14.5732 15.3246 14.5576 15.2149 14.4763C15.0425 14.3325 15.0206 14.245 15.0112 14.2138C14.8639 14.1356 14.7072 14.1575 14.5505 14.1794C14.3813 14.2013 14.2089 14.2263 14.0522 14.1231C14.0209 14.1012 13.9833 14.0731 13.952 14.0575C13.8767 14.0106 13.7953 14.0169 13.7138 14.02C13.6417 14.0231 13.5665 14.0262 13.4976 13.995C13.3127 13.9075 13.3315 13.6418 13.1278 13.5762C13.1152 13.5699 13.0964 13.5731 13.0839 13.5699C13.0839 13.5699 13.04 13.6231 12.9679 13.6699C13.04 13.6887 13.0526 13.7043 13.0808 13.845L13.3001 14.3138C13.4192 14.445 13.8579 14.4325 13.8767 14.0762C13.9614 14.1669 13.8924 14.295 13.9614 14.3857C14.0303 14.4794 14.1713 14.4575 14.234 14.5576C14.2528 14.5888 14.2559 14.6451 14.2497 14.6826C14.2246 14.7982 14.0585 15.1201 13.5947 15.4858C13.5853 15.492 12.6859 16.1984 12.4885 16.0077L11.7426 14.0575C11.7332 14.0356 11.7238 14.0075 11.7144 13.9856C11.6674 13.8418 11.6768 13.7575 11.6925 13.6606C11.5985 13.7856 11.6016 13.8262 11.6047 13.9106C11.5139 13.7887 11.4857 13.7168 11.4763 13.5981C11.3822 13.7575 11.3728 13.8762 11.5577 14.2044C11.6956 14.4482 11.6956 14.4482 11.9056 15.1951C11.9933 15.5139 12.0873 15.6827 12.2409 15.8015C12.313 15.8577 12.4477 15.9608 12.4759 16.0296C12.5167 16.1202 12.4759 16.1546 12.4007 16.214C12.7799 16.3546 12.7799 16.3546 12.8739 16.3265C13.3691 16.1796 13.3691 16.1796 13.3753 16.2046C13.3785 16.2265 13.4599 16.7422 12.6765 17.7267C11.8993 18.6987 12.4759 19.2394 12.4822 19.2456C12.4791 19.2581 12.4791 19.2737 12.4759 19.2831C12.4885 19.4738 12.6138 19.6332 12.6232 19.8238C12.6358 20.0645 12.3663 20.1082 12.3004 20.2926C12.2158 20.5301 12.5135 20.6739 12.4571 20.9052C12.4383 20.9927 12.3663 21.0458 12.3255 21.074C12.4415 21.1833 12.5511 21.2834 12.407 21.6646C12.266 22.0303 11.9463 21.9397 11.9432 21.9366C11.8805 21.9084 11.1315 21.1177 11.1002 21.0833C10.8683 20.8364 10.3794 20.0988 10.3763 20.0926C10.2447 19.8394 10.2791 19.5425 10.1632 19.2831L10.1538 19.2612C10.1507 19.255 9.85922 18.7706 9.91876 18.6518C9.7276 18.558 9.34841 18.0955 9.4957 17.8361C9.32961 17.6579 9.50197 17.3735 9.29201 17.211C9.2826 17.2172 9.2732 17.2297 9.2638 17.236C9.2544 17.2329 9.23873 17.2266 9.22933 17.2235C9.21679 17.2391 9.18859 17.2547 9.16979 17.2579C8.87521 16.9641 8.87521 16.9641 8.79373 17.0266C8.39888 17.3173 8.35187 17.2047 8.27039 17.0172C8.27039 17.0141 8.08236 16.4797 8.03536 15.7327C8.01342 15.4264 8.13564 15.1389 8.12624 14.8326C8.12624 14.8451 8.1231 14.8607 8.1231 14.8701C8.16697 14.2294 8.85641 13.1043 8.86581 13.0918C8.96922 12.9386 9.01937 12.8792 9.04757 12.8667C9.09144 12.8511 9.11965 12.8855 9.15725 12.8949C9.18859 12.9011 9.20113 12.8949 9.33274 12.8073C9.45183 12.7261 9.4957 12.7011 9.56778 12.6823C9.59912 12.6761 9.59912 12.6761 9.90309 12.6542C9.97204 12.6511 10.019 12.6511 9.95323 12.7948C9.90936 12.8949 9.83102 12.9792 9.81848 13.0918C9.84669 13.3012 10.3481 13.695 10.4421 13.3949C10.486 13.2574 10.5393 13.2261 10.5737 13.2261C10.5894 13.2261 10.6113 13.2261 10.627 13.2293C10.7774 13.2574 10.8683 13.398 11.0156 13.4355C11.0877 13.4543 11.1566 13.4324 11.2224 13.4105C11.2882 13.3918 11.354 13.3699 11.423 13.3855C11.4324 13.4074 11.4512 13.4355 11.4669 13.4543C11.6737 13.4262 11.7646 13.2418 11.8366 13.0918C11.9777 12.7948 11.9275 12.7323 11.9119 12.7198C11.9119 12.7198 11.5703 12.7292 11.4951 12.7355C11.3509 12.7448 11.2663 12.7167 11.2381 12.7073C11.2444 12.698 11.2506 12.6886 11.2538 12.6792C11.2318 12.673 11.2036 12.6698 11.1817 12.6667C11.1911 12.6136 11.1848 12.5542 11.213 12.5011C11.1221 12.4042 11.2506 12.3135 11.2381 12.2198C11.1754 12.176 11.119 12.1604 11.0438 12.2104C11.0407 12.2323 11.0469 12.2635 11.0563 12.2854C11.0344 12.2854 11.0093 12.2885 10.9874 12.2948C10.9874 12.3042 10.9843 12.3167 10.9811 12.3292C10.9717 12.3042 10.956 12.276 10.9435 12.2542C10.9184 12.3604 10.9968 12.4511 10.9811 12.5573C10.9749 12.5479 10.9686 12.5354 10.9623 12.5261C10.9623 12.5448 10.9498 12.5729 10.9372 12.5854C10.9216 12.5729 10.8965 12.5667 10.8746 12.5667C10.884 12.5761 10.8934 12.5886 10.8996 12.5979C10.884 12.6136 10.862 12.6323 10.8432 12.6448C10.8432 12.6698 10.8401 12.7011 10.837 12.7261C10.8276 12.7323 10.815 12.7386 10.8056 12.7448C10.6709 12.6573 10.7524 12.5511 10.7806 12.5167C10.7586 12.5167 10.7116 12.5136 10.6991 12.4479C10.6834 12.3729 10.7085 12.251 10.7085 12.251C10.7367 12.126 10.6489 12.0291 10.6333 11.9135C10.627 11.8822 10.6051 11.8479 10.6019 11.8166C10.6019 11.7885 10.6113 11.751 10.627 11.7291C10.6207 11.7197 10.6145 11.7072 10.6113 11.6978C10.6019 11.701 10.5894 11.7041 10.58 11.7072C10.5706 11.7041 10.5581 11.6978 10.5487 11.6916C10.4484 11.7635 10.4108 11.7916 10.4264 11.9354C10.439 12.0823 10.5863 12.1635 10.6113 12.3073C10.5831 12.3167 10.5549 12.3104 10.5299 12.3042C10.511 12.301 10.4922 12.2948 10.4734 12.2979C10.4734 12.301 10.4578 12.4854 10.3732 12.5823C10.3356 12.5792 10.3074 12.5948 10.276 12.6136C10.2478 12.6261 10.2196 12.6417 10.1851 12.6417C10.1319 12.5417 10.3136 12.5448 10.3638 12.4761C10.511 12.2698 10.2917 11.8979 10.2886 11.8947C10.2415 11.8166 10.1695 11.8416 10.0974 11.8666C10.0629 11.8791 10.0253 11.8916 9.99084 11.8916C9.99084 11.8916 9.99084 11.8916 9.96577 11.8916C9.96577 11.8947 9.64299 12.151 9.4769 12.4417C9.36408 12.6355 9.245 12.748 9.11651 12.7855C9.06951 12.7511 9.07577 12.6917 9.04757 12.648C9.03817 12.6511 9.0225 12.6542 9.0131 12.6573C9.07891 12.5073 9.07891 12.5073 9.11338 12.4417L9.10711 12.4511C9.36408 11.9041 9.36408 11.9041 9.58345 11.9135C9.6994 11.9197 9.98771 11.5666 9.87802 11.3728C9.94383 11.3322 9.94697 11.3322 10.0472 11.304C10.1131 11.1415 10.8119 10.754 10.8182 10.754L10.8401 10.7759C10.9184 10.6946 10.9623 10.5883 11.0375 10.5039C11.0501 10.4914 11.0689 10.4758 11.0814 10.4633H11.0845C11.1441 10.4133 11.1691 10.4102 11.2036 10.4071C11.1441 10.4696 11.1033 10.5477 11.0313 10.5946C11.0407 10.5946 11.0563 10.5915 11.0689 10.5915C11.0313 10.6477 11.0313 10.6477 10.9843 10.654C10.9874 10.6415 10.9937 10.629 10.9999 10.6165C10.9623 10.679 10.9623 10.6821 10.9843 10.7196C10.9843 10.7196 11.0438 10.7133 11.1284 10.7071C11.1221 10.7133 11.1096 10.7196 11.1002 10.7258C11.1065 10.7352 11.1127 10.7477 11.119 10.7571C11.1221 10.7571 11.4387 10.729 11.5076 10.6852C11.6079 10.5352 11.6925 10.4383 11.7614 10.3946C11.7802 10.4071 11.799 10.4258 11.8084 10.4414C11.9244 10.4289 11.8962 10.3071 11.9589 10.2508C11.9965 10.2164 11.9965 10.2164 12.313 10.1977C12.3098 10.1852 12.3067 10.1695 12.3004 10.157C12.291 10.1508 12.2754 10.1445 12.266 10.1383L12.2597 10.1133C11.9777 10.1633 11.9777 10.1633 11.9275 10.1445C12.0121 10.0164 12.0121 10.0164 12.338 9.76636C12.2064 9.6726 12.1688 9.78511 12.1563 9.82262C11.7176 9.99139 11.7395 10.1258 11.7489 10.1883C11.2788 10.5977 11.2788 10.5977 11.1629 10.6071C11.166 10.5946 11.1723 10.579 11.1754 10.5665C11.0814 10.6633 11.0814 10.6633 11.0532 10.6852C11.0438 10.679 11.0313 10.6727 11.0219 10.6696C11.0814 10.6477 11.0814 10.6477 11.0908 10.5758C11.2224 10.6008 11.307 10.3414 11.3415 10.2289C11.2444 10.3071 11.2036 10.3321 11.1253 10.3602C11.1159 10.3539 11.1065 10.3446 11.0971 10.3414C11.1033 10.3039 11.1284 10.2727 11.1284 10.2383C11.2099 10.1633 11.2538 10.0539 11.3634 10.0039C11.4324 9.97264 11.4418 9.96638 11.5013 9.93826C11.6768 9.85387 11.8335 9.73823 11.9996 9.64135H12.0027C12.0779 9.59134 12.0967 9.57884 12.1124 9.56634L12.1281 9.55071C12.1061 9.55696 12.0748 9.56009 12.0497 9.56321C12.1124 9.52571 12.1814 9.50383 12.2472 9.47258C12.2378 9.47883 12.2315 9.49133 12.2252 9.49758C12.3067 9.49133 12.3663 9.43195 12.4415 9.41007C12.4415 9.41945 12.4383 9.43507 12.4383 9.44445C12.5229 9.42257 12.5229 9.42257 12.5355 9.41007C12.548 9.41007 12.5605 9.41319 12.5731 9.41632C12.6044 9.37569 12.6107 9.36631 12.6828 9.34131C12.6922 9.34756 12.7047 9.35381 12.7141 9.36006C12.6953 9.37256 12.6671 9.38819 12.6483 9.40382C12.7172 9.36944 12.7893 9.36006 12.8175 9.35381C12.8113 9.36006 12.7987 9.36944 12.7893 9.37569C12.8018 9.37256 12.8175 9.36631 12.8301 9.36319C12.8395 9.36944 12.8551 9.37569 12.8645 9.38194C12.8426 9.39132 12.8113 9.40069 12.7862 9.41007C12.8959 9.41632 12.8959 9.41632 12.9115 9.41945C12.9115 9.42882 12.9147 9.44132 12.9178 9.4507C13.1027 9.49133 13.1716 9.50696 13.1904 9.55071C13.2186 9.61322 13.1058 9.69135 13.0526 9.70073C12.9523 9.72261 12.8802 9.64447 12.7893 9.63197C12.8457 9.86637 12.8457 9.86637 12.9115 9.85075C12.9053 9.82887 12.8959 9.80387 12.8833 9.78511C13.0212 9.78199 13.1215 9.66635 13.2594 9.66947C13.2657 9.67885 13.2719 9.68823 13.2782 9.6976C13.3315 9.58196 13.3315 9.58196 13.3409 9.54133C13.3346 9.53508 13.3283 9.52258 13.3221 9.51321C13.4129 9.46633 13.4599 9.48508 13.4631 9.56946C13.3847 9.57259 13.3691 9.57571 13.3565 9.6351C13.4505 9.64135 13.5289 9.60384 13.6072 9.56321C13.6856 9.52258 13.7639 9.48508 13.8548 9.49133C13.836 9.50383 13.8109 9.52258 13.7953 9.53821C14.071 9.52258 14.1118 9.50383 14.1619 9.4757C14.1588 9.47258 14.1588 9.47258 14.0585 9.39444C14.5098 9.52883 14.5098 9.52883 14.5286 9.52571C14.4722 9.46633 14.4471 9.41007 14.4596 9.36006C14.4753 9.28193 14.5756 9.27568 14.5944 9.19754C14.6163 9.20067 14.6445 9.20692 14.6633 9.21317H14.6696C14.679 9.2163 14.6947 9.22255 14.7041 9.22567C14.7511 9.32568 14.7323 9.44445 14.7824 9.54446C14.7542 9.61947 14.7542 9.62572 14.6539 9.66635C14.8858 9.65072 14.8608 9.56321 14.8482 9.51321C14.9454 9.4632 14.9986 9.56321 15.0738 9.58196H15.077C14.9673 9.49133 14.82 9.4507 14.7448 9.31943C14.7981 9.28505 14.7981 9.28505 14.8106 9.23192C14.82 9.23817 14.8294 9.24442 14.8388 9.25068C14.8388 9.2788 14.8451 9.31318 14.8513 9.33819C14.8702 9.34756 14.8702 9.34756 14.9986 9.35694C14.9861 9.33819 14.9861 9.33819 14.8952 9.29443C14.9046 9.29443 14.9172 9.29756 14.9266 9.30068C14.936 9.29443 14.9454 9.28505 14.9516 9.2788C14.9454 9.27568 14.9328 9.2663 14.9234 9.26318C14.9266 9.26318 15.0832 9.29756 15.1804 9.30068C15.1334 9.23817 15.1083 9.22255 15.0268 9.21005C15.0268 9.21005 15.0268 9.21005 15.0425 9.20379C15.1303 9.17879 15.2243 9.20692 15.312 9.16942C15.3026 9.16629 15.2869 9.16004 15.2775 9.15691C15.2587 9.06628 15.3057 9.06628 15.5063 9.0694C15.5188 9.05378 15.547 9.04128 15.5659 9.03815C15.5659 9.03815 15.6223 9.05378 15.7601 9.04753C15.7507 9.04128 15.7413 9.0319 15.7319 9.02565C15.7413 9.02565 15.7539 9.02565 15.7633 9.02565C15.7978 8.97877 15.7978 8.97877 15.8448 8.96939C16.0422 8.96627 16.2239 9.03815 16.4057 9.11003C16.5843 9.18192 16.763 9.2538 16.9604 9.25068C16.9667 9.2413 16.9761 9.23192 16.9792 9.22567C16.9761 9.21317 16.9729 9.20067 16.9698 9.19129C17.1672 9.2413 17.3364 9.39132 17.5558 9.34444C17.5527 9.33506 17.5495 9.31943 17.5464 9.30693C17.6436 9.27568 17.7376 9.32568 17.8316 9.33506C17.8316 9.33506 17.8316 9.33506 17.8096 9.32881L17.7846 9.31006C17.8222 9.30693 17.8222 9.30693 17.8849 9.31318C17.8629 9.30381 17.8316 9.2913 17.8065 9.28193C17.8034 9.27255 17.8002 9.26005 17.7971 9.25068C18.1638 9.21942 18.1888 9.23817 18.286 9.31631C18.3957 9.40382 18.5179 9.39444 18.6401 9.38194C18.7028 9.37882 18.7655 9.37256 18.825 9.37882C18.9848 9.40069 19.1446 9.40069 19.3013 9.42257C19.3233 9.42257 19.3452 9.43507 19.364 9.44445C19.3546 9.44445 19.3421 9.4382 19.3327 9.43507C19.4643 9.48508 19.4831 9.4882 19.5458 9.49758C19.4047 9.4382 19.4047 9.4382 19.3859 9.40382C19.6993 9.38819 20.4577 9.59447 20.5831 9.73198C20.5736 9.73198 20.558 9.73198 20.5486 9.73198C20.5642 9.73823 20.6426 9.77574 20.7084 9.82574C20.5266 9.92263 20.4264 9.73511 20.2791 9.70385C20.3512 9.75386 20.3512 9.75386 20.3794 9.77261C20.3731 9.78199 20.3668 9.79136 20.3606 9.80074C20.4859 9.86637 20.6238 9.91325 20.7397 9.99764C20.699 9.98201 20.6927 9.97889 20.6301 9.97264C20.6395 9.98514 20.6489 10.0039 20.6551 10.0164C20.6489 10.0258 20.6395 10.0351 20.6332 10.0445C20.6739 10.0789 20.6802 10.0883 20.7241 10.1633C20.7209 10.1695 20.7147 10.182 20.7084 10.1914C20.5548 10.157 20.5141 10.1664 20.4828 10.1758C20.4953 10.257 20.7115 10.3789 20.7115 10.3821C20.7147 10.3821 20.9622 10.529 21.0876 10.6758C21.0876 10.6883 21.0845 10.704 21.0845 10.7165C21.1158 10.754 21.1158 10.754 21.2035 10.8415C21.2035 10.8415 21.2035 10.8415 21.1879 10.8477C21.2098 10.9227 21.2662 10.979 21.3038 11.0446C21.3101 11.054 21.3164 11.0915 21.3226 11.1259C21.3164 11.1196 21.307 11.1071 21.2976 11.0978C21.2913 11.0853 21.3007 11.0696 21.3007 11.0571C21.0531 10.7884 20.7209 10.6227 20.4483 10.3821H20.4514C20.4577 10.3727 20.4671 10.3602 20.4734 10.3508C20.37 10.0633 20.1725 9.97576 20.1161 9.97576C20.1757 10.0195 20.1913 10.0289 20.2446 10.0601C20.2352 10.0601 20.2227 10.0633 20.2133 10.0633C20.2195 10.0883 20.2321 10.1195 20.2415 10.1414C20.0722 10.0289 20.0566 10.0226 19.9782 10.007L19.9563 10.0289C19.9657 10.0883 19.9657 10.0883 20.1851 10.2664C20.1098 10.3696 20.0252 10.2945 20.0064 10.2789C20.0158 10.2727 20.0252 10.2664 20.0346 10.2602L20.0284 10.257C20.0096 10.2539 19.9845 10.2508 19.9657 10.2508H19.9563C19.9563 10.2508 19.9532 10.2508 19.9312 10.2508C19.9093 10.2508 19.8779 10.2477 19.856 10.2445L19.8591 10.2477C19.8215 10.257 19.7808 10.2477 19.7401 10.2383C19.6743 10.2195 19.6116 10.2039 19.552 10.2664C19.4737 10.3508 19.4674 10.754 19.8309 10.7634C19.7244 10.6665 19.7244 10.6665 19.7119 10.6352C19.715 10.6352 19.8529 10.7227 19.8779 10.7946C19.8936 10.7852 19.9156 10.7759 19.9344 10.7696C19.9187 10.754 19.903 10.7321 19.8936 10.7133C19.9751 10.7133 20.0942 10.7352 20.1913 10.8446C20.1819 10.8415 20.1663 10.8415 20.1569 10.8384C20.7115 11.1665 20.8526 11.7885 20.7648 11.9729C20.7523 11.976 20.7397 11.9822 20.7272 11.9854C20.6865 11.9666 20.6865 11.9666 20.6426 11.9166L20.6207 11.9416C20.6144 11.9322 20.6081 11.9229 20.605 11.9135C20.6144 11.9354 20.6207 11.9697 20.6175 11.9948C20.6081 11.9916 20.5956 11.9916 20.5862 11.9885C20.7272 12.1104 20.5956 12.2948 20.6896 12.4261C20.7711 12.5417 20.9309 12.5698 20.9998 12.7042C21.0249 12.7542 21.0249 12.7542 21.0657 12.9386C21.0469 12.9417 21.0218 12.948 21.003 12.9542C21.003 12.9636 21.003 12.9761 21.003 12.9855C20.8212 13.0543 20.7491 12.7105 20.7523 12.6761L20.7805 12.6948C20.7711 12.6417 20.7648 12.6261 20.6802 12.5854L20.6865 12.5823H20.6771L20.6802 12.5854C20.6207 12.5636 20.5548 12.5573 20.4953 12.5323C20.4922 12.5136 20.4922 12.4823 20.5047 12.4667C20.4295 12.4323 20.3982 12.3323 20.301 12.3323C20.2101 12.3323 20.2571 12.4698 20.1663 12.4667C20.1569 12.4667 20.1443 12.4604 20.1349 12.4573C20.1255 12.3823 20.1161 12.3792 20.0785 12.3698C20.0848 12.3573 20.0973 12.3448 20.0973 12.3323C20.1004 12.3073 20.0566 12.1885 19.9751 12.2198C19.972 12.2229 19.7338 12.3854 19.8466 12.5104C19.9876 12.6636 20.1945 12.5604 20.3543 12.6417C20.3386 12.7261 20.2446 12.7761 20.2571 12.8699C20.2634 12.9042 20.2665 12.9355 20.4107 13.0918C20.536 13.2261 20.6332 13.3168 20.7303 13.3887L20.7053 13.4074C20.6551 13.3824 20.6238 13.3324 20.5705 13.3199C20.5736 13.323 20.699 13.3762 20.7147 13.5356L20.6959 13.5574C20.8338 13.5887 20.8338 13.5887 20.8588 13.6887C20.8557 13.6981 20.8463 13.7043 20.84 13.7137C20.8776 13.7887 20.8745 13.795 20.8682 13.845C20.8588 13.8481 20.8463 13.8481 20.8369 13.8512C20.8212 13.895 20.8024 14.1138 20.8432 14.2013C20.8432 14.2013 20.8432 14.2013 20.8526 14.1919C20.8338 14.3138 20.8306 14.3325 20.7397 14.4232C20.6363 14.52 20.4953 14.5544 20.3888 14.6451C20.3794 14.6107 20.3762 14.5982 20.3323 14.5701C20.3668 14.6388 20.3731 14.6513 20.2916 14.7545C20.2885 14.7545 20.0973 14.6044 20.0566 14.942C20.1255 15.0014 20.1537 15.0545 20.1224 15.1858C20.091 15.2826 19.9939 15.3045 19.9406 15.3108C19.95 15.2889 19.9657 15.2639 19.9751 15.242C19.9876 14.9732 19.9876 14.9732 20.0315 14.9482C20.0315 14.9107 20.0315 14.8201 19.972 14.792C19.9406 14.7795 19.5865 14.8107 19.6116 15.0076C19.6554 15.3795 20.0566 15.5577 20.1067 15.9233C20.1255 16.0546 20.0722 16.5015 19.8779 16.3578C19.8717 16.4547 19.7808 16.7109 19.6523 16.6422C19.6649 16.6203 19.6805 16.5922 19.6931 16.5703C19.6241 16.2828 19.3013 16.1921 19.1948 15.9296C18.966 16.0827 19.0381 16.4547 19.0475 16.4953C19.0851 16.6641 19.2355 16.7547 19.3264 16.886C19.48 17.1141 19.433 17.4016 19.5395 17.6423C19.5458 17.6517 19.5614 17.661 19.5708 17.6704C19.3452 17.7111 19.2606 17.5267 19.1697 17.1204C19.0945 16.7797 19.0569 16.6703 18.9315 16.7672C18.9033 16.6547 18.8908 16.6078 18.9159 16.4046C18.9848 15.8671 18.7466 15.4702 18.6714 15.3608C18.6746 15.4827 18.6464 15.4952 18.6088 15.5108ZM19.5144 18.7518H19.5176L19.505 18.7424V18.7456L19.5144 18.7518ZM21.0813 14.6982C21.0719 14.6888 21.0657 14.6763 21.0531 14.6669H21.0563C21.0594 14.6763 21.0657 14.6888 21.0813 14.6982ZM21.0218 14.6294L21.0092 14.6169L21.0186 14.6263L21.0218 14.6294ZM21.0312 14.3794C21.0657 14.3169 21.0782 14.295 21.0719 14.27L21.0688 14.2638C21.0751 14.2731 21.0845 14.2888 21.0876 14.3232C21.0876 14.37 21.0782 14.4263 21.0657 14.4763C21.0469 14.5669 21.0374 14.6169 21.0531 14.6669C21.028 14.6326 21.028 14.6326 21.003 14.6138L21.0061 14.6169C20.9967 14.6076 20.9967 14.6076 20.9967 14.6076L21.0061 14.6107C20.9528 14.5482 20.9748 14.4857 21.0312 14.3794ZM20.6708 18.3611C20.6708 18.3611 20.7491 18.3361 20.6865 18.4143C20.7053 18.3924 20.7272 18.3611 20.7397 18.3361C20.7773 18.2642 20.7679 18.1767 20.8024 18.1048C20.8432 18.0142 20.9246 17.9517 20.9654 17.8611C20.9936 17.7954 20.9904 17.7704 20.9873 17.7236C21.0406 17.7861 21.0625 17.7486 21.0688 17.7298C21.0845 17.6829 21.0813 17.5892 20.956 17.4079C20.9716 17.4204 20.9716 17.4204 20.9842 17.4235C20.9842 17.4204 20.9842 17.4204 20.9434 17.3548C20.9622 17.3579 21.0155 17.3579 20.9998 17.2985L21.0061 17.3048L21.0124 17.3016C21.0124 17.2954 21.0092 17.2798 20.9998 17.2485C21.0437 17.286 21.0719 17.236 21.0688 17.2047C21.0657 17.1954 21.0625 17.1829 21.0563 17.1735H21.0594C21.0719 17.1579 21.191 17.0235 21.1252 17.0203C21.1033 17.0203 21.0594 17.0391 21.0374 17.0485C21.0563 17.0391 21.0563 17.0391 21.0594 17.0297C21.0469 17.0235 21.0469 17.0235 21.0092 17.0266C21.05 16.9328 20.9779 16.8891 20.9622 16.8891C20.9497 16.8953 20.9466 16.8985 20.9372 16.9078V16.9016C20.9372 16.9016 20.8118 16.9078 20.7617 17.2172C20.7585 17.1891 20.7554 17.1829 20.7397 17.1641C20.7147 17.211 20.7053 17.2391 20.6927 17.2891C20.652 17.2798 20.6677 17.2204 20.6269 17.211C20.5799 17.3423 20.3637 17.5204 20.3355 17.4766L20.3323 17.4673C20.3041 17.536 20.2947 17.5798 20.2916 17.6517C20.2477 17.6204 20.1537 17.636 20.16 17.561C20.0848 17.6329 20.0534 17.6642 20.066 17.8142C20.066 17.8173 20.1318 18.3049 20.2164 18.308C20.2415 18.3111 20.2634 18.2705 20.2759 18.2517C20.2916 18.333 20.4702 18.3424 20.5204 18.3142C20.4922 18.4299 20.6144 18.3861 20.6708 18.3611ZM21.5138 18.9612C21.5201 18.9456 21.5075 18.9487 21.4887 18.9487C21.2788 18.9987 21.1503 19.1769 21.1158 19.2394C21.1283 19.2362 21.1565 19.2269 21.2505 19.1769C21.3352 19.13 21.495 19.005 21.5138 18.9612ZM19.8811 18.8956L19.8968 18.8924H19.8717L19.8811 18.8956ZM19.8717 18.8956H19.8748C19.7275 18.8643 19.6366 18.8362 19.4988 18.7706C19.5708 18.7487 19.6272 18.6924 19.6962 18.6643C19.7589 18.6549 19.8059 18.683 19.856 18.7112C19.8999 18.7393 19.9438 18.7643 20.0002 18.7643C20.0973 18.7581 20.1882 18.7143 20.2885 18.7237L20.3104 18.7268C20.3762 18.7424 20.3856 18.7737 20.3919 18.8018C20.3543 18.8268 20.3135 18.8487 20.2571 18.8268C20.2853 18.8737 20.2916 18.8799 20.3794 18.8956C20.5141 18.9143 20.5016 18.9675 20.4922 18.9831L20.4859 18.9925C20.4702 19.0112 20.3825 19.0456 20.3825 18.9581C20.3637 19.0206 20.2415 18.9893 19.8685 18.8956H19.8717ZM21.1722 18.9675L21.2098 18.98L21.2067 18.9862C21.1941 18.9893 21.1785 18.9925 21.1659 18.9956C21.1722 19.0018 21.1722 19.0018 21.2004 19.0143L21.2035 19.0112C21.2317 19.0018 21.2568 18.9893 21.2819 18.9831L21.2756 18.9956C21.2882 18.9925 21.3007 18.9925 21.3101 18.9862C21.3195 18.9768 21.3226 18.9643 21.332 18.9549L21.3383 18.9518H21.332H21.3289C21.3258 18.9487 21.3195 18.9518 21.3132 18.9518C21.307 18.9518 21.3007 18.9549 21.2944 18.9518C21.2694 18.9549 21.2568 18.9581 21.2411 18.9612C21.2098 18.9268 21.1691 18.9612 21.1691 18.9612C21.0907 18.9393 20.9716 18.9487 20.909 18.9581C20.8682 18.9675 20.8338 18.9925 20.7899 18.9987C20.7617 19.0018 20.7303 18.9925 20.7021 18.9893C20.7084 18.9987 20.7147 19.005 20.7272 19.0081C20.7021 19.0268 20.6896 19.0143 20.6708 18.9862C20.6238 18.9862 20.605 18.9956 20.5925 18.9987C20.5768 18.9549 20.5548 18.9424 20.5423 18.9424C20.5016 18.9581 20.5298 18.9925 20.5736 19.0487L20.5768 19.0456C20.6113 19.0581 20.6489 19.0518 20.6865 19.0487C20.7178 19.0456 20.7523 19.0393 20.7836 19.0456C20.7617 18.9956 21.0249 19.0237 21.028 19.0237L21.0249 19.03C21.0751 19.0112 21.1189 18.9831 21.1722 18.9675ZM21.4135 16.3609C21.4323 16.4015 21.5075 16.3328 21.5075 16.3328C21.5201 16.3203 21.5295 16.3078 21.5295 16.2953C21.5326 16.2796 21.5232 16.2703 21.5044 16.2453C21.4574 16.1921 21.4448 16.1765 21.4354 16.1609C21.4323 16.164 21.4323 16.1609 21.426 16.1546C21.426 16.164 21.426 16.1702 21.4198 16.2015C21.4135 16.2515 21.401 16.3328 21.4135 16.3609ZM21.8491 18.2549C21.8052 18.258 21.7426 18.2799 21.7958 18.3268L21.8178 18.3424L21.8115 18.3455H21.8146L21.8178 18.3424C21.893 18.383 21.9682 18.3861 21.9933 18.3486C22.0089 18.3236 21.987 18.3017 21.9839 18.2986C21.9839 18.308 21.9933 18.3174 21.9964 18.3268C21.9557 18.2549 21.8679 18.2549 21.8491 18.2549ZM21.6767 17.6704C21.6799 17.6548 21.6767 17.636 21.6767 17.6204C21.6642 17.6235 21.6454 17.6267 21.6329 17.6298C21.5138 17.6517 21.3947 17.661 21.2788 17.6892C21.2474 17.6954 21.2223 17.7111 21.2067 17.7329C21.1973 17.7454 21.191 17.7579 21.1879 17.7673C21.1628 17.8267 21.1503 17.8892 21.1315 17.9486C21.0939 18.0611 21.0061 18.1486 20.9716 18.2642C20.9372 18.3799 20.9654 18.5018 20.9434 18.6205C20.9842 18.6049 21.0124 18.6049 21.0469 18.6174C21.0469 18.6143 21.1095 18.2955 21.1628 18.2424C21.1879 18.2767 21.191 18.283 21.1785 18.3893C21.1597 18.5361 21.2411 18.508 21.2568 18.5018C21.2505 18.5174 21.2286 18.5643 21.2349 18.6205L21.2443 18.6237C21.2913 18.6018 21.332 18.483 21.332 18.4393C21.3132 18.4424 21.3007 18.4486 21.285 18.4643C21.3038 18.3424 21.2505 18.2299 21.2474 18.1111C21.3226 18.2049 21.3665 17.9798 21.4574 17.958C21.4166 17.9486 21.3728 17.9548 21.332 17.9611C21.2756 17.9705 21.2161 17.9767 21.1597 17.9517C21.1221 17.933 21.1377 17.9017 21.2192 17.8454C21.3038 17.7829 21.3571 17.7892 21.4636 17.8048C21.5577 17.8142 21.5639 17.8079 21.6047 17.7704L21.589 17.7892C21.6673 17.6986 21.6673 17.6986 21.6767 17.6704ZM21.2161 16.3453C21.2223 16.2859 21.2004 16.2515 21.1879 16.2296L21.1816 16.239C21.1691 16.2703 21.144 16.3296 21.1534 16.339C21.1565 16.339 21.1597 16.339 21.1753 16.3171C21.1095 16.4328 21.0343 16.5484 21.028 16.5578L21.0186 16.5734C20.9936 16.6109 20.981 16.6359 20.9654 16.6797C21.0657 16.6297 21.2067 16.4828 21.2161 16.3453ZM10.088 12.1479C10.1005 12.1323 10.135 12.0791 10.1726 12.001C10.1883 11.976 10.1977 11.9541 10.2008 11.9447L10.1914 11.9479C10.1413 11.9822 10.0943 12.0729 10.0943 12.0791C10.0786 12.1135 10.0786 12.1291 10.088 12.1479ZM10.0128 12.1916V12.1948C10.0096 12.2073 10.0065 12.2198 9.99084 12.2635C9.96577 12.3417 9.91876 12.4729 9.95637 12.4479C9.99084 12.4261 10.0535 12.3198 10.0849 12.2542C10.1225 12.1729 10.1005 12.1729 10.0943 12.1729C10.088 12.1729 10.0755 12.176 10.041 12.1979C10.0128 12.2135 10.0128 12.2104 10.0128 12.1916ZM13.1372 13.9606C13.1591 13.9637 13.1654 13.9606 13.1685 13.9575C13.1716 13.9544 13.1591 13.9512 13.1497 13.9512C13.1434 13.9512 13.1372 13.9544 13.1372 13.9606ZM20.0346 22.4741C20.0158 22.4741 19.9939 22.471 19.9751 22.471C19.9563 22.471 19.9156 22.4741 19.8435 22.5179C19.7651 22.571 19.6962 22.6398 19.621 22.696C19.7119 22.6804 19.7244 22.6741 19.8309 22.6023C19.9312 22.5366 20.0096 22.4835 20.0284 22.4741H20.0346ZM21.2599 22.0928C21.2474 22.1022 21.238 22.1147 21.2255 22.1272C21.2411 22.1116 21.2537 22.1022 21.2599 22.0928ZM21.8428 21.0114L21.8554 20.9958V20.9989L21.8428 21.0114ZM20.1725 22.0209H20.1757L20.1694 22.0241L20.1725 22.0209ZM10.0284 10.9978C10.0504 10.9884 10.1601 10.9352 10.3293 10.729C10.3481 10.7071 10.4014 10.6415 10.3638 10.6415L10.3575 10.6446C10.2886 10.6665 10.2447 10.7227 10.182 10.7509C10.1695 10.779 10.1601 10.7946 10.135 10.8102C10.1475 10.8227 10.1225 10.8509 10.0629 10.9102C10.0316 10.9415 9.93443 11.0353 10.0284 10.9978ZM21.4386 21.9241C21.3696 21.9803 21.3101 22.0428 21.2443 22.0991C21.2537 22.0959 21.2599 22.0897 21.2694 22.0834L21.2599 22.0928C21.3258 22.0334 21.3884 21.9709 21.4542 21.9115L21.4386 21.9241ZM20.6802 22.521C20.7209 22.521 21.0563 22.2928 21.1722 22.1991L21.1753 22.196C21.1503 22.2022 21.1346 22.2272 21.1095 22.2366C21.1189 22.2241 21.1189 22.2241 21.2599 22.1022C21.238 22.1209 21.2161 22.1366 21.1941 22.1553C21.2035 22.146 21.2129 22.1366 21.2255 22.1272C21.0876 22.2428 20.6865 22.5179 20.6802 22.521ZM20.7585 22.4647C20.7303 22.4772 20.7053 22.4929 20.6771 22.5085C20.7585 22.4522 20.7585 22.4522 20.7617 22.4429L20.7397 22.4491C20.5956 22.5304 20.464 22.6335 20.3104 22.6991C20.0942 22.7929 20.0942 22.7929 20.0378 22.8273C19.9187 22.8929 19.9093 22.9085 19.9062 22.9179C19.9594 22.9398 20.558 22.6023 20.7147 22.4929C20.7303 22.4835 20.746 22.471 20.7585 22.4647ZM13.8047 8.83188C13.8203 8.82875 13.8517 8.82562 13.8861 8.82875C13.8642 8.83188 13.8642 8.83188 13.8611 8.83188L13.8642 8.835C13.8485 8.83813 13.8391 8.84125 13.8266 8.84125C13.836 8.85688 13.8579 8.86 13.9143 8.84438L13.9018 8.85063H13.9175C13.9112 8.85688 13.9018 8.86938 13.9269 8.86625C13.9394 8.86625 13.9614 8.86 13.9708 8.85688L13.9739 8.85375C13.9582 8.8475 13.9425 8.8475 13.9206 8.85063C13.93 8.85063 13.9331 8.8475 13.9425 8.84125H13.9331C13.952 8.835 13.9708 8.83188 13.9864 8.82562C13.9864 8.81625 13.9833 8.7975 13.9237 8.7975C13.8799 8.80062 13.836 8.81 13.7859 8.82875C13.7953 8.83188 13.7984 8.83188 13.8047 8.83188ZM21.426 11.2853L21.4198 11.2759H21.4166C21.4135 11.2759 21.4166 11.2822 21.426 11.3009V11.2853ZM14.0742 8.84438L14.118 8.85375C14.1306 8.85375 14.14 8.85063 14.1462 8.85063L14.14 8.84125L14.1525 8.83813C14.187 8.85375 14.187 8.85375 14.2622 8.8225C14.2716 8.8475 14.2716 8.8475 14.4001 8.80375L14.3969 8.81312C14.3875 8.81937 14.3875 8.8225 14.3844 8.82562C14.3875 8.82562 14.3969 8.8225 14.4095 8.81937L14.4126 8.81312V8.81C14.4158 8.80062 14.4158 8.7975 14.4158 8.79437C14.4001 8.78812 14.3969 8.78812 14.3562 8.79125L14.375 8.77562C14.3499 8.77562 14.3249 8.78812 14.2998 8.78812C14.2998 8.79125 14.3029 8.80062 14.328 8.80062C14.3123 8.80375 14.2967 8.80687 14.281 8.81312C14.2716 8.81312 14.2591 8.81312 14.2027 8.82875V8.835C14.1933 8.83188 14.187 8.83188 14.1744 8.83188C14.1933 8.82562 14.2027 8.8225 14.2183 8.81625C14.1964 8.81 14.1807 8.81 14.1556 8.80687C14.1682 8.80687 14.1901 8.80062 14.2027 8.7975C14.2183 8.80062 14.2559 8.81 14.2622 8.79437L14.2559 8.79125C14.2465 8.78812 14.234 8.79125 14.2246 8.78499C14.1964 8.77249 14.1933 8.77249 14.187 8.77249C14.187 8.77562 14.187 8.77562 14.1901 8.78812C14.1556 8.79437 14.1212 8.81 14.0804 8.81L14.0742 8.81312V8.81937C14.071 8.8225 14.071 8.8225 14.0585 8.81937L14.0616 8.82875H14.0585C14.046 8.82562 14.0334 8.8225 14.0084 8.82562C14.0084 8.83188 14.0084 8.83813 14.0084 8.84438C14.0742 8.84125 14.0742 8.84125 14.0742 8.84438ZM21.4918 11.4103L21.495 11.4072L21.4793 11.3947L21.4918 11.4103ZM21.5295 11.5822L21.5263 11.5791H21.5201C21.5107 11.5822 21.5107 11.5916 21.5107 11.6041V11.601C21.5107 11.601 21.5075 11.6041 21.5295 11.6478C21.5389 11.6416 21.5514 11.6291 21.5295 11.5822ZM21.4699 11.3728V11.3697L21.4574 11.3603V11.3634C21.4574 11.3759 21.4668 11.3728 21.4699 11.3728ZM21.401 11.2415L21.3978 11.2322C21.3916 11.2228 21.3728 11.1978 21.3634 11.1947C21.3665 11.2009 21.3759 11.2197 21.3853 11.229L21.401 11.2415ZM17.9507 9.11628L17.9538 9.11003C17.8943 9.07253 17.8441 9.0569 17.7814 9.06003C17.7532 9.06315 17.7376 9.06628 17.7094 9.07565C17.7156 9.07565 17.7344 9.08191 17.7689 9.09441C17.8347 9.11628 17.935 9.15066 17.9507 9.11628ZM15.6912 8.96002C15.7758 8.96002 15.8322 8.94126 15.8542 8.92876L15.8667 8.92564C15.8354 8.89751 15.7633 8.87251 15.7163 8.87251C15.6599 8.87563 15.6505 8.93814 15.6693 8.95376C15.6787 8.96002 15.6881 8.96002 15.6912 8.96002ZM17.3521 9.08503L17.3427 9.08816C17.3615 9.09128 17.3835 9.08816 17.4023 9.09128C17.4712 9.10066 17.5401 9.12253 17.6091 9.12879C17.653 9.13191 17.6843 9.12879 17.6937 9.12253C17.6843 9.10378 17.5683 9.08816 17.5683 9.08816C17.537 9.08503 17.5088 9.07565 17.4806 9.07253C17.4555 9.07253 17.4305 9.06315 17.4054 9.05378C17.3835 9.0444 17.3584 9.03502 17.3333 9.03502C17.3176 9.03815 17.3176 9.04128 17.3145 9.0444C17.3239 9.06315 17.3427 9.0694 17.3521 9.08503ZM15.2995 8.86625C15.3277 8.85688 15.3559 8.85375 15.406 8.85063C15.3684 8.85375 15.3622 8.86313 15.3528 8.87563C15.4092 8.89438 15.4593 8.93189 15.5188 8.94126C15.569 8.95064 15.5972 8.93189 15.6097 8.92251C15.6129 8.92251 15.6223 8.91314 15.6348 8.90063C15.6317 8.90063 15.6317 8.90063 15.616 8.89438C15.5972 8.88501 15.5972 8.88188 15.616 8.86938C15.5533 8.86938 15.5282 8.85688 15.4969 8.84125C15.4593 8.81937 15.428 8.81 15.3622 8.81312C15.3402 8.81312 15.3246 8.81312 15.3026 8.81625C15.3057 8.83188 15.3057 8.8475 15.2744 8.84125C15.2963 8.8475 15.312 8.85063 15.334 8.85063C15.3089 8.85063 15.2932 8.85063 15.2713 8.85063C15.2744 8.85375 15.2869 8.86938 15.2995 8.86625ZM10.6145 9.93513V9.93826L10.6082 9.94138C10.6239 9.92888 10.6395 9.91638 10.6552 9.90075C10.6395 9.91638 10.6239 9.92888 10.6145 9.93513ZM11.1973 9.66947C11.1879 9.6726 11.1785 9.6726 11.1691 9.6726C11.1597 9.6726 11.1503 9.66947 11.1409 9.67573C11.1159 9.6851 11.1002 9.6976 11.072 9.72261C11.0877 9.70698 11.0939 9.70073 11.0939 9.69448C11.0845 9.68823 11.0438 9.7101 10.9874 9.75386C11.0783 9.6726 11.0877 9.6601 11.0939 9.65072H11.0908C11.0783 9.6601 11.0595 9.67573 11.0344 9.6976L11.0407 9.68823C11.0375 9.6851 11.0344 9.6851 10.9874 9.72573L10.9905 9.72261C10.9874 9.72261 10.9843 9.72261 10.956 9.74136H10.9592V9.75386L10.9623 9.75699L10.9498 9.76636L10.9466 9.77261L10.9498 9.77574C10.9498 9.77574 10.8808 9.80074 10.884 9.81949L10.8934 9.81637C10.79 9.89138 10.8338 9.90388 10.837 9.90388C10.8558 9.907 10.9278 9.88513 10.9968 9.84137C11.0125 9.83199 11.0313 9.81949 11.0438 9.81012C11.0657 9.79449 11.0877 9.76949 11.1127 9.75699L11.1096 9.75386C11.1127 9.74761 11.119 9.73198 11.1973 9.66947ZM21.5357 11.5166C21.5357 11.5103 21.5295 11.4947 21.5169 11.4728C21.5138 11.4791 21.5138 11.4884 21.5169 11.5009L21.5107 11.4978C21.5169 11.5041 21.5326 11.5228 21.5357 11.5166ZM10.3168 10.8165C10.2572 10.8571 10.2572 10.8571 10.1444 10.9821C10.1444 10.9821 10.1319 11.0165 10.1632 11.0165C10.182 11.0196 10.2102 11.0009 10.2196 10.9946C10.2102 11.004 10.2039 11.0103 10.1945 11.0165C10.3199 10.9509 10.345 10.9821 10.3544 11.0134C10.37 10.9603 10.4264 10.9446 10.4578 10.904C10.5016 10.854 10.464 10.8571 10.4421 10.8602C10.4327 10.8602 10.4296 10.8602 10.4264 10.8602C10.4484 10.8321 10.486 10.7884 10.4766 10.7727C10.5079 10.7821 10.5581 10.5633 10.5581 10.5633L10.5487 10.554C10.6207 10.5227 10.7367 10.4227 10.7429 10.3883C10.7335 10.3758 10.7179 10.3821 10.6552 10.4102C10.7586 10.3352 10.7586 10.3352 10.7837 10.3071C10.7774 10.3133 10.7649 10.3258 10.7586 10.3321C10.6677 10.4008 10.6082 10.4164 10.5894 10.4196C10.5957 10.4133 10.5988 10.4039 10.6019 10.3977L10.5988 10.3946C10.6333 10.3727 10.6552 10.3508 10.674 10.3258C10.6615 10.3258 10.6521 10.3321 10.6207 10.3602C10.5769 10.3977 10.5769 10.3977 10.5737 10.4008C10.5455 10.4227 10.5267 10.4477 10.5236 10.4539C10.5424 10.4352 10.5581 10.4196 10.5737 10.4008V10.4039L10.5769 10.4071L10.5894 10.4039C10.5549 10.4321 10.5393 10.4602 10.5393 10.4602C10.5487 10.4633 10.5518 10.4602 10.5581 10.4477V10.4508C10.5643 10.4508 10.5675 10.4508 10.5894 10.4352L10.4609 10.5446C10.4609 10.5446 10.5299 10.5071 10.5549 10.4852C10.5393 10.5039 10.5393 10.5039 10.486 10.5477L10.4985 10.5352C10.4515 10.5665 10.4515 10.5665 10.4202 10.6008C10.4358 10.5915 10.4421 10.5852 10.4578 10.5727C10.4484 10.5821 10.4296 10.6008 10.4202 10.6227C10.4264 10.6227 10.4358 10.6227 10.4954 10.5633C10.4452 10.6165 10.439 10.629 10.4358 10.6477C10.4421 10.654 10.4421 10.654 10.4734 10.6571C10.4484 10.6758 10.4139 10.7133 10.4045 10.7352L10.4076 10.7384L10.4139 10.7352C10.3794 10.7727 10.3669 10.7852 10.3168 10.8165ZM21.0876 12.9542L21.0907 12.9574L21.0876 12.9511V12.9542ZM13.7984 9.34131C13.8015 9.34444 13.8015 9.35069 13.8235 9.35694L13.836 9.34444L13.8266 9.33506L13.836 9.32256C13.8893 9.40382 13.9488 9.41945 14.024 9.36944C14.0052 9.33193 13.9739 9.30068 13.9551 9.26005C14.0084 9.24755 14.0585 9.20379 14.071 9.16004C14.0992 9.17254 14.1337 9.15379 14.2152 9.10378C14.3029 9.05378 14.4064 9.06628 14.5004 9.03502C14.5098 9.0319 14.5254 9.02565 14.538 9.02252C14.4722 9.01315 14.4095 9.0069 14.3468 9.0069C14.3092 9.01002 14.2935 9.01315 14.2653 9.0194C14.2465 9.02565 14.234 9.04128 14.2152 9.04753C14.1494 9.0694 14.0804 9.07878 14.0146 9.10378C14.0272 9.11941 14.0209 9.12566 13.977 9.14754C13.9739 9.15066 13.7702 9.2788 13.7733 9.30693C13.7921 9.31631 13.8109 9.31318 13.8266 9.32568C13.8078 9.33193 13.8015 9.33193 13.7984 9.34131ZM21.1221 11.5885C21.097 11.5541 21.0751 11.5322 20.9685 11.4353C20.8714 11.3478 20.8557 11.329 20.8463 11.304L20.8494 11.2978C20.862 11.2947 20.8714 11.2915 20.9246 11.3103C20.909 11.2697 20.8964 11.2447 20.8338 11.1947C20.7429 11.1165 20.6238 11.0853 20.5266 11.0134C20.4295 10.9415 20.3543 10.8415 20.2571 10.7696C20.2227 10.7446 20.1788 10.7165 20.1381 10.7165C20.1255 10.7196 20.1224 10.7196 20.113 10.7227C20.1443 10.7571 20.1913 10.7727 20.2195 10.8102C20.37 10.904 20.6959 11.2478 20.8557 11.4134C20.9936 11.5572 21.0249 11.5916 21.0563 11.6135C21.0312 11.5791 21.0186 11.5572 20.9998 11.5197C21.0092 11.5228 21.0092 11.5228 21.0469 11.5478C21.0813 11.5728 21.1127 11.5947 21.1221 11.5885ZM10.8652 9.73198C10.9122 9.70385 11.1315 9.55384 11.1347 9.55071L11.1284 9.56009C11.1503 9.55384 11.1566 9.55384 11.2318 9.51321C11.3008 9.46633 11.4042 9.47258 11.4481 9.38507C11.4293 9.38507 11.4104 9.39444 11.3916 9.40069C11.4293 9.37882 11.4637 9.35694 11.5013 9.33819C11.4888 9.35069 11.4731 9.36319 11.4575 9.37882C11.4857 9.37256 11.5577 9.32568 11.564 9.31943L11.5421 9.32881C11.564 9.31631 11.5859 9.30381 11.6079 9.2913L11.5859 9.30381C11.5859 9.29756 11.5859 9.29756 11.6831 9.21317C11.6925 9.2163 11.7176 9.21942 11.7301 9.19129L11.7332 9.20067C11.7677 9.21317 11.7865 9.17879 11.8147 9.16942C11.799 9.17254 11.799 9.17254 11.774 9.18504C11.8366 9.14441 11.8398 9.14441 11.8868 9.13504C11.9495 9.11628 11.9902 9.06003 12.0466 9.0319H12.0372V9.02252C12.0779 8.99752 12.1281 9.0069 12.1626 8.97564H12.1532C12.1657 8.96627 12.1782 8.96314 12.1908 8.95376C12.1814 8.95376 12.1814 8.95376 12.1469 8.96314C12.2816 8.89438 12.4289 8.85688 12.5699 8.80062C12.5794 8.7975 12.5919 8.79125 12.6013 8.78499C12.548 8.77249 12.548 8.77249 12.3757 8.835C12.4289 8.75374 12.5637 8.8225 12.595 8.70999C12.5888 8.70686 12.5794 8.70374 12.5699 8.70374C12.5323 8.70999 12.4822 8.72249 12.4603 8.73186L12.4509 8.73499H12.4571H12.454L12.4477 8.73811L12.4603 8.73186C12.4007 8.74437 12.4007 8.74437 12.3349 8.77874C12.3475 8.77249 12.3475 8.77249 12.3694 8.75687C12.3537 8.76312 12.338 8.77249 12.3224 8.77874L12.3318 8.77249C12.3255 8.77562 12.3161 8.78187 12.3067 8.78499C12.3161 8.78187 12.3255 8.77562 12.3349 8.76937C12.3161 8.77874 12.291 8.79125 12.2691 8.80375C11.8962 8.99752 11.5389 9.2163 11.2036 9.4632C11.0156 9.60072 10.8307 9.74761 10.6552 9.90075C10.7335 9.83199 10.884 9.70698 10.931 9.67885C10.909 9.6976 10.8871 9.71323 10.8652 9.73198ZM12.7987 9.01002C12.8238 9.0069 12.8489 8.99439 12.9084 8.96314C12.9836 8.92564 12.993 8.92251 13.0055 8.92564C13.0087 8.93189 13.0055 8.94751 12.9523 8.97877C12.9617 8.98502 12.9805 8.98502 13.0243 8.97564C13.062 8.96627 13.0651 8.96627 13.0839 8.96627C13.0902 8.94126 13.0902 8.93814 13.0808 8.92251C13.0682 8.90688 13.0463 8.90376 13.0275 8.89126C13.062 8.89126 13.1215 8.88813 13.228 8.86938C13.3158 8.85375 13.2876 8.81 13.2876 8.81C13.2782 8.80062 13.2531 8.80062 13.2406 8.80375C13.1528 8.80687 13.0745 8.83188 13.0526 8.84438L13.0494 8.8475C13.04 8.85063 13.0275 8.85063 13.0149 8.85375L13.0024 8.86313C13.0087 8.86625 13.0118 8.86625 13.0275 8.86625L13.0118 8.87563C12.9867 8.86313 12.9679 8.87251 12.9366 8.90063C12.9366 8.88813 12.9147 8.87876 12.9272 8.86313C12.9178 8.86938 12.8865 8.88188 12.8614 8.87251H12.8489C12.8363 8.88188 12.8332 8.89751 12.8175 8.90376V8.89438C12.8081 8.89438 12.7924 8.91939 12.7956 8.92564C12.8018 8.93501 12.8081 8.92564 12.8144 8.91001C12.8301 8.91314 12.8457 8.91314 12.8614 8.91314C12.8802 8.91314 12.899 8.91001 12.9178 8.91939C12.7642 8.97564 12.7642 8.97564 12.758 8.98814C12.7642 9.00065 12.7987 9.01002 12.7987 9.01002ZM21.1158 11.676C21.1973 11.7228 21.2756 11.776 21.3634 11.8135C21.4542 11.8541 21.4417 11.8135 21.4354 11.7947C21.4417 11.801 21.448 11.8104 21.4542 11.8197C21.4542 11.8041 21.4574 11.7916 21.4824 11.7854V11.7791C21.473 11.726 21.473 11.726 21.5107 11.6822C21.5044 11.7166 21.5169 11.751 21.5075 11.7854L21.4918 11.7916H21.4887C21.5013 11.8416 21.5013 11.8447 21.495 11.8604H21.4824L21.4793 11.8572C21.5044 11.8916 21.5483 11.901 21.5796 11.926C21.5765 11.9447 21.5608 12.0448 21.4386 12.0916C21.5827 12.2135 21.6893 12.4198 21.8366 12.7042C21.824 12.6823 21.824 12.6823 21.824 12.673C21.824 12.6761 21.9588 12.8636 21.9588 12.9667L21.9525 12.973C21.9086 12.948 21.9149 12.8886 21.8836 12.8574L21.8773 12.8667C21.8804 12.8824 21.8898 12.898 21.893 12.9136C21.8804 12.9042 21.8804 12.9042 21.871 12.9042C21.871 12.9324 21.893 12.9574 21.8836 12.9855C21.8679 12.9824 21.8334 12.9542 21.8522 12.9324L21.8366 12.923C21.8303 12.9324 21.824 12.9386 21.846 12.9917C21.8303 12.9855 21.824 12.9855 21.8021 12.9886H21.7958C21.7708 12.9855 21.7676 12.9855 21.752 12.9792C21.752 12.9949 21.7614 13.0355 21.752 13.0918V13.0949C21.7363 13.1574 21.7018 13.1105 21.6924 13.0918C21.6799 13.0761 21.6736 13.0668 21.6579 13.0386C21.6611 13.0574 21.6642 13.0761 21.6673 13.0918L21.6705 13.1074C21.6767 13.1355 21.6799 13.1668 21.6861 13.198C21.6579 13.1761 21.6423 13.173 21.636 13.1855C21.6297 13.1918 21.6297 13.2136 21.6297 13.223C21.6297 13.2605 21.6297 13.2668 21.6266 13.2824C21.5796 13.2261 21.5357 13.198 21.4824 13.1824C21.5263 13.1824 21.5483 13.1543 21.5733 13.0918C21.5953 13.0386 21.6047 13.0199 21.6329 12.998C21.5671 12.923 21.3728 12.998 21.3446 13.0699C21.3634 13.0761 21.3696 13.0793 21.3884 13.0918C21.4824 13.1699 21.5389 13.3262 21.5514 13.3824C21.5671 13.4637 21.5295 13.4512 21.5201 13.4449C21.448 13.3887 21.4135 13.3012 21.354 13.2324L21.3477 13.2293C21.3477 13.2324 21.3477 13.2355 21.3446 13.2543C21.3383 13.2293 21.332 13.223 21.3038 13.1918C21.2694 13.1605 21.2662 13.1386 21.2788 13.0918C21.2976 13.0324 21.4041 12.7323 21.5984 12.8449C21.4856 12.6261 21.5357 12.6229 21.5639 12.6229C21.6235 12.6229 21.6235 12.351 21.4072 12.1448C21.4354 12.1635 21.4668 12.176 21.4918 12.201C21.4762 12.1791 21.4762 12.1791 21.4323 12.1198L21.4292 12.1291C21.4229 12.1354 21.4198 12.1385 21.3884 12.1291C21.3853 12.126 21.1534 12.0104 21.2882 11.9385C21.2725 11.9322 21.2537 11.9197 21.2443 11.9072C21.2035 11.8416 21.1785 11.7697 21.1409 11.7041C21.1315 11.6978 21.1221 11.6853 21.1158 11.676Z" fill="#727271"/>
<path d="M15.8597 24.0992H15.8566C15.8597 24.0992 15.8597 24.0992 15.8597 24.0992ZM24.1204 15.8357V15.8326C24.1204 15.8326 24.1204 15.8326 24.1204 15.8357Z" fill="#727271"/>
<path d="M19.912 22.9211C19.9089 22.9211 19.9089 22.9179 19.9058 22.9179C19.9089 22.9086 19.9183 22.8929 20.0374 22.8273C20.0938 22.7929 20.0938 22.7929 20.31 22.6992C20.4636 22.6335 20.5952 22.5304 20.7394 22.4491L20.7613 22.4429C20.7582 22.4523 20.7582 22.4523 20.6767 22.5085C20.7049 22.4929 20.73 22.4773 20.7582 22.4648C20.7456 22.471 20.73 22.4835 20.7143 22.4929C20.5607 22.5992 19.9935 22.9211 19.912 22.9211ZM19.6206 22.696C19.6958 22.6398 19.7648 22.571 19.8431 22.5179C19.9152 22.4741 19.9559 22.471 19.9747 22.471H19.9779C19.9967 22.471 20.0155 22.4741 20.0343 22.4741H20.028C20.0092 22.4835 19.9308 22.5366 19.8306 22.6023C19.724 22.6742 19.7115 22.6804 19.6206 22.696ZM20.6798 22.521C20.6861 22.5179 21.0872 22.2429 21.2251 22.1272C21.2126 22.1366 21.2032 22.146 21.1938 22.1553C21.2157 22.1366 21.2376 22.121 21.2596 22.1022C21.1186 22.2241 21.1186 22.2241 21.1091 22.2366C21.1342 22.2272 21.1499 22.2022 21.175 22.196L21.1718 22.1991C21.0559 22.2929 20.7206 22.521 20.6798 22.521ZM20.1596 22.3335C20.1941 22.296 20.1941 22.296 20.2035 22.271H20.1815C20.2098 22.2585 20.2098 22.2585 20.238 22.2335C20.0907 22.2804 20.0437 22.2929 20.0249 22.2929C20.0155 22.2929 20.0123 22.2897 20.0061 22.2866C20.0186 22.1647 20.1596 22.1335 20.1941 22.0272L20.1753 22.021C20.3132 21.9022 20.3132 21.9022 20.3163 21.8959C20.1941 21.9835 20.1784 21.996 20.1345 22.0022C20.2411 21.9147 20.3946 21.8803 20.4636 21.7459C20.357 21.8334 20.2317 21.8991 20.1157 21.9772C20.2662 21.7178 20.2662 21.7178 20.2662 21.6865C20.2411 21.6709 20.2003 21.6615 20.1471 21.6615C19.8619 21.6615 19.2571 21.8834 19.2477 21.8866C19.1505 21.9272 19.0252 21.9741 18.9437 21.9741C18.9155 21.9741 18.8936 21.971 18.8779 21.9553C18.8779 21.9491 18.8779 21.9366 18.881 21.9272C18.9437 21.8147 19.0628 21.7584 19.1349 21.6553C19.2539 21.4896 19.2069 21.2615 19.3417 21.1021C19.3448 21.1115 19.348 21.1271 19.348 21.1396C19.3636 21.1209 19.3636 21.1209 19.3793 21.0677C19.4044 20.9615 19.4702 20.7177 19.6833 20.6083C19.677 20.6208 19.6739 20.6427 19.6739 20.6552C19.8243 20.6427 19.912 20.5208 20.0374 20.4614C20.1377 20.4176 20.2505 20.4083 20.3476 20.3551C20.404 20.3239 20.4417 20.2958 20.5513 20.1676C20.6642 20.0395 20.7049 20.0113 20.7582 19.977C20.7394 20.0582 20.7394 20.0832 20.7394 20.1082C20.7582 20.0676 20.7582 20.0676 20.7738 20.052L20.7801 20.0707C20.802 20.0176 20.8083 20.0051 20.8114 19.9582C20.9211 19.9145 21.1405 19.6894 21.153 19.6769C21.1687 19.7394 21.2533 19.7582 21.247 19.8332C21.2752 19.8238 21.2909 19.8176 21.3066 19.8176C21.3191 19.8176 21.3316 19.8238 21.3536 19.8332C21.4069 19.6238 21.5322 19.5238 21.62 19.4988C21.6607 19.4894 21.6607 19.4894 21.7453 19.33C21.8707 19.4113 21.9239 19.4425 21.949 19.4425C21.9678 19.4425 21.9741 19.4269 21.9866 19.4019C21.9835 19.43 21.9647 19.455 21.9647 19.4832C22.0085 19.4394 22.0085 19.4394 22.0242 19.4238C21.7892 19.8551 21.7892 19.8551 21.7954 19.9332C21.7954 19.9363 21.8174 20.1051 21.8895 20.1051C21.9083 20.1051 21.9302 20.0957 21.9584 20.0676C22.1809 19.8457 22.2561 19.53 22.4473 19.2831H22.4504C22.3971 19.3706 22.3533 19.4363 22.3439 19.6676C22.3376 19.7988 22.3376 19.7988 22.1527 20.1676C22.1057 20.2582 22.1308 20.3645 22.0963 20.4583C22.0618 20.5677 22.0117 20.6708 21.9709 20.7771C21.9239 20.9021 21.8519 20.999 21.8299 21.0302L21.8393 21.0146L21.8237 21.0365L21.8205 21.0396L21.8143 21.049L21.8268 21.0333C21.808 21.0583 21.7892 21.0802 21.7704 21.1021C21.7798 21.0927 21.7923 21.0771 21.8017 21.0646C21.6106 21.3052 21.0653 21.9116 20.1596 22.3335ZM21.2251 22.1272C21.2376 22.1147 21.247 22.1022 21.2596 22.0928C21.2533 22.1022 21.2408 22.1116 21.2251 22.1272ZM21.2439 22.0991C21.3097 22.0428 21.3693 21.9803 21.4382 21.9241L21.4539 21.9116C21.3881 21.971 21.3254 22.0335 21.2596 22.0928L21.269 22.0835C21.2596 22.0897 21.2533 22.096 21.2439 22.0991ZM20.169 22.0241L20.1721 22.021H20.1753L20.169 22.0241ZM12.0337 21.9491C11.9804 21.9491 11.9428 21.9397 11.9428 21.9366C11.9083 21.9209 11.6608 21.6709 11.4414 21.4428C11.7579 21.5303 12.0807 21.6022 12.4097 21.6522C12.4097 21.6553 12.4066 21.6584 12.4066 21.6647C12.3126 21.9084 12.1402 21.9491 12.0337 21.9491ZM21.8425 21.0115L21.855 20.999V20.9958L21.8425 21.0115ZM22.8233 19.2769C22.8045 19.2769 22.7826 19.2675 22.7638 19.2206C22.7293 19.1456 22.7701 19.0644 22.7513 18.9893C22.7419 18.9425 22.6917 18.9175 22.6792 18.8706C22.6666 18.9081 22.6572 18.9175 22.6447 18.9331L22.6416 18.9268L22.6447 18.9362C22.6322 18.9456 22.6322 18.9456 22.582 18.9706H22.5883C22.604 19.0081 22.51 19.0831 22.5006 19.0862C22.4974 19.0894 22.4912 19.0894 22.4849 19.0894C22.4535 19.0894 22.3877 19.0706 22.4316 18.9456C22.3815 18.9706 22.3219 18.9675 22.2687 18.9925C22.3313 18.8706 22.3627 18.8425 22.3815 18.8425C22.3909 18.8425 22.3971 18.855 22.3971 18.8612C22.3877 18.5455 22.3877 18.5393 22.3376 18.4924C22.3063 18.4643 22.2561 18.4612 22.231 18.4237C22.206 18.3893 22.2091 18.3643 22.2154 18.3205C22.1684 18.408 22.159 18.4174 22.1464 18.4174C22.1433 18.4174 22.1433 18.4174 22.1433 18.4174C22.1057 18.358 22.1903 18.2861 22.1245 18.2299C22.1684 18.1955 22.2342 18.2018 22.2718 18.1517C22.2593 18.1549 22.2467 18.158 22.2373 18.158C22.1558 18.158 22.1088 18.0736 22.0524 17.9799C22.065 17.9611 22.0681 17.958 22.0775 17.9549C22.0838 17.9611 22.0994 17.9705 22.0932 18.0205C22.1433 17.958 22.184 17.9361 22.231 17.9236C22.2373 17.9236 22.2436 17.9236 22.2498 17.9236C22.3376 17.9236 22.3282 17.9955 22.3125 18.1455L22.3157 18.1361C22.3157 18.1392 22.2843 18.3018 22.3345 18.3018H22.3376C22.4723 18.2799 22.488 18.0892 22.6384 18.0861C22.8108 18.0861 22.9424 18.5674 22.9424 18.5705C22.9487 18.5987 22.9487 18.6331 22.9456 18.6612C22.933 18.7518 22.8735 18.83 22.8609 18.9206C22.8484 19.0112 22.8891 19.0987 22.8735 19.1894C22.8703 19.2112 22.8672 19.2488 22.8515 19.2675C22.8515 19.2675 22.839 19.2769 22.8233 19.2769ZM21.1154 19.2394C21.1499 19.1769 21.2784 18.9987 21.4883 18.9487C21.4946 18.9487 21.5009 18.9487 21.504 18.9487C21.5134 18.9487 21.5165 18.9518 21.5134 18.9612C21.4946 19.005 21.3348 19.13 21.2502 19.1769C21.1562 19.2269 21.128 19.2363 21.1154 19.2394ZM20.6265 19.0519C20.6077 19.0519 20.5921 19.0519 20.5764 19.0456L20.5733 19.0487C20.5294 18.9925 20.5012 18.9581 20.5419 18.9425C20.5451 18.9425 20.5451 18.9425 20.5451 18.9425C20.5545 18.9425 20.5764 18.955 20.5921 18.9987C20.6046 18.9956 20.6203 18.9862 20.6642 18.9862C20.6673 18.9862 20.6673 18.9862 20.6704 18.9862C20.683 19.005 20.6924 19.0175 20.7049 19.0175C20.7112 19.0175 20.7174 19.0144 20.7268 19.0081C20.7143 19.005 20.708 18.9987 20.7018 18.9893C20.7268 18.9925 20.7519 18.9987 20.777 18.9987C20.7801 18.9987 20.7864 18.9987 20.7895 18.9987C20.8334 18.9925 20.8678 18.9675 20.9086 18.9581C20.9431 18.9518 20.9963 18.9487 21.0465 18.9487C21.0903 18.9487 21.1342 18.9518 21.1687 18.9612C21.1687 18.9612 21.1875 18.9456 21.2063 18.9456C21.2188 18.9456 21.2314 18.9518 21.2408 18.9612C21.2564 18.9581 21.269 18.955 21.294 18.9518C21.2972 18.9518 21.3003 18.9518 21.3034 18.9518C21.3066 18.9518 21.3097 18.9518 21.3128 18.9518C21.3191 18.9518 21.3222 18.9518 21.3254 18.9518H21.3285H21.3316H21.3379L21.3316 18.955C21.3222 18.9643 21.3191 18.9768 21.3097 18.9862C21.3003 18.9925 21.2878 18.9925 21.2752 18.9956L21.2815 18.9831C21.2564 18.9893 21.2314 19.0018 21.2032 19.0112L21.2 19.0144C21.1718 19.0018 21.1718 19.0018 21.1656 18.9956C21.1781 18.9925 21.1938 18.9893 21.2063 18.9862L21.2094 18.98L21.1718 18.9675C21.1186 18.9831 21.0747 19.0112 21.0245 19.03L21.0277 19.0237C21.0277 19.0237 20.9525 19.0144 20.8835 19.0144C20.8271 19.0144 20.7738 19.0206 20.7832 19.0456C20.7707 19.0425 20.7613 19.0425 20.7488 19.0425C20.7268 19.0425 20.708 19.0456 20.6861 19.0487C20.6673 19.0519 20.6453 19.0519 20.6265 19.0519ZM20.426 19.0144C20.4009 19.0144 20.3821 19.0018 20.3821 18.9581C20.3758 18.98 20.357 18.9893 20.3163 18.9893C20.2474 18.9893 20.1095 18.955 19.8682 18.8956H19.8744C19.8588 18.8925 19.8431 18.8893 19.8274 18.8862C19.865 18.8425 19.9026 18.7987 19.9371 18.7549C19.9559 18.7581 19.9747 18.7643 19.9935 18.7643C19.9935 18.7643 19.9967 18.7643 19.9998 18.7643C20.0875 18.7612 20.169 18.7237 20.2568 18.7237C20.2662 18.7237 20.2787 18.7237 20.2881 18.7237L20.31 18.7268C20.3758 18.7424 20.3852 18.7737 20.3915 18.8018C20.3664 18.8206 20.3382 18.8362 20.3038 18.8362C20.2881 18.8362 20.2724 18.8331 20.2568 18.8268C20.285 18.8737 20.2912 18.88 20.379 18.8956C20.5137 18.9143 20.5012 18.9675 20.4918 18.9831L20.4855 18.9925C20.4761 19.0018 20.4511 19.0144 20.426 19.0144ZM19.8713 18.8925L19.8807 18.8956L19.8964 18.8925H19.8713ZM23.0521 18.6706C23.0333 18.6706 23.0208 18.6643 23.0208 18.6643C23.0364 18.583 23.0364 18.583 23.0427 18.5768C23.0615 18.5549 23.074 18.5487 23.0866 18.5487C23.096 18.5487 23.1085 18.5549 23.121 18.5674C23.121 18.5674 23.1242 18.5705 23.1273 18.5705C23.1336 18.5705 23.1398 18.5674 23.1492 18.5549C23.1775 18.5205 23.19 18.483 23.2119 18.4487L23.2307 18.4268C23.2307 18.4268 23.2401 18.3049 23.2339 18.2643C23.2276 18.2705 23.2276 18.2705 23.2213 18.2705L23.2307 18.2549L23.237 18.258C23.237 18.2424 23.2339 18.2361 23.2339 18.2268C23.2433 18.2143 23.2495 18.208 23.2589 18.2049C23.2934 18.2049 23.2997 18.3299 23.2652 18.458V18.4549V18.4612V18.458V18.4643L23.2589 18.4799C23.2527 18.4955 23.2495 18.5049 23.2339 18.5205H23.2307C23.2276 18.5143 23.2276 18.5018 23.2276 18.4612C23.1649 18.6424 23.0928 18.6706 23.0521 18.6706ZM21.2439 18.6237L21.2345 18.6206C21.2282 18.5643 21.2502 18.5174 21.2564 18.5018C21.2502 18.5049 21.2376 18.508 21.2251 18.508C21.1969 18.508 21.1656 18.4893 21.1781 18.3893C21.1906 18.283 21.1875 18.2768 21.1624 18.2424C21.1091 18.2955 21.0465 18.6143 21.0465 18.6174C21.0308 18.6112 21.0151 18.6081 20.9995 18.6081C20.9838 18.6081 20.965 18.6112 20.9431 18.6206C20.965 18.5018 20.9368 18.3799 20.9713 18.2643C21.0057 18.1486 21.0935 18.0611 21.1311 17.9486C21.1499 17.8892 21.1624 17.8267 21.1875 17.7673C21.1906 17.758 21.1969 17.7455 21.2063 17.7329C21.222 17.7111 21.247 17.6954 21.2784 17.6892C21.3943 17.6611 21.5134 17.6517 21.6325 17.6298C21.645 17.6267 21.6638 17.6236 21.6764 17.6204C21.6764 17.6361 21.6795 17.6548 21.6764 17.6704C21.667 17.6986 21.667 17.6986 21.5886 17.7892L21.6043 17.7705C21.5761 17.7986 21.5635 17.808 21.5259 17.808C21.5103 17.808 21.4915 17.808 21.4633 17.8048C21.4257 17.7986 21.3912 17.7955 21.363 17.7955C21.3128 17.7955 21.2721 17.8048 21.2188 17.8455C21.1374 17.9017 21.1217 17.933 21.1593 17.9517C21.1906 17.9642 21.2188 17.9674 21.2502 17.9674C21.2752 17.9674 21.3034 17.9642 21.3316 17.9611C21.3599 17.958 21.3849 17.9549 21.4131 17.9549C21.4288 17.9549 21.4413 17.9549 21.457 17.958C21.3818 17.9767 21.3379 18.133 21.2846 18.133C21.2721 18.133 21.2596 18.1267 21.247 18.1111C21.2502 18.2299 21.3034 18.3424 21.2846 18.4643C21.3003 18.4487 21.3128 18.4424 21.3316 18.4393C21.3316 18.483 21.2909 18.6018 21.2439 18.6237ZM20.6861 18.4143C20.7237 18.3643 20.7112 18.3549 20.6924 18.3549C20.683 18.3549 20.6704 18.3611 20.6704 18.3611C20.6422 18.3737 20.5983 18.3893 20.5639 18.3893C20.5294 18.3893 20.5075 18.3737 20.52 18.3143C20.5043 18.3236 20.473 18.3299 20.4417 18.3299C20.3852 18.3299 20.3226 18.3143 20.2944 18.283C20.5701 17.8892 20.8146 17.4673 21.0183 17.0266C21.0308 17.0235 21.0371 17.0235 21.0402 17.0235C21.0496 17.0235 21.0527 17.0266 21.059 17.0297C21.0559 17.0391 21.0559 17.0391 21.0371 17.0485C21.059 17.0391 21.0997 17.0204 21.1248 17.0204C21.1906 17.0235 21.0715 17.1579 21.059 17.1735H21.0559C21.0621 17.1829 21.0653 17.1954 21.0684 17.2048C21.0684 17.2298 21.0559 17.261 21.0308 17.261C21.0214 17.261 21.012 17.2579 20.9995 17.2485C21.0089 17.2798 21.012 17.2954 21.012 17.3016L21.0057 17.3048L20.9995 17.2985C21.012 17.3485 20.9744 17.3548 20.9525 17.3548C20.9493 17.3548 20.9462 17.3548 20.9431 17.3548C20.9838 17.4204 20.9838 17.4204 20.9838 17.4235C20.9713 17.4204 20.9713 17.4204 20.9556 17.4079C21.0809 17.5892 21.0841 17.6829 21.0684 17.7298C21.0621 17.7423 21.0559 17.758 21.0371 17.758C21.0245 17.758 21.0089 17.7486 20.9869 17.7236C20.9901 17.7705 20.9932 17.7955 20.965 17.8611C20.9243 17.9517 20.8428 18.0142 20.802 18.1049C20.7676 18.1768 20.777 18.2643 20.7394 18.3361C20.7268 18.3611 20.7049 18.3924 20.6861 18.4143ZM21.6576 18.3768C21.6482 18.3768 21.6419 18.3737 21.6356 18.3705C21.6074 18.3549 21.6137 18.3205 21.6137 18.308C21.6137 18.3018 21.6168 18.2799 21.645 18.2736C21.6482 18.2736 21.6482 18.2736 21.6513 18.2736C21.6826 18.2736 21.714 18.2955 21.7171 18.3236V18.3393C21.7077 18.3611 21.6826 18.3768 21.6576 18.3768ZM21.9302 18.3737C21.8989 18.3737 21.8581 18.3643 21.8174 18.3424L21.8143 18.3455H21.8111L21.8174 18.3424L21.7954 18.3268C21.7422 18.2799 21.8049 18.258 21.8487 18.2549H21.8519C21.8738 18.2549 21.9553 18.258 21.996 18.3268C21.9929 18.3174 21.9835 18.308 21.9835 18.2986C21.9866 18.3018 22.0085 18.3236 21.9929 18.3486C21.9803 18.3674 21.9584 18.3737 21.9302 18.3737ZM21.8832 17.9799C21.8738 17.9799 21.8613 17.9674 21.8519 17.9173C21.8456 17.8861 21.8393 17.7517 21.8425 17.7361L21.8487 17.7423C21.8613 17.6173 21.8895 17.5798 21.9145 17.5611L21.9239 17.5548C21.9114 17.5673 21.9114 17.5673 21.9051 17.6017C21.8989 17.6392 21.9051 17.6798 21.8989 17.7173C21.9051 17.7111 21.9114 17.7017 21.9177 17.6923C21.9145 17.6798 21.949 17.6392 21.9709 17.6392H21.9741C21.9396 17.7392 21.9396 17.7673 21.9521 17.8267C21.9427 17.8267 21.8519 17.8298 21.8863 17.9767L21.8832 17.9799ZM21.7234 17.0547C21.6983 17.0141 21.645 16.9985 21.6294 16.9516C21.6137 16.9016 21.6482 16.8547 21.6482 16.8047C21.6482 16.786 21.6388 16.7797 21.6262 16.7797C21.6137 16.7797 21.6012 16.786 21.5886 16.7891C21.573 16.7922 21.5573 16.7953 21.5447 16.7953C21.5291 16.7953 21.5165 16.7922 21.5071 16.7797C21.504 16.7922 21.4946 16.8141 21.4539 16.8641C21.4758 16.8266 21.4695 16.7828 21.4821 16.7391C21.4946 16.6985 21.5385 16.6797 21.5761 16.6797C21.5949 16.6797 21.6137 16.686 21.62 16.6985L21.6137 16.711C21.7359 16.5766 21.7359 16.5766 21.7516 16.5203L21.6764 16.3859C21.6482 16.3359 21.6482 16.3359 21.6482 16.3359H21.6544C21.6388 16.2797 21.6356 16.2484 21.6513 16.2078L21.6576 16.2171C21.6513 16.1984 21.6544 16.1921 21.6607 16.1859C21.6701 16.2046 21.6701 16.2046 21.6701 16.2234H21.6607C21.667 16.2328 21.6732 16.2359 21.6795 16.2359C21.6858 16.2359 21.692 16.2328 21.7014 16.2265C21.6231 16.1171 21.6231 16.1171 21.6325 16.0703L21.6388 16.0671C21.6294 16.0515 21.6012 15.9952 21.5698 15.9609C21.551 15.9421 21.5385 15.9327 21.5291 15.9327C21.5103 15.9327 21.5071 15.9609 21.5071 15.9734C21.5134 15.9765 21.5353 15.9952 21.5447 16.039C21.5009 16.0077 21.4789 15.9515 21.4288 15.9296C21.4382 15.9046 21.4445 15.8796 21.4507 15.8546C21.457 15.8546 21.4633 15.8546 21.4664 15.8546C21.5009 15.8546 21.5479 15.8702 21.5541 15.9265C21.5604 15.9046 21.5604 15.9046 21.573 15.8952C21.5949 15.8984 21.5949 15.8984 21.645 16.0671C21.6607 16.0671 21.6764 16.064 21.6858 16.064C21.7171 16.064 21.7265 16.0765 21.7453 16.1265C21.7641 16.1703 21.786 16.264 21.739 16.264C21.7328 16.264 21.7265 16.2609 21.7171 16.2578C21.7265 16.4234 21.7265 16.4234 21.761 16.4484L21.7547 16.4234C21.761 16.4047 21.7704 16.3859 21.7766 16.3672C21.7829 16.4578 21.7829 16.4578 21.7704 16.464V16.4672C21.8738 16.5953 21.8362 16.8985 21.8331 16.9016C21.8299 16.9235 21.8237 16.9547 21.8174 16.9766C21.8017 16.9641 21.8017 16.961 21.7954 16.8797C21.7798 16.9422 21.7234 16.986 21.7234 17.0547ZM21.4413 16.8797L21.4539 16.8641V16.8672L21.4413 16.8797ZM21.4915 16.5359C21.457 16.5359 21.504 16.3172 21.5447 16.2859C21.5541 16.2859 21.5824 16.2922 21.5761 16.364C21.573 16.389 21.5635 16.4422 21.5635 16.4422C21.5479 16.4766 21.5103 16.5359 21.4915 16.5359ZM21.4351 16.3734C21.4257 16.3734 21.4163 16.3703 21.4131 16.3609C21.4006 16.3328 21.4131 16.2515 21.4194 16.2015C21.4257 16.1703 21.4257 16.164 21.4257 16.1546C21.4288 16.1609 21.4319 16.164 21.4351 16.164C21.4351 16.164 21.4351 16.164 21.4351 16.1609C21.4445 16.1765 21.457 16.1921 21.504 16.2453C21.5228 16.2703 21.5322 16.2797 21.5291 16.2953C21.5291 16.3078 21.5197 16.3203 21.5071 16.3328C21.5071 16.3328 21.4633 16.3734 21.4351 16.3734ZM21.62 16.189C21.6074 16.1578 21.5918 16.1421 21.573 16.1421C21.5604 16.1421 21.5479 16.1515 21.5322 16.1671V16.1546C21.5353 16.139 21.5353 16.139 21.5353 16.139L21.5416 16.1453C21.5635 16.0984 21.573 16.0703 21.573 16.0484V16.0421C21.6012 16.0671 21.6294 16.1171 21.6262 16.164C21.6231 16.1734 21.62 16.1828 21.62 16.189ZM21.4194 15.9609C21.4225 15.9546 21.4225 15.9515 21.4257 15.9452C21.4257 15.9546 21.4225 15.9577 21.4194 15.9609ZM21.7422 13.1199C21.7265 12.8667 21.6983 12.6198 21.6607 12.3761C21.714 12.4698 21.7704 12.5792 21.8362 12.7042C21.8237 12.6824 21.8237 12.6824 21.8237 12.673C21.8237 12.6761 21.9584 12.8636 21.9584 12.9668L21.9521 12.973C21.9083 12.948 21.9145 12.8886 21.8832 12.8574L21.8769 12.8667C21.8801 12.8824 21.8895 12.898 21.8926 12.9136C21.8832 12.9043 21.8801 12.9043 21.8738 12.9043H21.8707C21.8707 12.9324 21.8926 12.9574 21.8832 12.9855C21.8675 12.9824 21.8331 12.9543 21.8519 12.9324L21.8362 12.923C21.8299 12.9324 21.8237 12.9386 21.8456 12.9918C21.8331 12.9886 21.8268 12.9855 21.8143 12.9855C21.8111 12.9855 21.808 12.9855 21.8017 12.9886H21.7954C21.7704 12.9855 21.7672 12.9855 21.7516 12.9793C21.7516 12.9949 21.761 13.0355 21.7516 13.0918V13.0949C21.7484 13.1043 21.7453 13.1137 21.7422 13.1199ZM21.5761 11.9323C21.5761 11.9291 21.5761 11.926 21.5761 11.9229C21.5761 11.9229 21.5761 11.9229 21.5792 11.926C21.5792 11.926 21.5792 11.9291 21.5761 11.9323ZM21.5291 11.6479C21.5071 11.6041 21.5103 11.601 21.5103 11.601V11.6041C21.5103 11.5916 21.5103 11.5822 21.5197 11.5791H21.5259L21.5291 11.5822C21.551 11.6291 21.5385 11.6416 21.5291 11.6479ZM21.5322 11.5166C21.5291 11.5166 21.5165 11.5041 21.5103 11.4978L21.5165 11.501C21.5134 11.4885 21.5134 11.4791 21.5165 11.4728C21.5291 11.4947 21.5353 11.5103 21.5353 11.5166C21.5322 11.5166 21.5322 11.5166 21.5322 11.5166ZM21.4915 11.4103L21.4789 11.3947L21.4946 11.4072L21.4915 11.4103ZM21.4664 11.3728C21.4633 11.3728 21.457 11.3697 21.457 11.3634V11.3603L21.4695 11.3697V11.3728H21.4664ZM21.4257 11.3009C21.4163 11.2822 21.4131 11.2759 21.4163 11.2759H21.4194L21.4257 11.2853V11.3009ZM21.4006 11.2416L21.3943 11.2353C21.3912 11.2291 21.3881 11.2228 21.3881 11.2166C21.3912 11.2228 21.3975 11.2291 21.3975 11.2322L21.4006 11.2416Z" fill="#727271"/>
<path d="M16.0009 13.8044C15.4964 13.3544 14.8508 13.0575 14.1802 12.9762C14.669 13.4137 15.0858 13.9388 15.4055 14.5139C15.6687 14.9921 15.8662 15.5046 15.9852 16.0359C15.9884 16.0516 15.9915 16.0672 15.9978 16.0828L16.0009 16.0734L16.004 16.0828C16.0072 16.0672 16.0103 16.0516 16.0134 16.0359C16.1325 15.5046 16.33 14.9921 16.5963 14.5139C16.916 13.9388 17.3296 13.4137 17.8216 12.9762C17.151 13.0575 16.5054 13.3544 16.0009 13.8044Z" fill="#064E6E"/>
<path d="M16.4144 12.8042C16.4144 13.0324 16.2295 13.2168 16.0008 13.2168C15.7689 13.2168 15.584 13.0324 15.584 12.8042C15.584 12.5729 15.7689 12.3885 16.0008 12.3885C16.2295 12.3885 16.4144 12.5729 16.4144 12.8042Z" fill="#064E6E"/>
<path d="M13.791 14.5265C13.791 14.8234 13.5466 15.0672 13.2489 15.0672C12.948 15.0672 12.7036 14.8234 12.7036 14.5265C12.7036 14.2264 12.948 13.9827 13.2489 13.9827C13.5466 13.9827 13.791 14.2264 13.791 14.5265Z" fill="#064E6E"/>
<path d="M15.6023 16.8829C15.5929 16.7453 15.5804 16.6047 15.5585 16.4672C15.4833 15.9234 15.314 15.3921 14.9787 14.9608C14.7468 14.6545 14.4397 14.4107 14.1389 14.1732V14.17C14.3175 14.7014 14.3958 15.267 14.3614 15.8234C13.6876 15.5358 12.3589 15.1577 11.6318 15.067C13.5654 16.3828 14.6277 17.933 15.2106 19.6113C15.2514 19.4925 15.289 19.3769 15.3266 19.2581C15.5616 18.4924 15.6556 17.683 15.6023 16.8829Z" fill="#064E6E"/>
<path d="M18.2075 14.5265C18.2075 14.8234 18.452 15.0672 18.7528 15.0672C19.0505 15.0672 19.2949 14.8234 19.2949 14.5265C19.2949 14.2264 19.0505 13.9827 18.7528 13.9827C18.452 13.9827 18.2075 14.2264 18.2075 14.5265Z" fill="#064E6E"/>
<path d="M16.3954 16.8829C16.4048 16.7453 16.4205 16.6047 16.4393 16.4672C16.5177 15.9234 16.6869 15.3921 17.0191 14.9608C17.2541 14.6545 17.5581 14.4107 17.8621 14.1732V14.17C17.6803 14.7014 17.6051 15.267 17.6396 15.8234C18.3133 15.5358 19.6389 15.1577 20.3659 15.067C18.4355 16.3828 17.3732 17.933 16.7872 19.6113C16.7496 19.4925 16.7088 19.3769 16.6712 19.2581C16.4393 18.4924 16.3453 17.683 16.3954 16.8829Z" fill="#064E6E"/>
</svg>
