<svg width="90" height="91" viewBox="0 0 90 91" fill="none" xmlns="http://www.w3.org/2000/svg">
<circle cx="45" cy="46" r="45" fill="#19884A"/>
<g clip-path="url(#clip0_1636_9604)">
<path d="M69.581 66.6492L66.027 64.1539C65.7247 63.9417 65.3335 63.9156 65.0059 64.086C64.6782 64.2563 64.4747 64.5914 64.4747 64.9607V66.7225H57.3056V56.9227H58.1662C61.1703 56.9227 63.6143 54.4787 63.6143 51.4747V51.2033C63.6143 50.3092 62.8868 49.5818 61.9928 49.5818H61.2867C59.7168 49.5818 58.3007 50.2501 57.3056 51.3161V44.5587H59.4166C63.0145 44.5587 65.9417 41.6315 65.9417 38.0336C65.9417 37.3326 65.3714 36.7623 64.6704 36.7623H61.8259C61.7929 36.7623 61.7601 36.7632 61.7274 36.7643L61.6924 36.7654C61.2874 36.7742 60.9663 37.1097 60.9752 37.5147C60.9841 37.9197 61.3186 38.2436 61.7245 38.232L61.7769 38.2304C61.7933 38.2298 61.8095 38.2291 61.8259 38.2291H64.471C64.3677 40.9279 62.1402 43.0916 59.4166 43.0916H57.3056V42.7494C57.3056 41.3547 57.9362 40.059 59.0359 39.1946C59.3544 38.9442 59.4096 38.4831 59.1593 38.1646C58.909 37.8461 58.4478 37.791 58.1294 38.0413C57.3401 38.6618 56.7351 39.4512 56.345 40.3378C55.5669 39.3892 54.3864 38.7828 53.0667 38.7828H51.7165C50.8691 38.7828 50.1797 39.4721 50.1797 40.3196C50.1797 42.6569 52.0813 44.5586 54.4186 44.5586H55.8388V55.0297V56.189V66.7223H50.9794C50.5742 66.7223 50.2459 67.0507 50.2459 67.4558C50.2459 67.8609 50.5742 68.1893 50.9794 68.1893H64.4748V69.9511C64.4748 70.3204 64.6783 70.6557 65.006 70.8259C65.1498 70.9006 65.3057 70.9376 65.4611 70.9376C65.6598 70.9376 65.8576 70.8772 66.0271 70.7581L69.5811 68.2627C69.8438 68.0784 70.0005 67.7767 70.0005 67.4559C70.0004 67.1352 69.8436 66.8336 69.581 66.6492ZM51.6467 40.3198C51.6467 40.2812 51.678 40.2499 51.7165 40.2499H53.0667C54.5952 40.2499 55.8388 41.4934 55.8388 43.022V43.0918H54.4186C52.8902 43.0918 51.6467 41.8483 51.6467 40.3198ZM61.2867 51.0489H61.9928C62.078 51.0489 62.1473 51.1181 62.1473 51.2034V51.4748C62.1473 53.6699 60.3614 55.4558 58.1662 55.4558H57.3056V55.03C57.3056 52.8347 59.0915 51.0489 61.2867 51.0489ZM65.9417 69.0258V65.8864L68.1772 67.4561L65.9417 69.0258Z" fill="white"/>
<path d="M47.853 66.7226H45.7826V57.9521H46.8607C49.6122 57.9521 51.8506 55.7136 51.8506 52.9622V52.1167C51.8506 51.1795 51.0882 50.4172 50.1511 50.4172H49.3055C47.3091 50.4172 45.5836 51.5962 44.7865 53.2941C44.1386 52.621 43.2298 52.201 42.2241 52.201H41.2989C40.5999 52.201 40.0312 52.7697 40.0312 53.4686V54.3937C40.0312 56.3558 41.6275 57.9522 43.5897 57.9522H44.3156V66.7227H35.2391V64.2354H35.7823C38.0515 64.2354 39.8977 62.3892 39.8977 60.1199V59.2132C39.8977 58.4033 39.2389 57.7444 38.4289 57.7444H37.8876C36.3411 57.7444 34.9918 58.6021 34.2886 59.8667C33.7073 59.2893 32.9072 58.9318 32.025 58.9318H31.3126C30.6792 58.9318 30.164 59.4471 30.164 60.0804V61.0213C30.164 62.7935 31.6058 64.2353 33.378 64.2353H33.7721V66.7226H24.512V60.1857H25.2598C25.6649 60.1857 25.9932 59.8573 25.9932 59.4522C25.9932 59.0471 25.6649 58.7187 25.2598 58.7187H24.512V53.1293H25.2598C25.6649 53.1293 25.9932 52.8009 25.9932 52.3958C25.9932 51.9907 25.6649 51.6623 25.2598 51.6623H24.512V46.073H25.2598C25.6649 46.073 25.9932 45.7446 25.9932 45.3395C25.9932 44.9344 25.6649 44.606 25.2598 44.606H24.512V39.0167H25.2598C25.6649 39.0167 25.9932 38.6883 25.9932 38.2832C25.9932 37.8781 25.6649 37.5497 25.2598 37.5497H24.512V31.9603H25.2598C25.6649 31.9603 25.9932 31.6319 25.9932 31.2268C25.9932 30.8217 25.6649 30.4933 25.2598 30.4933H24.512V26.5877H26.2739C26.6431 26.5877 26.9783 26.3842 27.1485 26.0566C27.3189 25.729 27.293 25.3377 27.0808 25.0353L24.5854 21.4814C24.4011 21.2189 24.0996 21.0622 23.7788 21.0621C23.7787 21.0621 23.7786 21.0621 23.7785 21.0621C23.4578 21.0621 23.1562 21.2187 22.9717 21.4814L20.4764 25.0353C20.2642 25.3375 20.238 25.7288 20.4084 26.0565C20.5788 26.3842 20.9139 26.5877 21.2832 26.5877H23.045V66.7226H20.7335C20.3283 66.7226 20 67.051 20 67.4561C20 67.8612 20.3283 68.1896 20.7335 68.1896H47.853C48.2582 68.1896 48.5865 67.8612 48.5865 67.4561C48.5865 67.051 48.2581 66.7226 47.853 66.7226ZM45.7826 55.407C45.7826 53.4644 47.3629 51.8841 49.3055 51.8841H50.1511C50.2794 51.8841 50.3836 51.9885 50.3836 52.1167V52.9622C50.3836 54.9048 48.8033 56.4851 46.8607 56.4851H45.7826V55.7593V55.407ZM41.4983 54.3937V53.6679H42.2242C43.3774 53.6679 44.3157 54.6061 44.3157 55.7594V56.4852H43.5898C42.4366 56.4852 41.4983 55.5469 41.4983 54.3937ZM35.2392 61.8599C35.2392 60.3995 36.4273 59.2114 37.8877 59.2114L38.4309 59.2133V60.12C38.4309 61.5804 37.2428 62.7685 35.7824 62.7685H35.2392V62.146V61.8599ZM31.6312 61.0214V60.3989H32.0252C32.9886 60.3989 33.7723 61.1826 33.7723 62.146V62.7684H33.3781C32.4148 62.7684 31.6312 61.9847 31.6312 61.0214ZM23.7785 22.8851L25.3483 25.1208H22.2088L23.7785 22.8851Z" fill="white"/>
<path d="M56.1457 25.4958L53.1076 25.1261C52.7057 25.0772 52.3397 25.3635 52.2908 25.7657C52.2419 26.1678 52.5282 26.5335 52.9303 26.5824L54.2191 26.7392L41.0376 37.1343L40.4627 35.905C40.3669 35.7 40.1818 35.5507 39.9611 35.5005C39.7407 35.4505 39.509 35.5046 39.3338 35.648L28.0503 44.8788C27.7368 45.1353 27.6905 45.5974 27.9471 45.911C28.0921 46.0882 28.3028 46.18 28.5152 46.18C28.6786 46.18 28.843 46.1257 28.9792 46.0142L39.5332 37.3802L40.1007 38.5939C40.1955 38.7969 40.3779 38.9452 40.5958 38.997C40.8136 39.0486 41.0433 38.9979 41.2193 38.8592L55.3238 27.7365V29.456C55.3238 29.8611 55.6521 30.1895 56.0573 30.1895C56.4624 30.1895 56.7908 29.8611 56.7908 29.456V26.224C56.7908 25.8151 56.4645 25.5347 56.1457 25.4958Z" fill="white"/>
</g>
<defs>
<clipPath id="clip0_1636_9604">
<rect width="50" height="50" fill="white" transform="translate(20 21)"/>
</clipPath>
</defs>
</svg>
