<svg width="24" height="24" viewBox="0 0 24 24" fill="none" xmlns="http://www.w3.org/2000/svg">
<path d="M3 2.15H21C22.5744 2.15 23.85 3.42553 23.85 5V19C23.85 20.5744 22.5744 21.85 21 21.85H3C1.42558 21.85 0.15 20.5744 0.15 19V5C0.15 3.42558 1.42558 2.15 3 2.15ZM21 20.15C21.6355 20.15 22.15 19.6355 22.15 19V5C22.15 4.36445 21.6355 3.85002 21 3.85002H3C2.36445 3.85002 1.85002 4.36445 1.85002 5V19C1.85002 19.6355 2.36445 20.15 3 20.15H21Z" fill="black" stroke="white" stroke-width="0.3"/>
<path d="M10.8029 11.6379L10.6721 11.7769L10.838 11.8711C12.0579 12.5641 12.85 13.6905 12.85 15C12.85 15.4694 12.4694 15.85 12 15.85H3.99998C3.53055 15.85 3.15 15.4694 3.15 15C3.15 13.6905 3.94213 12.5641 5.16195 11.8711L5.32791 11.7769L5.19707 11.6379C4.54809 10.9486 4.14998 10.0212 4.14998 8.99998C4.14998 6.87356 5.87359 5.15 8.00002 5.15C10.1264 5.15 11.85 6.87356 11.85 8.99998C11.85 10.0212 11.4519 10.9486 10.8029 11.6379ZM5.30556 13.9006L5.08493 14.15H5.41791H10.5821H10.9151L10.6945 13.9006C10.1466 13.2813 9.15841 12.85 8.00002 12.85C6.84163 12.85 5.85346 13.2813 5.30556 13.9006ZM8.00002 6.84997C6.81242 6.84997 5.85 7.81244 5.85 8.99998C5.85 10.1875 6.81242 11.15 8.00002 11.15C9.18761 11.15 10.15 10.1876 10.15 8.99998C10.15 7.81239 9.18761 6.84997 8.00002 6.84997Z" fill="black" stroke="white" stroke-width="0.3"/>
<path d="M18 7.84997H15C14.5306 7.84997 14.15 7.46938 14.15 6.99998C14.15 6.53055 14.5305 6.15 15 6.15H18C18.4694 6.15 18.85 6.53055 18.85 6.99998C18.85 7.46942 18.4694 7.84997 18 7.84997Z" fill="black" stroke="white" stroke-width="0.3"/>
<path d="M15 9.15H20C20.4694 9.15 20.85 9.53055 20.85 9.99998C20.85 10.4694 20.4694 10.85 20 10.85H15C14.5305 10.85 14.15 10.4694 14.15 9.99998C14.15 9.53055 14.5305 9.15 15 9.15Z" fill="black" stroke="white" stroke-width="0.3"/>
<path d="M6.99998 17.15H17C17.4694 17.15 17.85 17.5305 17.85 18C17.85 18.4694 17.4694 18.85 17 18.85H6.99998C6.53055 18.85 6.15 18.4694 6.15 18C6.15 17.5305 6.53055 17.15 6.99998 17.15Z" fill="black" stroke="white" stroke-width="0.3"/>
<path d="M15 12.15H20C20.4694 12.15 20.85 12.5305 20.85 13C20.85 13.4694 20.4694 13.85 20 13.85H15C14.5305 13.85 14.15 13.4694 14.15 13C14.15 12.5305 14.5305 12.15 15 12.15Z" fill="black" stroke="white" stroke-width="0.3"/>
</svg>
