<svg width="109" height="109" viewBox="0 0 109 109" fill="none" xmlns="http://www.w3.org/2000/svg">
<path d="M96.9444 17.9553C100.203 17.9553 102.844 15.314 102.844 12.0558C102.844 8.79763 100.203 6.15634 96.9444 6.15634C93.6862 6.15634 91.0449 8.79763 91.0449 12.0558C91.0449 15.314 93.6862 17.9553 96.9444 17.9553Z" fill="#19884A"/>
<path d="M98.1235 0.256866H95.7637V3.79656H98.1235V0.256866Z" fill="#19884A"/>
<path d="M98.1235 20.3151H95.7637V23.8548H98.1235V20.3151Z" fill="#19884A"/>
<path d="M108.744 10.8759H105.204V13.2357H108.744V10.8759Z" fill="#19884A"/>
<path d="M88.6842 10.8759H85.1445V13.2357H88.6842V10.8759Z" fill="#19884A"/>
<path d="M104.453 2.88101L101.95 5.38358L103.619 7.05242L106.122 4.54986L104.453 2.88101Z" fill="#19884A"/>
<path d="M90.2695 17.0632L87.7666 19.5661L89.4352 21.2347L91.9381 18.7318L90.2695 17.0632Z" fill="#19884A"/>
<path d="M103.619 17.0625L101.95 18.7311L104.453 21.2341L106.122 19.5654L103.619 17.0625Z" fill="#19884A"/>
<path d="M89.433 2.87623L87.7646 4.54507L90.2679 7.04764L91.9363 5.37879L89.433 2.87623Z" fill="#19884A"/>
<path d="M97.8713 97.5558L103.425 100.699L102.263 102.752L96.3634 99.413C96.1392 99.2868 95.9622 99.0897 95.8607 98.8514L95.0679 97.0084H91.0444L87.5047 98.3888L80.4253 96.0291L78.9328 95.6562C78.5871 96.2827 78.2461 96.9258 77.9417 97.5346C77.8272 97.7623 77.642 97.9487 77.4142 98.062L67.9751 102.782L66.9191 100.671L76.009 96.1258C76.147 95.8556 76.3441 95.4792 76.5659 95.0639L75.7057 94.8492H70.9862L61.547 91.3095H55.6452L55.6369 83.0042C62.885 82.5334 68.6264 76.3425 68.6264 68.9799V68.6909C61.3334 68.6909 55.3679 74.5042 54.811 81.6709L54.1231 81.6721C53.5662 74.5219 47.6006 68.8914 40.3089 68.8914V69.1805C40.3089 76.536 46.0396 82.5381 53.2771 83.0054L53.2854 91.3106H47.3882L42.6687 93.6704L28.5099 97.2101L25.0245 97.7458L25.6734 98.5576L28.8827 99.6277C28.9819 99.6596 29.0774 99.7056 29.1636 99.7646L32.7032 102.124L31.3947 104.088L27.986 101.815L24.5962 100.685C24.3803 100.613 24.1903 100.481 24.0487 100.304L22.3331 98.1588L13.1712 99.5687L0.192383 97.209V108.807H108.743V97.0084H97.6353L97.8713 97.5558Z" fill="#19884A"/>
<path d="M23.7906 13.2357H9.63184V29.7543H23.7906V13.2357Z" fill="#19884A"/>
<path d="M34.4097 9.69604V16.7754H26.1504V26.2146H47.3885C48.6923 26.2146 49.7483 27.2706 49.7483 28.5744V34.4739H58.0076V26.2146C58.0076 21.0018 53.7812 16.7754 48.5684 16.7754H46.2086V9.69604H43.8488V7.33624H45.0287V4.97645H53.288V2.61666H45.0287V0.256866H35.5896V2.61666H27.3303V4.97645H35.5896V7.33624H36.7695V9.69604H34.4097ZM39.1293 7.33624H41.489V9.69604H39.1293V7.33624Z" fill="#19884A"/>
<path d="M46.9322 53.9009C43.8762 59.5018 47.9304 66.3311 54.3101 66.3311C60.6898 66.3311 64.7439 59.5018 61.6891 53.9009L54.3101 40.3734L46.9322 53.9009ZM55.1596 62.7914C52.0022 62.7914 49.4324 60.1449 49.4324 56.8919H51.7922C51.7922 58.8435 53.3024 60.4316 55.1596 60.4316V62.7914Z" fill="#19884A"/>
<path d="M7.27176 15.5955H0.192383V27.3945H7.27176V15.5955Z" fill="#19884A"/>
</svg>
