<svg width="24" height="24" viewBox="0 0 24 24" fill="none" xmlns="http://www.w3.org/2000/svg">
<g clip-path="url(#clip0_2564_2210)">
<path d="M21.3363 8.80969C21.0509 3.86932 16.9457 0 11.9892 0C11.814 0 11.6367 0.00483665 11.4593 0.01451C6.31312 0.311695 2.36749 4.74153 2.66467 9.8888C2.86512 13.3492 4.94327 16.3984 8.08817 17.844L8.16179 17.8779L8.21661 17.937C10.0218 19.9028 11.9209 22.6624 12.1316 22.9703L12.8275 23.9995L13.423 22.9241C13.9153 22.0465 15.5178 19.2042 16.6071 17.5366L16.6587 17.4582L16.7399 17.4093C19.7316 15.6487 21.5357 12.2727 21.3363 8.80969ZM15.7672 16.2248L15.6054 16.3151L15.5028 16.4683C14.6923 17.6796 13.5891 19.5761 13.0044 20.5988L12.6959 21.1372L12.3294 20.6353C11.5319 19.5454 10.334 17.9816 9.15976 16.7305L9.05174 16.6155L8.90771 16.5542C6.16103 15.3725 4.34836 12.7849 4.17478 9.80228C3.92542 5.48691 7.23262 1.77344 11.548 1.52355C15.8822 1.26989 19.5779 4.60234 19.8256 8.89621C19.9992 11.9008 18.4058 14.7776 15.7672 16.2248Z" fill="black"/>
<path d="M16.5315 7.63981L16.4063 7.50277L16.3816 7.28028L16.2531 7.35068L16.1849 7.62207L15.9973 7.42431L15.9898 7.23729L15.8114 7.08252L15.7442 7.01695H15.5362L15.6023 7.20289L15.8522 7.34262L15.8952 7.38884L15.8409 7.41571L15.8431 7.56242L15.7211 7.61347L15.6174 7.5909L15.5523 7.49847L15.7211 7.5076L15.7673 7.44634L15.3917 7.19268L15.3621 7.0852L15.21 7.22278L15.0558 7.19107L14.8204 7.49739L14.7742 7.61723L14.6242 7.63013L14.4007 7.63174L14.2674 7.56941L14.2287 7.30554L14.2771 7.17925L14.5033 7.12981L14.7511 7.17925L14.7817 7.04275L14.6758 7.01749L14.7124 6.80468L14.9612 6.76598L15.1353 6.52039L15.3137 6.49029L15.4766 6.51394H15.5362L15.5024 6.28339L15.3057 6.36293L15.2364 6.19042L15.1219 6.17484L15.0998 6.05607L15.1944 5.95504L15.4158 5.86798L15.4723 5.76641C14.6253 5.01995 13.5129 4.56531 12.2984 4.56531C11.2434 4.56531 10.2675 4.90817 9.47375 5.48642L9.71504 5.48427L9.82306 5.54339L10.0267 5.58799L10.0423 5.66753L10.3669 5.67935L10.3229 5.57563L10.0353 5.56757L10.1025 5.50362L10.0799 5.42784H9.81984L10.1031 5.21503H10.3761L10.5029 5.3913L10.7152 5.40259L10.8431 5.27898L10.9387 5.32735L10.7635 5.49878C10.7635 5.49878 10.5201 5.50308 10.5314 5.50308C10.5426 5.50308 10.5512 5.67129 10.5512 5.67129L10.8474 5.66269L10.8791 5.58315L11.0827 5.57187L11.1069 5.45149L10.9871 5.43107L11.0269 5.32305L11.1182 5.29564L11.4385 5.31123L11.2622 5.47137L11.2907 5.59498L11.4745 5.62292L11.4627 5.39882L11.639 5.30639L11.9496 5.27092L12.401 5.47084V5.64227L12.5461 5.67827L12.4735 5.81424H12.2699L12.2102 5.96955L11.7443 5.85938L12.1108 5.66484L11.9711 5.54607L11.6551 5.58638L11.6266 5.61486L11.6255 5.61432L11.6212 5.62131L11.5299 5.71589L11.3799 5.72825L11.3912 5.80349L11.4439 5.82499L11.4428 5.85024L11.3197 5.8669L11.3101 5.93784L11.194 5.94375L11.173 5.80295L10.9629 5.86637L10.5346 6.11787L10.583 6.2936L10.7028 6.37207L10.9419 6.40538V6.67785L11.0532 6.66012L11.1548 6.4473L11.41 6.36669V6.04049L11.5519 5.93354L11.8942 6.01415L11.87 6.22965H11.9614L12.2145 6.10605L12.2258 6.3898L12.4096 6.50158L12.401 6.66979L12.2258 6.72998L12.2382 6.78533L12.4494 6.88206L12.4461 6.99761L12.3843 7.00298C12.3843 7.00137 12.3833 6.99976 12.3833 6.99976L12.1167 6.91753L12.1054 6.83155L12.1833 6.77781V6.69988L12.0995 6.67892L12.0786 6.75094L11.9318 6.77404L11.9173 6.76867V6.77619L11.8657 6.78426L11.8249 6.70042L11.7765 6.67946H11.6717L11.6234 6.71816V6.80468L11.7137 6.83531L11.8018 6.84713L11.783 6.85627L11.7024 6.94602L11.6669 6.90087L11.5863 6.87884L11.3735 7.07983L11.402 7.1024L11.087 7.27706L10.7909 7.58392L10.771 7.72095L10.4749 7.91603L10.3282 8.06328L10.3438 8.35885L10.1401 8.26427L10.1412 8.09069L9.57424 8.09123L9.28028 8.23955L9.15346 8.47493L9.10294 8.66141L9.18463 8.84198L9.41678 8.87047L9.78437 8.62487L9.81715 8.74632L9.70483 8.95914L9.98428 9.00697L10.0128 9.43904L10.397 9.5046L10.6405 9.22247L10.9366 9.28266L11.0392 9.42722L11.3235 9.41109L11.331 9.32672L11.4874 9.40357L11.6626 9.67926L11.9668 9.68356L12.078 9.87918L12.0936 10.1183L12.4295 10.2462L12.8524 10.25L12.9766 10.4537L13.1652 10.5139L13.1297 10.6821L12.9239 10.9438L12.8632 11.5215L12.6772 11.6687L12.401 11.6601L12.3096 11.8197L12.3779 12.1202L12.0775 12.5033L11.9818 12.6796L11.6965 12.8172L11.5084 12.8462L11.4998 12.9247L11.632 12.9628L11.6164 13.0483L11.4976 13.1622L11.5691 13.2525L11.712 13.2568L11.7034 13.3664L11.6658 13.4739L11.6545 13.562L11.8647 13.7394L11.8362 13.8313L11.5508 13.8253L11.2665 13.5765L11.044 13.1864L11.0758 12.8102L10.9075 12.5861L10.9758 12.2067L10.8758 12.1787V11.356C10.8758 11.356 10.5959 11.1432 10.5797 11.1432C10.5631 11.1432 10.4319 11.1082 10.4319 11.1082L10.4035 10.9518L10.0402 10.4967L10.0756 10.3322L10.0869 10.0646L10.339 9.88885L10.3035 9.58898L9.93592 9.56103L9.64841 9.23375L9.44366 9.17786L9.31307 9.15368L9.32865 9.03384L9.16152 9.01019V9.07737L8.74073 8.97472L8.57252 8.71677L8.64077 8.59209L8.37529 8.20354L8.33015 7.91979H8.22213L8.2576 8.19602L8.44139 8.47977L8.42151 8.59209L8.2662 8.56791L8.07435 8.24063V7.86068L7.87497 7.76448V7.49041C7.6283 8.06866 7.49072 8.70494 7.49072 9.3724C7.49072 12.024 9.64787 14.1806 12.2989 14.1806C13.8015 14.1806 15.145 13.4868 16.0279 12.4034H15.8694V12.0831L15.6851 11.8353V11.4522L15.5443 11.3119L15.533 11.1518L15.7098 10.8116L15.3729 10.2172L15.4126 9.81307L15.1101 9.78083L14.9977 9.66905H14.793L14.6903 9.76525H14.3303L14.319 9.79749H14.1185L13.6596 9.27406L13.6639 8.86617L13.7397 8.83822L13.7687 8.68237H13.6607L13.6166 8.51846L14.1476 8.13529V7.86337L14.4071 7.71827L14.5119 7.72902H14.7258L14.8935 7.63873L15.433 7.59681V7.87358L15.8592 7.98106L15.942 8.04071H16.0204V7.89077L16.266 7.86713L16.4998 8.04071H16.884L16.9114 8.01653C16.8728 7.88647 16.8298 7.75965 16.7814 7.63551L16.5315 7.63981ZM14.5109 6.26727L14.5549 6.19956L14.7135 6.16785L14.7521 6.35917L14.8365 6.49513L14.8924 6.55908L14.9934 6.59831L14.8978 6.71224L14.7118 6.73052H14.571L14.5872 6.56446L14.7032 6.54081L14.693 6.46235L14.585 6.3941L14.5082 6.34251V6.26727H14.5109ZM14.2513 6.56768L14.3486 6.41398L14.477 6.38335L14.5694 6.42312L14.5608 6.52738L14.3636 6.6671H14.2513V6.56768ZM11.639 7.15883L11.539 7.16689L11.5444 7.09756L11.5895 7.04167L11.6492 7.08843L11.639 7.15883ZM11.9904 7.0363L11.9222 7.04221L11.9077 7.10831L11.855 7.14109L11.7712 7.14808C11.7679 7.12873 11.7658 7.11369 11.7658 7.11369H11.733V7.04275H11.8717L11.9001 6.96912L11.955 6.96805L12.0168 6.98041L11.9904 7.0363Z" fill="black"/>
</g>
<defs>
<clipPath id="clip0_2564_2210">
<rect width="24" height="24" fill="white"/>
</clipPath>
</defs>
</svg>
