<svg width="222" height="50" viewBox="0 0 222 50" fill="none" xmlns="http://www.w3.org/2000/svg">
<g clip-path="url(#clip0_556_7260)">
<path fill-rule="evenodd" clip-rule="evenodd" d="M23.9854 38.6503L26.9872 38.7441V28.7066C28.6758 29.5509 35.8052 37.0556 37.6814 38.1813C38.9009 37.4308 48.4694 29.0818 49.4075 28.6128V38.7441H52.4094L52.5032 18.4814C50.8146 19.6071 43.779 26.6428 41.5276 28.519C40.1204 29.7385 39.1823 31.1456 37.6814 32.0837C35.3362 30.6766 25.4863 19.2319 23.9854 18.4814V38.6503Z" fill="#039441"/>
<path fill-rule="evenodd" clip-rule="evenodd" d="M34.0225 27.5811C34.8667 28.2377 35.242 28.8944 36.3677 29.7387C36.9305 28.5191 37.1181 28.2377 37.7748 26.9244C38.2438 27.8625 38.7129 28.8944 39.1819 29.7387L41.621 27.3934L37.681 18.2002L34.0225 27.5811Z" fill="#D5C95D"/>
<path fill-rule="evenodd" clip-rule="evenodd" d="M41.8066 36.1157L42.5571 37.8042C42.6509 37.9918 42.6509 38.0856 42.9323 38.6485L46.5909 38.7423C45.8404 36.9599 45.2776 35.3652 44.7147 33.8643C43.6828 34.4271 42.3695 35.3652 41.8066 36.1157Z" fill="#D5C95D"/>
<path fill-rule="evenodd" clip-rule="evenodd" d="M29.8008 38.7441H32.4274H33.5531L34.3036 36.1175C33.0841 35.4608 32.615 34.898 31.4893 34.0537L29.8008 38.7441Z" fill="#D5C95D"/>
<path fill-rule="evenodd" clip-rule="evenodd" d="M51.2822 16.7931C51.2822 16.2303 51.0946 15.2922 51.5636 14.7294C51.6574 14.5417 51.5636 14.6355 51.7512 14.5417C51.845 15.9489 51.5636 15.8551 52.4079 16.887C52.7831 16.7931 53.346 16.3241 53.5336 16.0427C53.815 15.5736 53.6274 14.8232 53.4398 14.3541C53.2522 13.6975 52.4079 12.1027 52.0326 11.8213C51.4698 12.3841 50.8131 13.2284 50.3441 14.1665C49.7812 15.4798 49.9689 16.5117 51.2822 16.7931Z" fill="#D5C95D"/>
<path fill-rule="evenodd" clip-rule="evenodd" d="M53.4404 19.3252C53.5342 19.2314 53.628 19.0438 53.7218 18.95C53.8157 18.7624 53.9095 18.5748 54.0033 18.481C54.2847 18.2933 54.5661 18.0119 55.0352 18.0119C54.8475 18.5748 54.1909 18.5748 54.0971 20.1695C54.4723 20.3571 55.3166 20.2633 55.6918 20.0757C56.5361 19.6067 57.099 17.1676 57.099 16.1357C55.3166 16.3234 51.8457 17.1676 53.4404 19.3252Z" fill="#D5C95D"/>
<path fill-rule="evenodd" clip-rule="evenodd" d="M49.5937 20.1695C49.5937 19.6067 49.4999 19.2314 49.3122 18.8562C49.1246 18.5748 48.7494 18.1995 48.6556 18.0119C49.2184 18.0119 49.6875 18.481 49.9689 18.8562C50.1565 19.0438 50.1565 19.2314 50.3441 19.3252C51.7513 17.0738 48.1865 16.3234 46.5918 16.1357C46.5918 17.0738 46.967 18.3871 47.2485 19.0438C47.4361 19.5129 47.7175 19.8881 47.9989 20.0757C48.3742 20.2633 49.2184 20.3571 49.5937 20.1695Z" fill="#D5C95D"/>
<path fill-rule="evenodd" clip-rule="evenodd" d="M16.0111 14.3527C15.2606 14.9156 15.4482 15.0094 14.4163 15.4784C13.6658 7.78612 15.1668 12.0075 10.664 4.97186C10.1949 4.12758 9.63208 2.43902 9.06923 1.59475C6.72401 4.40901 4.00356 10.6942 7.6621 14.5403C8.31876 15.2908 10.1011 16.7917 11.2268 16.9794C10.8516 15.9475 10.4764 15.1032 10.1949 13.8837C9.9135 12.8518 9.63208 11.3508 9.81969 10.4128C10.0073 9.84991 9.9135 10.1313 10.0073 9.84991C11.6959 16.8856 12.1649 11.257 12.0711 19.9812C12.0711 23.9212 12.3525 27.5797 13.3844 31.1445C14.7916 35.7411 17.4182 39.681 21.0767 42.3077L25.1105 44.8405C20.0448 44.2777 12.8216 39.8687 10.1949 37.5234C8.13114 35.6473 6.72401 34.1463 4.94165 31.8949C4.00356 30.5816 1.37692 26.5478 1.00168 24.8593C0.907876 28.1426 4.75403 34.8968 7.00544 37.7111C9.9135 41.3696 13.572 44.2777 17.6996 46.4353C20.6077 48.03 23.891 49.0619 27.4557 49.6248C35.0542 50.8443 42.8403 48.9681 48.4688 45.7786C51.4707 43.9962 55.3169 40.9944 57.2869 38.3677C58.3187 36.8668 60.5702 34.334 61.133 32.4578C62.8216 32.4578 63.4782 32.0825 64.9792 31.8949C62.7278 33.2083 61.8835 33.1144 61.3206 33.6773C63.1968 34.1463 64.2287 35.272 66.4801 33.6773C67.512 32.9268 68.6377 31.3321 69.2005 29.6435C66.3863 30.1126 64.5101 29.4559 62.1649 30.5816C62.3525 29.7373 62.2587 30.0188 63.2906 29.5497C63.8535 29.2683 64.2287 29.1745 64.7915 28.7992C68.8253 25.985 66.4801 20.6379 65.8234 18.1051L64.8853 19.3246C63.7596 21.0131 57.193 25.5159 60.0073 29.3621C61.4144 28.6116 62.3525 26.8293 63.1968 25.4221L63.6658 24.6717C63.4782 26.7355 59.7259 32.2702 58.2249 33.8649C51.7521 40.8068 43.497 45.4972 33.4595 45.6848C31.4895 45.6848 29.7071 44.0901 28.4876 43.152C23.7034 39.8687 17.4182 33.9587 14.9792 27.2983C13.3844 23.0769 13.7597 18.7617 16.1987 15.9475C17.8872 14.1651 19.482 9.7561 22.9529 8.06754C21.6396 10.5066 19.0129 13.6023 18.7315 17.4484C22.9529 17.3546 25.3919 14.2589 26.7052 10.9756C27.2681 9.19324 27.7371 7.12946 28.3 5.25328C29.3319 1.21951 29.6133 2.06379 30.4576 0C25.4857 0.281426 18.2625 2.62664 16.3863 7.69231C15.4482 10.3189 15.8234 11.7261 16.0111 14.3527Z" fill="#039441"/>
<path d="M99.789 32.4604C100.081 32.1686 100.373 31.7309 100.519 31.4391C100.664 31.0013 100.664 30.5636 100.664 30.1259V22.6849C100.664 22.3931 100.664 21.9554 100.81 21.5177C100.81 21.2259 100.81 20.9341 100.81 20.4963C100.81 20.9341 100.664 21.2259 100.519 21.6636C100.373 22.1013 100.373 22.3931 100.227 22.8308L97.1627 31.4391C97.1627 31.585 97.1627 31.585 97.1627 31.7309C97.1627 31.7309 97.1627 31.8768 97.1627 32.0227C97.1627 32.1686 97.1627 32.1686 97.1627 32.1686C97.1627 32.3145 97.1627 32.3145 97.1627 32.4604H94.9742C94.9742 32.3145 95.1201 32.3145 95.1201 32.1686C95.1201 32.1686 95.1201 32.1686 95.1201 32.0227C95.1201 31.8768 95.1201 31.7309 95.1201 31.7309C94.9742 31.585 94.9742 31.585 94.9742 31.4391L92.0561 22.8308C91.9102 22.539 91.7643 22.1013 91.6184 21.8095C91.4725 21.3718 91.4725 20.9341 91.3266 20.4963C91.3266 20.7882 91.4725 21.2259 91.4725 21.5177C91.4725 21.9554 91.4725 22.2472 91.4725 22.6849V30.1259C91.4725 30.5636 91.6184 31.0013 91.7643 31.4391C91.9102 31.7309 92.202 32.1686 92.4939 32.4604H88.9922C89.284 32.1686 89.5758 31.7309 89.7217 31.4391C89.8676 31.0013 89.8676 30.5636 89.8676 30.1259V21.3718C89.8676 20.9341 89.8676 20.4963 89.7217 20.0586C89.5758 19.7668 89.284 19.3291 88.9922 19.1832H92.7857L92.6398 19.3291V19.475C92.6398 19.6209 92.6398 19.6209 92.6398 19.6209L95.5578 28.0833C95.7037 28.3751 95.8496 28.8128 95.8496 29.2505C95.9955 29.6882 96.1414 30.1259 96.1414 30.5636C96.2873 29.98 96.2873 29.5423 96.4332 29.1046C96.5791 28.8128 96.5791 28.3751 96.725 28.0833L99.6431 19.6209V19.475C99.6431 19.475 99.6431 19.3291 99.6431 19.1832C99.4972 19.1832 99.4972 19.1832 99.4972 19.1832H103.437C102.999 19.3291 102.853 19.7668 102.707 20.0586C102.561 20.4963 102.415 20.9341 102.415 21.3718V30.1259C102.415 30.5636 102.561 31.0013 102.707 31.4391C102.853 31.8768 102.999 32.1686 103.437 32.4604H99.789ZM112.045 21.2259C112.191 20.9341 112.191 20.7882 112.337 20.4963C112.337 20.3504 112.337 20.0586 112.337 20.0586C112.337 19.9127 112.337 19.7668 112.337 19.6209C112.191 19.475 112.045 19.3291 111.899 19.1832H115.401C115.109 19.3291 114.817 19.6209 114.671 19.9127C114.379 20.3504 114.233 20.6422 114.087 20.9341L110.44 27.6456V30.1259C110.44 30.5636 110.44 31.0013 110.732 31.4391C110.878 31.8768 111.024 32.1686 111.315 32.4604H107.668C107.96 32.1686 108.251 31.7309 108.397 31.4391C108.543 31.0013 108.689 30.5636 108.689 30.1259V27.7915L105.041 20.9341C104.896 20.6422 104.604 20.2045 104.458 19.9127C104.166 19.6209 104.02 19.3291 103.728 19.1832H107.376C107.23 19.3291 107.084 19.475 107.084 19.6209C106.938 19.7668 106.938 19.9127 106.938 20.0586C106.938 20.0586 106.938 20.3504 107.084 20.4963C107.084 20.7882 107.23 20.9341 107.23 21.2259L109.564 25.8947L112.045 21.2259ZM175.367 19.1832C174.929 19.3291 174.783 19.7668 174.637 20.0586C174.491 20.4963 174.345 20.9341 174.345 21.3718V30.1259C174.345 30.5636 174.491 31.0013 174.637 31.4391C174.783 31.7309 174.929 32.1686 175.367 32.4604H171.719C172.011 32.1686 172.157 31.7309 172.303 31.4391C172.594 31.0013 172.594 30.5636 172.594 30.1259V21.3718C172.594 20.9341 172.594 20.4963 172.303 20.0586C172.157 19.7668 172.011 19.3291 171.719 19.1832H175.367ZM180.765 19.1832C180.765 19.1832 180.765 19.1832 180.619 19.1832C180.619 19.3291 180.619 19.475 180.619 19.475V19.6209L184.413 27.6456C184.558 28.0833 184.704 28.521 184.996 28.9587C185.142 29.3964 185.288 29.8341 185.288 30.2718C185.288 29.98 185.288 29.5423 185.288 29.1046C185.142 28.6669 185.142 28.2292 185.142 27.7915V21.3718C185.142 20.9341 185.142 20.4963 184.996 20.0586C184.85 19.7668 184.558 19.3291 184.267 19.1832H187.768C187.331 19.3291 187.185 19.7668 187.039 20.0586C186.893 20.4963 186.747 20.9341 186.747 21.3718V31.4391C186.747 31.7309 186.747 31.8768 186.747 32.0227C186.893 32.1686 186.893 32.3145 186.893 32.4604H184.413C184.413 32.4604 184.413 32.4604 184.413 32.3145C184.413 32.1686 184.413 32.1686 184.413 32.0227V31.8768L180.327 22.9767C180.181 22.8308 180.035 22.539 179.89 22.1013C179.744 21.8095 179.598 21.2259 179.306 20.6422C179.452 20.9341 179.452 21.3718 179.452 21.6636C179.452 22.1013 179.452 22.539 179.452 22.8308V30.1259C179.452 30.5636 179.598 31.0013 179.744 31.4391C179.89 31.7309 180.181 32.1686 180.473 32.4604H176.972C177.263 32.1686 177.555 31.7309 177.701 31.4391C177.847 31.0013 177.993 30.5636 177.993 30.1259V21.3718C177.993 20.9341 177.847 20.4963 177.701 20.0586C177.555 19.7668 177.263 19.3291 176.972 19.1832H180.765ZM189.373 32.4604C189.665 32.1686 189.957 31.7309 190.103 31.4391C190.249 31.0013 190.249 30.5636 190.249 30.1259V21.3718C190.249 20.9341 190.249 20.4963 190.103 20.0586C189.957 19.7668 189.665 19.3291 189.373 19.1832C189.665 19.1832 189.957 19.1832 190.103 19.1832C190.395 19.1832 190.54 19.1832 190.686 19.1832C191.27 19.1832 192 19.1832 192.875 19.0373C193.75 19.0373 194.334 19.0373 194.626 19.0373C195.939 19.0373 196.96 19.3291 197.836 19.9127C198.565 20.6422 198.857 21.5177 198.857 22.8308C198.857 23.5603 198.711 24.1439 198.419 24.5816C198.273 25.1652 197.836 25.6029 197.252 25.8947C196.814 26.1866 195.939 26.4784 194.626 26.7702C194.334 26.7702 194.042 26.7702 193.896 26.9161C193.167 27.062 192.583 27.2079 192.437 27.3538C192.145 27.4997 192 27.9374 192 28.3751V30.1259C192 30.5636 192.145 31.0013 192.291 31.4391C192.437 31.7309 192.729 32.1686 193.021 32.4604H189.373ZM192 21.5177V25.8947C192.583 25.6029 193.313 25.457 194.334 25.1652C194.626 25.1652 195.063 25.1652 195.209 25.0193C195.793 24.8734 196.231 24.7275 196.523 24.2898C196.814 23.8521 196.96 23.4144 196.96 22.8308C196.96 22.1013 196.814 21.3718 196.377 21.08C195.939 20.6422 195.209 20.3504 194.334 20.3504C193.604 20.3504 193.021 20.4963 192.583 20.6422C192.291 20.7882 192 21.08 192 21.5177ZM200.608 21.3718C200.608 20.9341 200.462 20.4963 200.316 20.0586C200.17 19.7668 199.878 19.3291 199.586 19.1832H203.234C202.942 19.3291 202.796 19.7668 202.505 20.0586C202.359 20.4963 202.359 20.9341 202.359 21.3718V27.7915C202.359 29.1046 202.505 29.98 202.942 30.4177C203.38 30.8554 204.109 31.1472 205.131 31.1472C206.152 31.1472 206.882 30.8554 207.319 30.4177C207.757 29.98 207.903 29.1046 207.903 27.7915V21.3718C207.903 20.9341 207.757 20.4963 207.611 20.0586C207.465 19.7668 207.319 19.3291 207.028 19.1832H210.529C210.237 19.3291 209.946 19.7668 209.8 20.0586C209.654 20.4963 209.508 20.9341 209.508 21.3718V27.6456C209.508 28.6669 209.508 29.3964 209.362 29.8341C209.362 30.4177 209.07 30.8554 208.924 31.1472C208.487 31.7309 208.049 32.0227 207.465 32.3145C206.736 32.6063 206.006 32.6063 204.985 32.6063C204.109 32.6063 203.38 32.6063 202.65 32.3145C202.067 32.0227 201.629 31.7309 201.191 31.1472C201.045 30.8554 200.9 30.4177 200.754 29.8341C200.608 29.3964 200.608 28.6669 200.608 27.6456V21.3718ZM217.387 30.1259C217.387 30.5636 217.532 31.0013 217.678 31.4391C217.824 31.8768 217.97 32.1686 218.262 32.4604H214.76C215.052 32.1686 215.198 31.8768 215.344 31.4391C215.49 31.0013 215.636 30.5636 215.636 30.1259V21.6636C215.636 21.2259 215.49 20.9341 215.344 20.7882C215.198 20.4963 214.906 20.4963 214.614 20.4963C213.885 20.4963 213.301 20.6422 212.718 21.2259C212.28 21.6636 211.842 22.539 211.55 23.4144V18.5996C211.696 18.7455 211.842 18.8914 211.988 19.0373C212.134 19.0373 212.426 19.1832 212.572 19.1832H220.451C220.742 19.1832 220.888 19.0373 221.034 19.0373C221.18 18.8914 221.326 18.7455 221.472 18.5996V23.4144C221.18 22.539 220.888 21.8095 220.305 21.2259C219.721 20.6422 219.137 20.4963 218.408 20.4963C218.116 20.4963 217.824 20.4963 217.678 20.7882C217.532 20.9341 217.387 21.2259 217.387 21.6636V30.1259Z" fill="#039441"/>
<path d="M125.176 27.0616C125.468 27.0616 125.76 27.0616 126.051 27.0616C126.343 27.0616 126.635 27.0616 126.927 27.0616C127.219 27.0616 127.364 27.0616 127.656 27.0616C127.948 27.0616 128.24 27.0616 128.386 27.0616L127.073 21.3714L125.176 27.0616ZM124.446 29.5419C124.301 29.9796 124.301 30.2714 124.301 30.4173C124.155 30.5632 124.155 30.855 124.155 31.0009C124.155 31.2928 124.301 31.5846 124.301 31.7305C124.446 32.0223 124.446 32.1682 124.738 32.46H120.069C120.361 32.1682 120.653 31.7305 120.945 31.2928C121.237 30.855 121.382 30.2714 121.674 29.6878L124.446 20.2041C124.592 20.2041 124.592 20.2041 124.592 20.0582C124.592 20.0582 124.592 20.0582 124.592 19.9123C124.592 19.7664 124.592 19.6205 124.446 19.4746C124.446 19.3287 124.301 19.1828 124.301 19.1828H130.137C130.137 19.3287 129.991 19.4746 129.991 19.4746C129.991 19.6205 129.845 19.7664 129.845 19.9123C129.845 20.0582 129.991 20.0582 129.991 20.2041L132.471 29.6878C132.617 30.4173 132.763 31.0009 133.055 31.2928C133.201 31.7305 133.346 32.1682 133.638 32.46H128.678C128.824 32.1682 128.969 32.0223 128.969 31.7305C129.115 31.5846 129.115 31.1468 129.115 30.855C129.115 30.7091 129.115 30.5632 129.115 30.4173C129.115 30.2714 129.115 29.9796 128.969 29.5419C128.678 29.5419 128.386 29.5419 127.948 29.5419C127.51 29.5419 127.219 29.5419 126.781 29.5419C126.343 29.5419 125.905 29.5419 125.468 29.5419C125.176 29.5419 124.738 29.5419 124.446 29.5419ZM143.851 24.4353C143.122 23.414 142.538 22.6845 141.955 22.2468C141.517 21.8091 140.933 21.6632 140.35 21.6632C139.62 21.6632 139.037 21.955 138.599 22.6845C138.307 23.414 138.161 24.7271 138.161 26.3321C138.161 27.6452 138.161 28.5206 138.453 29.1042C138.599 29.6878 139.037 29.8337 139.474 29.8337C139.912 29.8337 140.204 29.6878 140.496 29.396C140.788 29.1042 140.933 28.8124 140.933 28.3747V27.3534C140.933 26.9157 140.788 26.6239 140.642 26.1862C140.496 25.8944 140.35 25.6025 140.058 25.3107H145.019C144.873 25.6025 144.727 25.8944 144.581 26.1862C144.435 26.6239 144.435 26.9157 144.435 27.3534V32.8977C144.143 32.6059 143.851 32.46 143.56 32.3141C143.414 32.1682 143.122 32.1682 142.83 32.1682C142.538 32.1682 142.101 32.1682 141.371 32.46C140.642 32.6059 139.912 32.6059 139.474 32.6059C137.724 32.6059 136.41 32.1682 135.535 31.0009C134.66 29.8337 134.222 28.2288 134.222 26.0403C134.222 23.8517 134.66 22.1009 135.681 20.7878C136.556 19.4746 138.015 18.891 139.766 18.891C140.204 18.891 140.788 18.891 141.371 19.0369C141.955 19.1828 142.392 19.1828 142.538 19.1828C142.684 19.1828 142.976 19.1828 143.122 19.0369C143.414 19.0369 143.56 18.891 143.851 18.7451V24.4353ZM146.186 32.46C146.478 32.1682 146.624 31.8764 146.77 31.4387C146.915 31.0009 147.061 30.5632 147.061 30.1255V21.3714C147.061 20.9337 146.915 20.496 146.77 20.0582C146.624 19.7664 146.478 19.3287 146.186 19.1828C146.332 19.1828 146.478 19.1828 146.77 19.1828C146.915 19.1828 147.353 19.1828 147.645 19.1828C148.374 19.1828 149.25 19.1828 150.271 19.0369C151.293 19.0369 152.168 19.0369 152.46 19.0369C154.211 19.0369 155.378 19.3287 156.107 19.9123C156.983 20.496 157.42 21.5173 157.42 22.6845C157.42 23.414 157.129 24.1435 156.691 24.5812C156.253 25.1648 155.524 25.4566 154.502 25.7484C155.232 26.0403 155.67 26.3321 156.107 26.7698C156.545 27.2075 156.837 27.6452 156.983 28.2288C157.129 28.5206 157.129 28.9583 157.129 29.396C157.275 29.9796 157.275 30.2714 157.275 30.5632C157.42 30.855 157.566 31.1468 157.712 31.5846C157.858 31.8764 158.004 32.1682 158.296 32.46H154.211C154.065 32.3141 153.919 32.1682 153.773 32.0223C153.627 31.8764 153.627 31.5846 153.481 31.4387C153.481 31.2928 153.481 31.1468 153.481 31.0009C153.481 31.0009 153.481 30.855 153.481 30.7091C153.481 30.7091 153.481 30.5632 153.481 30.4173C153.481 30.2714 153.481 30.1255 153.481 29.9796C153.481 29.8337 153.481 29.6878 153.481 29.5419C153.481 29.396 153.481 29.2501 153.481 29.1042C153.335 28.3747 153.043 27.937 152.752 27.6452C152.314 27.3534 151.73 27.2075 150.855 27.2075H150.709V30.1255C150.709 30.5632 150.709 31.0009 150.855 31.4387C151.001 31.8764 151.293 32.1682 151.584 32.46H146.186ZM150.709 24.5812H150.855C151.001 24.5812 151.147 24.5812 151.293 24.5812C152.168 24.5812 152.752 24.4353 153.043 24.1435C153.481 23.9976 153.627 23.5599 153.627 22.9763C153.627 22.5386 153.481 22.1009 153.189 21.955C152.897 21.6632 152.46 21.5173 152.022 21.5173C151.584 21.5173 151.147 21.6632 151.001 21.8091C150.709 21.955 150.709 22.2468 150.709 22.6845V24.5812ZM164.57 19.1828C164.278 19.3287 163.986 19.7664 163.84 20.0582C163.694 20.496 163.694 20.9337 163.694 21.3714V30.1255C163.694 30.5632 163.694 31.0009 163.84 31.4387C163.986 31.8764 164.278 32.1682 164.57 32.46H159.171C159.463 32.1682 159.609 31.8764 159.755 31.4387C159.901 31.0009 160.047 30.5632 160.047 30.1255V21.3714C160.047 20.9337 159.901 20.496 159.755 20.0582C159.609 19.7664 159.463 19.3287 159.171 19.1828H164.57Z" fill="#D5C95D"/>
</g>
<defs>
<clipPath id="clip0_556_7260">
<rect width="222" height="50" fill="white"/>
</clipPath>
</defs>
</svg>
