<svg width="149" height="98" viewBox="0 0 149 98" fill="none" xmlns="http://www.w3.org/2000/svg">
<path d="M89.7915 4.83871C89.7915 2.16637 91.9579 0 94.6302 0H120.925C123.598 0 125.764 2.16636 125.764 4.83871V57.8421C125.764 60.5145 123.598 62.6809 120.925 62.6809H94.6302C91.9579 62.6809 89.7915 60.5145 89.7915 57.8421V4.83871Z" fill="#2A7EBA"/>
<path d="M89.7917 9.47852H125.764V12.689H89.7917V9.47852Z" fill="white"/>
<path d="M103.51 5.18429C103.51 4.5162 104.051 3.97461 104.72 3.97461H111.141C111.809 3.97461 112.351 4.5162 112.351 5.18429V5.21101C112.351 5.8791 111.809 6.42069 111.141 6.42069H104.72C104.051 6.42069 103.51 5.8791 103.51 5.21101V5.18429Z" fill="white"/>
<path d="M104.882 58.2341C104.882 57.566 105.424 57.0244 106.092 57.0244H109.769C110.437 57.0244 110.979 57.566 110.979 58.2341V58.2608C110.979 58.9289 110.437 59.4705 109.769 59.4705H106.092C105.424 59.4705 104.882 58.9289 104.882 58.2608V58.2341Z" fill="white"/>
<path d="M89.7917 50.4504H125.764V53.8138H89.7917V50.4504Z" fill="white"/>
<path d="M150 31.5696C150 42.2504 141.367 50.9089 130.718 50.9089C120.069 50.9089 111.436 42.2504 111.436 31.5696C111.436 20.8887 120.069 12.2302 130.718 12.2302C141.367 12.2302 150 20.8887 150 31.5696Z" fill="white"/>
<g clip-path="url(#clip0_788_1700)">
<path fill-rule="evenodd" clip-rule="evenodd" d="M121.425 29.917V30.7435H129.948V24.9582C129.948 24.5254 129.306 24.6397 128.194 24.5526C127.399 24.4906 126.876 24.4332 126.154 24.3329C125.497 24.242 124.906 24.1323 124.24 23.9852C123.796 23.8866 122.755 23.6585 122.452 23.5117C122.013 25.4051 121.425 27.6043 121.425 29.917Z" fill="#2A7EBA"/>
<path fill-rule="evenodd" clip-rule="evenodd" d="M121.425 33.2227C121.425 35.5354 122.013 37.7347 122.452 39.628C123.741 39.0054 128.308 38.4915 129.948 38.4915V32.3962H121.425V33.2227Z" fill="#2A7EBA"/>
<path fill-rule="evenodd" clip-rule="evenodd" d="M131.591 24.6482V30.7435H140.114C140.014 29.5248 139.964 28.1778 139.749 26.9784C139.517 25.6817 139.255 24.6766 138.985 23.5117C137.746 24.1098 133.079 24.6482 131.591 24.6482Z" fill="#2A7EBA"/>
<path fill-rule="evenodd" clip-rule="evenodd" d="M131.591 38.4915C133.18 38.4915 137.731 39.0226 138.985 39.628C139.802 36.0987 139.822 35.934 140.114 32.3962H131.591V38.4915Z" fill="#2A7EBA"/>
<path fill-rule="evenodd" clip-rule="evenodd" d="M140.628 40.1445C141.157 40.2685 142.026 40.6685 142.527 40.9203C143.166 41.2423 143.736 41.5871 144.325 41.9006C144.678 41.2297 145.169 40.6042 145.553 39.9336C146.273 38.6775 147.023 36.7579 147.313 35.2988C147.476 34.4773 147.714 33.2484 147.714 32.3962H141.758L141.363 36.4414C141.253 37.0974 141.151 37.6115 141.014 38.2599C140.903 38.7887 140.628 39.5195 140.628 40.1445Z" fill="#2A7EBA"/>
<path fill-rule="evenodd" clip-rule="evenodd" d="M113.723 30.7434H119.782C119.782 29.0229 120.227 24.5338 120.911 23.0984C120.302 22.7744 119.647 22.5691 118.994 22.2377C118.304 21.8877 117.751 21.5794 117.111 21.239C117.035 21.5271 116.695 21.9046 116.515 22.1883C114.822 24.8508 114.001 27.3776 113.723 30.7434Z" fill="#2A7EBA"/>
<path fill-rule="evenodd" clip-rule="evenodd" d="M117.111 41.9006C117.73 41.5713 118.256 41.2751 118.926 40.9364C119.6 40.5954 120.284 40.3749 120.911 40.0412C120.21 38.5719 119.782 34.017 119.782 32.3962H113.723C113.934 34.9564 114.638 37.8227 115.858 39.8552C116.078 40.2199 116.251 40.527 116.475 40.8879C116.659 41.1835 117.034 41.6093 117.111 41.9006Z" fill="#2A7EBA"/>
<path fill-rule="evenodd" clip-rule="evenodd" d="M140.628 22.9952L141.363 26.6982C141.462 27.291 141.5 27.9575 141.598 28.6313C141.707 29.3803 141.601 30.0681 141.758 30.7434H147.714C147.714 28.4336 146.659 25.2038 145.59 23.2718C145.179 22.5296 144.696 21.9447 144.325 21.239C143.32 21.7736 141.812 22.7176 140.628 22.9952Z" fill="#2A7EBA"/>
<path fill-rule="evenodd" clip-rule="evenodd" d="M129.948 48.306V40.1445C127.565 40.1445 125.867 40.4925 123.786 40.9713C123.034 41.1447 122.513 40.592 123.991 43.4519C124.566 44.5649 125.514 45.8745 126.377 46.7326C126.684 47.0367 127.629 47.7717 128.039 47.9536C128.418 48.1212 128.723 48.2794 129.037 48.3984C129.352 48.5183 129.948 48.7964 129.948 48.306Z" fill="#2A7EBA"/>
<path fill-rule="evenodd" clip-rule="evenodd" d="M129.948 22.9951V14.8337C129.948 13.8686 127.026 15.7765 126.429 16.3553C124.88 17.857 123.975 19.5758 123.143 21.5393C122.918 22.0689 122.969 21.9967 123.616 22.1306C125.897 22.6029 127.135 22.9951 129.948 22.9951Z" fill="#2A7EBA"/>
<path fill-rule="evenodd" clip-rule="evenodd" d="M131.591 22.9951C132.87 22.9951 137.379 22.4895 138.471 21.9619L137.378 19.5498C136.814 18.432 135.967 17.3333 135.109 16.4603C134.164 15.499 132.97 14.8471 131.591 14.5237V22.9951Z" fill="#2A7EBA"/>
<path fill-rule="evenodd" clip-rule="evenodd" d="M131.591 48.616C132.609 48.3773 133.287 48.1162 134.027 47.5541C136.834 45.4207 137.184 43.8762 138.471 41.1778C137.377 40.6493 132.835 40.1445 131.591 40.1445V48.616Z" fill="#2A7EBA"/>
<path fill-rule="evenodd" clip-rule="evenodd" d="M118.241 43.1403C118.73 43.8749 120.386 45.1953 121.197 45.7451C121.844 46.1832 124.089 47.5136 124.916 47.5826C124.41 46.8216 123.847 46.3768 122.944 44.9181C121.884 43.2072 122.047 42.9987 121.425 41.6941C120.399 41.9345 119.108 42.6788 118.241 43.1403Z" fill="#2A7EBA"/>
<path fill-rule="evenodd" clip-rule="evenodd" d="M118.241 19.9989C118.491 20.1323 118.721 20.2265 118.993 20.3791C119.758 20.8105 120.473 21.2226 121.425 21.4454C121.667 20.9374 121.822 20.373 122.074 19.8264C122.583 18.7256 123.164 17.848 123.846 16.8562C124.164 16.3924 124.632 15.983 124.916 15.5569C123.467 15.6783 120.834 17.6737 119.634 18.611C119.176 18.9686 118.54 19.5503 118.241 19.9989Z" fill="#2A7EBA"/>
<path fill-rule="evenodd" clip-rule="evenodd" d="M140.012 21.4454C140.71 21.3869 142.564 20.335 143.195 19.9989C142.276 18.6177 138.517 16.0008 136.623 15.5569C136.717 15.9116 137.279 16.4012 137.608 16.8381C137.944 17.2824 138.256 17.7965 138.555 18.2618C138.931 18.8458 139.847 20.735 140.012 21.4454Z" fill="#2A7EBA"/>
<path fill-rule="evenodd" clip-rule="evenodd" d="M136.623 47.5826C138.517 47.1387 142.276 44.5218 143.195 43.1403C142.691 42.8721 142.278 42.6068 141.724 42.3477C141.406 42.1989 140.303 41.7184 140.012 41.6941C139.714 42.9809 138.45 45.126 137.652 46.2411C137.479 46.4818 137.323 46.6201 137.137 46.8594C136.919 47.1378 136.713 47.2437 136.623 47.5826Z" fill="#2A7EBA"/>
</g>
<g clip-path="url(#clip1_788_1700)">
<path fill-rule="evenodd" clip-rule="evenodd" d="M93.9469 37.9564C94.3124 38.6537 95.0209 39.7762 95.4539 40.5643C95.5888 40.8137 96.3255 42.0212 96.3648 42.163C96.5279 42.1516 96.7922 41.9589 96.9327 41.8738C97.6637 41.426 97.3489 41.477 98.4622 41.7378C98.7715 41.8115 99.0864 41.8795 99.435 41.9362C101.622 42.3047 103.343 42.3274 105.379 41.2616C106.874 40.4735 108.646 38.9542 110.051 37.9847C111.058 37.2931 111.142 37.3044 110.833 36.7829C110.771 36.6808 110.788 36.7092 110.715 36.6241L110.602 36.4994C110.597 36.4937 110.574 36.4711 110.563 36.4654C109.703 35.6717 108.19 36.5277 107.476 36.9586C107.167 37.14 106.902 37.3385 106.604 37.5369C106.52 37.5936 106.475 37.6276 106.396 37.6843C106.351 37.7183 106.335 37.724 106.284 37.7636C105.868 38.0811 105.952 38.5743 103.77 39.1243C103.332 39.2376 101.662 39.5891 101.24 39.4871V39.2887C101.431 39.1923 102.19 39.1356 102.455 39.0959C103.332 38.9769 104.698 38.7047 105.457 38.2285C105.553 38.1662 105.57 38.1378 105.693 38.0698C105.199 35.9325 101.009 36.6978 100.616 36.5391C99.9355 36.2613 99.5868 35.8701 98.2767 35.8701C97.1464 35.8701 96.1849 36.454 95.3808 36.9643L94.4361 37.6219C94.2562 37.7523 94.1381 37.8487 93.9469 37.9564Z" fill="#5CD400"/>
<path fill-rule="evenodd" clip-rule="evenodd" d="M103.349 28.4321L103.388 29.3392C103.382 29.4469 102.978 30.1669 102.871 30.3143C102.848 30.354 102.826 30.3767 102.803 30.3994C102.719 30.0252 103.129 28.6306 101.87 26.9298C101.606 26.567 101.313 26.2835 100.998 25.9604C100.852 25.813 100.172 25.127 99.9523 25.127C99.6824 25.127 99.6824 25.3708 99.6768 25.4785C99.6262 26.5273 99.6262 27.1792 99.9467 28.16C100.593 30.1159 102.123 30.4731 102.303 30.6261C102.365 30.6772 102.505 30.938 102.516 31.0003C102.545 31.108 102.528 31.4822 102.528 31.6183C102.528 32.0265 102.528 32.4346 102.528 32.8372C102.421 32.7635 102.033 32.3779 101.932 32.2589C101.825 32.1285 101.83 31.9924 101.791 31.8167C101.369 30.0422 100.34 29.0728 98.7209 28.2621C97.72 27.7632 97.3714 27.5534 97.7931 29.0388C98.1698 30.371 98.7378 31.4085 99.913 32.0945C100.267 32.2986 100.959 32.565 101.516 32.565C101.718 32.9505 102.528 33.5061 102.528 33.7045V35.0425C101.724 35.0425 100.481 35.7682 100.385 36.1423C100.79 36.2387 100.256 36.3011 101.24 36.3011C102.415 36.3011 103.568 36.1933 104.653 36.6355C104.873 36.7263 104.901 36.8113 105.075 36.7092C105.199 36.6299 105.373 36.4938 105.497 36.4598C105.367 35.9722 104.102 35.0425 103.113 35.0425V32.0491C103.113 31.9244 103.337 31.862 103.59 31.7033C103.933 31.4879 103.86 31.6183 104.288 31.6183C106.126 31.6183 107.015 30.8983 108.061 29.8381L108.511 29.3506C108.719 29.1011 108.932 28.9707 108.932 28.744C108.932 28.4151 108.505 28.4321 108.033 28.4321C104.068 28.4321 103.782 30.8869 103.433 31.1477C103.337 31.2157 103.219 31.2724 103.113 31.3461C103.113 30.7906 103.163 30.9606 103.495 30.3484C104.153 29.1181 103.849 29.9515 105.289 28.7326C105.44 28.6079 105.497 28.5058 105.62 28.3641C106.419 27.4627 106.739 26.0737 106.959 24.8662C107.004 24.6451 106.902 24.458 106.706 24.458C106.301 24.458 104.946 25.4671 104.513 25.9037C103.866 26.55 103.349 27.474 103.349 28.4321Z" fill="#5CD400"/>
<path fill-rule="evenodd" clip-rule="evenodd" d="M91.0173 38.8976C91.0173 39.1016 91.4559 39.7706 91.5965 40.0087C91.6696 40.1334 91.7315 40.2298 91.7989 40.3545L93.7726 43.7561C94.2394 44.5385 94.0257 44.5725 95.2515 43.8355C96.4942 43.0815 96.6798 43.1552 96.3368 42.5826L94.7679 39.8783C94.6667 39.7083 94.5767 39.5609 94.4811 39.3851L93.4859 37.6673C93.2778 37.3442 92.9685 37.622 92.6424 37.8204C92.4343 37.9394 92.2657 38.0358 92.0745 38.1549C91.8327 38.3023 91.0173 38.7105 91.0173 38.8976Z" fill="#5CD400"/>
<path fill-rule="evenodd" clip-rule="evenodd" d="M105.221 36.8906C105.261 37.0324 105.283 37.004 105.384 37.0834C105.469 37.1514 105.514 37.1968 105.575 37.2818C105.688 37.4349 105.795 37.5766 105.845 37.7977C106.014 37.7524 105.879 37.7524 106.127 37.5653C106.233 37.4859 106.312 37.4349 106.425 37.3555L107.656 36.5562C107.836 36.4484 108.207 36.318 108.308 36.182C107.56 35.7851 107.037 35.9155 106.25 36.3124L105.221 36.8906Z" fill="#5CD400"/>
<path fill-rule="evenodd" clip-rule="evenodd" d="M100.439 26.3654C100.471 26.3577 100.504 26.3779 100.511 26.4104C100.693 27.1804 101.461 29.1212 102.826 30.6861L102.841 30.7032V35.5191H102.72V33.3362C102.425 33.103 101.815 32.6087 101.574 32.3663C101.516 32.3086 101.394 32.1973 101.228 32.0455C101.176 31.9987 101.121 31.948 101.062 31.8939C100.812 31.6653 100.499 31.3768 100.173 31.0613C99.5223 30.4316 98.8127 29.6896 98.4407 29.0989C98.4229 29.0707 98.4314 29.0333 98.4597 29.0155C98.4879 28.9977 98.5253 29.0062 98.5431 29.0345C98.9063 29.6113 99.6059 30.3442 100.257 30.9743C100.582 31.2887 100.894 31.5763 101.143 31.8047C101.201 31.8576 101.256 31.9075 101.307 31.9538C101.474 32.1065 101.6 32.221 101.659 32.2809C101.877 32.4989 102.407 32.932 102.72 33.1818V30.7485C101.35 29.1701 100.579 27.2221 100.394 26.4382C100.386 26.4057 100.406 26.3731 100.439 26.3654Z" fill="white"/>
<path fill-rule="evenodd" clip-rule="evenodd" d="M106.124 25.6375C106.151 25.6568 106.158 25.6945 106.139 25.7218C105.843 26.1414 105.38 26.8078 104.955 27.4428C104.53 28.0793 104.144 28.6801 103.999 28.9709L103.996 28.9772L102.841 30.744V31.657L103.617 31.2527L103.664 31.2292C103.708 31.1878 103.787 31.13 103.89 31.0615C104 30.9879 104.143 30.8991 104.308 30.8004C104.639 30.6031 105.063 30.3655 105.513 30.1297C105.733 30.0142 105.96 29.8988 106.185 29.7886C106.853 29.4528 107.504 29.1719 107.976 29.0692L108.001 29.1874C107.592 29.2766 106.927 29.5606 106.238 29.8973C106.096 29.9689 105.953 30.0431 105.81 30.1188C105 30.5481 104.211 31.0235 103.732 31.33L103.727 31.3334L103.672 31.3604L103.672 31.3608L102.841 31.7934V35.4985C102.841 35.5319 102.814 35.559 102.781 35.559C102.747 35.559 102.72 35.5319 102.72 35.4985V30.708L103.892 28.9137C104.043 28.6135 104.432 28.0078 104.855 27.3755C105.281 26.7395 105.743 26.0723 106.04 25.6521C106.059 25.6248 106.097 25.6183 106.124 25.6375Z" fill="white"/>
</g>
<mask id="path-29-outside-1_788_1700" maskUnits="userSpaceOnUse" x="9.15576" y="69.927" width="140" height="10" fill="black">
<rect fill="white" x="9.15576" y="69.927" width="140" height="10"/>
<path d="M20.5551 71.0549L18.3718 79.3587H17.3262L15.7289 73.9159C15.6829 73.7531 15.637 73.5864 15.591 73.4158C15.5451 73.2452 15.5029 73.0824 15.4646 72.9273C15.4263 72.7723 15.3918 72.6405 15.3612 72.5319C15.3382 72.4156 15.3229 72.3303 15.3152 72.2761C15.3076 72.3303 15.2922 72.4156 15.2693 72.5319C15.2539 72.6405 15.2271 72.7723 15.1888 72.9273C15.1505 73.0824 15.1084 73.2491 15.0624 73.4274C15.0241 73.598 14.9782 73.7724 14.9245 73.9508L13.3732 79.3587H12.3276L10.1558 71.0549H11.2359L12.5114 76.1256C12.5574 76.3039 12.5995 76.4822 12.6378 76.6605C12.6761 76.8311 12.7106 77.0017 12.7412 77.1723C12.7795 77.3351 12.8102 77.494 12.8332 77.6491C12.8562 77.8041 12.8791 77.9553 12.9021 78.1026C12.9251 77.9476 12.9481 77.7886 12.9711 77.6258C13.0017 77.463 13.0362 77.2963 13.0745 77.1257C13.1128 76.9474 13.1549 76.7691 13.2009 76.5908C13.2468 76.4124 13.2928 76.238 13.3388 76.0674L14.7866 71.0549H15.8553L17.3606 76.1023C17.4143 76.2806 17.4641 76.4628 17.51 76.6489C17.556 76.8272 17.5981 77.0017 17.6364 77.1723C17.6747 77.3428 17.7054 77.5095 17.7283 77.6723C17.759 77.8274 17.7858 77.9708 17.8088 78.1026C17.8318 77.9088 17.8624 77.7072 17.9007 77.4979C17.939 77.2808 17.985 77.056 18.0386 76.8234C18.0922 76.5908 18.1497 76.3543 18.211 76.1139L19.475 71.0549H20.5551Z"/>
<path d="M31.2382 71.0549L29.0549 79.3587H28.0092L26.412 73.9159C26.366 73.7531 26.32 73.5864 26.2741 73.4158C26.2281 73.2452 26.186 73.0824 26.1477 72.9273C26.1094 72.7723 26.0749 72.6405 26.0443 72.5319C26.0213 72.4156 26.006 72.3303 25.9983 72.2761C25.9906 72.3303 25.9753 72.4156 25.9523 72.5319C25.937 72.6405 25.9102 72.7723 25.8719 72.9273C25.8336 73.0824 25.7915 73.2491 25.7455 73.4274C25.7072 73.598 25.6612 73.7724 25.6076 73.9508L24.0563 79.3587H23.0106L20.8388 71.0549H21.919L23.1945 76.1256C23.2404 76.3039 23.2826 76.4822 23.3209 76.6605C23.3592 76.8311 23.3937 77.0017 23.4243 77.1723C23.4626 77.3351 23.4932 77.494 23.5162 77.6491C23.5392 77.8041 23.5622 77.9553 23.5852 78.1026C23.6082 77.9476 23.6311 77.7886 23.6541 77.6258C23.6848 77.463 23.7192 77.2963 23.7575 77.1257C23.7958 76.9474 23.838 76.7691 23.8839 76.5908C23.9299 76.4124 23.9759 76.238 24.0218 76.0674L25.4697 71.0549H26.5384L28.0437 76.1023C28.0973 76.2806 28.1471 76.4628 28.1931 76.6489C28.239 76.8272 28.2812 77.0017 28.3195 77.1723C28.3578 77.3428 28.3884 77.5095 28.4114 77.6723C28.442 77.8274 28.4689 77.9708 28.4918 78.1026C28.5148 77.9088 28.5455 77.7072 28.5838 77.4979C28.6221 77.2808 28.668 77.056 28.7217 76.8234C28.7753 76.5908 28.8327 76.3543 28.894 76.1139L30.158 71.0549H31.2382Z"/>
<path d="M41.9213 71.0549L39.738 79.3587H38.6923L37.095 73.9159C37.0491 73.7531 37.0031 73.5864 36.9571 73.4158C36.9112 73.2452 36.869 73.0824 36.8307 72.9273C36.7924 72.7723 36.758 72.6405 36.7273 72.5319C36.7043 72.4156 36.689 72.3303 36.6813 72.2761C36.6737 72.3303 36.6584 72.4156 36.6354 72.5319C36.6201 72.6405 36.5933 72.7723 36.5549 72.9273C36.5166 73.0824 36.4745 73.2491 36.4285 73.4274C36.3902 73.598 36.3443 73.7724 36.2907 73.9508L34.7394 79.3587H33.6937L31.5219 71.0549H32.602L33.8775 76.1256C33.9235 76.3039 33.9656 76.4822 34.0039 76.6605C34.0422 76.8311 34.0767 77.0017 34.1074 77.1723C34.1457 77.3351 34.1763 77.494 34.1993 77.6491C34.2223 77.8041 34.2453 77.9553 34.2682 78.1026C34.2912 77.9476 34.3142 77.7886 34.3372 77.6258C34.3678 77.463 34.4023 77.2963 34.4406 77.1257C34.4789 76.9474 34.521 76.7691 34.567 76.5908C34.613 76.4124 34.6589 76.238 34.7049 76.0674L36.1528 71.0549H37.2214L38.7268 76.1023C38.7804 76.2806 38.8302 76.4628 38.8761 76.6489C38.9221 76.8272 38.9642 77.0017 39.0025 77.1723C39.0408 77.3428 39.0715 77.5095 39.0945 77.6723C39.1251 77.8274 39.1519 77.9708 39.1749 78.1026C39.1979 77.9088 39.2285 77.7072 39.2668 77.4979C39.3051 77.2808 39.3511 77.056 39.4047 76.8234C39.4583 76.5908 39.5158 76.3543 39.5771 76.1139L40.8411 71.0549H41.9213Z"/>
<path d="M42.3221 78.7307C42.3221 78.4438 42.391 78.2422 42.5289 78.1259C42.6668 78.0096 42.8315 77.9515 43.023 77.9515C43.2222 77.9515 43.3908 78.0096 43.5287 78.1259C43.6742 78.2422 43.747 78.4438 43.747 78.7307C43.747 79.0098 43.6742 79.2114 43.5287 79.3354C43.3908 79.4595 43.2222 79.5215 43.023 79.5215C42.8315 79.5215 42.6668 79.4595 42.5289 79.3354C42.391 79.2114 42.3221 79.0098 42.3221 78.7307Z"/>
<path d="M49.3038 79.3587L46.6034 72.0784H46.5574C46.5728 72.2334 46.5842 72.4311 46.5919 72.6715C46.6072 72.9118 46.6187 73.1754 46.6264 73.4623C46.634 73.7414 46.6379 74.0283 46.6379 74.3229V79.3587H45.6841V71.0549H47.2124L49.7404 77.8584H49.7864L52.3604 71.0549H53.8772V79.3587H52.8545V74.2532C52.8545 73.9818 52.8583 73.7143 52.866 73.4507C52.8737 73.1793 52.8852 72.9273 52.9005 72.6947C52.9158 72.4544 52.9273 72.2528 52.935 72.09H52.889L50.1541 79.3587H49.3038Z"/>
<path d="M58.2464 75.137L60.3837 71.0549H61.4984L58.7635 76.1372V79.3587H57.7293V76.1837L54.9944 71.0549H56.1206L58.2464 75.137Z"/>
<path d="M67.0811 79.3587L66.0929 76.7885H62.8409L61.8642 79.3587H60.8185L64.0245 71.02H64.9553L68.1498 79.3587H67.0811ZM64.8634 73.346C64.8404 73.284 64.8021 73.1716 64.7484 73.0088C64.6948 72.8459 64.6412 72.6792 64.5876 72.5087C64.5416 72.3303 64.5033 72.1947 64.4727 72.1016C64.4343 72.2567 64.3922 72.4156 64.3463 72.5784C64.308 72.7335 64.2658 72.8769 64.2199 73.0088C64.1815 73.1406 64.1471 73.253 64.1164 73.346L63.1857 75.8581H65.7826L64.8634 73.346Z"/>
<path d="M72.6099 74.9742H75.4482V79.0447C75.0039 79.192 74.5557 79.3005 74.1037 79.3703C73.6518 79.4401 73.1385 79.475 72.5639 79.475C71.7136 79.475 70.9973 79.3044 70.4151 78.9633C69.8329 78.6144 69.3886 78.122 69.0822 77.4863C68.7834 76.8427 68.634 76.0829 68.634 75.2068C68.634 74.3384 68.8026 73.5864 69.1396 72.9506C69.4767 72.3148 69.9593 71.8225 70.5875 71.4736C71.2233 71.117 71.9894 70.9386 72.8857 70.9386C73.3453 70.9386 73.7782 70.9813 74.1842 71.0666C74.5979 71.1518 74.9809 71.272 75.3333 71.4271L74.9426 72.3342C74.6515 72.2024 74.3221 72.09 73.9544 71.997C73.5943 71.9039 73.2189 71.8574 72.8282 71.8574C72.1771 71.8574 71.6179 71.9931 71.1506 72.2644C70.6833 72.5358 70.327 72.9235 70.0819 73.4274C69.8367 73.9236 69.7142 74.5168 69.7142 75.2068C69.7142 75.8658 69.8176 76.4512 70.0244 76.9629C70.2389 77.4669 70.5722 77.8623 71.0242 78.1492C71.4761 78.4283 72.0698 78.5678 72.8053 78.5678C73.0504 78.5678 73.2649 78.5601 73.4488 78.5446C73.6403 78.5213 73.8126 78.4942 73.9659 78.4632C74.1267 78.4322 74.2761 78.4011 74.414 78.3701V75.9046H72.6099V74.9742Z"/>
<path d="M79.6716 71.0549C80.3534 71.0549 80.9126 71.1441 81.3493 71.3224C81.7936 71.493 82.123 71.7527 82.3375 72.1016C82.552 72.4505 82.6593 72.8886 82.6593 73.4158C82.6593 73.8577 82.5788 74.226 82.418 74.5206C82.2571 74.8153 82.0502 75.0517 81.7974 75.2301C81.5523 75.4006 81.2918 75.5363 81.016 75.6371L83.2683 79.3587H82.0617L80.0738 75.9279H78.4421V79.3587H77.4079V71.0549H79.6716ZM79.6141 71.9621H78.4421V75.044H79.6716C80.1159 75.044 80.4798 74.9858 80.7632 74.8695C81.0467 74.7455 81.2535 74.5672 81.3838 74.3346C81.5216 74.102 81.5906 73.8112 81.5906 73.4623C81.5906 73.0979 81.5178 72.8072 81.3723 72.5901C81.2344 72.373 81.0199 72.214 80.7288 72.1133C80.4377 72.0125 80.0661 71.9621 79.6141 71.9621Z"/>
<path d="M86.8658 79.3587H83.9011V78.7539L84.8663 78.533V71.8923L83.9011 71.6597V71.0549H86.8658V71.6597L85.9005 71.8923V78.533L86.8658 78.7539V79.3587Z"/>
<path d="M90.7597 79.3587H87.795V78.7539L88.7603 78.533V71.8923L87.795 71.6597V71.0549H90.7597V71.6597L89.7945 71.8923V78.533L90.7597 78.7539V79.3587Z"/>
<path d="M98.8479 79.3587H97.6413L93.2517 72.4621H93.2058C93.2134 72.6017 93.2211 72.7568 93.2288 72.9273C93.2441 73.0979 93.2556 73.284 93.2632 73.4856C93.2709 73.6794 93.2786 73.881 93.2862 74.0903C93.2939 74.2997 93.2977 74.509 93.2977 74.7183V79.3587H92.344V71.0549H93.539L97.9171 77.9282H97.9631C97.9554 77.8352 97.9477 77.7072 97.9401 77.5444C97.9324 77.3738 97.9248 77.1878 97.9171 76.9862C97.9094 76.7768 97.9018 76.5636 97.8941 76.3465C97.8865 76.1294 97.8826 75.9279 97.8826 75.7418V71.0549H98.8479V79.3587Z"/>
<path d="M103.246 71.0549C104.319 71.0549 105.1 71.2681 105.59 71.6946C106.081 72.121 106.326 72.7219 106.326 73.4972C106.326 73.8384 106.268 74.1679 106.153 74.4857C106.046 74.7959 105.866 75.075 105.613 75.3231C105.361 75.5712 105.024 75.7689 104.602 75.9162C104.181 76.0558 103.664 76.1256 103.051 76.1256H102.109V79.3587H101.074V71.0549H103.246ZM103.154 71.9504H102.109V75.2301H102.936C103.457 75.2301 103.89 75.1758 104.234 75.0672C104.579 74.9509 104.836 74.7687 105.004 74.5206C105.173 74.2725 105.257 73.9469 105.257 73.5437C105.257 73.0088 105.089 72.6095 104.752 72.3458C104.414 72.0822 103.882 71.9504 103.154 71.9504Z"/>
<path d="M114.272 76.4279C114.272 77.0017 114.157 77.5212 113.927 77.9863C113.697 78.4438 113.345 78.8082 112.87 79.0796C112.402 79.3432 111.805 79.475 111.077 79.475C110.058 79.475 109.281 79.1959 108.744 78.6376C108.216 78.0716 107.951 77.3273 107.951 76.4047V71.0549H108.986V76.4396C108.986 77.1141 109.162 77.6375 109.514 78.0096C109.874 78.3818 110.414 78.5678 111.134 78.5678C111.632 78.5678 112.035 78.4787 112.341 78.3004C112.655 78.1143 112.885 77.8623 113.03 77.5444C113.176 77.2188 113.249 76.8466 113.249 76.4279V71.0549H114.272V76.4279Z"/>
<path d="M119.034 79.3587H118V71.9737H115.437V71.0549H121.585V71.9737H119.034V79.3587Z"/>
<path d="M121.85 78.7307C121.85 78.4438 121.919 78.2422 122.057 78.1259C122.195 78.0096 122.36 77.9515 122.551 77.9515C122.75 77.9515 122.919 78.0096 123.057 78.1259C123.202 78.2422 123.275 78.4438 123.275 78.7307C123.275 79.0098 123.202 79.2114 123.057 79.3354C122.919 79.4595 122.75 79.5215 122.551 79.5215C122.36 79.5215 122.195 79.4595 122.057 79.3354C121.919 79.2114 121.85 79.0098 121.85 78.7307Z"/>
<path d="M128.156 71.8574C127.72 71.8574 127.325 71.9349 126.973 72.09C126.62 72.2373 126.322 72.4583 126.076 72.7529C125.831 73.0398 125.644 73.3925 125.513 73.8112C125.383 74.2221 125.318 74.6873 125.318 75.2068C125.318 75.8891 125.421 76.4822 125.628 76.9862C125.843 77.4901 126.157 77.8778 126.571 78.1492C126.992 78.4205 127.517 78.5562 128.145 78.5562C128.505 78.5562 128.846 78.5252 129.167 78.4632C129.489 78.4011 129.803 78.3236 130.11 78.2306V79.1377C129.803 79.254 129.485 79.3393 129.156 79.3936C128.834 79.4478 128.447 79.475 127.995 79.475C127.16 79.475 126.463 79.3005 125.904 78.9516C125.345 78.6027 124.923 78.1065 124.64 77.463C124.364 76.8195 124.226 76.0635 124.226 75.1952C124.226 74.5672 124.311 73.9934 124.479 73.4739C124.655 72.9545 124.908 72.5048 125.238 72.1249C125.575 71.745 125.988 71.4542 126.479 71.2526C126.969 71.0433 127.532 70.9386 128.168 70.9386C128.589 70.9386 128.995 70.9813 129.386 71.0666C129.776 71.1518 130.125 71.272 130.431 71.4271L130.018 72.311C129.765 72.1947 129.482 72.09 129.167 71.997C128.861 71.9039 128.524 71.8574 128.156 71.8574Z"/>
<path d="M138.835 75.1952C138.835 75.8387 138.754 76.4241 138.594 76.9513C138.433 77.4708 138.191 77.9204 137.87 78.3004C137.556 78.6803 137.161 78.971 136.686 79.1726C136.219 79.3742 135.675 79.475 135.054 79.475C134.411 79.475 133.852 79.3742 133.377 79.1726C132.902 78.9633 132.507 78.6725 132.193 78.3004C131.879 77.9204 131.645 77.4669 131.492 76.9397C131.339 76.4124 131.262 75.8271 131.262 75.1835C131.262 74.3307 131.4 73.5864 131.676 72.9506C131.952 72.3148 132.369 71.8186 132.929 71.462C133.495 71.1053 134.208 70.927 135.066 70.927C135.886 70.927 136.575 71.1053 137.134 71.462C137.693 71.8109 138.115 72.3071 138.398 72.9506C138.689 73.5864 138.835 74.3346 138.835 75.1952ZM132.354 75.1952C132.354 75.893 132.45 76.4938 132.641 76.9978C132.833 77.5018 133.128 77.8894 133.526 78.1608C133.932 78.4322 134.442 78.5678 135.054 78.5678C135.675 78.5678 136.18 78.4322 136.571 78.1608C136.97 77.8894 137.264 77.5018 137.456 76.9978C137.648 76.4938 137.743 75.893 137.743 75.1952C137.743 74.1485 137.529 73.3305 137.1 72.7413C136.671 72.1443 135.993 71.8458 135.066 71.8458C134.445 71.8458 133.932 71.9814 133.526 72.2528C133.128 72.5164 132.833 72.9002 132.641 73.4042C132.45 73.9004 132.354 74.4974 132.354 75.1952Z"/>
<path d="M144.273 79.3587L141.573 72.0784H141.527C141.542 72.2334 141.553 72.4311 141.561 72.6715C141.576 72.9118 141.588 73.1754 141.596 73.4623C141.603 73.7414 141.607 74.0283 141.607 74.3229V79.3587H140.653V71.0549H142.182L144.71 77.8584H144.756L147.33 71.0549H148.846V79.3587H147.824V74.2532C147.824 73.9818 147.828 73.7143 147.835 73.4507C147.843 73.1793 147.854 72.9273 147.87 72.6947C147.885 72.4544 147.897 72.2528 147.904 72.09H147.858L145.123 79.3587H144.273Z"/>
</mask>
<path d="M20.5551 71.0549L18.3718 79.3587H17.3262L15.7289 73.9159C15.6829 73.7531 15.637 73.5864 15.591 73.4158C15.5451 73.2452 15.5029 73.0824 15.4646 72.9273C15.4263 72.7723 15.3918 72.6405 15.3612 72.5319C15.3382 72.4156 15.3229 72.3303 15.3152 72.2761C15.3076 72.3303 15.2922 72.4156 15.2693 72.5319C15.2539 72.6405 15.2271 72.7723 15.1888 72.9273C15.1505 73.0824 15.1084 73.2491 15.0624 73.4274C15.0241 73.598 14.9782 73.7724 14.9245 73.9508L13.3732 79.3587H12.3276L10.1558 71.0549H11.2359L12.5114 76.1256C12.5574 76.3039 12.5995 76.4822 12.6378 76.6605C12.6761 76.8311 12.7106 77.0017 12.7412 77.1723C12.7795 77.3351 12.8102 77.494 12.8332 77.6491C12.8562 77.8041 12.8791 77.9553 12.9021 78.1026C12.9251 77.9476 12.9481 77.7886 12.9711 77.6258C13.0017 77.463 13.0362 77.2963 13.0745 77.1257C13.1128 76.9474 13.1549 76.7691 13.2009 76.5908C13.2468 76.4124 13.2928 76.238 13.3388 76.0674L14.7866 71.0549H15.8553L17.3606 76.1023C17.4143 76.2806 17.4641 76.4628 17.51 76.6489C17.556 76.8272 17.5981 77.0017 17.6364 77.1723C17.6747 77.3428 17.7054 77.5095 17.7283 77.6723C17.759 77.8274 17.7858 77.9708 17.8088 78.1026C17.8318 77.9088 17.8624 77.7072 17.9007 77.4979C17.939 77.2808 17.985 77.056 18.0386 76.8234C18.0922 76.5908 18.1497 76.3543 18.211 76.1139L19.475 71.0549H20.5551Z" fill="black"/>
<path d="M31.2382 71.0549L29.0549 79.3587H28.0092L26.412 73.9159C26.366 73.7531 26.32 73.5864 26.2741 73.4158C26.2281 73.2452 26.186 73.0824 26.1477 72.9273C26.1094 72.7723 26.0749 72.6405 26.0443 72.5319C26.0213 72.4156 26.006 72.3303 25.9983 72.2761C25.9906 72.3303 25.9753 72.4156 25.9523 72.5319C25.937 72.6405 25.9102 72.7723 25.8719 72.9273C25.8336 73.0824 25.7915 73.2491 25.7455 73.4274C25.7072 73.598 25.6612 73.7724 25.6076 73.9508L24.0563 79.3587H23.0106L20.8388 71.0549H21.919L23.1945 76.1256C23.2404 76.3039 23.2826 76.4822 23.3209 76.6605C23.3592 76.8311 23.3937 77.0017 23.4243 77.1723C23.4626 77.3351 23.4932 77.494 23.5162 77.6491C23.5392 77.8041 23.5622 77.9553 23.5852 78.1026C23.6082 77.9476 23.6311 77.7886 23.6541 77.6258C23.6848 77.463 23.7192 77.2963 23.7575 77.1257C23.7958 76.9474 23.838 76.7691 23.8839 76.5908C23.9299 76.4124 23.9759 76.238 24.0218 76.0674L25.4697 71.0549H26.5384L28.0437 76.1023C28.0973 76.2806 28.1471 76.4628 28.1931 76.6489C28.239 76.8272 28.2812 77.0017 28.3195 77.1723C28.3578 77.3428 28.3884 77.5095 28.4114 77.6723C28.442 77.8274 28.4689 77.9708 28.4918 78.1026C28.5148 77.9088 28.5455 77.7072 28.5838 77.4979C28.6221 77.2808 28.668 77.056 28.7217 76.8234C28.7753 76.5908 28.8327 76.3543 28.894 76.1139L30.158 71.0549H31.2382Z" fill="black"/>
<path d="M41.9213 71.0549L39.738 79.3587H38.6923L37.095 73.9159C37.0491 73.7531 37.0031 73.5864 36.9571 73.4158C36.9112 73.2452 36.869 73.0824 36.8307 72.9273C36.7924 72.7723 36.758 72.6405 36.7273 72.5319C36.7043 72.4156 36.689 72.3303 36.6813 72.2761C36.6737 72.3303 36.6584 72.4156 36.6354 72.5319C36.6201 72.6405 36.5933 72.7723 36.5549 72.9273C36.5166 73.0824 36.4745 73.2491 36.4285 73.4274C36.3902 73.598 36.3443 73.7724 36.2907 73.9508L34.7394 79.3587H33.6937L31.5219 71.0549H32.602L33.8775 76.1256C33.9235 76.3039 33.9656 76.4822 34.0039 76.6605C34.0422 76.8311 34.0767 77.0017 34.1074 77.1723C34.1457 77.3351 34.1763 77.494 34.1993 77.6491C34.2223 77.8041 34.2453 77.9553 34.2682 78.1026C34.2912 77.9476 34.3142 77.7886 34.3372 77.6258C34.3678 77.463 34.4023 77.2963 34.4406 77.1257C34.4789 76.9474 34.521 76.7691 34.567 76.5908C34.613 76.4124 34.6589 76.238 34.7049 76.0674L36.1528 71.0549H37.2214L38.7268 76.1023C38.7804 76.2806 38.8302 76.4628 38.8761 76.6489C38.9221 76.8272 38.9642 77.0017 39.0025 77.1723C39.0408 77.3428 39.0715 77.5095 39.0945 77.6723C39.1251 77.8274 39.1519 77.9708 39.1749 78.1026C39.1979 77.9088 39.2285 77.7072 39.2668 77.4979C39.3051 77.2808 39.3511 77.056 39.4047 76.8234C39.4583 76.5908 39.5158 76.3543 39.5771 76.1139L40.8411 71.0549H41.9213Z" fill="black"/>
<path d="M42.3221 78.7307C42.3221 78.4438 42.391 78.2422 42.5289 78.1259C42.6668 78.0096 42.8315 77.9515 43.023 77.9515C43.2222 77.9515 43.3908 78.0096 43.5287 78.1259C43.6742 78.2422 43.747 78.4438 43.747 78.7307C43.747 79.0098 43.6742 79.2114 43.5287 79.3354C43.3908 79.4595 43.2222 79.5215 43.023 79.5215C42.8315 79.5215 42.6668 79.4595 42.5289 79.3354C42.391 79.2114 42.3221 79.0098 42.3221 78.7307Z" fill="black"/>
<path d="M49.3038 79.3587L46.6034 72.0784H46.5574C46.5728 72.2334 46.5842 72.4311 46.5919 72.6715C46.6072 72.9118 46.6187 73.1754 46.6264 73.4623C46.634 73.7414 46.6379 74.0283 46.6379 74.3229V79.3587H45.6841V71.0549H47.2124L49.7404 77.8584H49.7864L52.3604 71.0549H53.8772V79.3587H52.8545V74.2532C52.8545 73.9818 52.8583 73.7143 52.866 73.4507C52.8737 73.1793 52.8852 72.9273 52.9005 72.6947C52.9158 72.4544 52.9273 72.2528 52.935 72.09H52.889L50.1541 79.3587H49.3038Z" fill="black"/>
<path d="M58.2464 75.137L60.3837 71.0549H61.4984L58.7635 76.1372V79.3587H57.7293V76.1837L54.9944 71.0549H56.1206L58.2464 75.137Z" fill="black"/>
<path d="M67.0811 79.3587L66.0929 76.7885H62.8409L61.8642 79.3587H60.8185L64.0245 71.02H64.9553L68.1498 79.3587H67.0811ZM64.8634 73.346C64.8404 73.284 64.8021 73.1716 64.7484 73.0088C64.6948 72.8459 64.6412 72.6792 64.5876 72.5087C64.5416 72.3303 64.5033 72.1947 64.4727 72.1016C64.4343 72.2567 64.3922 72.4156 64.3463 72.5784C64.308 72.7335 64.2658 72.8769 64.2199 73.0088C64.1815 73.1406 64.1471 73.253 64.1164 73.346L63.1857 75.8581H65.7826L64.8634 73.346Z" fill="black"/>
<path d="M72.6099 74.9742H75.4482V79.0447C75.0039 79.192 74.5557 79.3005 74.1037 79.3703C73.6518 79.4401 73.1385 79.475 72.5639 79.475C71.7136 79.475 70.9973 79.3044 70.4151 78.9633C69.8329 78.6144 69.3886 78.122 69.0822 77.4863C68.7834 76.8427 68.634 76.0829 68.634 75.2068C68.634 74.3384 68.8026 73.5864 69.1396 72.9506C69.4767 72.3148 69.9593 71.8225 70.5875 71.4736C71.2233 71.117 71.9894 70.9386 72.8857 70.9386C73.3453 70.9386 73.7782 70.9813 74.1842 71.0666C74.5979 71.1518 74.9809 71.272 75.3333 71.4271L74.9426 72.3342C74.6515 72.2024 74.3221 72.09 73.9544 71.997C73.5943 71.9039 73.2189 71.8574 72.8282 71.8574C72.1771 71.8574 71.6179 71.9931 71.1506 72.2644C70.6833 72.5358 70.327 72.9235 70.0819 73.4274C69.8367 73.9236 69.7142 74.5168 69.7142 75.2068C69.7142 75.8658 69.8176 76.4512 70.0244 76.9629C70.2389 77.4669 70.5722 77.8623 71.0242 78.1492C71.4761 78.4283 72.0698 78.5678 72.8053 78.5678C73.0504 78.5678 73.2649 78.5601 73.4488 78.5446C73.6403 78.5213 73.8126 78.4942 73.9659 78.4632C74.1267 78.4322 74.2761 78.4011 74.414 78.3701V75.9046H72.6099V74.9742Z" fill="black"/>
<path d="M79.6716 71.0549C80.3534 71.0549 80.9126 71.1441 81.3493 71.3224C81.7936 71.493 82.123 71.7527 82.3375 72.1016C82.552 72.4505 82.6593 72.8886 82.6593 73.4158C82.6593 73.8577 82.5788 74.226 82.418 74.5206C82.2571 74.8153 82.0502 75.0517 81.7974 75.2301C81.5523 75.4006 81.2918 75.5363 81.016 75.6371L83.2683 79.3587H82.0617L80.0738 75.9279H78.4421V79.3587H77.4079V71.0549H79.6716ZM79.6141 71.9621H78.4421V75.044H79.6716C80.1159 75.044 80.4798 74.9858 80.7632 74.8695C81.0467 74.7455 81.2535 74.5672 81.3838 74.3346C81.5216 74.102 81.5906 73.8112 81.5906 73.4623C81.5906 73.0979 81.5178 72.8072 81.3723 72.5901C81.2344 72.373 81.0199 72.214 80.7288 72.1133C80.4377 72.0125 80.0661 71.9621 79.6141 71.9621Z" fill="black"/>
<path d="M86.8658 79.3587H83.9011V78.7539L84.8663 78.533V71.8923L83.9011 71.6597V71.0549H86.8658V71.6597L85.9005 71.8923V78.533L86.8658 78.7539V79.3587Z" fill="black"/>
<path d="M90.7597 79.3587H87.795V78.7539L88.7603 78.533V71.8923L87.795 71.6597V71.0549H90.7597V71.6597L89.7945 71.8923V78.533L90.7597 78.7539V79.3587Z" fill="black"/>
<path d="M98.8479 79.3587H97.6413L93.2517 72.4621H93.2058C93.2134 72.6017 93.2211 72.7568 93.2288 72.9273C93.2441 73.0979 93.2556 73.284 93.2632 73.4856C93.2709 73.6794 93.2786 73.881 93.2862 74.0903C93.2939 74.2997 93.2977 74.509 93.2977 74.7183V79.3587H92.344V71.0549H93.539L97.9171 77.9282H97.9631C97.9554 77.8352 97.9477 77.7072 97.9401 77.5444C97.9324 77.3738 97.9248 77.1878 97.9171 76.9862C97.9094 76.7768 97.9018 76.5636 97.8941 76.3465C97.8865 76.1294 97.8826 75.9279 97.8826 75.7418V71.0549H98.8479V79.3587Z" fill="black"/>
<path d="M103.246 71.0549C104.319 71.0549 105.1 71.2681 105.59 71.6946C106.081 72.121 106.326 72.7219 106.326 73.4972C106.326 73.8384 106.268 74.1679 106.153 74.4857C106.046 74.7959 105.866 75.075 105.613 75.3231C105.361 75.5712 105.024 75.7689 104.602 75.9162C104.181 76.0558 103.664 76.1256 103.051 76.1256H102.109V79.3587H101.074V71.0549H103.246ZM103.154 71.9504H102.109V75.2301H102.936C103.457 75.2301 103.89 75.1758 104.234 75.0672C104.579 74.9509 104.836 74.7687 105.004 74.5206C105.173 74.2725 105.257 73.9469 105.257 73.5437C105.257 73.0088 105.089 72.6095 104.752 72.3458C104.414 72.0822 103.882 71.9504 103.154 71.9504Z" fill="black"/>
<path d="M114.272 76.4279C114.272 77.0017 114.157 77.5212 113.927 77.9863C113.697 78.4438 113.345 78.8082 112.87 79.0796C112.402 79.3432 111.805 79.475 111.077 79.475C110.058 79.475 109.281 79.1959 108.744 78.6376C108.216 78.0716 107.951 77.3273 107.951 76.4047V71.0549H108.986V76.4396C108.986 77.1141 109.162 77.6375 109.514 78.0096C109.874 78.3818 110.414 78.5678 111.134 78.5678C111.632 78.5678 112.035 78.4787 112.341 78.3004C112.655 78.1143 112.885 77.8623 113.03 77.5444C113.176 77.2188 113.249 76.8466 113.249 76.4279V71.0549H114.272V76.4279Z" fill="black"/>
<path d="M119.034 79.3587H118V71.9737H115.437V71.0549H121.585V71.9737H119.034V79.3587Z" fill="black"/>
<path d="M121.85 78.7307C121.85 78.4438 121.919 78.2422 122.057 78.1259C122.195 78.0096 122.36 77.9515 122.551 77.9515C122.75 77.9515 122.919 78.0096 123.057 78.1259C123.202 78.2422 123.275 78.4438 123.275 78.7307C123.275 79.0098 123.202 79.2114 123.057 79.3354C122.919 79.4595 122.75 79.5215 122.551 79.5215C122.36 79.5215 122.195 79.4595 122.057 79.3354C121.919 79.2114 121.85 79.0098 121.85 78.7307Z" fill="black"/>
<path d="M128.156 71.8574C127.72 71.8574 127.325 71.9349 126.973 72.09C126.62 72.2373 126.322 72.4583 126.076 72.7529C125.831 73.0398 125.644 73.3925 125.513 73.8112C125.383 74.2221 125.318 74.6873 125.318 75.2068C125.318 75.8891 125.421 76.4822 125.628 76.9862C125.843 77.4901 126.157 77.8778 126.571 78.1492C126.992 78.4205 127.517 78.5562 128.145 78.5562C128.505 78.5562 128.846 78.5252 129.167 78.4632C129.489 78.4011 129.803 78.3236 130.11 78.2306V79.1377C129.803 79.254 129.485 79.3393 129.156 79.3936C128.834 79.4478 128.447 79.475 127.995 79.475C127.16 79.475 126.463 79.3005 125.904 78.9516C125.345 78.6027 124.923 78.1065 124.64 77.463C124.364 76.8195 124.226 76.0635 124.226 75.1952C124.226 74.5672 124.311 73.9934 124.479 73.4739C124.655 72.9545 124.908 72.5048 125.238 72.1249C125.575 71.745 125.988 71.4542 126.479 71.2526C126.969 71.0433 127.532 70.9386 128.168 70.9386C128.589 70.9386 128.995 70.9813 129.386 71.0666C129.776 71.1518 130.125 71.272 130.431 71.4271L130.018 72.311C129.765 72.1947 129.482 72.09 129.167 71.997C128.861 71.9039 128.524 71.8574 128.156 71.8574Z" fill="black"/>
<path d="M138.835 75.1952C138.835 75.8387 138.754 76.4241 138.594 76.9513C138.433 77.4708 138.191 77.9204 137.87 78.3004C137.556 78.6803 137.161 78.971 136.686 79.1726C136.219 79.3742 135.675 79.475 135.054 79.475C134.411 79.475 133.852 79.3742 133.377 79.1726C132.902 78.9633 132.507 78.6725 132.193 78.3004C131.879 77.9204 131.645 77.4669 131.492 76.9397C131.339 76.4124 131.262 75.8271 131.262 75.1835C131.262 74.3307 131.4 73.5864 131.676 72.9506C131.952 72.3148 132.369 71.8186 132.929 71.462C133.495 71.1053 134.208 70.927 135.066 70.927C135.886 70.927 136.575 71.1053 137.134 71.462C137.693 71.8109 138.115 72.3071 138.398 72.9506C138.689 73.5864 138.835 74.3346 138.835 75.1952ZM132.354 75.1952C132.354 75.893 132.45 76.4938 132.641 76.9978C132.833 77.5018 133.128 77.8894 133.526 78.1608C133.932 78.4322 134.442 78.5678 135.054 78.5678C135.675 78.5678 136.18 78.4322 136.571 78.1608C136.97 77.8894 137.264 77.5018 137.456 76.9978C137.648 76.4938 137.743 75.893 137.743 75.1952C137.743 74.1485 137.529 73.3305 137.1 72.7413C136.671 72.1443 135.993 71.8458 135.066 71.8458C134.445 71.8458 133.932 71.9814 133.526 72.2528C133.128 72.5164 132.833 72.9002 132.641 73.4042C132.45 73.9004 132.354 74.4974 132.354 75.1952Z" fill="black"/>
<path d="M144.273 79.3587L141.573 72.0784H141.527C141.542 72.2334 141.553 72.4311 141.561 72.6715C141.576 72.9118 141.588 73.1754 141.596 73.4623C141.603 73.7414 141.607 74.0283 141.607 74.3229V79.3587H140.653V71.0549H142.182L144.71 77.8584H144.756L147.33 71.0549H148.846V79.3587H147.824V74.2532C147.824 73.9818 147.828 73.7143 147.835 73.4507C147.843 73.1793 147.854 72.9273 147.87 72.6947C147.885 72.4544 147.897 72.2528 147.904 72.09H147.858L145.123 79.3587H144.273Z" fill="black"/>
<path d="M20.5551 71.0549L18.3718 79.3587H17.3262L15.7289 73.9159C15.6829 73.7531 15.637 73.5864 15.591 73.4158C15.5451 73.2452 15.5029 73.0824 15.4646 72.9273C15.4263 72.7723 15.3918 72.6405 15.3612 72.5319C15.3382 72.4156 15.3229 72.3303 15.3152 72.2761C15.3076 72.3303 15.2922 72.4156 15.2693 72.5319C15.2539 72.6405 15.2271 72.7723 15.1888 72.9273C15.1505 73.0824 15.1084 73.2491 15.0624 73.4274C15.0241 73.598 14.9782 73.7724 14.9245 73.9508L13.3732 79.3587H12.3276L10.1558 71.0549H11.2359L12.5114 76.1256C12.5574 76.3039 12.5995 76.4822 12.6378 76.6605C12.6761 76.8311 12.7106 77.0017 12.7412 77.1723C12.7795 77.3351 12.8102 77.494 12.8332 77.6491C12.8562 77.8041 12.8791 77.9553 12.9021 78.1026C12.9251 77.9476 12.9481 77.7886 12.9711 77.6258C13.0017 77.463 13.0362 77.2963 13.0745 77.1257C13.1128 76.9474 13.1549 76.7691 13.2009 76.5908C13.2468 76.4124 13.2928 76.238 13.3388 76.0674L14.7866 71.0549H15.8553L17.3606 76.1023C17.4143 76.2806 17.4641 76.4628 17.51 76.6489C17.556 76.8272 17.5981 77.0017 17.6364 77.1723C17.6747 77.3428 17.7054 77.5095 17.7283 77.6723C17.759 77.8274 17.7858 77.9708 17.8088 78.1026C17.8318 77.9088 17.8624 77.7072 17.9007 77.4979C17.939 77.2808 17.985 77.056 18.0386 76.8234C18.0922 76.5908 18.1497 76.3543 18.211 76.1139L19.475 71.0549H20.5551Z" stroke="black" stroke-width="0.6" mask="url(#path-29-outside-1_788_1700)"/>
<path d="M31.2382 71.0549L29.0549 79.3587H28.0092L26.412 73.9159C26.366 73.7531 26.32 73.5864 26.2741 73.4158C26.2281 73.2452 26.186 73.0824 26.1477 72.9273C26.1094 72.7723 26.0749 72.6405 26.0443 72.5319C26.0213 72.4156 26.006 72.3303 25.9983 72.2761C25.9906 72.3303 25.9753 72.4156 25.9523 72.5319C25.937 72.6405 25.9102 72.7723 25.8719 72.9273C25.8336 73.0824 25.7915 73.2491 25.7455 73.4274C25.7072 73.598 25.6612 73.7724 25.6076 73.9508L24.0563 79.3587H23.0106L20.8388 71.0549H21.919L23.1945 76.1256C23.2404 76.3039 23.2826 76.4822 23.3209 76.6605C23.3592 76.8311 23.3937 77.0017 23.4243 77.1723C23.4626 77.3351 23.4932 77.494 23.5162 77.6491C23.5392 77.8041 23.5622 77.9553 23.5852 78.1026C23.6082 77.9476 23.6311 77.7886 23.6541 77.6258C23.6848 77.463 23.7192 77.2963 23.7575 77.1257C23.7958 76.9474 23.838 76.7691 23.8839 76.5908C23.9299 76.4124 23.9759 76.238 24.0218 76.0674L25.4697 71.0549H26.5384L28.0437 76.1023C28.0973 76.2806 28.1471 76.4628 28.1931 76.6489C28.239 76.8272 28.2812 77.0017 28.3195 77.1723C28.3578 77.3428 28.3884 77.5095 28.4114 77.6723C28.442 77.8274 28.4689 77.9708 28.4918 78.1026C28.5148 77.9088 28.5455 77.7072 28.5838 77.4979C28.6221 77.2808 28.668 77.056 28.7217 76.8234C28.7753 76.5908 28.8327 76.3543 28.894 76.1139L30.158 71.0549H31.2382Z" stroke="black" stroke-width="0.6" mask="url(#path-29-outside-1_788_1700)"/>
<path d="M41.9213 71.0549L39.738 79.3587H38.6923L37.095 73.9159C37.0491 73.7531 37.0031 73.5864 36.9571 73.4158C36.9112 73.2452 36.869 73.0824 36.8307 72.9273C36.7924 72.7723 36.758 72.6405 36.7273 72.5319C36.7043 72.4156 36.689 72.3303 36.6813 72.2761C36.6737 72.3303 36.6584 72.4156 36.6354 72.5319C36.6201 72.6405 36.5933 72.7723 36.5549 72.9273C36.5166 73.0824 36.4745 73.2491 36.4285 73.4274C36.3902 73.598 36.3443 73.7724 36.2907 73.9508L34.7394 79.3587H33.6937L31.5219 71.0549H32.602L33.8775 76.1256C33.9235 76.3039 33.9656 76.4822 34.0039 76.6605C34.0422 76.8311 34.0767 77.0017 34.1074 77.1723C34.1457 77.3351 34.1763 77.494 34.1993 77.6491C34.2223 77.8041 34.2453 77.9553 34.2682 78.1026C34.2912 77.9476 34.3142 77.7886 34.3372 77.6258C34.3678 77.463 34.4023 77.2963 34.4406 77.1257C34.4789 76.9474 34.521 76.7691 34.567 76.5908C34.613 76.4124 34.6589 76.238 34.7049 76.0674L36.1528 71.0549H37.2214L38.7268 76.1023C38.7804 76.2806 38.8302 76.4628 38.8761 76.6489C38.9221 76.8272 38.9642 77.0017 39.0025 77.1723C39.0408 77.3428 39.0715 77.5095 39.0945 77.6723C39.1251 77.8274 39.1519 77.9708 39.1749 78.1026C39.1979 77.9088 39.2285 77.7072 39.2668 77.4979C39.3051 77.2808 39.3511 77.056 39.4047 76.8234C39.4583 76.5908 39.5158 76.3543 39.5771 76.1139L40.8411 71.0549H41.9213Z" stroke="black" stroke-width="0.6" mask="url(#path-29-outside-1_788_1700)"/>
<path d="M42.3221 78.7307C42.3221 78.4438 42.391 78.2422 42.5289 78.1259C42.6668 78.0096 42.8315 77.9515 43.023 77.9515C43.2222 77.9515 43.3908 78.0096 43.5287 78.1259C43.6742 78.2422 43.747 78.4438 43.747 78.7307C43.747 79.0098 43.6742 79.2114 43.5287 79.3354C43.3908 79.4595 43.2222 79.5215 43.023 79.5215C42.8315 79.5215 42.6668 79.4595 42.5289 79.3354C42.391 79.2114 42.3221 79.0098 42.3221 78.7307Z" stroke="black" stroke-width="0.6" mask="url(#path-29-outside-1_788_1700)"/>
<path d="M49.3038 79.3587L46.6034 72.0784H46.5574C46.5728 72.2334 46.5842 72.4311 46.5919 72.6715C46.6072 72.9118 46.6187 73.1754 46.6264 73.4623C46.634 73.7414 46.6379 74.0283 46.6379 74.3229V79.3587H45.6841V71.0549H47.2124L49.7404 77.8584H49.7864L52.3604 71.0549H53.8772V79.3587H52.8545V74.2532C52.8545 73.9818 52.8583 73.7143 52.866 73.4507C52.8737 73.1793 52.8852 72.9273 52.9005 72.6947C52.9158 72.4544 52.9273 72.2528 52.935 72.09H52.889L50.1541 79.3587H49.3038Z" stroke="black" stroke-width="0.6" mask="url(#path-29-outside-1_788_1700)"/>
<path d="M58.2464 75.137L60.3837 71.0549H61.4984L58.7635 76.1372V79.3587H57.7293V76.1837L54.9944 71.0549H56.1206L58.2464 75.137Z" stroke="black" stroke-width="0.6" mask="url(#path-29-outside-1_788_1700)"/>
<path d="M67.0811 79.3587L66.0929 76.7885H62.8409L61.8642 79.3587H60.8185L64.0245 71.02H64.9553L68.1498 79.3587H67.0811ZM64.8634 73.346C64.8404 73.284 64.8021 73.1716 64.7484 73.0088C64.6948 72.8459 64.6412 72.6792 64.5876 72.5087C64.5416 72.3303 64.5033 72.1947 64.4727 72.1016C64.4343 72.2567 64.3922 72.4156 64.3463 72.5784C64.308 72.7335 64.2658 72.8769 64.2199 73.0088C64.1815 73.1406 64.1471 73.253 64.1164 73.346L63.1857 75.8581H65.7826L64.8634 73.346Z" stroke="black" stroke-width="0.6" mask="url(#path-29-outside-1_788_1700)"/>
<path d="M72.6099 74.9742H75.4482V79.0447C75.0039 79.192 74.5557 79.3005 74.1037 79.3703C73.6518 79.4401 73.1385 79.475 72.5639 79.475C71.7136 79.475 70.9973 79.3044 70.4151 78.9633C69.8329 78.6144 69.3886 78.122 69.0822 77.4863C68.7834 76.8427 68.634 76.0829 68.634 75.2068C68.634 74.3384 68.8026 73.5864 69.1396 72.9506C69.4767 72.3148 69.9593 71.8225 70.5875 71.4736C71.2233 71.117 71.9894 70.9386 72.8857 70.9386C73.3453 70.9386 73.7782 70.9813 74.1842 71.0666C74.5979 71.1518 74.9809 71.272 75.3333 71.4271L74.9426 72.3342C74.6515 72.2024 74.3221 72.09 73.9544 71.997C73.5943 71.9039 73.2189 71.8574 72.8282 71.8574C72.1771 71.8574 71.6179 71.9931 71.1506 72.2644C70.6833 72.5358 70.327 72.9235 70.0819 73.4274C69.8367 73.9236 69.7142 74.5168 69.7142 75.2068C69.7142 75.8658 69.8176 76.4512 70.0244 76.9629C70.2389 77.4669 70.5722 77.8623 71.0242 78.1492C71.4761 78.4283 72.0698 78.5678 72.8053 78.5678C73.0504 78.5678 73.2649 78.5601 73.4488 78.5446C73.6403 78.5213 73.8126 78.4942 73.9659 78.4632C74.1267 78.4322 74.2761 78.4011 74.414 78.3701V75.9046H72.6099V74.9742Z" stroke="black" stroke-width="0.6" mask="url(#path-29-outside-1_788_1700)"/>
<path d="M79.6716 71.0549C80.3534 71.0549 80.9126 71.1441 81.3493 71.3224C81.7936 71.493 82.123 71.7527 82.3375 72.1016C82.552 72.4505 82.6593 72.8886 82.6593 73.4158C82.6593 73.8577 82.5788 74.226 82.418 74.5206C82.2571 74.8153 82.0502 75.0517 81.7974 75.2301C81.5523 75.4006 81.2918 75.5363 81.016 75.6371L83.2683 79.3587H82.0617L80.0738 75.9279H78.4421V79.3587H77.4079V71.0549H79.6716ZM79.6141 71.9621H78.4421V75.044H79.6716C80.1159 75.044 80.4798 74.9858 80.7632 74.8695C81.0467 74.7455 81.2535 74.5672 81.3838 74.3346C81.5216 74.102 81.5906 73.8112 81.5906 73.4623C81.5906 73.0979 81.5178 72.8072 81.3723 72.5901C81.2344 72.373 81.0199 72.214 80.7288 72.1133C80.4377 72.0125 80.0661 71.9621 79.6141 71.9621Z" stroke="black" stroke-width="0.6" mask="url(#path-29-outside-1_788_1700)"/>
<path d="M86.8658 79.3587H83.9011V78.7539L84.8663 78.533V71.8923L83.9011 71.6597V71.0549H86.8658V71.6597L85.9005 71.8923V78.533L86.8658 78.7539V79.3587Z" stroke="black" stroke-width="0.6" mask="url(#path-29-outside-1_788_1700)"/>
<path d="M90.7597 79.3587H87.795V78.7539L88.7603 78.533V71.8923L87.795 71.6597V71.0549H90.7597V71.6597L89.7945 71.8923V78.533L90.7597 78.7539V79.3587Z" stroke="black" stroke-width="0.6" mask="url(#path-29-outside-1_788_1700)"/>
<path d="M98.8479 79.3587H97.6413L93.2517 72.4621H93.2058C93.2134 72.6017 93.2211 72.7568 93.2288 72.9273C93.2441 73.0979 93.2556 73.284 93.2632 73.4856C93.2709 73.6794 93.2786 73.881 93.2862 74.0903C93.2939 74.2997 93.2977 74.509 93.2977 74.7183V79.3587H92.344V71.0549H93.539L97.9171 77.9282H97.9631C97.9554 77.8352 97.9477 77.7072 97.9401 77.5444C97.9324 77.3738 97.9248 77.1878 97.9171 76.9862C97.9094 76.7768 97.9018 76.5636 97.8941 76.3465C97.8865 76.1294 97.8826 75.9279 97.8826 75.7418V71.0549H98.8479V79.3587Z" stroke="black" stroke-width="0.6" mask="url(#path-29-outside-1_788_1700)"/>
<path d="M103.246 71.0549C104.319 71.0549 105.1 71.2681 105.59 71.6946C106.081 72.121 106.326 72.7219 106.326 73.4972C106.326 73.8384 106.268 74.1679 106.153 74.4857C106.046 74.7959 105.866 75.075 105.613 75.3231C105.361 75.5712 105.024 75.7689 104.602 75.9162C104.181 76.0558 103.664 76.1256 103.051 76.1256H102.109V79.3587H101.074V71.0549H103.246ZM103.154 71.9504H102.109V75.2301H102.936C103.457 75.2301 103.89 75.1758 104.234 75.0672C104.579 74.9509 104.836 74.7687 105.004 74.5206C105.173 74.2725 105.257 73.9469 105.257 73.5437C105.257 73.0088 105.089 72.6095 104.752 72.3458C104.414 72.0822 103.882 71.9504 103.154 71.9504Z" stroke="black" stroke-width="0.6" mask="url(#path-29-outside-1_788_1700)"/>
<path d="M114.272 76.4279C114.272 77.0017 114.157 77.5212 113.927 77.9863C113.697 78.4438 113.345 78.8082 112.87 79.0796C112.402 79.3432 111.805 79.475 111.077 79.475C110.058 79.475 109.281 79.1959 108.744 78.6376C108.216 78.0716 107.951 77.3273 107.951 76.4047V71.0549H108.986V76.4396C108.986 77.1141 109.162 77.6375 109.514 78.0096C109.874 78.3818 110.414 78.5678 111.134 78.5678C111.632 78.5678 112.035 78.4787 112.341 78.3004C112.655 78.1143 112.885 77.8623 113.03 77.5444C113.176 77.2188 113.249 76.8466 113.249 76.4279V71.0549H114.272V76.4279Z" stroke="black" stroke-width="0.6" mask="url(#path-29-outside-1_788_1700)"/>
<path d="M119.034 79.3587H118V71.9737H115.437V71.0549H121.585V71.9737H119.034V79.3587Z" stroke="black" stroke-width="0.6" mask="url(#path-29-outside-1_788_1700)"/>
<path d="M121.85 78.7307C121.85 78.4438 121.919 78.2422 122.057 78.1259C122.195 78.0096 122.36 77.9515 122.551 77.9515C122.75 77.9515 122.919 78.0096 123.057 78.1259C123.202 78.2422 123.275 78.4438 123.275 78.7307C123.275 79.0098 123.202 79.2114 123.057 79.3354C122.919 79.4595 122.75 79.5215 122.551 79.5215C122.36 79.5215 122.195 79.4595 122.057 79.3354C121.919 79.2114 121.85 79.0098 121.85 78.7307Z" stroke="black" stroke-width="0.6" mask="url(#path-29-outside-1_788_1700)"/>
<path d="M128.156 71.8574C127.72 71.8574 127.325 71.9349 126.973 72.09C126.62 72.2373 126.322 72.4583 126.076 72.7529C125.831 73.0398 125.644 73.3925 125.513 73.8112C125.383 74.2221 125.318 74.6873 125.318 75.2068C125.318 75.8891 125.421 76.4822 125.628 76.9862C125.843 77.4901 126.157 77.8778 126.571 78.1492C126.992 78.4205 127.517 78.5562 128.145 78.5562C128.505 78.5562 128.846 78.5252 129.167 78.4632C129.489 78.4011 129.803 78.3236 130.11 78.2306V79.1377C129.803 79.254 129.485 79.3393 129.156 79.3936C128.834 79.4478 128.447 79.475 127.995 79.475C127.16 79.475 126.463 79.3005 125.904 78.9516C125.345 78.6027 124.923 78.1065 124.64 77.463C124.364 76.8195 124.226 76.0635 124.226 75.1952C124.226 74.5672 124.311 73.9934 124.479 73.4739C124.655 72.9545 124.908 72.5048 125.238 72.1249C125.575 71.745 125.988 71.4542 126.479 71.2526C126.969 71.0433 127.532 70.9386 128.168 70.9386C128.589 70.9386 128.995 70.9813 129.386 71.0666C129.776 71.1518 130.125 71.272 130.431 71.4271L130.018 72.311C129.765 72.1947 129.482 72.09 129.167 71.997C128.861 71.9039 128.524 71.8574 128.156 71.8574Z" stroke="black" stroke-width="0.6" mask="url(#path-29-outside-1_788_1700)"/>
<path d="M138.835 75.1952C138.835 75.8387 138.754 76.4241 138.594 76.9513C138.433 77.4708 138.191 77.9204 137.87 78.3004C137.556 78.6803 137.161 78.971 136.686 79.1726C136.219 79.3742 135.675 79.475 135.054 79.475C134.411 79.475 133.852 79.3742 133.377 79.1726C132.902 78.9633 132.507 78.6725 132.193 78.3004C131.879 77.9204 131.645 77.4669 131.492 76.9397C131.339 76.4124 131.262 75.8271 131.262 75.1835C131.262 74.3307 131.4 73.5864 131.676 72.9506C131.952 72.3148 132.369 71.8186 132.929 71.462C133.495 71.1053 134.208 70.927 135.066 70.927C135.886 70.927 136.575 71.1053 137.134 71.462C137.693 71.8109 138.115 72.3071 138.398 72.9506C138.689 73.5864 138.835 74.3346 138.835 75.1952ZM132.354 75.1952C132.354 75.893 132.45 76.4938 132.641 76.9978C132.833 77.5018 133.128 77.8894 133.526 78.1608C133.932 78.4322 134.442 78.5678 135.054 78.5678C135.675 78.5678 136.18 78.4322 136.571 78.1608C136.97 77.8894 137.264 77.5018 137.456 76.9978C137.648 76.4938 137.743 75.893 137.743 75.1952C137.743 74.1485 137.529 73.3305 137.1 72.7413C136.671 72.1443 135.993 71.8458 135.066 71.8458C134.445 71.8458 133.932 71.9814 133.526 72.2528C133.128 72.5164 132.833 72.9002 132.641 73.4042C132.45 73.9004 132.354 74.4974 132.354 75.1952Z" stroke="black" stroke-width="0.6" mask="url(#path-29-outside-1_788_1700)"/>
<path d="M144.273 79.3587L141.573 72.0784H141.527C141.542 72.2334 141.553 72.4311 141.561 72.6715C141.576 72.9118 141.588 73.1754 141.596 73.4623C141.603 73.7414 141.607 74.0283 141.607 74.3229V79.3587H140.653V71.0549H142.182L144.71 77.8584H144.756L147.33 71.0549H148.846V79.3587H147.824V74.2532C147.824 73.9818 147.828 73.7143 147.835 73.4507C147.843 73.1793 147.854 72.9273 147.87 72.6947C147.885 72.4544 147.897 72.2528 147.904 72.09H147.858L145.123 79.3587H144.273Z" stroke="black" stroke-width="0.6" mask="url(#path-29-outside-1_788_1700)"/>
<path d="M5.431 91.3188H4.25636V89.9495H6.95113V94.8121C6.83136 94.84 6.62868 94.8727 6.34308 94.9099C6.05748 94.9472 5.75346 94.9798 5.431 95.0077C5.10855 95.045 4.79531 95.0729 4.49129 95.0916C4.18726 95.1195 3.95233 95.1335 3.7865 95.1335C3.0679 95.1335 2.46445 95.0357 1.97617 94.84C1.4971 94.6444 1.11015 94.3417 0.815342 93.9318C0.520529 93.5219 0.308632 93.0049 0.179652 92.3808C0.0598838 91.7566 0 91.0161 0 90.1591C0 89.302 0.0644903 88.5661 0.193471 87.9513C0.322451 87.3365 0.534348 86.8288 0.829161 86.4282C1.12397 86.0277 1.50631 85.7342 1.97617 85.5479C2.45524 85.3523 3.04026 85.2545 3.73122 85.2545C4.1458 85.2545 4.57881 85.2778 5.03024 85.3244C5.48167 85.3709 5.96075 85.4408 6.46745 85.5339L6.95113 85.6318L6.89585 86.8614C6.33387 86.7869 5.80413 86.731 5.30663 86.6937C4.80913 86.6565 4.33928 86.6378 3.89706 86.6378C3.45484 86.6378 3.08632 86.6984 2.79151 86.8195C2.4967 86.9313 2.25716 87.1222 2.0729 87.3924C1.89786 87.6625 1.77348 88.0258 1.69978 88.4823C1.62608 88.9387 1.58923 89.507 1.58923 90.187C1.58923 90.867 1.62147 91.4399 1.68596 91.9057C1.75966 92.3621 1.87943 92.7301 2.04526 93.0096C2.22031 93.289 2.45984 93.4893 2.76387 93.6104C3.0679 93.7222 3.45484 93.7781 3.92469 93.7781C4.59724 93.7781 5.09934 93.7362 5.431 93.6523V91.3188Z" fill="black"/>
<path d="M10.2855 94.9798H8.77917V85.0868H10.2855V94.9798Z" fill="black"/>
<path d="M14.9416 87.8395C16.0472 87.8395 16.8349 88.1423 17.3047 88.7478C17.7838 89.3533 18.0233 90.2615 18.0233 91.4725C18.0233 92.078 17.9681 92.609 17.8575 93.0655C17.747 93.5219 17.5719 93.9039 17.3324 94.2113C17.0928 94.5187 16.775 94.7516 16.3788 94.9099C15.9919 95.059 15.5128 95.1335 14.9416 95.1335C14.3796 95.1335 13.9006 95.059 13.5044 94.9099C13.1083 94.7516 12.7904 94.5187 12.5509 94.2113C12.3113 93.9039 12.1363 93.5219 12.0257 93.0655C11.9152 92.609 11.8599 92.078 11.8599 91.4725C11.8599 90.9229 11.9106 90.4245 12.0119 89.9774C12.1133 89.5303 12.2791 89.1483 12.5094 88.8316C12.749 88.5149 13.0668 88.2727 13.463 88.105C13.8591 87.928 14.352 87.8395 14.9416 87.8395ZM13.6979 93.289C13.9006 93.6616 14.3152 93.848 14.9416 93.848C15.2457 93.848 15.499 93.806 15.7017 93.7222C15.9044 93.629 16.0656 93.4847 16.1854 93.289C16.3051 93.0934 16.3881 92.8466 16.4341 92.5485C16.4802 92.241 16.5032 91.8777 16.5032 91.4586C16.5032 90.6109 16.3881 90.01 16.1577 89.656C15.9366 89.302 15.5313 89.125 14.9416 89.125C14.352 89.125 13.942 89.302 13.7117 89.656C13.4906 90.01 13.38 90.6109 13.38 91.4586C13.38 92.2969 13.486 92.9071 13.6979 93.289Z" fill="black"/>
<path d="M22.7395 87.8395C23.2094 87.8395 23.6147 87.9047 23.9556 88.0351C24.2965 88.1562 24.5729 88.3612 24.7848 88.65C25.0059 88.9294 25.1671 89.302 25.2685 89.7678C25.3698 90.2336 25.4205 90.8065 25.4205 91.4865C25.4205 92.1665 25.3606 92.7394 25.2408 93.2052C25.1303 93.671 24.9414 94.0482 24.6742 94.337C24.4071 94.6165 24.057 94.8214 23.624 94.9518C23.2002 95.0729 22.675 95.1335 22.0486 95.1335C21.6155 95.1335 20.9292 95.0916 19.9895 95.0077L19.5196 94.9658V85.0868H21.0121V88.2587C21.6478 87.9792 22.2236 87.8395 22.7395 87.8395ZM22.0486 93.7781C22.4171 93.7781 22.7211 93.7362 22.9606 93.6523C23.2002 93.5685 23.389 93.4381 23.5272 93.2611C23.6654 93.0748 23.7575 92.8372 23.8036 92.5485C23.8589 92.2504 23.8865 91.8917 23.8865 91.4725C23.8865 90.6341 23.7806 90.0473 23.5687 89.7119C23.366 89.3672 23.0297 89.1949 22.5599 89.1949C22.1177 89.1949 21.6754 89.2648 21.2332 89.4045L21.0121 89.4744V93.7222C21.2701 93.7408 21.482 93.7548 21.6478 93.7641C21.8228 93.7734 21.9564 93.7781 22.0486 93.7781Z" fill="black"/>
<path d="M32.0418 90.1451V93.331C32.051 93.5359 32.1017 93.6896 32.1938 93.7921C32.2951 93.8852 32.4471 93.9458 32.6498 93.9737L32.6084 95.1335C31.8068 95.1335 31.1942 94.9611 30.7704 94.6165C30.0518 94.9611 29.3102 95.1335 28.5455 95.1335C27.1728 95.1335 26.4864 94.3929 26.4864 92.9118C26.4864 92.2038 26.6707 91.6914 27.0392 91.3747C27.4077 91.058 27.9835 90.867 28.7666 90.8018L30.5493 90.6481V90.1451C30.5493 89.7725 30.4664 89.5116 30.3005 89.3626C30.1439 89.2135 29.909 89.139 29.5958 89.139C29.3009 89.139 28.9693 89.1483 28.6008 89.167C28.2322 89.1856 27.8269 89.2135 27.3847 89.2508L26.9424 89.2787L26.8872 88.2028C27.919 87.9606 28.8449 87.8395 29.6648 87.8395C30.5124 87.8395 31.1205 88.0212 31.489 88.3845C31.8575 88.7478 32.0418 89.3346 32.0418 90.1451ZM30.5493 91.724L28.9462 91.8777C28.3106 91.9336 27.9927 92.283 27.9927 92.9257C27.9927 93.5685 28.2737 93.8899 28.8357 93.8899C29.3148 93.8899 29.803 93.8154 30.3005 93.6663L30.5493 93.5825V91.724Z" fill="black"/>
<path d="M35.522 94.9798H34.0157V85.0868H35.522V94.9798Z" fill="black"/>
<path d="M42.1782 94.9798H40.6442V85.4082H43.3113L45.4257 92.8838L47.5401 85.4082H50.221V94.9798H48.6733V87.1269H48.466L46.2272 94.5885H44.6242L42.3854 87.1269H42.1782V94.9798Z" fill="black"/>
<path d="M57.3188 90.1451V93.331C57.328 93.5359 57.3786 93.6896 57.4708 93.7921C57.5721 93.8852 57.7241 93.9458 57.9268 93.9737L57.8854 95.1335C57.0838 95.1335 56.4712 94.9611 56.0474 94.6165C55.3288 94.9611 54.5871 95.1335 53.8225 95.1335C52.4498 95.1335 51.7634 94.3929 51.7634 92.9118C51.7634 92.2038 51.9476 91.6914 52.3162 91.3747C52.6847 91.058 53.2605 90.867 54.0436 90.8018L55.8263 90.6481V90.1451C55.8263 89.7725 55.7434 89.5116 55.5775 89.3626C55.4209 89.2135 55.186 89.139 54.8727 89.139C54.5779 89.139 54.2463 89.1483 53.8777 89.167C53.5092 89.1856 53.1039 89.2135 52.6616 89.2508L52.2194 89.2787L52.1641 88.2028C53.196 87.9606 54.1219 87.8395 54.9418 87.8395C55.7894 87.8395 56.3975 88.0212 56.766 88.3845C57.1345 88.7478 57.3188 89.3346 57.3188 90.1451ZM55.8263 91.724L54.2232 91.8777C53.5875 91.9336 53.2697 92.283 53.2697 92.9257C53.2697 93.5685 53.5507 93.8899 54.1127 93.8899C54.5917 93.8899 55.08 93.8154 55.5775 93.6663L55.8263 93.5825V91.724Z" fill="black"/>
<path d="M60.7161 94.9798H59.2097V87.9932H60.7022V88.8316C61.4761 88.3286 62.2592 87.9979 63.0515 87.8395V89.3626C62.2869 89.5116 61.6097 89.7166 61.0201 89.9774L60.7161 90.1032V94.9798Z" fill="black"/>
<path d="M65.7094 92.1293V94.9798H64.2031V85.0868H65.7094V90.8018L66.5662 90.718L68.1969 87.9932H69.8828L67.8928 91.2629L69.9934 94.9798H68.2936L66.6076 92.0315L65.7094 92.1293Z" fill="black"/>
<path d="M76.0189 93.7222L76.4059 93.6803L76.4335 94.8121C75.9084 94.9146 75.4155 94.9938 74.9548 95.0496C74.4942 95.1055 74.0566 95.1335 73.642 95.1335C72.6194 95.1335 71.8823 94.8494 71.4309 94.2811C70.9887 93.7129 70.7676 92.8046 70.7676 91.5564C70.7676 89.0785 71.7672 87.8395 73.7664 87.8395C75.7011 87.8395 76.6684 88.9061 76.6684 91.0394L76.5717 92.1293H72.2877C72.2969 92.7068 72.4213 93.1307 72.6608 93.4008C72.9004 93.671 73.3472 93.806 74.0013 93.806C74.6554 93.806 75.328 93.7781 76.0189 93.7222ZM72.2739 90.9555H75.1898C75.1898 90.2569 75.0838 89.7725 74.8719 89.5023C74.66 89.2322 74.2915 89.0971 73.7664 89.0971C73.2412 89.0971 72.8635 89.2415 72.6332 89.5303C72.4029 89.8097 72.2831 90.2848 72.2739 90.9555Z" fill="black"/>
<path d="M81.8343 87.9932V89.2927H79.9272V92.3668C79.9272 92.6463 79.9318 92.8792 79.941 93.0655C79.9595 93.2518 79.9963 93.3962 80.0516 93.4986C80.1069 93.6011 80.1852 93.6756 80.2865 93.7222C80.3879 93.7595 80.5214 93.7781 80.6873 93.7781L81.8205 93.7362L81.8896 94.9518C81.2907 95.0729 80.8209 95.1335 80.48 95.1335C80.093 95.1335 79.766 95.0916 79.4988 95.0077C79.2409 94.9239 79.029 94.7842 78.8631 94.5885C78.7065 94.3929 78.596 94.1274 78.5315 93.7921C78.467 93.4567 78.4347 93.0375 78.4347 92.5345V89.2927H77.5503V87.9932H78.4347V85.9671H79.9272V87.9932H81.8343Z" fill="black"/>
<path d="M87.1326 91.9057H83.0006V90.5224H87.1326V91.9057Z" fill="black"/>
<path d="M93.7092 88.1609L93.6816 89.4325C93.1288 89.3579 92.6543 89.302 92.2582 89.2648C91.8712 89.2275 91.558 89.2089 91.3185 89.2089C90.821 89.2089 90.4801 89.2694 90.2958 89.3905C90.1116 89.5023 90.0194 89.684 90.0194 89.9355C90.0194 90.187 90.1254 90.364 90.3373 90.4665C90.4386 90.513 90.6091 90.5689 90.8486 90.6341C91.0974 90.69 91.4152 90.7506 91.8021 90.8158C92.1891 90.881 92.5161 90.9648 92.7833 91.0673C93.0505 91.1698 93.267 91.3048 93.4328 91.4725C93.5987 91.6309 93.7184 91.8358 93.7921 92.0873C93.875 92.3295 93.9165 92.6323 93.9165 92.9956C93.9165 93.7315 93.6816 94.2718 93.2117 94.6165C92.7511 94.9611 92.0739 95.1335 91.1803 95.1335C90.8947 95.1335 90.5768 95.1102 90.2267 95.0636C89.8766 95.0264 89.4851 94.9705 89.0521 94.8959L88.6237 94.8261L88.679 93.5545C89.2317 93.629 89.7062 93.6849 90.1024 93.7222C90.5077 93.7595 90.8302 93.7781 91.0697 93.7781C91.5672 93.7781 91.9173 93.7175 92.12 93.5964C92.3227 93.4753 92.424 93.2751 92.424 92.9956C92.424 92.7161 92.3273 92.5205 92.1338 92.4087C92.0325 92.3621 91.862 92.3109 91.6225 92.255C91.3922 92.1898 91.0881 92.1246 90.7104 92.0594C90.3327 91.9942 90.0056 91.9197 89.7292 91.8358C89.4621 91.7427 89.2363 91.6216 89.0521 91.4725C88.877 91.3142 88.7435 91.1185 88.6513 90.8857C88.5684 90.6528 88.527 90.3547 88.527 89.9914C88.527 89.6281 88.5914 89.316 88.7204 89.0552C88.8494 88.785 89.0244 88.5615 89.2456 88.3845C89.4759 88.2075 89.7477 88.0771 90.0609 87.9932C90.3834 87.9001 90.7334 87.8535 91.1112 87.8535C91.406 87.8535 91.733 87.8721 92.0923 87.9094C92.4516 87.9466 92.8478 88.0025 93.2808 88.0771L93.7092 88.1609Z" fill="black"/>
<path d="M96.8704 94.9798H95.3641V87.9932H96.8704V94.9798ZM96.8704 86.8055H95.3641V85.1986H96.8704V86.8055Z" fill="black"/>
<path d="M100.204 89.5582V94.9798H98.6975V87.9932H100.19V88.4264C100.844 88.0351 101.443 87.8395 101.986 87.8395C102.788 87.8395 103.373 88.0677 103.742 88.5242C104.58 88.0677 105.414 87.8395 106.243 87.8395C106.657 87.8395 107.007 87.9001 107.293 88.0212C107.588 88.1423 107.823 88.3425 107.998 88.622C108.182 88.8922 108.311 89.2415 108.385 89.67C108.468 90.0985 108.509 90.6202 108.509 91.235V94.9798H107.017V91.2769C107.017 90.5224 106.938 89.9867 106.782 89.67C106.634 89.3533 106.321 89.1949 105.842 89.1949C105.446 89.1949 104.999 89.2881 104.502 89.4744L104.267 89.5722C104.34 89.7678 104.377 90.364 104.377 91.3607V94.9798H102.885V91.3887C102.885 90.9695 102.866 90.6202 102.829 90.3407C102.802 90.0612 102.747 89.8377 102.664 89.67C102.581 89.5023 102.461 89.3812 102.304 89.3067C102.148 89.2322 101.945 89.1949 101.696 89.1949C101.254 89.1949 100.826 89.2881 100.411 89.4744L100.204 89.5582Z" fill="black"/>
<path d="M111.783 97.984H110.277V87.9932H111.769V88.4264C112.405 88.0351 112.999 87.8395 113.552 87.8395C114.012 87.8395 114.409 87.9094 114.74 88.0491C115.072 88.1795 115.344 88.3938 115.556 88.6919C115.767 88.9807 115.924 89.3579 116.025 89.8237C116.136 90.2895 116.191 90.8531 116.191 91.5144C116.191 92.1758 116.131 92.7394 116.012 93.2052C115.901 93.6616 115.721 94.0343 115.473 94.323C115.224 94.6025 114.901 94.8074 114.505 94.9379C114.118 95.0683 113.648 95.1335 113.096 95.1335C112.718 95.1335 112.28 95.0916 111.783 95.0077V97.984ZM113.289 89.1949C112.856 89.1949 112.423 89.2927 111.99 89.4883L111.783 89.5862V93.7082C111.967 93.7455 112.161 93.7734 112.363 93.7921C112.566 93.8107 112.778 93.82 112.999 93.82C113.312 93.82 113.575 93.7781 113.787 93.6943C113.999 93.6011 114.169 93.4614 114.298 93.2751C114.427 93.0794 114.519 92.8326 114.574 92.5345C114.63 92.2271 114.657 91.8545 114.657 91.4166C114.657 89.9355 114.201 89.1949 113.289 89.1949Z" fill="black"/>
<path d="M119.288 94.9798H117.782V85.0868H119.288V94.9798Z" fill="black"/>
<path d="M122.701 94.9798H121.194V87.9932H122.701V94.9798ZM122.701 86.8055H121.194V85.1986H122.701V86.8055Z" fill="black"/>
<path d="M128.162 89.2927H126.338V94.9798H124.846V89.2927H124.044V87.9932H124.846V87.5461C124.846 87.043 124.878 86.6285 124.942 86.3025C125.016 85.9671 125.127 85.697 125.274 85.492C125.431 85.2871 125.633 85.1427 125.882 85.0589C126.131 84.975 126.435 84.9331 126.794 84.9331L128.287 85.0728L128.273 86.3164C128.042 86.3071 127.835 86.3025 127.651 86.3025C127.467 86.2932 127.301 86.2885 127.153 86.2885C126.849 86.2885 126.638 86.3817 126.518 86.568C126.398 86.745 126.338 87.0757 126.338 87.5601V87.9932H128.162V89.2927Z" fill="black"/>
<path d="M130.811 94.9798H129.305V87.9932H130.811V94.9798ZM130.811 86.8055H129.305V85.1986H130.811V86.8055Z" fill="black"/>
<path d="M137.558 93.7222L137.945 93.6803L137.973 94.8121C137.448 94.9146 136.955 94.9938 136.494 95.0496C136.033 95.1055 135.596 95.1335 135.181 95.1335C134.159 95.1335 133.422 94.8494 132.97 94.2811C132.528 93.7129 132.307 92.8046 132.307 91.5564C132.307 89.0785 133.306 87.8395 135.306 87.8395C137.24 87.8395 138.208 88.9061 138.208 91.0394L138.111 92.1293H133.827C133.836 92.7068 133.961 93.1307 134.2 93.4008C134.44 93.671 134.886 93.806 135.541 93.806C136.195 93.806 136.867 93.7781 137.558 93.7222ZM133.813 90.9555H136.729C136.729 90.2569 136.623 89.7725 136.411 89.5023C136.199 89.2322 135.831 89.0971 135.306 89.0971C134.781 89.0971 134.403 89.2415 134.172 89.5303C133.942 89.8097 133.822 90.2848 133.813 90.9555Z" fill="black"/>
<path d="M143.788 85.0868H145.294V94.9798H143.802V94.6165C143.129 94.9611 142.512 95.1335 141.95 95.1335C141.047 95.1335 140.384 94.8587 139.96 94.3091C139.546 93.7595 139.338 92.8372 139.338 91.5424C139.338 90.2475 139.569 89.3067 140.029 88.7198C140.499 88.133 141.227 87.8395 142.213 87.8395C142.379 87.8395 142.59 87.8535 142.848 87.8814C143.116 87.9094 143.429 87.956 143.788 88.0212V85.0868ZM143.553 93.5266L143.788 93.4288V89.2927C143.512 89.2461 143.245 89.2135 142.987 89.1949C142.738 89.167 142.494 89.153 142.254 89.153C141.324 89.153 140.858 89.9355 140.858 91.5005C140.858 92.3575 140.964 92.9537 141.176 93.289C141.397 93.6151 141.743 93.7781 142.213 93.7781C142.683 93.7781 143.129 93.6943 143.553 93.5266Z" fill="black"/>
<path d="M148.847 94.9798H147.23V93.0235H148.847V94.9798ZM148.708 91.6123H147.382L147.244 85.4082H148.847L148.708 91.6123Z" fill="black"/>
<defs>
<clipPath id="clip0_788_1700">
<rect width="33.9911" height="34.0923" fill="white" transform="translate(113.723 14.5237)"/>
</clipPath>
<clipPath id="clip1_788_1700">
<rect width="19.9738" height="19.9104" fill="white" transform="translate(91.017 24.458)"/>
</clipPath>
</defs>
</svg>
