<svg width="191" height="197" viewBox="0 0 191 197" fill="none" xmlns="http://www.w3.org/2000/svg">
<rect x="0.923584" width="113.346" height="196.915" rx="8" fill="#2A7EBA"/>
<rect x="0.923584" y="29.7774" width="113.346" height="10.0859" fill="white"/>
<rect x="44.1487" y="12.4873" width="27.8562" height="7.68448" rx="2" fill="white"/>
<rect x="48.4713" y="179.145" width="19.2112" height="7.68448" rx="2" fill="white"/>
<rect x="0.923584" y="158.492" width="113.346" height="10.5662" fill="white"/>
<circle cx="129.879" cy="99.1777" r="60.7554" fill="white"/>
<g clip-path="url(#clip0_1033_1741)">
<path fill-rule="evenodd" clip-rule="evenodd" d="M100.596 93.9851V96.5814H127.452V78.4067C127.452 77.047 125.43 77.4062 121.927 77.1324C119.422 76.9376 117.774 76.7576 115.497 76.4424C113.427 76.1567 111.564 75.8122 109.468 75.35C108.068 75.0404 104.789 74.3238 103.832 73.8626C102.45 79.8106 100.596 86.7196 100.596 93.9851Z" fill="#2A7EBA"/>
<path fill-rule="evenodd" clip-rule="evenodd" d="M100.596 104.371C100.596 111.636 102.45 118.545 103.832 124.493C107.894 122.537 122.286 120.923 127.452 120.923V101.774H100.596V104.371Z" fill="#2A7EBA"/>
<path fill-rule="evenodd" clip-rule="evenodd" d="M132.629 77.4328V96.5814H159.485C159.169 92.753 159.01 88.5212 158.335 84.7535C157.604 80.6797 156.776 77.522 155.926 73.8626C152.023 75.7414 137.318 77.4328 132.629 77.4328Z" fill="#2A7EBA"/>
<path fill-rule="evenodd" clip-rule="evenodd" d="M132.629 120.923C137.636 120.923 151.975 122.591 155.926 124.493C158.502 113.406 158.564 112.888 159.485 101.774H132.629V120.923Z" fill="#2A7EBA"/>
<path fill-rule="evenodd" clip-rule="evenodd" d="M161.104 126.116C162.771 126.505 165.509 127.762 167.086 128.553C169.101 129.565 170.896 130.648 172.752 131.633C173.864 129.525 175.411 127.56 176.622 125.453C178.89 121.507 181.254 115.476 182.167 110.893C182.681 108.312 183.43 104.451 183.43 101.774H164.663L163.42 114.482C163.072 116.543 162.75 118.158 162.32 120.195C161.969 121.856 161.104 124.152 161.104 126.116Z" fill="#2A7EBA"/>
<path fill-rule="evenodd" clip-rule="evenodd" d="M76.3276 96.5814H95.4184C95.4184 91.1764 96.8208 77.0736 98.9779 72.5644C97.0589 71.5464 94.9962 70.9014 92.937 69.8605C90.7625 68.7608 89.0212 67.7924 87.0052 66.723C86.7643 67.6279 85.6944 68.814 85.1256 69.7052C79.7909 78.0695 77.2051 86.0075 76.3276 96.5814Z" fill="#2A7EBA"/>
<path fill-rule="evenodd" clip-rule="evenodd" d="M87.0052 131.633C88.9553 130.598 90.6123 129.668 92.7218 128.604C94.8469 127.532 97.0031 126.84 98.9779 125.791C96.7695 121.175 95.4184 106.866 95.4184 101.774H76.3276C76.9945 109.817 79.2111 118.822 83.0573 125.207C83.748 126.353 84.293 127.317 85.0001 128.451C85.5799 129.38 86.7615 130.718 87.0052 131.633Z" fill="#2A7EBA"/>
<path fill-rule="evenodd" clip-rule="evenodd" d="M161.104 72.2401L163.42 83.8733C163.733 85.7356 163.852 87.8294 164.16 89.9462C164.502 92.2991 164.17 94.46 164.663 96.5814H183.43C183.43 89.3251 180.108 79.1785 176.739 73.1092C175.445 70.7774 173.922 68.9399 172.752 66.723C169.587 68.4024 164.835 71.3682 161.104 72.2401Z" fill="#2A7EBA"/>
<path fill-rule="evenodd" clip-rule="evenodd" d="M127.452 151.755V126.116C119.943 126.116 114.593 127.209 108.037 128.713C105.666 129.258 104.024 127.521 108.681 136.506C110.494 140.003 113.481 144.117 116.201 146.812C117.166 147.768 120.143 150.077 121.438 150.648C122.631 151.175 123.593 151.672 124.58 152.046C125.575 152.422 127.452 153.296 127.452 151.755Z" fill="#2A7EBA"/>
<path fill-rule="evenodd" clip-rule="evenodd" d="M127.452 72.2401V46.6005C127.452 43.5686 118.244 49.5625 116.363 51.3807C111.485 56.0985 108.633 61.498 106.01 67.6665C105.302 69.3304 105.462 69.1035 107.5 69.5242C114.688 71.008 118.587 72.2401 127.452 72.2401Z" fill="#2A7EBA"/>
<path fill-rule="evenodd" clip-rule="evenodd" d="M132.629 72.2401C136.659 72.2401 150.866 70.6515 154.308 68.9941L150.862 61.4163C149.086 57.9048 146.418 54.4531 143.713 51.7106C140.735 48.6907 136.975 46.6428 132.629 45.6266V72.2401Z" fill="#2A7EBA"/>
<path fill-rule="evenodd" clip-rule="evenodd" d="M132.629 152.729C135.838 151.979 137.974 151.159 140.305 149.393C149.149 142.691 150.253 137.839 154.308 129.362C150.86 127.701 136.549 126.116 132.629 126.116V152.729Z" fill="#2A7EBA"/>
<path fill-rule="evenodd" clip-rule="evenodd" d="M90.5647 135.527C92.1054 137.835 97.3219 141.983 99.8793 143.711C101.917 145.087 108.992 149.266 111.597 149.483C110.001 147.093 108.228 145.695 105.382 141.112C102.045 135.738 102.556 135.083 100.596 130.984C97.3649 131.739 93.2961 134.078 90.5647 135.527Z" fill="#2A7EBA"/>
<path fill-rule="evenodd" clip-rule="evenodd" d="M90.5647 62.8275C91.3524 63.2464 92.0779 63.5423 92.9334 64.0218C95.3452 65.377 97.5976 66.6715 100.596 67.3716C101.359 65.7757 101.847 64.0025 102.643 62.2854C104.247 58.8272 106.078 56.0701 108.225 52.9546C109.229 51.4974 110.702 50.2112 111.597 48.8726C107.03 49.2538 98.7352 55.5225 94.9541 58.4671C93.5105 59.5907 91.5063 61.4181 90.5647 62.8275Z" fill="#2A7EBA"/>
<path fill-rule="evenodd" clip-rule="evenodd" d="M159.162 67.3716C161.362 67.1879 167.204 63.8831 169.193 62.8275C166.296 58.4882 154.453 50.2672 148.485 48.8726C148.781 49.987 150.551 51.525 151.589 52.8976C152.645 54.2932 153.63 55.9084 154.572 57.3701C155.756 59.2048 158.644 65.14 159.162 67.3716Z" fill="#2A7EBA"/>
<path fill-rule="evenodd" clip-rule="evenodd" d="M148.485 149.483C154.453 148.088 166.296 139.867 169.193 135.527C167.605 134.685 166.301 133.851 164.557 133.037C163.554 132.57 160.079 131.06 159.162 130.984C158.223 135.027 154.241 141.766 151.725 145.269C151.182 146.025 150.689 146.46 150.102 147.211C149.417 148.086 148.768 148.418 148.485 149.483Z" fill="#2A7EBA"/>
</g>
<g clip-path="url(#clip1_1033_1741)">
<path fill-rule="evenodd" clip-rule="evenodd" d="M14.0167 119.241C15.1684 121.432 17.4008 124.958 18.7651 127.434C19.1903 128.218 21.5113 132.011 21.6353 132.457C22.1491 132.421 22.9819 131.815 23.4248 131.548C25.7281 130.141 24.7359 130.302 28.244 131.121C29.2185 131.352 30.2107 131.566 31.3092 131.744C38.2014 132.902 43.623 132.973 50.0368 129.625C54.7497 127.149 60.3308 122.376 64.7602 119.33C67.9317 117.158 68.1975 117.193 67.223 115.555C67.0281 115.234 67.0812 115.323 66.8509 115.056L66.4966 114.664C66.4788 114.646 66.408 114.575 66.3725 114.557C63.6617 112.064 58.8957 114.753 56.6455 116.107C55.671 116.677 54.8383 117.3 53.8993 117.923C53.6335 118.102 53.4918 118.208 53.2437 118.386C53.102 118.493 53.0488 118.511 52.8894 118.636C51.5782 119.633 51.844 121.183 44.9695 122.91C43.5876 123.266 38.3254 124.371 36.9966 124.05V123.427C37.599 123.124 39.9909 122.946 40.8236 122.821C43.5876 122.447 47.893 121.592 50.2849 120.096C50.5861 119.9 50.6392 119.811 51.029 119.598C49.4698 112.883 36.2702 115.288 35.0299 114.789C32.8861 113.916 31.7876 112.687 27.6594 112.687C24.0981 112.687 21.0684 114.522 18.5347 116.125L15.5582 118.191C14.9912 118.6 14.6191 118.903 14.0167 119.241Z" fill="#5CD400"/>
<path fill-rule="evenodd" clip-rule="evenodd" d="M43.6407 89.3202L43.7647 92.1699C43.747 92.5083 42.4714 94.7702 42.1347 95.2332C42.0638 95.3579 41.993 95.4291 41.9221 95.5004C41.6563 94.3249 42.9497 89.9436 38.981 84.6005C38.1482 83.4607 37.2269 82.5702 36.2347 81.555C35.7741 81.0919 33.6302 78.9369 32.9392 78.9369C32.0888 78.9369 32.0888 79.7027 32.0711 80.0411C31.9116 83.336 31.9116 85.3842 32.9215 88.4654C34.959 94.6099 39.7783 95.7319 40.3452 96.2128C40.5401 96.3731 40.9831 97.1924 41.0185 97.3883C41.1071 97.7267 41.0539 98.9021 41.0539 99.3296C41.0539 100.612 41.0539 101.894 41.0539 103.159C40.7173 102.927 39.4948 101.716 39.1759 101.342C38.8392 100.932 38.8569 100.505 38.7329 99.9529C37.4041 94.3783 34.1617 91.3328 29.0591 88.7859C25.9053 87.2186 24.8068 86.5597 26.1356 91.2259C27.3227 95.4113 29.1122 98.6706 32.8152 100.826C33.9314 101.467 36.1107 102.304 37.8647 102.304C38.5026 103.515 41.0539 105.26 41.0539 105.884V110.087C38.5203 110.087 34.6047 112.367 34.3035 113.542C35.5792 113.845 33.896 114.041 36.9966 114.041C40.6996 114.041 44.3317 113.702 47.7512 115.092C48.4422 115.377 48.5308 115.644 49.0801 115.323C49.4698 115.074 50.0191 114.646 50.4089 114.539C50.0014 113.008 46.0149 110.087 42.8966 110.087V100.683C42.8966 100.291 43.6053 100.095 44.4026 99.5967C45.4834 98.9199 45.253 99.3296 46.5996 99.3296C52.3933 99.3296 55.1927 97.0677 58.4882 93.7372L59.9056 92.2055C60.5611 91.4218 61.2344 91.0122 61.2344 90.2998C61.2344 89.2668 59.8879 89.3202 58.3996 89.3202C45.9086 89.3202 45.005 97.0321 43.9065 97.8513C43.6053 98.0651 43.2332 98.2432 42.8966 98.4747C42.8966 96.7293 43.056 97.2636 44.1014 95.3401C46.1744 91.4753 45.2176 94.0934 49.7533 90.2642C50.2317 89.8724 50.4089 89.5518 50.7987 89.1065C53.3146 86.2747 54.3245 81.9112 55.0155 78.1176C55.1572 77.423 54.8383 76.8353 54.2182 76.8353C52.9425 76.8353 48.6725 80.0055 47.3083 81.3769C45.2707 83.4073 43.6407 86.3103 43.6407 89.3202Z" fill="#5CD400"/>
<path fill-rule="evenodd" clip-rule="evenodd" d="M4.78589 122.198C4.78589 122.839 6.16787 124.941 6.61081 125.689C6.84114 126.08 7.03604 126.383 7.24865 126.775L13.4676 137.461C14.9381 139.919 14.2649 140.026 18.1273 137.711C22.0429 135.342 22.6276 135.573 21.5468 133.775L16.6036 125.279C16.2847 124.745 16.0012 124.282 15.7 123.73L12.564 118.333C11.9084 117.318 10.9339 118.191 9.90631 118.814C9.25075 119.188 8.71922 119.491 8.11682 119.865C7.35496 120.328 4.78589 121.61 4.78589 122.198Z" fill="#5CD400"/>
<path fill-rule="evenodd" clip-rule="evenodd" d="M49.5408 115.893C49.6648 116.338 49.7357 116.249 50.0546 116.499C50.3204 116.712 50.4621 116.855 50.657 117.122C51.0113 117.603 51.348 118.048 51.5074 118.743C52.039 118.6 51.6137 118.6 52.3933 118.012C52.73 117.763 52.978 117.603 53.3324 117.354L57.2125 114.842C57.7795 114.504 58.9489 114.094 59.2678 113.667C56.9113 112.42 55.2636 112.83 52.7831 114.076L49.5408 115.893Z" fill="#5CD400"/>
<path d="M34.515 83.013C35.0942 85.4584 37.5266 91.5846 41.851 96.5268V111.585V104.635C40.9501 103.927 38.9552 102.318 38.183 101.546C37.2178 100.581 30.6539 94.9824 28.3373 91.3143" stroke="white" stroke-width="0.2" stroke-linecap="round"/>
<path d="M52.276 80.6964C50.4098 83.3348 46.4458 89.0749 45.5191 90.9282L41.8511 96.5268V99.7649M41.8511 99.7649L44.573 98.3512L44.7469 98.2643M41.8511 99.7649V111.52M44.7469 98.2643C47.7714 96.3337 54.7085 92.2796 58.2606 91.5074C54.7857 92.2628 45.6735 97.3376 44.7469 98.2643Z" stroke="white" stroke-width="0.2" stroke-linecap="round"/>
</g>
<defs>
<clipPath id="clip0_1033_1741">
<rect width="107.102" height="107.102" fill="white" transform="translate(76.3276 45.6266)"/>
</clipPath>
<clipPath id="clip1_1033_1741">
<rect width="62.9355" height="62.5494" fill="white" transform="translate(4.78467 76.8353)"/>
</clipPath>
</defs>
</svg>
