<svg width="25" height="24" viewBox="0 0 25 24" fill="none" xmlns="http://www.w3.org/2000/svg">
<path fill-rule="evenodd" clip-rule="evenodd" d="M5.04527 12.4713C4.89613 8.39431 8.07352 4.9653 12.1496 4.80432C16.2257 4.9653 19.4031 8.39431 19.254 12.4713C19.254 14.1646 21.0936 15.8142 21.1476 17.5114C21.1476 17.5354 21.1476 17.5594 21.1476 17.5834C21.1874 18.6708 20.3398 19.5852 19.2526 19.6277H15.149C15.1528 20.4609 14.8387 21.2642 14.2709 21.874C13.7249 22.4669 12.9556 22.8043 12.1496 22.8043C11.3435 22.8043 10.5744 22.4669 10.0284 21.874C9.46047 21.2642 9.14645 20.4609 9.15026 19.6277H5.04527C3.95813 19.5852 3.11046 18.6708 3.15027 17.5834C3.15027 17.5594 3.15027 17.5354 3.15027 17.5114C3.20556 15.8194 5.04527 14.1659 5.04527 12.4713Z" stroke="#AFC0D7" stroke-width="1.5" stroke-linecap="round" stroke-linejoin="round"/>
<path d="M9.14076 18.8082C8.59299 18.8082 8.14893 19.255 8.14893 19.8063C8.14893 20.3575 8.59299 20.8043 9.14076 20.8043V18.8082ZM15.1571 20.8043C15.7048 20.8043 16.1489 20.3575 16.1489 19.8063C16.1489 19.255 15.7048 18.8082 15.1571 18.8082V20.8043ZM13.4383 2.80046C13.9861 2.80046 14.4301 2.35361 14.4301 1.80239C14.4301 1.25118 13.9861 0.804321 13.4383 0.804321V2.80046ZM10.8595 0.804321C10.3118 0.804321 9.86769 1.25118 9.86769 1.80239C9.86769 2.35361 10.3118 2.80046 10.8595 2.80046V0.804321ZM9.14076 20.8043H15.1571V18.8082H9.14076V20.8043ZM13.4383 0.804321H10.8595V2.80046H13.4383V0.804321Z" fill="#AFC0D7"/>
</svg>
