<svg width="276" height="276" viewBox="0 0 276 276" fill="none" xmlns="http://www.w3.org/2000/svg">
<path opacity="0.1" d="M129.781 83.9517C118.13 90.7276 104.955 93.8753 92.0526 96.3698C79.1502 98.8642 66.0733 100.863 53.6027 105.729C45.5813 108.858 37.2717 113.811 33.9159 121.271C30.6912 128.462 32.9027 135.958 35.6583 142.479C37.7312 147.385 40.2507 152.337 44.8582 155.254C48.0584 157.279 52.0363 158.169 55.4753 159.874C67.4343 165.806 70.7425 180.315 70.2734 193.746C70.055 200.044 69.2274 206.45 69.8668 212.599C70.5063 218.749 72.8313 224.82 77.8762 228.349C82.8725 231.845 89.8947 232.404 96.6524 231.657C110.376 230.144 123.679 223.813 136.289 217.039C164.189 202.045 190.581 184.343 216.901 166.682C226.644 160.147 236.424 153.581 245.223 145.906C250.109 141.641 254.856 136.77 256.74 131.028C259.129 123.74 255.953 115.941 249.336 112.852C238.231 107.663 221.345 115.261 211.531 108.378C206.132 104.585 204.741 97.4552 204.88 90.7027C205.173 76.2178 210.81 60.1269 204.038 48.0421C199.388 39.7414 188.894 35.0984 178.106 36.5698C166.802 38.1144 154.915 46.2866 152.582 56.9709C150.167 67.9692 140.071 77.9718 129.781 83.9517Z" fill="#19884A"/>
<path d="M276 211.085H0V211.223H276V211.085Z" fill="#EBEBEB"/>
<path d="M248.345 219.967H230.062V220.105H248.345V219.967Z" fill="#EBEBEB"/>
<path d="M166.395 220.038H161.598V220.176H166.395V220.038Z" fill="#EBEBEB"/>
<path d="M229.505 214.844H195.59V214.982H229.505V214.844Z" fill="#EBEBEB"/>
<path d="M124.276 218.101H117.271V218.239H124.276V218.101Z" fill="#EBEBEB"/>
<path d="M112.359 218.101H92.0293V218.239H112.359V218.101Z" fill="#EBEBEB"/>
<path d="M42.9944 215.771H28.957V215.909H42.9944V215.771Z" fill="#EBEBEB"/>
<path d="M87.6459 215.771H46.3066V215.909H87.6459V215.771Z" fill="#EBEBEB"/>
<path d="M130.824 186.466H24.2382C23.4032 186.464 22.6029 186.132 22.013 185.541C21.4231 184.95 21.0918 184.149 21.0918 183.314V33.4844C21.0991 32.6542 21.4336 31.8604 22.0227 31.2754C22.6118 30.6905 23.408 30.3615 24.2382 30.3601H130.824C131.66 30.3601 132.462 30.6922 133.053 31.2833C133.644 31.8744 133.976 32.6761 133.976 33.512V183.314C133.976 184.15 133.644 184.951 133.053 185.543C132.462 186.134 131.66 186.466 130.824 186.466ZM24.2382 30.4705C23.4398 30.472 22.6746 30.7902 22.1106 31.3552C21.5466 31.9203 21.2298 32.686 21.2298 33.4844V183.314C21.2298 184.112 21.5466 184.878 22.1106 185.443C22.6746 186.008 23.4398 186.326 24.2382 186.328H130.824C131.623 186.326 132.389 186.008 132.953 185.443C133.518 184.878 133.836 184.113 133.838 183.314V33.4844C133.836 32.6855 133.518 31.9198 132.953 31.3549C132.389 30.79 131.623 30.472 130.824 30.4705H24.2382Z" fill="#EBEBEB"/>
<path d="M250.227 186.466H143.636C142.801 186.464 142 186.132 141.409 185.541C140.818 184.95 140.486 184.149 140.484 183.314V33.4844C140.493 32.6537 140.829 31.8599 141.419 31.2751C142.009 30.6903 142.806 30.3615 143.636 30.3601H250.227C251.057 30.363 251.851 30.6925 252.439 31.2774C253.027 31.8622 253.361 32.6552 253.368 33.4844V183.314C253.368 184.148 253.038 184.948 252.449 185.539C251.86 186.129 251.062 186.463 250.227 186.466ZM143.636 30.4705C142.837 30.472 142.072 30.79 141.507 31.3549C140.942 31.9198 140.624 32.6855 140.622 33.4844V183.314C140.624 184.113 140.942 184.878 141.507 185.443C142.072 186.008 142.837 186.326 143.636 186.328H250.227C251.026 186.326 251.792 186.008 252.357 185.443C252.922 184.878 253.24 184.113 253.241 183.314V33.4844C253.24 32.6855 252.922 31.9198 252.357 31.3549C251.792 30.79 251.026 30.472 250.227 30.4705H143.636Z" fill="#EBEBEB"/>
<path d="M105.311 137.73L239.469 137.73V39.7332L105.311 39.7332V137.73Z" fill="#E6E6E6"/>
<path opacity="0.7" d="M99.3817 137.73L238.094 137.73V39.7332L99.3817 39.7332V137.73Z" fill="#F0F0F0"/>
<path opacity="0.7" d="M229.787 129.428V48.0352L107.679 48.0352V129.428H229.787Z" fill="#FAFAFA"/>
<path d="M200.106 129.422L172.307 48.0352H145.762L173.56 129.422H200.106Z" fill="white"/>
<path d="M167.858 129.422L140.059 48.0352H129.715L157.514 129.422H167.858Z" fill="white"/>
<path d="M108.738 129.428V48.0352H107.684V129.428H108.738Z" fill="#E6E6E6"/>
<path d="M35.643 111.073H83.0156L83.0156 43.9116H35.643L35.643 111.073Z" fill="#E0E0E0"/>
<path d="M32.2912 111.073H81.1211L81.1211 43.9116H32.2912L32.2912 111.073Z" fill="#F5F5F5"/>
<path d="M76.3027 105.774V49.2H37.1107V105.774H76.3027Z" fill="white"/>
<path d="M54.0582 158.093C57.5744 149.416 65.9372 146.186 68.8297 140.705C72.6109 133.529 72.5888 122.759 69.3817 118.879C66.5776 115.501 57.304 138.331 56.2607 140.882C53.3984 147.764 51.6076 155.045 50.9504 162.47C51.0277 157.11 51.0995 152.187 51.1602 148.389C51.3589 136.002 51.6018 132.017 51.7122 130.791C52.0986 130.189 52.5568 129.494 52.8162 129.135C55.0628 125.972 60.0419 122.202 62.5314 117.604C66.1636 110.886 65.5784 102.849 63.0282 99.857C60.362 96.7272 55.6535 104.124 53.1529 111.449C50.6524 118.774 51.7177 125.801 51.0167 131.873C50.8732 133.065 50.7186 137.597 50.5806 143.89C49.8188 137.123 48.3064 132.591 45.5077 128.362C42.0632 123.168 39.088 116.842 36.2507 117.659C33.4134 118.476 34.9369 126.85 37.1836 132.723C39.1928 137.956 49.046 143.178 50.4978 147.384C50.3267 155.907 50.1721 166.704 50.0672 176.767C49.2889 171.573 49.8244 171.137 46.6338 163.182C44.7404 158.457 36.9848 152.628 36.0464 155.874C35.108 159.12 36.5267 165.258 39.4578 169.564C41.8259 173.03 47.0754 173.025 48.2898 175.177C48.5713 175.68 49.5097 177.606 50.0452 178.71C49.9182 190.987 49.863 201.828 49.9237 205.521L50.4316 205.559C50.4316 204.605 50.4702 198.383 50.5696 190.104C51.8447 185.688 60.4283 183.143 63.0779 178.567C65.8379 173.781 67.8472 168.195 66.6548 164.458C65.6612 161.339 57.8228 165.562 54.6709 170.745C52.5568 174.189 51.2651 177.86 50.6634 182.795C50.7352 177.165 50.818 171.115 50.8952 165.407C51.5411 163.972 52.9928 160.693 54.0582 158.093Z" fill="#E6E6E6"/>
<path d="M59.0978 211.085H41.0584C40.5817 211.084 40.1198 210.919 39.7507 210.618C39.3816 210.316 39.1279 209.896 39.0326 209.429L37.752 203.136H62.4098L61.1292 209.446C61.0284 209.91 60.772 210.325 60.4025 210.623C60.033 210.922 59.5726 211.085 59.0978 211.085Z" fill="#F0F0F0"/>
<path d="M62.9289 205.559H37.2333C36.9357 205.559 36.6487 205.449 36.4269 205.25C36.205 205.052 36.0638 204.779 36.03 204.483L35.478 199.819C35.4594 199.649 35.4766 199.478 35.5286 199.316C35.5805 199.153 35.666 199.004 35.7795 198.877C35.893 198.75 36.0319 198.648 36.1873 198.578C36.3427 198.509 36.511 198.472 36.6813 198.472H63.4202C63.5908 198.471 63.7595 198.507 63.9153 198.577C64.0711 198.646 64.2104 198.748 64.3241 198.875C64.4377 199.002 64.5232 199.152 64.5748 199.315C64.6264 199.477 64.643 199.649 64.6236 199.819L64.0716 204.483C64.0393 204.769 63.9068 205.034 63.6975 205.231C63.4883 205.428 63.216 205.544 62.9289 205.559Z" fill="#F0F0F0"/>
<path d="M223.907 207.061H229.422V147.726H223.907V207.061Z" fill="#F0F0F0"/>
<path d="M111.538 211.013H227.309V207.061H111.538V211.013Z" fill="#F0F0F0"/>
<path d="M223.914 147.726H109.424V207.061H223.914V147.726Z" fill="#F5F5F5"/>
<path d="M225.21 147.726H230.906V143.984H225.21V147.726Z" fill="#E0E0E0"/>
<path d="M225.21 143.984H107.938V147.726H225.21V143.984Z" fill="#EBEBEB"/>
<path d="M215.694 173.328H117.637C116.466 173.328 115.342 172.863 114.514 172.035C113.686 171.206 113.221 170.083 113.221 168.912V156.216C113.221 155.045 113.686 153.922 114.514 153.093C115.342 152.265 116.466 151.8 117.637 151.8H215.694C216.865 151.8 217.988 152.265 218.817 153.093C219.645 153.922 220.11 155.045 220.11 156.216V168.912C220.11 170.083 219.645 171.206 218.817 172.035C217.988 172.863 216.865 173.328 215.694 173.328ZM117.637 152.904C116.758 152.904 115.916 153.253 115.295 153.874C114.674 154.495 114.325 155.338 114.325 156.216V168.912C114.325 169.79 114.674 170.633 115.295 171.254C115.916 171.875 116.758 172.224 117.637 172.224H215.694C216.572 172.224 217.415 171.875 218.036 171.254C218.657 170.633 219.006 169.79 219.006 168.912V156.216C219.006 155.338 218.657 154.495 218.036 153.874C217.415 153.253 216.572 152.904 215.694 152.904H117.637Z" fill="white"/>
<path d="M215.694 199.929H117.637C116.466 199.929 115.342 199.464 114.514 198.635C113.686 197.807 113.221 196.684 113.221 195.513V182.817C113.221 181.646 113.686 180.522 114.514 179.694C115.342 178.866 116.466 178.401 117.637 178.401H215.694C216.865 178.401 217.988 178.866 218.817 179.694C219.645 180.522 220.11 181.646 220.11 182.817V195.513C220.11 196.684 219.645 197.807 218.817 198.635C217.988 199.464 216.865 199.929 215.694 199.929ZM117.637 179.461C116.758 179.461 115.916 179.81 115.295 180.431C114.674 181.052 114.325 181.894 114.325 182.773V195.469C114.325 196.347 114.674 197.19 115.295 197.811C115.916 198.432 116.758 198.781 117.637 198.781H215.694C216.572 198.781 217.415 198.432 218.036 197.811C218.657 197.19 219.006 196.347 219.006 195.469V182.773C219.006 181.894 218.657 181.052 218.036 180.431C217.415 179.81 216.572 179.461 215.694 179.461H117.637Z" fill="white"/>
<path d="M193.41 164.496H139.922C139.542 164.496 139.178 164.346 138.909 164.078C138.64 163.81 138.488 163.446 138.486 163.066V162.018C138.488 161.638 138.64 161.274 138.909 161.006C139.178 160.738 139.542 160.588 139.922 160.588H193.41C193.79 160.588 194.154 160.738 194.423 161.006C194.692 161.274 194.844 161.638 194.846 162.018V163.066C194.844 163.446 194.692 163.81 194.423 164.078C194.154 164.346 193.79 164.496 193.41 164.496ZM139.922 161.736C139.835 161.737 139.752 161.772 139.691 161.833C139.629 161.893 139.593 161.975 139.59 162.062V163.111C139.593 163.197 139.629 163.279 139.691 163.34C139.752 163.4 139.835 163.435 139.922 163.436H193.41C193.497 163.436 193.581 163.402 193.643 163.341C193.705 163.28 193.74 163.197 193.742 163.111V162.062C193.74 161.975 193.705 161.892 193.643 161.831C193.581 161.77 193.497 161.736 193.41 161.736H139.922Z" fill="white"/>
<path d="M193.41 191.097H139.922C139.542 191.097 139.178 190.946 138.909 190.678C138.64 190.411 138.488 190.047 138.486 189.667V188.618C138.488 188.239 138.64 187.875 138.909 187.607C139.178 187.339 139.542 187.189 139.922 187.189H193.41C193.79 187.189 194.154 187.339 194.423 187.607C194.692 187.875 194.844 188.239 194.846 188.618V189.667C194.844 190.047 194.692 190.411 194.423 190.678C194.154 190.946 193.79 191.097 193.41 191.097ZM139.922 188.293C139.835 188.294 139.752 188.329 139.691 188.389C139.629 188.45 139.593 188.532 139.59 188.618V189.667C139.593 189.754 139.629 189.836 139.691 189.896C139.752 189.957 139.835 189.992 139.922 189.993H193.41C193.497 189.993 193.581 189.959 193.643 189.898C193.705 189.837 193.74 189.754 193.742 189.667V188.618C193.74 188.532 193.705 188.449 193.643 188.388C193.581 188.327 193.497 188.293 193.41 188.293H139.922Z" fill="white"/>
<path d="M143.724 210.571C145.191 206.958 148.679 205.613 149.886 203.331C151.463 200.343 151.454 195.858 150.116 194.242C148.946 192.836 145.078 202.342 144.642 203.404C143.448 206.27 142.701 209.302 142.427 212.394C142.459 210.162 142.489 208.112 142.515 206.53C142.598 201.372 142.699 199.713 142.745 199.203C142.906 198.952 143.097 198.662 143.206 198.513C144.143 197.196 146.22 195.626 147.258 193.711C148.774 190.914 148.529 187.567 147.466 186.322C146.353 185.018 144.389 188.098 143.346 191.149C142.303 194.199 142.747 197.125 142.455 199.653C142.395 200.15 142.331 202.037 142.273 204.657C141.955 201.839 141.324 199.952 140.157 198.191C138.72 196.028 137.479 193.394 136.295 193.734C135.112 194.075 135.747 197.561 136.684 200.007C137.522 202.186 141.633 204.36 142.238 206.112C142.167 209.661 142.103 214.157 142.059 218.347C141.734 216.184 141.958 216.002 140.627 212.69C139.837 210.723 136.601 208.295 136.21 209.647C135.818 210.998 136.41 213.554 137.633 215.347C138.621 216.791 140.811 216.788 141.317 217.685C141.435 217.894 141.826 218.696 142.05 219.156C141.997 224.268 141.974 228.782 141.999 230.32L142.211 230.336C142.211 229.938 142.227 227.348 142.268 223.9C142.8 222.061 146.381 221.002 147.486 219.096C148.638 217.103 149.476 214.777 148.978 213.221C148.564 211.922 145.294 213.681 143.979 215.839C143.097 217.273 142.559 218.802 142.308 220.857C142.337 218.512 142.372 215.993 142.404 213.616C142.674 213.019 143.279 211.654 143.724 210.571Z" fill="#006837"/>
<path d="M135.24 236.013C194.35 236.013 242.267 233.216 242.267 229.764C242.267 226.313 194.35 223.516 135.24 223.516C76.1306 223.516 28.2129 226.313 28.2129 229.764C28.2129 233.216 76.1306 236.013 135.24 236.013Z" fill="#F5F5F5"/>
<path d="M180.785 102.512H108.462C105.047 102.512 102.279 105.28 102.279 108.694V154.24C102.279 157.654 105.047 160.422 108.462 160.422H180.785C184.199 160.422 186.967 157.654 186.967 154.24V108.694C186.967 105.28 184.199 102.512 180.785 102.512Z" fill="#006837"/>
<path d="M100.304 101.844C100.159 101.843 100.02 101.786 99.9177 101.684L98.9241 100.696C98.8201 100.592 98.7617 100.451 98.7617 100.304C98.7617 100.157 98.8201 100.016 98.9241 99.9121C99.028 99.8082 99.169 99.7498 99.316 99.7498C99.463 99.7498 99.604 99.8082 99.7079 99.9121L100.696 100.906C100.799 101.009 100.856 101.149 100.856 101.295C100.856 101.441 100.799 101.581 100.696 101.684C100.644 101.735 100.583 101.776 100.516 101.803C100.449 101.831 100.377 101.845 100.304 101.844Z" fill="#006837"/>
<path d="M98.8079 105.311H97.4114C97.265 105.311 97.1246 105.252 97.0211 105.149C96.9175 105.045 96.8594 104.905 96.8594 104.759C96.8594 104.612 96.9175 104.472 97.0211 104.368C97.1246 104.265 97.265 104.207 97.4114 104.207H98.8079C98.9543 104.207 99.0947 104.265 99.1983 104.368C99.3018 104.472 99.3599 104.612 99.3599 104.759C99.3599 104.905 99.3018 105.045 99.1983 105.149C99.0947 105.252 98.9543 105.311 98.8079 105.311Z" fill="#006837"/>
<path d="M103.821 100.354C103.681 100.354 103.546 100.301 103.443 100.206C103.341 100.111 103.279 99.9799 103.269 99.8403L103.169 98.4438C103.164 98.3712 103.173 98.2984 103.196 98.2294C103.219 98.1604 103.256 98.0966 103.303 98.0418C103.351 97.9869 103.409 97.942 103.474 97.9096C103.539 97.8772 103.61 97.858 103.683 97.8531C103.828 97.844 103.972 97.8929 104.081 97.9891C104.191 98.0853 104.258 98.221 104.268 98.3665L104.373 99.763C104.378 99.8356 104.369 99.9084 104.346 99.9774C104.323 100.046 104.287 100.11 104.239 100.165C104.191 100.22 104.133 100.265 104.068 100.297C104.003 100.33 103.932 100.349 103.859 100.354H103.821Z" fill="#006837"/>
<path d="M150.801 154.466L173.008 176.668V154.466H150.801Z" fill="#006837"/>
<path d="M156.89 144.74L155.786 140.054C155.507 138.822 155.507 137.543 155.786 136.311L157.321 129.637C157.948 126.791 157.608 123.817 156.355 121.187C155.101 118.556 153.005 116.419 150.398 115.114C150.447 114.991 150.49 114.866 150.525 114.739C150.616 114.334 150.626 113.915 150.555 113.507C150.484 113.098 150.333 112.707 150.11 112.357C149.888 112.006 149.599 111.703 149.26 111.465C148.92 111.226 148.537 111.057 148.132 110.966C147.728 110.875 147.309 110.865 146.9 110.937C146.491 111.008 146.101 111.159 145.75 111.381C145.4 111.603 145.097 111.892 144.858 112.232C144.62 112.571 144.45 112.954 144.36 113.359C144.332 113.488 144.316 113.619 144.31 113.751C141.397 113.819 138.589 114.857 136.333 116.701C134.076 118.545 132.499 121.089 131.851 123.93L130.355 130.609C130.081 131.839 129.534 132.991 128.755 133.982L125.779 137.763C125.488 138.134 125.296 138.572 125.22 139.038C125.144 139.503 125.187 139.98 125.345 140.424C125.504 140.868 125.772 141.265 126.124 141.577C126.477 141.89 126.904 142.108 127.363 142.212L153.583 148.085C154.042 148.184 154.518 148.166 154.967 148.032C155.417 147.899 155.825 147.654 156.155 147.32C156.485 146.987 156.725 146.575 156.853 146.124C156.982 145.673 156.994 145.197 156.89 144.74Z" fill="white"/>
<path d="M137.09 146.186C136.89 146.142 136.683 146.148 136.486 146.203C136.29 146.258 136.11 146.361 135.962 146.503C135.815 146.644 135.705 146.82 135.641 147.014C135.578 147.208 135.563 147.415 135.599 147.616C135.75 148.503 136.161 149.325 136.78 149.977C137.4 150.63 138.199 151.083 139.077 151.28C139.955 151.476 140.872 151.407 141.71 151.081C142.549 150.755 143.271 150.187 143.785 149.448C143.903 149.282 143.978 149.089 144.003 148.887C144.029 148.685 144.004 148.48 143.931 148.29C143.859 148.099 143.741 147.93 143.587 147.796C143.434 147.662 143.25 147.568 143.051 147.522L137.09 146.186Z" fill="white"/>
<path d="M116.953 136.896C116.816 136.897 116.681 136.864 116.561 136.799C116.44 136.735 116.338 136.641 116.263 136.526C113.656 132.62 112.707 127.839 113.625 123.233C114.543 118.628 117.253 114.575 121.159 111.968C121.342 111.846 121.566 111.803 121.781 111.846C121.996 111.889 122.186 112.017 122.307 112.2C122.429 112.383 122.473 112.606 122.429 112.822C122.386 113.037 122.258 113.226 122.075 113.348C118.54 115.716 116.088 119.391 115.26 123.565C114.432 127.739 115.295 132.072 117.659 135.61C117.781 135.792 117.826 136.016 117.784 136.231C117.741 136.446 117.615 136.636 117.433 136.758C117.291 136.852 117.123 136.9 116.953 136.896Z" fill="white"/>
<path d="M120.458 134.545C120.323 134.544 120.189 134.51 120.07 134.445C119.951 134.381 119.849 134.288 119.774 134.175C117.789 131.199 117.067 127.558 117.766 124.05C118.465 120.542 120.527 117.456 123.5 115.467C123.59 115.407 123.692 115.365 123.799 115.344C123.906 115.322 124.016 115.322 124.123 115.344C124.23 115.365 124.331 115.407 124.422 115.468C124.512 115.528 124.59 115.606 124.651 115.697C124.711 115.787 124.753 115.889 124.775 115.996C124.796 116.103 124.796 116.213 124.775 116.319C124.753 116.426 124.711 116.528 124.651 116.619C124.59 116.709 124.512 116.787 124.422 116.847C121.812 118.589 120.001 121.296 119.387 124.372C118.774 127.449 119.407 130.643 121.148 133.253C121.27 133.435 121.315 133.658 121.273 133.874C121.23 134.089 121.104 134.279 120.922 134.401C120.785 134.493 120.624 134.543 120.458 134.545Z" fill="white"/>
<path d="M123.969 132.199C123.834 132.199 123.7 132.166 123.581 132.103C123.461 132.039 123.359 131.947 123.284 131.834C122.608 130.822 122.138 129.685 121.901 128.491C121.665 127.296 121.666 126.067 121.905 124.873C122.144 123.679 122.616 122.543 123.294 121.532C123.972 120.52 124.843 119.653 125.857 118.978C126.039 118.865 126.258 118.827 126.468 118.872C126.678 118.917 126.862 119.042 126.981 119.22C127.101 119.399 127.146 119.616 127.109 119.827C127.071 120.039 126.952 120.227 126.779 120.353C125.947 120.908 125.233 121.621 124.677 122.453C124.121 123.284 123.735 124.216 123.539 125.197C123.344 126.177 123.344 127.187 123.539 128.168C123.734 129.148 124.12 130.081 124.675 130.912C124.796 131.095 124.84 131.318 124.798 131.533C124.755 131.748 124.63 131.937 124.449 132.061C124.307 132.154 124.139 132.202 123.969 132.199Z" fill="white"/>
<path d="M164.689 148.538C164.504 148.537 164.324 148.475 164.179 148.36C164.034 148.246 163.931 148.086 163.887 147.906C163.843 147.726 163.861 147.537 163.937 147.368C164.014 147.199 164.144 147.061 164.308 146.976C168.09 145.022 170.942 141.646 172.235 137.59C173.529 133.535 173.16 129.131 171.208 125.348C171.149 125.251 171.11 125.143 171.095 125.03C171.079 124.917 171.087 124.803 171.118 124.693C171.149 124.583 171.202 124.481 171.273 124.393C171.345 124.305 171.435 124.233 171.536 124.181C171.637 124.128 171.748 124.098 171.861 124.09C171.975 124.083 172.089 124.099 172.196 124.138C172.303 124.176 172.401 124.237 172.484 124.315C172.566 124.393 172.632 124.487 172.677 124.592C173.743 126.659 174.391 128.916 174.585 131.234C174.778 133.552 174.513 135.886 173.805 138.101C173.096 140.316 171.958 142.371 170.456 144.146C168.953 145.922 167.116 147.384 165.048 148.449C164.936 148.504 164.814 148.534 164.689 148.538Z" fill="white"/>
<path d="M162.752 144.79C162.567 144.789 162.387 144.727 162.242 144.612C162.096 144.498 161.993 144.338 161.949 144.158C161.905 143.978 161.923 143.789 162 143.62C162.076 143.451 162.207 143.313 162.371 143.228C163.752 142.515 164.98 141.538 165.983 140.351C166.986 139.164 167.746 137.791 168.218 136.311C168.69 134.83 168.866 133.271 168.735 131.722C168.604 130.174 168.169 128.666 167.455 127.286C167.354 127.09 167.335 126.863 167.401 126.653C167.468 126.444 167.615 126.269 167.811 126.168C168.006 126.067 168.234 126.048 168.444 126.115C168.653 126.181 168.828 126.329 168.929 126.524C169.742 128.098 170.238 129.816 170.387 131.581C170.536 133.346 170.335 135.124 169.797 136.811C169.259 138.499 168.393 140.064 167.25 141.417C166.106 142.77 164.707 143.884 163.133 144.696C163.016 144.759 162.885 144.791 162.752 144.79Z" fill="white"/>
<path d="M160.814 141.042C160.63 141.039 160.451 140.975 160.307 140.859C160.163 140.744 160.061 140.584 160.018 140.405C159.974 140.226 159.991 140.037 160.066 139.869C160.142 139.7 160.271 139.561 160.433 139.474C161.322 139.017 162.112 138.389 162.757 137.626C163.403 136.863 163.892 135.98 164.196 135.028C164.5 134.075 164.613 133.073 164.529 132.077C164.445 131.081 164.166 130.111 163.707 129.223C163.606 129.028 163.586 128.8 163.653 128.591C163.72 128.381 163.867 128.207 164.063 128.106C164.258 128.005 164.486 127.985 164.695 128.052C164.905 128.119 165.079 128.266 165.18 128.462C166.304 130.648 166.514 133.19 165.765 135.531C165.015 137.872 163.368 139.82 161.184 140.948C161.069 141.007 160.943 141.039 160.814 141.042Z" fill="white"/>
<path d="M112.255 69.4691H108.038C107.929 69.4719 107.824 69.5133 107.742 69.5861C107.66 69.6588 107.607 69.7582 107.591 69.8665L106.708 78.279C106.702 78.3297 106.706 78.3812 106.721 78.4299C106.737 78.4787 106.762 78.5236 106.796 78.5618C106.83 78.5999 106.872 78.6304 106.918 78.6511C106.965 78.6718 107.016 78.6824 107.067 78.682H111.284C111.394 78.679 111.5 78.6368 111.582 78.5629C111.664 78.489 111.717 78.3884 111.731 78.279L112.614 69.8665C112.621 69.8161 112.616 69.7649 112.601 69.7164C112.586 69.6679 112.56 69.6233 112.526 69.5855C112.492 69.5478 112.45 69.5179 112.403 69.4978C112.357 69.4777 112.306 69.4679 112.255 69.4691Z" fill="#006837"/>
<path opacity="0.4" d="M111.875 69.4693H108.038C107.929 69.472 107.824 69.5135 107.742 69.5862C107.66 69.659 107.607 69.7583 107.591 69.8667L106.708 78.2792C106.702 78.3299 106.706 78.3813 106.721 78.4301C106.737 78.4788 106.762 78.5238 106.796 78.5619C106.83 78.6001 106.872 78.6306 106.918 78.6513C106.965 78.672 107.016 78.6825 107.067 78.6821H110.931C111.04 78.679 111.145 78.6366 111.226 78.5626C111.307 78.4887 111.359 78.3881 111.372 78.2792L112.255 69.8667C112.263 69.8141 112.259 69.7604 112.243 69.7098C112.227 69.6591 112.199 69.6128 112.163 69.5744C112.126 69.536 112.081 69.5066 112.031 69.4884C111.981 69.4701 111.927 69.4636 111.875 69.4693Z" fill="white"/>
<path d="M91.1191 225.023C91.6711 225.023 92.223 224.94 92.4162 224.686C92.4632 224.618 92.4884 224.537 92.4884 224.454C92.4884 224.371 92.4632 224.29 92.4162 224.222C92.3358 224.099 92.2116 224.01 92.0685 223.974C91.3178 223.77 89.7943 224.664 89.728 224.703C89.7108 224.713 89.6973 224.729 89.6894 224.748C89.6815 224.767 89.6796 224.788 89.6838 224.807C89.6879 224.829 89.6986 224.849 89.7143 224.865C89.7301 224.881 89.7503 224.892 89.7722 224.896C90.2168 224.976 90.6673 225.018 91.1191 225.023ZM91.7925 224.156C91.8603 224.147 91.9289 224.147 91.9967 224.156C92.0845 224.177 92.1612 224.23 92.212 224.305C92.2893 224.438 92.2672 224.504 92.212 224.537C92.0188 224.829 90.8872 224.835 90.0537 224.719C90.589 224.415 91.1807 224.224 91.7925 224.156Z" fill="#006837"/>
<path d="M89.7609 224.896H89.805C90.357 224.653 91.3617 223.687 91.2568 223.179C91.2568 223.063 91.1409 222.914 90.8483 222.886C90.7448 222.875 90.64 222.885 90.5403 222.915C90.4407 222.946 90.3483 222.996 90.2687 223.063C89.7167 223.532 89.656 224.719 89.6505 224.785C89.6498 224.805 89.6539 224.824 89.6626 224.841C89.6713 224.859 89.6842 224.874 89.7001 224.885C89.7189 224.894 89.74 224.898 89.7609 224.896ZM90.7765 223.085H90.8373C91.0305 223.085 91.047 223.179 91.047 223.201C91.1133 223.505 90.4177 224.266 89.8823 224.598C89.9161 224.091 90.1093 223.608 90.4343 223.218C90.5299 223.136 90.6507 223.089 90.7765 223.085Z" fill="#006837"/>
<path d="M89.3071 214.441H84.8359V224.791H89.3071V214.441Z" fill="#FF8B7B"/>
<path d="M52.4121 219.856L56.8778 220.342L59.7868 210.295L55.3212 209.81L52.4121 219.856Z" fill="#FF8B7B"/>
<path d="M58.9539 221.352C59.5059 221.495 60.0579 221.556 60.3063 221.352C60.367 221.295 60.4082 221.221 60.4241 221.14C60.4399 221.059 60.4296 220.974 60.3946 220.899C60.3719 220.83 60.3358 220.767 60.2885 220.712C60.2411 220.657 60.1834 220.612 60.1186 220.579C59.4286 220.198 57.7174 220.678 57.6456 220.695C57.6246 220.701 57.6059 220.713 57.592 220.73C57.5782 220.746 57.5699 220.767 57.5684 220.789C57.5683 220.811 57.5745 220.832 57.5863 220.851C57.598 220.869 57.6148 220.884 57.6346 220.894C58.0605 221.084 58.5019 221.237 58.9539 221.352ZM59.826 220.69C59.893 220.706 59.9579 220.73 60.0192 220.761C60.101 220.8 60.1644 220.87 60.1959 220.954C60.24 221.104 60.1959 221.159 60.1959 221.192C59.9309 221.418 58.8214 221.148 58.032 220.828C58.6157 220.667 59.2251 220.622 59.826 220.695V220.69Z" fill="#006837"/>
<path d="M57.6554 220.905H57.6996C58.2516 220.8 59.5212 220.127 59.5433 219.619C59.5433 219.497 59.4991 219.332 59.2176 219.232C59.1184 219.197 59.0131 219.181 58.9079 219.187C58.8027 219.193 58.6996 219.219 58.6049 219.265C57.9535 219.58 57.5892 220.717 57.5726 220.761C57.5634 220.777 57.5586 220.795 57.5586 220.814C57.5586 220.832 57.5634 220.85 57.5726 220.866C57.582 220.879 57.5945 220.89 57.609 220.896C57.6235 220.903 57.6395 220.906 57.6554 220.905ZM59.0906 219.42H59.1569C59.339 219.486 59.3335 219.564 59.3335 219.586C59.3335 219.895 58.4503 220.452 57.8431 220.634C57.996 220.157 58.2978 219.741 58.7042 219.448C58.8255 219.392 58.9627 219.382 59.0906 219.42Z" fill="#006837"/>
<path d="M57.1154 219.928L52.2302 218.526C52.1462 218.5 52.0561 218.505 51.9755 218.54C51.8948 218.574 51.8287 218.635 51.7886 218.713L49.9891 222.285C49.947 222.375 49.9254 222.474 49.9258 222.573C49.9261 222.673 49.9485 222.771 49.9911 222.862C50.0338 222.952 50.0958 223.031 50.1727 223.095C50.2497 223.158 50.3396 223.204 50.4362 223.229C52.1474 223.687 53.003 223.83 55.1503 224.443C56.4695 224.824 59.1578 225.74 60.9849 226.265C62.812 226.789 63.4855 225.072 62.7789 224.697C59.6104 223.013 58.5947 221.655 57.7557 220.397C57.6052 220.169 57.378 220.003 57.1154 219.928Z" fill="#263238"/>
<path d="M89.2579 224.272H84.3783C84.2905 224.271 84.2053 224.302 84.1383 224.358C84.0714 224.415 84.0272 224.494 84.0139 224.581L83.3019 228.528C83.2859 228.626 83.2915 228.727 83.3182 228.823C83.345 228.919 83.3922 229.009 83.4568 229.085C83.5213 229.161 83.6016 229.222 83.6921 229.264C83.7825 229.306 83.881 229.328 83.9808 229.328C85.7417 229.295 88.2809 229.19 90.4944 229.19C93.0833 229.19 94.4964 229.334 97.5324 229.334C99.3651 229.334 99.7956 227.479 99.0173 227.308C95.49 226.546 93.4531 226.463 90.3509 224.598C90.0214 224.395 89.6445 224.283 89.2579 224.272Z" fill="#263238"/>
<path opacity="0.2" d="M89.3071 214.441H84.8359V219.779H89.3071V214.441Z" fill="black"/>
<path opacity="0.2" d="M55.3218 209.815L59.7874 210.295L58.1701 215.871L53.8203 214.993L55.3218 209.815Z" fill="black"/>
<path d="M81.9549 111.504C81.9549 111.504 79.4874 145.253 77.2794 158.049C74.8451 172.064 60.6808 214.976 60.6808 214.976L52.5664 213.491C52.5664 213.491 62.795 173.195 63.9266 159.318C65.1575 144.26 66.6369 113.221 66.6369 113.221L81.9549 111.504Z" fill="#006837"/>
<path opacity="0.3" d="M77.7996 125.525C78.2412 123.67 79.2569 126.005 80.4382 130.051C79.5439 140.064 78.3792 151.662 77.2642 158.054C77.0158 159.484 76.6404 161.217 76.1602 163.182C76.5852 148.896 76.6018 130.542 77.7996 125.525Z" fill="black"/>
<path d="M90.3849 110.588C90.3849 110.588 93.6252 144.514 93.7356 158.142C93.8515 172.323 90.9314 218.747 90.9314 218.747H83.3525C83.3525 218.747 81.0782 173.151 80.1343 159.224C79.1021 144.044 74.7578 112.304 74.7578 112.304L90.3849 110.588Z" fill="#006837"/>
<path d="M62.3759 212.244C62.409 212.244 61.1008 215.186 61.1008 215.186L51.9707 213.53L52.5227 210.798L62.3759 212.244Z" fill="#263238"/>
<path d="M92.2561 215.727C92.2893 215.727 91.9636 218.873 91.9636 218.873H82.7562L82.3809 216.069L92.2561 215.727Z" fill="#263238"/>
<path d="M66.8584 80.3491C66.2512 81.5249 65.5832 82.7614 64.976 83.9813L63.1213 87.6576C62.5196 88.883 61.929 90.114 61.3604 91.345C60.7919 92.5759 60.2564 93.8014 59.7983 95.0268L59.7541 93.0948C60.0768 94.0869 60.464 95.0568 60.9133 95.9983C61.1286 96.4841 61.4046 96.9478 61.642 97.428C61.8793 97.9082 62.194 98.3664 62.4755 98.819C63.0612 99.7547 63.695 100.659 64.3744 101.529C64.7166 101.965 65.0588 102.413 65.4231 102.832C65.7875 103.252 66.1849 103.688 66.5271 104.046L66.6376 104.168C66.8919 104.447 67.0384 104.808 67.051 105.185C67.0636 105.563 66.9414 105.932 66.7063 106.228C66.4711 106.524 66.1384 106.726 65.7678 106.798C65.3972 106.871 65.0128 106.809 64.6835 106.624C64.1129 106.303 63.5601 105.951 63.0275 105.57C62.4755 105.206 61.9897 104.825 61.4929 104.422C60.4984 103.606 59.5649 102.719 58.6998 101.767C57.8167 100.799 57.0137 99.7619 56.2986 98.6645C55.5638 97.5465 54.9249 96.3684 54.3887 95.1427C54.1525 94.6225 54.1113 94.0347 54.2728 93.4867L54.35 93.2273C54.7696 91.7866 55.2388 90.39 55.7576 89.021C56.2765 87.6521 56.8285 86.3107 57.4136 84.9914C57.9988 83.6722 58.6115 82.3694 59.2573 81.0833C59.9032 79.7971 60.5545 78.5386 61.2997 77.2524C61.7115 76.5163 62.3972 75.9725 63.2077 75.7391C64.0182 75.5056 64.8881 75.6015 65.6284 76.0058C66.3686 76.4101 66.9194 77.0902 67.1611 77.8983C67.4028 78.7064 67.3158 79.5772 66.9191 80.3215L66.8584 80.3491Z" fill="#FF8B7B"/>
<path d="M70.0267 78.3839C70.2475 82.5957 65.4672 90.3292 65.4672 90.3292L55.625 85.4109C56.8211 81.9224 58.6721 78.6943 61.0788 75.8999C66.2841 70.1481 69.8224 74.5199 70.0267 78.3839Z" fill="#263238"/>
<path d="M63.3594 105.835L65.3411 109.147L69.4645 106.508C68.7443 105.218 67.6164 104.202 66.2574 103.621C65.9431 103.521 65.6033 103.536 65.2995 103.665C64.9957 103.794 64.748 104.027 64.6014 104.322L63.3594 105.835Z" fill="#FF8B7B"/>
<path d="M66.9903 110.56L68.9058 110.201C69.067 110.171 69.2208 110.11 69.3581 110.02C69.4955 109.931 69.6138 109.815 69.7062 109.68C69.7985 109.544 69.8632 109.392 69.8963 109.231C69.9295 109.07 69.9305 108.905 69.8994 108.744L69.4633 106.536L65.3398 109.174L65.6158 109.842C65.7288 110.101 65.9266 110.313 66.1766 110.443C66.4266 110.574 66.7137 110.615 66.9903 110.56Z" fill="#FF8B7B"/>
<path d="M78.6208 57.2202C78.6595 57.579 78.8858 57.8606 79.1176 57.8385C79.3495 57.8164 79.504 57.5128 79.4599 57.154C79.4157 56.7952 79.1949 56.5137 78.9631 56.5302C78.7312 56.5468 78.5767 56.8559 78.6208 57.2202Z" fill="#263238"/>
<path d="M78.8535 57.8606C79.4118 58.9327 80.1077 59.9274 80.9235 60.8193C80.3715 61.4652 79.2675 61.2775 79.2675 61.2775L78.8535 57.8606Z" fill="#FF5652"/>
<path d="M77.0748 55.3159C77.1035 55.3201 77.1328 55.3179 77.1605 55.3093C77.1882 55.3007 77.2136 55.286 77.2348 55.2662C77.4262 55.087 77.6587 54.9575 77.9118 54.8892C78.165 54.8208 78.431 54.8157 78.6866 54.8743C78.7127 54.8826 78.7402 54.8855 78.7675 54.8827C78.7947 54.8799 78.8211 54.8715 78.8449 54.858C78.8688 54.8445 78.8896 54.8263 78.906 54.8044C78.9225 54.7825 78.9342 54.7574 78.9405 54.7308C78.9543 54.6759 78.9466 54.6178 78.9189 54.5685C78.8911 54.5192 78.8455 54.4825 78.7915 54.4658C78.4688 54.3888 78.1321 54.3918 77.8108 54.4745C77.4894 54.5572 77.1932 54.7172 76.9478 54.9405C76.9273 54.9601 76.9109 54.9837 76.8997 55.0097C76.8886 55.0358 76.8828 55.0639 76.8828 55.0923C76.8828 55.1207 76.8886 55.1488 76.8997 55.1749C76.9109 55.201 76.9273 55.2245 76.9478 55.2441C76.9631 55.2639 76.9822 55.2805 77.004 55.2928C77.0258 55.3052 77.0499 55.313 77.0748 55.3159Z" fill="#263238"/>
<path d="M67.4922 61.2168C68.5465 64.4129 69.9486 70.3027 67.9503 72.6653C67.9503 72.6653 69.2641 75.8834 75.314 75.3701C81.9767 74.8181 78.074 71.8097 78.074 71.8097C74.3315 71.2577 74.0775 68.5584 74.3867 65.9806L67.4922 61.2168Z" fill="#FF8B7B"/>
<path d="M66.5216 73.8299C65.8979 72.8307 65.2023 71.6881 66.3836 71.2631C67.6808 70.7939 74.9672 70.0321 77.5616 70.6724C80.156 71.3127 79.6261 73.4324 79.6261 73.4324L66.5216 73.8299Z" fill="#006837"/>
<path d="M87.8559 75.1768C88.8054 76.0489 89.8321 77.0149 90.8533 77.8981C91.8745 78.7813 92.9067 79.6866 93.9445 80.5588C94.9822 81.4309 96.0421 82.2534 97.1074 83.0538C98.1728 83.8542 99.2547 84.5829 100.337 85.2618L98.1286 85.0521C99.0462 84.8073 99.9146 84.4058 100.695 83.8653C101.608 83.2276 102.455 82.5009 103.224 81.6959C104.052 80.8479 104.828 79.9502 105.548 79.0077C105.917 78.5274 106.287 78.0417 106.652 77.5393C107.016 77.037 107.347 76.5071 107.651 76.0434L107.711 75.9551C107.921 75.6349 108.239 75.4007 108.607 75.2953C108.975 75.1899 109.368 75.2203 109.716 75.381C110.063 75.5416 110.341 75.8218 110.499 76.1704C110.657 76.519 110.684 76.9128 110.576 77.2799C110.366 77.9975 110.146 78.6102 109.892 79.2505C109.638 79.8909 109.373 80.5201 109.075 81.1384C108.47 82.3995 107.763 83.6088 106.961 84.754C106.118 85.9684 105.136 87.08 104.035 88.066C102.816 89.1539 101.402 90.0006 99.8674 90.561C99.538 90.6771 99.1888 90.7266 98.8401 90.7067C98.4914 90.6868 98.1501 90.5979 97.8361 90.4451L97.6539 90.3513C96.2833 89.6777 94.9526 88.9257 93.6685 88.0991C92.4154 87.2877 91.201 86.4431 90.0308 85.5378C88.8606 84.6325 87.7289 83.7162 86.6249 82.7778C85.5209 81.8394 84.4611 80.8569 83.3847 79.7584C82.8119 79.161 82.4928 78.3649 82.4941 77.5373C82.4955 76.7096 82.8174 75.9147 83.3922 75.3192C83.967 74.7237 84.75 74.3739 85.5771 74.3433C86.4042 74.3126 87.211 74.6034 87.8283 75.1547L87.8559 75.1768Z" fill="#FF8B7B"/>
<path d="M84.4839 72.3119C84.4839 72.3119 90.0481 77.7105 90.6939 111.101C81.7957 113.259 73.2342 114.054 66.6212 113.215C66.3066 109.025 65.8374 94.4858 61.587 79.1567C61.4044 78.5111 61.358 77.8346 61.4508 77.17C61.5436 76.5055 61.7735 75.8676 62.1259 75.2966C62.4783 74.7257 62.9456 74.2342 63.498 73.8534C64.0505 73.4727 64.6761 73.2109 65.3351 73.0847C66.1796 72.9191 67.0683 72.7701 67.9515 72.6542C71.3068 72.1742 74.687 71.8886 78.0752 71.7986C80.221 71.8161 82.3627 71.9877 84.4839 72.3119Z" fill="#263238"/>
<path d="M80.1666 78.13C80.7186 82.3087 87.8946 90.3403 87.8946 90.3403L96.4119 81.5083C93.8818 78.852 91.1465 76.3991 88.2313 74.1722C81.9882 69.5078 79.6698 74.255 80.1666 78.13Z" fill="#263238"/>
<path d="M110.024 78.7482L112.872 76.1373L109.461 72.6321C108.333 73.5929 107.556 74.9018 107.253 76.3526C107.22 76.6842 107.308 77.0168 107.5 77.2887C107.693 77.5606 107.978 77.7536 108.302 77.8319L110.024 78.7482Z" fill="#FF8B7B"/>
<path d="M113.922 74.2385L113.188 72.4334C113.125 72.2786 113.033 72.1377 112.915 72.0193C112.798 71.9008 112.657 71.8072 112.503 71.7439C112.349 71.6806 112.183 71.6489 112.016 71.6507C111.849 71.6525 111.685 71.6878 111.532 71.7545L109.439 72.6321L112.851 76.1373L113.447 75.7344C113.686 75.5778 113.864 75.3434 113.951 75.0709C114.037 74.7984 114.027 74.5044 113.922 74.2385Z" fill="#FF8B7B"/>
<path d="M66.6423 57.4078C67.4427 61.8238 67.6855 64.4403 70.1695 66.5434C73.9066 69.7064 79.0622 67.2445 79.5535 62.7346C80.0172 58.6719 78.6317 52.1307 74.1384 50.7066C69.6451 49.2824 65.8419 52.9918 66.6423 57.4078Z" fill="#FF8B7B"/>
<path d="M75.348 58.9977C76.8991 59.351 78.108 57.557 78.2736 57.0492C77.5173 57.1209 76.176 56.7345 75.911 56.3923C76.739 56.464 77.5394 55.4428 77.6388 55.0509C76.7603 54.8813 75.9823 54.3765 75.4694 53.6433C76.8108 53.6157 78.4226 51.2532 76.9488 49.139C75.4749 47.0248 69.3146 48.7968 68.448 47.2898C67.1563 48.0405 68.3045 49.0396 68.3045 49.0396C68.3045 49.0396 59.5884 50.6956 63.6069 54.0573C60.6593 54.3223 60.2453 57.8054 62.7017 59.5773C65.1581 61.3492 65.285 62.5195 64.308 62.376C64.6999 63.1267 66.4497 63.226 66.5491 62.4974C66.9631 64.0264 68.1554 66.0964 70.9044 65.7597C73.6533 65.423 76.3471 61.5756 75.348 58.9977Z" fill="#263238"/>
<path d="M64.3695 53.5439C62.2939 53.8309 61.35 52.6607 61.8689 51.6284C59.2966 52.9422 62.1063 55.8457 64.3695 53.5439Z" fill="#263238"/>
<path d="M73.2005 58.3243C73.5577 59.2494 74.1895 60.0431 75.011 60.5986C76.115 61.3272 77.1142 60.5986 76.9265 59.4946C76.7554 58.4789 75.977 56.8726 74.8289 56.5855C74.5911 56.5075 74.336 56.499 74.0935 56.561C73.8511 56.6231 73.6314 56.7531 73.4603 56.9357C73.2892 57.1184 73.1739 57.3461 73.1279 57.5921C73.0819 57.8381 73.107 58.0922 73.2005 58.3243Z" fill="#FF8B7B"/>
<path d="M213.501 213.911C209.416 204.273 207.766 192.935 212.441 193.404C217.238 193.868 216.675 210.958 217.454 212.835C215.958 214.121 213.501 213.911 213.501 213.911Z" fill="#006837"/>
<path d="M214.827 195.623C213.822 199.3 212.757 204.98 211.945 209.793C212.409 211.173 212.933 212.553 213.502 213.911C213.502 213.911 215.953 214.121 217.46 212.835C216.842 211.355 217.062 200.404 214.827 195.623Z" fill="#263238"/>
<path d="M214.849 212.145C213.569 191.666 217.057 172.682 226.243 173.538C234.125 174.278 222.633 208.755 222.853 212.73C219.243 214.132 214.849 212.145 214.849 212.145Z" fill="#006837"/>
<path d="M220.799 212.012C222.24 197.29 230.006 180.112 233.34 185.853C237.574 193.139 226.716 210.494 226.424 213.348C223.708 213.933 220.799 212.012 220.799 212.012Z" fill="#006837"/>
<path d="M219.347 179.008C218.414 178.854 217.895 178.274 217.956 177.452C218.022 176.524 218.784 175.602 219.491 175.591C219.833 175.591 220.407 175.768 220.55 177.043L219.998 177.109C219.932 176.502 219.75 176.143 219.507 176.143C219.132 176.143 218.558 176.828 218.513 177.49C218.475 178.042 218.784 178.351 219.441 178.462L219.347 179.008Z" fill="#006837"/>
<path d="M229.261 182.712C228.86 182.68 228.477 182.532 228.157 182.287L228.455 181.829C228.969 182.16 229.366 182.248 229.521 182.061C229.753 181.763 229.593 180.891 229.112 180.432C228.726 180.063 228.273 180.09 227.771 180.532L227.412 180.112C227.541 179.967 227.699 179.849 227.875 179.766C228.051 179.683 228.242 179.636 228.436 179.629C228.631 179.622 228.825 179.654 229.006 179.724C229.188 179.794 229.354 179.899 229.493 180.035C230.167 180.675 230.393 181.846 229.951 182.403C229.87 182.506 229.764 182.588 229.644 182.642C229.524 182.696 229.393 182.72 229.261 182.712Z" fill="#006837"/>
<path d="M215.732 191.047C215.398 191.071 215.067 190.972 214.8 190.769C214.534 190.566 214.351 190.272 214.286 189.943C214.065 189.044 214.507 187.934 215.18 187.702C215.495 187.597 216.102 187.586 216.632 188.762L216.124 188.994C215.876 188.442 215.572 188.144 215.357 188.227C215.003 188.348 214.667 189.17 214.805 189.811C214.932 190.363 215.357 190.55 215.986 190.451L216.069 191.003C215.958 191.027 215.845 191.042 215.732 191.047Z" fill="#006837"/>
<path d="M209.853 202.479C209.584 202.486 209.319 202.41 209.094 202.264C208.868 202.117 208.692 201.905 208.589 201.657C208.203 200.812 208.429 199.637 209.042 199.283C209.334 199.118 209.93 198.996 210.67 200.056L210.217 200.371C209.864 199.868 209.527 199.642 209.318 199.764C208.992 199.951 208.815 200.823 209.091 201.42C209.318 201.911 209.748 202.043 210.372 201.822L210.554 202.347C210.33 202.432 210.093 202.476 209.853 202.479Z" fill="#006837"/>
<path d="M219.634 185.814C219.577 185.814 219.521 185.797 219.474 185.765C219.131 185.575 218.868 185.268 218.734 184.899C218.6 184.531 218.604 184.127 218.745 183.761C218.905 183.394 219.179 183.089 219.526 182.89C219.873 182.691 220.275 182.609 220.672 182.657C221.014 182.718 221.814 183.021 221.87 184.49C221.87 184.563 221.841 184.633 221.789 184.685C221.737 184.737 221.667 184.766 221.594 184.766C221.52 184.766 221.45 184.737 221.398 184.685C221.347 184.633 221.318 184.563 221.318 184.49C221.285 183.722 221.025 183.259 220.572 183.176C220.298 183.154 220.023 183.218 219.787 183.36C219.55 183.501 219.364 183.713 219.253 183.965C219.054 184.434 219.253 184.909 219.805 185.301C219.853 185.335 219.89 185.383 219.909 185.439C219.928 185.495 219.928 185.555 219.91 185.611C219.892 185.667 219.857 185.716 219.809 185.751C219.762 185.785 219.704 185.804 219.645 185.803L219.634 185.814Z" fill="white"/>
<path d="M226.175 200.713C226.112 200.714 226.051 200.692 226.002 200.651C225.954 200.611 225.921 200.554 225.91 200.492C225.902 200.457 225.901 200.42 225.908 200.385C225.914 200.349 225.927 200.315 225.947 200.285C225.966 200.255 225.992 200.228 226.021 200.208C226.051 200.188 226.085 200.174 226.12 200.166C226.871 200.012 227.285 199.675 227.296 199.217C227.271 198.942 227.162 198.682 226.983 198.473C226.804 198.263 226.564 198.114 226.297 198.047C225.8 197.925 225.358 198.196 225.066 198.803C225.05 198.836 225.028 198.865 225.001 198.889C224.973 198.913 224.942 198.931 224.907 198.943C224.873 198.955 224.837 198.96 224.8 198.957C224.764 198.955 224.729 198.946 224.696 198.93C224.663 198.914 224.634 198.892 224.61 198.864C224.586 198.837 224.568 198.806 224.556 198.771C224.544 198.737 224.539 198.701 224.542 198.664C224.544 198.628 224.553 198.593 224.569 198.56C224.704 198.194 224.965 197.887 225.304 197.694C225.643 197.501 226.04 197.435 226.424 197.506C226.814 197.602 227.162 197.821 227.419 198.13C227.675 198.439 227.825 198.822 227.848 199.222C227.848 199.57 227.671 200.409 226.236 200.707L226.175 200.713Z" fill="white"/>
<path d="M233.937 196.06C233.617 196.06 233.192 195.872 232.717 195.16L233.175 194.851C233.517 195.358 233.843 195.59 234.058 195.474C234.389 195.298 234.61 194.426 234.318 193.818C234.108 193.327 233.677 193.184 233.048 193.388L232.877 192.863C233.771 192.571 234.5 192.863 234.825 193.603C235.195 194.453 234.947 195.623 234.323 195.96C234.205 196.027 234.072 196.061 233.937 196.06Z" fill="#006837"/>
<path d="M232.292 217.416C232.296 214.471 231.239 211.622 229.316 209.39C229.505 209.363 229.678 209.268 229.803 209.125C229.929 208.981 229.999 208.797 230.001 208.606C230 208.391 229.913 208.184 229.76 208.032C229.607 207.88 229.4 207.795 229.184 207.795H210.703C210.502 207.798 210.309 207.876 210.162 208.013C210.015 208.151 209.926 208.339 209.91 208.54C209.895 208.741 209.956 208.94 210.08 209.098C210.204 209.256 210.383 209.363 210.582 209.396C209.373 210.8 208.496 212.458 208.017 214.247C207.538 216.037 207.468 217.911 207.814 219.731C208.159 221.551 208.91 223.27 210.012 224.76C211.113 226.249 212.536 227.471 214.175 228.335C213.997 228.427 213.854 228.576 213.771 228.759C213.688 228.942 213.668 229.148 213.716 229.343C213.764 229.538 213.876 229.711 214.035 229.835C214.193 229.958 214.388 230.025 214.589 230.024H225.292C225.529 230.023 225.756 229.928 225.923 229.76C226.091 229.593 226.185 229.366 226.187 229.13C226.186 228.966 226.141 228.806 226.056 228.666C225.972 228.526 225.851 228.412 225.706 228.335C227.694 227.287 229.358 225.716 230.518 223.792C231.679 221.868 232.292 219.663 232.292 217.416Z" fill="#263238"/>
<path d="M17.9098 190.884C18.8572 190.952 19.7812 191.211 20.6266 191.644C21.4719 192.077 22.2213 192.677 22.8301 193.406C24.0404 194.873 24.8975 196.599 25.3351 198.449C26.2821 201.991 25.6993 206.177 24.6906 209.702C20.8575 208.329 18.487 204.238 17.4054 202.086C15.7242 198.69 14.7211 191.517 17.893 190.878" fill="#006837"/>
<path d="M30.2104 214C29.6348 213.108 29.3057 212.079 29.2565 211.018C29.2073 209.957 29.4397 208.901 29.9302 207.959C30.4361 207.026 31.1228 206.203 31.9503 205.538C32.7778 204.873 33.7294 204.38 34.7496 204.087C35.6855 203.796 36.7727 203.678 37.5853 204.221C37.9516 204.498 38.2368 204.869 38.4113 205.294C38.5858 205.718 38.6431 206.182 38.5772 206.637C38.4301 207.547 38.0432 208.402 37.4564 209.114C35.5902 211.641 33.3262 213.743 30.1712 214" fill="#006837"/>
<path d="M30.6356 225.842C30.5524 225.604 30.4942 225.358 30.4619 225.108C30.361 224.581 30.2265 223.903 30.064 223.09C29.561 220.865 29.4209 218.573 29.6493 216.304C29.9135 214.023 30.7822 211.854 32.1655 210.022C32.5881 209.474 33.0755 208.979 33.6169 208.548C33.764 208.431 33.9174 208.323 34.0765 208.223C34.127 208.181 34.1837 208.147 34.2446 208.122C33.5357 208.727 32.8881 209.401 32.3112 210.134C31.0009 211.968 30.1758 214.104 29.9127 216.343C29.554 218.954 29.9968 221.347 30.2545 223.068C30.389 223.925 30.5011 224.62 30.5627 225.102C30.6069 225.346 30.6313 225.594 30.6356 225.842Z" fill="#263238"/>
<path d="M19.1426 196.281C19.2066 196.369 19.2593 196.465 19.2995 196.566C19.4004 196.79 19.5349 197.071 19.6918 197.424C20.0336 198.169 20.51 199.251 21.0872 200.59C22.2416 203.274 23.7883 207.007 25.4022 211.165C27.0162 215.323 28.3892 219.117 29.325 221.88C29.807 223.258 30.1824 224.379 30.4458 225.158C30.5635 225.528 30.6532 225.825 30.726 226.055C30.766 226.157 30.7942 226.265 30.8101 226.374C30.7533 226.279 30.7081 226.177 30.6756 226.071C30.5915 225.847 30.4851 225.556 30.345 225.192L29.1625 221.941C28.1594 219.201 26.7584 215.413 25.1501 211.26C23.5417 207.107 22.0174 203.364 20.9078 200.663C20.3474 199.335 19.9159 198.253 19.5965 197.463C19.4508 197.104 19.3331 196.819 19.2435 196.589C19.2014 196.489 19.1676 196.386 19.1426 196.281Z" fill="#263238"/>
<path d="M26.0803 218.007C24.9272 216.088 23.3337 214.47 21.4315 213.288C19.5294 212.106 17.3732 211.394 15.1413 211.21C14.0205 211.131 12.6419 211.322 12.1375 212.331C11.6332 213.339 12.3057 214.572 13.079 215.39C14.7221 217.109 16.8374 218.303 19.158 218.822C21.4787 219.341 23.901 219.16 26.1195 218.304" fill="#006837"/>
<path d="M16.8672 214.247C17.1048 214.235 17.343 214.245 17.5789 214.275C17.8552 214.29 18.1303 214.322 18.4027 214.37C18.7221 214.432 19.0976 214.466 19.4899 214.578C19.9284 214.671 20.3607 214.79 20.7844 214.936C21.2753 215.094 21.7562 215.281 22.2246 215.497C23.302 215.979 24.321 216.583 25.262 217.296C26.1921 218.025 27.0346 218.86 27.7726 219.784C28.0912 220.186 28.3851 220.607 28.6524 221.045C28.894 221.423 29.1148 221.814 29.3137 222.216C29.482 222.543 29.6317 222.88 29.762 223.225C29.8744 223.48 29.9698 223.742 30.0478 224.009C30.1308 224.233 30.1927 224.464 30.2327 224.699C30.1711 224.699 29.9021 223.735 29.1456 222.3C28.9395 221.915 28.7132 221.541 28.4675 221.179C28.1944 220.755 27.8988 220.345 27.582 219.952C26.1163 218.141 24.247 216.697 22.1238 215.738C21.6362 215.525 21.1711 215.323 20.7172 215.177C20.3004 215.026 19.8758 214.896 19.445 214.791C17.8759 214.359 16.8616 214.309 16.8672 214.247Z" fill="#263238"/>
<path d="M181.008 34.7408C181.008 34.7408 172.085 34.2036 173.128 40.4586C173.073 40.7758 173.121 41.1021 173.263 41.3907C173.406 41.6793 173.636 41.9156 173.921 42.0656C173.921 42.0656 173.938 41.5967 174.837 41.7583C175.157 41.8122 175.483 41.828 175.807 41.8053C176.246 41.7762 176.663 41.604 176.995 41.3152C176.995 41.3152 179.505 40.2803 180.482 36.1793C180.482 36.1793 181.204 35.2833 181.186 35.0534L179.679 35.6983C179.967 36.3234 180.006 37.0351 179.787 37.6877C179.787 37.6877 179.74 35.7378 179.449 35.7825C179.39 35.7825 178.667 36.1619 178.667 36.1619C178.667 36.1619 179.552 38.0534 178.882 39.4305C178.882 39.4305 179.136 37.0982 178.39 36.2985L177.327 36.9176C177.327 36.9176 178.362 38.8721 177.66 40.4677C177.66 40.4677 177.841 38.0208 177.103 37.0678L176.141 37.8159C176.141 37.8159 177.115 39.7446 176.52 41.0678C176.52 41.0678 176.444 38.2196 175.931 38.0033C175.567 38.3111 175.242 38.6625 174.964 39.0496C174.964 39.0496 175.628 40.4571 175.215 41.187C175.215 41.187 174.961 39.2901 174.746 39.2795C174.311 39.9207 173.997 40.6365 173.821 41.391C173.861 40.5949 174.11 39.8232 174.542 39.1528C174.059 39.2442 173.613 39.475 173.26 39.8167C173.26 39.8167 173.389 38.9275 174.749 38.8501C175.005 38.4824 175.3 38.1427 175.627 37.8364C174.894 37.7741 174.155 37.8595 173.455 38.0875C173.455 38.0875 174.176 37.2529 175.876 37.6186L176.815 36.844C175.973 36.7195 175.118 36.7282 174.279 36.8698C174.279 36.8698 175.147 36.1285 177.071 36.668L178.104 36.0511C177.31 35.8758 176.496 35.8057 175.684 35.8425C176.564 35.5115 177.537 35.5267 178.407 35.885L179.147 35.5541C179.147 35.5541 178.034 35.3356 177.709 35.3007C177.385 35.2658 177.367 35.1763 177.367 35.1763C178.071 35.0592 178.794 35.1403 179.454 35.4107C179.992 35.2355 180.512 35.0113 181.008 34.7408Z" fill="#19884A"/>
<path opacity="0.1" d="M208.121 66.0269C208.121 66.0269 199.198 65.4897 200.241 71.7447C200.187 72.0619 200.234 72.3882 200.377 72.6768C200.519 72.9655 200.749 73.2017 201.034 73.3517C201.034 73.3517 201.051 72.8828 201.952 73.0444C202.273 73.0983 202.598 73.1141 202.922 73.0914C203.356 73.06 203.768 72.8888 204.096 72.6036C204.096 72.6036 206.608 71.5664 207.589 67.4655C207.589 67.4655 208.309 66.5717 208.281 66.3418L206.774 66.9844C207.062 67.6095 207.102 68.3208 206.884 68.9738C206.884 68.9738 206.835 67.0239 206.546 67.0686C206.488 67.0686 205.762 67.448 205.762 67.448C205.762 67.448 206.649 69.3448 205.981 70.7166C205.981 70.7166 206.234 68.3843 205.485 67.5846L204.435 68.1969C204.435 68.1969 205.471 70.1514 204.769 71.747C204.769 71.747 204.949 69.3001 204.212 68.3471L203.252 69.0982C203.252 69.0982 204.224 71.0247 203.631 72.3479C203.631 72.3479 203.555 69.4996 203.042 69.2834C202.678 69.5916 202.352 69.9429 202.072 70.3297C202.072 70.3297 202.739 71.7371 202.326 72.467C202.326 72.467 202.072 70.5702 201.856 70.5596C201.421 71.2008 201.107 71.9165 200.931 72.6711C200.973 71.8748 201.223 71.1033 201.655 70.4328C201.171 70.5243 200.724 70.755 200.37 71.0967C200.37 71.0967 200.501 70.2075 201.861 70.1301C202.114 69.7597 202.409 69.4196 202.74 69.1165C202.006 69.0542 201.267 69.1396 200.567 69.3676C200.567 69.3676 201.288 68.533 202.986 68.9124L203.923 68.1316C203.081 68.0072 202.225 68.0159 201.387 68.1574C201.387 68.1574 202.255 67.4162 204.179 67.9556L205.212 67.3387C204.417 67.1647 203.602 67.0946 202.789 67.1301C203.67 66.7991 204.645 66.8143 205.515 67.1726L206.255 66.8418C206.255 66.8418 205.142 66.6233 204.812 66.5884C204.482 66.5535 204.469 66.4639 204.469 66.4639C205.174 66.3468 205.898 66.4279 206.559 66.6984C207.099 66.5218 207.622 66.2971 208.121 66.0269Z" fill="#19884A"/>
<path opacity="0.1" d="M153.914 60.4731C153.914 60.4731 155.969 51.7705 149.619 51.7401C149.316 51.6325 148.986 51.6236 148.678 51.7147C148.369 51.8057 148.097 51.992 147.9 52.247C147.9 52.247 148.356 52.3433 148.046 53.2022C147.94 53.5059 147.869 53.8208 147.835 54.1407C147.79 54.5768 147.888 55.0158 148.115 55.3911C148.115 55.3911 148.708 58.0421 152.576 59.7037C152.576 59.7037 153.335 60.5672 153.563 60.5763L153.187 58.9829C152.521 59.1608 151.812 59.0769 151.206 58.7485C151.206 58.7485 153.138 59.0323 153.14 58.7485C153.14 58.6901 152.906 57.9139 152.906 57.9139C152.906 57.9139 150.889 58.4632 149.641 57.5687C149.641 57.5687 151.897 58.2166 152.815 57.618L152.392 56.464C152.392 56.464 150.279 57.1514 148.833 56.187C148.833 56.187 151.216 56.7826 152.282 56.2197L151.717 55.1415C151.717 55.1415 149.651 55.7705 148.446 54.9609C148.446 54.9609 151.263 55.3691 151.569 54.9048C151.327 54.4929 151.036 54.1122 150.702 53.7712C150.702 53.7712 149.209 54.1885 148.551 53.6559C148.551 53.6559 150.465 53.7318 150.509 53.5269C149.949 52.9872 149.294 52.5553 148.577 52.253C149.356 52.4303 150.075 52.807 150.664 53.3463C150.656 52.8547 150.504 52.3762 150.228 51.9693C150.228 51.9693 151.083 52.2507 150.932 53.6119C151.254 53.924 151.538 54.2721 151.78 54.6491C151.966 53.9371 152.007 53.1952 151.902 52.467C151.902 52.467 152.607 53.3213 151.942 54.9283L152.543 55.9958C152.815 55.189 152.952 54.3432 152.95 53.492C152.95 53.492 153.534 54.4731 152.673 56.275L153.107 57.3987C153.413 56.6467 153.621 55.8581 153.724 55.0527C153.901 55.977 153.72 56.9338 153.217 57.7295L153.419 58.5133C153.419 58.5133 153.823 57.4549 153.912 57.1408C154.001 56.8266 154.092 56.8244 154.092 56.8244C154.089 57.5383 153.887 58.2372 153.508 58.8426C153.594 59.3972 153.73 59.9429 153.914 60.4731Z" fill="#19884A"/>
<path opacity="0.1" d="M134.373 63.4389C134.373 63.4389 127.207 58.0823 124.645 63.885C124.425 64.1204 124.286 64.4191 124.246 64.7385C124.206 65.0578 124.269 65.3816 124.424 65.6635C124.424 65.6635 124.692 65.2841 125.363 65.9124C125.601 66.1336 125.864 66.3259 126.148 66.4852C126.531 66.6986 126.974 66.7809 127.409 66.7196C127.409 66.7196 130.076 67.2333 133.148 64.3448C133.148 64.3448 134.244 63.9928 134.347 63.7864L132.729 63.5026C132.626 64.1831 132.268 64.7988 131.727 65.2249C131.727 65.2249 132.758 63.5686 132.49 63.4488C132.436 63.423 131.628 63.3312 131.628 63.3312C131.628 63.3312 131.325 65.401 130.012 66.1817C130.012 66.1817 131.508 64.3729 131.323 63.2932L130.095 63.2272C130.095 63.2272 129.886 65.4275 128.425 66.3782C128.425 66.3782 129.921 64.4328 129.833 63.2318L128.618 63.3304C128.618 63.3304 128.372 65.4723 127.148 66.2515C127.148 66.2515 128.649 63.8304 128.341 63.3683C127.867 63.4252 127.402 63.5394 126.956 63.7083C126.956 63.7083 126.742 65.2424 125.99 65.6324C125.99 65.6324 126.826 63.9078 126.655 63.7879C125.936 64.085 125.279 64.5123 124.716 65.0482C125.189 64.4057 125.822 63.8978 126.552 63.5747C126.097 63.3855 125.598 63.3327 125.114 63.423C125.114 63.423 125.71 62.7523 126.889 63.4344C127.305 63.2648 127.738 63.1429 128.18 63.0709C127.602 62.6145 126.937 62.2791 126.227 62.0846C126.227 62.0846 127.29 61.7811 128.504 63.0231L129.719 62.8987C129.086 62.3322 128.366 61.8697 127.587 61.5284C127.587 61.5284 128.722 61.385 130.029 62.8941L131.231 62.948C130.664 62.3654 130.023 61.8591 129.325 61.4419C130.242 61.649 131.047 62.1965 131.577 62.9738L132.378 63.1028C132.378 63.1028 131.568 62.3099 131.315 62.1035C131.062 61.8972 131.096 61.8099 131.096 61.8099C131.749 62.0989 132.309 62.5636 132.714 63.1521C133.257 63.2966 133.813 63.3926 134.373 63.4389Z" fill="#19884A"/>
<path opacity="0.1" d="M158.232 13.6709C158.232 13.6709 151.066 8.31197 148.504 14.117C148.285 14.3524 148.145 14.6511 148.105 14.9704C148.066 15.2898 148.128 15.6136 148.283 15.8955C148.283 15.8955 148.551 15.5161 149.223 16.1443C149.462 16.3642 149.726 16.5554 150.009 16.7141C150.393 16.9277 150.836 17.01 151.27 16.9486C151.27 16.9486 153.938 17.4622 157.009 14.5715C157.009 14.5715 158.106 14.2217 158.207 14.0131L156.589 13.7338C156.487 14.4147 156.128 15.0308 155.586 15.4562C155.586 15.4562 156.62 13.7998 156.352 13.68C156.298 13.6542 155.49 13.5624 155.49 13.5624C155.49 13.5624 155.18 15.6367 153.865 16.4129C153.865 16.4129 155.359 14.6041 155.176 13.5244L153.948 13.4584C153.948 13.4584 153.737 15.6587 152.277 16.6071C152.277 16.6071 153.773 14.6618 153.686 13.4607L152.471 13.5593C152.471 13.5593 152.222 15.7035 150.999 16.4827C150.999 16.4827 152.501 14.0616 152.194 13.5995C151.72 13.6564 151.254 13.7706 150.808 13.9395C150.808 13.9395 150.595 15.4736 149.843 15.8636C149.843 15.8636 150.678 14.139 150.507 14.0168C149.789 14.3151 149.131 14.7431 148.568 15.2794C149.041 14.6362 149.674 14.1282 150.404 13.8059C149.949 13.6147 149.447 13.5619 148.961 13.6542C148.961 13.6542 149.561 12.9835 150.739 13.6656C151.154 13.4949 151.587 13.373 152.03 13.3021C151.451 12.8465 150.787 12.5111 150.076 12.3158C150.076 12.3158 151.139 12.0123 152.349 13.2543L153.564 13.1299C152.93 12.5627 152.21 12.0994 151.431 11.7574C151.431 11.7574 152.566 11.6162 153.876 13.1231L155.078 13.1747C154.51 12.5919 153.868 12.0863 153.169 11.6709C154.087 11.8774 154.893 12.425 155.423 13.2027L156.221 13.3317C156.221 13.3317 155.409 12.5479 155.158 12.3454C154.907 12.1428 154.939 12.0548 154.939 12.0548C155.593 12.3435 156.153 12.8082 156.557 13.397C157.107 13.5349 157.667 13.6265 158.232 13.6709Z" fill="#19884A"/>
<path opacity="0.1" d="M185.619 20.4584C185.619 20.4584 182.754 11.9857 177.351 15.315C177.037 15.3866 176.754 15.5543 176.541 15.7945C176.327 16.0347 176.194 16.3355 176.16 16.6549C176.16 16.6549 176.594 16.4955 176.787 17.3871C176.859 17.7042 176.967 18.012 177.109 18.3044C177.304 18.697 177.62 19.0164 178.011 19.2148C178.011 19.2148 179.917 21.1503 184.085 20.51C184.085 20.51 185.186 20.8431 185.388 20.7285L184.214 19.5767C183.743 20.0792 183.098 20.3829 182.411 20.4258C182.411 20.4258 184.203 19.6465 184.055 19.3954C184.024 19.3461 183.411 18.8135 183.411 18.8135C183.411 18.8135 181.989 20.3453 180.462 20.2444C180.462 20.2444 182.719 19.6018 183.179 18.6018L182.207 17.8537C182.207 17.8537 180.784 19.5479 179.039 19.4963C179.039 19.4963 181.387 18.7429 181.982 17.7012L180.925 17.0942C180.925 17.0942 179.516 18.7201 178.055 18.6685C178.055 18.6685 180.667 17.5259 180.673 16.972C180.251 16.7503 179.803 16.5808 179.339 16.4675C179.339 16.4675 178.292 17.6101 177.461 17.5069C177.461 17.5069 179.123 16.557 179.055 16.362C178.295 16.2001 177.51 16.1803 176.743 16.3036C177.496 16.0413 178.306 15.9806 179.09 16.1276C178.822 15.7144 178.44 15.3882 177.989 15.189C177.989 15.189 178.862 14.9758 179.447 16.2049C179.885 16.3004 180.31 16.4452 180.715 16.6367C180.497 15.934 180.14 15.2821 179.666 14.7194C179.666 14.7194 180.715 15.0737 181.002 16.7892L182.077 17.3757C181.88 16.5461 181.549 15.7539 181.099 15.0297C181.099 15.0297 182.115 15.5555 182.336 17.538L183.299 18.2634C183.162 17.461 182.921 16.6799 182.581 15.9402C183.22 16.6317 183.573 17.5398 183.568 18.4811L184.153 19.0396C184.153 19.0396 183.937 17.9273 183.849 17.6132C183.761 17.299 183.832 17.2778 183.832 17.2778C184.205 17.8866 184.403 18.5867 184.402 19.3006C184.772 19.7222 185.179 20.1097 185.619 20.4584Z" fill="#19884A"/>
<path opacity="0.1" d="M166.92 20.8766C166.92 20.8766 158.021 19.8864 158.756 26.196C158.685 26.5091 158.715 26.8365 158.842 27.1315C158.968 27.4265 159.185 27.674 159.461 27.8387C159.461 27.8387 159.501 27.3698 160.4 27.5807C160.718 27.6491 161.042 27.6814 161.367 27.6771C161.806 27.6692 162.231 27.5184 162.577 27.2476C162.577 27.2476 165.139 26.3371 166.334 22.2924C166.334 22.2924 167.099 21.4358 167.083 21.2036L165.545 21.7711C165.808 22.409 165.808 23.1248 165.545 23.7628C165.545 23.7628 165.594 21.8128 165.31 21.8432C165.252 21.8432 164.509 22.1808 164.509 22.1808C164.509 22.1808 165.298 24.1163 164.561 25.4654C164.561 25.4654 164.932 23.1474 164.225 22.3121L163.133 22.8751C163.133 22.8751 164.073 24.8811 163.285 26.4411C163.285 26.4411 163.589 24.0056 162.906 23.0177L161.908 23.7218C161.908 23.7218 162.781 25.6945 162.121 26.9843C162.121 26.9843 162.19 24.1361 161.689 23.894C161.311 24.1846 160.968 24.5184 160.668 24.8887C160.668 24.8887 161.262 26.3197 160.814 27.0359C160.814 27.0359 160.657 25.1285 160.45 25.1095C159.981 25.7299 159.631 26.4317 159.417 27.1793C159.498 26.3856 159.786 25.627 160.252 24.979C159.764 25.0463 159.307 25.2544 158.937 25.5777C158.937 25.5777 159.111 24.6975 160.472 24.6884C160.472 24.6884 161.212 23.7711 161.411 23.7218C160.681 23.6228 159.939 23.6708 159.228 23.8629C159.228 23.8629 159.991 23.0602 161.667 23.5276L162.654 22.8022C161.82 22.6177 160.96 22.5749 160.111 22.6755C160.111 22.6755 161.018 21.9714 162.91 22.6171L163.973 22.0518C163.188 21.8372 162.378 21.726 161.564 21.721C162.46 21.4321 163.433 21.4967 164.283 21.9016L165.042 21.608C165.042 21.608 163.941 21.3333 163.617 21.2817C163.293 21.2301 163.281 21.1406 163.281 21.1406C163.991 21.0591 164.71 21.176 165.357 21.4782C165.895 21.3235 166.418 21.1222 166.92 20.8766Z" fill="#19884A"/>
<path opacity="0.1" d="M244.783 89.8982C244.783 89.8982 235.888 88.908 236.623 95.2093C236.552 95.5223 236.582 95.8497 236.709 96.1447C236.836 96.4397 237.052 96.6872 237.328 96.8519C237.328 96.8519 237.368 96.383 238.267 96.5917C238.585 96.6624 238.909 96.6947 239.234 96.688C239.674 96.6814 240.099 96.5305 240.444 96.2586C240.444 96.2586 243.006 95.3481 244.189 91.3056C244.189 91.3056 244.954 90.4467 244.938 90.2168L243.4 90.7821C243.663 91.421 243.663 92.1378 243.4 92.7768C243.4 92.7768 243.449 90.8246 243.165 90.8572C243.107 90.8572 242.364 91.1926 242.364 91.1926C242.364 91.1926 243.153 93.1281 242.416 94.4771C242.416 94.4771 242.787 92.1615 242.08 91.3238L240.988 91.8891C240.988 91.8891 241.928 93.8952 241.14 95.4551C241.14 95.4551 241.444 93.0196 240.755 92.0294L239.758 92.7335C239.758 92.7335 240.631 94.7062 239.971 95.9961C239.971 95.9961 240.039 93.1478 239.539 92.908C239.161 93.1993 238.819 93.533 238.518 93.9027C238.518 93.9027 239.114 95.3337 238.663 96.0499C238.663 96.0499 238.506 94.1425 238.3 94.1235C237.831 94.7439 237.48 95.4457 237.266 96.1933C237.348 95.3996 237.636 94.641 238.102 93.993C237.614 94.0592 237.156 94.2674 236.786 94.5917C236.786 94.5917 236.96 93.7093 238.322 93.7001C238.322 93.7001 239.064 92.7828 239.261 92.7358C238.531 92.6353 237.789 92.6822 237.077 92.8739C237.077 92.8739 237.84 92.0734 239.519 92.5408L240.506 91.8155C239.673 91.644 238.817 91.6092 237.973 91.7123C237.973 91.7123 238.879 91.0082 240.771 91.6516L241.834 91.0886C241.049 90.874 240.239 90.7628 239.425 90.7578C240.322 90.4668 241.297 90.5303 242.149 90.9354L242.908 90.6394C242.908 90.6394 241.807 90.3648 241.483 90.3155C241.159 90.2661 241.147 90.1743 241.147 90.1743C241.857 90.0914 242.576 90.2075 243.223 90.5097C243.76 90.3537 244.282 90.149 244.783 89.8982Z" fill="#19884A"/>
<path opacity="0.1" d="M258.38 98.2002C258.38 98.2002 249.486 97.2138 250.221 103.511C250.151 103.824 250.181 104.151 250.308 104.446C250.434 104.741 250.65 104.989 250.926 105.154C250.926 105.154 250.965 104.685 251.865 104.896C252.182 104.965 252.506 104.997 252.83 104.99C253.267 104.981 253.689 104.831 254.034 104.563C254.034 104.563 256.594 103.652 257.777 99.6076C257.777 99.6076 258.544 98.751 258.525 98.5188L256.987 99.0841C257.25 99.723 257.25 100.44 256.987 101.079C256.987 101.079 257.036 99.1289 256.752 99.1592C256.694 99.1592 255.951 99.4946 255.951 99.4946C255.951 99.4946 256.74 101.43 256.003 102.779C256.003 102.779 256.374 100.463 255.667 99.6281L254.575 100.191C254.575 100.191 255.515 102.197 254.727 103.757C254.727 103.757 255.031 101.322 254.342 100.334L253.345 101.038C253.345 101.038 254.218 103.011 253.561 104.3C253.561 104.3 253.627 101.45 253.127 101.21C252.749 101.501 252.406 101.835 252.105 102.205C252.105 102.205 252.702 103.636 252.251 104.352C252.251 104.352 252.094 102.444 251.888 102.426C251.418 103.046 251.069 103.748 250.856 104.495C250.938 103.702 251.226 102.943 251.692 102.295C251.204 102.362 250.747 102.57 250.377 102.894C250.377 102.894 250.553 102.011 251.915 102.004C251.915 102.004 252.654 101.087 252.854 101.038C252.124 100.939 251.382 100.987 250.67 101.179C250.67 101.179 251.433 100.376 253.112 100.844L254.099 100.118C253.266 99.9468 252.41 99.9119 251.566 100.015C251.566 100.015 252.472 99.3109 254.364 99.9566L255.427 99.3914C254.642 99.1767 253.832 99.0655 253.018 99.0606C253.914 98.7717 254.887 98.8363 255.737 99.2411L256.496 98.9475C256.496 98.9475 255.396 98.6729 255.074 98.6213C254.752 98.5697 254.736 98.4801 254.736 98.4801C255.446 98.3986 256.164 98.5155 256.812 98.8178C257.352 98.6598 257.877 98.4531 258.38 98.2002Z" fill="#19884A"/>
<path opacity="0.1" d="M228.191 28.2763C228.191 28.2763 221.025 22.9197 218.463 28.7224C218.244 28.9578 218.104 29.2565 218.064 29.5759C218.025 29.8953 218.087 30.219 218.242 30.5009C218.242 30.5009 218.51 30.1215 219.182 30.7498C219.42 30.971 219.683 31.1633 219.966 31.3226C220.35 31.5358 220.792 31.6181 221.227 31.557C221.227 31.557 223.895 32.0707 226.968 29.1822C226.968 29.1822 228.062 28.8302 228.166 28.6238L226.553 28.3332C226.45 29.0137 226.091 29.6295 225.55 30.0555C225.55 30.0555 226.581 28.3992 226.313 28.2793C226.259 28.2535 225.453 28.1617 225.453 28.1617C225.453 28.1617 225.15 30.2315 223.835 31.0123C223.835 31.0123 225.331 29.2035 225.146 28.1238L223.918 28.0578C223.918 28.0578 223.709 30.2581 222.248 31.2088C222.248 31.2088 223.746 29.2634 223.656 28.0623L222.441 28.161C222.441 28.161 222.207 30.3029 220.971 31.0821C220.971 31.0821 222.474 28.661 222.164 28.1989C221.69 28.2558 221.225 28.3699 220.778 28.5388C220.778 28.5388 220.567 30.073 219.816 30.463C219.816 30.463 220.647 28.7384 220.478 28.6185C219.759 28.9156 219.102 29.3429 218.538 29.8787C219.012 29.2363 219.645 28.7284 220.374 28.4053C219.92 28.216 219.421 28.1633 218.937 28.2535C218.937 28.2535 219.536 27.5828 220.715 28.2649C221.13 28.0952 221.563 27.9733 222.005 27.9015C221.427 27.4451 220.763 27.1097 220.052 26.9151C220.052 26.9151 221.115 26.6117 222.33 27.8537L223.545 27.7293C222.911 27.1622 222.192 26.6996 221.412 26.359C221.412 26.359 222.547 26.2156 223.854 27.7247L225.059 27.7786C224.49 27.1962 223.848 26.6899 223.15 26.2725C224.068 26.479 224.873 27.0266 225.402 27.8044L226.202 27.9334C226.202 27.9334 225.392 27.1405 225.139 26.9341C224.886 26.7277 224.923 26.6594 224.923 26.6594C225.575 26.949 226.134 27.4136 226.538 28.0016C227.08 28.142 227.633 28.2339 228.191 28.2763Z" fill="#19884A"/>
<path opacity="0.1" d="M233.728 66.9474C233.728 66.9474 231.258 58.3525 225.703 61.4382C225.385 61.4928 225.093 61.6463 224.868 61.8769C224.643 62.1076 224.497 62.4034 224.451 62.722C224.451 62.722 224.892 62.5839 225.045 63.4807C225.101 63.8036 225.196 64.1186 225.327 64.4193C225.501 64.8237 225.803 65.16 226.186 65.3768C226.186 65.3768 228.004 67.395 232.198 66.9443C232.198 66.9443 233.283 67.3237 233.488 67.2212L232.377 66.0149C231.885 66.4962 231.228 66.7714 230.539 66.7842C230.539 66.7842 232.362 66.0801 232.22 65.829C232.192 65.7774 231.605 65.2167 231.605 65.2167C231.605 65.2167 230.116 66.6856 228.595 66.5141C228.595 66.5141 230.879 65.9747 231.382 65.0027L230.442 64.2159C230.442 64.2159 228.944 65.8442 227.204 65.7175C227.204 65.7175 229.57 65.0672 230.223 64.0566L229.195 63.4018C229.195 63.4018 227.704 64.9625 226.258 64.8434C226.258 64.8434 228.915 63.8183 228.951 63.2667C228.538 63.0263 228.097 62.8373 227.638 62.7038C227.638 62.7038 226.542 63.7971 225.708 63.6567C225.708 63.6567 227.412 62.7812 227.352 62.5847C226.599 62.389 225.816 62.3335 225.043 62.4208C225.807 62.1944 226.616 62.1709 227.392 62.3525C227.144 61.9276 226.776 61.5847 226.335 61.3662C226.335 61.3662 227.218 61.1901 227.744 62.4458C228.177 62.5603 228.595 62.724 228.991 62.9337C228.805 62.222 228.477 61.555 228.028 60.9724C228.028 60.9724 229.062 61.3714 229.27 63.0968L230.318 63.7326C230.158 62.8972 229.863 62.0935 229.444 61.3533C229.444 61.3533 230.435 61.9231 230.569 63.9132L231.508 64.6803C231.407 63.8749 231.201 63.0862 230.895 62.3343C231.503 63.0527 231.814 63.9748 231.766 64.914L232.325 65.5004C232.325 65.5004 232.161 64.379 232.09 64.0589C232.02 63.7387 232.09 63.6954 232.09 63.6954C232.438 64.3203 232.605 65.0297 232.572 65.744C232.921 66.1789 233.308 66.5816 233.728 66.9474Z" fill="#19884A"/>
<path opacity="0.1" d="M178.684 86.3162C178.684 86.3162 173.887 78.7653 169.432 83.2812C169.142 83.4218 168.904 83.651 168.753 83.9357C168.602 84.2204 168.546 84.5458 168.592 84.8647C168.592 84.8647 168.979 84.6067 169.379 85.4277C169.522 85.7187 169.701 85.9913 169.91 86.2395C170.19 86.5784 170.574 86.8159 171.002 86.9155C171.002 86.9155 173.315 88.342 177.213 86.7282C177.213 86.7282 178.361 86.7888 178.53 86.6318L177.122 85.7873C176.785 86.388 176.23 86.837 175.572 87.0423C175.572 87.0423 177.126 85.8693 176.918 85.653C176.877 85.6105 176.155 85.2403 176.155 85.2403C176.155 85.2403 175.138 87.0658 173.631 87.3306C173.631 87.3306 175.671 86.169 175.883 85.0946L174.758 84.5999C174.758 84.5999 173.779 86.5825 172.074 86.9459C172.074 86.9459 174.164 85.6561 174.504 84.5036L173.33 84.1659C173.33 84.1659 172.339 86.0832 170.918 86.3761C170.918 86.3761 173.182 84.6447 173.057 84.1052C172.597 83.991 172.124 83.9334 171.649 83.9337C171.649 83.9337 170.905 85.2926 170.064 85.3905C170.064 85.3905 171.454 84.0718 171.339 83.8981C170.561 83.9219 169.795 84.0888 169.078 84.3905C169.748 83.9565 170.52 83.7057 171.318 83.6629C170.96 83.3248 170.512 83.0987 170.027 83.0127C170.027 83.0127 170.823 82.5976 171.671 83.653C172.119 83.6404 172.568 83.6799 173.007 83.7706C172.63 83.1382 172.127 82.5896 171.53 82.1583C171.53 82.1583 172.634 82.2524 173.319 83.8503L174.505 84.1644C174.117 83.4085 173.608 82.7207 172.998 82.128C172.998 82.128 174.109 82.3958 174.797 84.2699L175.905 84.7388C175.581 83.9928 175.16 83.2924 174.654 82.6553C175.44 83.1734 175.999 83.9714 176.216 84.8867L176.921 85.2926C176.921 85.2926 176.451 84.2623 176.284 83.9785C176.117 83.6947 176.183 83.6287 176.183 83.6287C176.692 84.1302 177.05 84.763 177.219 85.4565C177.681 85.786 178.171 86.0737 178.684 86.3162Z" fill="#19884A"/>
<path d="M210.211 47.737C210.211 47.737 205.648 40.0435 201.053 44.4214C200.76 44.5542 200.516 44.7764 200.356 45.0562C200.197 45.336 200.13 45.659 200.166 45.979C200.166 45.979 200.557 45.7302 200.933 46.5632C201.068 46.8594 201.237 47.1384 201.438 47.3941C201.708 47.7401 202.084 47.9876 202.509 48.0982C202.509 48.0982 204.774 49.5951 208.722 48.0982C208.722 48.0982 209.868 48.1945 210.042 48.042L208.664 47.1551C208.308 47.7449 207.74 48.1765 207.076 48.3614C207.076 48.3614 208.666 47.2279 208.466 47.0147C208.424 46.9699 207.714 46.5761 207.714 46.5761C207.714 46.5761 206.642 48.3713 205.133 48.589C205.133 48.589 207.209 47.4912 207.45 46.4259L206.342 45.9047C206.342 45.9047 205.301 47.8592 203.585 48.171C203.585 48.171 205.711 46.9487 206.09 45.806L204.93 45.4305C204.93 45.4305 203.879 47.3076 202.45 47.5655C202.45 47.5655 204.765 45.9047 204.658 45.3652C204.199 45.2356 203.726 45.1629 203.249 45.149C203.249 45.149 202.462 46.4843 201.62 46.5564C201.62 46.5564 203.049 45.2848 202.942 45.1065C202.163 45.1059 201.39 45.2492 200.664 45.5291C201.347 45.1171 202.127 44.8906 202.925 44.872C202.578 44.5233 202.136 44.2836 201.654 44.1824C201.654 44.1824 202.465 43.7909 203.298 44.872C203.747 44.8749 204.193 44.9283 204.629 45.0314C204.267 44.3914 203.783 43.8286 203.204 43.3751C203.204 43.3751 204.303 43.5018 204.939 45.1201L206.113 45.4722C205.749 44.7038 205.262 44 204.67 43.3887C204.67 43.3887 205.774 43.6922 206.403 45.5852L207.495 46.0944C207.196 45.3431 206.801 44.6335 206.321 43.9828C207.09 44.5252 207.623 45.3387 207.815 46.259L208.503 46.6862C208.503 46.6862 208.061 45.6421 207.906 45.3531C207.75 45.064 207.817 45.001 207.817 45.001C208.309 45.5179 208.648 46.1611 208.796 46.8591C209.24 47.1944 209.714 47.4882 210.211 47.737Z" fill="#19884A"/>
<path d="M181.348 63.9155C181.348 63.9155 181.582 54.9761 175.368 56.2356C175.048 56.1922 174.723 56.2507 174.439 56.4027C174.155 56.5548 173.926 56.7926 173.785 57.0824C173.785 57.0824 174.255 57.0824 174.123 57.986C174.08 58.3081 174.076 58.6341 174.109 58.9572C174.153 59.3959 174.339 59.8082 174.641 60.1302C174.641 60.1302 175.761 62.6029 179.896 63.4435C179.896 63.4435 180.814 64.1355 181.044 64.0983L180.339 62.6158C179.724 62.9246 179.014 62.9875 178.353 62.7918C178.353 62.7918 180.302 62.6765 180.251 62.3904C180.251 62.332 179.847 61.6188 179.847 61.6188C179.847 61.6188 177.983 62.5687 176.582 61.9451C176.582 61.9451 178.93 62.1211 179.696 61.3495L179.04 60.31C179.04 60.31 177.119 61.4079 175.5 60.7607C175.5 60.7607 177.954 60.8593 178.883 60.0922L178.101 59.1537C178.101 59.1537 176.203 60.1909 174.863 59.6416C174.863 59.6416 177.708 59.4701 177.915 58.9519C177.593 58.5977 177.231 58.2827 176.835 58.0133C176.835 58.0133 175.459 58.7174 174.709 58.3373C174.709 58.3373 176.588 58.0232 176.599 57.8138C175.941 57.3987 175.212 57.1091 174.448 56.9595C175.247 56.9736 176.028 57.1967 176.714 57.6066C176.607 57.1269 176.362 56.6889 176.009 56.3464C176.009 56.3464 176.904 56.4473 177.026 57.8009C177.405 58.0414 177.754 58.3247 178.068 58.6453C178.106 57.9106 177.996 57.1758 177.744 56.4845C177.744 56.4845 178.608 57.1764 178.284 58.8851L179.09 59.8092C179.19 58.9649 179.153 58.1098 178.98 57.2774C178.98 57.2774 179.749 58.1196 179.276 60.0581L179.926 61.0695C180.075 60.2692 180.118 59.453 180.055 58.6416C180.415 59.511 180.432 60.4841 180.103 61.3654L180.459 62.093C180.459 62.093 180.64 60.9739 180.664 60.6514C180.687 60.329 180.776 60.3039 180.776 60.3039C180.917 61.0039 180.861 61.7295 180.614 62.3995C180.811 62.9268 181.056 63.4343 181.348 63.9155Z" fill="#19884A"/>
<path d="M144.366 120.291C144.315 120.384 144.236 120.77 144.129 121.451C144.009 122.111 143.885 122.933 143.757 123.916C143.616 124.88 143.477 125.921 143.342 127.04C143.21 128.142 143.096 129.187 143.001 130.177C142.893 131.147 142.818 131.978 142.778 132.67C142.723 133.342 142.72 133.734 142.768 133.845C142.885 134.139 143.105 134.341 143.426 134.451C143.75 134.544 143.998 134.589 144.169 134.586C144.222 134.579 144.304 134.406 144.417 134.068C144.529 133.731 144.663 133.277 144.818 132.708C144.956 132.136 145.109 131.482 145.278 130.745C145.446 130.008 145.609 129.252 145.767 128.479C145.928 127.69 146.086 126.917 146.24 126.16C146.398 125.387 146.534 124.686 146.648 124.059C146.763 123.431 146.851 122.901 146.912 122.469C146.974 122.037 146.999 121.76 146.987 121.638C146.963 121.395 146.835 121.158 146.604 120.929C146.373 120.699 146.108 120.514 145.809 120.374C145.514 120.218 145.231 120.133 144.96 120.118C144.677 120.083 144.478 120.141 144.366 120.291ZM141.946 135.973C141.859 136.077 141.804 136.237 141.781 136.455C141.745 136.653 141.731 136.872 141.739 137.113C141.733 137.333 141.751 137.558 141.795 137.788C141.825 137.998 141.869 138.177 141.927 138.324C141.975 138.435 142.051 138.534 142.155 138.621C142.258 138.709 142.375 138.772 142.504 138.813C142.63 138.87 142.751 138.909 142.866 138.93C142.982 138.951 143.073 138.968 143.139 138.98C143.241 138.981 143.362 138.927 143.501 138.815C143.625 138.701 143.744 138.561 143.86 138.394C143.962 138.208 144.049 138.011 144.121 137.802C144.196 137.577 144.227 137.361 144.213 137.154C144.197 136.963 144.087 136.772 143.883 136.582C143.681 136.374 143.456 136.205 143.207 136.075C142.941 135.941 142.691 135.861 142.457 135.836C142.21 135.791 142.039 135.837 141.946 135.973Z" fill="#E73C17"/>
<path d="M27.0247 37.1443C26.8038 37.0512 26.614 36.8971 26.4774 36.7001C26.3408 36.5031 26.2632 36.2713 26.2535 36.0318L25.9805 29.6981C25.9709 29.5013 26.0072 29.305 26.0865 29.1246C26.1659 28.9443 26.2862 28.7849 26.4378 28.6591C26.5895 28.5333 26.7683 28.4445 26.9602 28.3998C27.1521 28.355 27.3518 28.3556 27.5434 28.4014C28.0719 28.5154 28.6181 28.5203 29.1486 28.4159C29.679 28.3114 30.1825 28.0998 30.6283 27.7939C31.0388 27.5341 31.3917 27.193 31.6652 26.7915C31.9387 26.39 32.127 25.9368 32.2186 25.4598C32.2804 24.9767 32.2446 24.4862 32.1133 24.0172C31.982 23.5483 31.7578 23.1104 31.4542 22.7297C31.1343 22.2966 30.7322 21.9307 30.2707 21.6532C29.8093 21.3756 29.2977 21.1918 28.7651 21.1122C27.6912 21.0525 26.6285 21.3569 25.7491 21.9762C24.8697 22.5955 24.225 23.4935 23.9193 24.5247C23.8174 24.8372 23.5988 25.0983 23.3091 25.2536C23.0195 25.4089 22.6811 25.4465 22.3644 25.3586C22.0477 25.2706 21.7772 25.0638 21.6091 24.7814C21.4411 24.4989 21.3885 24.1625 21.4623 23.8422C21.9266 22.2202 22.9353 20.8075 24.3187 19.8417C25.7021 18.8759 27.3759 18.416 29.0586 18.5391C29.9344 18.6558 30.7778 18.9473 31.5387 19.3964C32.2997 19.8454 32.9625 20.4429 33.488 21.1531C33.9992 21.8114 34.3732 22.5656 34.5877 23.371C34.8022 24.1764 34.853 25.0166 34.737 25.842C34.5819 26.6661 34.2596 27.4498 33.7901 28.1447C33.3206 28.8396 32.7138 29.431 32.007 29.8824C30.983 30.5718 29.787 30.9618 28.5535 31.0085L28.7651 35.8953C28.773 36.11 28.7266 36.3232 28.6302 36.5152C28.5337 36.7072 28.3904 36.8717 28.2134 36.9935C28.0365 37.1154 27.8316 37.1906 27.6178 37.2121C27.4041 37.2337 27.1883 37.201 26.9906 37.117L27.0247 37.1443Z" fill="#72D250"/>
<path d="M5.09555 28.2101C5.12486 28.0751 5.14538 27.9383 5.15698 27.8006C5.15698 27.5003 5.23205 27.1181 5.28665 26.5789C5.35379 25.917 5.46551 25.2603 5.62107 24.6133C5.7098 24.2311 5.75757 23.808 5.89407 23.378C6.03057 22.948 6.16709 22.4839 6.31724 22.013C7.10741 19.6797 8.25893 17.4849 9.72978 15.5087C11.6574 12.9497 14.1012 10.8244 16.9029 9.27058C18.4976 8.37148 20.1959 7.67015 21.9603 7.18212C23.8644 6.67736 25.8258 6.42044 27.7957 6.41771C28.8334 6.40104 29.871 6.45577 30.9011 6.58151C31.4266 6.63611 31.9453 6.77261 32.4709 6.86134C33.0023 6.95237 33.5268 7.08007 34.0406 7.24354C36.1919 7.84471 38.2382 8.77233 40.1081 9.99404C44.266 12.6908 47.4331 16.6677 49.1309 21.3236C50.0451 23.8177 50.5074 26.4547 50.4959 29.111C50.5241 31.8475 50.0402 34.5651 49.0694 37.1237L48.7623 37.9017L48.7213 38.0041L48.7623 38.1065C50.4754 42.0445 52.1749 45.9144 53.7787 49.6613L54.0654 49.3337L43.8278 45.4093L43.7049 45.3615L43.6026 45.4571C40.8943 48.0812 37.5789 49.9944 33.9519 51.0263C30.8527 51.8795 27.6079 52.0658 24.4314 51.5729C21.2549 51.0799 18.2191 49.919 15.5242 48.1666C13.317 46.7192 11.3716 44.9076 9.77072 42.8089C7.45079 39.7457 5.9477 36.143 5.40269 32.3393C5.32079 31.6568 5.25252 31.0835 5.19109 30.5648C5.12967 30.0461 5.1911 29.6229 5.15698 29.2612C5.12285 28.8995 5.15698 28.6606 5.15698 28.4627C5.19101 28.4575 5.22184 28.4397 5.24329 28.4127C5.26473 28.3858 5.2752 28.3518 5.27261 28.3174C5.27003 28.2831 5.25455 28.251 5.22931 28.2276C5.20407 28.2042 5.17093 28.1912 5.1365 28.1912C5.10208 28.1912 5.06893 28.2042 5.04369 28.2276C5.01845 28.251 5.00298 28.2831 5.00039 28.3174C4.9978 28.3518 5.00827 28.3858 5.02971 28.4127C5.05116 28.4397 5.08199 28.4575 5.11603 28.4627C5.11603 28.6606 5.11603 28.9268 5.11603 29.2612C5.11603 29.5956 5.11603 30.0597 5.11603 30.5784C5.11603 31.0971 5.23205 31.6909 5.3003 32.3666C5.5248 34.0082 5.91586 35.6227 6.4674 37.1851C7.24867 39.2484 8.29976 41.1991 9.59327 42.9864C11.2005 45.1224 13.1601 46.9688 15.3877 48.4464C18.1158 50.2426 21.1946 51.438 24.42 51.9534C27.6453 52.4688 30.9433 52.2924 34.0952 51.4358C37.7659 50.3933 41.1229 48.4617 43.8687 45.812L43.6435 45.8598L53.8811 49.8046L54.393 50.0026L54.1678 49.477C52.5434 45.7301 50.8644 41.8671 49.1582 37.9222V38.1201L49.4721 37.3216C50.468 34.7072 50.9634 31.929 50.9327 29.1315C50.9541 26.4188 50.4919 23.724 49.5676 21.1735C47.8334 16.4247 44.5957 12.3722 40.347 9.63231C38.43 8.38211 36.33 7.43804 34.1225 6.83404C33.6004 6.66877 33.0666 6.54328 32.5255 6.45866C31.9931 6.36311 31.4676 6.22661 30.9352 6.17883C29.8916 6.04926 28.8405 5.98998 27.7889 6.00138C25.7875 6.00985 23.7958 6.28061 21.8647 6.80674C20.077 7.31443 18.3562 8.03389 16.7391 8.94981C13.9094 10.5418 11.4504 12.717 9.52501 15.3312C8.0586 17.3401 6.9227 19.5705 6.16026 21.9379C6.01693 22.4293 5.88044 22.9002 5.75758 23.3029C5.64907 23.7144 5.5625 24.1313 5.49823 24.5519C5.35187 25.2033 5.25602 25.865 5.21157 26.5312C5.17062 27.0567 5.14333 27.4594 5.12286 27.7597C5.09417 27.908 5.08499 28.0594 5.09555 28.2101Z" fill="#263238"/>
</svg>
