<svg width="310" height="310" viewBox="0 0 310 310" fill="none" xmlns="http://www.w3.org/2000/svg">
<path d="M155 274.405C221.391 274.405 275.212 271.263 275.212 267.387C275.212 263.51 221.391 260.368 155 260.368C88.6089 260.368 34.7882 263.51 34.7882 267.387C34.7882 271.263 88.6089 274.405 155 274.405Z" fill="#F5F5F5"/>
<path d="M147.808 211.748H28.0922C27.1538 211.746 26.2543 211.373 25.5907 210.709C24.9272 210.046 24.5536 209.146 24.552 208.208V39.9213C24.5618 38.9883 24.9389 38.0967 25.6016 37.4398C26.2643 36.7829 27.1591 36.4137 28.0922 36.4121H147.808C148.746 36.4138 149.645 36.7875 150.307 37.4512C150.97 38.1149 151.342 39.0145 151.342 39.9523V208.208C151.342 209.146 150.97 210.045 150.307 210.709C149.645 211.373 148.746 211.746 147.808 211.748ZM28.0922 36.5361C27.1949 36.5377 26.3348 36.8949 25.7003 37.5294C25.0658 38.1639 24.7086 39.024 24.707 39.9213V208.208C24.7086 209.105 25.0658 209.965 25.7003 210.6C26.3348 211.234 27.1949 211.591 28.0922 211.593H147.808C148.705 211.591 149.564 211.234 150.198 210.599C150.831 209.965 151.187 209.105 151.187 208.208V39.9213C151.187 39.0246 150.831 38.1645 150.198 37.5298C149.564 36.8951 148.705 36.5378 147.808 36.5361H28.0922Z" fill="#E6E6E6"/>
<path d="M281.914 211.748H162.192C161.254 211.746 160.355 211.373 159.693 210.709C159.03 210.045 158.658 209.146 158.658 208.208V39.9213C158.666 38.9888 159.042 38.0973 159.704 37.4402C160.365 36.7832 161.259 36.4137 162.192 36.4121H281.914C282.846 36.4137 283.741 36.7832 284.402 37.4402C285.064 38.0973 285.44 38.9888 285.448 39.9213V208.208C285.448 209.146 285.076 210.045 284.413 210.709C283.751 211.373 282.852 211.746 281.914 211.748ZM162.192 36.5361C161.295 36.5378 160.436 36.8951 159.802 37.5298C159.169 38.1645 158.813 39.0246 158.813 39.9213V208.208C158.813 209.105 159.169 209.965 159.802 210.599C160.436 211.234 161.295 211.591 162.192 211.593H281.914C282.812 211.591 283.673 211.234 284.308 210.6C284.944 209.966 285.302 209.106 285.305 208.208V39.9213C285.302 39.0234 284.944 38.1634 284.308 37.529C283.673 36.8947 282.812 36.5377 281.914 36.5361H162.192Z" fill="#E6E6E6"/>
<path d="M53.2827 243.17H27.7325V243.325H53.2827V243.17Z" fill="#E0E0E0"/>
<path d="M105.363 241.93H79.7382V242.085H105.363V241.93Z" fill="#E0E0E0"/>
<path d="M138.706 241.93H132.506V242.085H138.706V241.93Z" fill="#E0E0E0"/>
<path d="M76.7374 247.225H48.0624V247.38H76.7374V247.225Z" fill="#E0E0E0"/>
<path d="M175.919 243.089H162.527V243.244H175.919V243.089Z" fill="#E0E0E0"/>
<path d="M198.753 243.089H181.437V243.244H198.753V243.089Z" fill="#E0E0E0"/>
<path d="M282.267 245.712H243.555V245.867H282.267V245.712Z" fill="#E0E0E0"/>
<path d="M310 237.088H0V237.243H310V237.088Z" fill="#EBEBEB"/>
<path opacity="0.8" d="M207.595 49.2776L206.051 70.5312C205.998 71.2514 205.693 71.9299 205.189 72.447C204.902 72.7533 204.555 72.9982 204.17 73.1666C203.786 73.3349 203.371 73.4234 202.951 73.4266H185.907C185.535 73.4304 185.166 73.3565 184.823 73.2097C184.481 73.0629 184.173 72.8463 183.92 72.5739C183.666 72.3014 183.472 71.979 183.35 71.6273C183.227 71.2756 183.18 70.9023 183.21 70.5312L184.76 49.2776C184.823 48.4955 185.176 47.7653 185.749 47.2297C186.323 46.6942 187.075 46.392 187.86 46.3822H204.904C205.276 46.3763 205.646 46.4489 205.989 46.5951C206.332 46.7414 206.64 46.958 206.894 47.231C207.147 47.504 207.341 47.8272 207.462 48.1798C207.582 48.5323 207.628 48.9064 207.595 49.2776Z" fill="#E0E0E0"/>
<path d="M200.081 59.8461C200.728 56.756 199.222 53.8262 196.719 53.3023C194.215 52.7783 191.661 54.8586 191.014 57.9488C190.368 61.0389 191.873 63.9687 194.377 64.4926C196.88 65.0166 199.434 62.9363 200.081 59.8461Z" fill="white"/>
<path d="M202.356 71.9625H186.756C185.764 71.9625 185.082 71.4851 185.058 70.8217C185.02 69.8545 190.08 65.6695 194.878 66.0353H194.99C197.938 66.1397 200.766 67.2314 203.019 69.1353C205.338 70.9581 203.149 71.9625 202.356 71.9625Z" fill="white"/>
<path d="M119.66 72.6511C118.03 72.6447 116.46 72.0326 115.256 70.9339C114.052 69.8351 113.299 68.328 113.144 66.7053C113.071 65.9346 113.16 65.1574 113.405 64.4229C113.649 63.6884 114.044 63.0128 114.563 62.4391C115.083 61.8653 115.716 61.4059 116.423 61.09C117.129 60.7742 117.894 60.6089 118.668 60.6045C120.298 60.6109 121.868 61.2229 123.072 62.3217C124.276 63.4205 125.029 64.9276 125.184 66.5503C125.256 67.321 125.168 68.0982 124.923 68.8327C124.679 69.5672 124.284 70.2428 123.765 70.8165C123.245 71.3903 122.612 71.8497 121.905 72.1655C121.199 72.4814 120.434 72.6467 119.66 72.6511ZM118.935 63.8037C118.571 63.8037 118.212 63.8797 117.88 64.027C117.547 64.1742 117.25 64.3893 117.005 64.6586C116.761 64.9278 116.576 65.2451 116.462 65.5901C116.348 65.9351 116.307 66.3002 116.343 66.6619C116.419 67.4218 116.773 68.1268 117.338 68.6416C117.902 69.1565 118.636 69.445 119.4 69.4519C119.762 69.451 120.121 69.3743 120.453 69.2267C120.784 69.0791 121.081 68.8639 121.325 68.5947C121.568 68.3256 121.752 68.0086 121.866 67.664C121.98 67.3194 122.02 66.9548 121.985 66.5937C121.909 65.837 121.557 65.1345 120.997 64.6201C120.437 64.1057 119.707 63.8151 118.947 63.8037H118.935Z" fill="#E0E0E0"/>
<path d="M119.97 63.3389L117.688 63.3699L116.473 48.6635L118.761 48.6387L119.97 63.3389Z" fill="#E0E0E0"/>
<path d="M120.925 49.2956L116.634 49.3514L116.448 47.0636L120.739 47.0078L120.925 49.2956Z" fill="#E0E0E0"/>
<path d="M121.173 52.2341L117.137 52.2837L116.951 49.9959L120.981 49.9463L121.173 52.2341Z" fill="#E0E0E0"/>
<path d="M121.52 56.3763L117.998 56.4197L117.806 54.1381L121.328 54.0947L121.52 56.3763Z" fill="#E0E0E0"/>
<path d="M49.1722 197.637C49.1854 197.822 49.2082 198.006 49.2404 198.189C49.4541 199.378 50.048 200.466 50.933 201.289C51.9383 202.243 53.2672 202.781 54.653 202.795H107.037C108.278 202.815 109.477 202.345 110.373 201.486C111.27 200.626 111.791 199.448 111.823 198.207C111.837 197.472 111.706 196.741 111.436 196.057C111.167 195.372 110.764 194.748 110.253 194.22C109.741 193.691 109.13 193.269 108.455 192.978C107.779 192.687 107.053 192.532 106.318 192.522H53.94C53.2817 192.514 52.6289 192.643 52.0235 192.902C51.4181 193.161 50.8734 193.543 50.4245 194.025C49.9756 194.506 49.6323 195.076 49.4166 195.698C49.201 196.32 49.1177 196.981 49.1722 197.637Z" fill="#F0F0F0"/>
<path d="M111.842 198.189C111.838 198.355 111.821 198.521 111.792 198.685C111.641 197.332 111 196.08 109.991 195.167C108.981 194.253 107.673 193.74 106.311 193.725L50.6044 193.811C51.5044 192.949 52.7059 192.473 53.9524 192.485H106.336C107.076 192.479 107.809 192.624 108.492 192.91C109.174 193.196 109.791 193.617 110.306 194.149C110.821 194.68 111.222 195.311 111.486 196.002C111.75 196.693 111.871 197.431 111.842 198.17V198.189Z" fill="#E0E0E0"/>
<path d="M102.877 194.978L103.05 197.458L105.4 196.583L105.933 197.823L103.54 198.642L105.214 200.744L104.16 201.537L102.529 199.355L101.227 201.537L100.068 200.744L101.426 198.642L98.9458 197.854L99.2992 196.614L101.779 197.458L101.606 194.978H102.877Z" fill="white"/>
<path d="M88.5484 194.977L88.7282 197.457L91.0718 196.583L91.605 197.823L89.2056 198.61L90.8858 200.712L89.8008 201.506L88.1702 199.323L86.8682 201.506L85.7088 200.712L87.0665 198.61L84.5865 197.823L84.9461 196.583L87.4261 197.426L87.2525 194.946L88.5484 194.977Z" fill="white"/>
<path d="M74.2264 194.977L74.4 197.457L76.7498 196.583L77.283 197.823L74.8836 198.61L76.5576 200.712L75.4726 201.506L73.842 199.323L72.54 201.506L71.3806 200.712L72.7384 198.61L70.2584 197.823L70.618 196.583L73.098 197.426L72.9244 194.946L74.2264 194.977Z" fill="white"/>
<path d="M59.8982 194.978L60.0718 197.458L62.4216 196.583L62.9548 197.823L60.5554 198.611L62.2294 200.713L61.1506 201.506L59.52 199.355L58.2118 201.537L57.04 200.744L58.404 198.642L55.924 197.854L56.2836 196.614L58.7636 197.458L58.59 194.978H59.8982Z" fill="white"/>
<path d="M94.6988 190.693H92.256L92.2622 190.073H94.705L94.6988 190.693Z" fill="#E0E0E0"/>
<path d="M105.195 190.693H97.2284L97.2408 190.073H105.208L105.195 190.693Z" fill="#E0E0E0"/>
<g opacity="0.8">
<path d="M167.016 187.568L176.898 202.777L209.486 170.19C209.517 170.162 209.543 170.127 209.562 170.089C209.58 170.051 209.591 170.01 209.594 169.968C209.597 169.925 209.591 169.883 209.577 169.843C209.563 169.803 209.542 169.766 209.514 169.734C209.485 169.702 209.451 169.676 209.413 169.658C209.375 169.639 209.334 169.628 209.291 169.626C209.249 169.623 209.207 169.629 209.167 169.643C209.127 169.656 209.09 169.678 209.058 169.706L178.002 194.06L172.137 184.605L167.016 187.568Z" fill="#E0E0E0"/>
</g>
<path opacity="0.1" d="M161.113 79.3291L137.714 166.848H145.582L168.721 79.3291H161.113Z" fill="white"/>
<path opacity="0.1" d="M173.259 79.3291L149.86 166.848H165.472L188.61 79.3291H173.259Z" fill="white"/>
<path d="M257.492 158.293L262.452 88.0467C262.498 87.5069 262.43 86.9635 262.253 86.4517C262.076 85.9398 261.793 85.4708 261.423 85.0751C261.053 84.6795 260.604 84.3659 260.106 84.1547C259.607 83.9435 259.069 83.8395 258.528 83.8493L135.929 83.9547C134.788 83.9704 133.694 84.4092 132.859 85.1859C132.024 85.9627 131.507 87.022 131.409 88.1583L126.48 158.41C126.435 158.951 126.503 159.494 126.681 160.006C126.859 160.518 127.143 160.987 127.513 161.382C127.883 161.778 128.333 162.091 128.832 162.302C129.331 162.513 129.869 162.618 130.411 162.608L252.96 162.502C254.104 162.491 255.202 162.053 256.041 161.275C256.879 160.496 257.396 159.433 257.492 158.293Z" fill="#263238"/>
<path d="M255.917 156.761L260.877 86.5146C260.924 85.9746 260.857 85.4308 260.681 84.9185C260.504 84.4062 260.221 83.9368 259.851 83.541C259.481 83.1451 259.031 82.8315 258.532 82.6207C258.033 82.4098 257.495 82.3064 256.953 82.3172L134.354 82.4226C133.214 82.4371 132.12 82.8756 131.285 83.6527C130.451 84.4299 129.936 85.4899 129.84 86.6262L124.88 156.878C124.834 157.418 124.902 157.961 125.079 158.473C125.256 158.985 125.539 159.454 125.909 159.85C126.279 160.246 126.728 160.559 127.227 160.77C127.726 160.981 128.263 161.086 128.805 161.076L251.398 160.97C252.539 160.956 253.635 160.517 254.47 159.738C255.306 158.96 255.822 157.898 255.917 156.761Z" fill="#92E3A9"/>
<path opacity="0.6" d="M252.669 157.802C252.417 158.034 252.087 158.162 251.745 158.162L129.146 158.267C128.949 158.265 128.755 158.223 128.575 158.144C128.395 158.064 128.233 157.95 128.098 157.806C127.964 157.662 127.86 157.493 127.793 157.308C127.726 157.123 127.697 156.926 127.708 156.73L132.668 86.4838C132.687 86.1427 132.838 85.8225 133.089 85.591C133.339 85.3568 133.67 85.228 134.013 85.2314L256.612 85.126C256.809 85.1282 257.003 85.1702 257.183 85.2495C257.363 85.3289 257.525 85.4438 257.659 85.5875C257.794 85.7312 257.898 85.9006 257.965 86.0856C258.032 86.2705 258.061 86.4671 258.05 86.6636L253.09 156.91C253.068 157.25 252.917 157.569 252.669 157.802Z" fill="white"/>
<path d="M211.891 119.183H168.857C168.478 119.189 168.114 119.333 167.832 119.587C167.55 119.841 167.37 120.189 167.326 120.565L166.662 126.858C166.641 127.033 166.657 127.211 166.71 127.379C166.763 127.547 166.851 127.702 166.968 127.833C167.086 127.964 167.23 128.069 167.391 128.141C167.552 128.212 167.726 128.248 167.902 128.247H210.936C211.317 128.239 211.682 128.095 211.964 127.84C212.247 127.585 212.428 127.236 212.474 126.858L213.131 120.565C213.151 120.391 213.134 120.214 213.081 120.047C213.028 119.88 212.94 119.725 212.823 119.595C212.705 119.464 212.562 119.36 212.401 119.289C212.241 119.218 212.067 119.181 211.891 119.183Z" fill="white"/>
<path d="M173.978 144.882H167.264C166.883 144.89 166.518 145.034 166.236 145.289C165.953 145.544 165.772 145.893 165.726 146.271L165.069 152.564C165.049 152.738 165.066 152.915 165.119 153.082C165.172 153.249 165.26 153.404 165.377 153.534C165.495 153.665 165.638 153.769 165.799 153.84C165.959 153.911 166.133 153.947 166.309 153.946H173.023C173.403 153.939 173.767 153.795 174.05 153.541C174.332 153.287 174.513 152.94 174.561 152.564L175.218 146.271C175.239 146.096 175.223 145.918 175.17 145.75C175.117 145.582 175.029 145.427 174.912 145.296C174.795 145.165 174.651 145.06 174.49 144.988C174.329 144.917 174.154 144.881 173.978 144.882Z" fill="white"/>
<path d="M185.572 144.882H178.858C178.477 144.89 178.112 145.034 177.83 145.289C177.547 145.544 177.366 145.893 177.32 146.271L176.663 152.564C176.643 152.738 176.66 152.915 176.713 153.082C176.766 153.249 176.854 153.404 176.971 153.534C177.089 153.665 177.232 153.769 177.393 153.84C177.553 153.911 177.727 153.947 177.903 153.946H184.617C184.997 153.939 185.361 153.795 185.644 153.541C185.926 153.287 186.107 152.94 186.155 152.564L186.812 146.271C186.833 146.096 186.817 145.918 186.764 145.75C186.711 145.582 186.623 145.427 186.506 145.296C186.389 145.165 186.245 145.06 186.084 144.988C185.923 144.917 185.748 144.881 185.572 144.882Z" fill="white"/>
<path d="M197.16 144.882H190.452C190.071 144.89 189.706 145.034 189.424 145.289C189.141 145.544 188.96 145.893 188.914 146.271L188.257 152.564C188.237 152.738 188.254 152.915 188.307 153.082C188.36 153.249 188.448 153.404 188.565 153.534C188.683 153.665 188.826 153.769 188.987 153.84C189.147 153.911 189.321 153.947 189.497 153.946H196.211C196.591 153.939 196.955 153.795 197.238 153.541C197.52 153.287 197.701 152.94 197.749 152.564L198.4 146.271C198.421 146.096 198.405 145.918 198.352 145.75C198.299 145.582 198.211 145.427 198.094 145.296C197.977 145.165 197.833 145.06 197.672 144.988C197.511 144.917 197.336 144.881 197.16 144.882Z" fill="white"/>
<path d="M208.76 144.882H202.046C201.665 144.89 201.3 145.034 201.018 145.289C200.735 145.544 200.554 145.893 200.508 146.271L199.851 152.564C199.831 152.738 199.848 152.915 199.901 153.082C199.954 153.249 200.042 153.404 200.159 153.534C200.277 153.665 200.42 153.769 200.581 153.84C200.741 153.911 200.915 153.947 201.091 153.946H207.805C208.185 153.939 208.549 153.795 208.832 153.541C209.114 153.287 209.295 152.94 209.343 152.564L210 146.271C210.021 146.096 210.005 145.918 209.952 145.75C209.899 145.582 209.811 145.427 209.694 145.296C209.577 145.165 209.433 145.06 209.272 144.988C209.111 144.917 208.936 144.881 208.76 144.882Z" fill="white"/>
<path d="M201.171 140.907H174.257C173.913 140.915 173.57 140.849 173.254 140.712C172.937 140.576 172.654 140.373 172.423 140.117C172.192 139.861 172.019 139.558 171.916 139.229C171.813 138.9 171.783 138.552 171.827 138.21L172.149 135.11C172.239 134.392 172.584 133.731 173.121 133.247C173.659 132.763 174.352 132.489 175.076 132.475H201.99C202.335 132.468 202.677 132.535 202.994 132.672C203.31 132.809 203.594 133.013 203.824 133.27C204.055 133.526 204.228 133.83 204.331 134.159C204.433 134.488 204.464 134.836 204.42 135.178L204.098 138.278C204.007 138.995 203.661 139.655 203.124 140.138C202.587 140.62 201.894 140.894 201.171 140.907ZM175.076 133.101C174.505 133.115 173.957 133.332 173.533 133.714C173.109 134.096 172.836 134.618 172.763 135.185L172.441 138.285C172.406 138.54 172.428 138.801 172.504 139.047C172.581 139.294 172.71 139.521 172.883 139.712C173.055 139.904 173.268 140.056 173.505 140.157C173.743 140.259 173.999 140.307 174.257 140.3H201.171C201.742 140.288 202.289 140.072 202.713 139.691C203.138 139.309 203.411 138.788 203.484 138.223L203.806 135.123C203.841 134.867 203.819 134.607 203.743 134.36C203.666 134.113 203.537 133.886 203.364 133.695C203.192 133.503 202.979 133.351 202.742 133.25C202.504 133.148 202.248 133.1 201.99 133.108L175.076 133.101Z" fill="#92E3A9"/>
<path d="M213.441 106.076H170.407C170.028 106.085 169.664 106.231 169.383 106.486C169.102 106.741 168.922 107.088 168.876 107.465L168.212 113.758C168.192 113.932 168.209 114.109 168.262 114.276C168.316 114.444 168.404 114.598 168.521 114.729C168.638 114.859 168.782 114.964 168.942 115.035C169.103 115.106 169.277 115.142 169.452 115.141H212.48C212.86 115.133 213.224 114.989 213.506 114.736C213.789 114.482 213.97 114.135 214.018 113.758L214.675 107.465C214.696 107.291 214.68 107.114 214.627 106.946C214.575 106.779 214.488 106.624 214.371 106.493C214.254 106.361 214.111 106.256 213.951 106.185C213.791 106.113 213.617 106.076 213.441 106.076Z" fill="white"/>
<path d="M174.09 123.715C174.116 123.52 174.099 123.323 174.042 123.135C173.984 122.948 173.886 122.775 173.756 122.629C173.625 122.483 173.464 122.367 173.284 122.289C173.104 122.211 172.909 122.173 172.713 122.177C172.292 122.187 171.889 122.348 171.576 122.63C171.263 122.912 171.062 123.297 171.008 123.715C170.984 123.909 171.002 124.106 171.061 124.293C171.12 124.479 171.218 124.651 171.35 124.796C171.481 124.942 171.642 125.057 171.821 125.135C172.001 125.212 172.195 125.25 172.391 125.246C172.811 125.237 173.214 125.078 173.526 124.797C173.837 124.516 174.038 124.131 174.09 123.715Z" fill="#263238"/>
<path d="M178.827 123.715C178.852 123.52 178.834 123.322 178.776 123.135C178.717 122.947 178.619 122.775 178.488 122.629C178.357 122.483 178.195 122.367 178.015 122.289C177.835 122.211 177.64 122.173 177.444 122.177C177.023 122.186 176.62 122.346 176.308 122.629C175.996 122.911 175.796 123.297 175.745 123.715C175.72 123.909 175.737 124.106 175.795 124.292C175.854 124.479 175.951 124.651 176.082 124.796C176.213 124.942 176.373 125.057 176.553 125.135C176.732 125.212 176.926 125.25 177.122 125.246C177.542 125.238 177.946 125.078 178.259 124.797C178.572 124.516 178.773 124.132 178.827 123.715Z" fill="#263238"/>
<path d="M183.557 123.715C183.582 123.52 183.565 123.322 183.507 123.135C183.448 122.947 183.35 122.775 183.219 122.629C183.087 122.483 182.926 122.367 182.746 122.289C182.566 122.211 182.371 122.173 182.175 122.177C181.754 122.186 181.35 122.346 181.038 122.629C180.726 122.911 180.526 123.297 180.476 123.715C180.452 123.909 180.47 124.106 180.529 124.293C180.588 124.479 180.686 124.651 180.817 124.796C180.948 124.942 181.109 125.057 181.289 125.135C181.468 125.212 181.663 125.25 181.858 125.246C182.278 125.237 182.681 125.078 182.993 124.797C183.305 124.515 183.505 124.131 183.557 123.715Z" fill="#263238"/>
<path d="M188.288 123.715C188.314 123.52 188.297 123.323 188.24 123.135C188.182 122.948 188.084 122.775 187.954 122.629C187.823 122.483 187.662 122.367 187.482 122.289C187.302 122.211 187.107 122.173 186.911 122.177C186.491 122.186 186.087 122.346 185.775 122.629C185.463 122.911 185.263 123.297 185.213 123.715C185.187 123.911 185.205 124.111 185.265 124.299C185.325 124.488 185.425 124.661 185.559 124.807C185.694 124.952 185.858 125.066 186.042 125.141C186.225 125.216 186.422 125.25 186.62 125.24C187.034 125.224 187.428 125.062 187.733 124.783C188.039 124.504 188.235 124.125 188.288 123.715Z" fill="#263238"/>
<path d="M193.118 123.715C193.143 123.52 193.125 123.322 193.067 123.135C193.008 122.947 192.91 122.775 192.779 122.629C192.648 122.483 192.487 122.367 192.306 122.289C192.126 122.211 191.931 122.173 191.735 122.177C191.314 122.186 190.911 122.346 190.599 122.629C190.287 122.911 190.087 123.297 190.036 123.715C190.011 123.909 190.028 124.106 190.086 124.292C190.145 124.479 190.242 124.651 190.373 124.796C190.504 124.942 190.664 125.057 190.844 125.135C191.023 125.212 191.217 125.25 191.413 125.246C191.833 125.238 192.237 125.078 192.55 124.797C192.863 124.516 193.064 124.132 193.118 123.715Z" fill="#263238"/>
<path d="M175.64 110.608C175.666 110.414 175.65 110.217 175.592 110.029C175.534 109.842 175.436 109.67 175.306 109.524C175.175 109.379 175.014 109.263 174.834 109.186C174.654 109.109 174.459 109.071 174.263 109.077C173.844 109.085 173.441 109.245 173.129 109.526C172.817 109.807 172.617 110.191 172.565 110.608C172.538 110.802 172.555 111 172.613 111.187C172.67 111.374 172.768 111.546 172.899 111.692C173.03 111.838 173.191 111.953 173.371 112.03C173.551 112.108 173.745 112.145 173.941 112.139C174.361 112.132 174.765 111.973 175.077 111.692C175.389 111.41 175.589 111.025 175.64 110.608Z" fill="#263238"/>
<path d="M180.377 110.608C180.401 110.414 180.383 110.217 180.324 110.03C180.265 109.843 180.167 109.671 180.035 109.526C179.904 109.381 179.743 109.266 179.564 109.188C179.384 109.11 179.19 109.072 178.994 109.076C178.578 109.091 178.182 109.253 177.875 109.534C177.568 109.814 177.371 110.195 177.32 110.608C177.295 110.802 177.312 110.999 177.37 111.185C177.428 111.372 177.526 111.544 177.657 111.689C177.787 111.835 177.948 111.95 178.127 112.028C178.307 112.106 178.501 112.144 178.696 112.139C179.113 112.126 179.511 111.965 179.819 111.684C180.127 111.403 180.325 111.022 180.377 110.608Z" fill="#263238"/>
<path d="M185.107 110.608C185.132 110.414 185.115 110.217 185.057 110.03C184.999 109.844 184.901 109.672 184.77 109.526C184.64 109.381 184.479 109.265 184.3 109.188C184.12 109.11 183.926 109.072 183.731 109.076C183.31 109.085 182.907 109.244 182.594 109.525C182.281 109.806 182.079 110.191 182.026 110.608C182.001 110.802 182.018 111 182.076 111.187C182.135 111.374 182.233 111.546 182.365 111.692C182.496 111.837 182.657 111.953 182.837 112.03C183.018 112.107 183.212 112.144 183.408 112.139C183.829 112.132 184.232 111.973 184.544 111.691C184.856 111.41 185.056 111.025 185.107 110.608Z" fill="#263238"/>
<path d="M189.838 110.608C189.864 110.414 189.848 110.217 189.79 110.029C189.732 109.842 189.634 109.67 189.503 109.524C189.373 109.379 189.212 109.263 189.032 109.186C188.852 109.109 188.657 109.071 188.461 109.077C188.041 109.085 187.639 109.245 187.327 109.526C187.015 109.807 186.815 110.191 186.763 110.608C186.736 110.802 186.753 111 186.811 111.187C186.868 111.374 186.966 111.546 187.097 111.692C187.228 111.838 187.389 111.953 187.569 112.03C187.749 112.108 187.943 112.145 188.139 112.139C188.559 112.132 188.963 111.973 189.275 111.692C189.587 111.41 189.787 111.025 189.838 110.608Z" fill="#263238"/>
<path d="M194.575 110.608C194.599 110.414 194.581 110.217 194.522 110.03C194.463 109.843 194.364 109.671 194.233 109.526C194.102 109.381 193.941 109.266 193.762 109.188C193.582 109.11 193.388 109.072 193.192 109.076C192.772 109.085 192.369 109.245 192.057 109.526C191.745 109.807 191.545 110.191 191.493 110.608C191.468 110.802 191.485 111 191.544 111.187C191.602 111.374 191.701 111.546 191.832 111.692C191.963 111.837 192.125 111.953 192.305 112.03C192.485 112.107 192.68 112.144 192.876 112.139C193.296 112.132 193.699 111.973 194.012 111.691C194.324 111.41 194.524 111.025 194.575 110.608Z" fill="#263238"/>
<path d="M199.305 110.608C199.33 110.414 199.313 110.217 199.255 110.03C199.197 109.844 199.099 109.672 198.968 109.526C198.838 109.381 198.677 109.265 198.498 109.188C198.318 109.11 198.124 109.072 197.929 109.076C197.508 109.085 197.105 109.244 196.792 109.525C196.479 109.806 196.277 110.191 196.224 110.608C196.199 110.802 196.216 111 196.274 111.187C196.333 111.374 196.431 111.546 196.563 111.692C196.694 111.837 196.855 111.953 197.035 112.03C197.216 112.107 197.41 112.144 197.606 112.139C198.027 112.132 198.43 111.973 198.742 111.691C199.054 111.41 199.254 111.025 199.305 110.608Z" fill="#263238"/>
<path d="M195.3 92.1999L194.965 95.3805C194.942 95.5189 194.872 95.6452 194.767 95.7387C194.662 95.8321 194.529 95.8873 194.389 95.8951C194.323 95.8976 194.257 95.8855 194.196 95.8598C194.135 95.8341 194.08 95.7953 194.036 95.7463C193.992 95.6972 193.959 95.6391 193.939 95.5759C193.92 95.5127 193.914 95.446 193.924 95.3805L194.258 92.1999C194.288 91.9644 194.266 91.7254 194.195 91.4989C194.124 91.2725 194.005 91.064 193.846 90.8876C193.687 90.7112 193.493 90.571 193.275 90.4765C193.057 90.382 192.822 90.3354 192.584 90.3399H191.437C190.928 90.3521 190.439 90.5463 190.061 90.8875C189.682 91.2287 189.438 91.6943 189.373 92.1999L189.081 95.1511H188.04L188.331 92.1999C188.43 91.4109 188.809 90.6839 189.4 90.152C189.991 89.6202 190.754 89.3193 191.549 89.3045H192.69C193.06 89.2952 193.428 89.3661 193.768 89.5124C194.108 89.6586 194.413 89.8768 194.661 90.1518C194.909 90.4269 195.094 90.7524 195.205 91.1059C195.315 91.4594 195.348 91.8327 195.3 92.1999Z" fill="#92E3A9"/>
<path d="M195.3 95.2635L194.649 101.464C194.624 101.656 194.531 101.833 194.386 101.963C194.242 102.092 194.056 102.166 193.862 102.17H187.662C187.572 102.171 187.484 102.153 187.402 102.116C187.321 102.08 187.248 102.026 187.189 101.959C187.13 101.892 187.087 101.813 187.061 101.728C187.036 101.642 187.029 101.552 187.042 101.464L187.693 95.2635C187.705 95.1361 187.747 95.0134 187.816 94.9056C187.885 94.7978 187.979 94.7079 188.089 94.6435C188.208 94.5741 188.343 94.5378 188.48 94.5381H194.68C194.807 94.5368 194.931 94.5712 195.04 94.6373C195.139 94.7051 195.217 94.8005 195.263 94.9117C195.309 95.0229 195.322 95.1451 195.3 95.2635Z" fill="#92E3A9"/>
<path d="M228.699 82.3054C228.617 82.3054 228.538 82.2728 228.48 82.2146C228.422 82.1565 228.389 82.0776 228.389 81.9954C228.389 81.9132 228.422 81.8344 228.48 81.7762C228.538 81.7181 228.617 81.6854 228.699 81.6854L243.852 81.5986C243.934 81.5986 244.013 81.6313 244.071 81.6894C244.13 81.7476 244.162 81.8264 244.162 81.9086C244.162 81.9908 244.13 82.0697 244.071 82.1278C244.013 82.186 243.934 82.2186 243.852 82.2186L228.706 82.3054H228.699Z" fill="#263238"/>
<path d="M246.76 82.2001C246.678 82.2001 246.599 82.1674 246.541 82.1093C246.483 82.0511 246.45 81.9723 246.45 81.8901C246.45 81.8079 246.483 81.729 246.541 81.6709C246.599 81.6127 246.678 81.5801 246.76 81.5801H252.117C252.199 81.5801 252.278 81.6127 252.336 81.6709C252.394 81.729 252.427 81.8079 252.427 81.8901C252.427 81.9723 252.394 82.0511 252.336 82.1093C252.278 82.1674 252.199 82.2001 252.117 82.2001H246.76Z" fill="#263238"/>
<g opacity="0.3">
<path d="M145.762 85.2129H163.122L145.471 158.267H131.477C131.073 158.26 130.677 158.16 130.317 157.977C129.957 157.795 129.643 157.533 129.398 157.211C129.154 156.89 128.985 156.517 128.905 156.121C128.825 155.726 128.835 155.317 128.935 154.926L145.762 85.2129Z" fill="white"/>
<path d="M170.81 85.2129H178.169L160.537 158.267H153.177L170.81 85.2129Z" fill="white"/>
</g>
<path d="M53.723 62.4091H57.2446C56.4196 62.3974 55.6013 62.5587 54.8425 62.8828C54.0837 63.2068 53.4013 63.6864 52.8393 64.2904C52.2773 64.8945 51.8481 65.6097 51.5796 66.3899C51.3111 67.1701 51.2091 67.9979 51.2802 68.8199L58.7512 175.646C58.8929 177.376 59.6737 178.991 60.9415 180.176C62.2093 181.361 63.8731 182.032 65.6084 182.057H62.093C60.357 182.032 58.6925 181.361 57.4237 180.176C56.1549 178.991 55.3727 177.376 55.2296 175.646L47.74 68.8199C47.6687 67.9963 47.7712 67.1669 48.0408 66.3854C48.3105 65.6039 48.7413 64.8878 49.3053 64.2834C49.8693 63.6791 50.5541 63.1999 51.3151 62.877C52.0761 62.5541 52.8965 62.3947 53.723 62.4091Z" fill="#92E3A9"/>
<path d="M53.723 62.4088H57.2446C56.4195 62.3971 55.6012 62.5584 54.8424 62.8825C54.0836 63.2065 53.4012 63.6861 52.8392 64.2901C52.2772 64.8942 51.8481 65.6094 51.5795 66.3896C51.311 67.1698 51.209 67.9976 51.2802 68.8196L58.7512 175.646C58.8928 177.375 59.6736 178.99 60.9414 180.176C62.2092 181.361 63.873 182.031 65.6084 182.056H62.093C58.5528 182.056 54.9816 179.186 54.7336 175.646L47.2626 68.8196C47.0146 65.2794 50.1828 62.4088 53.723 62.4088Z" fill="#263238"/>
<path d="M63.1408 182.063H106.231C107.058 182.078 107.879 181.919 108.641 181.597C109.402 181.274 110.088 180.795 110.653 180.191C111.217 179.586 111.649 178.87 111.919 178.088C112.189 177.306 112.291 176.476 112.22 175.652L104.724 68.8199C104.584 67.088 103.803 65.4707 102.534 64.284C101.264 63.0973 99.5982 62.4266 97.8608 62.4029H54.777C53.9514 62.3911 53.1325 62.5526 52.3732 62.8771C51.614 63.2015 50.9312 63.6816 50.3691 64.2864C49.807 64.8911 49.378 65.6071 49.1099 66.388C48.8418 67.1689 48.7405 67.9974 48.8126 68.8199L56.2526 175.646C56.3946 177.382 57.1796 179.002 58.4538 180.189C59.728 181.376 61.3995 182.044 63.1408 182.063Z" fill="#92E3A9"/>
<g opacity="0.6">
<path d="M97.7492 64.4798C98.9564 64.4989 100.113 64.9665 100.995 65.7917C101.876 66.6169 102.419 67.7405 102.517 68.9438L109.988 175.77C110.039 176.315 109.974 176.865 109.797 177.383C109.621 177.901 109.337 178.376 108.964 178.777C108.591 179.178 108.138 179.496 107.634 179.71C107.13 179.923 106.586 180.028 106.039 180.017H62.9548C61.747 179.998 60.5894 179.53 59.707 178.705C58.8247 177.88 58.2807 176.757 58.1808 175.553L50.7408 68.7268C50.6904 68.1843 50.7545 67.6372 50.9292 67.1211C51.1038 66.6049 51.3849 66.1313 51.7544 65.7308C52.1239 65.3304 52.5734 65.0121 53.0738 64.7965C53.5743 64.581 54.1144 64.4731 54.6592 64.4798H97.7492Z" fill="white"/>
</g>
<g opacity="0.3">
<path d="M85.56 180.005H68.3922L82.5654 64.4805H96.3976C96.9949 64.4783 97.5863 64.5994 98.1346 64.8362C98.683 65.073 99.1765 65.4205 99.5844 65.8569L85.56 180.005Z" fill="white"/>
<path d="M65.3108 180.005H61.442L75.6152 64.4678H79.484L65.3108 180.005Z" fill="white"/>
</g>
<path d="M95.1824 115.258H63.9716C63.8894 115.258 63.8106 115.225 63.7524 115.167C63.6943 115.109 63.6616 115.03 63.6616 114.948C63.6616 114.865 63.6943 114.787 63.7524 114.728C63.8106 114.67 63.8894 114.638 63.9716 114.638H95.1824C95.2641 114.639 95.3421 114.672 95.3999 114.73C95.4577 114.788 95.4908 114.866 95.4924 114.948C95.4924 115.03 95.4598 115.109 95.4016 115.167C95.3435 115.225 95.2646 115.258 95.1824 115.258Z" fill="white"/>
<path d="M92.442 119.877H67.9954C67.9132 119.877 67.8344 119.844 67.7762 119.786C67.7181 119.728 67.6854 119.649 67.6854 119.567C67.6854 119.485 67.7181 119.406 67.7762 119.348C67.8344 119.289 67.9132 119.257 67.9954 119.257H92.442C92.5242 119.257 92.6031 119.289 92.6612 119.348C92.7194 119.406 92.752 119.485 92.752 119.567C92.752 119.649 92.7194 119.728 92.6612 119.786C92.6031 119.844 92.5242 119.877 92.442 119.877Z" fill="white"/>
<path d="M64.9016 93.6692L64.945 94.9092H64.1452L64.1018 93.6692L62.682 91.4434H63.5314L64.511 92.981L65.379 91.4434H66.1664L64.9016 93.6692Z" fill="#92E3A9"/>
<path d="M66.1974 93.1608C66.1869 92.9171 66.2284 92.6739 66.3191 92.4475C66.4099 92.2211 66.5479 92.0166 66.7238 91.8476C66.8998 91.6787 67.1098 91.5492 67.3397 91.4677C67.5697 91.3863 67.8143 91.3547 68.0574 91.3752C68.3032 91.3627 68.5491 91.3991 68.7807 91.4824C69.0124 91.5656 69.2252 91.694 69.4069 91.8601C69.5885 92.0262 69.7354 92.2267 69.839 92.4499C69.9426 92.6732 70.0009 92.9148 70.0104 93.1608C70.0219 93.405 69.9811 93.6489 69.8907 93.8761C69.8003 94.1032 69.6625 94.3085 69.4864 94.4781C69.3103 94.6478 69.1 94.7778 68.8696 94.8597C68.6392 94.9415 68.394 94.9732 68.1504 94.9526C67.9041 94.9651 67.6577 94.9285 67.4257 94.8448C67.1936 94.7612 66.9806 94.6323 66.7988 94.4656C66.6171 94.2988 66.4703 94.0976 66.367 93.8736C66.2638 93.6496 66.2061 93.4073 66.1974 93.1608ZM69.1734 93.1608C69.1743 93.0141 69.1457 92.8686 69.0894 92.7331C69.0331 92.5976 68.9501 92.4748 68.8455 92.3719C68.7409 92.269 68.6167 92.1881 68.4802 92.1341C68.3438 92.08 68.1979 92.0539 68.0512 92.0572C67.9074 92.0512 67.764 92.0761 67.6307 92.1303C67.4974 92.1845 67.3773 92.2667 67.2786 92.3713C67.1798 92.476 67.1047 92.6006 67.0583 92.7368C67.0119 92.873 66.9953 93.0176 67.0096 93.1608C67.0079 93.3081 67.0359 93.4542 67.0918 93.5904C67.1478 93.7266 67.2306 93.8502 67.3353 93.9538C67.44 94.0573 67.5645 94.1387 67.7013 94.1932C67.8382 94.2476 67.9846 94.2739 68.1318 94.2706C68.2756 94.2747 68.4186 94.2483 68.5515 94.193C68.6843 94.1378 68.8039 94.055 68.9023 93.9501C69.0008 93.8452 69.0758 93.7206 69.1226 93.5845C69.1693 93.4485 69.1866 93.304 69.1734 93.1608Z" fill="#92E3A9"/>
<path d="M70.5621 93.3722L70.5001 91.4316H71.2999L71.3619 93.3412C71.3619 93.9984 71.6843 94.2712 72.1679 94.2712C72.6515 94.2712 72.9243 93.9984 72.9057 93.3412L72.8375 91.4316H73.6249L73.6931 93.3722C73.7257 93.5808 73.7099 93.7941 73.6468 93.9956C73.5838 94.1971 73.4753 94.3814 73.3296 94.5342C73.184 94.687 73.0051 94.8043 72.8069 94.877C72.6087 94.9497 72.3964 94.9757 72.1865 94.9532C71.9721 94.9724 71.7561 94.945 71.5533 94.873C71.3504 94.8009 71.1655 94.6859 71.0113 94.5357C70.857 94.3856 70.737 94.2039 70.6595 94.0031C70.582 93.8023 70.5488 93.5871 70.5621 93.3722Z" fill="#92E3A9"/>
<path d="M76.7436 94.8974L76.043 93.9302H75.3052L75.3424 94.8974H74.5426L74.4186 91.4316H75.919C76.8428 91.4316 77.438 91.9152 77.4628 92.6716C77.4829 92.9021 77.4279 93.1328 77.3061 93.3295C77.1843 93.5261 77.0022 93.6781 76.787 93.7628L77.6054 94.8788L76.7436 94.8974ZM75.8942 92.0888H75.2742L75.3176 93.2916H75.9376C76.4274 93.2916 76.663 93.0684 76.6506 92.6716C76.6382 92.2748 76.384 92.0888 75.8942 92.0888Z" fill="#92E3A9"/>
<path d="M79.298 93.1605C79.2851 92.9205 79.3234 92.6806 79.4102 92.4564C79.497 92.2323 79.6303 92.0292 79.8014 91.8604C79.9725 91.6916 80.1775 91.5611 80.4028 91.4774C80.6281 91.3937 80.8686 91.3588 81.1084 91.3749C81.3798 91.3665 81.6498 91.4177 81.8994 91.5248C82.1489 91.6319 82.372 91.7924 82.5529 91.9949L82.057 92.4661C81.9472 92.3387 81.8111 92.2366 81.658 92.167C81.5049 92.0974 81.3385 92.062 81.1703 92.0631C81.0251 92.0555 80.8799 92.0791 80.7445 92.1324C80.6091 92.1856 80.4868 92.2674 80.3857 92.372C80.2846 92.4766 80.2072 92.6016 80.1586 92.7388C80.11 92.8759 80.0913 93.0218 80.1039 93.1667C80.103 93.3159 80.1323 93.4637 80.1901 93.6012C80.2479 93.7388 80.3329 93.8632 80.4401 93.9669C80.5473 94.0706 80.6745 94.1515 80.8138 94.2048C80.9532 94.258 81.1019 94.2824 81.251 94.2765C81.4156 94.2799 81.5788 94.2447 81.7274 94.1736C81.876 94.1025 82.0058 93.9976 82.1065 93.8673L82.6335 94.3385C82.4649 94.5444 82.2502 94.7078 82.0068 94.8155C81.7634 94.9232 81.4982 94.9722 81.2324 94.9585C80.987 94.9685 80.7422 94.9298 80.5119 94.8446C80.2816 94.7595 80.0705 94.6296 79.8907 94.4624C79.7108 94.2953 79.5659 94.0942 79.4641 93.8707C79.3624 93.6473 79.3059 93.4059 79.298 93.1605Z" fill="#92E3A9"/>
<path d="M82.8444 93.1614C82.8343 92.9205 82.875 92.6802 82.964 92.456C83.0529 92.2319 83.1881 92.029 83.3606 91.8606C83.5331 91.6922 83.7392 91.5619 83.9654 91.4784C84.1916 91.3949 84.4328 91.3599 84.6734 91.3758C84.9192 91.3633 85.1651 91.3997 85.3967 91.483C85.6284 91.5662 85.8412 91.6946 86.0229 91.8607C86.2045 92.0268 86.3514 92.2273 86.455 92.4505C86.5586 92.6738 86.6169 92.9154 86.6264 93.1614C86.6374 93.4028 86.5973 93.6438 86.5088 93.8687C86.4203 94.0936 86.2853 94.2972 86.1126 94.4663C85.94 94.6355 85.7336 94.7662 85.507 94.8501C85.2803 94.934 85.0385 94.9691 84.7974 94.9532C84.5511 94.9657 84.3047 94.9291 84.0727 94.8454C83.8406 94.7618 83.6275 94.6329 83.4458 94.4661C83.2641 94.2994 83.1173 94.0982 83.014 93.8742C82.9108 93.6502 82.8531 93.4079 82.8444 93.1614ZM85.8142 93.1614C85.8159 93.0149 85.7881 92.8697 85.7325 92.7342C85.6768 92.5987 85.5945 92.4758 85.4903 92.3728C85.3862 92.2698 85.2624 92.1889 85.1263 92.1348C84.9902 92.0806 84.8446 92.0545 84.6982 92.0578C84.5544 92.0517 84.411 92.0767 84.2777 92.1309C84.1444 92.185 84.0243 92.2673 83.9256 92.3719C83.8268 92.4766 83.7517 92.6012 83.7053 92.7374C83.6589 92.8736 83.6423 93.0182 83.6566 93.1614C83.6541 93.3084 83.6812 93.4543 83.7365 93.5905C83.7918 93.7267 83.874 93.8504 83.9782 93.954C84.0824 94.0577 84.2065 94.1392 84.343 94.1937C84.4795 94.2482 84.6257 94.2746 84.7726 94.2712C84.9167 94.2763 85.0602 94.2506 85.1935 94.1957C85.3268 94.1407 85.4468 94.058 85.5454 93.9528C85.6441 93.8477 85.7191 93.7227 85.7655 93.5862C85.8118 93.4497 85.8284 93.3049 85.8142 93.1614Z" fill="#92E3A9"/>
<path d="M87.172 91.4314H88.7406C88.9849 91.4075 89.2316 91.434 89.4652 91.5094C89.6989 91.5848 89.9145 91.7074 90.0988 91.8696C90.2831 92.0318 90.4321 92.2301 90.5365 92.4523C90.641 92.6745 90.6987 92.9158 90.706 93.1612C90.7197 93.4036 90.68 93.646 90.5895 93.8713C90.4991 94.0966 90.3602 94.2993 90.1828 94.465C90.0053 94.6306 89.7935 94.7552 89.5625 94.8299C89.3315 94.9046 89.0869 94.9276 88.846 94.8972H87.2712L87.172 91.4314ZM88.8026 94.24C88.9488 94.2551 89.0966 94.2378 89.2354 94.1892C89.3741 94.1406 89.5004 94.062 89.6053 93.9589C89.7101 93.8559 89.7909 93.7309 89.8418 93.593C89.8928 93.4551 89.9126 93.3076 89.9 93.1612C89.8997 93.0118 89.8684 92.8642 89.8081 92.7276C89.7478 92.591 89.6597 92.4684 89.5496 92.3676C89.4394 92.2668 89.3096 92.1899 89.1682 92.1419C89.0268 92.0938 88.877 92.0757 88.7282 92.0886H87.9966L88.071 94.24H88.8026Z" fill="#92E3A9"/>
<path d="M94.0292 94.2394V94.8594H91.3508L91.2268 91.3936H93.8432V92.0136H92.07V92.7637H93.6758V93.3837H92.07V94.1836L94.0292 94.2394Z" fill="#92E3A9"/>
<path d="M70.9156 107.762V109.151H64.4118V108.053L67.8714 104.712C68.7146 103.887 68.8572 103.372 68.851 102.852C68.851 102.046 68.2682 101.574 67.1832 101.574C66.7915 101.555 66.4007 101.628 66.0429 101.789C65.6851 101.949 65.3704 102.193 65.1248 102.498L63.9592 101.612C64.36 101.122 64.8712 100.733 65.4511 100.479C66.0309 100.225 66.6628 100.111 67.2948 100.148C69.2168 100.148 70.4754 101.122 70.5002 102.69C70.5002 103.546 70.2894 104.333 69.0866 105.487L66.7616 107.737L70.9156 107.762Z" fill="#263238"/>
<path d="M78.12 106.498C78.12 107.986 77.0412 109.275 74.6666 109.275C73.4705 109.296 72.2985 108.938 71.3186 108.252L72.0068 106.975C72.7539 107.551 73.6734 107.859 74.617 107.849C75.7888 107.849 76.477 107.328 76.477 106.51C76.477 105.692 75.857 105.189 74.5302 105.189H73.7242V104.067L75.64 101.68H71.6162V100.304H77.655V101.407L75.547 103.962C77.2396 104.16 78.12 105.165 78.12 106.498Z" fill="#263238"/>
<path d="M86.3908 106.64C86.3908 108.283 85.0082 109.306 82.8072 109.306C80.6062 109.306 79.1802 108.283 79.1554 106.64C79.1368 106.188 79.2593 105.742 79.506 105.363C79.7527 104.984 80.1112 104.691 80.5318 104.526C80.1885 104.352 79.9005 104.085 79.7001 103.757C79.4997 103.428 79.3948 103.05 79.3972 102.666C79.3972 101.147 80.6868 100.186 82.646 100.186C84.6052 100.186 85.9754 101.134 86.0002 102.666C86.0194 103.048 85.9264 103.428 85.7325 103.759C85.5386 104.089 85.2524 104.356 84.909 104.526C85.3401 104.688 85.7122 104.976 85.9766 105.354C86.241 105.731 86.3854 106.179 86.3908 106.64ZM84.7292 106.59C84.7292 105.716 83.948 105.17 82.7328 105.17C81.5176 105.17 80.7922 105.716 80.8108 106.59C80.8294 107.464 81.5672 108.016 82.7824 108.016C83.9976 108.016 84.7478 107.458 84.7292 106.559V106.59ZM81.0092 102.746C81.0092 103.503 81.6292 103.986 82.7018 103.986C83.7744 103.986 84.3882 103.503 84.3696 102.746C84.351 101.99 83.669 101.506 82.6522 101.506C81.6354 101.506 81.0092 101.915 81.0216 102.715L81.0092 102.746Z" fill="#263238"/>
<path d="M94.6368 106.64C94.6368 108.283 93.2542 109.306 91.0532 109.306C88.8522 109.306 87.42 108.252 87.42 106.64C87.4023 106.188 87.5252 105.742 87.7718 105.364C88.0183 104.985 88.3763 104.692 88.7964 104.526C88.4529 104.352 88.165 104.086 87.9655 103.757C87.7659 103.429 87.6629 103.05 87.668 102.666C87.637 101.147 88.9514 100.186 90.9106 100.186C92.8698 100.186 94.24 101.134 94.2648 102.666C94.284 103.048 94.191 103.428 93.9971 103.759C93.8032 104.089 93.517 104.356 93.1736 104.526C93.6013 104.691 93.9694 104.981 94.2303 105.358C94.4912 105.735 94.6328 106.181 94.6368 106.64ZM92.9752 106.59C92.9752 105.716 92.194 105.17 90.9788 105.17C89.7636 105.17 89.0382 105.716 89.0568 106.59C89.0754 107.464 89.8132 108.016 91.0284 108.016C92.2436 108.016 93 107.458 93 106.559L92.9752 106.59ZM89.2552 102.746C89.2552 103.503 89.9062 103.986 90.9478 103.986C91.9894 103.986 92.6342 103.503 92.6218 102.746C92.6094 101.99 91.915 101.506 90.9044 101.506C89.8938 101.506 89.28 101.915 89.28 102.715L89.2552 102.746Z" fill="#263238"/>
<path d="M48.6638 93.192C48.5847 93.1921 48.5085 93.162 48.4509 93.1079C48.3932 93.0537 48.3585 92.9795 48.3538 92.9006L47.2564 77.9152C47.2512 77.8339 47.2783 77.7539 47.3316 77.6924C47.385 77.6309 47.4604 77.5929 47.5416 77.5866C47.6235 77.5814 47.7042 77.6082 47.7667 77.6614C47.8291 77.7147 47.8685 77.7901 47.8764 77.8718L48.98 92.8572C48.9833 92.8979 48.9786 92.9389 48.9661 92.9778C48.9536 93.0167 48.9335 93.0528 48.907 93.0839C48.8805 93.115 48.8481 93.1406 48.8117 93.1591C48.7752 93.1777 48.7355 93.1888 48.6948 93.192H48.6638Z" fill="#92E3A9"/>
<path d="M47.3556 75.3301C47.2775 75.3303 47.2022 75.3011 47.1447 75.2482C47.0872 75.1954 47.0518 75.1227 47.0456 75.0449L46.7542 71.0893C46.7513 71.0486 46.7565 71.0077 46.7695 70.969C46.7824 70.9303 46.8029 70.8945 46.8296 70.8637C46.8837 70.8015 46.9603 70.7634 47.0425 70.7576C47.1247 70.7518 47.2058 70.779 47.268 70.833C47.3302 70.8871 47.3684 70.9637 47.3742 71.0459L47.6656 75.0015C47.6707 75.0827 47.6437 75.1628 47.5903 75.2242C47.5369 75.2857 47.4615 75.3237 47.3804 75.3301H47.3556Z" fill="#92E3A9"/>
<path d="M76.4893 56.4756C76.4071 56.4756 76.3283 56.4429 76.2701 56.3848C76.212 56.3266 76.1793 56.2478 76.1793 56.1656V47.0454C76.1793 46.9631 76.212 46.8843 76.2701 46.8261C76.3283 46.768 76.4071 46.7354 76.4893 46.7354C76.5715 46.7354 76.6504 46.768 76.7085 46.8261C76.7667 46.8843 76.7993 46.9631 76.7993 47.0454V56.1656C76.7993 56.2478 76.7667 56.3266 76.7085 56.3848C76.6504 56.4429 76.5715 56.4756 76.4893 56.4756Z" fill="#92E3A9"/>
<path d="M69.2664 58.4095C69.2123 58.4092 69.1593 58.3947 69.1125 58.3675C69.0657 58.3403 69.0269 58.3014 68.9998 58.2545L64.4366 50.3557C64.3955 50.2842 64.3845 50.1993 64.406 50.1196C64.4275 50.04 64.4798 49.9721 64.5513 49.931C64.6229 49.8899 64.7078 49.8789 64.7874 49.9004C64.8671 49.9219 64.9349 49.9742 64.976 50.0457L69.533 57.9445C69.554 57.9794 69.5678 58.0181 69.5735 58.0583C69.5792 58.0986 69.5768 58.1396 69.5664 58.1789C69.556 58.2182 69.5378 58.2551 69.5129 58.2872C69.488 58.3194 69.4569 58.3462 69.4214 58.3661C69.374 58.3927 69.3208 58.4076 69.2664 58.4095Z" fill="#92E3A9"/>
<path d="M83.7 58.4095C83.646 58.4098 83.5929 58.397 83.545 58.3723C83.4741 58.3297 83.4228 58.2611 83.402 58.1812C83.3811 58.1012 83.3924 58.0163 83.4334 57.9445L87.9904 50.0457C88.0315 49.9742 88.0993 49.9219 88.179 49.9004C88.2586 49.8789 88.3435 49.8899 88.4151 49.931C88.4866 49.9721 88.5389 50.04 88.5604 50.1196C88.5819 50.1993 88.5709 50.2842 88.5298 50.3557L83.979 58.2793C83.9478 58.3234 83.9057 58.3587 83.8568 58.3815C83.8078 58.4043 83.7538 58.414 83.7 58.4095Z" fill="#92E3A9"/>
<path d="M190.545 256.599C189.894 243.623 191.165 230.622 194.314 218.017L194.934 218.165C191.801 230.712 190.535 243.652 191.177 256.568L190.545 256.599Z" fill="#92E3A9"/>
<path d="M191.716 217.558C191.716 218.711 192.783 222.81 193.942 222.779C195.102 222.748 195.939 218.612 195.908 217.453C195.901 217.178 195.84 216.906 195.728 216.655C195.616 216.403 195.456 216.176 195.257 215.986C195.057 215.797 194.822 215.648 194.565 215.549C194.308 215.45 194.035 215.403 193.759 215.41C193.484 215.417 193.213 215.478 192.961 215.59C192.71 215.701 192.483 215.861 192.293 216.061C192.103 216.26 191.955 216.495 191.856 216.752C191.757 217.009 191.71 217.283 191.716 217.558Z" fill="#92E3A9"/>
<path d="M196.224 230.572C196.224 229.413 195.157 225.321 194.004 225.346C192.851 225.371 192.008 229.512 192.033 230.672C192.039 230.947 192.1 231.218 192.211 231.47C192.322 231.722 192.482 231.949 192.681 232.139C192.881 232.329 193.115 232.478 193.372 232.577C193.629 232.676 193.903 232.724 194.178 232.718C194.453 232.711 194.724 232.65 194.976 232.539C195.228 232.428 195.455 232.268 195.645 232.069C195.835 231.87 195.984 231.635 196.083 231.378C196.183 231.121 196.23 230.848 196.224 230.572Z" fill="#92E3A9"/>
<path d="M187.463 226.3C188.623 226.3 192.715 225.234 192.684 224.075C192.653 222.915 188.523 222.078 187.364 222.109C187.089 222.116 186.818 222.176 186.566 222.288C186.314 222.399 186.087 222.559 185.897 222.758C185.707 222.957 185.558 223.192 185.459 223.449C185.359 223.705 185.311 223.979 185.318 224.254C185.324 224.53 185.385 224.801 185.496 225.053C185.608 225.304 185.768 225.532 185.967 225.722C186.166 225.912 186.401 226.061 186.657 226.16C186.914 226.259 187.188 226.307 187.463 226.3Z" fill="#92E3A9"/>
<path d="M200.477 221.811C199.324 221.811 195.226 222.878 195.257 224.031C195.288 225.184 199.423 226.027 200.582 226.002C200.858 225.995 201.129 225.934 201.38 225.823C201.632 225.711 201.859 225.551 202.049 225.351C202.239 225.152 202.387 224.917 202.486 224.66C202.585 224.403 202.632 224.129 202.625 223.854C202.618 223.579 202.557 223.308 202.446 223.056C202.334 222.805 202.174 222.577 201.974 222.388C201.775 222.198 201.54 222.049 201.283 221.951C201.026 221.852 200.752 221.804 200.477 221.811Z" fill="#92E3A9"/>
<path d="M187.773 221.055C188.616 221.855 192.243 224.019 193.043 223.176C193.843 222.333 191.506 218.836 190.669 218.024C190.267 217.64 189.728 217.431 189.173 217.444C188.617 217.457 188.089 217.69 187.705 218.092C187.321 218.494 187.113 219.032 187.125 219.588C187.138 220.144 187.371 220.671 187.773 221.055Z" fill="#92E3A9"/>
<path d="M200.167 227.069C199.33 226.269 195.703 224.111 194.903 224.948C194.103 225.785 196.435 229.288 197.272 230.107C197.471 230.297 197.706 230.446 197.963 230.545C198.22 230.645 198.494 230.692 198.77 230.686C199.045 230.679 199.317 230.618 199.569 230.507C199.821 230.395 200.048 230.235 200.238 230.036C200.428 229.836 200.577 229.601 200.677 229.344C200.776 229.087 200.824 228.813 200.817 228.537C200.81 228.262 200.75 227.99 200.638 227.738C200.527 227.486 200.367 227.259 200.167 227.069Z" fill="#92E3A9"/>
<path d="M190.96 230.262C191.76 229.419 193.917 225.792 193.08 224.992C192.243 224.193 188.74 226.53 187.922 227.367C187.538 227.77 187.33 228.309 187.343 228.865C187.357 229.421 187.59 229.95 187.993 230.334C188.396 230.718 188.935 230.926 189.491 230.912C190.048 230.899 190.576 230.665 190.96 230.262Z" fill="#92E3A9"/>
<path d="M196.98 217.868C196.18 218.705 194.017 222.332 194.86 223.132C195.703 223.932 199.2 221.601 200.012 220.764C200.202 220.564 200.351 220.33 200.451 220.073C200.55 219.817 200.598 219.543 200.592 219.268C200.585 218.992 200.525 218.721 200.414 218.469C200.303 218.218 200.143 217.99 199.944 217.8C199.745 217.61 199.51 217.461 199.253 217.361C198.997 217.262 198.723 217.214 198.448 217.22C198.173 217.227 197.901 217.287 197.65 217.398C197.398 217.509 197.17 217.669 196.98 217.868Z" fill="#92E3A9"/>
<path d="M191.487 224.124C191.499 224.614 191.657 225.089 191.939 225.49C192.221 225.89 192.616 226.198 193.074 226.375C193.531 226.551 194.03 226.588 194.508 226.481C194.987 226.374 195.423 226.127 195.761 225.773C196.099 225.418 196.325 224.971 196.409 224.488C196.494 224.005 196.433 223.508 196.235 223.06C196.037 222.611 195.711 222.232 195.297 221.968C194.884 221.705 194.401 221.571 193.911 221.582C193.585 221.589 193.263 221.66 192.965 221.792C192.666 221.924 192.397 222.113 192.171 222.349C191.946 222.586 191.77 222.864 191.652 223.168C191.535 223.473 191.479 223.797 191.487 224.124Z" fill="white"/>
<path d="M191.134 242.575C191.134 242.575 191.561 236.245 195.04 235.247C198.518 234.249 199.789 232.885 199.789 232.885C199.789 232.885 199.435 242.699 191.134 242.575Z" fill="#92E3A9"/>
<path opacity="0.5" d="M191.134 242.575C191.134 242.575 191.561 236.245 195.04 235.247C198.518 234.249 199.789 232.885 199.789 232.885C199.789 232.885 199.435 242.699 191.134 242.575Z" fill="white"/>
<path d="M190.675 247.424C190.675 247.424 190.247 241.094 186.769 240.089C183.291 239.085 182.02 237.733 182.02 237.733C182.02 237.733 182.373 247.548 190.675 247.424Z" fill="#92E3A9"/>
<path opacity="0.5" d="M190.675 247.424C190.675 247.424 190.247 241.094 186.769 240.089C183.291 239.085 182.02 237.733 182.02 237.733C182.02 237.733 182.373 247.548 190.675 247.424Z" fill="white"/>
<path d="M203.794 260.611C203.794 265.571 197.91 269.552 190.656 269.552C183.402 269.552 177.518 265.553 177.518 260.611C177.518 258.131 179.025 255.85 181.462 254.231C182.997 253.23 184.704 252.52 186.496 252.136H194.816C196.655 252.531 198.403 253.27 199.969 254.312C202.337 255.93 203.794 258.15 203.794 260.611Z" fill="#92E3A9"/>
<path opacity="0.8" d="M194.816 252.136C196.655 252.531 198.403 253.27 199.969 254.312C202.337 255.93 203.794 258.15 203.794 260.611C203.794 265.571 197.91 269.552 190.656 269.552C183.402 269.552 177.518 265.553 177.518 260.611C177.518 258.131 179.025 255.85 181.462 254.231C182.997 253.23 184.704 252.52 186.496 252.136H194.816Z" fill="white"/>
<path d="M191.003 252.941H190.383V257.362H191.003V252.941Z" fill="#92E3A9"/>
<path d="M200.545 251.999L199.851 254.169L199.838 254.194H181.468L181.431 254.076L180.767 251.999H200.545Z" fill="#92E3A9"/>
<path d="M202.244 262.409C200.928 264.233 199.198 265.72 197.197 266.749C194.041 268.423 180.767 268.85 179.248 261.324C179.248 261.218 179.192 261.113 179.174 261.007C179.107 260.541 179.148 260.066 179.292 259.618C179.437 259.17 179.682 258.761 180.008 258.421C180.334 258.082 180.733 257.821 181.175 257.659C181.617 257.497 182.091 257.438 182.559 257.486C183.817 257.571 185.081 257.5 186.322 257.275C191.088 256.553 195.951 256.813 200.613 258.038C201.055 258.155 201.462 258.376 201.801 258.683C202.139 258.99 202.399 259.373 202.559 259.801C202.719 260.23 202.774 260.69 202.719 261.143C202.664 261.597 202.501 262.031 202.244 262.409Z" fill="#263238"/>
<path d="M106.956 259.904C107.072 259.859 107.175 259.785 107.255 259.69C107.335 259.594 107.39 259.481 107.415 259.358C107.439 259.285 107.442 259.206 107.424 259.131C107.407 259.056 107.369 258.986 107.316 258.931C106.838 258.435 104.898 258.788 104.681 258.831C104.656 258.834 104.632 258.844 104.613 258.861C104.594 258.877 104.581 258.9 104.575 258.924C104.57 258.949 104.573 258.974 104.581 258.997C104.59 259.02 104.605 259.04 104.625 259.055C105.012 259.337 105.428 259.578 105.865 259.774C106.202 259.944 106.588 259.99 106.956 259.904ZM107.13 259.104C107.153 259.13 107.168 259.161 107.175 259.195C107.181 259.229 107.179 259.264 107.167 259.296C107.153 259.378 107.118 259.454 107.066 259.518C107.014 259.582 106.946 259.632 106.869 259.662C106.516 259.792 105.84 259.551 105.009 259.042C105.815 258.906 106.876 258.838 107.13 259.104Z" fill="#92E3A9"/>
<path d="M104.718 259.079C105.338 259.005 106.677 258.304 106.795 257.696C106.816 257.597 106.801 257.494 106.753 257.405C106.706 257.315 106.628 257.245 106.535 257.207C106.447 257.158 106.35 257.13 106.251 257.122C106.151 257.115 106.052 257.129 105.958 257.163C105.214 257.417 104.606 258.843 104.582 258.905C104.573 258.925 104.568 258.946 104.568 258.967C104.568 258.989 104.573 259.01 104.582 259.029C104.596 259.049 104.615 259.064 104.637 259.073L104.718 259.079ZM106.404 257.43C106.553 257.51 106.559 257.591 106.547 257.647C106.473 258.019 105.561 258.595 104.923 258.775C105.152 258.31 105.598 257.535 106.045 257.399C106.144 257.358 106.255 257.358 106.355 257.399L106.404 257.43Z" fill="#92E3A9"/>
<path d="M98.8341 256.58L103.881 258.62L108.289 246.958L103.236 244.918L98.8341 256.58Z" fill="#FFB573"/>
<path d="M104.52 258.205L98.8527 255.917C98.7562 255.875 98.6476 255.869 98.5473 255.901C98.4469 255.933 98.3615 256.001 98.3071 256.091L95.8271 260.245C95.7686 260.352 95.7335 260.47 95.7242 260.591C95.7149 260.713 95.7316 260.835 95.7733 260.949C95.815 261.064 95.8806 261.168 95.9658 261.255C96.051 261.342 96.1538 261.41 96.2673 261.454C98.2637 262.223 99.2619 262.489 101.754 263.5C103.292 264.12 105.474 265.18 107.582 266.042C109.69 266.904 110.682 264.882 109.87 264.337C106.268 261.9 106.15 260.493 105.251 258.856C105.091 258.56 104.832 258.33 104.52 258.205Z" fill="#263238"/>
<path d="M108.221 252.681L99.4541 249.134L100.26 245.923L109.666 249.364L108.221 252.681Z" fill="#92E3A9"/>
<path d="M117 117.694C115.221 122.846 109.957 134.973 105.896 129.92C105.165 129.028 104.568 128.034 104.123 126.969C102.405 122.722 101.978 115.84 101.761 114.333L100.378 109.615C100.353 109.535 100.341 109.451 100.341 109.367V106.67C100.341 105.579 101.221 104.928 102.411 105.027C102.411 105.027 104.334 104.804 104.334 105.951L104.706 110C104.898 111.407 104.34 113.366 104.668 114.656C105.908 119.51 107.613 119.734 108.686 124.743C110.18 121.129 112.852 114.873 112.852 114.873C114.626 115.096 117.583 116.001 117 117.694Z" fill="#FFB573"/>
<path d="M110.639 131.768C110.36 132.203 109.98 132.564 109.53 132.819C109.081 133.075 108.577 133.218 108.06 133.235C107.544 133.253 107.031 133.145 106.565 132.921C106.1 132.697 105.696 132.363 105.387 131.948C104.653 130.971 104.075 129.885 103.676 128.73C102.064 123.441 101.066 120.168 100.93 114.644C101.501 114.066 102.223 113.661 103.013 113.473C103.803 113.286 104.63 113.324 105.4 113.583L108.041 122.53C108.041 122.53 113.416 109.169 115.593 108.692C118.153 108.127 119.22 110.415 120.305 113.23C121.086 115.251 114.142 126.368 110.639 131.768Z" fill="#92E3A9"/>
<path d="M132.358 95.3184C131.738 98.4184 130.386 105.189 132.556 107.26C132.556 107.26 131.707 110.403 125.947 110.403C119.604 110.403 122.915 107.26 122.915 107.26C126.375 106.435 126.282 103.868 125.68 101.456L132.358 95.3184Z" fill="#FFB573"/>
<path d="M122.667 88.0392C122.704 88.045 122.742 88.045 122.778 88.0392C122.836 88.0076 122.879 87.9552 122.898 87.8929C122.918 87.8305 122.913 87.763 122.884 87.7044C122.718 87.3482 122.469 87.0374 122.157 86.7988C121.845 86.5602 121.479 86.4007 121.092 86.3342C121.06 86.3298 121.027 86.3321 120.996 86.3408C120.964 86.3494 120.935 86.3643 120.909 86.3846C120.884 86.4049 120.863 86.4301 120.847 86.4587C120.832 86.4873 120.822 86.5188 120.819 86.5512C120.815 86.5834 120.817 86.6162 120.826 86.6476C120.835 86.679 120.849 86.7083 120.87 86.7338C120.89 86.7592 120.915 86.7804 120.944 86.7959C120.972 86.8114 121.004 86.8209 121.036 86.824C121.341 86.8835 121.628 87.0146 121.873 87.2064C122.117 87.3982 122.313 87.6454 122.444 87.9276C122.468 87.9642 122.501 87.9939 122.54 88.0135C122.579 88.0331 122.623 88.042 122.667 88.0392Z" fill="#263238"/>
<path d="M120.776 90.7178C120.285 91.6243 119.672 92.4589 118.953 93.1978C119.148 93.3762 119.379 93.5102 119.63 93.5905C119.882 93.6708 120.148 93.6954 120.41 93.6628L120.776 90.7178Z" fill="#ED893E"/>
<path d="M121.272 89.8127C121.365 90.2219 121.216 90.6063 120.95 90.6621C120.683 90.7179 120.385 90.4327 120.299 90.0421C120.212 89.6515 120.354 89.2485 120.627 89.1865C120.9 89.1245 121.185 89.3973 121.272 89.8127Z" fill="#263238"/>
<path d="M120.751 89.1682L119.697 89.0938C119.697 89.0938 120.373 89.7572 120.751 89.1682Z" fill="#263238"/>
<path opacity="0.2" d="M116.777 115.054C117.874 114.043 118.637 114.347 119.121 115.147C119.623 117.465 116.641 122.326 115.469 124.168L116.777 115.054Z" fill="black"/>
<path d="M142.166 118.11C142.023 120.665 141.782 123.882 141.391 127.931C140.982 132.203 140.399 137.392 139.599 143.698C131.173 143.698 122.351 143.567 118.253 143.567C118.6 135.191 118.724 126.703 114.967 110.038C114.919 109.831 114.914 109.617 114.952 109.409C114.989 109.2 115.068 109.001 115.183 108.823C115.299 108.646 115.449 108.493 115.625 108.375C115.801 108.257 115.999 108.175 116.207 108.134C118.656 107.69 121.13 107.398 123.616 107.26C126.825 107.03 130.047 107.03 133.257 107.26C137.392 107.638 142.092 108.599 142.092 108.599C142.092 108.599 142.6 110.137 142.166 118.11Z" fill="#92E3A9"/>
<path opacity="0.2" d="M142.166 118.11C142.023 120.664 141.782 123.882 141.391 127.931C139.122 125.302 136.977 116.25 137.671 113.156C139.362 114.407 140.849 115.913 142.079 117.62C142.117 117.782 142.146 117.945 142.166 118.11Z" fill="black"/>
<path d="M164.046 129.456L168.386 127.025L169.192 131.446C169.192 131.446 165.534 132.853 163.612 131.868L164.046 129.456Z" fill="#FFB573"/>
<path d="M171.256 127.528L171.56 128.972C171.605 129.194 171.583 129.424 171.498 129.633C171.414 129.843 171.269 130.022 171.083 130.15L169.173 131.44L168.367 127.019L169.861 126.647C170.011 126.61 170.167 126.603 170.319 126.628C170.471 126.652 170.617 126.707 170.747 126.789C170.877 126.872 170.99 126.979 171.077 127.106C171.165 127.233 171.226 127.377 171.256 127.528Z" fill="#FFB573"/>
<path d="M138.012 113.72C139.395 116.535 144.466 127.168 146.692 129.623L147.132 130.082L147.349 130.311C147.424 130.386 147.486 130.454 147.603 130.559C148.003 130.939 148.444 131.274 148.918 131.557C149.763 132.046 150.673 132.413 151.621 132.649C153.283 133.034 154.988 133.195 156.693 133.126C159.868 132.999 163.014 132.466 166.055 131.539L165.54 128.96C164.108 129.084 162.607 129.17 161.157 129.195C159.719 129.238 158.28 129.192 156.848 129.059C155.52 128.963 154.208 128.707 152.942 128.296C152.43 128.124 151.946 127.88 151.503 127.571C151.334 127.452 151.178 127.315 151.038 127.162C150.989 127.111 150.944 127.057 150.902 127L150.741 126.808L150.412 126.424C148.701 124.279 144.181 113.937 142.823 111.352L138.012 113.72Z" fill="#FFB573"/>
<path d="M163.978 133.858C160.404 135.757 156.224 136.163 152.353 134.987C148.659 133.799 145.543 131.273 143.617 127.906C141.379 124.614 135.42 115.302 136.177 112.896C137.063 110.019 138.948 108.234 142.098 109.009C144.311 109.542 148.533 120.293 150.579 124.589C151.379 125.786 152.917 127.689 154.634 128.272C157.666 129.32 159.898 128.892 163.072 128.415C163.655 128.762 163.612 129.301 163.903 129.903C164.216 130.513 164.385 131.186 164.398 131.872C164.411 132.557 164.267 133.237 163.978 133.858Z" fill="#92E3A9"/>
<path d="M135.482 90.3522C134.534 95.4486 134.242 97.6248 131.316 99.9436C126.926 103.428 120.869 101.146 120.28 95.864C119.747 91.1086 121.39 83.5694 126.672 82.1496C127.835 81.8305 129.061 81.814 130.232 82.1018C131.403 82.3896 132.482 82.9722 133.365 83.7941C134.247 84.616 134.905 85.65 135.276 86.7979C135.647 87.9457 135.718 89.1692 135.482 90.3522Z" fill="#FFB573"/>
<path d="M153.574 118.568C152.601 119.678 152.297 120.323 150.939 120.924C149.581 121.526 146.642 120.999 145.706 119.852C146.01 120.745 147.783 122.332 148.713 122.474C147.664 123.05 146.449 123.251 145.27 123.043C144.091 122.836 143.018 122.233 142.228 121.334C142.358 121.893 142.629 122.409 143.015 122.834C143.402 123.258 143.891 123.576 144.435 123.758C132.556 124.068 137.559 118.475 130.119 110.521C121.886 101.717 123.671 94.4381 123.671 94.4381C123.691 92.6252 123.123 90.8546 122.053 89.3912C120.863 87.866 121.21 85.8076 121.588 84.6544C122.14 82.9618 123.82 82.3667 125.432 82.2675C125.717 80.5997 129.152 80.9035 129.568 81.1825C129.983 81.4615 130.033 81.4057 130.411 81.1825C131.248 80.6431 133.356 80.0851 135.613 81.9079C136.989 83.0239 138.465 85.0079 138.514 89.2735C138.564 93.6941 136.45 98.9455 143.766 105.66C148.075 109.603 146.01 118.103 153.574 118.568Z" fill="#263238"/>
<path d="M122.692 90.7368C122.115 91.5542 121.876 92.5622 122.022 93.5516C122.233 94.8598 123.504 94.9466 124.428 94.1096C125.352 93.2726 126.158 91.7598 125.476 90.6748C124.794 89.5898 123.411 89.7448 122.692 90.7368Z" fill="#FFB573"/>
<path d="M134.199 143.69C134.199 143.69 131.663 179.285 128.811 202.758C127.954 209.802 125.806 216.629 122.475 222.895L108.5 249.283L101.333 246.462C101.333 246.462 106.293 221.383 115.959 207.705C115.959 207.705 108.729 166.829 118.191 143.566L134.199 143.69Z" fill="#263238"/>
<path opacity="0.2" d="M124.452 152.315C124.452 152.315 126.585 168.435 127.751 178.027C123.38 172.261 119.988 164.213 124.452 152.315Z" fill="black"/>
<path d="M152.297 263.246C152.38 263.153 152.438 263.04 152.464 262.918C152.49 262.797 152.484 262.67 152.445 262.551C152.431 262.475 152.396 262.405 152.345 262.347C152.294 262.289 152.228 262.246 152.154 262.223C151.491 262 149.947 263.209 149.773 263.345C149.754 263.361 149.74 263.383 149.732 263.407C149.725 263.431 149.724 263.457 149.73 263.481C149.738 263.504 149.752 263.524 149.77 263.54C149.789 263.555 149.811 263.565 149.835 263.568C150.317 263.641 150.806 263.66 151.292 263.624C151.661 263.618 152.016 263.484 152.297 263.246ZM152.067 262.465C152.1 262.474 152.13 262.494 152.152 262.52C152.174 262.547 152.188 262.579 152.191 262.613C152.219 262.691 152.225 262.774 152.21 262.854C152.194 262.935 152.158 263.01 152.104 263.072C151.856 263.351 151.15 263.45 150.182 263.351C150.815 262.88 151.72 262.341 152.067 262.465Z" fill="#92E3A9"/>
<path d="M149.928 263.55C150.418 263.209 151.292 261.962 151.106 261.373C151.077 261.275 151.015 261.19 150.93 261.133C150.845 261.075 150.743 261.049 150.641 261.057C150.543 261.054 150.444 261.073 150.354 261.111C150.263 261.15 150.181 261.208 150.114 261.28C149.575 261.851 149.718 263.388 149.724 263.457C149.727 263.479 149.736 263.5 149.749 263.518C149.762 263.536 149.779 263.551 149.798 263.562C149.82 263.568 149.844 263.568 149.866 263.562C149.888 263.564 149.909 263.56 149.928 263.55ZM150.635 261.311C150.803 261.311 150.846 261.386 150.865 261.442C150.97 261.807 150.443 262.731 149.966 263.184C149.893 262.586 150.011 261.981 150.3 261.454C150.371 261.376 150.468 261.327 150.573 261.318L150.635 261.311Z" fill="#92E3A9"/>
<path d="M143.542 264.051L148.974 263.53L147.312 251.192L141.881 251.719L143.542 264.051Z" fill="#FFB573"/>
<path d="M149.339 262.88L143.239 263.469C143.134 263.476 143.035 263.522 142.962 263.598C142.889 263.673 142.846 263.773 142.842 263.878L142.619 268.695C142.619 268.818 142.645 268.939 142.695 269.05C142.745 269.162 142.818 269.262 142.909 269.343C143 269.424 143.108 269.485 143.225 269.522C143.341 269.559 143.464 269.571 143.586 269.557C145.706 269.322 146.686 269.098 149.401 268.838C151.051 268.677 153.481 268.615 155.763 268.398C158.044 268.181 157.939 265.949 157.003 265.837C152.663 265.347 151.863 264.169 150.313 263.122C150.026 262.93 149.682 262.845 149.339 262.88Z" fill="#263238"/>
<path d="M139.568 143.685C139.568 143.685 146.518 186.161 147.851 211.321L148.105 256.395L142.482 257.492C142.482 257.492 134.341 228.737 133.399 212.114C130.919 168.02 116.554 167.946 125.196 143.604L139.568 143.685Z" fill="#263238"/>
<path d="M149.972 256.58L140.666 257.851L139.717 254.28L149.668 252.984L149.972 256.58Z" fill="#92E3A9"/>
<path d="M99.82 98.1143H100.173C100.089 98.1142 100.006 98.1312 99.9287 98.1642C99.8514 98.1973 99.7816 98.2458 99.7236 98.3067C99.6657 98.3676 99.6207 98.4396 99.5914 98.5185C99.5621 98.5973 99.5492 98.6813 99.5534 98.7653L100.124 109.559C100.141 109.729 100.22 109.886 100.346 110C100.472 110.115 100.636 110.179 100.806 110.179H100.44C100.27 110.177 100.107 110.113 99.9813 109.999C99.8556 109.885 99.7762 109.728 99.758 109.559L99.2 98.7653C99.1958 98.6813 99.2087 98.5973 99.238 98.5185C99.2673 98.4396 99.3123 98.3676 99.3703 98.3067C99.4283 98.2458 99.498 98.1973 99.5753 98.1642C99.6527 98.1312 99.7359 98.1142 99.82 98.1143Z" fill="#92E3A9"/>
<path opacity="0.1" d="M99.82 98.1143H100.173C100.089 98.1142 100.006 98.1312 99.9287 98.1642C99.8514 98.1973 99.7816 98.2458 99.7236 98.3067C99.6657 98.3676 99.6207 98.4396 99.5914 98.5185C99.5621 98.5973 99.5492 98.6813 99.5534 98.7653L100.124 109.559C100.141 109.729 100.22 109.886 100.346 110C100.472 110.115 100.636 110.179 100.806 110.179H100.44C100.27 110.177 100.107 110.113 99.9813 109.999C99.8556 109.885 99.7762 109.728 99.758 109.559L99.2 98.7653C99.1958 98.6813 99.2087 98.5973 99.238 98.5185C99.2673 98.4396 99.3123 98.3676 99.3703 98.3067C99.4283 98.2458 99.498 98.1973 99.5753 98.1642C99.6527 98.1312 99.7359 98.1142 99.82 98.1143Z" fill="white"/>
<path d="M100.533 110.211H104.873C105.037 110.211 105.195 110.145 105.311 110.029C105.428 109.913 105.493 109.755 105.493 109.591L104.929 98.7965C104.918 98.6221 104.842 98.4582 104.715 98.3375C104.589 98.2168 104.422 98.1483 104.247 98.1455H99.9068C99.8227 98.1454 99.7395 98.1624 99.6621 98.1955C99.5848 98.2286 99.515 98.277 99.457 98.3379C99.399 98.3988 99.354 98.4709 99.3248 98.5497C99.2955 98.6286 99.2826 98.7125 99.2868 98.7965L99.851 109.591C99.8692 109.76 99.9486 109.916 100.074 110.03C100.2 110.144 100.363 110.209 100.533 110.211Z" fill="#92E3A9"/>
<path opacity="0.4" d="M100.533 110.211H104.873C105.037 110.211 105.195 110.145 105.311 110.029C105.428 109.913 105.493 109.755 105.493 109.591L104.929 98.7965C104.918 98.6221 104.842 98.4582 104.715 98.3375C104.589 98.2168 104.422 98.1483 104.247 98.1455H99.9068C99.8227 98.1454 99.7395 98.1624 99.6621 98.1955C99.5848 98.2286 99.515 98.277 99.457 98.3379C99.399 98.3988 99.354 98.4709 99.3248 98.5497C99.2955 98.6286 99.2826 98.7125 99.2868 98.7965L99.851 109.591C99.8692 109.76 99.9486 109.916 100.074 110.03C100.2 110.144 100.363 110.209 100.533 110.211Z" fill="white"/>
<path d="M105.233 109.337C105.236 109.391 105.228 109.445 105.21 109.496C105.192 109.548 105.164 109.594 105.127 109.634C105.049 109.71 104.945 109.753 104.836 109.752H100.614C100.496 109.751 100.382 109.705 100.297 109.623C100.212 109.541 100.161 109.43 100.155 109.312L99.603 98.8402C99.599 98.787 99.6063 98.7335 99.6245 98.6833C99.6426 98.633 99.6713 98.5872 99.7084 98.5488C99.7456 98.509 99.7908 98.4773 99.841 98.456C99.8912 98.4346 99.9453 98.424 99.9998 98.4248H104.222C104.34 98.4263 104.453 98.4725 104.538 98.5543C104.624 98.636 104.675 98.7471 104.681 98.8651L104.718 99.6152L105.233 109.337Z" fill="#263238"/>
<g opacity="0.1">
<path d="M104.718 99.6149L103.317 109.74H101.637L103.224 98.4121H104.222C104.34 98.4135 104.453 98.4598 104.538 98.5415C104.624 98.6233 104.675 98.7344 104.681 98.8523L104.718 99.6149Z" fill="white"/>
<path d="M101.029 109.752H100.651L102.238 98.4248H102.616L101.029 109.752Z" fill="white"/>
</g>
<path d="M116.882 144.893C113.726 151.115 112.029 157.975 111.922 164.95C122.462 173.128 132.277 163.549 144.342 165.167C143.921 159.718 142.067 149.667 139.872 144.633C131.88 144.974 124.415 144.174 116.882 144.893Z" fill="#92E3A9"/>
<path d="M117.98 142.681C117.98 142.681 117.13 144.869 117.36 144.869H139.5C139.692 144.869 139.847 144.776 139.86 144.652L140.052 142.792C140.052 142.662 139.897 142.55 139.692 142.55H118.327C118.263 142.542 118.198 142.549 118.137 142.572C118.076 142.594 118.022 142.632 117.98 142.681Z" fill="white"/>
<path d="M121.098 145.08H120.528C120.41 145.08 120.323 145.018 120.33 144.943L120.602 142.463C120.602 142.389 120.708 142.333 120.819 142.333H121.396C121.508 142.333 121.594 142.389 121.588 142.463L121.322 144.943C121.304 144.987 121.273 145.024 121.233 145.049C121.193 145.073 121.145 145.084 121.098 145.08Z" fill="#92E3A9"/>
<path d="M134.962 145.08H134.391C134.28 145.08 134.193 145.018 134.199 144.943L134.466 142.463C134.466 142.389 134.571 142.333 134.689 142.333H135.259C135.371 142.333 135.458 142.389 135.451 142.463L135.185 144.943C135.16 144.993 135.079 145.08 134.962 145.08Z" fill="#92E3A9"/>
</svg>
