<svg width="116" height="116" viewBox="0 0 116 116" fill="none" xmlns="http://www.w3.org/2000/svg">
<path fill-rule="evenodd" clip-rule="evenodd" d="M82.8219 18.3519H77.1459V21.1899H67.2129C66.4294 21.1899 65.7939 21.8253 65.7939 22.6089C65.7939 23.3925 66.4294 24.0279 67.2129 24.0279H92.7548C93.5384 24.0279 94.1738 23.3925 94.1738 22.6089C94.1738 21.8253 93.5384 21.1899 92.7548 21.1899H82.8219V18.3519Z" fill="#19884A"/>
<path fill-rule="evenodd" clip-rule="evenodd" d="M74.3077 7C72.7403 7 71.4697 8.27062 71.4697 9.83799V15.514C71.4697 17.0813 72.7403 18.352 74.3077 18.352H85.6597C87.2271 18.352 88.4977 17.0813 88.4977 15.514V9.83799C88.4977 8.27062 87.2271 7 85.6597 7H74.3077ZM79.9837 15.514C81.5511 15.514 82.8217 14.2433 82.8217 12.676C82.8217 11.1086 81.5511 9.83799 79.9837 9.83799C78.4163 9.83799 77.1457 11.1086 77.1457 12.676C77.1457 14.2433 78.4163 15.514 79.9837 15.514Z" fill="#19884A"/>
<path fill-rule="evenodd" clip-rule="evenodd" d="M97.0111 100.654V43.4389C97.0111 41.7821 96.2872 40.2079 95.0291 39.1294L89.8659 34.7041C88.3677 33.42 87.4079 31.6354 87.1488 29.7039H72.8176C72.5585 31.6354 71.5986 33.42 70.1005 34.7041L64.9373 39.1294C63.6792 40.2079 62.9553 41.7821 62.9553 43.4389V100.654H97.0111ZM61.2434 34.8199C58.7275 36.9765 57.2793 40.125 57.2793 43.4389V103.492C57.2793 105.059 58.5499 106.33 60.1173 106.33H99.8491C101.417 106.33 102.687 105.059 102.687 103.492V43.4389C102.687 40.125 101.239 36.9765 98.723 34.8199L93.5599 30.3947C93.0484 29.9562 92.7541 29.3162 92.7541 28.6428C92.7541 26.094 90.6881 24.0279 88.1393 24.0279H71.8271C69.2783 24.0279 67.2123 26.094 67.2123 28.6428C67.2123 29.3162 66.918 29.9562 66.4066 30.3947L61.2434 34.8199Z" fill="#19884A"/>
<path fill-rule="evenodd" clip-rule="evenodd" d="M79.9839 55.2458C87.8207 55.2458 94.1738 61.5989 94.1738 69.4357C94.1738 77.2725 87.8207 83.6256 79.9839 83.6256C72.1471 83.6256 65.7939 77.2725 65.7939 69.4357C65.7939 61.5989 72.1471 55.2458 79.9839 55.2458ZM79.9839 59.5027C85.4697 59.5027 89.9168 63.9499 89.9168 69.4357C89.9168 71.4084 89.3419 73.2465 88.3503 74.7921L74.6275 61.0693C76.173 60.0777 78.0112 59.5027 79.9839 59.5027ZM71.6175 64.0793C70.6259 65.6248 70.0509 67.463 70.0509 69.4357C70.0509 74.9215 74.4981 79.3687 79.9839 79.3687C81.9563 79.3687 83.7947 78.7937 85.3403 77.8021L71.6175 64.0793Z" fill="#19884A"/>
<path d="M51.6033 102.073C51.6033 104.424 50.1843 106.33 40.2514 106.33C30.3184 106.33 28.8994 104.424 28.8994 102.073C28.8994 100.654 33.982 97.8156 40.2514 97.8156C46.5208 97.8156 51.6033 100.654 51.6033 102.073Z" fill="#19884A"/>
<path fill-rule="evenodd" clip-rule="evenodd" d="M30.866 88.3892C31.37 88.6917 31.5335 89.3453 31.231 89.8494L27.9412 95.3326H30.8606C31.8011 95.3326 32.661 95.8639 33.0816 96.7051L35.5274 101.597C35.7902 102.123 35.5771 102.762 35.0515 103.025C34.5256 103.288 33.8865 103.074 33.6237 102.549L31.1779 97.6572C31.1177 97.5369 30.9949 97.4611 30.8606 97.4611H27.3145C25.9359 97.4611 25.0842 95.957 25.7937 94.7747L29.4059 88.7542C29.7084 88.2501 30.362 88.0867 30.866 88.3892Z" fill="#19884A"/>
<path fill-rule="evenodd" clip-rule="evenodd" d="M42.0306 88.0759C42.3158 88.5899 42.1305 89.2378 41.6165 89.523L36.5737 92.3227C36.3328 92.4563 36.3297 92.802 36.5686 92.9399L38.5541 94.0862C39.3686 94.5567 39.8476 95.4467 39.7914 96.3855L39.4636 101.845C39.4285 102.432 38.9241 102.879 38.3375 102.843C37.7509 102.808 37.3037 102.304 37.3388 101.717L37.6666 96.2581C37.6746 96.1239 37.6062 95.9967 37.4898 95.9297L35.5044 94.7832C33.8328 93.8183 33.8529 91.3983 35.5407 90.4615L40.5835 87.6621C41.0975 87.3769 41.7454 87.5622 42.0306 88.0759Z" fill="#19884A"/>
<path fill-rule="evenodd" clip-rule="evenodd" d="M52.6648 93.6429C52.6197 94.2289 52.1083 94.6677 51.5223 94.6226L45.1371 94.1327L47.0414 96.0183C48.0466 97.0138 48.0182 98.6471 46.9789 99.6069L42.3927 103.843C41.9611 104.242 41.2876 104.215 40.8889 103.783C40.4901 103.352 40.5168 102.678 40.9485 102.279L45.5347 98.0435C45.6831 97.9064 45.6874 97.6731 45.5438 97.5309L42.9532 94.9654C41.78 93.8038 42.691 91.8104 44.337 91.9367L51.6852 92.5003C52.2712 92.5454 52.7097 93.0568 52.6648 93.6429Z" fill="#19884A"/>
<path d="M31.639 102.585C31.9731 104.116 30.3818 105.764 28.0848 106.265C25.7877 106.766 23.6546 105.931 23.3206 104.399C22.9868 102.868 24.5781 101.22 26.8752 100.719C29.1723 100.218 31.305 101.053 31.639 102.585Z" fill="#19884A"/>
<path fill-rule="evenodd" clip-rule="evenodd" d="M15.3423 100.333C15.1658 99.9849 14.7415 99.8445 14.3923 100.019C14.0419 100.194 13.8998 100.621 14.0751 100.971L14.7096 100.654C14.0751 100.971 14.0749 100.971 14.0751 100.971L14.0768 100.975L14.0791 100.979L14.0854 100.991L14.1049 101.028C14.121 101.057 14.1434 101.096 14.1725 101.144C14.2305 101.24 14.3154 101.37 14.4303 101.523C14.6597 101.829 15.0107 102.229 15.508 102.627C16.5116 103.43 18.0848 104.201 20.3856 104.201H26.0602C26.4521 104.201 26.7711 103.883 26.7711 103.492C26.7711 103.1 26.4535 102.782 26.0616 102.782H20.3856C18.4295 102.782 17.1646 102.135 16.3945 101.519C16.0049 101.207 15.7351 100.898 15.5655 100.671C15.4808 100.559 15.4216 100.467 15.3854 100.408C15.3673 100.378 15.3551 100.356 15.3483 100.344L15.3423 100.333Z" fill="#19884A"/>
<path fill-rule="evenodd" clip-rule="evenodd" d="M26.2336 102.804C26.6139 102.899 26.8449 103.284 26.7498 103.665L26.0616 103.492C26.7498 103.665 26.7498 103.664 26.7498 103.665L26.7493 103.668L26.7478 103.673L26.7436 103.689L26.7288 103.744C26.7158 103.792 26.6968 103.859 26.6712 103.943C26.6204 104.11 26.5435 104.346 26.4376 104.628C26.2271 105.19 25.8973 105.946 25.4216 106.706C24.4831 108.208 22.8765 109.878 20.3856 109.878C18.0848 109.878 16.5116 109.107 15.508 108.304C15.0107 107.906 14.6597 107.506 14.4303 107.2C14.3154 107.046 14.2305 106.916 14.1725 106.821C14.1434 106.773 14.121 106.734 14.1049 106.704L14.0854 106.668L14.0791 106.656L14.0768 106.651L14.0754 106.649C14.0752 106.648 14.0751 106.648 14.7096 106.33L14.0754 106.649C13.9002 106.298 14.0419 105.871 14.3923 105.696C14.7415 105.521 15.1658 105.662 15.3423 106.009M15.3423 106.009L15.3483 106.021C15.3551 106.033 15.3673 106.055 15.3854 106.084C15.4216 106.144 15.4808 106.235 15.5655 106.348C15.7351 106.574 16.0049 106.884 16.3945 107.195C17.1646 107.812 18.4295 108.459 20.3856 108.459C22.1518 108.459 23.3831 107.291 24.2183 105.954C24.6296 105.297 24.9207 104.633 25.1089 104.13C25.2028 103.88 25.2701 103.673 25.3135 103.53C25.3351 103.459 25.3507 103.404 25.3606 103.368L25.3711 103.329L25.3731 103.321" fill="#19884A"/>
<path fill-rule="evenodd" clip-rule="evenodd" d="M14.71 21.0279H15.6019V23.439C15.6019 25.036 16.2363 26.5676 17.3656 27.6969C17.4304 27.7619 17.4669 27.8496 17.4669 27.9415V57.0082C17.4669 57.1001 17.4304 57.1878 17.3656 57.2528C16.2363 58.382 15.6019 59.9137 15.6019 61.5106V63.9218H14.71V75.1117H16.8413H42.4181H44.5494V63.9218H43.6574V61.5106C43.6574 59.9137 43.0231 58.382 41.8936 57.2528C41.8289 57.1878 41.7926 57.1001 41.7926 57.0082V27.9415C41.7926 27.8496 41.8289 27.7619 41.8936 27.6969C43.0231 26.5676 43.6574 25.036 43.6574 23.439V21.0279H44.5494V9.83798H14.71V21.0279ZM37.9815 63.9218V61.5106C37.9815 61.419 37.9451 61.331 37.8801 61.2663C36.7509 60.1371 36.1166 58.6054 36.1166 57.0082V27.9415C36.1166 26.3443 36.7509 24.8126 37.8801 23.6834C37.9451 23.6187 37.9815 23.5307 37.9815 23.439V21.0279H21.2779V23.439C21.2779 23.5307 21.3143 23.6187 21.3791 23.6834C22.5084 24.8126 23.1428 26.3443 23.1428 27.9415V57.0082C23.1428 58.6054 22.5084 60.1371 21.3791 61.2663C21.3143 61.331 21.2779 61.419 21.2779 61.5106V63.9218H37.9815Z" fill="#19884A"/>
</svg>
