<svg width="502" height="338" viewBox="0 0 502 338" fill="none" xmlns="http://www.w3.org/2000/svg">
<path d="M111.451 71.5029L17.8184 134.137L110.046 272.009L203.678 209.375L111.451 71.5029Z" fill="#E2FDEE"/>
<path d="M155.292 202.853L154.232 209.429L107.684 202.719L108.743 196.144L155.292 202.853Z" fill="#E0E0E0"/>
<path d="M131.852 179.395L138.528 180.355L131.126 226.186L124.441 225.218L131.852 179.395Z" fill="#E0E0E0"/>
<path d="M89.0165 121.147C89.0833 121.238 79.7034 127.639 68.0621 135.417C56.4207 143.194 46.9323 149.436 46.8656 149.336C46.7988 149.236 56.1787 142.844 67.8201 135.058C79.4614 127.272 88.9081 121.047 89.0165 121.147Z" fill="#E0E0E0"/>
<path d="M123.415 112.501C123.482 112.601 107.877 123.15 88.5663 136.068C69.2558 148.986 53.517 159.375 53.4669 159.284C53.4168 159.192 68.9888 148.627 88.3243 135.709C107.66 122.791 123.349 112.401 123.415 112.501Z" fill="#E0E0E0"/>
<path d="M130.318 122.816C130.384 122.916 114.779 133.472 95.4686 146.39C76.1581 159.309 60.4193 169.698 60.3693 169.598C60.3192 169.498 75.9078 158.95 95.2266 146.023C114.545 133.097 130.251 122.716 130.318 122.816Z" fill="#E0E0E0"/>
<path d="M137.219 133.138C137.285 133.239 121.68 143.795 102.37 156.705C83.0591 169.615 67.3203 180.021 67.3203 179.921C67.3203 179.821 82.8505 169.264 102.169 156.346C121.488 143.428 137.152 133.038 137.219 133.138Z" fill="#E0E0E0"/>
<path d="M144.094 143.461C144.161 143.561 128.556 154.109 109.245 167.028C89.9349 179.946 74.1961 190.335 74.1544 190.235C74.1127 190.135 89.7096 179.587 109.045 166.669C128.381 153.751 144.094 143.361 144.094 143.461Z" fill="#E0E0E0"/>
<path d="M424.546 163.886L345.91 216.488L423.364 332.275L502 279.672L424.546 163.886Z" fill="#E2FDEE"/>
<path d="M461.374 274.22L460.481 279.745L421.385 274.112L422.286 268.587L461.374 274.22Z" fill="#E0E0E0"/>
<path d="M441.688 254.518L447.296 255.327L441.079 293.815L435.463 293.005L441.688 254.518Z" fill="#E0E0E0"/>
<path d="M405.68 205.64C405.747 205.741 397.877 211.123 388.097 217.657C378.317 224.192 370.339 229.416 370.272 229.34C370.205 229.265 378.083 223.866 387.855 217.324C397.627 210.781 405.613 205.499 405.68 205.64Z" fill="#E0E0E0"/>
<path d="M434.594 198.339C434.661 198.439 421.567 207.318 405.386 218.158C389.205 228.998 375.962 237.727 375.895 237.627C375.828 237.527 388.921 228.648 405.103 217.799C421.284 206.951 434.502 198.238 434.594 198.339Z" fill="#E0E0E0"/>
<path d="M440.395 207.001C440.462 207.101 427.368 215.98 411.187 226.829C395.006 237.677 381.762 246.389 381.696 246.289C381.629 246.189 394.68 237.352 410.903 226.503C427.126 215.655 440.345 206.909 440.395 207.001Z" fill="#E0E0E0"/>
<path d="M446.186 215.655C446.253 215.755 433.151 224.634 416.978 235.483C400.805 246.331 387.553 255.043 387.487 254.943C387.42 254.843 400.513 245.972 416.694 235.115C432.875 224.258 446.127 215.571 446.186 215.655Z" fill="#E0E0E0"/>
<path d="M452.026 224.342C452.092 224.442 438.999 233.313 422.818 244.161C406.637 255.01 393.393 263.722 393.326 263.63C393.26 263.538 406.353 254.651 422.534 243.802C438.715 232.954 451.917 224.242 452.026 224.342Z" fill="#E0E0E0"/>
<path d="M300.14 76.5751L214.338 30.6841L146.765 157.025L232.567 202.916L300.14 76.5751Z" fill="#E2FDEE"/>
<path d="M217.882 163.389L212.441 165.25L198.621 127.055L204.07 125.186L217.882 163.389Z" fill="#E0E0E0"/>
<path d="M226.226 135.984L228.212 141.467L190.275 154.46L188.289 148.977L226.226 135.984Z" fill="#E0E0E0"/>
<path d="M253.182 79.6297C253.116 79.7549 244.42 75.2319 233.747 69.5322C223.073 63.8325 214.486 59.1009 214.553 58.9757C214.62 58.8505 223.324 63.3735 233.997 69.0732C244.671 74.7729 253.249 79.4962 253.182 79.6297Z" fill="#E0E0E0"/>
<path d="M273.778 102.354C273.711 102.479 259.308 94.9015 241.608 85.4382C223.908 75.9749 209.621 68.1973 209.688 68.0721C209.754 67.9469 224.15 75.5159 241.85 84.9875C259.55 94.4592 273.845 102.228 273.778 102.354Z" fill="#E0E0E0"/>
<path d="M268.719 111.808C268.653 111.934 254.249 104.365 236.549 94.893C218.849 85.4214 204.562 77.6521 204.629 77.5269C204.696 77.4017 219.091 84.9791 236.791 94.4424C254.491 103.906 268.786 111.683 268.719 111.808Z" fill="#E0E0E0"/>
<path d="M263.663 121.263C263.596 121.389 249.192 113.82 231.492 104.356C213.793 94.893 199.506 87.1404 199.572 86.9902C199.639 86.84 214.034 94.434 231.734 103.897C249.434 113.361 263.729 121.138 263.663 121.263Z" fill="#E0E0E0"/>
<path d="M258.606 130.718C258.539 130.844 244.136 123.275 226.436 113.811C208.736 104.348 194.441 96.5703 194.516 96.4451C194.591 96.32 208.978 103.889 226.678 113.352C244.378 122.816 258.673 130.593 258.606 130.718Z" fill="#E0E0E0"/>
<path d="M481.794 336.517C481.794 336.633 373.934 336.733 240.906 336.733C107.877 336.733 0 336.658 0 336.517C0 336.375 107.843 336.3 240.906 336.3C373.968 336.3 481.794 336.391 481.794 336.517Z" fill="#263238"/>
<g opacity="0.4">
<path fill-rule="evenodd" clip-rule="evenodd" d="M77.9071 325.956V307.902H75.9994H73.7852V325.956H75.9994H77.9071Z" fill="#D3C2B8"/>
<path fill-rule="evenodd" clip-rule="evenodd" d="M75.8288 238.186C80.3766 238.186 90.6814 258.217 90.6814 280.002C90.6814 301.787 84.3622 310.15 75.8288 310.15C67.2954 310.15 61.0273 301.804 61.0273 280.002C61.0273 258.2 71.2811 238.186 75.8288 238.186Z" fill="#5DB089"/>
<path fill-rule="evenodd" clip-rule="evenodd" d="M86.2364 264.639C86.2364 286.355 79.27 303.95 70.6855 303.95C69.2693 303.835 67.8989 303.394 66.6816 302.661C65.4642 301.928 64.4328 300.924 63.668 299.726C65.9333 306.079 69.4932 309.247 73.7854 309.946C74.4603 310.063 75.1443 310.12 75.8293 310.116C76.5256 310.12 77.221 310.063 77.9073 309.946C85.3677 308.634 90.6819 299.965 90.6819 279.968C90.6073 270.436 88.8307 260.993 85.4358 252.085C85.9726 256.248 86.24 260.441 86.2364 264.639Z" fill="#79B79A"/>
<path fill-rule="evenodd" clip-rule="evenodd" d="M70.6853 303.95C79.2017 303.95 86.2363 286.355 86.2363 264.638C86.2384 260.452 85.971 256.27 85.4357 252.119C82.3358 244.097 78.6226 238.697 76.1699 238.22C76.6792 242.271 76.9295 246.35 76.9193 250.433C76.9193 272.03 70.1062 289.608 61.5898 289.744C61.9221 293.142 62.6422 296.491 63.736 299.726C64.494 300.914 65.5146 301.913 66.7194 302.646C67.9242 303.378 69.281 303.824 70.6853 303.95Z" fill="#5DB089"/>
<path fill-rule="evenodd" clip-rule="evenodd" d="M444.35 328.886V310.814H442.46H440.229V328.886H442.46H444.35Z" fill="#D3C2B8"/>
<path fill-rule="evenodd" clip-rule="evenodd" d="M442.272 241.099C446.82 241.099 457.125 261.129 457.125 282.931C457.125 304.733 450.823 313.079 442.272 313.079C433.722 313.079 427.471 304.716 427.471 282.931C427.471 261.146 437.69 241.099 442.272 241.099Z" fill="#5DB089"/>
<path fill-rule="evenodd" clip-rule="evenodd" d="M452.682 267.551C452.682 289.268 445.715 306.88 437.131 306.88C434.61 306.88 432.225 305.347 430.113 302.655C432.379 308.992 435.938 312.177 440.231 312.875C440.906 312.992 441.59 313.049 442.275 313.045C442.971 313.042 443.665 312.985 444.353 312.875C451.83 311.564 457.127 302.877 457.127 282.897C457.063 273.358 455.287 263.908 451.881 254.998C452.426 259.16 452.694 263.353 452.682 267.551Z" fill="#79B79A"/>
<path fill-rule="evenodd" clip-rule="evenodd" d="M437.125 306.88C445.641 306.88 452.676 289.268 452.676 267.551C452.686 263.365 452.419 259.183 451.875 255.032C448.792 247.009 445.062 241.61 442.609 241.133C443.123 245.184 443.379 249.263 443.376 253.346C443.376 274.943 436.477 292.521 427.961 292.657C428.293 296.061 429.013 299.415 430.107 302.655C432.219 305.347 434.604 306.88 437.125 306.88Z" fill="#5DB089"/>
<path fill-rule="evenodd" clip-rule="evenodd" d="M163.481 313.982V303.695H162.408H161.131V313.982H162.408H163.481Z" fill="#D3C2B8"/>
<path fill-rule="evenodd" clip-rule="evenodd" d="M162.302 264.008C164.891 264.008 170.819 275.403 170.819 287.854C170.819 300.305 167.225 305.023 162.302 305.023C157.38 305.023 153.871 300.254 153.871 287.854C153.871 275.454 159.713 264.008 162.302 264.008Z" fill="#5DB089"/>
<path fill-rule="evenodd" clip-rule="evenodd" d="M168.233 279.065C168.233 291.431 164.264 301.446 159.376 301.446C158.569 301.379 157.789 301.128 157.095 300.712C156.401 300.295 155.812 299.725 155.373 299.045C156.668 302.655 158.694 304.461 161.13 304.887C161.908 305.023 162.703 305.023 163.481 304.887C167.739 304.137 170.754 299.198 170.754 287.854C170.711 282.427 169.702 277.052 167.773 271.979C168.077 274.329 168.231 276.696 168.233 279.065Z" fill="#79B79A"/>
<path fill-rule="evenodd" clip-rule="evenodd" d="M159.374 301.447C164.262 301.447 168.231 291.431 168.231 279.066C168.23 276.685 168.076 274.307 167.771 271.946C166.067 267.381 163.87 264.298 162.491 264.026C162.789 266.33 162.937 268.651 162.933 270.975C162.933 283.273 158.999 293.254 154.145 293.356C154.34 295.292 154.752 297.2 155.371 299.045C155.809 299.725 156.398 300.296 157.092 300.712C157.786 301.129 158.567 301.38 159.374 301.447Z" fill="#5DB089"/>
<path fill-rule="evenodd" clip-rule="evenodd" d="M367.074 313.454V303.167H366.001H364.74V313.454H366.001H367.074Z" fill="#D3C2B8"/>
<path fill-rule="evenodd" clip-rule="evenodd" d="M365.899 263.446C368.488 263.446 374.416 274.841 374.416 287.292C374.416 299.743 370.822 304.444 365.899 304.444C360.977 304.444 357.383 299.692 357.383 287.292C357.383 274.892 363.31 263.446 365.899 263.446Z" fill="#5DB089"/>
<path fill-rule="evenodd" clip-rule="evenodd" d="M371.825 278.537C371.825 290.903 367.856 300.918 362.968 300.918C362.162 300.849 361.382 300.596 360.688 300.18C359.995 299.764 359.405 299.195 358.965 298.516C360.259 302.127 362.371 303.933 364.739 304.359C365.123 304.413 365.51 304.442 365.897 304.444C366.291 304.445 366.684 304.411 367.072 304.342C371.331 303.609 374.345 298.67 374.345 287.309C374.313 281.881 373.303 276.504 371.365 271.434C371.67 273.79 371.823 276.162 371.825 278.537Z" fill="#79B79A"/>
<path fill-rule="evenodd" clip-rule="evenodd" d="M362.97 300.919C367.858 300.919 371.827 290.903 371.827 278.537C371.826 276.157 371.673 273.779 371.367 271.418C369.664 266.836 367.467 263.77 366.087 263.498C366.386 265.802 366.534 268.123 366.53 270.447C366.53 282.745 362.595 292.726 357.758 292.828C357.941 294.765 358.346 296.674 358.967 298.517C359.408 299.195 359.997 299.765 360.691 300.181C361.384 300.597 362.164 300.849 362.97 300.919Z" fill="#5DB089"/>
<path d="M10.0137 337.147C10.0137 337.147 253.054 267.313 492.041 337.147H10.0137Z" fill="#006837"/>
</g>
<path d="M26.6701 284.251C28.081 284.353 29.4569 284.738 30.7158 285.383C31.9746 286.028 33.0906 286.92 33.9971 288.006C35.7995 290.191 37.0757 292.761 37.7273 295.517C39.1376 300.791 38.2698 307.025 36.7676 312.274C31.0596 310.229 27.5297 304.137 25.9191 300.933C23.4155 295.876 21.9218 285.194 26.6451 284.243" fill="#72D250"/>
<path d="M44.9868 318.674C44.1297 317.345 43.6396 315.812 43.5663 314.232C43.493 312.652 43.8391 311.081 44.5696 309.678C45.3229 308.289 46.3455 307.063 47.5777 306.073C48.8099 305.083 50.227 304.348 51.7463 303.912C53.14 303.478 54.7589 303.303 55.9689 304.112C56.5144 304.525 56.9392 305.076 57.199 305.709C57.4588 306.341 57.5441 307.032 57.446 307.709C57.227 309.065 56.6509 310.338 55.777 311.397C52.9981 315.161 49.6267 318.29 44.9284 318.674" fill="#72D250"/>
<path d="M45.6212 336.308C45.4974 335.953 45.4107 335.587 45.3625 335.214C45.2123 334.43 45.012 333.42 44.77 332.21C44.0209 328.897 43.8124 325.484 44.1525 322.104C44.546 318.708 45.8395 315.478 47.8994 312.749C48.5288 311.933 49.2545 311.196 50.0608 310.555C50.2799 310.381 50.5083 310.219 50.7451 310.071C50.8204 310.008 50.9048 309.957 50.9954 309.92C49.9399 310.822 48.9755 311.826 48.1164 312.916C46.1651 315.648 44.9365 318.829 44.5447 322.163C44.0106 326.051 44.6699 329.615 45.0538 332.177C45.254 333.454 45.4209 334.488 45.5127 335.206C45.5785 335.57 45.6148 335.938 45.6212 336.308Z" fill="#263238"/>
<path d="M28.5059 292.287C28.6011 292.419 28.6796 292.562 28.7395 292.713C28.8897 293.047 29.09 293.464 29.3237 293.99C29.8327 295.1 30.5421 296.71 31.4016 298.705C33.1207 302.702 35.4239 308.26 37.8273 314.452C40.2307 320.644 42.2752 326.294 43.6689 330.408C44.3865 332.461 44.9457 334.13 45.3379 335.29C45.5131 335.84 45.6466 336.283 45.7551 336.625C45.8147 336.778 45.8567 336.938 45.8803 337.1C45.7957 336.959 45.7284 336.807 45.68 336.65C45.5548 336.316 45.3963 335.882 45.1877 335.34L43.4268 330.499C41.9331 326.419 39.8468 320.777 37.4518 314.594C35.0567 308.41 32.7869 302.836 31.1346 298.813C30.3001 296.835 29.6575 295.225 29.1818 294.048C28.9648 293.514 28.7896 293.088 28.6561 292.746C28.5934 292.598 28.5431 292.444 28.5059 292.287Z" fill="#263238"/>
<path d="M38.8371 324.641C37.1199 321.782 34.747 319.373 31.9145 317.613C29.082 315.853 25.8712 314.792 22.5475 314.519C20.8785 314.402 18.8256 314.685 18.0745 316.188C17.3235 317.69 18.3249 319.526 19.4765 320.744C21.9233 323.304 25.0732 325.082 28.529 325.854C31.9848 326.626 35.5918 326.358 38.8955 325.083" fill="#72D250"/>
<path d="M25.1172 319.042C25.471 319.024 25.8257 319.038 26.177 319.083C26.5885 319.105 26.9981 319.153 27.4038 319.225C27.8794 319.317 28.4386 319.367 29.0227 319.534C29.6757 319.672 30.3195 319.85 30.9504 320.068C31.6814 320.303 32.3976 320.581 33.0951 320.902C34.6994 321.621 36.2168 322.52 37.6181 323.581C39.0033 324.668 40.2578 325.911 41.3567 327.286C41.8313 327.885 42.2688 328.512 42.6669 329.164C43.0267 329.727 43.3555 330.309 43.6516 330.908C43.9023 331.396 44.1252 331.897 44.3192 332.41C44.4866 332.79 44.6287 333.18 44.7448 333.579C44.8684 333.911 44.9606 334.255 45.0202 334.605C44.9284 334.605 44.5279 333.17 43.4013 331.033C43.0945 330.46 42.7574 329.902 42.3915 329.364C41.9848 328.732 41.5447 328.122 41.073 327.537C38.8903 324.84 36.1067 322.69 32.9449 321.261C32.2189 320.944 31.5262 320.644 30.8503 320.427C30.2297 320.201 29.5974 320.009 28.956 319.851C26.6193 319.208 25.1089 319.133 25.1172 319.042Z" fill="#263238"/>
<path d="M177.474 165.201L147.932 316.914L144.094 336.775L341.037 335.824C349.883 335.782 357.728 327.93 360.557 316.263L395.489 173.037C397.65 164.183 392.91 154.97 386.201 154.978L186.821 155.187C182.481 155.178 178.592 159.284 177.474 165.201Z" fill="#006837"/>
<g opacity="0.5">
<path d="M177.474 165.201L147.932 316.914L144.094 336.775L341.037 335.824C349.883 335.782 357.728 327.929 360.557 316.263L395.489 173.037C397.65 164.182 392.91 154.969 386.201 154.978L186.821 155.186C182.481 155.178 178.592 159.284 177.474 165.201Z" fill="black"/>
</g>
<path d="M322.17 306.616L301.307 138.538C300.473 131.653 294.974 126.513 288.489 126.538L242.758 126.68C241.059 126.699 239.381 127.064 237.827 127.753C236.274 128.441 234.876 129.439 233.721 130.685L212.023 153.776L84.8446 154.461C77.0753 154.502 71.1003 161.863 72.1267 170.124L91.4956 325.468C92.3301 332.344 97.8295 337.476 104.297 337.468L325.984 337.026C350.669 337.535 353.03 330.249 353.03 330.249C324.69 336.517 322.17 306.658 322.17 306.616Z" fill="#006837"/>
<g opacity="0.5">
<path d="M202.974 238.376L198.988 242.655L168.295 215.04L172.281 210.761L202.974 238.376Z" fill="white"/>
<path d="M197.32 209.813L201.724 213.777L173.953 243.603L169.545 239.639L197.32 209.813Z" fill="white"/>
</g>
<path d="M355.929 38.0803C355.659 37.9664 355.427 37.7781 355.26 37.5372C355.093 37.2963 354.998 37.0129 354.986 36.72L354.652 28.9758C354.64 28.7352 354.685 28.4951 354.782 28.2746C354.879 28.0541 355.026 27.8592 355.211 27.7054C355.397 27.5515 355.615 27.443 355.85 27.3883C356.085 27.3336 356.329 27.3342 356.563 27.3902C357.209 27.5296 357.877 27.5357 358.526 27.408C359.174 27.2802 359.79 27.0215 360.335 26.6475C360.837 26.3298 361.268 25.9127 361.603 25.4218C361.937 24.931 362.168 24.3768 362.28 23.7935C362.355 23.2029 362.311 22.6031 362.151 22.0297C361.99 21.4563 361.716 20.921 361.345 20.4555C360.954 19.9258 360.462 19.4785 359.898 19.1391C359.334 18.7998 358.708 18.575 358.057 18.4777C356.744 18.4047 355.445 18.7769 354.369 19.5341C353.294 20.2914 352.506 21.3893 352.132 22.6502C352.007 23.0323 351.74 23.3515 351.386 23.5414C351.032 23.7314 350.618 23.7773 350.231 23.6698C349.844 23.5622 349.513 23.3094 349.307 22.964C349.102 22.6187 349.038 22.2073 349.128 21.8157C349.696 19.8324 350.929 18.1052 352.62 16.9243C354.312 15.7434 356.358 15.181 358.416 15.3316C359.487 15.4743 360.518 15.8307 361.448 16.3798C362.379 16.9288 363.189 17.6593 363.832 18.5278C364.457 19.3327 364.914 20.2548 365.176 21.2395C365.439 22.2243 365.501 23.2516 365.359 24.2608C365.169 25.2685 364.775 26.2267 364.201 27.0764C363.627 27.926 362.885 28.6491 362.021 29.2011C360.769 30.044 359.307 30.5209 357.798 30.578L358.057 36.5531C358.067 36.8156 358.01 37.0763 357.892 37.3111C357.774 37.5458 357.599 37.747 357.382 37.896C357.166 38.0449 356.916 38.1369 356.654 38.1633C356.393 38.1896 356.129 38.1496 355.887 38.0469L355.929 38.0803Z" fill="#72D250"/>
<path d="M358.217 41.2515C358.234 41.5035 358.177 41.7551 358.051 41.9744C357.926 42.1936 357.738 42.3708 357.512 42.4834C357.286 42.5959 357.031 42.6389 356.781 42.6068C356.53 42.5747 356.295 42.469 356.104 42.3031C355.914 42.1371 355.777 41.9184 355.711 41.6746C355.644 41.4308 355.652 41.1728 355.733 40.9334C355.813 40.6939 355.963 40.4838 356.163 40.3294C356.363 40.1751 356.604 40.0836 356.856 40.0665C357.024 40.054 357.192 40.0749 357.351 40.1278C357.51 40.1808 357.657 40.2648 357.784 40.375C357.91 40.4852 358.014 40.6194 358.088 40.7699C358.162 40.9203 358.206 41.084 358.217 41.2515Z" fill="#72D250"/>
<path d="M329.117 27.1566C329.153 26.9914 329.178 26.8242 329.192 26.6558C329.192 26.2887 329.284 25.8213 329.35 25.1621C329.433 24.3527 329.569 23.5497 329.759 22.7587C329.868 22.2914 329.926 21.774 330.093 21.2482C330.26 20.7225 330.427 20.155 330.611 19.5792C331.577 16.7263 332.985 14.0427 334.783 11.6264C337.14 8.49751 340.128 5.89888 343.554 3.99897C345.504 2.89963 347.58 2.04211 349.737 1.44538C352.066 0.828217 354.464 0.514072 356.873 0.510734C358.141 0.490358 359.41 0.557278 360.67 0.711017C361.312 0.777777 361.946 0.944679 362.589 1.05316C363.239 1.16447 363.88 1.32062 364.508 1.52049C367.139 2.25555 369.641 3.38976 371.927 4.88355C377.011 8.18091 380.883 13.0435 382.959 18.7364C384.077 21.7858 384.642 25.0102 384.628 28.2581C384.663 31.604 384.071 34.9268 382.884 38.0552L382.509 39.0065L382.459 39.1317L382.509 39.2569C384.603 44.072 386.681 48.8037 388.642 53.3851L388.993 52.9845L376.475 48.1861L376.325 48.1277L376.2 48.2445C372.888 51.453 368.835 53.7924 364.4 55.0541C360.61 56.0973 356.643 56.3251 352.759 55.7224C348.875 55.1197 345.163 53.7002 341.868 51.5575C339.169 49.7877 336.791 47.5727 334.833 45.0067C331.997 41.2612 330.159 36.8562 329.492 32.2053C329.392 31.3708 329.309 30.6698 329.234 30.0356C329.159 29.4014 329.234 28.884 329.192 28.4417C329.15 27.9994 329.192 27.7073 329.192 27.4653C329.234 27.459 329.271 27.4372 329.297 27.4043C329.324 27.3713 329.336 27.3297 329.333 27.2878C329.33 27.2458 329.311 27.2066 329.28 27.1779C329.25 27.1493 329.209 27.1334 329.167 27.1334C329.125 27.1334 329.084 27.1493 329.053 27.1779C329.023 27.2066 329.004 27.2458 329 27.2878C328.997 27.3297 329.01 27.3713 329.036 27.4043C329.063 27.4372 329.1 27.459 329.142 27.4653C329.142 27.7073 329.142 28.0328 329.142 28.4417C329.142 28.8506 329.142 29.4181 329.142 30.0523C329.142 30.6865 329.284 31.4125 329.367 32.2387C329.642 34.2459 330.12 36.22 330.794 38.1303C331.749 40.6531 333.035 43.0383 334.616 45.2236C336.581 47.8353 338.977 50.093 341.701 51.8997C345.037 54.0958 348.801 55.5575 352.745 56.1877C356.689 56.8178 360.721 56.6021 364.575 55.5548C369.063 54.2801 373.168 51.9183 376.525 48.6785L376.25 48.7369L388.767 53.5604L389.393 53.8024L389.118 53.1598C387.132 48.5783 385.079 43.855 382.993 39.0316V39.2736L383.377 38.2972C384.594 35.1006 385.2 31.7036 385.162 28.2831C385.189 24.9663 384.623 21.6713 383.493 18.5528C381.373 12.7464 377.414 7.7914 372.219 4.44127C369.875 2.91263 367.308 1.7583 364.608 1.01978C363.97 0.817706 363.317 0.664274 362.656 0.560805C362.005 0.443974 361.362 0.277073 360.711 0.218658C359.435 0.0602309 358.15 -0.012255 356.864 0.00168704C354.417 0.0120457 351.982 0.343105 349.621 0.986406C347.435 1.60717 345.331 2.48685 343.354 3.60676C339.894 5.55328 336.887 8.21291 334.533 11.4094C332.74 13.8657 331.351 16.5928 330.419 19.4874C330.243 20.0883 330.077 20.6641 329.926 21.1564C329.794 21.6595 329.688 22.1693 329.609 22.6836C329.43 23.4801 329.313 24.2892 329.259 25.1037C329.209 25.7462 329.175 26.2386 329.15 26.6058C329.115 26.7871 329.104 26.9723 329.117 27.1566Z" fill="#263238"/>
<path d="M425.391 295.276L426.292 311.49C426.292 311.49 409.911 317.833 409.777 320.845L441.664 320.236L441.313 294.925L425.391 295.276Z" fill="#263238"/>
<path d="M436.122 309.938C436.43 310.021 436.696 310.216 436.867 310.484C437.039 310.753 437.103 311.076 437.049 311.39C436.973 311.7 436.781 311.968 436.511 312.14C436.242 312.311 435.918 312.371 435.605 312.308C435.279 312.221 434.998 312.015 434.817 311.731C434.636 311.446 434.569 311.104 434.629 310.773C434.736 310.449 434.965 310.181 435.268 310.025C435.57 309.869 435.922 309.838 436.247 309.938" fill="#E0E0E0"/>
<path d="M441.663 320.236L441.53 317.682L411.004 319.21C411.004 319.21 409.602 319.844 409.777 320.828L441.663 320.236Z" fill="#455A64"/>
<path d="M425.766 311.34C425.766 311.49 426.559 311.549 427.335 312.024C428.111 312.5 428.529 313.143 428.671 313.084C428.812 313.026 428.562 312.133 427.619 311.566C426.676 310.998 425.733 311.198 425.766 311.34Z" fill="white"/>
<path d="M422.453 312.767C422.453 312.917 423.096 313.168 423.638 313.802C424.181 314.436 424.347 315.129 424.473 315.12C424.598 315.112 424.715 314.236 424.022 313.451C423.329 312.667 422.453 312.617 422.453 312.767Z" fill="white"/>
<path d="M420.626 316.756C420.767 316.756 420.968 316.013 420.559 315.179C420.15 314.344 419.407 314.019 419.34 314.153C419.274 314.286 419.741 314.72 420.066 315.413C420.392 316.105 420.475 316.739 420.626 316.756Z" fill="white"/>
<path d="M425.974 307.618C426.041 307.76 426.751 307.535 427.644 307.576C428.536 307.618 429.221 307.877 429.313 307.752C429.404 307.627 428.72 307.076 427.644 307.042C426.567 307.009 425.899 307.501 425.974 307.618Z" fill="white"/>
<path d="M467.266 294.533L468.994 314.102L465.839 329.958C465.787 330.23 465.791 330.511 465.852 330.781C465.912 331.052 466.028 331.307 466.192 331.531C466.355 331.755 466.563 331.943 466.803 332.083C467.042 332.223 467.308 332.312 467.583 332.345C467.905 332.384 468.231 332.347 468.535 332.237C468.84 332.127 469.114 331.946 469.336 331.71C472.173 328.648 482.579 317.34 482.371 315.913C482.129 314.244 481.937 295.159 481.937 295.159L467.266 294.533Z" fill="#263238"/>
<path d="M467.584 332.353L482.28 314.603L482.338 315.438C482.382 316.158 482.169 316.87 481.737 317.449C480.577 318.984 477.264 323.173 469.395 331.727C469.167 331.971 468.883 332.156 468.567 332.267C468.252 332.377 467.915 332.41 467.584 332.361V332.353Z" fill="#455A64"/>
<g opacity="0.6">
<path d="M477.798 308.553C477.552 308.735 477.389 309.008 477.344 309.311C477.3 309.614 477.377 309.922 477.56 310.168C477.742 310.413 478.015 310.576 478.318 310.621C478.621 310.666 478.929 310.588 479.175 310.405C479.412 310.205 479.569 309.925 479.613 309.617C479.658 309.309 479.588 308.996 479.417 308.736C479.198 308.517 478.906 308.388 478.597 308.374C478.288 308.36 477.985 308.462 477.748 308.661" fill="white"/>
</g>
<path d="M471.563 323.499C471.081 322.873 470.439 322.387 469.705 322.094C468.971 321.8 468.172 321.709 467.391 321.83C467.391 321.78 467.616 321.613 468.075 321.521C468.68 321.419 469.302 321.489 469.87 321.722C470.437 321.955 470.929 322.342 471.288 322.84C471.555 323.19 471.605 323.482 471.563 323.499Z" fill="white"/>
<path d="M470.321 326.211C469.728 325.936 469.121 325.693 468.502 325.485C467.854 325.402 467.202 325.361 466.549 325.36C466.843 325.151 467.182 325.014 467.539 324.962C467.896 324.91 468.26 324.943 468.602 325.059C469.795 325.326 470.421 326.153 470.321 326.211Z" fill="white"/>
<path d="M473.976 319.969C472.288 318.826 470.305 318.197 468.268 318.158C469.286 317.82 470.39 317.849 471.389 318.241C472.428 318.493 473.345 319.105 473.976 319.969Z" fill="white"/>
<path d="M473.95 313.977C473.909 314.094 472.782 313.719 471.355 313.752C469.928 313.785 468.81 314.203 468.76 314.086C469.537 313.608 470.428 313.346 471.34 313.327C472.253 313.308 473.154 313.532 473.95 313.977Z" fill="white"/>
<path d="M473.592 308.219C472.708 307.996 471.799 307.895 470.888 307.919C469.993 308.083 469.123 308.363 468.301 308.753C468.301 308.711 468.468 308.453 468.91 308.169C469.494 307.797 470.157 307.568 470.846 307.501C471.537 307.433 472.234 307.528 472.882 307.777C473.375 307.96 473.617 308.177 473.592 308.219Z" fill="white"/>
<path d="M470.854 306.817C470.775 306.581 470.749 306.33 470.779 306.083C470.804 305.399 470.963 304.727 471.247 304.105C471.419 303.627 471.745 303.219 472.173 302.945C472.323 302.869 472.493 302.841 472.66 302.863C472.826 302.885 472.983 302.957 473.108 303.07C473.329 303.294 473.459 303.591 473.475 303.905C473.47 304.569 473.232 305.21 472.804 305.717C472.376 306.225 471.784 306.567 471.13 306.684C470.479 306.795 469.81 306.711 469.207 306.442C468.604 306.173 468.094 305.732 467.742 305.173C467.655 305.032 467.599 304.874 467.579 304.71C467.559 304.546 467.574 304.379 467.625 304.222C467.699 304.068 467.819 303.94 467.969 303.857C468.118 303.773 468.289 303.737 468.459 303.754C468.953 303.829 469.419 304.03 469.811 304.339C470.378 304.729 470.87 305.218 471.263 305.782C471.427 305.97 471.547 306.193 471.614 306.433C471.048 305.731 470.385 305.113 469.644 304.597C469.292 304.341 468.882 304.174 468.451 304.113C468.36 304.1 468.267 304.118 468.187 304.163C468.107 304.209 468.045 304.279 468.009 304.364C467.983 304.468 467.98 304.577 467.999 304.684C468.017 304.79 468.058 304.891 468.117 304.981C468.429 305.455 468.87 305.83 469.387 306.064C469.904 306.297 470.476 306.379 471.038 306.3C471.589 306.194 472.088 305.906 472.456 305.482C472.824 305.058 473.039 304.523 473.066 303.963C473.064 303.736 472.981 303.517 472.832 303.346C472.765 303.281 472.678 303.239 472.586 303.225C472.493 303.212 472.398 303.228 472.315 303.27C471.944 303.496 471.652 303.831 471.48 304.23C471.123 305.049 470.911 305.925 470.854 306.817Z" fill="white"/>
<path d="M411.18 156.272C411.18 156.272 407.533 167.905 408.451 179.204C408.818 183.569 421.87 305.49 421.87 305.49H443.692L437.559 192.156L439.344 192.515C439.344 192.515 450.552 242.518 451.52 250.346C452.396 257.373 463.153 306.809 463.153 306.809L483.114 307.018L475.412 241.325L469.32 174.565L466.533 155.688L411.18 156.272Z" fill="#263238"/>
<path d="M400.447 46.0503C400.447 46.0503 380.494 69.0493 377.715 73.105C374.936 77.1607 376.246 82.6267 377.715 84.3875C379.184 86.1484 416.52 100.168 416.52 100.168L421.126 77.6364L397.676 72.0368L409.234 54.1116L400.447 46.0503Z" fill="#FFBF9D"/>
<path d="M466.866 103.681C467.7 104.182 483.13 120.038 483.13 120.038L466.131 142.044C466.131 142.044 472.599 148.419 473.642 147.793C474.685 147.167 494.054 130.611 498.844 126.096C503.634 121.581 501.347 116.716 500.838 115.398C500.329 114.079 479.592 86.19 475.628 82.1176C472.582 78.9715 468.952 79.8895 467.9 79.6975C466.849 79.5056 459.639 93.2499 459.639 93.2499L466.866 103.681Z" fill="#FFBF9D"/>
<path d="M472.564 109.506L470.202 79.1637L455.673 76.1678L454.196 75.7839C454.196 75.7839 452.06 81.8341 440.886 81.2416C434.051 80.8744 434.41 76.5266 434.41 76.5266C434.41 76.5266 428.844 77.0524 428.477 77.0524C428.11 77.0524 421.108 77.6115 421.108 77.6115L416.502 100.143L409.75 161.479L408.307 165.485L423.97 167.772C432.878 169.072 441.946 168.775 450.75 166.895L469.109 162.982L465.495 146.291L472.564 109.506Z" fill="#006837"/>
<path d="M422.111 77.3945C422.049 77.1888 421.946 76.998 421.807 76.8341C421.668 76.6701 421.497 76.5366 421.304 76.4418C421.112 76.3471 420.902 76.2931 420.687 76.2832C420.472 76.2734 420.258 76.308 420.058 76.3848C419.372 76.7401 418.596 76.8825 417.83 76.7937L404.836 73.3054L403.668 97.2141L418.464 102.113L425.465 83.161L422.111 77.3945Z" fill="#006837"/>
<path d="M466.932 78.4875C466.932 78.4875 472.356 78.6545 475.519 80.7658C478.682 82.8771 495.03 104.499 495.03 104.499C495.03 104.499 478.423 119.328 478.815 118.769C479.207 118.21 469.986 109.506 469.986 109.506L466.932 78.4875Z" fill="#006837"/>
<path d="M419.015 83.6534C419.14 83.6534 418.665 88.3099 417.964 94.0179C417.263 99.726 416.603 104.349 416.487 104.332C416.37 104.316 416.837 99.6759 417.538 93.9679C418.239 88.2598 418.898 83.6367 419.015 83.6534Z" fill="#263238"/>
<path d="M465.196 100.385C464.952 100.2 464.736 99.9807 464.554 99.7342C464.014 99.0911 463.549 98.3883 463.169 97.6395C461.869 95.1502 461.439 92.2975 461.949 89.5359C462.459 86.7743 463.878 84.2627 465.981 82.4014C466.601 81.8353 467.284 81.3425 468.017 80.9327C468.278 80.7698 468.558 80.6408 468.852 80.5488C467.92 81.1823 467.03 81.8764 466.19 82.6267C464.205 84.4899 462.868 86.9393 462.376 89.6166C461.883 92.2939 462.261 95.0585 463.452 97.506C463.966 98.5053 464.548 99.4674 465.196 100.385Z" fill="#263238"/>
<path d="M455.358 56.9656C456.692 53.6075 457.731 50.1395 458.462 46.601C459.199 43.0459 459.038 39.3633 457.995 35.8859C457.82 35.3685 456.326 31.8636 455.775 31.897C455.383 31.897 456.268 35.1682 456.059 35.502C454.154 38.7481 453.281 42.4967 453.555 46.2505C453.751 49.8768 454.347 53.4704 455.333 56.9656" fill="#E0E0E0"/>
<path d="M454.198 76.2011L455.516 43.4216C456.142 34.3839 452.095 26.2725 443.041 25.897H442.056C438.027 25.9684 434.172 27.553 431.258 30.336C428.343 33.119 426.583 36.8966 426.325 40.9181C425.833 48.7959 425.382 57.5331 425.491 61.7808C425.75 70.4763 434.462 71.6697 434.462 71.6697C434.462 71.6697 434.462 75.183 434.387 77.7366C434.387 77.7366 435.547 81.7756 443.041 81.4752C451.152 81.1497 454.198 76.2011 454.198 76.2011Z" fill="#FFBF9D"/>
<path d="M434.479 71.6697C438.493 71.5939 442.401 70.3657 445.737 68.1313C445.737 68.1313 443.15 74.8575 434.471 74.2232L434.479 71.6697Z" fill="#FF9A6C"/>
<path d="M429.312 50.1144C429.317 50.4369 429.446 50.7452 429.674 50.9741C429.901 51.203 430.208 51.3346 430.531 51.3411C430.691 51.3548 430.853 51.3356 431.005 51.2849C431.158 51.2341 431.299 51.1527 431.419 51.0457C431.539 50.9388 431.637 50.8084 431.705 50.6626C431.773 50.5168 431.811 50.3587 431.816 50.1978C431.812 49.8752 431.682 49.5669 431.455 49.338C431.228 49.1091 430.92 48.9776 430.598 48.9711C430.437 48.9574 430.276 48.9765 430.123 49.0273C429.97 49.0781 429.83 49.1595 429.709 49.2664C429.589 49.3734 429.492 49.5038 429.424 49.6496C429.355 49.7953 429.318 49.9535 429.312 50.1144Z" fill="#263238"/>
<path d="M428.52 45.7331C428.679 45.8917 429.605 45.1824 430.94 45.1657C432.276 45.149 433.269 45.7916 433.444 45.6247C433.619 45.4578 433.352 45.2658 432.918 44.957C432.333 44.5694 431.642 44.3713 430.94 44.3896C430.246 44.3944 429.572 44.6259 429.021 45.0488C428.579 45.366 428.479 45.6831 428.52 45.7331Z" fill="#263238"/>
<path d="M440.529 49.6971C440.531 50.0212 440.66 50.3316 440.887 50.5623C441.115 50.7929 441.424 50.9257 441.748 50.9322C441.906 50.9412 442.064 50.9186 442.213 50.8658C442.363 50.813 442.5 50.731 442.617 50.6246C442.735 50.5182 442.829 50.3895 442.897 50.246C442.964 50.1025 443.001 49.9471 443.008 49.7889C443.008 49.4712 442.886 49.1656 442.667 48.9356C442.448 48.7056 442.148 48.5689 441.831 48.5538C441.67 48.539 441.507 48.5572 441.353 48.6073C441.199 48.6575 441.056 48.7385 440.934 48.8455C440.813 48.9525 440.714 49.0832 440.644 49.2296C440.574 49.376 440.535 49.5351 440.529 49.6971Z" fill="#263238"/>
<path d="M440.729 45.9333C440.887 46.0919 441.814 45.3826 443.149 45.3575C444.484 45.3325 445.477 45.9917 445.652 45.8248C445.828 45.6579 445.561 45.466 445.127 45.1572C444.541 44.7696 443.851 44.5715 443.149 44.5898C442.452 44.5964 441.776 44.8276 441.221 45.249C440.787 45.5662 440.654 45.8666 440.729 45.9333Z" fill="#263238"/>
<path d="M436.665 56.2565C435.955 56.0525 435.224 55.9349 434.487 55.906C434.144 55.906 433.819 55.8142 433.761 55.5806C433.726 55.2279 433.798 54.8729 433.969 54.5625C434.278 53.7279 434.595 52.8934 434.929 51.9504C436.272 48.2285 437.232 45.1742 437.082 45.1158C436.932 45.0574 435.722 48.045 434.386 51.7919C434.069 52.7098 433.761 53.5777 433.469 54.4206C433.261 54.8335 433.207 55.3071 433.318 55.7558C433.368 55.8765 433.445 55.9839 433.543 56.0695C433.642 56.155 433.759 56.2162 433.886 56.2482C434.073 56.3005 434.267 56.323 434.462 56.3149C435.196 56.3878 435.936 56.3682 436.665 56.2565Z" fill="#263238"/>
<path d="M440.588 40.3422C440.588 40.7345 441.923 40.9848 443.35 41.6524C444.777 42.32 445.854 43.1212 446.154 42.8792C446.288 42.7623 446.154 42.3618 445.812 41.8694C445.298 41.2469 444.65 40.7498 443.915 40.4157C443.18 40.0817 442.379 39.9196 441.573 39.9417C440.997 39.9834 440.588 40.1587 440.588 40.3422Z" fill="#E0E0E0"/>
<path d="M428.287 41.9027C428.629 42.1363 429.588 41.5772 430.84 41.2684C432.092 40.9597 433.193 40.9096 433.344 40.5424C433.41 40.3672 433.177 40.1085 432.643 39.9416C431.924 39.7457 431.166 39.7457 430.448 39.9416C429.727 40.1183 429.071 40.4943 428.554 41.0264C428.211 41.452 428.136 41.7858 428.287 41.9027Z" fill="#E0E0E0"/>
<path d="M454.924 49.8058C455.074 49.739 460.865 47.9365 460.765 53.8782C460.665 59.8199 454.723 58.5097 454.715 58.3428C454.707 58.1759 454.924 49.8058 454.924 49.8058Z" fill="#FFBF9D"/>
<path d="M456.685 56.1394C456.685 56.1394 456.785 56.2145 456.961 56.298C457.207 56.3939 457.481 56.3939 457.728 56.298C458.114 56.0607 458.431 55.726 458.646 55.3275C458.861 54.929 458.968 54.4808 458.955 54.0281C458.974 53.5187 458.88 53.0114 458.68 52.5427C458.632 52.3505 458.536 52.1734 458.402 52.0276C458.268 51.8818 458.099 51.772 457.912 51.7082C457.794 51.6746 457.668 51.6838 457.557 51.7343C457.445 51.7847 457.355 51.873 457.303 51.9836C457.219 52.1421 457.253 52.2673 457.219 52.2756C457.186 52.284 457.094 52.1755 457.144 51.9251C457.184 51.7804 457.269 51.652 457.386 51.5579C457.554 51.4418 457.759 51.3913 457.962 51.4161C458.206 51.469 458.432 51.5834 458.619 51.7485C458.806 51.9135 458.947 52.1238 459.03 52.3591C459.277 52.8794 459.392 53.4528 459.364 54.0281C459.377 54.5501 459.238 55.0646 458.964 55.509C458.689 55.9534 458.292 56.3087 457.82 56.5316C457.658 56.5743 457.489 56.5807 457.325 56.5504C457.16 56.5201 457.005 56.4539 456.869 56.3564C456.693 56.2813 456.66 56.1477 456.685 56.1394Z" fill="#FF9A6C"/>
<path d="M430.397 31.3295C429.446 30.7787 432.408 27.7328 434.795 26.7147C438.409 25.1709 443.883 24.303 447.154 25.3127C451.093 26.5311 454.348 28.584 456.25 32.2391C458.087 35.959 458.896 40.1018 458.595 44.2393C458.618 45.5015 458.301 46.7465 457.677 47.8444C456.843 49.1462 455.174 49.9307 455.232 51.7499C455.258 52.4116 455.021 53.0568 454.573 53.5441C453.455 54.679 452.153 53.5441 451.569 52.4592C450.317 50.0976 450.234 47.3187 450.184 44.6482C450.039 42.7503 450.208 40.8415 450.684 38.9986C451.001 38.0139 451.519 37.096 451.752 36.0946C451.912 35.6017 451.963 35.0799 451.901 34.5654C451.839 34.051 451.666 33.5562 451.394 33.1154C451.255 32.9331 451.099 32.7653 450.926 32.6147C450.113 31.8729 449.117 31.3607 448.041 31.1305C446.965 30.9003 445.846 30.9603 444.801 31.3045C441.463 32.406 435.671 34.0417 434.203 32.8734C433.153 32.1451 432.269 31.2039 431.607 30.1111L430.397 31.3295Z" fill="#E0E0E0"/>
<path d="M441.222 59.2022C441.272 59.1104 440.989 58.8517 440.429 58.6515C439.681 58.3992 438.877 58.3645 438.11 58.5513C437.341 58.7219 436.634 59.1 436.065 59.6445C435.648 60.0701 435.506 60.429 435.589 60.479C435.673 60.5291 436.716 59.6445 438.285 59.3024C439.854 58.9602 441.13 59.4025 441.222 59.2022Z" fill="#263238"/>
<path d="M402.125 43.3216C402.733 41.5822 403.467 39.8892 404.32 38.2561C405.33 36.245 413.499 27.95 413.499 27.95L423.514 36.4369L424.114 41.2603L419.049 47.9364L416.295 49.4719L411.405 51.2577L409.102 55.3301L398.604 46.0504L402.125 43.3216Z" fill="#E0E0E0"/>
<path d="M413.056 28.8262C413.183 28.3286 413.473 27.888 413.88 27.5748C414.287 27.2616 414.787 27.094 415.301 27.0987C415.5 27.0989 415.695 27.1507 415.868 27.2489C416.501 27.7335 417.046 28.3235 417.479 28.9931C417.479 28.9931 418.797 28.0834 419.849 28.4423C420.183 28.5845 420.482 28.7978 420.726 29.0673C420.969 29.3367 421.151 29.656 421.259 30.0028C421.259 30.0028 422.419 28.1335 423.829 28.5424C425.24 28.9513 425.799 30.7539 425.44 31.3631C425.081 31.9723 422.102 38.5649 420.808 38.665C419.515 38.7651 417.838 37.1545 417.838 37.1545C417.838 37.1545 416.828 39.875 415.468 39.875C415.139 39.9011 414.808 39.8455 414.506 39.7132C414.204 39.5809 413.939 39.376 413.735 39.1167C413.531 38.8575 413.395 38.5518 413.337 38.227C413.28 37.9021 413.304 37.5682 413.406 37.2547C413.687 36.6498 413.873 36.0052 413.957 35.3437C413.957 35.3437 411.512 35.3437 411.846 33.4744C411.946 32.9152 412.622 30.395 413.056 28.8262Z" fill="#E0E0E0"/>
<path d="M413.057 28.8261C413.036 29.0145 413.003 29.2013 412.957 29.3852C412.865 29.7941 412.74 30.3198 412.589 30.9624C412.439 31.605 412.222 32.4895 411.989 33.4659C411.921 33.6976 411.923 33.9438 411.992 34.1747C412.062 34.4057 412.197 34.6116 412.381 34.7677C412.844 35.0842 413.397 35.245 413.958 35.2267H414.133V35.3853C414.016 36.1092 413.818 36.8175 413.541 37.4966C413.436 37.8369 413.448 38.2027 413.575 38.5354C413.702 38.8682 413.936 39.1488 414.242 39.3325C414.558 39.5504 414.927 39.68 415.31 39.708C415.496 39.7236 415.683 39.6964 415.856 39.6284C416.03 39.5604 416.185 39.4535 416.311 39.3158C416.902 38.6833 417.356 37.9363 417.646 37.1211L417.763 36.8457L417.989 37.046C418.659 37.6881 419.467 38.1702 420.35 38.4563C420.54 38.5164 420.744 38.5164 420.934 38.4563C421.127 38.3404 421.296 38.1905 421.435 38.014C421.759 37.6347 422.052 37.23 422.311 36.8039C422.954 35.8025 423.513 34.7594 424.039 33.7413C424.297 33.2239 424.556 32.7232 424.807 32.2142C424.94 31.9638 425.065 31.7134 425.19 31.4631C425.256 31.3678 425.302 31.2598 425.324 31.146C425.341 31.0298 425.341 30.9117 425.324 30.7955C425.285 30.312 425.094 29.8533 424.777 29.4858C424.461 29.1183 424.036 28.8609 423.563 28.7509C423.114 28.7202 422.67 28.867 422.328 29.1599C421.974 29.4425 421.664 29.7774 421.41 30.1529L421.201 30.47L421.085 30.1112C420.986 29.7391 420.788 29.4009 420.512 29.1332C420.235 28.8655 419.891 28.6785 419.516 28.5924C418.817 28.5688 418.13 28.7707 417.555 29.1682L417.43 29.2433L417.346 29.1265C416.931 28.411 416.361 27.7979 415.677 27.3323C415.388 27.245 415.083 27.2267 414.786 27.2789C414.489 27.3311 414.208 27.4523 413.966 27.6327C413.543 27.9468 413.219 28.3754 413.032 28.8678C413.032 28.8678 413.032 28.7259 413.132 28.4672C413.291 28.0898 413.543 27.7594 413.866 27.5075C414.127 27.2947 414.436 27.1479 414.765 27.0796C415.095 27.0114 415.436 27.0236 415.76 27.1153C416.518 27.5666 417.158 28.1898 417.63 28.9345H417.43C418.058 28.4769 418.822 28.242 419.599 28.2669C420.043 28.3542 420.453 28.5638 420.783 28.872C421.113 29.1803 421.351 29.5748 421.469 30.0111L421.143 29.961C421.414 29.5441 421.75 29.1724 422.136 28.8594C422.558 28.5022 423.103 28.3227 423.655 28.3587C424.22 28.4766 424.732 28.7731 425.115 29.2044C425.498 29.6358 425.732 30.179 425.783 30.7538C425.799 30.9091 425.799 31.0658 425.783 31.2211C425.745 31.377 425.683 31.5262 425.599 31.6634L425.232 32.4061L424.464 33.9416C423.93 34.968 423.371 36.0112 422.72 37.0376C422.447 37.4829 422.14 37.9069 421.802 38.3061C421.627 38.5198 421.415 38.7007 421.176 38.8401C420.898 38.9545 420.59 38.9721 420.3 38.8902C419.318 38.5946 418.424 38.0615 417.697 37.338L418.039 37.2629C417.72 38.1349 417.222 38.9307 416.578 39.5995C416.409 39.7716 416.204 39.9047 415.977 39.9897C415.751 40.0747 415.509 40.1096 415.268 40.0919C414.818 40.0549 414.386 39.8994 414.016 39.6413C413.639 39.4004 413.347 39.0472 413.182 38.6315C413.04 38.2292 413.04 37.7904 413.182 37.3881C413.454 36.7405 413.658 36.0665 413.791 35.3769L413.95 35.5355C413.318 35.5451 412.7 35.3489 412.189 34.9764C411.97 34.7865 411.81 34.5376 411.729 34.2594C411.647 33.9812 411.648 33.6855 411.73 33.4075L412.406 30.904L412.856 29.3434C412.904 29.1643 412.972 28.9908 413.057 28.8261Z" fill="#263238"/>
<path d="M423.112 36.1865C423.112 36.1865 420.124 28.6759 427.067 25.5799C434.01 22.4838 439.535 30.3616 441.254 31.7051C442.46 32.714 443.539 33.8657 444.467 35.135C444.467 35.135 439.685 29.911 436.998 29.5354C434.311 29.1599 430.03 32.5313 427.693 37.1545L423.112 36.1865Z" fill="#006837"/>
<path d="M455.4 37.455C455.4 37.455 448.724 38.2895 444.685 35.3186L437.842 28.5508L444.643 30.0779C444.643 30.0779 452.554 33.6663 455.4 37.455Z" fill="#006837"/>
<path d="M446.271 25.1126C446.062 25.1126 438.351 23.7607 432.877 27.5494L437.659 29.5689C437.659 29.5689 451.244 34.4508 454.557 37.6302C456.646 39.764 458.157 42.3948 458.947 45.2743C459.56 43.7442 459.727 42.0722 459.431 40.4509C458.955 37.9474 458.029 34.0419 456.452 31.5968C453.164 26.5313 446.271 25.1126 446.271 25.1126Z" fill="#006837"/>
<path d="M420.358 47.1937C420.358 47.1937 427.91 41.3021 427.91 40.6428C427.91 39.9836 428.745 33.2908 428.369 32.8902C427.994 32.4897 426.85 32.5898 425.799 34.0001C424.747 35.4105 424.539 38.1727 423.729 38.6317C422.92 39.0906 421.718 40.1421 421.568 39.9418C421.418 39.7415 412.948 38.9321 409.885 40.5427C406.822 42.1533 406.547 44.5733 406.547 44.5733L417.12 49.1131L420.358 47.1937Z" fill="#E0E0E0"/>
<path d="M417.287 29.0764C417.221 29.4297 417.115 29.7741 416.97 30.1029C416.761 30.7204 416.544 31.605 416.194 32.6064C415.911 33.4521 415.427 34.2165 414.784 34.8345C414.258 35.2935 413.824 35.3936 413.807 35.3519C413.791 35.3102 414.141 35.0849 414.567 34.6092C415.107 33.9719 415.523 33.2387 415.793 32.4478C416.127 31.5132 416.394 30.6286 416.686 30.0194C416.978 29.4102 417.237 29.0514 417.287 29.0764Z" fill="#263238"/>
<path d="M421.41 30.0278C421.273 31.4568 420.838 32.8413 420.134 34.0918C419.549 35.403 418.696 36.5771 417.63 37.5384C417.522 37.4549 418.698 35.9695 419.733 33.8916C420.768 31.8136 421.285 29.9944 421.41 30.0278Z" fill="#263238"/>
<path d="M420.374 40.3172C420.374 40.384 419.723 40.1503 418.705 39.95C415.962 39.4153 413.119 39.8395 410.652 41.1517C409.709 41.6441 409.175 42.053 409.133 41.9862C409.509 41.531 409.972 41.1539 410.493 40.8763C411.721 40.1299 413.086 39.6362 414.508 39.4241C415.929 39.212 417.379 39.2859 418.771 39.6413C419.346 39.7564 419.891 39.9863 420.374 40.3172Z" fill="#263238"/>
<path d="M445.058 35.5689C444.755 35.3922 444.475 35.1792 444.224 34.9347C443.731 34.5007 443.03 33.8498 442.188 33.0236C440.519 31.3546 438.29 28.9679 435.512 26.6897C434.849 26.1492 434.105 25.7156 433.308 25.4046C432.564 25.1341 431.781 24.9848 430.989 24.9623C429.631 24.9273 428.284 25.2132 427.058 25.7968C425.94 26.3777 424.895 27.0892 423.945 27.9165C423.945 27.9165 424.146 27.5993 424.63 27.1404C425.314 26.4944 426.086 25.9492 426.925 25.5214C428.182 24.8684 429.58 24.5359 430.997 24.5534C431.85 24.5642 432.695 24.7135 433.5 24.9957C434.339 25.3204 435.121 25.7737 435.82 26.3392C438.145 28.3587 440.346 30.5156 442.413 32.7983L444.332 34.8345C444.599 35.0536 444.842 35.2997 445.058 35.5689Z" fill="#263238"/>
<path d="M440.045 30.7122C440.831 30.8628 441.6 31.092 442.34 31.3965C443.733 31.8888 445.678 32.6482 447.689 33.6162C449.7 34.5843 451.528 35.569 452.796 36.3367C453.503 36.7149 454.168 37.1652 454.782 37.6803C454.056 37.3728 453.353 37.013 452.679 36.6038C451.378 35.9111 449.567 34.9348 447.53 34.0085C445.494 33.0822 443.625 32.2477 442.265 31.6802C441.501 31.415 440.759 31.0913 440.045 30.7122Z" fill="#263238"/>
<path d="M448.155 39.316C448.047 39.837 447.846 40.3345 447.563 40.7847C447.423 41.0121 447.358 41.2773 447.376 41.5434C447.394 41.8096 447.494 42.0636 447.663 42.2702C447.766 42.3447 447.883 42.3979 448.007 42.4266C448.131 42.4552 448.259 42.4588 448.384 42.437C448.509 42.4152 448.629 42.3686 448.736 42.2998C448.843 42.231 448.935 42.1415 449.007 42.0365C449.144 41.8177 449.225 41.5678 449.241 41.3097C449.257 41.0516 449.208 40.7936 449.098 40.5594C448.891 40.0965 448.609 39.6707 448.264 39.2993" fill="white"/>
<path d="M476.404 146.291L467.7 138.313L462.335 143.579C462.335 143.579 454.524 149.154 453.155 150.113C451.786 151.073 447.605 155.671 447.096 156.397C446.587 157.123 445.219 162.639 445.219 162.639C445.219 162.639 446.988 163.724 447.847 162.005C448.426 160.863 448.941 159.69 449.391 158.492L451.486 156.489C451.486 156.489 451.044 159.151 451.269 159.827C451.494 160.503 453.23 160.887 454.407 160.495C454.407 160.495 454.574 161.671 456.868 161.446C456.868 161.446 459.33 162.79 460.791 162.281C462.251 161.771 463.586 161.83 464.538 161.388C465.489 160.945 467.116 157.858 467.041 157.073C466.966 156.289 465.698 155.73 465.698 155.73C467.163 154.955 468.559 154.056 469.87 153.043C470.319 152.642 470.676 152.149 470.917 151.597C471.157 151.045 471.276 150.448 471.264 149.846L476.404 146.291Z" fill="#E0E0E0"/>
<path d="M452.611 154.036C452.703 154.127 452.211 154.736 451.852 155.613C451.493 156.489 451.376 157.282 451.251 157.282C451.126 157.282 451.042 156.447 451.451 155.471C451.86 154.494 452.536 153.952 452.611 154.036Z" fill="#263238"/>
<path d="M455.182 156.063C455.182 156.122 454.99 156.28 454.74 156.631C454.432 157.089 454.243 157.617 454.189 158.166C454.15 158.723 454.167 159.282 454.239 159.835C454.289 160.286 454.297 160.57 454.239 160.578C454.181 160.586 454.064 160.336 453.939 159.894C453.771 159.306 453.709 158.692 453.755 158.083C453.812 157.458 454.077 156.871 454.506 156.414C454.848 156.088 455.182 156.013 455.182 156.063Z" fill="#263238"/>
<path d="M458.029 157.449C458.029 157.449 457.937 157.707 457.712 158.033C457.41 158.428 457.181 158.875 457.036 159.351C456.93 159.842 456.882 160.343 456.894 160.845C456.894 161.237 456.894 161.496 456.803 161.504C456.711 161.513 456.661 161.271 456.586 160.862C456.464 160.312 456.464 159.742 456.586 159.193C456.731 158.658 457.019 158.173 457.42 157.791C457.771 157.549 457.988 157.415 458.029 157.449Z" fill="#263238"/>
<path d="M461.184 159.017C462.229 157.526 463.701 156.386 465.406 155.746C464.023 156.868 462.615 157.959 461.184 159.017Z" fill="#263238"/>
<path d="M255.757 275.276C254.094 275.338 252.812 275.074 251.909 274.483C251.006 273.876 250.461 273.008 250.275 271.878L252.723 271.186C252.842 271.79 253.139 272.252 253.615 272.57C254.091 272.873 254.76 273.008 255.624 272.976C256.327 272.95 256.851 272.818 257.194 272.581C257.553 272.344 257.726 272.033 257.712 271.649C257.697 271.265 257.487 270.977 257.079 270.784C256.688 270.591 256.081 270.429 255.26 270.299C254.342 270.157 253.55 269.963 252.885 269.715C252.235 269.467 251.726 269.118 251.357 268.667C251.003 268.2 250.812 267.583 250.783 266.815C250.756 266.08 250.939 265.417 251.334 264.825C251.727 264.218 252.278 263.734 252.985 263.371C253.707 262.992 254.54 262.785 255.484 262.75C256.747 262.703 257.789 262.96 258.61 263.522C259.448 264.083 259.964 264.825 260.158 265.746L257.76 266.484C257.631 266.024 257.377 265.673 257 265.431C256.622 265.173 256.122 265.056 255.498 265.079C254.874 265.102 254.4 265.248 254.073 265.516C253.763 265.784 253.615 266.11 253.629 266.493C253.644 266.877 253.839 267.174 254.215 267.384C254.606 267.578 255.261 267.754 256.18 267.912C257.034 268.056 257.778 268.252 258.411 268.501C259.06 268.733 259.577 269.074 259.962 269.524C260.347 269.958 260.553 270.559 260.582 271.326C260.61 272.078 260.418 272.749 260.008 273.341C259.613 273.916 259.046 274.378 258.306 274.725C257.566 275.057 256.716 275.241 255.757 275.276Z" fill="white"/>
<path d="M246.925 275.605C245.47 275.659 244.32 275.301 243.474 274.532C242.645 273.762 242.215 272.73 242.182 271.434L242.072 265.89L240.01 265.967L239.919 263.521L242.029 263.442L241.961 260.947L244.887 260.838L244.931 263.334L248.889 263.187L248.98 265.633L244.998 265.781L245.121 271.013C245.129 271.669 245.308 272.182 245.658 272.554C246.024 272.908 246.55 273.073 247.238 273.047C247.606 273.034 247.948 272.973 248.264 272.865C248.58 272.757 248.909 272.569 249.252 272.3L250.199 274.522C249.843 274.856 249.38 275.113 248.81 275.294C248.241 275.476 247.612 275.579 246.925 275.605Z" fill="white"/>
<path d="M235.244 276.039C233.405 276.107 231.931 275.634 230.82 274.618C229.709 273.587 229.118 272.12 229.047 270.217C229 268.938 229.222 267.801 229.713 266.806C230.204 265.811 230.912 265.024 231.835 264.445C232.758 263.867 233.835 263.555 235.066 263.509C236.09 263.471 236.992 263.637 237.775 264.008C238.557 264.38 239.204 264.98 239.715 265.81L237.687 267.47C237.364 266.97 236.999 266.615 236.591 266.406C236.199 266.197 235.723 266.102 235.164 266.123C234.22 266.158 233.458 266.539 232.876 267.265C232.311 267.99 232.05 268.929 232.092 270.08C232.134 271.199 232.43 272.053 232.98 272.641C233.546 273.212 234.332 273.479 235.34 273.441C235.867 273.422 236.35 273.284 236.789 273.027C237.244 272.77 237.614 272.38 237.898 271.857L239.998 273.412C239.487 274.312 238.823 274.969 238.006 275.384C237.188 275.782 236.267 276.001 235.244 276.039Z" fill="white"/>
<path d="M219.539 276.623C218.196 276.673 217.164 276.255 216.442 275.369C215.737 274.483 215.362 273.232 215.318 271.616L215.099 264.443L218.025 264.334L218.234 271.243C218.249 272.076 218.417 272.726 218.739 273.194C219.061 273.662 219.549 273.884 220.205 273.86C220.716 273.841 221.182 273.672 221.603 273.352C222.039 273.031 222.404 272.505 222.697 271.774C222.989 271.027 223.201 270.034 223.331 268.796C223.476 267.542 223.514 265.988 223.446 264.133L226.276 264.028L226.726 276.139L223.776 276.249L223.841 273.485C223.398 274.478 222.802 275.245 222.053 275.785C221.32 276.308 220.482 276.588 219.539 276.623Z" fill="white"/>
<path d="M211.904 258.918L212.563 276.666L209.589 276.776L209.607 274.662C209.203 275.43 208.665 276.026 207.992 276.452C207.32 276.877 206.528 277.106 205.616 277.14C204.561 277.179 203.657 276.973 202.903 276.521C202.149 276.052 201.565 275.394 201.149 274.544C200.733 273.695 200.504 272.711 200.463 271.592C200.413 270.249 200.633 269.064 201.123 268.037C201.613 266.994 202.302 266.168 203.192 265.558C204.098 264.948 205.127 264.622 206.278 264.579C206.886 264.556 207.441 264.64 207.944 264.829C208.464 265.018 208.898 265.29 209.248 265.645L209.187 264.663L208.978 259.027L211.904 258.918ZM206.59 267.161C205.599 267.198 204.821 267.603 204.258 268.377C203.694 269.15 203.435 270.144 203.48 271.36C203.519 272.399 203.773 273.198 204.242 273.757C204.711 274.316 205.337 274.581 206.12 274.552C206.76 274.528 207.329 274.323 207.827 273.936C208.341 273.549 208.737 273.021 209.017 272.355C209.296 271.688 209.42 270.931 209.389 270.083C209.354 269.14 209.086 268.413 208.587 267.904C208.087 267.378 207.422 267.13 206.59 267.161Z" fill="white"/>
<path d="M192.439 265.093C194.246 265.026 195.681 265.517 196.745 266.567C197.824 267.599 198.398 269.035 198.466 270.874C198.513 272.121 198.29 273.25 197.8 274.261C197.324 275.255 196.626 276.057 195.704 276.668C194.781 277.263 193.696 277.583 192.449 277.63C190.642 277.697 189.199 277.214 188.12 276.182C187.057 275.148 186.491 273.704 186.422 271.85C186.376 270.603 186.59 269.482 187.066 268.487C187.557 267.477 188.255 266.674 189.162 266.08C190.084 265.469 191.176 265.14 192.439 265.093ZM192.45 275.06C193.393 275.025 194.139 274.637 194.688 273.896C195.237 273.155 195.489 272.185 195.444 270.986C195.404 269.899 195.117 269.069 194.583 268.496C194.066 267.923 193.367 267.653 192.488 267.685C191.512 267.722 190.75 268.11 190.201 268.851C189.653 269.592 189.4 270.554 189.444 271.737C189.485 272.825 189.764 273.663 190.282 274.252C190.816 274.824 191.538 275.094 192.45 275.06Z" fill="white"/>
<path d="M185.41 268.381C185.086 268.281 184.677 268.24 184.181 268.259C183.318 268.291 182.634 268.636 182.13 269.295C181.626 269.939 181.271 270.961 181.067 272.361C180.878 273.745 180.826 275.572 180.911 277.843L178.009 277.951L177.718 270.132L177.534 265.84L180.46 265.731L180.442 269.118C180.81 267.807 181.351 266.867 182.067 266.296C182.798 265.724 183.587 265.423 184.435 265.391C184.69 265.382 184.931 265.389 185.156 265.412C185.381 265.436 185.591 265.476 185.785 265.533L185.41 268.381Z" fill="white"/>
<path d="M166.257 278.387L163.211 278.501L162.578 261.472L168.574 261.25C170.78 261.167 172.484 261.552 173.684 262.404C174.885 263.256 175.517 264.53 175.58 266.225C175.643 267.935 175.062 269.302 173.835 270.324C172.607 271.331 170.786 271.879 168.372 271.968L166.022 272.056L166.257 278.387ZM168.549 263.796L165.719 263.901L165.926 269.49L168.445 269.396C169.884 269.342 170.922 269.072 171.561 268.584C172.199 268.096 172.5 267.364 172.464 266.389C172.427 265.413 172.09 264.729 171.451 264.337C170.827 263.928 169.86 263.747 168.549 263.796Z" fill="white"/>
<path d="M148.385 266.731C150.191 266.664 151.627 267.155 152.69 268.204C153.769 269.237 154.343 270.673 154.412 272.511C154.458 273.759 154.236 274.888 153.745 275.899C153.27 276.893 152.571 277.695 151.649 278.306C150.726 278.901 149.642 279.221 148.394 279.268C146.588 279.335 145.145 278.852 144.066 277.82C143.003 276.786 142.436 275.342 142.368 273.488C142.321 272.24 142.536 271.12 143.011 270.125C143.502 269.114 144.201 268.312 145.107 267.718C146.029 267.107 147.122 266.778 148.385 266.731ZM148.395 276.698C149.338 276.663 150.084 276.275 150.633 275.534C151.182 274.793 151.434 273.823 151.39 272.624C151.349 271.537 151.062 270.707 150.529 270.134C150.011 269.561 149.312 269.291 148.433 269.323C147.458 269.36 146.696 269.748 146.147 270.489C145.598 271.23 145.345 272.192 145.389 273.375C145.43 274.463 145.709 275.301 146.227 275.89C146.761 276.462 147.484 276.732 148.395 276.698Z" fill="white"/>
<path d="M136.21 262.453L139.208 262.341L139.841 279.37L137.107 279.471L128.199 267.914L128.641 279.786L125.643 279.897L125.01 262.869L127.744 262.767L136.651 274.325L136.21 262.453Z" fill="white"/>
</svg>
