<svg width="24" height="24" viewBox="0 0 24 24" fill="none" xmlns="http://www.w3.org/2000/svg">
<g clip-path="url(#clip0_2566_2250)">
<path d="M18.2437 15.9436L18.1632 15.8899L18.1069 15.9687L15.6262 19.4419L15.5132 19.6H15.7075H22.4V20.9H15.0001C14.6289 20.8996 14.273 20.7519 14.0106 20.4894C13.7481 20.227 13.6004 19.8711 13.6 19.4999L13.6 12.1H14.9V17.9092V18.2212L15.0814 17.9673L17.4709 14.6223L17.4709 14.6223C17.569 14.4849 17.7167 14.3911 17.8827 14.3606C18.0487 14.3302 18.2201 14.3655 18.3605 14.4592L20.0201 15.566L20.0988 15.6185L20.1556 15.5428L21.92 13.19L22.96 13.97L20.77 16.89C20.6703 17.0229 20.5235 17.1126 20.3597 17.1406C20.196 17.1687 20.0277 17.133 19.8894 17.0408L19.834 17.124L19.8894 17.0408L18.2437 15.9436Z" fill="black" stroke="white" stroke-width="0.2"/>
<path d="M1.6 15.85H11.9V17.15H1.6V15.85Z" fill="black" stroke="white" stroke-width="0.2"/>
<path d="M1.6 19.6H11.9V20.9H1.6V19.6Z" fill="black" stroke="white" stroke-width="0.2"/>
<path d="M8.15 12V12.1H8.25H11.9V13.4H1.6V12.1H6.75H6.85V12V8.25V8.15H6.75H6.00011C4.83352 8.14872 3.71508 7.68473 2.89018 6.85982C2.06527 6.03492 1.60128 4.91648 1.6 3.74989L1.6 1.6H3.74996C4.53711 1.60066 5.30968 1.81236 5.98722 2.21304C6.66476 2.61372 7.22249 3.18874 7.60231 3.8782L7.66513 3.99223L7.75911 3.90213C8.29482 3.38851 9.00793 3.10121 9.75009 3.1C9.75011 3.1 9.75014 3.1 9.75016 3.1L11.9 3.1V5.24989C11.8991 6.01877 11.5933 6.75592 11.0496 7.2996C10.5059 7.84329 9.76877 8.14912 8.99989 8.15H8.25H8.15V8.25V12ZM9.75 4.4L9.74991 4.4C9.32571 4.4004 8.919 4.56909 8.61905 4.86905C8.31909 5.169 8.1504 5.57571 8.15 5.99991V6V6.75V6.85H8.25H9H9.0001C9.42429 6.84958 9.83098 6.68088 10.1309 6.38093C10.4309 6.08098 10.5996 5.67429 10.6 5.2501V5.25V4.5V4.4H10.5L9.75 4.4ZM5.99989 6.85H6H6.75H6.85V6.75V6V5.99989C6.84908 5.17803 6.52219 4.3901 5.94104 3.80896C5.3599 3.22781 4.57197 2.90092 3.75011 2.9H3.75H3H2.9V3V3.75L2.9 3.75011C2.90094 4.57197 3.22784 5.35989 3.80898 5.94102C4.39011 6.52216 5.17803 6.84906 5.99989 6.85Z" fill="black" stroke="white" stroke-width="0.2"/>
</g>
<defs>
<clipPath id="clip0_2566_2250">
<rect width="24" height="24" fill="white"/>
</clipPath>
</defs>
</svg>
