<svg width="70" height="79" viewBox="0 0 70 79" fill="none" xmlns="http://www.w3.org/2000/svg">
<path d="M55.7186 16.5812L51.947 21.4252C57.2931 25.5691 60.9773 31.4915 62.3316 38.1185C63.686 44.7456 62.6208 51.6386 59.3292 57.5477C56.0377 63.4568 50.7376 67.9908 44.3901 70.3277C38.0425 72.6645 31.0677 72.6495 24.7303 70.2852C18.3929 67.921 13.1125 63.3642 9.84646 57.4409C6.58042 51.5176 5.54501 44.6201 6.92795 37.999C8.3109 31.3778 12.0206 25.4714 17.3846 21.3506C22.7485 17.2299 29.4114 15.1676 36.1653 15.5378L30.8587 21.1046L34.795 24.8612L43.1717 16.0607L46.9245 12.1194L42.9944 8.37799L34.2003 0L30.4451 3.94133L36.1729 9.39758C27.3874 8.99751 18.7824 11.9777 12.1261 17.7256C5.46986 23.4736 1.268 31.5527 0.384015 40.3027C-0.49997 49.0528 2.00107 57.8091 7.37317 64.7722C12.7453 71.7353 20.5804 76.3763 29.2683 77.7416C31.061 78.0249 32.8732 78.1674 34.6881 78.1677C41.8532 78.1499 48.8341 75.896 54.6569 71.7205C60.4796 67.545 64.8538 61.6561 67.1693 54.8754C69.4848 48.0947 69.626 40.7603 67.5733 33.8955C65.5206 27.0307 61.3763 20.9778 55.7186 16.5812Z" fill="#006837"/>
<path d="M37.9849 61.3049V57.7721C42.1739 57.3045 46.2485 54.6593 46.2485 49.6355C46.2485 42.8102 39.9021 42.0282 35.2668 41.4574C32.3036 41.1029 30.0343 40.6918 30.0343 38.8965C30.0343 36.3997 33.5545 36.1307 35.0631 36.1307C37.3085 36.1307 39.7047 37.1867 40.5194 38.5332L40.7557 38.9254L45.4074 36.7706L45.1773 36.3017C44.487 34.9366 43.4667 33.7656 42.2092 32.8947C40.9517 32.0238 39.4967 31.4806 37.9761 31.3143V28.2028H32.5324V31.2992C27.4571 32.0536 24.4423 34.8647 24.4423 38.8953C24.4423 45.4666 30.409 46.133 34.7627 46.622C38.6424 47.0796 40.4477 48.0376 40.4477 49.6393C40.4477 52.6905 36.2223 52.9281 34.9274 52.9281C32.0446 52.9281 29.27 51.4899 28.4603 49.579L28.2604 49.1075L23.209 51.2485L23.4101 51.72C24.9075 55.2263 28.1397 57.4226 32.5387 57.9419V61.3049H37.9849Z" fill="#006837"/>
</svg>
