<svg width="36" height="36" viewBox="0 0 36 36" fill="none" xmlns="http://www.w3.org/2000/svg">
<g clip-path="url(#clip0_1842_1784)">
<path d="M16.245 0.247499V0.292499C16.2617 0.294355 16.2785 0.296211 16.2956 0.298124C16.3696 0.318329 16.3993 0.346049 16.4475 0.404999V0.449999H16.4925C16.4999 0.487124 16.5073 0.524249 16.515 0.562499H16.56C16.6351 0.791999 16.6362 1.01025 16.634 1.24875C16.6339 1.28812 16.6338 1.32772 16.6337 1.3671C16.6334 1.47015 16.6328 1.57297 16.632 1.67535C16.6313 1.78087 16.631 1.88617 16.6307 1.9926C16.63 2.19892 16.6288 2.40435 16.6274 2.61135C16.6451 2.6113 16.6627 2.61125 16.6809 2.6112C19.1784 2.60449 19.1784 2.60449 19.9209 2.76892C19.9491 2.77511 19.9491 2.77511 19.9779 2.78141C20.3986 2.87478 20.3986 2.87478 20.5899 2.95128C20.6774 2.98593 20.7672 3.01383 20.8576 3.04218C21.0048 3.08921 21.1389 3.13826 21.2716 3.21881C21.3065 3.23343 21.3418 3.24738 21.3771 3.26111C21.5117 3.31286 21.6382 3.37788 21.7664 3.44381V3.48881C21.7827 3.49133 21.799 3.49385 21.8159 3.49646C21.8818 3.51198 21.9289 3.53516 21.9871 3.56891C22.0049 3.57915 22.0227 3.58938 22.0409 3.59996L22.0812 3.62381V3.66881C22.1183 3.67623 22.1554 3.68366 22.1937 3.69131V3.73631C22.2175 3.74502 22.2175 3.74502 22.2418 3.75388C22.3113 3.78358 22.3719 3.81936 22.4356 3.86008L22.5013 3.90148C22.5537 3.93883 22.5537 3.93883 22.5762 3.98383C22.5985 3.99126 22.6207 3.99868 22.6437 4.00633V4.05133C22.6561 4.05714 22.6684 4.06294 22.6812 4.0689C22.7413 4.1004 22.796 4.13663 22.8518 4.1751C22.8719 4.18878 22.8918 4.20255 22.9125 4.2165C22.9277 4.22881 22.9429 4.24103 22.9587 4.25385V4.29885C22.9786 4.30792 22.9786 4.30792 22.999 4.31717C23.0489 4.34394 23.0838 4.37207 23.1249 4.41077C23.146 4.4305 23.146 4.4305 23.1675 4.45059C23.1821 4.46454 23.1967 4.47849 23.2118 4.49289C23.2269 4.50716 23.242 4.52147 23.2575 4.53609C23.6895 4.94559 23.6895 4.94559 23.7457 5.06709C23.7663 5.11614 23.7663 5.11614 23.8355 5.13077V5.17577H23.8805V5.24327C23.9028 5.25069 23.925 5.25812 23.948 5.26577C23.9786 5.29952 23.9786 5.29952 24.0099 5.34317C24.0216 5.35939 24.0333 5.37557 24.0454 5.39244C24.0578 5.41008 24.0702 5.42777 24.083 5.44599C24.0959 5.46417 24.1089 5.48244 24.1221 5.50112C24.2497 5.68179 24.3696 5.86562 24.4889 6.05462C24.4981 6.06902 24.5072 6.08342 24.5166 6.09827C24.6336 6.28277 24.7297 6.46952 24.8136 6.66977C24.8415 6.73547 24.8714 6.79802 24.9047 6.86102C25.132 7.30652 25.276 7.81277 25.366 8.30327L25.3813 8.38337C25.4673 8.84012 25.5141 9.29462 25.5123 9.76037C25.5123 9.78399 25.5123 9.80762 25.5122 9.83169C25.5114 10.1512 25.4962 10.4639 25.4504 10.7789C25.4469 10.8028 25.4469 10.8028 25.4434 10.8273C25.4094 11.0546 25.3568 11.2751 25.2985 11.4978C25.2884 11.5381 25.2783 11.5784 25.2683 11.6186C25.2218 11.8016 25.1716 11.9764 25.096 12.1496C25.062 12.2462 25.0337 12.3436 25.006 12.4421H24.961C24.9592 12.4601 24.9573 12.4779 24.9555 12.4964C24.9334 12.601 24.8918 12.6912 24.847 12.7889C24.8385 12.8076 24.83 12.8262 24.8214 12.8456C24.8005 12.8915 24.7795 12.9371 24.7586 12.983H24.7136C24.7115 12.9988 24.7094 13.0145 24.7073 13.0307C24.6878 13.1086 24.6542 13.1651 24.6123 13.2335C24.5536 13.3295 24.5536 13.3295 24.5111 13.4333H24.4661C24.4609 13.4476 24.4558 13.4621 24.4506 13.4769C24.4101 13.5714 24.3594 13.6592 24.3086 13.7492H24.2636V13.8167H24.2186C24.2121 13.8338 24.2056 13.8511 24.1989 13.8686C24.1737 13.9292 24.1737 13.9292 24.1287 13.9967H24.0837V14.0642C24.0466 14.1022 24.0092 14.1395 23.9712 14.1767C23.9638 14.1989 23.9564 14.2212 23.9487 14.2442C23.9163 14.2822 23.9163 14.2822 23.8812 14.3117H23.8362C23.8293 14.3256 23.8223 14.3396 23.8151 14.354L23.7688 14.4467H23.7238C23.7163 14.4689 23.7089 14.4912 23.7013 14.5142H23.6563C23.6511 14.5262 23.646 14.5382 23.6408 14.5506C23.5884 14.6456 23.5139 14.7356 23.4313 14.8071H23.3863C23.3789 14.8294 23.3715 14.8517 23.3638 14.8746C23.3253 14.914 23.3253 14.914 23.2781 14.9547C23.2549 14.9749 23.2549 14.9749 23.2313 14.9957C23.1838 15.0321 23.1838 15.0321 23.1345 15.0553C23.0859 15.0755 23.0859 15.0755 23.0715 15.1446C23.0342 15.1673 22.9966 15.1898 22.959 15.2121C22.921 15.2492 22.8837 15.2866 22.8465 15.3246C22.7651 15.3921 22.7651 15.3921 22.7115 15.3921V15.4371C22.6893 15.4445 22.667 15.452 22.644 15.4596C22.6296 15.4745 22.6152 15.4893 22.6004 15.5046C22.5527 15.551 22.5284 15.5629 22.464 15.5721V15.6171C22.345 15.7071 22.345 15.7071 22.2615 15.7071V15.7521C22.2471 15.7598 22.2325 15.7674 22.2177 15.7753C22.1022 15.8372 21.9904 15.9017 21.8802 15.9728C21.7521 16.0527 21.6192 16.1175 21.4819 16.1796C21.4621 16.1886 21.4423 16.1975 21.4221 16.2068C21.2799 16.2696 21.2799 16.2696 21.2034 16.2696V16.3146C21.1909 16.3189 21.1784 16.3232 21.1656 16.3276C21.1077 16.3476 21.0501 16.3677 20.9923 16.3877C20.9716 16.3949 20.9509 16.4021 20.9295 16.4095C20.8269 16.4453 20.7255 16.4822 20.6258 16.524C20.5403 16.5596 20.4557 16.581 20.3648 16.5981C20.3256 16.6035 20.3256 16.6035 20.3038 16.6293C20.2739 16.6373 20.2437 16.6442 20.2134 16.6505C20.1859 16.6564 20.1859 16.6564 20.1578 16.6624C20.1299 16.6683 20.1299 16.6683 20.1013 16.6743C20.0691 16.6815 20.037 16.6888 20.0046 16.6961C19.816 16.7377 19.6266 16.7737 19.4353 16.8009C19.4178 16.8034 19.4004 16.8059 19.3824 16.8085C19.3455 16.8135 19.3089 16.8183 19.272 16.8229C19.2211 16.8292 19.1705 16.836 19.1199 16.843C18.8184 16.8826 18.5191 16.8837 18.2131 16.8837C18.1555 16.8839 18.0979 16.8841 18.0405 16.8843C17.8855 16.8848 17.73 16.885 17.5748 16.8851C17.4778 16.8852 17.3806 16.8853 17.2845 16.8855C17.0145 16.8859 16.7468 16.8863 16.4768 16.8864C16.4511 16.8864 16.4511 16.8864 16.4248 16.8864C16.3899 16.8864 16.3553 16.8864 16.3204 16.8864C16.2945 16.8864 16.2945 16.8864 16.2682 16.8864C16.2509 16.8864 16.2336 16.8864 16.2158 16.8864C15.9345 16.8865 15.6555 16.8871 15.3743 16.888C15.0863 16.8888 14.796 16.8892 14.508 16.8893C14.3463 16.8893 14.184 16.8895 14.022 16.8901C13.8699 16.8907 13.7183 16.8907 13.5653 16.8904C13.5095 16.8903 13.4539 16.8905 13.3981 16.8909C13.3218 16.8913 13.2458 16.8911 13.1686 16.8907C13.1467 16.891 13.1247 16.8913 13.1022 16.8916C12.9202 16.8894 12.7782 16.8317 12.6365 16.7152C12.6054 16.6744 12.6054 16.6744 12.6054 16.6294H12.5604C12.4662 16.4958 12.4412 16.3662 12.4419 16.2042C12.4417 16.1781 12.4417 16.1781 12.4415 16.1513C12.4413 16.093 12.4413 16.035 12.4413 15.9767C12.4412 15.9349 12.441 15.893 12.4409 15.8514C12.4405 15.738 12.4404 15.6241 12.4403 15.5116C12.4403 15.4408 12.4402 15.3699 12.4401 15.299C12.4397 15.0515 12.4395 14.804 12.4395 14.5565C12.4396 14.327 12.4391 14.0953 12.4384 13.8658C12.4378 13.6678 12.4375 13.4698 12.4376 13.2718C12.4376 13.1536 12.4375 13.0355 12.437 12.9163C12.4365 12.8051 12.4365 12.6937 12.4369 12.5833C12.4369 12.5425 12.4368 12.5018 12.4365 12.4611C12.4341 12.0696 12.4341 12.0696 12.5378 11.9053C12.5452 11.8905 12.5526 11.8756 12.5603 11.8603H12.6053C12.6127 11.8381 12.6201 11.8158 12.6278 11.7928C12.6604 11.7631 12.6604 11.7631 12.7009 11.7352C12.714 11.7259 12.7272 11.7166 12.7407 11.7071C12.8472 11.6437 12.934 11.6297 13.058 11.6293C13.0738 11.6291 13.0897 11.629 13.1061 11.6289C13.1592 11.6285 13.2123 11.6284 13.2652 11.6284C13.3032 11.6282 13.3415 11.6279 13.3795 11.6277C13.4832 11.6271 13.587 11.6267 13.69 11.6264C13.7996 11.6261 13.9092 11.6255 14.0185 11.6249C14.2035 11.624 14.3875 11.6232 14.5743 11.6225C14.8308 11.6216 15.0895 11.6204 15.346 11.6192C15.7128 11.6174 16.0818 11.6157 16.4485 11.6144C16.4682 11.6143 16.4879 11.6142 16.5081 11.6142C16.7354 11.6134 16.9626 11.6129 17.1876 11.6131C17.2203 11.6131 17.2203 11.6131 17.2536 11.6131C17.3573 11.6132 17.4612 11.6133 17.5641 11.6135C18.3156 11.6354 18.3156 11.6354 19.0401 11.4654C19.1294 11.429 19.2183 11.3952 19.3101 11.3655V11.3205L19.3776 11.2854C19.4653 11.2359 19.536 11.1729 19.6093 11.1043C19.6476 11.073 19.6476 11.073 19.6926 11.073C19.703 11.0522 19.703 11.0522 19.7137 11.0307L19.76 10.938H19.805C19.8124 10.9158 19.8199 10.8935 19.8275 10.8705H19.8725C19.8753 10.8575 19.8781 10.8444 19.881 10.8312C19.8951 10.7801 19.9149 10.7371 19.9399 10.6905H19.9849C19.9909 10.6711 19.997 10.6516 20.0032 10.6316C20.0299 10.5558 20.0299 10.5558 20.0621 10.4939C20.2657 10.0709 20.252 9.57364 20.1058 9.13939C20.0975 9.11576 20.0975 9.11576 20.089 9.09169C20.072 9.04084 20.0609 8.98976 20.0523 8.93689H20.0073C19.9999 8.89234 19.9925 8.84779 19.9848 8.80189H19.9398C19.9135 8.76409 19.889 8.72494 19.8653 8.68511C19.8071 8.59039 19.7504 8.51749 19.6698 8.44211V8.39711C19.651 8.38877 19.651 8.38877 19.6318 8.38024C19.5499 8.33591 19.4828 8.27404 19.412 8.21419C19.3566 8.17324 19.3073 8.14939 19.2423 8.12689V8.08189C19.2242 8.08003 19.2061 8.07818 19.1874 8.07626C19.1192 8.06193 19.0754 8.04566 19.0142 8.01574C18.9086 7.96804 18.809 7.94599 18.6947 7.93069C18.6752 7.92794 18.6557 7.92522 18.6357 7.92238C18.428 7.89516 18.2217 7.89111 18.0125 7.89044C17.9722 7.89006 17.9321 7.88965 17.8919 7.88921C17.7877 7.88816 17.6835 7.88748 17.5791 7.88689C17.4722 7.88621 17.3651 7.88517 17.2574 7.88417C17.0488 7.88225 16.8411 7.88073 16.6319 7.87947C16.6321 7.91254 16.6321 7.91254 16.6323 7.94607C16.6337 8.15419 16.6347 8.36232 16.6354 8.57157C16.6357 8.67867 16.6362 8.78554 16.6369 8.89332C16.6377 8.99682 16.6381 9.10009 16.6383 9.20382C16.6384 9.24319 16.6386 9.28234 16.639 9.32172C16.6415 9.60297 16.642 9.86172 16.4511 10.0867C16.2961 10.2399 16.1474 10.2726 15.9336 10.2762C15.7781 10.2733 15.6591 10.2123 15.5286 10.1306V10.0856C15.5152 10.0833 15.5016 10.081 15.4879 10.0786C15.4316 10.0609 15.4078 10.0412 15.3711 9.99555V9.95055C15.3572 9.9436 15.3432 9.93662 15.3288 9.92944L15.2361 9.88309V9.83809C15.2233 9.8322 15.2105 9.82633 15.1974 9.82025C15.0572 9.746 14.9432 9.6344 14.8307 9.52325C14.7771 9.48163 14.7231 9.4409 14.6684 9.40063C14.6551 9.38911 14.6419 9.37768 14.6282 9.36575V9.32075C14.6142 9.3138 14.6003 9.30682 14.5859 9.29965L14.4932 9.2533V9.2083C14.4709 9.20087 14.4486 9.19345 14.4257 9.1858V9.1408C14.4117 9.13384 14.3978 9.12687 14.3834 9.11969L14.2907 9.07334V9.02834C14.2772 9.02184 14.2637 9.01534 14.2499 9.00865C14.2007 8.98345 14.2007 8.98345 14.1332 8.93845V8.89345C14.1208 8.88805 14.1084 8.88265 14.0958 8.8771C14.0306 8.84155 13.9779 8.79767 13.9208 8.74997C13.8272 8.67212 13.8272 8.67212 13.7315 8.5972C13.7156 8.58356 13.6996 8.56997 13.6832 8.5558V8.5108C13.6692 8.50384 13.6553 8.49687 13.6409 8.48969L13.5482 8.44334V8.39834C13.5354 8.39245 13.5225 8.38657 13.5095 8.3805C13.3693 8.30625 13.2552 8.19465 13.1427 8.0835C13.0892 8.04187 13.0352 8.00115 12.9805 7.96087L12.9402 7.926V7.881C12.9263 7.87405 12.9123 7.86707 12.8979 7.85989L12.8052 7.81354V7.76854C12.7927 7.76296 12.7802 7.75741 12.7672 7.75167C12.7055 7.71837 12.6549 7.68012 12.6027 7.63354V7.58854C12.5893 7.58623 12.5757 7.58391 12.562 7.58152C12.5057 7.56384 12.4819 7.54417 12.4452 7.4985V7.4535C12.4313 7.44655 12.4173 7.43957 12.4029 7.43239L12.3102 7.38604V7.34104C12.2978 7.33546 12.2855 7.32991 12.2726 7.32417C12.2101 7.29064 12.1577 7.25014 12.1021 7.20604C12.082 7.19027 12.062 7.17454 12.0413 7.15834C12.0262 7.14442 12.011 7.13044 11.9952 7.11604V7.07104C11.9813 7.06409 11.9673 7.05712 11.9529 7.04994L11.8602 7.00359V6.95859C11.8475 6.95276 11.8348 6.94693 11.8217 6.94093C11.7653 6.91078 11.718 6.8759 11.6676 6.8363C11.6504 6.82287 11.6332 6.80953 11.6154 6.79558C11.5742 6.76138 11.5353 6.72898 11.5002 6.6887V6.6437C11.4826 6.63605 11.4826 6.63605 11.4647 6.62822C11.3904 6.58795 11.3249 6.53755 11.2583 6.48625L11.2174 6.45542C11.1834 6.42932 11.1503 6.40165 11.1177 6.37375V6.32875L11.0797 6.31248C11.0162 6.27738 10.9697 6.2335 10.9166 6.184C10.8446 6.1165 10.7759 6.06273 10.6893 6.0139C10.6486 5.9788 10.6486 5.9788 10.6218 5.9464V5.9014L10.5838 5.88462C10.4099 5.79012 10.2665 5.63487 10.1945 5.45037C10.1444 5.24134 10.1797 5.08362 10.262 4.88787H10.307V4.82037C10.3435 4.78909 10.3811 4.75917 10.4195 4.73037L10.4645 4.68537C10.5143 4.63564 10.5656 4.59199 10.622 4.55037H10.667V4.50537C10.7449 4.43787 10.7449 4.43787 10.802 4.43787C10.8095 4.41559 10.8169 4.39332 10.8245 4.37037C10.8621 4.33617 10.9013 4.30354 10.9413 4.27182C10.9637 4.25404 10.9861 4.23627 11.009 4.21804C11.0299 4.20148 11.0507 4.18497 11.072 4.16787C11.0988 4.14492 11.1256 4.12197 11.1521 4.09902C11.207 4.05537 11.207 4.05537 11.252 4.05537V4.01037C11.2907 3.97572 11.3308 3.94264 11.3715 3.91047C11.4581 3.84274 11.4581 3.84274 11.5385 3.76759C11.567 3.74037 11.567 3.74037 11.612 3.74037V3.69537C11.6899 3.62787 11.6899 3.62787 11.747 3.62787C11.7545 3.60559 11.7619 3.58332 11.7695 3.56037C11.8114 3.52594 11.8548 3.49354 11.8989 3.46182C11.9723 3.40917 12.0382 3.35922 12.1019 3.29509C12.152 3.24537 12.152 3.24537 12.197 3.24537V3.20037C12.2976 3.11037 12.2976 3.11037 12.3545 3.11037V3.06537C12.4324 2.99787 12.4324 2.99787 12.4895 2.99787C12.5007 2.96434 12.5007 2.96434 12.512 2.93037H12.557V2.88537C12.5935 2.85274 12.5935 2.85274 12.6443 2.81517L12.7001 2.77287C12.7198 2.75802 12.7395 2.74317 12.7598 2.72787C12.8786 2.63539 12.9915 2.54337 13.0973 2.43537C13.1787 2.36787 13.1787 2.36787 13.2323 2.36787C13.2397 2.34559 13.2471 2.32332 13.2548 2.30037H13.2998V2.25537C13.3776 2.18787 13.3776 2.18787 13.4348 2.18787V2.14287C13.5353 2.05287 13.5353 2.05287 13.5923 2.05287V2.00787C13.637 1.97749 13.682 1.94757 13.7273 1.91787C13.7574 1.88794 13.7873 1.85802 13.8173 1.82787C13.8587 1.79322 13.9003 1.75902 13.9424 1.72527C14.0258 1.65867 14.0258 1.65867 14.1032 1.58554C14.1323 1.55809 14.1323 1.55809 14.1773 1.55809V1.51309C14.2551 1.44559 14.2551 1.44559 14.3123 1.44559C14.3197 1.42332 14.3271 1.40104 14.3348 1.37809C14.3838 1.33287 14.3838 1.33287 14.4446 1.28539C14.4645 1.26955 14.4844 1.25367 14.5049 1.23747C14.56 1.19832 14.56 1.19832 14.6275 1.17582V1.13082C14.6646 1.09707 14.7035 1.06512 14.7427 1.03384C14.7652 1.01587 14.7877 0.997844 14.8111 0.979394C14.8322 0.962564 14.8532 0.945644 14.875 0.928319C14.9018 0.905369 14.9285 0.882419 14.9551 0.859469C15.01 0.815819 15.01 0.815819 15.055 0.815819C15.0624 0.793544 15.0698 0.771269 15.0775 0.748319H15.1225V0.703319C15.1578 0.670919 15.1947 0.640319 15.2323 0.610619C15.266 0.583619 15.266 0.583619 15.3005 0.556169C15.3234 0.537944 15.3464 0.519719 15.37 0.501044C15.3906 0.484214 15.4114 0.467294 15.4325 0.449969C15.7025 0.229919 15.905 0.175469 16.247 0.253544L16.245 0.247499Z" fill="#19884A"/>
<path d="M11.0024 9.20248C11.2054 9.34986 11.3489 9.52873 11.3962 9.77848C11.4252 10.017 11.3749 10.2127 11.2504 10.4175C11.2011 10.4764 11.2011 10.4764 11.1604 10.5075H11.1154V10.5525C10.8746 10.7347 10.5664 10.8517 10.2919 10.9777C10.1774 11.0313 10.0669 11.0893 9.95438 11.1496C9.81826 11.2232 9.67988 11.2882 9.53813 11.3488C9.38513 11.4142 9.23663 11.4887 9.09038 11.5643C9.00083 11.6098 8.91083 11.6545 8.82038 11.6993C8.74163 11.7387 8.66288 11.7783 8.58413 11.8186C8.56773 11.8269 8.55128 11.8353 8.53441 11.8438C8.50291 11.8598 8.47141 11.8759 8.43991 11.8924C8.37443 11.9257 8.33123 11.9473 8.25676 11.9473V11.9923C8.23468 12.0016 8.21266 12.0108 8.18993 12.0204C8.02141 12.0922 7.85918 12.168 7.69718 12.2566C7.54373 12.3401 7.38668 12.4144 7.22693 12.4884C7.10746 12.5449 6.98843 12.6027 6.87143 12.6619C6.77896 12.7082 6.68581 12.7532 6.59243 12.7978C6.57362 12.8069 6.55486 12.8161 6.53551 12.8254C6.51746 12.8341 6.49951 12.8427 6.48083 12.8515C6.4647 12.8593 6.44866 12.8671 6.43201 12.8752C6.38858 12.892 6.38858 12.892 6.32108 12.892V12.937C6.27653 12.9444 6.23198 12.9518 6.18608 12.9595V13.0045C6.16453 13.0135 6.14288 13.0225 6.12083 13.0317C5.93858 13.1091 5.76308 13.1935 5.58758 13.2882C5.46023 13.3566 5.33108 13.4191 5.20058 13.4799C5.06783 13.5413 4.93733 13.607 4.80908 13.6745C4.74698 13.7026 4.74698 13.7026 4.67948 13.7026V13.7476C4.66742 13.7521 4.65541 13.7565 4.64303 13.761C4.39328 13.8564 4.15703 13.9835 3.92078 14.1098C3.71401 14.2211 3.50228 14.321 3.28178 14.4C3.23071 14.4208 3.23071 14.4208 3.19336 14.4891C3.25298 14.5134 3.31216 14.5361 3.37336 14.5566V14.6016C3.41048 14.609 3.44761 14.6165 3.48586 14.6241V14.6691C3.50395 14.6737 3.52208 14.6784 3.54076 14.6832C3.62828 14.7169 3.69511 14.7621 3.77251 14.815C3.83236 14.8546 3.89401 14.8859 3.95858 14.9169C4.16761 15.0191 4.36808 15.1419 4.56608 15.2634L4.61221 15.2913C4.64191 15.3094 4.67183 15.3276 4.70153 15.3458C4.76116 15.3818 4.81493 15.4122 4.88131 15.4342V15.4792C4.90853 15.4869 4.90853 15.4869 4.93621 15.4947C5.06491 15.5422 5.17921 15.6124 5.29621 15.6835C5.48408 15.798 5.67421 15.9015 5.87221 15.9962V16.0412C5.90933 16.0486 5.94646 16.0561 5.98471 16.0637V16.1087C6.01126 16.1157 6.01126 16.1157 6.03826 16.1228C6.12803 16.1568 6.20273 16.2015 6.28351 16.2519C6.34313 16.2882 6.40366 16.3217 6.46508 16.3548C6.55036 16.4009 6.63451 16.4479 6.71708 16.4967C6.73924 16.5097 6.76141 16.5226 6.78413 16.5359C6.84241 16.5705 6.90023 16.6056 6.95783 16.6412C6.97475 16.6515 6.99158 16.6618 7.00913 16.6725C7.04243 16.6928 7.07573 16.7134 7.10881 16.7341C7.20241 16.7908 7.26518 16.8189 7.37881 16.8061V16.7611C7.40311 16.7507 7.42741 16.7403 7.45238 16.7296C7.69763 16.6239 7.93163 16.5057 8.16563 16.3809C8.25451 16.3334 8.34496 16.2891 8.43563 16.2445C8.48536 16.2198 8.53508 16.1948 8.58458 16.17C8.61158 16.1565 8.63881 16.143 8.66581 16.1295C8.67967 16.1226 8.69348 16.1157 8.70788 16.1085C8.99363 15.9657 9.27938 15.8228 9.56513 15.6788C9.58853 15.6671 9.58853 15.6671 9.61238 15.6552C9.64321 15.6398 9.67381 15.6246 9.70463 15.609C9.76876 15.5771 9.83288 15.5449 9.89678 15.5121C9.91575 15.5024 9.93481 15.4927 9.95416 15.4828C9.97756 15.4708 9.97756 15.4708 10.0012 15.4585C10.1495 15.3903 10.2712 15.3541 10.4354 15.3564C10.4532 15.3565 10.471 15.3566 10.4892 15.3567C10.6235 15.3601 10.7277 15.3848 10.8425 15.4561C10.8724 15.4713 10.9023 15.4865 10.9325 15.5011V15.5461C10.9523 15.5541 10.9523 15.5541 10.9725 15.5621C11.0972 15.6344 11.1944 15.8074 11.238 15.9446C11.2884 16.2056 11.2302 16.3969 11.1131 16.6264H11.0681V16.6939C10.9316 16.8354 10.7554 16.9369 10.5731 17.0089H10.5056V17.0539C10.4825 17.0645 10.4593 17.0752 10.4354 17.0861C10.2671 17.1639 10.1002 17.2442 9.93818 17.3313C9.79666 17.4076 9.65243 17.4782 9.50843 17.5464C9.31336 17.638 9.12143 17.7359 8.93243 17.8367C8.90251 17.8526 8.87236 17.8686 8.84243 17.8846C8.80508 17.9045 8.80508 17.9045 8.76706 17.9249C8.70743 17.9521 8.70743 17.9521 8.63993 17.9521V17.9971C8.59538 18.0045 8.55083 18.0119 8.50493 18.0196V18.0646C8.43518 18.0986 8.36521 18.1323 8.29546 18.1658C8.27563 18.1755 8.25586 18.1852 8.23538 18.1951C8.2163 18.2042 8.19713 18.2134 8.17756 18.2228C8.16001 18.2312 8.14246 18.2397 8.12446 18.2484C8.07766 18.267 8.07766 18.267 8.01016 18.267V18.312C7.95121 18.3345 7.89203 18.357 7.83286 18.3795C7.81607 18.3859 7.79933 18.3924 7.78201 18.399C7.65511 18.4469 7.65511 18.4469 7.60516 18.4469C7.61258 18.4692 7.62001 18.4915 7.62766 18.5144C7.68391 18.5419 7.68391 18.5419 7.74016 18.5594V18.6044C7.75512 18.6063 7.77008 18.6081 7.78561 18.6101C7.87448 18.6324 7.94716 18.6731 8.02636 18.7169C8.06078 18.7355 8.09521 18.7541 8.12963 18.7725C8.16451 18.7914 8.19938 18.8103 8.23448 18.8294C8.45701 18.95 8.68223 19.0634 8.91173 19.1714C9.06361 19.2432 9.21098 19.3199 9.35948 19.3987C9.48188 19.4637 9.60473 19.5242 9.73073 19.5827C9.87451 19.6498 10.0165 19.7202 10.156 19.7951C10.3052 19.8748 10.4552 19.9497 10.6082 20.0224C10.7795 20.1027 10.948 20.188 11.1145 20.2766C11.2542 20.3509 11.3957 20.4188 11.5397 20.4857C11.6664 20.5451 11.7895 20.6085 11.9132 20.6744C12.073 20.7597 12.235 20.8394 12.3992 20.9152C12.6287 21.023 12.856 21.1361 13.0787 21.2572C13.223 21.3353 13.3712 21.4059 13.5197 21.4754C13.7515 21.5841 13.9787 21.6977 14.2037 21.8197C14.348 21.8978 14.4962 21.9684 14.6447 22.0379C14.8765 22.1466 15.1037 22.2602 15.3287 22.3822C15.4921 22.4706 15.6595 22.5496 15.8282 22.6274C15.9531 22.6859 16.0757 22.7476 16.1995 22.8101V22.8551C16.2156 22.8572 16.2317 22.8593 16.2483 22.8615C16.3228 22.8804 16.3682 22.9112 16.4301 22.9564C16.4497 22.9706 16.4693 22.9848 16.4895 22.9994C16.5586 23.0516 16.5586 23.0516 16.5671 23.1101C16.5596 23.1704 16.5596 23.1704 16.517 23.2158C16.4986 23.2291 16.4803 23.2424 16.4612 23.2561C16.4429 23.2697 16.4247 23.2833 16.4058 23.2973C16.3572 23.3279 16.3572 23.3279 16.3122 23.3279V23.3729C16.2993 23.3798 16.2863 23.3866 16.2731 23.3937C16.166 23.4513 16.0602 23.5103 15.9558 23.5719C15.9368 23.5831 15.9178 23.5943 15.898 23.6059C15.8595 23.6286 15.8213 23.6513 15.783 23.6743C15.7652 23.6848 15.7475 23.6953 15.729 23.706C15.713 23.7155 15.6971 23.725 15.6806 23.7348C15.6377 23.7554 15.6377 23.7554 15.5702 23.7554V23.8004C15.5504 23.8111 15.5504 23.8111 15.5303 23.822C15.475 23.8522 15.4196 23.8823 15.3643 23.9127C15.3357 23.9283 15.3071 23.944 15.2786 23.9595C15.0576 24.0801 14.8398 24.2047 14.6261 24.3352C14.5106 24.405 14.3943 24.4718 14.2751 24.535C14.1959 24.5785 14.1196 24.6264 14.0433 24.6748C13.9963 24.6995 13.9963 24.6995 13.9288 24.6995V24.7445C13.9141 24.7516 13.8995 24.7587 13.8842 24.766C13.7513 24.8305 13.7513 24.8305 13.6255 24.9091C13.5679 24.9471 13.5679 24.9471 13.5004 24.9471V24.9921C13.4648 25.0105 13.4293 25.0288 13.3935 25.047C13.3737 25.0572 13.3539 25.0674 13.3334 25.0778C13.2835 25.101 13.2392 25.1163 13.1854 25.1271V25.1721C13.1736 25.1776 13.1618 25.1831 13.1496 25.1888C13.0045 25.2588 12.8661 25.3386 12.7289 25.4205C12.6182 25.4862 12.5068 25.5504 12.3936 25.6134C12.3789 25.6216 12.3641 25.6299 12.3491 25.6383C12.3198 25.6547 12.2906 25.6712 12.2613 25.6874C12.0341 25.8143 12.0341 25.8143 11.8113 25.9506C11.7175 26.0107 11.618 26.0584 11.5188 26.107C11.4547 26.1374 11.4547 26.1374 11.4005 26.1783C11.3179 26.2186 11.2738 26.2067 11.1851 26.1841C11.1138 26.1558 11.0456 26.1227 10.977 26.0885C10.9392 26.0701 10.9014 26.0518 10.8636 26.0334C10.8455 26.0245 10.8274 26.0156 10.8087 26.0064C10.7102 25.9585 10.61 25.9137 10.5095 25.8691V25.8241C10.4649 25.8167 10.4204 25.8093 10.3745 25.8016V25.7566C10.3592 25.7546 10.3439 25.7525 10.3283 25.7503C10.2462 25.7303 10.176 25.6943 10.1011 25.6554C9.99263 25.5989 9.99263 25.5989 9.87878 25.5541V25.5091C9.86353 25.507 9.84818 25.5049 9.83266 25.5028C9.75053 25.4828 9.68033 25.4468 9.60541 25.4078C9.49696 25.3514 9.49696 25.3514 9.38311 25.3066V25.2616C9.33856 25.2542 9.29401 25.2467 9.24811 25.2391V25.1941C9.23279 25.1922 9.21751 25.1904 9.20176 25.1885C9.13403 25.1712 9.08363 25.1428 9.02423 25.1068C8.93783 25.0595 8.84513 25.0265 8.75423 24.9916V24.9466C8.73871 24.9445 8.72318 24.9424 8.70721 24.9403C8.62733 24.9205 8.56568 24.8858 8.49413 24.8453C8.38208 24.7805 8.38208 24.7805 8.26013 24.7441V24.6991C8.21558 24.6916 8.17103 24.6842 8.12513 24.6766V24.6316C8.10981 24.6297 8.09453 24.6279 8.07878 24.6259C8.01983 24.6109 7.98383 24.5947 7.93253 24.5641C7.87223 24.529 7.83241 24.5074 7.76513 24.4966V24.4516C7.72058 24.4441 7.67603 24.4367 7.63013 24.4291V24.3841C7.61461 24.382 7.59908 24.3799 7.58311 24.3778C7.50323 24.358 7.44158 24.3233 7.37003 24.2828C7.25798 24.218 7.25798 24.218 7.13603 24.1816V24.1366C7.09148 24.1291 7.04693 24.1217 7.00103 24.1141V24.0691C6.98607 24.0672 6.97111 24.0654 6.95558 24.0635C6.86648 24.041 6.79403 23.9996 6.71483 23.9551C6.57781 23.8808 6.44033 23.8102 6.29858 23.744C6.27496 23.7329 6.27496 23.7329 6.25066 23.7216C6.17191 23.6849 6.09271 23.6502 6.01216 23.619V23.574C5.96761 23.5665 5.92306 23.5591 5.87716 23.5515V23.5065C5.86129 23.5039 5.84543 23.5014 5.82901 23.4988C5.75836 23.4825 5.69941 23.4572 5.63371 23.4264C5.61175 23.4161 5.58983 23.4059 5.56711 23.3953C5.55055 23.3875 5.53403 23.3796 5.51693 23.3715V23.3265C5.47238 23.319 5.42783 23.3116 5.38193 23.304V23.259L5.33558 23.2533C5.26786 23.236 5.21746 23.2077 5.15806 23.1717C5.07166 23.1244 4.97896 23.0913 4.88806 23.0565V23.0115C4.84351 23.004 4.79896 22.9966 4.75306 22.989V22.944C4.7378 22.9419 4.72246 22.9398 4.70693 22.9376C4.62481 22.9176 4.55461 22.8816 4.47968 22.8427C4.37123 22.7862 4.37123 22.7862 4.25738 22.7414V22.6964C4.24213 22.6944 4.22678 22.6923 4.21126 22.6901C4.12913 22.6701 4.05893 22.6341 3.98401 22.5952C3.87556 22.5387 3.87556 22.5387 3.76171 22.4939V22.4489C3.71716 22.4415 3.67261 22.4341 3.62671 22.4264V22.3814L3.58036 22.3758C3.52141 22.3607 3.48541 22.3445 3.43411 22.3139C3.37381 22.2788 3.33398 22.2572 3.26671 22.2464V22.2014C3.22216 22.194 3.17761 22.1866 3.13171 22.1789V22.1339C3.11618 22.1318 3.10066 22.1297 3.08468 22.1276C3.00481 22.1078 2.94316 22.0731 2.87161 22.0326C2.75956 21.9678 2.75956 21.9678 2.63761 21.9314V21.8864C2.59306 21.879 2.54851 21.8715 2.50261 21.8639V21.8189C2.48728 21.817 2.47201 21.8152 2.45626 21.8133C2.39731 21.7982 2.36131 21.782 2.31001 21.7514C2.24971 21.7163 2.20988 21.6947 2.14261 21.6839V21.6389C2.09806 21.6315 2.05351 21.624 2.00761 21.6164V21.5714C1.99208 21.5693 1.97656 21.5672 1.96058 21.5651C1.88071 21.5453 1.81906 21.5106 1.74751 21.4701C1.63546 21.4053 1.63545 21.4053 1.5135 21.3689V21.3239C1.46895 21.3164 1.4244 21.309 1.3785 21.3014V21.2564C1.36356 21.2545 1.34858 21.2527 1.33328 21.2508C1.24373 21.2283 1.1706 21.1869 1.09028 21.1424C1.0563 21.124 1.02233 21.1057 0.988354 21.0873C0.971074 21.0779 0.953705 21.0686 0.93593 21.0591C0.85313 21.015 0.769204 20.9732 0.686179 20.9316C0.663814 20.9204 0.663814 20.9204 0.640954 20.9091C0.602029 20.8898 0.563329 20.8706 0.524404 20.8515C0.494479 20.8365 0.464329 20.8216 0.434404 20.8065V20.7615H0.389404C0.405267 20.6663 0.420679 20.5894 0.496954 20.5253C0.609454 20.4533 0.724205 20.3873 0.841205 20.3246C0.93503 20.2735 1.02615 20.2184 1.11795 20.1632C1.16925 20.1356 1.2102 20.1191 1.26713 20.1088V20.0638C1.28484 20.0555 1.28484 20.0555 1.3029 20.0471C1.45545 19.9735 1.59991 19.8889 1.74391 19.7996C1.76776 19.7852 1.76775 19.7852 1.79205 19.7706C1.8063 19.7619 1.82063 19.7531 1.83526 19.7442C1.87441 19.7254 1.8744 19.7254 1.9419 19.7254V19.6804C1.98083 19.6616 1.98083 19.6616 2.02065 19.6423C2.10548 19.6003 2.18378 19.5521 2.26141 19.4992C2.30101 19.4778 2.301 19.4778 2.3685 19.4778V19.4328C2.3946 19.42 2.42071 19.4071 2.44748 19.3939C2.54176 19.3466 2.63401 19.2962 2.72648 19.2442C2.74095 19.2361 2.75551 19.228 2.77036 19.2197C2.87273 19.1619 2.97353 19.1018 3.07411 19.0413C3.18121 18.9772 3.28921 18.9148 3.39811 18.8521C3.55336 18.7616 3.70861 18.6709 3.86161 18.5776C3.99211 18.4986 4.12486 18.4237 4.25986 18.3526C4.27423 18.3449 4.28866 18.3372 4.30351 18.3294C4.38878 18.2851 4.38878 18.2851 4.43986 18.2851V18.2401C4.45207 18.2341 4.46438 18.2281 4.47676 18.222L4.52558 18.1979C4.54151 18.19 4.55753 18.1822 4.57373 18.1743C4.62458 18.1486 4.62458 18.1486 4.68713 18.1052H4.75463V18.0602C4.79176 18.0528 4.82888 18.0453 4.86713 18.0377V17.9927C4.99358 17.9252 4.99358 17.9252 5.06963 17.9252V17.8802C5.08457 17.8728 5.09956 17.8655 5.11486 17.8579C5.24041 17.7958 5.24041 17.7958 5.36236 17.727C5.40736 17.7002 5.40736 17.7002 5.45236 17.7002C5.43676 17.6296 5.43676 17.6296 5.37946 17.6012L5.31038 17.5666C5.17336 17.4957 5.04038 17.4187 4.90988 17.3393C4.77488 17.2576 4.63988 17.1773 4.50038 17.1031C4.40948 17.0538 4.32016 17.0018 4.23038 16.9496C4.17301 16.9165 4.12058 16.8891 4.05758 16.8679V16.8229C4.02046 16.8155 3.98333 16.8081 3.94508 16.8004V16.7554C3.92931 16.7536 3.91358 16.7517 3.89738 16.7498C3.81796 16.7291 3.76486 16.6895 3.69758 16.6429C3.67531 16.6355 3.65303 16.6281 3.63008 16.6204V16.5754L3.58598 16.5712C3.48788 16.5449 3.40958 16.4934 3.32273 16.4405C3.28876 16.4198 3.25478 16.3991 3.22058 16.3786C3.20562 16.3695 3.19066 16.3603 3.17536 16.3509C3.13148 16.3248 3.13148 16.3248 3.06691 16.3055V16.2605L3.02101 16.2431C2.94203 16.2102 2.86621 16.1724 2.78926 16.134C2.76748 16.123 2.76748 16.123 2.74516 16.1118C2.70961 16.0939 2.67406 16.0761 2.63873 16.0581V16.0131C2.61218 16.0061 2.61218 16.0061 2.58518 15.999C2.4945 15.9646 2.41845 15.9191 2.33543 15.8683C2.28548 15.8377 2.23508 15.8091 2.18378 15.781C2.09085 15.7299 2.00018 15.6754 1.90928 15.6208C1.79565 15.5521 1.68203 15.4864 1.56503 15.4237C1.45748 15.3649 1.35105 15.3044 1.24553 15.2439C1.22472 15.2321 1.2039 15.2203 1.18253 15.2081C1.15283 15.1912 1.15283 15.1912 1.12268 15.1739C1.10493 15.1638 1.08713 15.1537 1.0689 15.1433C1.0194 15.1132 0.973279 15.083 0.929179 15.0454V15.0004C0.906904 14.993 0.884629 14.9856 0.861679 14.9779V14.9329H0.816679C0.666604 14.7469 0.62228 14.5572 0.627455 14.3209C0.648515 14.1263 0.731855 13.9339 0.883955 13.8079C1.07475 13.6729 1.28446 13.5717 1.49371 13.4682C1.55761 13.4369 1.62105 13.4047 1.68473 13.3726C1.8519 13.2889 2.01998 13.2083 2.18873 13.1273C2.21004 13.1172 2.23125 13.107 2.2533 13.0965C2.27344 13.0869 2.29358 13.0774 2.31428 13.0675C2.35905 13.0458 2.40338 13.0231 2.44725 13.0002C2.5035 12.9739 2.5035 12.9739 2.571 12.9739V12.9289C2.60993 12.9104 2.64885 12.8922 2.68778 12.874C2.70945 12.8638 2.73121 12.8536 2.75348 12.8431C2.81333 12.8184 2.86733 12.804 2.93101 12.7939V12.7489C2.96318 12.7337 2.99558 12.7187 3.02798 12.7039C3.046 12.6955 3.06398 12.6872 3.08266 12.6787C3.13351 12.659 3.13351 12.659 3.20101 12.659V12.614C3.21307 12.6096 3.22508 12.6052 3.23746 12.6006C3.44423 12.5216 3.64246 12.4215 3.83821 12.3171C3.87668 12.3001 3.87668 12.3001 3.94418 12.3001V12.2551C3.9573 12.2492 3.97051 12.2433 3.98401 12.2373C4.31701 12.0883 4.64326 11.9335 4.96276 11.7625C5.14118 11.6662 5.32501 11.5803 5.50726 11.4948C5.59951 11.4518 5.69153 11.4084 5.78401 11.3649C5.81056 11.3524 5.81056 11.3524 5.83756 11.3395C6.01913 11.2533 6.19981 11.1649 6.37756 11.0718C6.44056 11.0425 6.44056 11.0425 6.50806 11.0425V10.9975C6.52655 10.9909 6.52655 10.9909 6.54541 10.9842C6.66488 10.9392 6.77716 10.8856 6.88966 10.8246C7.03771 10.7438 7.18891 10.6705 7.34191 10.5996C7.44743 10.5501 7.55228 10.4995 7.65691 10.4469C7.77908 10.385 7.90216 10.3263 8.02591 10.2682C8.15483 10.2077 8.28241 10.1451 8.40616 10.077C8.56006 9.99302 8.71666 9.91765 8.87641 9.84295C9.02131 9.77477 9.16441 9.70345 9.30616 9.62965C9.36511 9.6031 9.36511 9.6031 9.43261 9.6031V9.5581C9.46523 9.54417 9.46523 9.54417 9.49876 9.52997C9.66188 9.45977 9.82276 9.3871 9.98026 9.30632C10.3178 9.1342 10.6418 9.01382 11.0063 9.1981L11.0024 9.20248Z" fill="#19884A"/>
<path d="M27.9675 10.2825C28.0631 10.3345 28.1607 10.3813 28.26 10.4269C28.3738 10.4798 28.4872 10.5334 28.5997 10.5901C28.755 10.6686 28.9125 10.7428 29.07 10.8173C29.1559 10.8578 29.2405 10.8988 29.322 10.9467C29.3789 10.9793 29.4297 11.0036 29.4912 11.0252C29.5985 11.0666 29.6982 11.1184 29.7994 11.1728C29.9299 11.2432 30.0604 11.3101 30.1954 11.3726C30.3804 11.4586 30.5622 11.5488 30.7444 11.6404C30.7935 11.6653 30.8423 11.6901 30.8913 11.7148C30.9065 11.7226 30.9217 11.7304 30.9375 11.7385C31.0063 11.7733 31.0709 11.8053 31.1474 11.819V11.864C31.1623 11.8661 31.1773 11.8681 31.1926 11.8702C31.2792 11.8912 31.3557 11.9281 31.4356 11.9668C31.4606 11.9787 31.4606 11.9787 31.4862 11.9908C31.9295 12.2032 31.9295 12.2032 32.1117 12.3081C32.1752 12.3441 32.2375 12.3724 32.3057 12.3981C32.4351 12.4474 32.5554 12.5133 32.6747 12.5799C32.7636 12.6283 32.8484 12.6676 32.9469 12.6962V12.7412C32.9627 12.7435 32.9784 12.7459 32.9946 12.7482C33.0698 12.7662 33.1287 12.7955 33.1974 12.8313C33.3256 12.8972 33.4539 12.96 33.5844 13.0212C33.7322 13.0907 33.8791 13.1622 34.0254 13.2358C34.123 13.2851 34.2216 13.3319 34.3201 13.378C34.5359 13.4784 34.7431 13.5884 34.9479 13.7088C34.9771 13.7255 34.9771 13.7255 35.007 13.7425C35.1245 13.8118 35.1884 13.8894 35.2635 14.0013V14.0688H35.3085C35.4035 14.3298 35.4003 14.5345 35.286 14.7888C35.2793 14.8039 35.2725 14.8189 35.2656 14.8347C35.2125 14.9391 35.1351 15.0165 35.0383 15.0822H34.9933V15.1272C34.9562 15.1346 34.9191 15.142 34.8808 15.1497V15.1947C34.841 15.2174 34.8012 15.2399 34.7613 15.2622C34.7391 15.2747 34.717 15.2871 34.6941 15.3002C34.6333 15.3297 34.6333 15.3297 34.5658 15.3297V15.3747C34.5287 15.3821 34.4916 15.3895 34.4533 15.3972V15.4422C34.4411 15.4482 34.4288 15.4541 34.4164 15.4603C34.4003 15.4682 34.3842 15.4762 34.3676 15.4844C34.3517 15.4922 34.3356 15.5 34.3194 15.508C34.2686 15.5336 34.2686 15.5336 34.206 15.5771H34.1385V15.6221C34.1267 15.6276 34.1149 15.6331 34.1028 15.6388C33.921 15.7265 33.7495 15.8298 33.5763 15.9335C33.518 15.9682 33.4595 16.0021 33.4008 16.0359C33.2982 16.0955 33.1965 16.1565 33.0948 16.2177C32.9197 16.3232 32.746 16.4278 32.5638 16.5214C32.5495 16.529 32.5352 16.5366 32.5206 16.5444C32.4348 16.5889 32.4348 16.5889 32.3838 16.5889V16.6339C32.3482 16.6523 32.3127 16.6706 32.2769 16.6888C32.257 16.699 32.2373 16.7092 32.2168 16.7197C32.1669 16.7428 32.1225 16.7581 32.0688 16.7689V16.8139C32.0332 16.8323 31.9977 16.8506 31.9619 16.8688C31.942 16.879 31.9223 16.8892 31.9018 16.8997C31.8519 16.9228 31.8075 16.9381 31.7538 16.9489V16.9939C31.7166 17.0014 31.6795 17.0088 31.6413 17.0164V17.0614C31.6176 17.0726 31.594 17.0837 31.5695 17.0952C31.4543 17.1526 31.3461 17.2212 31.2365 17.2891C31.0619 17.3976 30.881 17.4878 30.6965 17.5794C30.6515 17.6019 30.6065 17.6244 30.5615 17.6469V17.6919H30.629V17.7369C30.644 17.7422 30.6591 17.7475 30.6744 17.753C30.759 17.7894 30.8346 17.8362 30.9129 17.8846C31.025 17.955 31.025 17.955 31.1469 18.007V18.052C31.1841 18.0594 31.2212 18.0668 31.2594 18.0745V18.1195C31.2758 18.122 31.2921 18.1245 31.3089 18.1271C31.3749 18.1427 31.4219 18.1658 31.4802 18.1996C31.5069 18.215 31.5069 18.215 31.5339 18.2306C31.5473 18.2385 31.5605 18.2464 31.5742 18.2545V18.2995C31.6113 18.3069 31.6485 18.3143 31.6867 18.322V18.367C31.7117 18.3706 31.7117 18.3706 31.7371 18.3744C31.8028 18.3904 31.839 18.4117 31.8935 18.4513C31.9617 18.4986 32.0283 18.5393 32.103 18.5751C32.2035 18.6239 32.2994 18.6783 32.3955 18.7353C32.7307 18.9337 33.066 19.129 33.4057 19.318C33.4199 19.326 33.4341 19.334 33.4487 19.3421C33.5133 19.3783 33.5783 19.4136 33.6449 19.4458V19.4908C33.6613 19.4933 33.6777 19.4958 33.6946 19.4984C33.7605 19.5141 33.8028 19.5364 33.86 19.5724C33.8793 19.5844 33.8987 19.5963 33.9185 19.6086C33.9395 19.6217 33.9606 19.6347 33.9824 19.6482C34.0305 19.677 34.0789 19.7056 34.1273 19.734C34.1495 19.7471 34.1718 19.7603 34.1948 19.7738C34.2524 19.808 34.2524 19.808 34.3201 19.8282V19.8732C34.3325 19.8757 34.3449 19.8783 34.3577 19.8809C34.4191 19.8983 34.4715 19.9243 34.5282 19.9533C34.5483 19.9636 34.5683 19.9738 34.589 19.9844C34.6042 19.9922 34.6194 20.0001 34.6351 20.0082V20.0532C34.6527 20.0579 34.6704 20.0625 34.6887 20.0673C34.7818 20.1026 34.8601 20.1503 34.9452 20.2032C34.9971 20.2363 34.9971 20.2363 35.0637 20.2558V20.3008C35.0769 20.3036 35.0901 20.3063 35.1036 20.3092C35.1884 20.333 35.2581 20.3823 35.3331 20.4289C35.3489 20.4384 35.3648 20.4479 35.381 20.4577C35.4836 20.5213 35.5574 20.5839 35.6262 20.6827V20.7502C35.5349 20.8386 35.4224 20.8935 35.3112 20.9527C35.2739 20.9729 35.2739 20.9729 35.2356 20.9936C35.0606 21.0881 34.8846 21.1788 34.7046 21.2681C34.641 21.2996 34.5775 21.3318 34.5141 21.3642C34.4979 21.3724 34.4817 21.3807 34.465 21.3892C34.4342 21.4049 34.4031 21.4209 34.3725 21.4369C34.2956 21.476 34.2263 21.5046 34.1408 21.5163V21.5613C34.0962 21.5687 34.0517 21.5761 34.0058 21.5838V21.6288C33.9916 21.6351 33.9774 21.6414 33.9628 21.6479C33.8656 21.6915 33.7691 21.7354 33.6748 21.7838C33.6608 21.7909 33.6467 21.7981 33.6323 21.8055C33.5918 21.8263 33.5513 21.8473 33.5108 21.8683C33.444 21.8989 33.444 21.8989 33.3765 21.8989V21.9439C33.3375 21.9623 33.2986 21.9805 33.2597 21.9988C33.238 22.0089 33.2163 22.0191 33.194 22.0296C33.1341 22.0543 33.0801 22.0687 33.0165 22.0789V22.1239C32.9719 22.1313 32.9274 22.1387 32.8815 22.1464V22.1914C32.4832 22.3939 32.4832 22.3939 32.3865 22.3939V22.4389C32.3167 22.4728 32.2467 22.5066 32.177 22.5401C32.1572 22.5498 32.1374 22.5594 32.1169 22.5694C32.0978 22.5785 32.0787 22.5876 32.0591 22.597C32.0328 22.6098 32.0328 22.6098 32.006 22.6227C31.9592 22.6413 31.9592 22.6413 31.8917 22.6413V22.6863C31.8471 22.6937 31.8026 22.7011 31.7567 22.7088V22.7538C31.7425 22.7601 31.7283 22.7663 31.7137 22.7728C31.6165 22.8165 31.52 22.8604 31.4257 22.9087C31.4117 22.9159 31.3976 22.9231 31.3832 22.9305C31.3427 22.9513 31.3022 22.9723 31.2617 22.9932C31.1949 23.0238 31.1949 23.0238 31.1274 23.0238V23.0688C31.1135 23.074 31.0997 23.0792 31.0853 23.0846C30.9647 23.1309 30.8535 23.1831 30.7433 23.2499C30.7003 23.2714 30.7003 23.2714 30.6328 23.2714V23.3164C30.6076 23.3272 30.5824 23.3381 30.5565 23.3492C30.5235 23.3636 30.4902 23.378 30.4571 23.3922C30.4321 23.4029 30.4321 23.4029 30.4067 23.4138C30.3907 23.4208 30.3747 23.4278 30.3581 23.4349C30.3433 23.4413 30.3286 23.4477 30.3135 23.4542C30.267 23.4755 30.267 23.4755 30.2053 23.5188H30.1378V23.5638C30.1254 23.5697 30.1131 23.5755 30.1002 23.5816C29.8894 23.6813 29.6795 23.7812 29.4702 23.8853C29.4557 23.8926 29.4412 23.8999 29.4261 23.9074C29.3625 23.9393 29.299 23.9717 29.2358 24.0044C29.2156 24.0147 29.1955 24.0251 29.1748 24.0356C29.158 24.0445 29.1411 24.0533 29.1237 24.0624C29.0805 24.0807 29.0805 24.0807 29.013 24.0807V24.1257C28.9911 24.1356 28.9911 24.1356 28.9687 24.1456C28.9023 24.1755 28.8362 24.2055 28.7698 24.2354C28.7352 24.2509 28.7352 24.2509 28.7001 24.2667C28.6779 24.2767 28.6557 24.2867 28.633 24.297C28.6024 24.3108 28.6024 24.3108 28.5711 24.3249C28.514 24.351 28.514 24.351 28.4505 24.3958H28.383V24.4408C28.3385 24.4482 28.2939 24.4557 28.248 24.4633V24.5083C28.2326 24.5143 28.2172 24.5203 28.2012 24.5264C28.181 24.5344 28.1607 24.5423 28.1398 24.5505C28.1197 24.5583 28.0995 24.5662 28.0788 24.5741C28.019 24.598 28.019 24.598 27.9555 24.6432H27.888V24.6882C27.8435 24.6956 27.7989 24.7031 27.753 24.7107V24.7557C27.7058 24.7784 27.6583 24.8009 27.6111 24.8232C27.5715 24.842 27.5715 24.842 27.5312 24.8612C27.4605 24.8907 27.4605 24.8907 27.393 24.8907V24.9357C27.3485 24.9431 27.3039 24.9506 27.258 24.9582V25.0032C27.2328 25.0141 27.2076 25.0249 27.1818 25.0361C27.1487 25.0504 27.1154 25.0649 27.0823 25.079C27.0573 25.0897 27.0573 25.0897 27.0319 25.1007C27.0159 25.1076 27 25.1146 26.9833 25.1218C26.9686 25.1281 26.9538 25.1345 26.9388 25.141C26.8922 25.1623 26.8922 25.1623 26.8305 25.2056H26.763V25.2506C26.7185 25.258 26.6739 25.2655 26.628 25.2731V25.3181C26.5808 25.3408 26.5333 25.3633 26.4861 25.3856C26.4465 25.4044 26.4465 25.4044 26.4062 25.4236C26.3355 25.4531 26.3355 25.4531 26.268 25.4531V25.4981C26.2235 25.5055 26.1789 25.513 26.133 25.5206V25.5656C25.7348 25.7681 25.7348 25.7681 25.638 25.7681V25.8131C25.6161 25.823 25.6161 25.823 25.5937 25.833C25.5273 25.863 25.4612 25.8929 25.3948 25.9228C25.3602 25.9383 25.3602 25.9383 25.3251 25.9541C25.3029 25.9641 25.2807 25.9741 25.258 25.9845C25.2274 25.9983 25.2274 25.9983 25.1961 26.0124C25.139 26.0385 25.139 26.0385 25.0755 26.0833H25.008V26.1283C24.984 26.1348 24.9599 26.1412 24.9349 26.1479C24.8548 26.1685 24.8548 26.1685 24.8042 26.1999C24.738 26.2276 24.6951 26.2123 24.6255 26.1957C24.5686 26.1678 24.5153 26.1392 24.4611 26.107C24.4455 26.0981 24.43 26.0891 24.414 26.0798C24.3645 26.0512 24.315 26.0222 24.2658 25.993C24.2334 25.9739 24.2007 25.9549 24.1683 25.9358C24.1044 25.8982 24.0403 25.8604 23.9764 25.8229C23.8866 25.77 23.7964 25.7173 23.7064 25.6654C23.6814 25.6509 23.6565 25.6366 23.6306 25.6217C23.5694 25.5862 23.5694 25.5862 23.501 25.5655V25.5205C23.4847 25.5179 23.4684 25.5154 23.4515 25.5128C23.3856 25.4973 23.3385 25.4741 23.2803 25.4404C23.2625 25.4301 23.2447 25.4199 23.2265 25.4093C23.2132 25.4015 23.1999 25.3936 23.1862 25.3855V25.3405C23.1491 25.333 23.112 25.3256 23.0737 25.318V25.273C23.0592 25.2716 23.0447 25.2702 23.0296 25.2687C22.9315 25.2424 22.8532 25.1909 22.7664 25.138C22.7324 25.1173 22.6984 25.0966 22.6642 25.0761C22.6492 25.067 22.6343 25.0578 22.619 25.0485C22.5751 25.0224 22.5751 25.0224 22.5105 25.003V24.958C22.4962 24.9524 22.4817 24.9469 22.4669 24.9411C22.3755 24.9038 22.2855 24.8635 22.1946 24.823V24.778C22.1575 24.7706 22.1204 24.7632 22.0821 24.7555V24.7105C22.0645 24.7059 22.0468 24.7012 22.0286 24.6964C21.9388 24.6625 21.8641 24.6177 21.7833 24.5673C21.7237 24.5311 21.6632 24.4975 21.6018 24.4645C21.4107 24.361 21.2238 24.2498 21.0393 24.1382C20.8838 24.0446 20.7288 23.9515 20.569 23.866C20.4781 23.8167 20.3888 23.7647 20.299 23.7125C20.2416 23.6794 20.1892 23.652 20.1262 23.6308V23.5858C20.0891 23.5784 20.052 23.571 20.0137 23.5633V23.5183C20.0013 23.5158 19.989 23.5133 19.9761 23.5107C19.9147 23.4933 19.8623 23.4673 19.8056 23.4382C19.7855 23.428 19.7655 23.4178 19.7448 23.4072C19.7296 23.3993 19.7145 23.3915 19.6987 23.3833V23.3383C19.682 23.336 19.6654 23.3337 19.6481 23.3313C19.5817 23.3147 19.5462 23.2944 19.4962 23.2483V23.2033C19.4739 23.1959 19.4517 23.1884 19.4287 23.1808C19.4305 23.1187 19.441 23.0795 19.4829 23.0332C19.5788 22.9486 19.6785 22.8658 19.8114 22.8658V22.8208C19.856 22.8134 19.9005 22.8059 19.9464 22.7983V22.7533C19.9587 22.7475 19.971 22.7418 19.9838 22.7359C20.2133 22.6285 20.4405 22.5192 20.6633 22.3984C20.7873 22.3318 20.913 22.2719 21.0413 22.213C21.1529 22.161 21.2618 22.1052 21.3698 22.0467C21.5325 21.9592 21.6983 21.8788 21.8648 21.7992C22.0297 21.7213 22.1933 21.6408 22.3553 21.5584C22.4145 21.5285 22.4739 21.4988 22.5333 21.4693C22.5783 21.4468 22.6233 21.4243 22.6685 21.4018C22.7288 21.3717 22.7891 21.3418 22.8494 21.3118C22.9952 21.2394 23.1396 21.1658 23.2836 21.0882C23.4263 21.011 23.5716 20.9415 23.7201 20.8731C23.8677 20.8038 24.0126 20.7286 24.1544 20.6517C24.2856 20.5819 24.4176 20.518 24.5526 20.4559C24.6636 20.4044 24.7716 20.3488 24.8789 20.2908C25.0409 20.2035 25.2051 20.1241 25.3716 20.0455C25.5138 19.9785 25.6529 19.9067 25.7901 19.8322C25.9141 19.7659 26.0399 19.7058 26.1681 19.6468C26.2797 19.5949 26.3886 19.5391 26.4966 19.4806C26.6382 19.4043 26.7824 19.3336 26.9264 19.2655C27.0985 19.1847 27.2661 19.0992 27.4349 19.009C27.5775 18.9331 27.7229 18.8636 27.8691 18.7957C28.0019 18.7336 28.1301 18.6658 28.2584 18.5934C28.314 18.5662 28.314 18.5662 28.3815 18.5662V18.4537C28.3666 18.4516 28.3518 18.4496 28.3365 18.4475C28.2474 18.426 28.1697 18.389 28.0867 18.3496C28.0698 18.3416 28.053 18.3336 28.0354 18.3253C27.9119 18.2659 27.7947 18.1993 27.6777 18.1285C27.5859 18.0767 27.49 18.0389 27.3919 18.0038V17.9588C27.3738 17.9574 27.3557 17.956 27.337 17.9546C27.2499 17.9347 27.1905 17.9017 27.114 17.8569C27.0002 17.7937 26.88 17.7422 26.7608 17.6886V17.6436C26.7162 17.6362 26.6717 17.6288 26.6258 17.6211V17.5761C26.6101 17.5738 26.5943 17.5715 26.5781 17.5691C26.5029 17.5512 26.444 17.5219 26.3754 17.4861C26.2246 17.4087 26.0716 17.3356 25.9186 17.2636C25.8237 17.2188 25.7294 17.1736 25.6351 17.1261V17.0811C25.5906 17.0737 25.546 17.0662 25.5001 17.0586V17.0136C25.4853 17.0122 25.4704 17.0108 25.4551 17.0094C25.2697 16.9592 25.1491 16.8361 25.0501 16.6764C24.9385 16.4446 24.9068 16.2444 24.9801 15.9969C25.0659 15.7793 25.2299 15.6166 25.4324 15.5064C25.5827 15.4542 25.7249 15.4206 25.8824 15.4614C25.9036 15.4665 25.9247 15.4716 25.9465 15.4768C26.0997 15.5187 26.2368 15.5792 26.374 15.6562C26.4955 15.7237 26.6193 15.7835 26.7453 15.8425C26.9091 15.9194 27.0693 16 27.229 16.0855C27.3784 16.1656 27.5305 16.2414 27.6813 16.3172C27.7258 16.3394 27.7704 16.3618 27.8149 16.3843C27.9868 16.4709 28.1592 16.5553 28.3347 16.6363C28.4409 16.6858 28.5448 16.7384 28.6474 16.7958C28.7093 16.8171 28.7437 16.8062 28.8067 16.7894C28.8589 16.7635 28.8589 16.7635 28.91 16.7302C28.9295 16.7181 28.9491 16.7059 28.9692 16.6935C29 16.6742 29 16.6742 29.0315 16.6546C29.1174 16.6026 29.2038 16.5513 29.2902 16.4998C29.3124 16.4865 29.3346 16.473 29.3575 16.4593C29.3787 16.4467 29.3998 16.4341 29.4216 16.4211C29.4407 16.4097 29.4599 16.3983 29.4795 16.3866C29.5265 16.3619 29.5265 16.3619 29.5715 16.3619V16.3169C29.5912 16.3074 29.5911 16.3074 29.6113 16.2978C29.7481 16.2307 29.8791 16.1569 30.0096 16.0773C30.0674 16.0467 30.0674 16.0467 30.1349 16.0467V16.0017C30.1704 15.9833 30.206 15.965 30.2418 15.9468C30.2616 15.9366 30.2814 15.9264 30.3018 15.916C30.3518 15.8928 30.3961 15.8775 30.4499 15.8667V15.8217C30.487 15.8143 30.5241 15.8068 30.5624 15.7992V15.7542C30.5821 15.7447 30.582 15.7447 30.6022 15.7351C30.739 15.6681 30.87 15.5943 31.0005 15.5146C31.0583 15.484 31.0583 15.484 31.1258 15.484V15.439C31.1656 15.4163 31.2054 15.3938 31.2453 15.3715C31.2674 15.359 31.2896 15.3465 31.3125 15.3335C31.3733 15.304 31.3733 15.304 31.4408 15.304V15.259C31.4779 15.2516 31.515 15.2442 31.5533 15.2365V15.1915C31.5893 15.1718 31.6255 15.1521 31.6615 15.1326C31.6842 15.1201 31.707 15.1078 31.7304 15.095C31.7742 15.0711 31.8181 15.0475 31.862 15.0239C31.9749 14.9634 32.0845 14.8997 32.1927 14.8315C32.3093 14.7588 32.429 14.6963 32.5505 14.636C32.6209 14.6007 32.683 14.566 32.7442 14.5165V14.449C32.7294 14.4416 32.7145 14.4342 32.6992 14.4265V14.3815C32.6715 14.379 32.6715 14.379 32.6434 14.3763C32.5437 14.3545 32.467 14.3115 32.3779 14.262C32.2404 14.1869 32.1034 14.1187 31.9549 14.0665V14.0215C31.9104 14.0141 31.8658 14.0067 31.8199 13.999V13.954C31.8042 13.9517 31.7884 13.9494 31.7722 13.947C31.6971 13.9291 31.6381 13.8997 31.5695 13.864C31.4412 13.798 31.3107 13.7353 31.1825 13.6741C30.9651 13.5717 30.7505 13.4646 30.5367 13.3568C30.5167 13.3467 30.4967 13.3366 30.476 13.3262C30.4591 13.3177 30.4422 13.3091 30.4249 13.3003C30.3786 13.2774 30.3786 13.2774 30.3142 13.2574V13.2124C30.2955 13.2104 30.2769 13.2084 30.2575 13.2064C30.1635 13.1866 30.0894 13.1499 30.0055 13.1056C29.9895 13.0974 29.9736 13.0892 29.9569 13.0806C29.9112 13.0572 29.8656 13.0336 29.8199 13.01C29.6777 12.9375 29.5341 12.8684 29.3901 12.8005C29.1753 12.6992 28.9626 12.5935 28.7511 12.4855C28.6092 12.4137 28.4654 12.3462 28.3214 12.2785C28.2053 12.2236 28.0896 12.1673 27.9749 12.1095C27.8446 12.0436 27.7139 11.9804 27.5811 11.9183C27.3089 11.7898 27.0389 11.6573 26.7756 11.511C26.7259 11.4842 26.6762 11.4584 26.6256 11.4334V11.3884C26.6033 11.381 26.581 11.3735 26.5581 11.3659V11.3209H26.5131C26.4044 11.2358 26.3677 11.0891 26.3331 10.9609C26.304 10.6954 26.3469 10.4951 26.4865 10.2724C26.4953 10.2617 26.5041 10.2511 26.5131 10.2402H26.5581V10.1952C26.9383 9.74971 27.5616 10.0559 27.9688 10.2785L27.9675 10.2825Z" fill="#19884A"/>
<path d="M18.675 24.21C18.8174 24.235 18.9337 24.2762 19.0597 24.3464C19.0761 24.3553 19.0924 24.3641 19.1092 24.3734C19.2343 24.442 19.3567 24.5144 19.4782 24.5887C19.5786 24.6499 19.6807 24.7068 19.7842 24.7624C19.9107 24.8312 20.034 24.9053 20.1577 24.9784C20.4142 25.13 20.4142 25.13 20.673 25.2799C20.7106 25.3015 20.7106 25.3015 20.7488 25.3235C20.81 25.3591 20.81 25.3591 20.8784 25.3798V25.4248C20.8948 25.4273 20.9113 25.4297 20.9281 25.4323C20.995 25.4482 21.0386 25.4714 21.0964 25.5079C21.1259 25.5261 21.1259 25.5261 21.1561 25.5448C21.1758 25.5572 21.1957 25.5695 21.2159 25.5823C21.3907 25.6915 21.5714 25.7846 21.7559 25.8748V25.9198C21.793 25.9273 21.8302 25.9347 21.8684 25.9423V25.9873C21.8842 25.9892 21.8999 25.9911 21.9161 25.993C21.9955 26.0137 22.0486 26.0533 22.1159 26.0998C22.1382 26.1073 22.1605 26.1147 22.1834 26.1223V26.1673C22.2205 26.1748 22.2577 26.1822 22.2959 26.1898V26.2348C22.3084 26.2376 22.3209 26.2404 22.3339 26.2433C22.3909 26.2587 22.444 26.2797 22.4984 26.3022V26.3472C22.5173 26.3527 22.5362 26.3581 22.5556 26.3637C22.6442 26.3963 22.718 26.4395 22.7986 26.4892C22.8285 26.5076 22.8586 26.5259 22.8886 26.5443C22.9029 26.5531 22.9171 26.5619 22.932 26.5709C22.9959 26.6096 23.0614 26.6451 23.1268 26.6809C23.1799 26.7106 23.2317 26.7419 23.2837 26.7734C23.3608 26.8202 23.4389 26.8643 23.5177 26.907C23.6099 26.9568 23.699 27.0101 23.7877 27.0659C23.9382 27.1597 24.0937 27.2382 24.2534 27.3156V27.3606C24.2678 27.3625 24.2822 27.3643 24.2971 27.3663C24.3592 27.3815 24.4024 27.4009 24.4588 27.4295C24.613 27.4979 24.7401 27.4999 24.8998 27.444C24.9941 27.4051 25.0855 27.361 25.1766 27.3155C25.1915 27.3082 25.2063 27.3008 25.2218 27.2933C25.2965 27.2564 25.371 27.219 25.4452 27.1812C25.5379 27.1344 25.6322 27.0906 25.7265 27.0469C25.8734 26.9787 26.0167 26.9052 26.1585 26.8287C26.2827 26.7621 26.4082 26.6988 26.5342 26.6365C26.6218 26.5931 26.7075 26.5476 26.793 26.4999C26.8654 26.4599 26.9365 26.4255 27.0137 26.396C27.236 26.3109 27.4457 26.1942 27.655 26.081C27.8091 25.9975 27.9677 25.9228 28.1252 25.8492C28.2501 25.7903 28.3727 25.7284 28.4942 25.6629C28.6558 25.5756 28.8205 25.496 28.987 25.4177C29.0902 25.3691 29.1928 25.3194 29.2952 25.2669C29.5315 25.1452 29.5315 25.1452 29.6552 25.134C29.7043 25.1657 29.7043 25.1657 29.7452 25.224C29.7586 25.2926 29.7574 25.3601 29.7568 25.4298C29.7569 25.4509 29.7571 25.4719 29.7573 25.4937C29.7577 25.5644 29.7574 25.6353 29.7572 25.7059C29.7574 25.7565 29.7576 25.8072 29.7578 25.8578C29.7583 25.9955 29.7582 26.1323 29.758 26.2718C29.7579 26.3865 29.7581 26.5013 29.7583 26.616C29.7587 26.9018 29.7585 27.1875 29.7581 27.4755C29.7578 27.7253 29.7581 27.9728 29.7588 28.2225C29.7594 28.4768 29.7597 28.7333 29.7595 28.9875C29.7593 29.1309 29.7594 29.2733 29.7599 29.4173C29.7603 29.5521 29.7601 29.6873 29.7596 29.8223C29.7595 29.8718 29.7595 29.9213 29.7598 29.9708C29.7602 30.0383 29.7599 30.1058 29.7593 30.1731C29.7596 30.1928 29.7599 30.2124 29.7602 30.2329C29.7581 30.3654 29.7581 30.3654 29.6929 30.4343C29.6189 30.477 29.5439 30.5166 29.4656 30.5533C29.3446 30.6123 29.2249 30.6732 29.1079 30.7376C28.9612 30.817 28.8109 30.889 28.6601 30.9588C28.553 31.0085 28.4504 31.0627 28.3496 31.1228C28.306 31.144 28.306 31.144 28.2385 31.144V31.189C28.2261 31.1934 28.2137 31.1978 28.2011 31.2023C28.0574 31.2566 27.9244 31.3243 27.7916 31.3994C27.6841 31.4588 27.6841 31.4588 27.6096 31.4588V31.5038C27.5957 31.509 27.5819 31.5142 27.5675 31.5196C27.4469 31.5659 27.3358 31.6181 27.2255 31.6849C27.1826 31.7064 27.1826 31.7064 27.1151 31.7064V31.7514C27.1027 31.7558 27.0903 31.7602 27.0777 31.7648C26.9582 31.8098 26.846 31.8633 26.7335 31.9243C26.6041 31.9949 26.4725 32.0602 26.3397 32.1225C26.09 32.2397 25.8425 32.361 25.5995 32.4915C25.4552 32.5696 25.307 32.6402 25.1585 32.7098C24.9267 32.8184 24.6995 32.9321 24.4745 33.054C24.3302 33.1321 24.182 33.2027 24.0335 33.2723C23.8017 33.3809 23.5745 33.4946 23.3495 33.6165C23.2052 33.6946 23.057 33.7652 22.9085 33.8348C22.6767 33.9439 22.445 34.0586 22.22 34.1813C22.0987 34.2463 21.977 34.3102 21.8555 34.3725C21.8402 34.3804 21.8249 34.3883 21.8091 34.3964C21.7434 34.4294 21.6995 34.4513 21.6248 34.4513V34.4963C21.5803 34.5037 21.5357 34.5111 21.4898 34.5188V34.5638C21.4775 34.5682 21.4651 34.5726 21.4525 34.5771C21.333 34.6221 21.2207 34.6757 21.1082 34.7366C20.9789 34.8073 20.8472 34.8725 20.7145 34.9349C20.4647 35.0521 20.2172 35.1734 19.9742 35.3039C19.8098 35.393 19.6412 35.4724 19.4725 35.5514C19.3771 35.5959 19.2833 35.6432 19.1912 35.6927C19.1505 35.7102 19.1505 35.7102 19.083 35.7102V35.7552C19.0335 35.7742 18.9838 35.793 18.9341 35.8114C18.9064 35.8218 18.8787 35.8323 18.8501 35.8431C18.7723 35.8665 18.7136 35.8726 18.633 35.8677C18.5952 35.7918 18.6017 35.7063 18.5981 35.6224C18.5972 35.6022 18.5962 35.5821 18.5952 35.5612C18.586 35.349 18.585 35.1382 18.5852 34.9245C18.5852 34.8813 18.5852 34.8383 18.5851 34.7951C18.585 34.6779 18.5851 34.5611 18.5852 34.4441C18.5852 34.3172 18.5851 34.1898 18.5851 34.0638C18.585 33.8163 18.585 33.5688 18.585 33.3191C18.5851 33.1173 18.5851 32.9163 18.5851 32.7138C18.5851 32.685 18.5851 32.6562 18.5851 32.6265C18.5851 32.568 18.5851 32.5095 18.585 32.451C18.585 31.9178 18.5851 31.3868 18.5852 30.8535C18.5853 30.3698 18.5853 29.8838 18.5852 29.4C18.585 28.8533 18.585 28.3088 18.5851 27.762C18.5851 27.7038 18.5851 27.6453 18.5851 27.587C18.5851 27.5582 18.5851 27.5296 18.5851 27.4999C18.5851 27.2988 18.5851 27.0972 18.585 26.8969C18.585 26.6517 18.585 26.4064 18.5851 26.1589C18.5852 26.0338 18.5852 25.9092 18.5851 25.7832C18.5846 24.9237 18.5846 24.9237 18.5953 24.5614C18.5958 24.5382 18.5963 24.5153 18.5968 24.4914C18.601 24.3807 18.6068 24.3033 18.678 24.2124L18.675 24.21Z" fill="#19884A"/>
<path d="M17.3474 24.2325C17.4048 24.3184 17.3987 24.388 17.398 24.4867C17.3981 24.5062 17.3981 24.5257 17.3982 24.5457C17.3983 24.6114 17.3982 24.6773 17.398 24.743C17.398 24.7905 17.3981 24.838 17.3981 24.8852C17.3983 25.0159 17.3981 25.1462 17.398 25.2767C17.3978 25.4176 17.3979 25.558 17.398 25.6997C17.3981 25.945 17.398 26.188 17.3979 26.4332C17.3977 26.6897 17.3976 26.9462 17.3976 27.2027C17.3976 27.2266 17.3976 27.2266 17.3976 27.2509C17.3976 27.3154 17.3976 27.38 17.3976 27.4448C17.3976 28.0523 17.3974 28.6576 17.397 29.2651C17.3967 29.8051 17.3966 30.3428 17.3966 30.8828C17.3966 30.9175 17.3966 30.9521 17.3966 30.9868C17.3966 31.0124 17.3966 31.0124 17.3966 31.0387C17.3966 31.1249 17.3966 31.2111 17.3966 31.2975C17.3966 31.3145 17.3966 31.3315 17.3966 31.349C17.3966 31.799 17.3965 32.249 17.3964 32.699C17.3964 32.715 17.3963 32.731 17.3963 32.7476C17.3963 32.812 17.3963 32.8763 17.3963 32.9409C17.3962 33.1652 17.3962 33.3886 17.3962 33.6136C17.3962 33.9016 17.3961 34.1919 17.3958 34.4799C17.3957 34.6194 17.3957 34.7589 17.3957 34.8984C17.3957 35.026 17.3956 35.1526 17.3955 35.2809C17.3954 35.3272 17.3954 35.3734 17.3955 35.4197C17.3955 35.4823 17.3954 35.5448 17.3953 35.6076C17.3954 35.6258 17.3954 35.644 17.3954 35.6627C17.3952 35.7417 17.3911 35.8121 17.37 35.8877C17.1968 35.8625 17.0528 35.8081 16.8975 35.7302C16.8844 35.7236 16.8712 35.7171 16.8577 35.7103C16.7983 35.6806 16.7391 35.6509 16.6799 35.6212C16.5697 35.5656 16.4583 35.5125 16.3469 35.4603C16.1377 35.3627 15.9307 35.2592 15.7259 35.1543C15.7059 35.1442 15.6859 35.1342 15.6652 35.1237C15.6483 35.1152 15.6314 35.1066 15.6141 35.0979C15.5678 35.0749 15.5678 35.0749 15.5034 35.0549V35.0099C15.4885 35.0081 15.4735 35.0062 15.4582 35.0044C15.3686 34.9819 15.2955 34.9402 15.2152 34.8959C15.181 34.8775 15.1468 34.859 15.1126 34.8406C15.0953 34.8312 15.0779 34.8219 15.0602 34.8122C14.8379 34.6936 14.6124 34.585 14.3784 34.4927V34.4477C14.3635 34.4459 14.3485 34.4441 14.333 34.4422C14.2439 34.4197 14.1714 34.3783 14.0922 34.3337C13.9608 34.2624 13.829 34.1951 13.6917 34.1326C13.5639 34.0736 13.4397 34.0111 13.3137 33.944C13.1713 33.8673 13.028 33.7962 12.8817 33.7276C12.7188 33.6511 12.5577 33.571 12.4002 33.4868C12.1752 33.3658 11.9457 33.2528 11.714 33.1448C11.5673 33.0766 11.4237 33.0031 11.282 32.9263C11.1719 32.8674 11.0606 32.8132 10.9467 32.7607C10.8189 32.7018 10.6947 32.6392 10.5687 32.5722C10.4272 32.4959 10.283 32.4253 10.139 32.3571C9.98507 32.2849 9.83297 32.2095 9.68447 32.1298C9.52562 32.045 9.36497 31.9658 9.20072 31.8891C8.97122 31.7813 8.74397 31.6681 8.52122 31.5471C8.37835 31.4699 8.23322 31.4004 8.08472 31.3318C7.95737 31.2719 7.83272 31.2085 7.70897 31.1421C7.5589 31.0618 7.40747 30.9866 7.25447 30.9148C7.0918 30.8383 6.93272 30.7585 6.77297 30.6741C6.6454 30.6055 6.51647 30.5413 6.38597 30.4786C6.28922 30.4257 6.28922 30.4257 6.25637 30.3771C6.23691 30.2686 6.23095 30.1642 6.23095 30.0553C6.23091 30.0394 6.23088 30.0236 6.23084 30.0072C6.23075 29.9543 6.23082 29.9014 6.23089 29.8486C6.23086 29.8105 6.23082 29.7723 6.23078 29.7343C6.23067 29.6308 6.23071 29.527 6.23078 29.4238C6.23084 29.3144 6.23079 29.2048 6.23075 29.0953C6.23071 28.9108 6.23077 28.7263 6.23087 28.5418C6.23099 28.3309 6.23096 28.121 6.23083 27.9095C6.23073 27.727 6.23072 27.545 6.23077 27.3628C6.23081 27.2545 6.23082 27.1463 6.23074 27.0388C6.23048 26.6 6.2322 26.159 6.23994 25.7203C6.24066 25.6771 6.24127 25.6339 6.24177 25.5907C6.24249 25.531 6.24364 25.4714 6.2449 25.4118C6.24503 25.3941 6.24517 25.3762 6.24531 25.358C6.24848 25.2397 6.24848 25.2397 6.28558 25.1823C6.35556 25.1416 6.42936 25.1636 6.50361 25.1826C6.55198 25.2004 6.59766 25.2211 6.64423 25.2434C6.69351 25.2666 6.74278 25.2884 6.79273 25.3098C6.95248 25.3775 7.10098 25.4468 7.24723 25.5438C7.28458 25.5589 7.32216 25.5739 7.35973 25.5888C7.41441 25.6155 7.46863 25.6428 7.52286 25.6702C7.65291 25.7361 7.78386 25.7989 7.91661 25.8601C8.05363 25.9236 8.18211 25.9944 8.3126 26.0723C8.36638 26.1027 8.41746 26.1256 8.47528 26.147C8.60758 26.1965 8.72953 26.2644 8.85328 26.331C9.00583 26.4125 9.16153 26.4872 9.31903 26.5583C9.34445 26.5701 9.34445 26.5701 9.37033 26.5821C9.38529 26.589 9.40025 26.5958 9.41556 26.6028C9.45313 26.6229 9.45313 26.6229 9.49813 26.6678C9.52738 26.68 9.55685 26.691 9.58678 26.7016C9.70423 26.747 9.81403 26.8039 9.92428 26.8633C10.0933 26.9538 10.264 27.0384 10.4373 27.1198C10.5248 27.1606 10.6076 27.2033 10.6893 27.2539C10.7406 27.2807 10.7921 27.3068 10.8441 27.3327C10.8704 27.3459 10.897 27.3592 10.924 27.3727C11.1098 27.4623 11.248 27.5064 11.455 27.4789C11.5193 27.4544 11.5756 27.4263 11.6345 27.391C11.68 27.3664 11.68 27.3664 11.7475 27.3664V27.3214C11.783 27.303 11.8186 27.2848 11.8543 27.2665C11.8742 27.2564 11.8939 27.2462 11.9144 27.2357C11.9644 27.2125 12.0087 27.1972 12.0625 27.1864V27.1414C12.0743 27.1359 12.0861 27.1304 12.0982 27.1248C12.2461 27.0534 12.3862 26.972 12.528 26.8885C12.6409 26.8215 12.7552 26.7571 12.87 26.6952C12.9217 26.6678 12.9217 26.6678 12.9847 26.6241H13.0522V26.5791C13.064 26.5736 13.0759 26.5681 13.088 26.5624C13.2302 26.4938 13.3648 26.416 13.502 26.3352C13.6564 26.2436 13.8125 26.1545 13.9678 26.0652C14.0722 26.006 14.1743 25.945 14.2738 25.8782C14.3118 25.8581 14.3118 25.8581 14.3793 25.8581V25.8131C14.4148 25.7947 14.4504 25.7764 14.4862 25.7582C14.506 25.748 14.5258 25.7378 14.5462 25.7274C14.5962 25.7042 14.6405 25.6889 14.6943 25.6781V25.6331C14.7314 25.6257 14.7685 25.6182 14.8068 25.6106V25.5656C14.819 25.5596 14.8313 25.5536 14.8437 25.5475C14.8598 25.5395 14.8759 25.5316 14.8925 25.5234C14.9084 25.5156 14.9245 25.5077 14.9407 25.4998C14.9915 25.4741 14.9915 25.4741 15.0541 25.4307H15.1216V25.3857C15.1571 25.3673 15.1927 25.349 15.2284 25.3308C15.2581 25.3155 15.2581 25.3155 15.2885 25.3C15.3385 25.2768 15.3828 25.2615 15.4366 25.2507V25.2057C15.4484 25.2002 15.4602 25.1947 15.4723 25.189C15.6175 25.119 15.7558 25.0392 15.8931 24.9573C16.0022 24.8925 16.1122 24.8292 16.2238 24.7674C16.351 24.6965 16.4758 24.6236 16.6018 24.5493C16.7278 24.4749 16.8538 24.4015 16.9843 24.3327C17.0255 24.3107 17.0658 24.2874 17.1061 24.2638C17.194 24.2287 17.255 24.2292 17.3491 24.2386L17.3474 24.2325Z" fill="#19884A"/>
</g>
<defs>
<clipPath id="clip0_1842_1784">
<rect width="36" height="36" fill="white"/>
</clipPath>
</defs>
</svg>
