<svg width="60" height="60" viewBox="0 0 60 60" fill="none" xmlns="http://www.w3.org/2000/svg">
<g filter="url(#filter0_d_1771_1629)">
<rect x="10.0005" y="10" width="40" height="40" rx="20" fill="#19884A"/>
<mask id="mask0_1771_1629" style="mask-type:alpha" maskUnits="userSpaceOnUse" x="22" y="22" width="28" height="27">
<rect x="22.0005" y="22" width="27" height="27" fill="#D9D9D9"/>
</mask>
<g mask="url(#mask0_1771_1629)">
<path d="M31.0521 30.7118C31.4489 30.3203 31.4489 29.6798 31.0521 29.2882L27.522 25.8052C27.1251 25.4136 27.1251 24.7731 27.522 24.3815L27.6117 24.293C28.0011 23.9088 28.627 23.9088 29.0164 24.293L34.0791 29.2882C34.476 29.6798 34.476 30.3203 34.0791 30.7118L29.0164 35.707C28.627 36.0912 28.0011 36.0912 27.6117 35.707L27.522 35.6185C27.1251 35.2269 27.1251 34.5864 27.522 34.1948L31.0521 30.7118Z" fill="white"/>
</g>
</g>
<defs>
<filter id="filter0_d_1771_1629" x="0.000488281" y="0" width="60" height="60" filterUnits="userSpaceOnUse" color-interpolation-filters="sRGB">
<feFlood flood-opacity="0" result="BackgroundImageFix"/>
<feColorMatrix in="SourceAlpha" type="matrix" values="0 0 0 0 0 0 0 0 0 0 0 0 0 0 0 0 0 0 127 0" result="hardAlpha"/>
<feOffset/>
<feGaussianBlur stdDeviation="5"/>
<feComposite in2="hardAlpha" operator="out"/>
<feColorMatrix type="matrix" values="0 0 0 0 0 0 0 0 0 0 0 0 0 0 0 0 0 0 0.25 0"/>
<feBlend mode="normal" in2="BackgroundImageFix" result="effect1_dropShadow_1771_1629"/>
<feBlend mode="normal" in="SourceGraphic" in2="effect1_dropShadow_1771_1629" result="shape"/>
</filter>
</defs>
</svg>
