<svg width="60" height="60" viewBox="0 0 60 60" fill="none" xmlns="http://www.w3.org/2000/svg">
<path d="M28.7508 30H13.5468M13.1159 31.993L10.604 39.4965C9.2282 43.606 8.54033 45.6607 9.03398 46.926C9.46265 48.025 10.3834 48.858 11.5195 49.1752C12.8278 49.5402 14.8038 48.651 18.7558 46.8727L44.0918 35.4715C47.9493 33.7355 49.878 32.8677 50.474 31.662C50.992 30.6145 50.992 29.3853 50.474 28.3378C49.878 27.1323 47.9493 26.2643 44.0918 24.5284L18.7121 13.1076C14.772 11.3346 12.802 10.448 11.495 10.8117C10.3599 11.1275 9.4393 11.9584 9.00913 13.0552C8.51378 14.3182 9.1943 16.3685 10.5554 20.4692L13.1207 28.1983C13.3545 28.9025 13.4714 29.2548 13.5175 29.6148C13.5585 29.9345 13.558 30.258 13.5163 30.5775C13.4692 30.9375 13.3514 31.2893 13.1159 31.993Z" stroke="#006837" stroke-width="5" stroke-linecap="round" stroke-linejoin="round"/>
</svg>
