<svg width="25" height="25" viewBox="0 0 25 25" fill="none" xmlns="http://www.w3.org/2000/svg">
<g clip-path="url(#clip0_2476_2948)">
<path d="M24.207 16.825C24.0195 16.6375 23.7652 16.5322 23.5 16.5322C23.2348 16.5322 22.9805 16.6375 22.793 16.825L17.166 22.453L14.478 19.8C14.2923 19.6097 14.0387 19.501 13.7729 19.4977C13.507 19.4944 13.2508 19.5969 13.0605 19.7825C12.8702 19.9682 12.7615 20.2218 12.7582 20.4876C12.7549 20.7535 12.8573 21.0097 13.043 21.2L15.787 23.9C15.9591 24.0856 16.167 24.2344 16.3982 24.3375C16.6293 24.4406 16.8789 24.4959 17.132 24.5H17.165C17.4131 24.5008 17.6588 24.4524 17.888 24.3574C18.1171 24.2625 18.3252 24.123 18.5 23.947L24.207 18.239C24.3945 18.0515 24.4998 17.7972 24.4998 17.532C24.4998 17.2668 24.3945 17.0125 24.207 16.825ZM11.59 22.459C9.65904 22.2826 7.82103 21.5485 6.29973 20.3463C4.77842 19.1441 3.63945 17.5255 3.02147 15.6876C2.4035 13.8497 2.33317 11.8718 2.81906 9.99465C3.30494 8.11751 4.32608 6.42212 5.75816 5.11487C7.19024 3.80762 8.97147 2.94491 10.885 2.63177C12.7986 2.31863 14.7619 2.56855 16.536 3.35113C18.31 4.1337 19.8183 5.41516 20.8772 7.03951C21.9361 8.66385 22.4999 10.561 22.5 12.5C22.5 12.807 22.485 13.111 22.459 13.411C22.4468 13.5421 22.4605 13.6744 22.4995 13.8001C22.5385 13.9259 22.602 14.0427 22.6863 14.1439C22.7706 14.2451 22.874 14.3287 22.9906 14.3898C23.1073 14.4509 23.2348 14.4883 23.366 14.5C23.4971 14.5132 23.6295 14.5001 23.7554 14.4614C23.8813 14.4227 23.9982 14.3593 24.0993 14.2748C24.2004 14.1903 24.2836 14.0865 24.344 13.9694C24.4043 13.8523 24.4407 13.7243 24.451 13.593C24.483 13.23 24.5 12.867 24.5 12.5C24.4999 10.1731 23.8233 7.89646 22.5525 5.9472C21.2817 3.99795 19.4717 2.46019 17.3427 1.52116C15.2137 0.58213 12.8576 0.28233 10.5613 0.658263C8.26496 1.0342 6.12746 2.06964 4.40904 3.63854C2.69062 5.20744 1.4654 7.2421 0.882551 9.49481C0.299703 11.7475 0.384372 14.1211 1.12625 16.3266C1.86813 18.532 3.23521 20.4742 5.06105 21.9167C6.88689 23.3591 9.09273 24.2397 11.41 24.451C11.441 24.451 11.471 24.451 11.501 24.451C11.7662 24.4628 12.0253 24.3688 12.2211 24.1896C12.417 24.0104 12.5337 23.7607 12.5455 23.4955C12.5573 23.2303 12.4633 22.9713 12.2841 22.7754C12.1049 22.5795 11.8552 22.4628 11.59 22.451V22.459Z" fill="#9DB2CE"/>
<g clip-path="url(#clip1_2476_2948)">
<path d="M18.5 6.5H6.5V18.5H18.5V6.5Z" fill="white" fill-opacity="0.01"/>
<path fill-rule="evenodd" clip-rule="evenodd" d="M17.5 10L12.5 7.5L7.5 10V15L12.5 17.5L17.5 15V10Z" stroke="#9DB2CE" stroke-linejoin="round"/>
<path d="M7.5 10L12.5 12.5" stroke="#9DB2CE" stroke-linecap="round" stroke-linejoin="round"/>
<path d="M12.5 17.5V12.5" stroke="#9DB2CE" stroke-linecap="round" stroke-linejoin="round"/>
<path d="M17.5 10L12.5 12.5" stroke="#9DB2CE" stroke-linecap="round" stroke-linejoin="round"/>
<path d="M15 8.75L10 11.25" stroke="#9DB2CE" stroke-linecap="round" stroke-linejoin="round"/>
</g>
</g>
<defs>
<clipPath id="clip0_2476_2948">
<rect width="24" height="24" fill="white" transform="translate(0.5 0.5)"/>
</clipPath>
<clipPath id="clip1_2476_2948">
<rect width="12" height="12" fill="white" transform="translate(6.5 6.5)"/>
</clipPath>
</defs>
</svg>
