<svg width="24" height="24" viewBox="0 0 24 24" fill="none" xmlns="http://www.w3.org/2000/svg">
<g clip-path="url(#clip0_2476_2960)">
<path d="M23.707 16.325C23.5195 16.1375 23.2652 16.0322 23 16.0322C22.7348 16.0322 22.4805 16.1375 22.293 16.325L16.666 21.953L13.978 19.3C13.7923 19.1097 13.5387 19.001 13.2729 18.9977C13.007 18.9944 12.7508 19.0969 12.5605 19.2825C12.3702 19.4682 12.2615 19.7218 12.2582 19.9876C12.2549 20.2535 12.3573 20.5097 12.543 20.7L15.287 23.4C15.4591 23.5856 15.667 23.7344 15.8982 23.8375C16.1293 23.9406 16.3789 23.9959 16.632 24H16.665C16.9131 24.0008 17.1588 23.9524 17.388 23.8574C17.6171 23.7625 17.8252 23.623 18 23.447L23.707 17.739C23.8945 17.5515 23.9998 17.2972 23.9998 17.032C23.9998 16.7668 23.8945 16.5125 23.707 16.325ZM11.09 21.959C9.15904 21.7826 7.32103 21.0485 5.79973 19.8463C4.27842 18.6441 3.13945 17.0255 2.52147 15.1876C1.9035 13.3497 1.83317 11.3718 2.31906 9.49465C2.80494 7.61751 3.82608 5.92212 5.25816 4.61487C6.69024 3.30762 8.47147 2.44491 10.385 2.13177C12.2986 1.81863 14.2619 2.06855 16.036 2.85113C17.81 3.6337 19.3183 4.91516 20.3772 6.53951C21.4361 8.16385 21.9999 10.061 22 12C22 12.307 21.985 12.611 21.959 12.911C21.9468 13.0421 21.9605 13.1744 21.9995 13.3001C22.0385 13.4259 22.102 13.5427 22.1863 13.6439C22.2706 13.7451 22.374 13.8287 22.4906 13.8898C22.6073 13.9509 22.7348 13.9883 22.866 14C22.9971 14.0132 23.1295 14.0001 23.2554 13.9614C23.3813 13.9227 23.4982 13.8593 23.5993 13.7748C23.7004 13.6903 23.7836 13.5865 23.844 13.4694C23.9043 13.3523 23.9407 13.2243 23.951 13.093C23.983 12.73 24 12.367 24 12C23.9999 9.67312 23.3233 7.39646 22.0525 5.4472C20.7817 3.49795 18.9717 1.96019 16.8427 1.02116C14.7137 0.0821298 12.3576 -0.21767 10.0613 0.158263C7.76496 0.534196 5.62746 1.56964 3.90904 3.13854C2.19062 4.70744 0.965398 6.7421 0.382551 8.99481C-0.200297 11.2475 -0.115628 13.6211 0.62625 15.8266C1.36813 18.032 2.73521 19.9742 4.56105 21.4167C6.38689 22.8591 8.59273 23.7397 10.91 23.951C10.941 23.951 10.971 23.951 11.001 23.951C11.2662 23.9628 11.5253 23.8688 11.7211 23.6896C11.917 23.5104 12.0337 23.2607 12.0455 22.9955C12.0573 22.7303 11.9633 22.4713 11.7841 22.2754C11.6049 22.0795 11.3552 21.9628 11.09 21.951V21.959Z" fill="white"/>
<g clip-path="url(#clip1_2476_2960)">
<path d="M18 6H6V18H18V6Z" fill="white" fill-opacity="0.01"/>
<path fill-rule="evenodd" clip-rule="evenodd" d="M17 9.5L12 7L7 9.5V14.5L12 17L17 14.5V9.5Z" stroke="white" stroke-linejoin="round"/>
<path d="M7 9.5L12 12" stroke="white" stroke-linecap="round" stroke-linejoin="round"/>
<path d="M12 17V12" stroke="white" stroke-linecap="round" stroke-linejoin="round"/>
<path d="M17 9.5L12 12" stroke="white" stroke-linecap="round" stroke-linejoin="round"/>
<path d="M14.5 8.25L9.5 10.75" stroke="white" stroke-linecap="round" stroke-linejoin="round"/>
</g>
</g>
<defs>
<clipPath id="clip0_2476_2960">
<rect width="24" height="24" fill="white"/>
</clipPath>
<clipPath id="clip1_2476_2960">
<rect width="12" height="12" fill="white" transform="translate(6 6)"/>
</clipPath>
</defs>
</svg>
