<svg width="320" height="536" viewBox="0 0 320 536" fill="none" xmlns="http://www.w3.org/2000/svg">
<path d="M0 6.99999C0 3.13399 3.13401 0 7 0H320V536H7.00001C3.13401 536 0 532.866 0 529V6.99999Z" fill="#009229"/>
<g filter="url(#filter0_d_374_5423)">
<path d="M259.752 283.89C244.078 248.15 206.454 234.694 176.768 258.69C165.176 268.052 157.944 282.952 143.75 288.93C130.432 294.537 113.56 292.887 99.1586 295.923C68.4902 302.349 27.2 326.73 30.35 364.297C31.7297 380.753 42.8303 399.029 48.3176 414.426C54.6176 432.142 58.3976 454.305 75.0737 464.896C103.663 483.077 138.149 468.216 163.904 453.556C177.764 445.674 185.393 440.83 200.318 443.532C214.134 446.052 226.576 454.872 240.077 444.408C250.214 436.552 251.052 420.632 259.563 411.283C269.152 400.749 278.872 399.987 283.856 384.155C289.897 364.946 280.996 352.945 274.979 335.783C268.963 318.622 267.136 300.705 259.752 283.89Z" fill="#92E3A9"/>
<g opacity="0.7">
<path d="M259.752 283.89C244.078 248.15 206.454 234.694 176.768 258.69C165.176 268.052 157.944 282.952 143.75 288.93C130.432 294.537 113.56 292.887 99.1586 295.923C68.4902 302.349 27.2 326.73 30.35 364.297C31.7297 380.753 42.8303 399.029 48.3176 414.426C54.6176 432.142 58.3976 454.305 75.0737 464.896C103.663 483.077 138.149 468.216 163.904 453.556C177.764 445.674 185.393 440.83 200.318 443.532C214.134 446.052 226.576 454.872 240.077 444.408C250.214 436.552 251.052 420.632 259.563 411.283C269.152 400.749 278.872 399.987 283.856 384.155C289.897 364.946 280.996 352.945 274.979 335.783C268.963 318.622 267.136 300.705 259.752 283.89Z" fill="white"/>
</g>
<path d="M140.48 494.738C194.265 494.738 237.866 492.022 237.866 488.671C237.866 485.321 194.265 482.604 140.48 482.604C86.6958 482.604 43.0948 485.321 43.0948 488.671C43.0948 492.022 86.6958 494.738 140.48 494.738Z" fill="#92E3A9"/>
<path opacity="0.8" d="M140.48 494.738C194.265 494.738 237.866 492.022 237.866 488.671C237.866 485.321 194.265 482.604 140.48 482.604C86.6958 482.604 43.0948 485.321 43.0948 488.671C43.0948 492.022 86.6958 494.738 140.48 494.738Z" fill="white"/>
<path d="M213.661 257.972H115.74C108.98 257.972 103.499 263.452 103.499 270.213V476.941C103.499 483.701 108.98 489.182 115.74 489.182H213.661C220.422 489.182 225.902 483.701 225.902 476.941V270.213C225.902 263.452 220.422 257.972 213.661 257.972Z" fill="#263238"/>
<path d="M220.459 283.36H108.936V463.792H220.459V283.36Z" fill="white" stroke="#263238" stroke-width="1.33739" stroke-miterlimit="10"/>
<path d="M181.793 356.423C191.234 346.983 191.234 331.677 181.793 322.237C172.353 312.797 157.048 312.797 147.607 322.237C138.167 331.677 138.167 346.983 147.607 356.423C157.048 365.863 172.353 365.863 181.793 356.423Z" fill="#92E3A9"/>
<path d="M196.437 452.446H132.971C132.828 452.447 132.686 452.419 132.554 452.365C132.422 452.311 132.302 452.232 132.2 452.131C132.099 452.03 132.019 451.91 131.964 451.779C131.909 451.647 131.881 451.505 131.881 451.362C131.88 451.219 131.908 451.077 131.962 450.944C132.016 450.812 132.097 450.691 132.198 450.59C132.299 450.488 132.42 450.408 132.553 450.354C132.685 450.299 132.827 450.272 132.971 450.272H196.437C196.58 450.272 196.721 450.301 196.853 450.356C196.985 450.41 197.105 450.491 197.205 450.592C197.306 450.693 197.386 450.814 197.44 450.946C197.494 451.078 197.521 451.22 197.52 451.362C197.52 451.65 197.406 451.925 197.203 452.129C197 452.332 196.724 452.446 196.437 452.446Z" fill="#92E3A9"/>
<path d="M198.503 377.092H130.898C129.503 377.092 128.372 378.223 128.372 379.618V387.588C128.372 388.983 129.503 390.114 130.898 390.114H198.503C199.899 390.114 201.03 388.983 201.03 387.588V379.618C201.03 378.223 199.899 377.092 198.503 377.092Z" fill="#92E3A9"/>
<path d="M198.503 401.448H130.898C129.503 401.448 128.372 402.579 128.372 403.975V411.944C128.372 413.339 129.503 414.47 130.898 414.47H198.503C199.899 414.47 201.03 413.339 201.03 411.944V403.975C201.03 402.579 199.899 401.448 198.503 401.448Z" fill="#92E3A9"/>
<path d="M176.737 351.388L169.624 347.293V343.91C170.654 342.664 171.4 341.209 171.81 339.645C172.055 339.732 172.313 339.777 172.572 339.777C173.454 339.777 174.015 337.043 174.11 335.09C175.137 332.917 173.738 331.644 173.738 331.644C173.738 331.644 174.318 331.064 174.702 328.74C175.086 326.415 173.347 327.385 171.993 325.256C170.638 323.126 169.668 320.808 165.22 320.808C163.995 320.768 162.785 321.097 161.75 321.753C160.714 322.409 159.899 323.362 159.412 324.487C158.305 324.491 157.201 324.62 156.123 324.871C154.762 325.256 154.378 329.71 155.537 331.455C156.056 332.409 156.333 333.475 156.344 334.561C156.035 334.183 155.714 334.082 155.537 334.939C155.153 336.873 156.703 339.582 156.703 339.582L157.503 339.355C157.906 341.026 158.684 342.584 159.777 343.91V347.293L152.664 351.388C151.834 351.868 151.144 352.557 150.664 353.388C150.184 354.218 149.931 355.16 149.93 356.119V358.463C154.161 361.731 159.355 363.504 164.701 363.504C170.046 363.504 175.241 361.731 179.471 358.463V356.119C179.472 355.16 179.219 354.218 178.739 353.387C178.259 352.556 177.568 351.867 176.737 351.388Z" fill="#263238"/>
<path d="M137.576 411.232C137.413 411.229 137.257 411.164 137.141 411.049C137.079 410.993 137.03 410.925 136.996 410.849C136.962 410.773 136.945 410.691 136.946 410.608C136.948 410.494 136.981 410.383 137.04 410.287L138.174 408.472L135.963 408.541C135.88 408.547 135.796 408.534 135.718 408.505C135.64 408.476 135.569 408.43 135.51 408.371C135.407 408.256 135.35 408.107 135.35 407.952C135.35 407.798 135.407 407.649 135.51 407.534C135.568 407.473 135.638 407.425 135.717 407.395C135.795 407.364 135.879 407.351 135.963 407.357L138.143 407.439L137.022 405.631C136.961 405.532 136.928 405.419 136.927 405.303C136.926 405.22 136.944 405.138 136.977 405.062C137.011 404.986 137.06 404.918 137.122 404.862C137.238 404.747 137.394 404.682 137.557 404.68C137.664 404.68 137.769 404.711 137.86 404.769C137.95 404.827 138.022 404.91 138.067 405.007L139.145 406.954L140.209 405.02C140.26 404.917 140.338 404.829 140.434 404.767C140.531 404.705 140.643 404.67 140.757 404.667C140.837 404.667 140.916 404.684 140.988 404.717C141.061 404.75 141.126 404.797 141.18 404.856C141.295 404.976 141.359 405.137 141.356 405.303C141.356 405.412 141.327 405.518 141.274 405.612L140.134 407.439L142.345 407.357C142.429 407.351 142.513 407.364 142.592 407.395C142.67 407.425 142.741 407.473 142.799 407.534C142.906 407.645 142.965 407.795 142.962 407.949C142.962 408.105 142.904 408.256 142.799 408.371C142.739 408.43 142.668 408.476 142.59 408.505C142.512 408.534 142.428 408.547 142.345 408.541L140.121 408.472L141.23 410.268C141.292 410.368 141.325 410.484 141.324 410.602C141.324 410.769 141.258 410.929 141.14 411.047C141.022 411.165 140.862 411.232 140.694 411.232C140.586 411.23 140.481 411.197 140.392 411.137C140.302 411.076 140.232 410.991 140.19 410.891L139.138 409.001L138.093 410.891C138.046 410.99 137.973 411.074 137.882 411.134C137.791 411.194 137.685 411.228 137.576 411.232Z" fill="#263238"/>
<path d="M147.795 411.232C147.632 411.229 147.476 411.164 147.36 411.049C147.298 410.993 147.248 410.925 147.215 410.849C147.181 410.773 147.164 410.691 147.165 410.608C147.167 410.494 147.199 410.383 147.259 410.287L148.393 408.472L146.188 408.541C146.104 408.545 146.02 408.532 145.941 408.503C145.862 408.474 145.79 408.429 145.728 408.371C145.645 408.285 145.589 408.176 145.568 408.057C145.548 407.939 145.563 407.817 145.613 407.708C145.662 407.598 145.744 407.506 145.846 407.444C145.949 407.381 146.068 407.351 146.188 407.357L148.362 407.439L147.24 405.631C147.179 405.532 147.146 405.419 147.146 405.303C147.145 405.22 147.162 405.138 147.196 405.062C147.23 404.986 147.279 404.918 147.341 404.862C147.457 404.747 147.613 404.682 147.776 404.68C147.883 404.68 147.988 404.711 148.078 404.769C148.169 404.827 148.241 404.91 148.286 405.007L149.363 406.954L150.428 405.02C150.479 404.917 150.556 404.829 150.653 404.767C150.749 404.705 150.861 404.67 150.976 404.667C151.056 404.667 151.135 404.683 151.208 404.716C151.28 404.749 151.345 404.796 151.398 404.856C151.457 404.915 151.503 404.985 151.534 405.061C151.565 405.138 151.581 405.22 151.581 405.303C151.579 405.412 151.548 405.518 151.493 405.612L150.352 407.439L152.57 407.37C152.653 407.364 152.736 407.377 152.814 407.408C152.891 407.438 152.961 407.485 153.017 407.546C153.125 407.658 153.184 407.807 153.181 407.962C153.181 408.118 153.122 408.268 153.017 408.384C152.959 408.443 152.889 408.488 152.812 408.517C152.735 408.547 152.652 408.559 152.57 408.554L150.34 408.485L151.449 410.28C151.511 410.381 151.543 410.496 151.543 410.614C151.543 410.781 151.477 410.942 151.359 411.06C151.24 411.178 151.08 411.244 150.913 411.244C150.805 411.243 150.7 411.21 150.61 411.149C150.521 411.089 150.451 411.004 150.409 410.904L149.357 409.014L148.311 410.904C148.263 411 148.19 411.082 148.098 411.14C148.007 411.197 147.902 411.229 147.795 411.232Z" fill="#263238"/>
<path d="M158.019 411.232C157.854 411.231 157.696 411.165 157.578 411.049C157.516 410.993 157.467 410.925 157.433 410.849C157.4 410.773 157.383 410.691 157.383 410.608C157.385 410.494 157.418 410.383 157.478 410.287L158.612 408.472L156.407 408.541C156.288 408.546 156.17 408.516 156.069 408.453C155.968 408.391 155.888 408.3 155.838 408.192C155.789 408.084 155.773 407.963 155.792 407.846C155.812 407.729 155.865 407.62 155.947 407.534C156.006 407.473 156.078 407.426 156.158 407.395C156.237 407.365 156.322 407.352 156.407 407.357L158.58 407.439L157.459 405.631C157.398 405.532 157.365 405.419 157.364 405.303C157.366 405.221 157.385 405.139 157.418 405.063C157.452 404.988 157.5 404.919 157.56 404.862C157.677 404.746 157.835 404.68 158.001 404.68C158.107 404.681 158.21 404.713 158.3 404.771C158.389 404.829 158.46 404.911 158.505 405.007L159.582 406.954L160.647 405.02C160.697 404.917 160.775 404.829 160.871 404.767C160.968 404.705 161.08 404.67 161.195 404.667C161.274 404.667 161.353 404.683 161.426 404.716C161.499 404.749 161.564 404.796 161.617 404.856C161.675 404.915 161.721 404.985 161.753 405.061C161.784 405.138 161.8 405.22 161.799 405.303C161.797 405.412 161.767 405.518 161.711 405.612L160.571 407.439L162.789 407.357C162.87 407.349 162.952 407.358 163.03 407.385C163.108 407.411 163.179 407.454 163.238 407.51C163.298 407.566 163.345 407.634 163.376 407.71C163.407 407.786 163.422 407.867 163.419 407.949C163.42 408.105 163.364 408.255 163.261 408.371C163.202 408.43 163.131 408.476 163.052 408.505C162.974 408.534 162.891 408.547 162.807 408.541L160.584 408.472L161.686 410.268C161.748 410.368 161.781 410.484 161.781 410.602C161.779 410.684 161.76 410.766 161.727 410.842C161.693 410.917 161.645 410.986 161.585 411.043C161.53 411.102 161.464 411.149 161.391 411.181C161.317 411.214 161.237 411.231 161.157 411.232C161.05 411.23 160.946 411.197 160.857 411.136C160.769 411.076 160.7 410.991 160.659 410.891L159.601 409.001L158.555 410.891C158.508 410.994 158.432 411.08 158.337 411.14C158.242 411.201 158.132 411.232 158.019 411.232Z" fill="#263238"/>
<path d="M168.238 411.232C168.073 411.231 167.914 411.165 167.797 411.049C167.678 410.933 167.61 410.774 167.608 410.608C167.606 410.495 167.637 410.383 167.696 410.287L168.83 408.472L166.625 408.541C166.541 408.545 166.457 408.532 166.378 408.503C166.299 408.474 166.227 408.429 166.165 408.371C166.063 408.256 166.006 408.107 166.006 407.952C166.006 407.798 166.063 407.649 166.165 407.534C166.226 407.475 166.298 407.429 166.377 407.398C166.456 407.368 166.541 407.354 166.625 407.357L168.805 407.439L167.69 405.631C167.629 405.532 167.596 405.419 167.595 405.303C167.597 405.221 167.616 405.139 167.649 405.063C167.683 404.988 167.731 404.919 167.791 404.862C167.908 404.746 168.066 404.68 168.232 404.68C168.339 404.68 168.444 404.711 168.534 404.769C168.625 404.827 168.697 404.91 168.742 405.007L169.813 406.954L170.878 405.02C170.928 404.917 171.006 404.829 171.103 404.767C171.199 404.705 171.311 404.67 171.426 404.667C171.506 404.667 171.584 404.683 171.657 404.716C171.73 404.749 171.795 404.796 171.848 404.856C171.906 404.915 171.953 404.985 171.984 405.061C172.015 405.138 172.031 405.22 172.031 405.303C172.028 405.412 171.998 405.518 171.942 405.612L170.802 407.439L173.02 407.357C173.101 407.349 173.184 407.358 173.261 407.385C173.339 407.411 173.41 407.454 173.47 407.51C173.529 407.566 173.576 407.634 173.607 407.71C173.638 407.786 173.653 407.867 173.65 407.949C173.651 408.105 173.595 408.255 173.492 408.371C173.433 408.43 173.362 408.476 173.284 408.505C173.205 408.534 173.122 408.547 173.039 408.541L170.815 408.472L171.917 410.268C171.979 410.368 172.012 410.484 172.012 410.602C172.012 410.685 171.995 410.767 171.962 410.843C171.928 410.919 171.878 410.987 171.816 411.043C171.762 411.102 171.695 411.149 171.622 411.181C171.548 411.214 171.469 411.231 171.388 411.232C171.281 411.23 171.177 411.197 171.088 411.136C171 411.076 170.931 410.991 170.89 410.891L169.832 409.001L168.786 410.891C168.738 410.996 168.661 411.083 168.563 411.144C168.466 411.204 168.353 411.235 168.238 411.232Z" fill="#263238"/>
<path d="M178.457 411.232C178.291 411.231 178.133 411.165 178.016 411.049C177.918 410.95 177.856 410.822 177.839 410.684C177.822 410.546 177.851 410.406 177.921 410.287L179.049 408.472L176.844 408.541C176.76 408.545 176.676 408.532 176.597 408.503C176.518 408.474 176.445 408.429 176.384 408.371C176.281 408.256 176.224 408.107 176.224 407.952C176.224 407.798 176.281 407.649 176.384 407.534C176.445 407.475 176.517 407.429 176.596 407.398C176.675 407.368 176.759 407.354 176.844 407.357L179.024 407.439L177.902 405.631C177.841 405.532 177.809 405.419 177.808 405.303C177.81 405.137 177.878 404.979 177.997 404.862C178.114 404.746 178.272 404.68 178.438 404.68C178.545 404.68 178.65 404.711 178.74 404.769C178.831 404.827 178.903 404.91 178.948 405.007L180.019 406.954L181.084 405.02C181.134 404.917 181.212 404.829 181.309 404.767C181.405 404.705 181.517 404.67 181.632 404.667C181.713 404.667 181.792 404.683 181.866 404.716C181.94 404.748 182.006 404.796 182.06 404.856C182.176 404.976 182.239 405.137 182.237 405.303C182.234 405.412 182.204 405.518 182.148 405.612L181.008 407.439L183.226 407.357C183.307 407.349 183.39 407.358 183.467 407.385C183.545 407.411 183.616 407.454 183.676 407.51C183.735 407.566 183.782 407.634 183.813 407.71C183.844 407.786 183.859 407.867 183.856 407.949C183.857 408.105 183.801 408.255 183.698 408.371C183.639 408.43 183.568 408.476 183.49 408.505C183.411 408.534 183.328 408.547 183.245 408.541L181.021 408.472L182.123 410.268C182.185 410.368 182.218 410.484 182.218 410.602C182.218 410.685 182.201 410.767 182.168 410.843C182.134 410.919 182.084 410.987 182.022 411.043C181.968 411.102 181.901 411.149 181.828 411.181C181.754 411.214 181.675 411.231 181.594 411.232C181.487 411.23 181.383 411.197 181.294 411.136C181.206 411.076 181.137 410.991 181.096 410.891L180.038 409.001L178.992 410.891C178.945 410.994 178.869 411.08 178.774 411.14C178.68 411.201 178.569 411.232 178.457 411.232Z" fill="#263238"/>
<path d="M188.675 411.232C188.512 411.229 188.356 411.164 188.241 411.049C188.179 410.993 188.129 410.925 188.095 410.849C188.062 410.773 188.045 410.691 188.045 410.608C188.047 410.494 188.08 410.383 188.14 410.287L189.267 408.472L187.062 408.541C186.981 408.548 186.9 408.537 186.823 408.51C186.746 408.483 186.676 408.44 186.617 408.384C186.558 408.328 186.511 408.261 186.479 408.186C186.447 408.111 186.431 408.031 186.432 407.949C186.432 407.872 186.447 407.796 186.476 407.724C186.505 407.653 186.548 407.588 186.603 407.534C186.661 407.473 186.731 407.425 186.81 407.395C186.888 407.364 186.972 407.351 187.056 407.357L189.236 407.439L188.115 405.631C188.054 405.532 188.021 405.419 188.02 405.303C188.022 405.137 188.09 404.979 188.209 404.862C188.326 404.746 188.485 404.68 188.65 404.68C188.757 404.68 188.862 404.711 188.953 404.769C189.043 404.827 189.115 404.91 189.16 405.007L190.231 406.954L191.302 405.02C191.352 404.918 191.429 404.831 191.525 404.769C191.62 404.706 191.73 404.671 191.844 404.667C191.925 404.667 192.005 404.683 192.079 404.716C192.152 404.748 192.218 404.796 192.273 404.856C192.388 404.976 192.452 405.137 192.449 405.303C192.449 405.412 192.42 405.518 192.367 405.612L191.227 407.439L193.438 407.357C193.522 407.351 193.606 407.364 193.684 407.395C193.763 407.425 193.834 407.473 193.892 407.534C193.999 407.645 194.058 407.795 194.055 407.949C194.055 408.105 193.997 408.256 193.892 408.371C193.832 408.43 193.761 408.476 193.683 408.505C193.605 408.534 193.521 408.547 193.438 408.541L191.214 408.472L192.317 410.268C192.379 410.368 192.411 410.484 192.411 410.602C192.409 410.768 192.341 410.926 192.222 411.043C192.107 411.16 191.951 411.228 191.787 411.232C191.68 411.23 191.576 411.197 191.488 411.136C191.399 411.076 191.33 410.991 191.29 410.891L190.231 409.001L189.186 410.891C189.14 410.99 189.069 411.074 188.978 411.134C188.888 411.194 188.783 411.228 188.675 411.232Z" fill="#263238"/>
<g style="mix-blend-mode:multiply">
<path d="M220.459 283.6H108.936V290.586H220.459V283.6Z" fill="#92E3A9"/>
</g>
<path d="M176.825 270.729H152.57C152.132 270.729 151.712 270.555 151.403 270.245C151.093 269.936 150.919 269.516 150.919 269.078C150.919 268.641 151.093 268.221 151.403 267.911C151.712 267.602 152.132 267.428 152.57 267.428H176.825C177.263 267.428 177.683 267.602 177.992 267.911C178.302 268.221 178.476 268.641 178.476 269.078C178.476 269.516 178.302 269.936 177.992 270.245C177.683 270.555 177.263 270.729 176.825 270.729Z" fill="#92E3A9" stroke="#263238" stroke-width="1.33739" stroke-linecap="round" stroke-linejoin="round"/>
<path d="M171.313 473.987C171.314 472.678 170.927 471.398 170.2 470.309C169.474 469.22 168.441 468.371 167.232 467.87C166.023 467.369 164.692 467.237 163.409 467.492C162.125 467.747 160.946 468.377 160.02 469.303C159.095 470.228 158.464 471.407 158.209 472.691C157.954 473.975 158.086 475.306 158.587 476.515C159.089 477.724 159.938 478.757 161.026 479.483C162.115 480.209 163.395 480.596 164.704 480.595C166.456 480.594 168.136 479.897 169.375 478.658C170.614 477.419 171.311 475.739 171.313 473.987Z" fill="#92E3A9"/>
<path d="M168.055 470.635H161.352V477.338H168.055V470.635Z" fill="#92E3A9" stroke="#263238" stroke-width="1.33739" stroke-linecap="round" stroke-linejoin="round"/>
<path d="M244.55 397.92C244.55 397.92 235.768 375.606 243.586 372.953C251.726 370.188 251.367 384.923 251.052 392.105C250.39 407.452 248.695 410.306 247.429 406.558L244.55 397.92ZM241.91 415.327C244.323 418.477 245.004 415.214 240.65 400.478C238.609 393.548 234.174 379.531 227.37 384.791C220.837 389.831 236.385 408.101 236.385 408.101L241.91 415.327ZM237.248 428.116C239.548 430.157 239.592 427.581 234.13 416.94C231.566 411.957 226.141 401.87 221.7 406.86C217.435 411.673 231.969 423.372 231.969 423.372L237.248 428.116ZM232.208 443.324C234.508 445.372 234.552 442.789 229.09 432.154C226.526 427.171 221.101 417.079 216.66 422.074C212.42 426.9 226.91 438.599 226.91 438.599L232.208 443.324ZM246.761 412.366C243.082 413.803 246.005 415.365 261.371 415.321C268.578 415.321 283.295 414.993 280.158 406.986C277.152 399.294 255.266 409.09 255.266 409.09L246.761 412.366ZM242.572 422.597C238.678 423.272 241.236 425.388 256.306 428.4C263.368 429.817 277.852 432.432 276.371 423.99C274.954 415.85 251.556 421.104 251.556 421.104L242.572 422.597ZM237.885 435.09C234.571 435.569 236.688 437.415 249.357 440.313C255.298 441.674 267.488 444.225 266.43 437.024C265.422 430.094 245.514 434.013 245.514 434.013L237.885 435.09ZM234.325 446.663C231.081 447.489 233.38 449.101 246.295 450.639C252.343 451.357 264.735 452.604 262.927 445.555C261.182 438.788 241.803 444.78 241.803 444.78L234.325 446.663ZM253.313 399.81C251.423 404.044 255.348 403.401 268.692 391.759C274.941 386.297 287.478 374.869 277.549 369.18C268.017 363.711 257.767 390.096 257.767 390.096L253.313 399.81ZM234.816 461.739C232.819 462.905 234.779 463.358 243.939 461.531C248.235 460.681 256.974 458.791 254.019 455.061C251.159 451.47 239.441 459.03 239.441 459.03L234.816 461.739Z" fill="#92E3A9"/>
<path opacity="0.3" d="M244.55 397.92C244.55 397.92 235.768 375.606 243.586 372.953C251.726 370.188 251.367 384.923 251.052 392.105C250.39 407.452 248.695 410.306 247.429 406.558L244.55 397.92ZM241.91 415.327C244.323 418.477 245.004 415.214 240.65 400.478C238.609 393.548 234.174 379.531 227.37 384.791C220.837 389.831 236.385 408.101 236.385 408.101L241.91 415.327ZM237.248 428.116C239.548 430.157 239.592 427.581 234.13 416.94C231.566 411.957 226.141 401.87 221.7 406.86C217.435 411.673 231.969 423.372 231.969 423.372L237.248 428.116ZM232.208 443.324C234.508 445.372 234.552 442.789 229.09 432.154C226.526 427.171 221.101 417.079 216.66 422.074C212.42 426.9 226.91 438.599 226.91 438.599L232.208 443.324ZM246.761 412.366C243.082 413.803 246.005 415.365 261.371 415.321C268.578 415.321 283.295 414.993 280.158 406.986C277.152 399.294 255.266 409.09 255.266 409.09L246.761 412.366ZM242.572 422.597C238.678 423.272 241.236 425.388 256.306 428.4C263.368 429.817 277.852 432.432 276.371 423.99C274.954 415.85 251.556 421.104 251.556 421.104L242.572 422.597ZM237.885 435.09C234.571 435.569 236.688 437.415 249.357 440.313C255.298 441.674 267.488 444.225 266.43 437.024C265.422 430.094 245.514 434.013 245.514 434.013L237.885 435.09ZM234.325 446.663C231.081 447.489 233.38 449.101 246.295 450.639C252.343 451.357 264.735 452.604 262.927 445.555C261.182 438.788 241.803 444.78 241.803 444.78L234.325 446.663ZM253.313 399.81C251.423 404.044 255.348 403.401 268.692 391.759C274.941 386.297 287.478 374.869 277.549 369.18C268.017 363.711 257.767 390.096 257.767 390.096L253.313 399.81ZM234.816 461.739C232.819 462.905 234.779 463.358 243.939 461.531C248.235 460.681 256.974 458.791 254.019 455.061C251.159 451.47 239.441 459.03 239.441 459.03L234.816 461.739Z" fill="white"/>
<path d="M248.424 408.309L246.894 382.838L248.424 408.309ZM243.58 416.713L233.903 394.808L243.58 416.713ZM268.553 410.344L245.363 413.67L268.553 410.344ZM238.565 428.52L226.009 412.41L238.565 428.52ZM240.77 423.58L258.07 424.45L240.77 423.58ZM236.675 435.935L249.905 437.245L236.675 435.935ZM233.481 443.784L226.91 433.9L233.481 443.784ZM232.725 447.275L248.28 447.42L232.725 447.275ZM229.575 476.456C229.679 476.448 229.776 476.399 229.844 476.32C229.913 476.241 229.947 476.138 229.94 476.034C228.951 461.179 234.697 436.848 243.914 416.877C249.804 404.113 272.894 379.027 273.139 378.775C273.214 378.7 273.255 378.6 273.255 378.494C273.255 378.389 273.214 378.288 273.139 378.214C273.103 378.177 273.06 378.148 273.012 378.129C272.965 378.109 272.914 378.099 272.862 378.099C272.811 378.099 272.76 378.109 272.712 378.129C272.664 378.148 272.621 378.177 272.585 378.214C272.352 378.466 249.168 403.647 243.227 416.524C233.84 436.98 228.17 460.87 229.178 476.085C229.186 476.185 229.231 476.279 229.304 476.347C229.378 476.416 229.474 476.455 229.575 476.456ZM248.418 408.7C248.522 408.693 248.62 408.646 248.689 408.568C248.759 408.49 248.795 408.388 248.79 408.284L247.284 382.8C247.282 382.749 247.269 382.698 247.247 382.651C247.224 382.604 247.193 382.562 247.154 382.527C247.116 382.493 247.07 382.466 247.021 382.449C246.972 382.432 246.92 382.425 246.868 382.429C246.764 382.435 246.667 382.483 246.597 382.56C246.528 382.638 246.491 382.74 246.497 382.845L248.028 408.315C248.032 408.416 248.076 408.51 248.148 408.58C248.221 408.649 248.318 408.687 248.418 408.687V408.7ZM243.718 417.072C243.813 417.03 243.887 416.952 243.924 416.855C243.962 416.759 243.96 416.651 243.92 416.556L234.237 394.651C234.195 394.556 234.117 394.481 234.02 394.443C233.923 394.405 233.815 394.407 233.72 394.449C233.625 394.491 233.55 394.569 233.512 394.666C233.475 394.763 233.477 394.871 233.519 394.966L243.195 416.871C243.226 416.941 243.276 417.001 243.34 417.044C243.403 417.086 243.478 417.109 243.555 417.11C243.62 417.114 243.685 417.101 243.744 417.072H243.718ZM245.394 414.048L268.572 410.735C268.628 410.733 268.683 410.721 268.733 410.697C268.784 410.673 268.829 410.638 268.865 410.596C268.902 410.553 268.929 410.503 268.944 410.45C268.96 410.396 268.964 410.339 268.957 410.284C268.949 410.228 268.93 410.175 268.9 410.128C268.871 410.08 268.831 410.04 268.785 410.008C268.738 409.977 268.686 409.956 268.631 409.947C268.576 409.937 268.519 409.94 268.465 409.953L245.287 413.267C245.183 413.274 245.087 413.321 245.018 413.399C244.95 413.477 244.915 413.579 244.922 413.683C244.928 413.787 244.976 413.883 245.054 413.952C245.132 414.02 245.234 414.055 245.337 414.048H245.394ZM238.785 428.835C238.868 428.77 238.921 428.675 238.934 428.572C238.947 428.468 238.919 428.363 238.855 428.28L226.293 412.14C226.228 412.056 226.133 412.001 226.029 411.988C225.924 411.974 225.819 412.003 225.735 412.067C225.651 412.131 225.597 412.226 225.583 412.331C225.57 412.435 225.598 412.541 225.663 412.625L238.25 428.79C238.286 428.838 238.333 428.876 238.387 428.902C238.44 428.928 238.499 428.942 238.559 428.942C238.653 428.937 238.742 428.899 238.811 428.835H238.785ZM258.416 424.469C258.42 424.364 258.382 424.263 258.311 424.186C258.24 424.11 258.142 424.064 258.038 424.059L240.77 423.183C240.673 423.19 240.582 423.232 240.514 423.302C240.446 423.371 240.405 423.463 240.401 423.56C240.396 423.658 240.427 423.753 240.488 423.829C240.549 423.904 240.636 423.955 240.732 423.971L258.032 424.847C258.136 424.85 258.238 424.812 258.314 424.742C258.391 424.671 258.437 424.573 258.441 424.469H258.416ZM250.27 437.283C250.276 437.231 250.272 437.179 250.258 437.128C250.243 437.078 250.219 437.032 250.186 436.991C250.153 436.951 250.112 436.917 250.066 436.892C250.02 436.868 249.969 436.853 249.918 436.848L236.688 435.544C236.636 435.539 236.584 435.544 236.535 435.559C236.486 435.574 236.44 435.598 236.4 435.631C236.36 435.664 236.327 435.704 236.303 435.75C236.279 435.796 236.264 435.845 236.259 435.897C236.25 436 236.282 436.103 236.348 436.183C236.414 436.263 236.509 436.314 236.612 436.325L249.842 437.636H249.88C249.981 437.643 250.082 437.61 250.159 437.544C250.237 437.478 250.286 437.384 250.296 437.283H250.27ZM233.67 444.112C233.757 444.054 233.818 443.964 233.84 443.861C233.861 443.759 233.841 443.652 233.783 443.564L227.244 433.679C227.184 433.594 227.093 433.535 226.991 433.515C226.889 433.495 226.783 433.516 226.696 433.572C226.608 433.63 226.547 433.72 226.526 433.823C226.505 433.926 226.525 434.032 226.582 434.12L233.122 444.005C233.159 444.059 233.209 444.103 233.267 444.134C233.325 444.165 233.39 444.181 233.456 444.181C233.541 444.186 233.625 444.162 233.695 444.112H233.67ZM248.676 447.42C248.675 447.316 248.633 447.217 248.561 447.143C248.488 447.069 248.389 447.026 248.286 447.023L232.731 446.878C232.628 446.878 232.528 446.919 232.455 446.992C232.382 447.065 232.341 447.165 232.341 447.268C232.339 447.32 232.348 447.372 232.367 447.421C232.386 447.469 232.414 447.513 232.451 447.551C232.487 447.588 232.531 447.617 232.579 447.637C232.627 447.656 232.679 447.666 232.731 447.665L248.286 447.81C248.339 447.813 248.392 447.805 248.442 447.786C248.492 447.768 248.538 447.739 248.577 447.703C248.615 447.667 248.646 447.623 248.668 447.574C248.689 447.525 248.701 447.473 248.702 447.42H248.676ZM227.805 470.679C227.836 470.61 230.488 463.302 238.464 461.557C238.567 461.534 238.656 461.472 238.713 461.383C238.77 461.294 238.789 461.187 238.767 461.084C238.741 460.984 238.678 460.897 238.59 460.841C238.502 460.786 238.396 460.767 238.294 460.788C229.884 462.628 227.093 470.345 227.061 470.421C227.029 470.52 227.036 470.629 227.082 470.723C227.128 470.817 227.208 470.889 227.307 470.925H227.433C227.517 470.932 227.601 470.912 227.672 470.868C227.744 470.824 227.799 470.757 227.83 470.679H227.805ZM229.575 476.456C229.679 476.448 229.776 476.399 229.844 476.32C229.913 476.241 229.947 476.138 229.94 476.034C228.951 461.179 234.697 436.848 243.914 416.877C249.804 404.113 272.894 379.027 273.139 378.775C273.214 378.7 273.255 378.6 273.255 378.494C273.255 378.389 273.214 378.288 273.139 378.214C273.103 378.177 273.06 378.148 273.012 378.129C272.965 378.109 272.914 378.099 272.862 378.099C272.811 378.099 272.76 378.109 272.712 378.129C272.664 378.148 272.621 378.177 272.585 378.214C272.352 378.466 249.168 403.647 243.227 416.524C233.84 436.98 228.17 460.87 229.178 476.085C229.186 476.185 229.231 476.279 229.304 476.347C229.378 476.416 229.474 476.455 229.575 476.456ZM248.418 408.7C248.522 408.693 248.62 408.646 248.689 408.568C248.759 408.49 248.795 408.388 248.79 408.284L247.284 382.8C247.282 382.749 247.269 382.698 247.247 382.651C247.224 382.604 247.193 382.562 247.154 382.527C247.116 382.493 247.07 382.466 247.021 382.449C246.972 382.432 246.92 382.425 246.868 382.429C246.764 382.435 246.667 382.483 246.597 382.56C246.528 382.638 246.491 382.74 246.497 382.845L248.028 408.315C248.032 408.416 248.076 408.51 248.148 408.58C248.221 408.649 248.318 408.687 248.418 408.687V408.7ZM243.718 417.072C243.813 417.03 243.887 416.952 243.924 416.855C243.962 416.759 243.96 416.651 243.92 416.556L234.237 394.651C234.195 394.556 234.117 394.481 234.02 394.443C233.923 394.405 233.815 394.407 233.72 394.449C233.625 394.491 233.55 394.569 233.512 394.666C233.475 394.763 233.477 394.871 233.519 394.966L243.195 416.871C243.226 416.941 243.276 417.001 243.34 417.044C243.403 417.086 243.478 417.109 243.555 417.11C243.62 417.114 243.685 417.101 243.744 417.072H243.718ZM245.394 414.048L268.572 410.735C268.628 410.733 268.683 410.721 268.733 410.697C268.784 410.673 268.829 410.638 268.865 410.596C268.902 410.553 268.929 410.503 268.944 410.45C268.96 410.396 268.964 410.339 268.957 410.284C268.949 410.228 268.93 410.175 268.9 410.128C268.871 410.08 268.831 410.04 268.785 410.008C268.738 409.977 268.686 409.956 268.631 409.947C268.576 409.937 268.519 409.94 268.465 409.953L245.287 413.267C245.183 413.274 245.087 413.321 245.018 413.399C244.95 413.477 244.915 413.579 244.922 413.683C244.928 413.787 244.976 413.883 245.054 413.952C245.132 414.02 245.234 414.055 245.337 414.048H245.394ZM238.785 428.835C238.868 428.77 238.921 428.675 238.934 428.572C238.947 428.468 238.919 428.363 238.855 428.28L226.293 412.14C226.261 412.098 226.221 412.063 226.176 412.037C226.13 412.011 226.081 411.995 226.029 411.988C225.977 411.981 225.924 411.985 225.874 411.998C225.824 412.012 225.776 412.035 225.735 412.067C225.694 412.099 225.659 412.139 225.633 412.184C225.607 412.229 225.59 412.279 225.583 412.331C225.577 412.383 225.58 412.435 225.594 412.486C225.607 412.536 225.631 412.583 225.663 412.625L238.25 428.79C238.286 428.838 238.333 428.876 238.387 428.902C238.44 428.928 238.499 428.942 238.559 428.942C238.653 428.937 238.742 428.899 238.811 428.835H238.785ZM258.416 424.469C258.42 424.364 258.382 424.263 258.311 424.186C258.24 424.11 258.142 424.064 258.038 424.059L240.77 423.183C240.673 423.19 240.582 423.232 240.514 423.302C240.446 423.371 240.405 423.463 240.401 423.56C240.396 423.658 240.427 423.753 240.488 423.829C240.549 423.904 240.636 423.955 240.732 423.971L258.032 424.847C258.136 424.85 258.238 424.812 258.314 424.742C258.391 424.671 258.437 424.573 258.441 424.469H258.416ZM250.27 437.283C250.276 437.231 250.272 437.179 250.258 437.128C250.243 437.078 250.219 437.032 250.186 436.991C250.153 436.951 250.112 436.917 250.066 436.892C250.02 436.868 249.969 436.853 249.918 436.848L236.688 435.544C236.636 435.539 236.584 435.544 236.535 435.559C236.486 435.574 236.44 435.598 236.4 435.631C236.36 435.664 236.327 435.704 236.303 435.75C236.279 435.796 236.264 435.845 236.259 435.897C236.25 436 236.282 436.103 236.348 436.183C236.414 436.263 236.509 436.314 236.612 436.325L249.842 437.636H249.88C249.981 437.643 250.082 437.61 250.159 437.544C250.237 437.478 250.286 437.384 250.296 437.283H250.27ZM233.67 444.112C233.757 444.054 233.818 443.964 233.84 443.861C233.861 443.759 233.841 443.652 233.783 443.564L227.244 433.679C227.184 433.594 227.093 433.535 226.991 433.515C226.889 433.495 226.783 433.516 226.696 433.572C226.608 433.63 226.547 433.72 226.526 433.823C226.505 433.926 226.525 434.032 226.582 434.12L233.122 444.005C233.159 444.059 233.209 444.103 233.267 444.134C233.325 444.165 233.39 444.181 233.456 444.181C233.541 444.186 233.625 444.162 233.695 444.112H233.67ZM248.676 447.42C248.675 447.316 248.633 447.217 248.561 447.143C248.488 447.069 248.389 447.026 248.286 447.023L232.731 446.878C232.628 446.878 232.528 446.919 232.455 446.992C232.382 447.065 232.341 447.165 232.341 447.268C232.339 447.32 232.348 447.372 232.367 447.421C232.386 447.469 232.414 447.513 232.451 447.551C232.487 447.588 232.531 447.617 232.579 447.637C232.627 447.656 232.679 447.666 232.731 447.665L248.286 447.81C248.339 447.813 248.392 447.805 248.442 447.786C248.492 447.768 248.538 447.739 248.577 447.703C248.615 447.667 248.646 447.623 248.668 447.574C248.689 447.525 248.701 447.473 248.702 447.42H248.676ZM227.805 470.679C227.836 470.61 230.488 463.302 238.464 461.557C238.567 461.534 238.656 461.472 238.713 461.383C238.77 461.294 238.789 461.187 238.767 461.084C238.741 460.984 238.678 460.897 238.59 460.841C238.502 460.786 238.396 460.767 238.294 460.788C229.884 462.628 227.093 470.345 227.061 470.421C227.029 470.52 227.036 470.629 227.082 470.723C227.128 470.817 227.208 470.889 227.307 470.925H227.433C227.517 470.932 227.601 470.912 227.672 470.868C227.744 470.824 227.799 470.757 227.83 470.679H227.805Z" fill="#92E3A9"/>
<path opacity="0.2" d="M248.424 408.309L246.894 382.838L248.424 408.309ZM243.58 416.713L233.903 394.808L243.58 416.713ZM268.553 410.344L245.363 413.67L268.553 410.344ZM238.565 428.52L226.009 412.41L238.565 428.52ZM240.77 423.58L258.07 424.45L240.77 423.58ZM236.675 435.935L249.905 437.245L236.675 435.935ZM233.481 443.784L226.91 433.9L233.481 443.784ZM232.725 447.275L248.28 447.42L232.725 447.275ZM229.575 476.456C229.679 476.448 229.776 476.399 229.844 476.32C229.913 476.241 229.947 476.138 229.94 476.034C228.951 461.179 234.697 436.848 243.914 416.877C249.804 404.113 272.894 379.027 273.139 378.775C273.214 378.7 273.255 378.6 273.255 378.494C273.255 378.389 273.214 378.288 273.139 378.214C273.103 378.177 273.06 378.148 273.012 378.129C272.965 378.109 272.914 378.099 272.862 378.099C272.811 378.099 272.76 378.109 272.712 378.129C272.664 378.148 272.621 378.177 272.585 378.214C272.352 378.466 249.168 403.647 243.227 416.524C233.84 436.98 228.17 460.87 229.178 476.085C229.186 476.185 229.231 476.279 229.304 476.347C229.378 476.416 229.474 476.455 229.575 476.456ZM248.418 408.7C248.522 408.693 248.62 408.646 248.689 408.568C248.759 408.49 248.795 408.388 248.79 408.284L247.284 382.8C247.282 382.749 247.269 382.698 247.247 382.651C247.224 382.604 247.193 382.562 247.154 382.527C247.116 382.493 247.07 382.466 247.021 382.449C246.972 382.432 246.92 382.425 246.868 382.429C246.764 382.435 246.667 382.483 246.597 382.56C246.528 382.638 246.491 382.74 246.497 382.845L248.028 408.315C248.032 408.416 248.076 408.51 248.148 408.58C248.221 408.649 248.318 408.687 248.418 408.687V408.7ZM243.718 417.072C243.813 417.03 243.887 416.952 243.924 416.855C243.962 416.759 243.96 416.651 243.92 416.556L234.237 394.651C234.195 394.556 234.117 394.481 234.02 394.443C233.923 394.405 233.815 394.407 233.72 394.449C233.625 394.491 233.55 394.569 233.512 394.666C233.475 394.763 233.477 394.871 233.519 394.966L243.195 416.871C243.226 416.941 243.276 417.001 243.34 417.044C243.403 417.086 243.478 417.109 243.555 417.11C243.62 417.114 243.685 417.101 243.744 417.072H243.718ZM245.394 414.048L268.572 410.735C268.628 410.733 268.683 410.721 268.733 410.697C268.784 410.673 268.829 410.638 268.865 410.596C268.902 410.553 268.929 410.503 268.944 410.45C268.96 410.396 268.964 410.339 268.957 410.284C268.949 410.228 268.93 410.175 268.9 410.128C268.871 410.08 268.831 410.04 268.785 410.008C268.738 409.977 268.686 409.956 268.631 409.947C268.576 409.937 268.519 409.94 268.465 409.953L245.287 413.267C245.183 413.274 245.087 413.321 245.018 413.399C244.95 413.477 244.915 413.579 244.922 413.683C244.928 413.787 244.976 413.883 245.054 413.952C245.132 414.02 245.234 414.055 245.337 414.048H245.394ZM238.785 428.835C238.868 428.77 238.921 428.675 238.934 428.572C238.947 428.468 238.919 428.363 238.855 428.28L226.293 412.14C226.228 412.056 226.133 412.001 226.029 411.988C225.924 411.974 225.819 412.003 225.735 412.067C225.651 412.131 225.597 412.226 225.583 412.331C225.57 412.435 225.598 412.541 225.663 412.625L238.25 428.79C238.286 428.838 238.333 428.876 238.387 428.902C238.44 428.928 238.499 428.942 238.559 428.942C238.653 428.937 238.742 428.899 238.811 428.835H238.785ZM258.416 424.469C258.42 424.364 258.382 424.263 258.311 424.186C258.24 424.11 258.142 424.064 258.038 424.059L240.77 423.183C240.673 423.19 240.582 423.232 240.514 423.302C240.446 423.371 240.405 423.463 240.401 423.56C240.396 423.658 240.427 423.753 240.488 423.829C240.549 423.904 240.636 423.955 240.732 423.971L258.032 424.847C258.136 424.85 258.238 424.812 258.314 424.742C258.391 424.671 258.437 424.573 258.441 424.469H258.416ZM250.27 437.283C250.276 437.231 250.272 437.179 250.258 437.128C250.243 437.078 250.219 437.032 250.186 436.991C250.153 436.951 250.112 436.917 250.066 436.892C250.02 436.868 249.969 436.853 249.918 436.848L236.688 435.544C236.636 435.539 236.584 435.544 236.535 435.559C236.486 435.574 236.44 435.598 236.4 435.631C236.36 435.664 236.327 435.704 236.303 435.75C236.279 435.796 236.264 435.845 236.259 435.897C236.25 436 236.282 436.103 236.348 436.183C236.414 436.263 236.509 436.314 236.612 436.325L249.842 437.636H249.88C249.981 437.643 250.082 437.61 250.159 437.544C250.237 437.478 250.286 437.384 250.296 437.283H250.27ZM233.67 444.112C233.757 444.054 233.818 443.964 233.84 443.861C233.861 443.759 233.841 443.652 233.783 443.564L227.244 433.679C227.184 433.594 227.093 433.535 226.991 433.515C226.889 433.495 226.783 433.516 226.696 433.572C226.608 433.63 226.547 433.72 226.526 433.823C226.505 433.926 226.525 434.032 226.582 434.12L233.122 444.005C233.159 444.059 233.209 444.103 233.267 444.134C233.325 444.165 233.39 444.181 233.456 444.181C233.541 444.186 233.625 444.162 233.695 444.112H233.67ZM248.676 447.42C248.675 447.316 248.633 447.217 248.561 447.143C248.488 447.069 248.389 447.026 248.286 447.023L232.731 446.878C232.628 446.878 232.528 446.919 232.455 446.992C232.382 447.065 232.341 447.165 232.341 447.268C232.339 447.32 232.348 447.372 232.367 447.421C232.386 447.469 232.414 447.513 232.451 447.551C232.487 447.588 232.531 447.617 232.579 447.637C232.627 447.656 232.679 447.666 232.731 447.665L248.286 447.81C248.339 447.813 248.392 447.805 248.442 447.786C248.492 447.768 248.538 447.739 248.577 447.703C248.615 447.667 248.646 447.623 248.668 447.574C248.689 447.525 248.701 447.473 248.702 447.42H248.676ZM227.805 470.679C227.836 470.61 230.488 463.302 238.464 461.557C238.567 461.534 238.656 461.472 238.713 461.383C238.77 461.294 238.789 461.187 238.767 461.084C238.741 460.984 238.678 460.897 238.59 460.841C238.502 460.786 238.396 460.767 238.294 460.788C229.884 462.628 227.093 470.345 227.061 470.421C227.029 470.52 227.036 470.629 227.082 470.723C227.128 470.817 227.208 470.889 227.307 470.925H227.433C227.517 470.932 227.601 470.912 227.672 470.868C227.744 470.824 227.799 470.757 227.83 470.679H227.805ZM229.575 476.456C229.679 476.448 229.776 476.399 229.844 476.32C229.913 476.241 229.947 476.138 229.94 476.034C228.951 461.179 234.697 436.848 243.914 416.877C249.804 404.113 272.894 379.027 273.139 378.775C273.214 378.7 273.255 378.6 273.255 378.494C273.255 378.389 273.214 378.288 273.139 378.214C273.103 378.177 273.06 378.148 273.012 378.129C272.965 378.109 272.914 378.099 272.862 378.099C272.811 378.099 272.76 378.109 272.712 378.129C272.664 378.148 272.621 378.177 272.585 378.214C272.352 378.466 249.168 403.647 243.227 416.524C233.84 436.98 228.17 460.87 229.178 476.085C229.186 476.185 229.231 476.279 229.304 476.347C229.378 476.416 229.474 476.455 229.575 476.456ZM248.418 408.7C248.522 408.693 248.62 408.646 248.689 408.568C248.759 408.49 248.795 408.388 248.79 408.284L247.284 382.8C247.282 382.749 247.269 382.698 247.247 382.651C247.224 382.604 247.193 382.562 247.154 382.527C247.116 382.493 247.07 382.466 247.021 382.449C246.972 382.432 246.92 382.425 246.868 382.429C246.764 382.435 246.667 382.483 246.597 382.56C246.528 382.638 246.491 382.74 246.497 382.845L248.028 408.315C248.032 408.416 248.076 408.51 248.148 408.58C248.221 408.649 248.318 408.687 248.418 408.687V408.7ZM243.718 417.072C243.813 417.03 243.887 416.952 243.924 416.855C243.962 416.759 243.96 416.651 243.92 416.556L234.237 394.651C234.195 394.556 234.117 394.481 234.02 394.443C233.923 394.405 233.815 394.407 233.72 394.449C233.625 394.491 233.55 394.569 233.512 394.666C233.475 394.763 233.477 394.871 233.519 394.966L243.195 416.871C243.226 416.941 243.276 417.001 243.34 417.044C243.403 417.086 243.478 417.109 243.555 417.11C243.62 417.114 243.685 417.101 243.744 417.072H243.718ZM245.394 414.048L268.572 410.735C268.628 410.733 268.683 410.721 268.733 410.697C268.784 410.673 268.829 410.638 268.865 410.596C268.902 410.553 268.929 410.503 268.944 410.45C268.96 410.396 268.964 410.339 268.957 410.284C268.949 410.228 268.93 410.175 268.9 410.128C268.871 410.08 268.831 410.04 268.785 410.008C268.738 409.977 268.686 409.956 268.631 409.947C268.576 409.937 268.519 409.94 268.465 409.953L245.287 413.267C245.183 413.274 245.087 413.321 245.018 413.399C244.95 413.477 244.915 413.579 244.922 413.683C244.928 413.787 244.976 413.883 245.054 413.952C245.132 414.02 245.234 414.055 245.337 414.048H245.394ZM238.785 428.835C238.868 428.77 238.921 428.675 238.934 428.572C238.947 428.468 238.919 428.363 238.855 428.28L226.293 412.14C226.261 412.098 226.221 412.063 226.176 412.037C226.13 412.011 226.081 411.995 226.029 411.988C225.977 411.981 225.924 411.985 225.874 411.998C225.824 412.012 225.776 412.035 225.735 412.067C225.694 412.099 225.659 412.139 225.633 412.184C225.607 412.229 225.59 412.279 225.583 412.331C225.577 412.383 225.58 412.435 225.594 412.486C225.607 412.536 225.631 412.583 225.663 412.625L238.25 428.79C238.286 428.838 238.333 428.876 238.387 428.902C238.44 428.928 238.499 428.942 238.559 428.942C238.653 428.937 238.742 428.899 238.811 428.835H238.785ZM258.416 424.469C258.42 424.364 258.382 424.263 258.311 424.186C258.24 424.11 258.142 424.064 258.038 424.059L240.77 423.183C240.673 423.19 240.582 423.232 240.514 423.302C240.446 423.371 240.405 423.463 240.401 423.56C240.396 423.658 240.427 423.753 240.488 423.829C240.549 423.904 240.636 423.955 240.732 423.971L258.032 424.847C258.136 424.85 258.238 424.812 258.314 424.742C258.391 424.671 258.437 424.573 258.441 424.469H258.416ZM250.27 437.283C250.276 437.231 250.272 437.179 250.258 437.128C250.243 437.078 250.219 437.032 250.186 436.991C250.153 436.951 250.112 436.917 250.066 436.892C250.02 436.868 249.969 436.853 249.918 436.848L236.688 435.544C236.636 435.539 236.584 435.544 236.535 435.559C236.486 435.574 236.44 435.598 236.4 435.631C236.36 435.664 236.327 435.704 236.303 435.75C236.279 435.796 236.264 435.845 236.259 435.897C236.25 436 236.282 436.103 236.348 436.183C236.414 436.263 236.509 436.314 236.612 436.325L249.842 437.636H249.88C249.981 437.643 250.082 437.61 250.159 437.544C250.237 437.478 250.286 437.384 250.296 437.283H250.27ZM233.67 444.112C233.757 444.054 233.818 443.964 233.84 443.861C233.861 443.759 233.841 443.652 233.783 443.564L227.244 433.679C227.184 433.594 227.093 433.535 226.991 433.515C226.889 433.495 226.783 433.516 226.696 433.572C226.608 433.63 226.547 433.72 226.526 433.823C226.505 433.926 226.525 434.032 226.582 434.12L233.122 444.005C233.159 444.059 233.209 444.103 233.267 444.134C233.325 444.165 233.39 444.181 233.456 444.181C233.541 444.186 233.625 444.162 233.695 444.112H233.67ZM248.676 447.42C248.675 447.316 248.633 447.217 248.561 447.143C248.488 447.069 248.389 447.026 248.286 447.023L232.731 446.878C232.628 446.878 232.528 446.919 232.455 446.992C232.382 447.065 232.341 447.165 232.341 447.268C232.339 447.32 232.348 447.372 232.367 447.421C232.386 447.469 232.414 447.513 232.451 447.551C232.487 447.588 232.531 447.617 232.579 447.637C232.627 447.656 232.679 447.666 232.731 447.665L248.286 447.81C248.339 447.813 248.392 447.805 248.442 447.786C248.492 447.768 248.538 447.739 248.577 447.703C248.615 447.667 248.646 447.623 248.668 447.574C248.689 447.525 248.701 447.473 248.702 447.42H248.676ZM227.805 470.679C227.836 470.61 230.488 463.302 238.464 461.557C238.567 461.534 238.656 461.472 238.713 461.383C238.77 461.294 238.789 461.187 238.767 461.084C238.741 460.984 238.678 460.897 238.59 460.841C238.502 460.786 238.396 460.767 238.294 460.788C229.884 462.628 227.093 470.345 227.061 470.421C227.029 470.52 227.036 470.629 227.082 470.723C227.128 470.817 227.208 470.889 227.307 470.925H227.433C227.517 470.932 227.601 470.912 227.672 470.868C227.744 470.824 227.799 470.757 227.83 470.679H227.805Z" fill="black"/>
<path d="M239.863 465.35H222.027V469.041H223.584L226.803 489.183H235.087L238.307 469.041H239.863V465.35Z" fill="#92E3A9"/>
<path opacity="0.3" d="M239.863 465.35H222.027V469.041H223.584L226.803 489.183H235.087L238.307 469.041H239.863V465.35Z" fill="white"/>
<path d="M79.2884 353.713L58.5425 346.941L56.6966 342.065L52.4819 341.932L44.8337 340.483L45.7535 342.065L55.3799 349.051L57.755 350.236L79.4522 361.569L79.2884 353.713Z" fill="white" stroke="#263238" stroke-width="1.00396" stroke-miterlimit="10"/>
<path d="M56.6966 342.064L54.7184 340.88L50.7683 342.329L51.4235 343.116L56.6966 342.064Z" fill="white" stroke="#263238" stroke-width="1.00396" stroke-linejoin="round"/>
<path d="M79.2884 353.713L58.5425 346.941L56.6966 342.065L52.4819 341.932L44.8337 340.483L45.7535 342.065L55.3799 349.051L57.755 350.236L79.4522 361.569L79.2884 353.713Z" fill="white"/>
<mask id="mask0_374_5423" style="mask-type:luminance" maskUnits="userSpaceOnUse" x="44" y="340" width="36" height="22">
<path d="M79.2884 353.713L58.5425 346.941L56.6966 342.065L52.4819 341.932L44.8337 340.483L45.7535 342.065L55.3799 349.051L57.755 350.236L79.4522 361.569L79.2884 353.713Z" fill="white"/>
</mask>
<g mask="url(#mask0_374_5423)">
<path opacity="0.5" d="M79.2884 353.713L58.5425 346.941L56.6966 342.065L52.4819 341.932L44.8337 340.483L45.7535 342.065L55.3799 349.051L57.755 350.236L79.4522 361.569L79.2884 353.713Z" fill="#92E3A9" stroke="#263238" stroke-width="1.00396" stroke-miterlimit="10"/>
</g>
<path d="M79.2884 353.713L58.5425 346.941L56.6966 342.065L52.4819 341.932L44.8337 340.483L45.7535 342.065L55.3799 349.051L57.755 350.236L79.4522 361.569L79.2884 353.713Z" stroke="#263238" stroke-width="1.00396" stroke-miterlimit="10"/>
<path d="M56.6966 342.064L54.7184 340.88L50.7683 342.329L51.4235 343.116L56.6966 342.064Z" fill="white"/>
<mask id="mask1_374_5423" style="mask-type:luminance" maskUnits="userSpaceOnUse" x="50" y="340" width="7" height="4">
<path d="M56.6966 342.064L54.7184 340.88L50.7683 342.329L51.4235 343.116L56.6966 342.064Z" fill="white"/>
</mask>
<g mask="url(#mask1_374_5423)">
<path opacity="0.5" d="M56.6966 342.064L54.7184 340.88L50.7683 342.329L51.4235 343.116L56.6966 342.064Z" fill="#92E3A9" stroke="#263238" stroke-width="1.00396" stroke-linejoin="round"/>
</g>
<path d="M56.6966 342.064L54.7184 340.88L50.7683 342.329L51.4235 343.116L56.6966 342.064Z" stroke="#263238" stroke-width="1.00396" stroke-linejoin="round"/>
<path d="M83.6921 309.758C83.6921 309.758 83.3708 312.593 84.1709 314.414C84.971 316.234 89.4125 322.402 89.4125 322.402L81.1217 329.049C81.1217 329.049 77.6819 322.119 77.0267 320.997C76.3715 319.876 75.584 315.05 77.7197 311.591C79.8554 308.133 82.9298 307.2 83.6921 309.758Z" fill="white"/>
<mask id="mask2_374_5423" style="mask-type:luminance" maskUnits="userSpaceOnUse" x="76" y="308" width="14" height="22">
<path d="M83.6921 309.758C83.6921 309.758 83.3708 312.593 84.1709 314.414C84.971 316.234 89.4125 322.402 89.4125 322.402L81.1217 329.049C81.1217 329.049 77.6819 322.119 77.0267 320.997C76.3715 319.876 75.584 315.05 77.7197 311.591C79.8554 308.133 82.9298 307.2 83.6921 309.758Z" fill="white"/>
</mask>
<g mask="url(#mask2_374_5423)">
<g style="mix-blend-mode:multiply" opacity="0.5">
<path d="M79.4333 318.868L83.0305 326.327L81.1153 329.055L77.4991 322.598L79.4333 318.868Z" fill="#92E3A9"/>
</g>
</g>
<path d="M83.6921 309.758C83.6921 309.758 83.3708 312.593 84.1709 314.414C84.971 316.234 89.4125 322.402 89.4125 322.402L81.1217 329.049C81.1217 329.049 77.6819 322.119 77.0267 320.997C76.3715 319.876 75.584 315.05 77.7197 311.591C79.8554 308.133 82.9298 307.2 83.6921 309.758Z" stroke="#263238" stroke-width="1.00396" stroke-miterlimit="10"/>
<path d="M86.2625 304.566C85.7522 301.416 82.1423 295.009 76.4156 295.255C72.6986 295.419 70.9598 296.168 69.347 297.082C68.0324 297.856 66.807 298.773 65.693 299.816C62.8958 303.174 61.913 304.094 62.4548 306.664C62.4104 307.689 62.571 308.713 62.9273 309.676C63.7841 311.963 64.37 313.456 65.1134 314.546C64.8866 315.61 64.2944 318.42 64.2629 319.063C64.2314 319.705 66.1529 319.258 67.1231 319.012C68.9249 323.044 72.2261 325.841 73.253 326.163C75.0422 326.723 77.8709 323.781 79.3703 321.501C80.8697 319.22 79.7357 316.656 79.742 315.635C79.7483 314.615 83.1125 312.372 84.3599 311.66C85.6073 310.948 86.7665 307.71 86.2625 304.566Z" fill="white"/>
<mask id="mask3_374_5423" style="mask-type:luminance" maskUnits="userSpaceOnUse" x="62" y="295" width="25" height="32">
<path d="M86.2625 304.566C85.7522 301.416 82.1423 295.009 76.4156 295.255C72.6986 295.419 70.9598 296.168 69.347 297.082C68.0324 297.856 66.807 298.773 65.693 299.816C62.8958 303.174 61.913 304.094 62.4548 306.664C62.4104 307.689 62.571 308.713 62.9273 309.676C63.7841 311.963 64.37 313.456 65.1134 314.546C64.8866 315.61 64.2944 318.42 64.2629 319.063C64.2314 319.705 66.1529 319.258 67.1231 319.012C68.9249 323.044 72.2261 325.841 73.253 326.163C75.0422 326.723 77.8709 323.781 79.3703 321.501C80.8697 319.22 79.7357 316.656 79.742 315.635C79.7483 314.615 83.1125 312.372 84.3599 311.66C85.6073 310.948 86.7665 307.71 86.2625 304.566Z" fill="white"/>
</mask>
<g mask="url(#mask3_374_5423)">
<g style="mix-blend-mode:multiply" opacity="0.5">
<path d="M62.48 306.664C62.4356 307.689 62.5962 308.713 62.9525 309.676C63.8093 311.962 64.3952 313.456 65.1386 314.545C64.9118 315.61 64.3196 318.42 64.2881 319.063C64.2566 319.705 66.1781 319.258 67.1483 319.012C68.9501 323.044 72.2513 325.841 73.2782 326.163C75.0674 326.723 77.8961 323.781 79.3955 321.501C79.7701 320.931 80.0133 320.286 80.1074 319.611C80.0255 319.315 79.9688 319.132 79.9688 319.132C79.9688 319.132 79.1246 322.376 77.4488 321.954C75.773 321.532 73.2089 318.174 71.7788 317.015C70.3487 315.856 70.9346 314.331 70.6511 312.605C70.3676 310.879 66.134 309.361 65.8505 308.371C65.567 307.382 66.5561 303.287 66.5561 303.287C66.5561 303.287 68.1626 301.145 67.8161 302.027C67.5712 302.792 67.4824 303.598 67.5549 304.398C67.6274 305.198 67.8598 305.975 68.2382 306.683C68.5038 307.242 68.9251 307.712 69.4514 308.037C69.9778 308.363 70.5869 308.529 71.2055 308.516L72.7427 300.9L69.4982 298.216L65.7182 299.791C62.8958 303.174 61.9319 304.094 62.48 306.664Z" fill="#92E3A9"/>
</g>
</g>
<path d="M86.2625 304.566C85.7522 301.416 82.1423 295.009 76.4156 295.255C72.6986 295.419 70.9598 296.168 69.347 297.082C68.0324 297.856 66.807 298.773 65.693 299.816C62.8958 303.174 61.913 304.094 62.4548 306.664C62.4104 307.689 62.571 308.713 62.9273 309.676C63.7841 311.963 64.37 313.456 65.1134 314.546C64.8866 315.61 64.2944 318.42 64.2629 319.063C64.2314 319.705 66.1529 319.258 67.1231 319.012C68.9249 323.044 72.2261 325.841 73.253 326.163C75.0422 326.723 77.8709 323.781 79.3703 321.501C80.8697 319.22 79.7357 316.656 79.742 315.635C79.7483 314.615 83.1125 312.372 84.3599 311.66C85.6073 310.948 86.7665 307.71 86.2625 304.566Z" stroke="#263238" stroke-miterlimit="10"/>
<path d="M65.8947 312.644L66.5247 314.445C66.5247 314.445 67.8792 314.893 69.5298 313.091" stroke="#263238" stroke-miterlimit="10" stroke-linecap="round"/>
<path d="M70.5503 321.06C70.5503 321.06 72.0497 320.909 72.6545 318.805" stroke="#263238" stroke-miterlimit="10" stroke-linecap="round"/>
<path d="M64.8425 311.138C64.8425 311.138 65.2898 309.783 67.9925 309.783" stroke="#263238" stroke-miterlimit="10" stroke-linecap="round"/>
<path d="M78.6962 292.748C76.7323 292.465 74.7518 292.314 72.7679 292.294C72.7679 292.294 66.8333 288.873 61.1318 292.521C55.4303 296.169 58.1708 302.557 58.1708 304.151C58.1708 305.745 56.3438 305.751 57.4841 307.805C58.6244 309.859 62.48 308.725 62.48 308.725C62.5207 307.95 62.7254 307.193 63.0805 306.503C63.4357 305.814 63.9331 305.207 64.5401 304.724C66.5939 303.13 68.2319 302.784 68.9123 303.244C68.9123 303.244 68.4587 306.665 69.1391 308.032C69.1391 308.032 71.4197 309.172 72.1064 309.172C72.7931 309.172 71.6591 310.136 73.9334 310.993C74.3477 311.141 74.7909 311.192 75.2282 311.141C75.6654 311.089 76.0848 310.937 76.4534 310.697C76.7873 309.311 77.5181 307.225 78.8789 307.71C80.876 308.422 82.6967 313.336 79.994 315.012C83.2448 315.604 87.1823 309.852 87.4154 304.611C87.6485 299.369 82.073 293.34 78.6962 292.748Z" fill="#263238"/>
<path d="M69.0131 300.994C69.0131 300.994 70.6889 300.094 72.7427 302.021C74.7965 303.949 78.7907 306.526 84.0827 305.108" stroke="white" stroke-width="0.5" stroke-linecap="round" stroke-linejoin="round"/>
<path d="M68.78 299.451C68.78 299.451 69.9329 297.649 71.8607 297.649C73.7885 297.649 78.293 300.352 81.8903 300.352" stroke="white" stroke-width="0.5" stroke-linecap="round" stroke-linejoin="round"/>
<path d="M67.4696 302.922C67.4696 302.922 65.2835 300.225 63.2297 302.412C61.1759 304.598 62.48 306.664 62.48 306.664" stroke="white" stroke-width="0.5" stroke-linecap="round" stroke-linejoin="round"/>
<path d="M58.7314 304.724C59.9842 303.594 60.763 302.032 60.9112 300.352C61.1695 297.523 65.0314 295.079 67.4695 297.397" stroke="white" stroke-width="0.5" stroke-linecap="round" stroke-linejoin="round"/>
<path d="M62.7131 294.437C62.7131 294.437 66.575 290.707 69.788 295.463" stroke="white" stroke-width="0.5" stroke-linecap="round" stroke-linejoin="round"/>
<path d="M94.1439 477.811C94.1439 477.811 96.519 481.502 96.2544 483.877L95.9961 486.253C95.9961 486.253 87.2832 488.64 85.4373 488.64C83.5914 488.64 73.8201 487.714 73.8201 487.714L73.398 486.038C73.3684 485.915 73.3823 485.784 73.4374 485.67C73.4925 485.555 73.5853 485.463 73.7004 485.408L82.4133 481.345L85.1601 478.34L94.1439 477.811Z" fill="white" stroke="#263238" stroke-width="1.00396" stroke-miterlimit="10"/>
<path d="M86.7602 486.781C89.1227 486.964 93.6083 485.521 96.2102 484.602L96.0275 486.252C96.0275 486.252 87.2831 488.64 85.4372 488.64C83.5913 488.64 73.82 487.714 73.82 487.714L73.5176 486.517C75.08 486.523 83.6354 486.542 86.7602 486.781Z" fill="#92E3A9" stroke="#263238" stroke-width="1.00396" stroke-miterlimit="10"/>
<path d="M82.4258 481.345L69.7439 486.863C69.7439 486.863 68.6603 489.579 69.7439 490.121C70.8275 490.662 94.4525 490.121 94.4525 490.121C94.4525 490.121 96.0842 485.83 93.5075 482.951C90.9308 480.072 82.4258 481.345 82.4258 481.345Z" fill="white" stroke="#263238" stroke-width="1.00396" stroke-miterlimit="10"/>
<path d="M94.4525 490.121C94.4525 490.121 70.8275 490.662 69.7439 490.121C69.221 489.856 69.2021 489.094 69.3218 488.369H94.8683C94.7849 488.965 94.6456 489.551 94.4525 490.121Z" fill="#92E3A9" stroke="#263238" stroke-width="1.00396" stroke-miterlimit="10"/>
<path d="M76.4282 385.452C76.4282 385.452 73.1144 400.137 71.8607 409.323C70.607 418.508 69.8699 436.91 70.1345 439.021C70.3991 441.131 83.5913 476.493 83.5913 476.493L84.908 479.643L94.1438 477.797C94.1438 477.797 89.9228 464.341 88.3415 456.951C86.7602 449.561 83.3015 437.421 83.3015 435.31C83.3015 433.2 91.4915 392.892 92.0774 390.246C92.6633 387.6 95.3219 383.537 95.3219 383.537L77.6378 383.178L76.4282 385.452Z" fill="#92E3A9" stroke="#263238" stroke-width="1.00396" stroke-miterlimit="10"/>
<path d="M76.4282 385.452C76.4282 385.452 74.4878 398.865 75.2879 408.189C76.088 417.513 77.8079 437.364 77.8079 440.319C77.8079 443.273 82.577 460.92 82.8479 466.464C83.27 474.471 82.6778 478.434 82.6778 478.434L82.3943 481.338C82.3943 481.338 87.9572 482.132 89.1731 482.478C90.5775 482.84 92.0268 482.997 93.476 482.945C93.476 482.945 95.4983 474.043 95.4983 466.457C95.4983 458.872 93.8162 443.261 92.9783 436.936C92.1404 430.61 94.7801 406.211 96.2795 401.656C97.7789 397.101 101.055 387.455 98.8499 382.529C96.6449 377.602 76.4282 385.452 76.4282 385.452Z" fill="#92E3A9" stroke="#263238" stroke-width="1.00396" stroke-miterlimit="10"/>
<path d="M101.301 380.06L101.099 386.057C101.099 386.057 97.5081 386.769 92.6697 387.607C88.6755 388.3 78.6459 387.424 75.2691 387.097C74.9613 387.069 74.6768 386.922 74.4774 386.686C74.2781 386.45 74.1799 386.145 74.2044 385.837L74.532 380.419L101.301 380.06Z" fill="#263238"/>
<path d="M87.2642 320.272C87.2642 320.272 81.5942 326.402 79.4585 330.214C77.3228 334.025 76.4786 339.865 75.6785 344.464C74.8784 349.063 77.0456 359.862 76.4345 364.82L74.5004 380.437C74.5004 380.437 74.0846 381.496 75.4769 382.655C76.8692 383.814 83.6669 384.236 89.8094 384.545C92.0522 384.658 98.7491 383.216 99.8453 383.146C101.168 383.065 101.212 381.382 101.269 380.059C101.534 373.841 102.655 357.266 103.392 350.046C104.911 335.323 96.6008 321.11 87.2642 320.272Z" fill="white" stroke="#263238" stroke-width="1.00396" stroke-miterlimit="10"/>
<g style="mix-blend-mode:multiply">
<path d="M102.699 358.419C102.951 355.15 103.203 352.182 103.424 350.047C103.487 349.417 103.524 348.787 103.556 348.157L88.4927 350.677L75.5525 346.267C75.5539 348.944 75.7053 351.62 76.0061 354.28L88.7006 357.833L102.699 358.419Z" fill="#92E3A9"/>
</g>
<g style="mix-blend-mode:multiply">
<path d="M86.7035 320.89C85.8467 321.841 84.1457 323.775 82.5266 325.829L92.09 335.55L95.24 334.29L86.7035 320.89Z" fill="#92E3A9"/>
</g>
<path d="M87.2642 320.272C87.2642 320.272 81.5942 326.402 79.4585 330.214C78.8252 331.372 78.3123 332.592 77.9276 333.855L89.3306 320.682C88.6569 320.478 87.9648 320.341 87.2642 320.272Z" fill="#263238"/>
<g style="mix-blend-mode:multiply">
<path d="M76.1195 341.982L88.4927 346.052L103.518 344.326C103.283 340.583 102.451 336.901 101.055 333.421L88.94 338.278L78.1103 333.37C77.2248 336.185 76.5592 339.064 76.1195 341.982Z" fill="#92E3A9"/>
</g>
<g style="mix-blend-mode:multiply">
<path d="M97.4198 373.841C91.1442 374.895 84.7049 374.369 78.6836 372.311L75.6659 371.277L74.7272 378.837L78.167 379.801C84.7062 381.63 91.5408 382.156 98.2829 381.351L101.061 381.017C101.206 380.711 101.287 380.379 101.301 380.041C101.376 378.359 101.508 375.914 101.679 373.111L97.4198 373.841Z" fill="#92E3A9"/>
</g>
<g style="mix-blend-mode:multiply">
<path d="M99.1019 363.547C92.826 364.605 86.3852 364.077 80.3657 362.01L76.5227 360.693C76.618 362.066 76.599 363.444 76.466 364.814L76.0187 368.449L79.8491 369.52C86.3858 371.35 93.2183 371.879 99.9587 371.076L101.849 370.849C102.006 368.329 102.189 365.645 102.384 362.993L99.1019 363.547Z" fill="#92E3A9"/>
</g>
<path d="M39.9961 336.906L52.1774 346.7L52.7024 346.047L40.5211 336.253L39.9961 336.906Z" fill="#263238"/>
<path d="M93.1295 327.07C93.1295 327.07 97.5962 330.113 97.697 337.302C97.7411 340.452 97.4135 343.394 96.689 348.553C95.9646 353.713 91.4663 370.515 87.9635 372.556C84.4607 374.598 79.0238 370.742 79.0238 370.742L52.7276 353.285L46.3709 348.15L43.2209 342.203L44.21 340.313L51.9653 346.26L47.7884 342.398L48.6074 341.359L50.1194 342.411L54.5294 344.061L55.4933 350.361L56.8541 351.294L82.01 360.486C82.01 360.486 81.695 346.947 81.9282 344.358C82.1612 341.768 82.4825 335.26 85.2545 330.542" fill="white"/>
<mask id="mask4_374_5423" style="mask-type:luminance" maskUnits="userSpaceOnUse" x="43" y="327" width="55" height="47">
<path d="M93.1295 327.07C93.1295 327.07 97.5962 330.113 97.697 337.302C97.7411 340.452 97.4135 343.394 96.689 348.553C95.9646 353.713 91.4663 370.515 87.9635 372.556C84.4607 374.598 79.0238 370.742 79.0238 370.742L52.7276 353.285L46.3709 348.15L43.2209 342.203L44.21 340.313L51.9653 346.26L47.7884 342.398L48.6074 341.359L50.1194 342.411L54.5294 344.061L55.4933 350.361L56.8541 351.294L82.01 360.486C82.01 360.486 81.695 346.947 81.9282 344.358C82.1612 341.768 82.4825 335.26 85.2545 330.542" fill="white"/>
</mask>
<g mask="url(#mask4_374_5423)">
<g style="mix-blend-mode:multiply" opacity="0.5">
<path d="M81.8337 350.254C81.8337 354.928 81.9912 360.485 81.9912 360.485L56.8605 351.331L55.4997 350.399L54.5358 344.099L50.1258 342.448L48.6201 341.377L47.8011 342.417L51.9654 346.26L44.2101 340.312L43.2714 342.171L46.4214 348.118L52.7781 353.284L54.3783 354.349L89.1228 365.544L81.8337 350.254Z" fill="#92E3A9"/>
</g>
</g>
<path d="M93.1295 327.07C93.1295 327.07 97.5962 330.113 97.697 337.302C97.7411 340.452 97.4135 343.394 96.689 348.553C95.9645 353.713 91.4663 370.515 87.9635 372.556C84.4607 374.598 79.0238 370.742 79.0238 370.742L52.7276 353.285L46.3709 348.15L43.2209 342.203L44.21 340.313L51.9653 346.26L47.7884 342.398L48.6074 341.359L50.1194 342.411L54.5294 344.061L55.4933 350.361L56.8541 351.294L82.01 360.486C82.01 360.486 81.695 346.947 81.9281 344.358C82.1612 341.768 82.4825 335.26 85.2545 330.542" stroke="#263238" stroke-width="1.00396" stroke-miterlimit="10"/>
<path d="M82.01 360.486L91.6112 367.416L94.0997 363.006C94.0997 363.006 95.8196 361.651 96.0716 360.631C96.3236 359.61 96.0023 357.953 96.2606 356.933C96.5189 355.912 97.8041 354.954 97.9237 352.485C98.0435 350.015 97.9237 347.955 97.9237 347.955C97.9237 347.955 100.003 339.406 99.776 335.689C99.5492 331.972 95.9645 325.401 93.0917 325.256C90.2189 325.111 86.483 325.546 83.585 329.931C80.687 334.316 81.2792 347.117 80.8256 347.917C80.372 348.717 81.002 352.667 81.002 352.667C80.7502 352.855 80.5413 353.094 80.3892 353.369C80.2371 353.644 80.1453 353.948 80.12 354.261C80.0696 355.288 81.1784 357.815 81.1784 357.815L82.01 360.486Z" fill="white" stroke="#263238" stroke-width="1.00396" stroke-miterlimit="10"/>
<g style="mix-blend-mode:multiply">
<path d="M81.0776 344.628C81.0974 345.727 81.0152 346.826 80.8319 347.91C80.4287 348.628 80.8886 351.873 80.9894 352.534C86.3897 354.212 92.1 354.643 97.6907 353.794C97.8109 353.356 97.8827 352.906 97.9049 352.453C98.0309 349.989 97.9049 347.923 97.9049 347.923C97.9049 347.923 98.0876 347.161 98.3396 346.001C92.5496 346.369 86.7367 345.907 81.0776 344.628Z" fill="#92E3A9"/>
</g>
<g style="mix-blend-mode:multiply">
<path d="M83.1945 330.63C82.2936 332.438 81.7896 335.153 81.4998 337.906C87.219 340.089 93.3853 340.84 99.4611 340.092C99.7035 338.635 99.811 337.159 99.7824 335.682C99.6733 334.515 99.3975 333.37 98.9634 332.28C93.6582 332.404 88.359 331.85 83.1945 330.63Z" fill="#92E3A9"/>
</g>
<path d="M81.1785 357.884L81.9912 360.486L91.5924 367.416L94.0809 363.006C94.0809 363.006 95.8008 361.651 96.0528 360.631C96.0977 360.453 96.1252 360.272 96.1347 360.089C91.0751 360.001 86.048 359.26 81.1785 357.884Z" fill="#263238"/>
<path d="M88.1273 482.397C88.1273 482.397 88.3415 476.941 89.3873 468.965C90.4331 460.989 87.9194 449.662 87.4973 447.772C87.0752 445.882 87.7115 441.686 87.2894 440.212C86.8673 438.738 84.8261 432.45 86.0294 425.155C87.2327 417.859 88.2092 398.575 88.2092 398.575C88.2092 398.575 85.1789 396.112 84.2906 392.905C83.4023 389.698 84.0827 388.69 84.0827 388.69" stroke="#263238" stroke-width="1.00396" stroke-miterlimit="10"/>
<path d="M89.5322 388.986L88.3667 395.438" stroke="#263238" stroke-width="1.00396" stroke-miterlimit="10"/>
</g>
<defs>
<filter id="filter0_d_374_5423" x="-2" y="219" width="323" height="323" filterUnits="userSpaceOnUse" color-interpolation-filters="sRGB">
<feFlood flood-opacity="0" result="BackgroundImageFix"/>
<feColorMatrix in="SourceAlpha" type="matrix" values="0 0 0 0 0 0 0 0 0 0 0 0 0 0 0 0 0 0 127 0" result="hardAlpha"/>
<feOffset dy="4"/>
<feGaussianBlur stdDeviation="2"/>
<feComposite in2="hardAlpha" operator="out"/>
<feColorMatrix type="matrix" values="0 0 0 0 0 0 0 0 0 0 0 0 0 0 0 0 0 0 0.25 0"/>
<feBlend mode="normal" in2="BackgroundImageFix" result="effect1_dropShadow_374_5423"/>
<feBlend mode="normal" in="SourceGraphic" in2="effect1_dropShadow_374_5423" result="shape"/>
</filter>
</defs>
</svg>
