<svg width="492" height="541" viewBox="0 0 492 541" fill="none" xmlns="http://www.w3.org/2000/svg">
<rect width="492" height="541" rx="7" fill="white"/>
<path d="M362.036 532.889C361.786 532.889 361.44 488.797 361.286 434.425C361.133 380.054 361.286 335.942 361.498 335.942C361.709 335.942 362.093 380.016 362.247 434.425C362.401 488.835 362.305 532.889 362.036 532.889Z" fill="#263238"/>
<path d="M391.892 422.553C391.819 422.905 391.703 423.247 391.546 423.571C391.219 424.32 390.835 425.281 390.336 426.434L389.471 428.489C389.183 429.258 388.895 430.103 388.568 430.987C388.241 431.871 387.915 432.908 387.55 433.869C387.185 434.83 386.896 435.982 386.551 437.135C384.958 442.52 383.707 448 382.804 453.542C381.756 460.348 381.063 467.203 380.729 474.081C380.233 486.585 380.586 499.108 381.786 511.564C382.209 516.348 382.651 520.229 382.977 522.899C383.112 524.148 383.227 525.167 383.304 525.973C383.354 526.33 383.354 526.693 383.304 527.049C383.172 526.71 383.088 526.355 383.054 525.993L382.535 522.938C382.113 520.287 381.575 516.425 381.056 511.641C379.653 499.16 379.203 486.591 379.711 474.042C380.045 467.135 380.77 460.252 381.882 453.427C382.822 447.855 384.144 442.353 385.84 436.962C386.224 435.809 386.531 434.695 386.916 433.677L388.011 430.814L388.991 428.336C389.317 427.586 389.663 426.914 389.951 426.299L391.315 423.513C391.468 423.171 391.661 422.848 391.892 422.553Z" fill="#263238"/>
<path d="M388.568 386.895C388.475 387.394 388.333 387.883 388.145 388.355C387.799 389.373 387.338 390.737 386.743 392.447L385.724 395.406C385.379 396.501 385.033 397.692 384.649 398.96C383.861 401.515 382.958 404.416 382.151 407.682C381.709 409.296 381.267 411.006 380.806 412.774C380.345 414.541 379.98 416.424 379.538 418.345C378.597 422.188 377.924 426.357 377.06 430.718C375.58 439.46 374.293 449.143 373.39 459.364C372.487 469.585 372.18 479.345 372.045 488.183C371.911 497.02 372.045 505.07 372.506 511.795C372.622 515.157 372.833 518.193 373.006 520.844C373.179 523.495 373.332 525.801 373.486 527.683C373.64 529.566 373.736 530.93 373.832 532.006C373.879 532.505 373.879 533.006 373.832 533.505C373.704 533.021 373.627 532.525 373.601 532.026C373.467 530.95 373.294 529.509 373.083 527.722C372.871 525.935 372.641 523.553 372.429 520.882C372.218 518.212 371.949 515.119 371.776 511.833C371.334 505.109 371.142 497.097 371.123 488.183C371.104 479.268 371.546 469.489 372.41 459.249C373.275 449.008 374.639 439.287 376.157 430.526C377.06 426.146 377.751 421.977 378.731 418.134C379.192 416.213 379.615 414.292 380.038 412.562C380.46 410.833 380.998 409.085 381.459 407.452C382.305 404.205 383.265 401.304 384.091 398.768C384.514 397.5 384.898 396.309 385.244 395.214C385.59 394.118 386.013 393.177 386.358 392.293L387.915 388.239C388.093 387.773 388.312 387.323 388.568 386.895Z" fill="#263238"/>
<path d="M353.563 540.689C353.542 540.516 353.542 540.342 353.563 540.17C353.563 539.786 353.563 539.286 353.448 538.652L353.044 532.888C352.717 527.739 352.276 520.419 351.699 511.409C350.546 493.272 348.856 468.219 345.801 440.668C344.245 426.912 342.439 413.771 340.556 401.975C339.557 396.038 338.635 390.447 337.616 385.164C336.598 379.88 335.695 375.058 334.735 370.601C333.774 366.143 332.813 362.166 332.083 358.65C331.353 355.135 330.546 352.099 329.932 349.64L328.529 343.876C328.394 343.28 328.279 342.781 328.202 342.397C328.147 342.229 328.114 342.054 328.106 341.878C328.185 342.037 328.243 342.204 328.279 342.377C328.394 342.762 328.548 343.242 328.721 343.838C329.086 345.182 329.624 347.085 330.277 349.467C330.931 351.849 331.776 354.923 332.602 358.439C333.428 361.955 334.523 365.932 335.388 370.389C336.252 374.847 337.424 379.688 338.404 384.952C339.384 390.216 340.325 395.827 341.421 401.744C343.342 413.617 345.263 426.72 346.762 440.496C349.816 468.065 351.392 493.138 352.372 511.293C352.871 520.362 353.217 527.701 353.409 532.792C353.409 535.271 353.582 537.23 353.64 538.556C353.64 539.171 353.64 539.67 353.64 540.074C353.644 540.281 353.618 540.489 353.563 540.689Z" fill="#263238"/>
<path d="M360.94 357.133C360.364 350.889 354.062 346.182 347.78 346.125C341.497 346.067 335.657 349.813 331.833 354.77C328.22 359.922 325.613 365.711 324.148 371.831C319.922 386.548 317.616 402.014 319.422 417.211C321.228 432.408 327.395 447.374 338.289 458.133C340.076 459.882 342.362 461.611 344.802 461.092C346.116 460.707 347.303 459.977 348.241 458.979C358.919 449.196 367.384 437.245 373.066 423.924C378.749 410.604 381.519 396.223 381.19 381.745C381.017 375.981 380.268 369.948 377.06 365.145C373.851 360.342 366.397 355.212 360.94 357.133Z" fill="#92E3A9"/>
<path d="M314.1 307.103L305.263 323.107C305.071 323.472 304.782 323.895 304.36 323.933C303.937 323.972 303.553 323.53 303.303 323.145L279.941 287.295L285.32 284.24L314.1 307.103Z" fill="#92E3A9"/>
<g opacity="0.2">
<path d="M314.1 307.103L305.263 323.107C305.071 323.472 304.782 323.895 304.36 323.933C303.937 323.972 303.553 323.53 303.303 323.145L279.941 287.295L285.32 284.24L314.1 307.103Z" fill="black"/>
</g>
<path d="M361.498 335.942L281.804 288.929C280.951 288.544 280.268 287.861 279.883 287.008C279.837 286.397 279.942 285.785 280.19 285.225C280.438 284.665 280.821 284.175 281.305 283.799C286.783 278.117 293.422 273.682 300.769 270.798C308.116 267.913 315.999 266.647 323.88 267.084C331.745 267.661 339.353 270.141 346.047 274.311C352.74 278.482 358.32 284.217 362.304 291.023C369.989 304.76 370.258 322.935 361.44 335.98" fill="#92E3A9"/>
<path d="M293.293 273.906C293.634 273.83 293.982 273.791 294.331 273.791C295.022 273.791 296.041 273.618 297.347 273.637C301.049 273.594 304.747 273.89 308.394 274.521C313.829 275.434 319.124 277.042 324.149 279.305C332.837 283.216 340.554 288.999 346.748 296.239C352.942 303.479 357.461 311.998 359.98 321.188C360.949 324.76 361.592 328.412 361.901 332.1C362.035 333.407 362.016 334.425 362.055 335.117C362.108 335.461 362.108 335.81 362.055 336.154C362.055 336.154 361.882 334.713 361.555 332.139C359.981 318.174 353.946 305.089 344.345 294.827C334.743 284.565 322.089 277.673 308.26 275.174C304.653 274.494 300.997 274.102 297.328 274.002C294.734 273.944 293.293 274.002 293.293 273.906Z" fill="#263238"/>
<path d="M350.7 303.493C349.436 304.291 348.082 304.935 346.666 305.414C344.13 306.413 340.594 307.701 336.617 308.949C332.64 310.198 328.932 311.217 326.358 311.87C324.947 312.31 323.49 312.588 322.016 312.696C323.35 312.057 324.747 311.561 326.185 311.217L336.329 308.047L346.454 304.78C347.818 304.197 349.242 303.765 350.7 303.493Z" fill="#263238"/>
<path d="M338.154 269.775C338.859 272.686 339.176 275.677 339.096 278.671C339.326 281.657 339.165 284.66 338.615 287.605C338.205 284.652 338.045 281.67 338.135 278.69C337.905 275.723 337.911 272.742 338.154 269.775Z" fill="#263238"/>
<path d="M281.112 288.027C282.973 287.188 284.901 286.507 286.876 285.99C290.507 284.876 295.541 283.454 301.151 282.148C306.761 280.841 311.91 279.746 315.637 279.093C317.639 278.641 319.677 278.371 321.728 278.286C319.779 278.916 317.789 279.41 315.772 279.765C312.083 280.592 306.992 281.687 301.382 283.07C295.772 284.453 290.719 285.741 287.068 286.682C285.117 287.271 283.127 287.72 281.112 288.027Z" fill="#263238"/>
<path d="M324.744 342.359C317.885 337.152 310.642 336.134 302.054 336.48C293.422 337.039 284.97 339.209 277.136 342.878C263.687 348.776 251.064 357.441 243.053 369.775C235.041 382.109 232.217 398.306 238.23 411.677C238.697 413.08 239.669 414.259 240.958 414.982C242.45 415.413 244.046 415.29 245.454 414.636C260.728 409.66 276.194 404.626 290.181 396.826C304.168 389.026 317.078 378.152 324.552 363.954C326.491 360.607 327.726 356.901 328.183 353.06C328.397 351.138 328.194 349.191 327.587 347.355C326.98 345.518 325.984 343.833 324.667 342.416" fill="#92E3A9"/>
<path d="M324.879 340.745C324.526 340.922 324.16 341.07 323.784 341.187L320.575 342.282L318.27 343.07C317.424 343.358 316.521 343.742 315.561 344.126C313.639 344.895 311.372 345.683 309.009 346.835L305.263 348.526C303.956 349.141 302.669 349.871 301.286 350.582C298.519 351.927 295.714 353.675 292.736 355.443C286.365 359.451 280.314 363.947 274.638 368.891C269.03 373.901 263.808 379.328 259.018 385.126C256.905 387.873 254.811 390.429 253.12 393.003C252.236 394.271 251.353 395.462 250.584 396.673L248.413 400.189C246.972 402.379 245.915 404.511 244.897 406.317L243.495 408.873L242.438 411.082L240.939 414.118C240.786 414.478 240.593 414.819 240.363 415.136C240.447 414.754 240.583 414.386 240.766 414.041L242.111 410.909C242.399 410.237 242.745 409.487 243.091 408.68C243.437 407.873 243.937 407.009 244.417 406.068C245.397 404.146 246.338 402.071 247.837 399.843L249.969 396.288C250.718 395.059 251.602 393.848 252.467 392.542C254.138 389.948 256.213 387.355 258.346 384.588C267.831 372.736 279.313 362.632 292.275 354.732C295.291 352.964 298.135 351.254 300.921 349.909C302.323 349.218 303.63 348.488 304.955 347.988L308.798 346.317C311.199 345.202 313.466 344.395 315.426 343.723L318.173 342.743L320.517 342.052L323.784 341.11C324.134 340.949 324.501 340.826 324.879 340.745Z" fill="#263238"/>
<path d="M271.372 369.736C265.921 371.823 260.36 373.613 254.715 375.097C249.153 376.896 243.496 378.384 237.769 379.554C243.228 377.469 248.795 375.679 254.446 374.194C260.002 372.399 265.652 370.911 271.372 369.736Z" fill="#263238"/>
<path d="M270.661 406.528C270.362 404.81 270.239 403.065 270.296 401.321C270.2 398.113 270.181 393.636 270.296 388.776C270.411 383.915 270.7 379.438 270.968 376.23C271.027 374.497 271.246 372.774 271.622 371.081C271.775 372.807 271.775 374.543 271.622 376.268C271.622 379.803 271.391 384.069 271.237 388.795C271.084 393.521 271.007 397.806 270.93 401.321C270.983 403.061 270.893 404.803 270.661 406.528Z" fill="#263238"/>
<path d="M302.112 390.467C301.843 390.467 301.017 381.456 300.19 370.313C299.364 359.17 298.999 350.121 299.268 350.102C299.537 350.082 300.363 359.112 301.189 370.255C302.016 381.399 302.438 390.448 302.112 390.467Z" fill="#263238"/>
<path d="M262.938 349.198C264.709 348.977 266.497 348.919 268.279 349.025C271.583 349.025 276.137 349.16 281.151 349.313C286.166 349.467 290.757 349.678 294.004 349.89C295.789 349.898 297.57 350.066 299.326 350.389C297.555 350.612 295.767 350.67 293.985 350.562C290.7 350.562 286.146 350.447 281.113 350.274C276.079 350.101 271.506 349.909 268.26 349.698C266.474 349.689 264.693 349.522 262.938 349.198Z" fill="#263238"/>
<path d="M341.709 462.417C341.645 462.055 341.607 461.689 341.593 461.322C341.593 460.515 341.593 459.401 341.459 458.19C341.344 455.481 341.305 451.543 341.459 446.663C341.613 441.783 341.862 436.019 342.439 429.602C343.015 423.185 343.957 416.153 345.244 408.853C346.531 401.552 348.145 394.616 349.778 388.391C351.411 382.167 353.159 376.633 354.754 372.042C356.349 367.45 357.713 363.742 358.769 361.225L359.98 358.343C360.107 358.001 360.268 357.673 360.46 357.363C360.405 357.725 360.308 358.08 360.172 358.42C359.884 359.188 359.538 360.168 359.115 361.359C358.174 363.915 356.887 367.623 355.388 372.253C353.889 376.883 352.256 382.416 350.623 388.622C348.99 394.828 347.492 401.725 346.185 409.006C344.879 416.288 343.976 423.3 343.323 429.679C342.669 436.058 342.304 441.841 342.131 446.701C341.958 451.562 341.862 455.481 341.862 458.229C341.862 459.497 341.862 460.534 341.862 461.36C341.853 461.717 341.802 462.072 341.709 462.417Z" fill="#263238"/>
<path d="M345.916 408.046C344.993 409.326 343.93 410.499 342.746 411.543C340.671 413.598 337.751 416.346 334.408 419.228C331.065 422.109 327.953 424.703 325.647 426.471C324.464 427.499 323.176 428.4 321.805 429.16C322.829 428.023 323.954 426.982 325.167 426.048L333.716 418.594L342.227 411.081C343.357 409.954 344.592 408.938 345.916 408.046Z" fill="#263238"/>
<path d="M371.142 428.373C369.9 426.896 368.77 425.329 367.761 423.685L359.884 412.157L351.834 400.784C350.641 399.268 349.568 397.662 348.625 395.98C350.034 397.33 351.32 398.802 352.468 400.38C354.677 403.185 357.636 407.143 360.748 411.619C363.861 416.096 366.512 420.246 368.433 423.301C369.491 424.904 370.398 426.602 371.142 428.373Z" fill="#263238"/>
<path d="M357.924 364.568C358.078 364.779 349.701 370.428 339.211 377.171C328.721 383.915 320.133 389.179 319.999 388.948C319.864 388.718 328.241 383.089 338.711 376.364C349.182 369.64 357.828 364.241 357.924 364.568Z" fill="#263238"/>
<path d="M381.555 389.968C377.115 386.307 372.881 382.4 368.875 378.268C364.649 374.353 360.64 370.21 356.867 365.856C361.3 369.535 365.532 373.447 369.548 377.576C373.777 381.481 377.785 385.618 381.555 389.968Z" fill="#263238"/>
<path d="M387.492 389.545L394.677 388.949C399.783 388.536 404.738 387.022 409.202 384.511C411.385 383.229 413.651 382.093 415.984 381.11C424.879 377.537 434.793 378.171 444.361 377.69C460.03 376.905 475.382 372.985 489.51 366.163C490.315 365.773 490.984 365.15 491.431 364.376C492.911 361.687 490.163 359.285 487.8 357.825C475.677 350.351 463.343 342.801 449.606 339.093C435.869 335.385 420.268 336.019 408.549 344.088C394.774 353.56 389.759 372.907 387.415 389.545" fill="#92E3A9"/>
<path d="M491.643 363.395C491.223 363.239 490.818 363.046 490.432 362.819L487.013 361.032C484.054 359.476 479.808 357.19 474.428 354.615C468.166 351.534 461.639 349.02 454.928 347.103C446.734 344.743 438.151 344.044 429.683 345.048C421.188 345.991 413.164 349.434 406.628 354.942C401.528 359.677 397.448 365.404 394.639 371.772C392.678 376.056 390.934 380.435 389.413 384.894C388.895 386.393 388.453 387.603 388.145 388.525C388.014 388.958 387.84 389.376 387.627 389.774C387.709 389.332 387.818 388.896 387.953 388.468L389.067 384.779C390.444 380.255 392.099 375.822 394.024 371.503C396.781 364.962 400.878 359.072 406.051 354.212C412.686 348.555 420.864 345.015 429.529 344.048C438.129 343.037 446.844 343.762 455.158 346.181C461.894 348.136 468.435 350.708 474.697 353.866C480.058 356.537 484.304 358.919 487.186 360.571L490.509 362.492C490.923 362.746 491.304 363.049 491.643 363.395Z" fill="#263238"/>
<path d="M474.371 372.677C474.217 372.888 464.764 366.798 453.371 359.075C441.978 351.351 432.737 344.915 432.891 344.704C433.045 344.492 442.497 350.467 453.89 358.287C465.283 366.106 474.524 372.446 474.371 372.677Z" fill="#263238"/>
<path d="M465.418 343.8C463.07 344.694 460.589 345.187 458.079 345.26C455.594 345.653 453.06 345.621 450.586 345.164C453.023 344.675 455.498 344.393 457.983 344.319C460.442 343.935 462.929 343.762 465.418 343.8Z" fill="#263238"/>
<path d="M423.15 336.23C422.391 338.418 421.351 340.497 420.057 342.417C419.045 344.504 417.752 346.443 416.215 348.181C416.974 345.993 418.014 343.914 419.308 341.994C420.327 339.911 421.619 337.972 423.15 336.23Z" fill="#263238"/>
<path d="M431.585 378.208C429.997 377.549 428.484 376.725 427.07 375.749C424.341 374.097 420.672 371.695 416.753 368.833C412.833 365.97 409.356 363.299 406.877 361.32C405.503 360.318 404.218 359.2 403.035 357.978C404.559 358.768 406 359.707 407.338 360.783L417.367 368.064C421.21 370.908 424.879 373.405 427.492 375.192C428.939 376.08 430.308 377.089 431.585 378.208Z" fill="#263238"/>
<path d="M398.174 420.016C391.315 418.21 383.15 424.877 381.728 431.832C380.307 438.786 382.919 445.895 385.974 452.293C392.471 466.657 402.141 479.361 414.255 489.45C426.532 499.248 441.921 505.511 457.617 505.415C454.716 491.967 458.386 477.884 456.772 464.205C455.357 452.143 449.887 440.921 441.258 432.376C432.629 423.831 421.353 418.47 409.279 417.172C404.898 416.692 399.826 416 398.078 420.054" fill="#92E3A9"/>
<path d="M457.617 505.377C457.278 505.274 456.955 505.126 456.657 504.935C455.749 504.436 454.888 503.857 454.082 503.206C451.203 500.706 448.891 497.621 447.3 494.157C446.205 492.024 444.995 489.718 443.804 487.163C442.613 484.608 441.402 481.88 440.115 478.998C438.778 476.009 437.264 473.103 435.581 470.295C433.72 467.308 431.632 464.469 429.337 461.803C424.63 456.289 419.596 451.505 415.235 446.952C411.28 442.969 407.68 438.649 404.476 434.041C402.327 430.92 400.56 427.553 399.212 424.012C398.859 423.049 398.557 422.067 398.309 421.072C398.206 420.726 398.129 420.373 398.078 420.016C398.174 420.016 398.558 421.418 399.557 423.858C401.027 427.305 402.862 430.583 405.033 433.637C408.289 438.15 411.906 442.391 415.85 446.317C420.249 450.832 425.321 455.597 430.067 461.169C432.387 463.871 434.494 466.748 436.368 469.776C438.068 472.628 439.583 475.586 440.903 478.633L444.515 486.817C445.667 489.353 446.858 491.678 447.915 493.811C449.409 497.243 451.586 500.334 454.313 502.898C456.33 504.647 457.733 505.3 457.617 505.377Z" fill="#263238"/>
<path d="M422.151 494.195C422.182 492.632 422.394 491.078 422.785 489.565C423.323 486.741 424.207 482.86 425.379 478.652C426.551 474.445 427.857 470.64 428.876 467.951C429.349 466.46 429.994 465.028 430.797 463.686C430.532 465.22 430.12 466.726 429.567 468.181C428.722 470.909 427.55 474.694 426.359 478.902C425.168 483.109 424.207 486.933 423.496 489.718C423.184 491.248 422.734 492.746 422.151 494.195Z" fill="#263238"/>
<path d="M456.33 461.131C454.687 460.9 453.067 460.527 451.489 460.017C448.53 459.248 444.457 458.191 439.961 457.154C435.466 456.117 431.277 455.348 428.28 454.772C426.638 454.563 425.018 454.209 423.439 453.715C425.1 453.664 426.762 453.793 428.395 454.099C431.431 454.503 435.619 455.194 440.173 456.232C444.726 457.269 448.818 458.422 451.7 459.363C453.305 459.776 454.858 460.369 456.33 461.131Z" fill="#263238"/>
<path d="M396.695 470.736C396.76 468.935 397.011 467.145 397.444 465.395C398.04 462.11 399 457.614 400.288 452.696C401.575 447.777 402.939 443.378 403.996 440.227C404.464 438.488 405.107 436.802 405.917 435.193C405.606 436.966 405.163 438.713 404.591 440.419C403.688 443.628 402.42 448.104 401.152 452.926C399.884 457.749 398.808 462.302 398.04 465.53C397.734 467.299 397.284 469.04 396.695 470.736Z" fill="#263238"/>
<path d="M440.595 432.311C440.595 432.58 431.988 431.869 421.383 430.755C415.004 430.244 408.656 429.411 402.362 428.257C402.362 428.007 410.95 428.699 421.479 429.813C427.889 430.322 434.269 431.156 440.595 432.311Z" fill="#263238"/>
</svg>
