<svg width="34" height="25" viewBox="0 0 34 25" fill="none" xmlns="http://www.w3.org/2000/svg">
<g clip-path="url(#clip0_1636_10306)">
<g clip-path="url(#clip1_1636_10306)">
<mask id="mask0_1636_10306" style="mask-type:luminance" maskUnits="userSpaceOnUse" x="4" y="0" width="25" height="50">
<path d="M29 0H4V50H29V0Z" fill="white"/>
</mask>
<g mask="url(#mask0_1636_10306)">
<mask id="mask1_1636_10306" style="mask-type:luminance" maskUnits="userSpaceOnUse" x="4" y="0" width="25" height="25">
<path d="M29 0H4V25H29V0Z" fill="white"/>
</mask>
<g mask="url(#mask1_1636_10306)">
<path d="M29 4.74844C28.0703 5.15625 27.0797 5.42656 26.0469 5.55781C27.1094 4.92344 27.9203 3.92656 28.3016 2.725C27.3109 3.31562 26.2172 3.73281 25.0516 3.96563C24.1109 2.96406 22.7703 2.34375 21.3078 2.34375C18.4703 2.34375 16.1859 4.64688 16.1859 7.47031C16.1859 7.87656 16.2203 8.26719 16.3047 8.63906C12.0437 8.43125 8.27344 6.38906 5.74062 3.27813C5.29844 4.04531 5.03906 4.92344 5.03906 5.86875C5.03906 7.64375 5.95312 9.21719 7.31562 10.1281C6.49219 10.1125 5.68437 9.87344 5 9.49688C5 9.5125 5 9.53281 5 9.55312C5 12.0437 6.77656 14.1125 9.10625 14.5891C8.68906 14.7031 8.23437 14.7578 7.7625 14.7578C7.43437 14.7578 7.10312 14.7391 6.79219 14.6703C7.45625 16.7 9.34063 18.1922 11.5813 18.2406C9.8375 19.6047 7.62344 20.4266 5.22656 20.4266C4.80625 20.4266 4.40312 20.4078 4 20.3562C6.27031 21.8203 8.96094 22.6562 11.8625 22.6562C21.2937 22.6562 26.45 14.8438 26.45 8.07187C26.45 7.84531 26.4422 7.62656 26.4312 7.40938C27.4484 6.6875 28.3031 5.78594 29 4.74844Z" fill="white"/>
</g>
</g>
</g>
</g>
<defs>
<clipPath id="clip0_1636_10306">
<rect width="34" height="25" fill="white"/>
</clipPath>
<clipPath id="clip1_1636_10306">
<rect width="25" height="50" fill="white" transform="translate(4)"/>
</clipPath>
</defs>
</svg>
