<svg width="305" height="396" viewBox="0 0 305 396" fill="none" xmlns="http://www.w3.org/2000/svg">
<g clip-path="url(#clip0_2094_51507)">
<rect width="305" height="396" rx="10" fill="white"/>
<rect opacity="0.8" x="-21" y="-3" width="484" height="418" fill="url(#paint0_linear_2094_51507)"/>
<circle opacity="0.23" cx="271" cy="123" r="86" fill="white" fill-opacity="0.49"/>
<circle opacity="0.28" cx="270.918" cy="122.918" r="67.5714" fill="white" fill-opacity="0.3"/>
<circle cx="271.205" cy="123.205" r="46.0714" fill="#FCE588"/>
<g clip-path="url(#clip1_2094_51507)">
<path d="M184.215 159.269L181.269 156.323C180.456 155.51 179.136 155.51 178.323 156.323C177.51 157.137 177.51 158.455 178.323 159.269L181.269 162.215C181.675 162.622 182.208 162.825 182.742 162.825C183.275 162.825 183.808 162.622 184.215 162.215C185.028 161.401 185.028 160.082 184.215 159.269Z" fill="white"/>
<path d="M177.25 171.917H173.083C171.933 171.917 171 172.85 171 174C171 175.15 171.933 176.083 173.083 176.083H177.25C178.4 176.083 179.333 175.15 179.333 174C179.333 172.85 178.4 171.917 177.25 171.917Z" fill="white"/>
<path d="M184.215 185.785C183.402 184.972 182.081 184.972 181.269 185.785L178.323 188.731C177.51 189.545 177.51 190.864 178.323 191.677C178.729 192.084 179.263 192.288 179.796 192.288C180.329 192.288 180.863 192.084 181.269 191.677L184.215 188.731C185.028 187.918 185.028 186.599 184.215 185.785Z" fill="white"/>
<path d="M196 190.667C194.85 190.667 193.917 191.6 193.917 192.75V196.917C193.917 198.067 194.85 199 196 199C197.15 199 198.084 198.067 198.084 196.917V192.75C198.084 191.6 197.15 190.667 196 190.667Z" fill="white"/>
<path d="M213.677 188.731L210.731 185.785C209.918 184.972 208.597 184.972 207.785 185.785C206.971 186.599 206.971 187.918 207.785 188.731L210.731 191.677C211.137 192.084 211.67 192.288 212.204 192.288C212.737 192.288 213.27 192.084 213.677 191.677C214.49 190.864 214.49 189.545 213.677 188.731Z" fill="white"/>
<path d="M218.917 171.917H214.75C213.6 171.917 212.667 172.85 212.667 174C212.667 175.15 213.6 176.083 214.75 176.083H218.917C220.067 176.083 221 175.15 221 174C221 172.85 220.067 171.917 218.917 171.917Z" fill="white"/>
<path d="M213.677 156.323C212.864 155.51 211.543 155.51 210.731 156.323L207.785 159.269C206.971 160.082 206.971 161.401 207.785 162.215C208.191 162.622 208.725 162.825 209.258 162.825C209.791 162.825 210.325 162.622 210.731 162.215L213.677 159.269C214.49 158.455 214.49 157.137 213.677 156.323Z" fill="white"/>
<path d="M196 149C194.85 149 193.917 149.933 193.917 151.083V155.25C193.917 156.4 194.85 157.333 196 157.333C197.15 157.333 198.084 156.4 198.084 155.25V151.083C198.084 149.933 197.15 149 196 149Z" fill="white"/>
<path d="M196 160.458C188.533 160.458 182.458 166.533 182.458 174C182.458 181.467 188.533 187.542 196 187.542C203.466 187.542 209.541 181.467 209.541 174C209.541 166.533 203.466 160.458 196 160.458ZM196 183.375C190.831 183.375 186.625 179.169 186.625 174C186.625 168.831 190.831 164.625 196 164.625C201.168 164.625 205.375 168.831 205.375 174C205.375 179.169 201.168 183.375 196 183.375Z" fill="white"/>
</g>
</g>
<defs>
<linearGradient id="paint0_linear_2094_51507" x1="-21" y1="206" x2="463" y2="206" gradientUnits="userSpaceOnUse">
<stop stop-color="#19884A"/>
<stop offset="1" stop-color="#006837"/>
</linearGradient>
<clipPath id="clip0_2094_51507">
<rect width="305" height="396" rx="10" fill="white"/>
</clipPath>
<clipPath id="clip1_2094_51507">
<rect width="50" height="50" fill="white" transform="translate(171 149)"/>
</clipPath>
</defs>
</svg>
