<svg width="34" height="31" viewBox="0 0 34 31" fill="none" xmlns="http://www.w3.org/2000/svg">
<g id="Group 8732">
<path id="Rectangle 1" d="M2 11.3333C2 10.3904 2 9.91904 2.29289 9.62615C2.58579 9.33325 3.05719 9.33325 4 9.33325H30C30.9428 9.33325 31.4142 9.33325 31.7071 9.62615C32 9.91904 32 10.3904 32 11.3333V15.6666C32 16.6094 32 17.0808 31.7071 17.3737C31.4142 17.6666 30.9428 17.6666 30 17.6666H29C28.0572 17.6666 27.5858 17.6666 27.2929 17.9595C27 18.2524 27 18.7238 27 19.6666V27.3332C27 28.2761 27 28.7475 26.7071 29.0404C26.4142 29.3333 25.9428 29.3333 25 29.3333H9C8.05719 29.3333 7.58579 29.3333 7.29289 29.0404C7 28.7475 7 28.2761 7 27.3333V19.6666C7 18.7238 7 18.2524 6.70711 17.9595C6.41421 17.6666 5.94281 17.6666 5 17.6666H4C3.05719 17.6666 2.58579 17.6666 2.29289 17.3737C2 17.0808 2 16.6094 2 15.6666V11.3333Z" stroke="#006C1E" stroke-width="2.5"/>
<path id="Vector 3" d="M5.33325 17.6667H28.6666" stroke="#006C1E" stroke-width="2.5" stroke-linecap="round"/>
<path id="Vector 4" d="M17 7.66675L17 29.3334" stroke="#006C1E" stroke-width="2.5" stroke-linecap="round"/>
<path id="Vector 208" d="M16.9999 7.66667L14.6694 5.33618C13.4619 4.12865 11.9898 3.21886 10.3698 2.67884L7.96571 1.87748C6.67064 1.4458 5.33325 2.40974 5.33325 3.77485V6.22515C5.33325 7.08601 5.88411 7.85029 6.7008 8.12251L10.3333 9.33333" stroke="#006C1E" stroke-width="2.5" stroke-linecap="round"/>
<path id="Vector 209" d="M17.0001 7.66667L19.3306 5.33618C20.5381 4.12865 22.0102 3.21886 23.6302 2.67884L26.0343 1.87748C27.3294 1.4458 28.6667 2.40974 28.6667 3.77485V6.22515C28.6667 7.08601 28.1159 7.85029 27.2992 8.12251L23.6667 9.33333" stroke="#006C1E" stroke-width="2.5" stroke-linecap="round"/>
</g>
</svg>
