<svg width="27" height="27" viewBox="0 0 27 27" fill="none" xmlns="http://www.w3.org/2000/svg">
<g id="IONIcon/N/notifications/outline">
<path id="Vector" d="M22.218 17.9291C20.9139 16.333 19.9933 15.5205 19.9933 11.1203C19.9933 7.09082 17.9356 5.65523 16.2421 4.95801C16.0171 4.86559 15.8053 4.65332 15.7368 4.42226C15.4397 3.41121 14.6069 2.52051 13.4999 2.52051C12.3928 2.52051 11.5595 3.41172 11.2655 4.42328C11.197 4.65687 10.9852 4.86559 10.7602 4.95801C9.06465 5.65625 7.00902 7.08676 7.00902 11.1203C7.00648 15.5205 6.08582 16.333 4.78176 17.9291C4.24145 18.5902 4.71473 19.583 5.65977 19.583H21.3451C22.285 19.583 22.7553 18.5872 22.218 17.9291Z" stroke="#006C1E" stroke-width="2.3" stroke-linecap="round" stroke-linejoin="round"/>
<path id="Vector_2" d="M16.75 19.5823V20.3948C16.75 21.2567 16.4076 22.0834 15.7981 22.6929C15.1886 23.3024 14.362 23.6448 13.5 23.6448C12.638 23.6448 11.8114 23.3024 11.2019 22.6929C10.5924 22.0834 10.25 21.2567 10.25 20.3948V19.5823" stroke="#006C1E" stroke-width="2.3" stroke-linecap="round" stroke-linejoin="round"/>
</g>
</svg>
