<svg width="20" height="20" viewBox="0 0 20 20" fill="none" xmlns="http://www.w3.org/2000/svg">
<g id="Coupon">
<path id="Intersect" d="M4.00864 3.96799L3.78165 3.52248L3.78165 3.52248L4.00864 3.96799ZM3.13461 4.84202L2.68911 4.61502L2.68911 4.61502L3.13461 4.84202ZM3.13461 15.158L2.68911 15.385H2.68911L3.13461 15.158ZM4.00864 16.032L4.23564 15.5865H4.23564L4.00864 16.032ZM15.9913 16.032L15.7643 15.5865H15.7643L15.9913 16.032ZM16.8653 15.158L17.3108 15.385L16.8653 15.158ZM16.891 12.0156L16.8763 11.5158H16.8763L16.891 12.0156ZM16.6963 12.0213L16.7109 12.5211L16.6963 12.0213ZM16.8653 4.84202L16.4198 5.06901V5.06901L16.8653 4.84202ZM15.9913 3.96799L15.7643 4.41349V4.41349L15.9913 3.96799ZM6.11663 4.25H12.2788V3.25H6.11663V4.25ZM4.23564 4.41349C4.36732 4.3464 4.54116 4.30031 4.84375 4.27559C5.15217 4.25039 5.54832 4.25 6.11663 4.25V3.25C5.56482 3.25 5.1209 3.24961 4.76231 3.27891C4.39789 3.30868 4.0778 3.37159 3.78165 3.52248L4.23564 4.41349ZM3.58012 5.06901C3.72393 4.78677 3.9534 4.5573 4.23564 4.41349L3.78165 3.52248C3.31124 3.76217 2.92879 4.14462 2.68911 4.61502L3.58012 5.06901ZM3.41663 6.95C3.41663 6.3817 3.41701 5.98554 3.44221 5.67712C3.46694 5.37454 3.51302 5.20069 3.58012 5.06901L2.68911 4.61502C2.53822 4.91117 2.47531 5.23126 2.44553 5.59569C2.41624 5.95428 2.41663 6.3982 2.41663 6.95H3.41663ZM3.41663 7.72436V6.95H2.41663V7.72436H3.41663ZM3.10893 7.41667C3.27887 7.41667 3.41663 7.55443 3.41663 7.72436H2.41663C2.41663 8.10671 2.72658 8.41667 3.10893 8.41667V7.41667ZM3.33329 7.41667H3.10893V8.41667H3.33329V7.41667ZM5.91663 10C5.91663 8.57326 4.76003 7.41667 3.33329 7.41667V8.41667C4.20774 8.41667 4.91663 9.12555 4.91663 10H5.91663ZM3.33329 12.5833C4.76003 12.5833 5.91663 11.4267 5.91663 10H4.91663C4.91663 10.8745 4.20774 11.5833 3.33329 11.5833V12.5833ZM3.10893 12.5833H3.33329V11.5833H3.10893V12.5833ZM3.41663 12.2756C3.41663 12.4456 3.27887 12.5833 3.10893 12.5833V11.5833C2.72658 11.5833 2.41663 11.8933 2.41663 12.2756H3.41663ZM3.41663 13.05V12.2756H2.41663V13.05H3.41663ZM3.58012 14.931C3.51302 14.7993 3.46694 14.6255 3.44221 14.3229C3.41701 14.0145 3.41663 13.6183 3.41663 13.05H2.41663C2.41663 13.6018 2.41624 14.0457 2.44553 14.4043C2.47531 14.7687 2.53822 15.0888 2.68911 15.385L3.58012 14.931ZM4.23564 15.5865C3.9534 15.4427 3.72393 15.2132 3.58012 14.931L2.68911 15.385C2.92879 15.8554 3.31124 16.2378 3.78165 16.4775L4.23564 15.5865ZM6.11663 15.75C5.54832 15.75 5.15217 15.7496 4.84375 15.7244C4.54116 15.6997 4.36732 15.6536 4.23564 15.5865L3.78165 16.4775C4.0778 16.6284 4.39789 16.6913 4.76231 16.7211C5.1209 16.7504 5.56483 16.75 6.11663 16.75V15.75ZM13.8833 15.75H6.11663V16.75H13.8833V15.75ZM15.7643 15.5865C15.6326 15.6536 15.4588 15.6997 15.1562 15.7244C14.8478 15.7496 14.4516 15.75 13.8833 15.75V16.75C14.4351 16.75 14.879 16.7504 15.2376 16.7211C15.602 16.6913 15.9221 16.6284 16.2183 16.4775L15.7643 15.5865ZM16.4198 14.931C16.276 15.2132 16.0465 15.4427 15.7643 15.5865L16.2183 16.4775C16.6887 16.2378 17.0711 15.8554 17.3108 15.385L16.4198 14.931ZM16.5833 13.05C16.5833 13.6183 16.5829 14.0145 16.5577 14.3229C16.533 14.6255 16.4869 14.7993 16.4198 14.931L17.3108 15.385C17.4617 15.0888 17.5246 14.7687 17.5544 14.4043C17.5837 14.0457 17.5833 13.6018 17.5833 13.05H16.5833ZM16.5833 12.2024V13.05H17.5833V12.2024H16.5833ZM16.9056 12.5154C16.7292 12.5206 16.5833 12.3789 16.5833 12.2024H17.5833C17.5833 11.8152 17.2634 11.5045 16.8763 11.5158L16.9056 12.5154ZM16.7109 12.5211L16.9057 12.5154L16.8763 11.5158L16.6816 11.5215L16.7109 12.5211ZM14.0833 9.96944C14.0833 11.4086 15.2724 12.5633 16.7109 12.5211L16.6816 11.5215C15.8066 11.5472 15.0833 10.8449 15.0833 9.96944H14.0833ZM16.6361 7.41667C15.2262 7.41667 14.0833 8.55958 14.0833 9.96944H15.0833C15.0833 9.11187 15.7785 8.41667 16.6361 8.41667V7.41667ZM16.891 7.41667H16.6361V8.41667H16.891V7.41667ZM16.5833 7.72436C16.5833 7.55443 16.7211 7.41667 16.891 7.41667V8.41667C17.2733 8.41667 17.5833 8.10671 17.5833 7.72436H16.5833ZM16.5833 6.95V7.72436H17.5833V6.95H16.5833ZM16.4198 5.06901C16.4869 5.20069 16.533 5.37454 16.5577 5.67712C16.5829 5.98554 16.5833 6.3817 16.5833 6.95H17.5833C17.5833 6.3982 17.5837 5.95428 17.5544 5.59569C17.5246 5.23126 17.4617 4.91117 17.3108 4.61502L16.4198 5.06901ZM15.7643 4.41349C16.0465 4.5573 16.276 4.78677 16.4198 5.06901L17.3108 4.61502C17.0711 4.14462 16.6887 3.76217 16.2183 3.52248L15.7643 4.41349ZM14.7092 4.25505C15.3027 4.26785 15.5708 4.31488 15.7643 4.41349L16.2183 3.52248C15.8019 3.31034 15.3257 3.26812 14.7308 3.25528L14.7092 4.25505ZM14 4V5H15V4H14ZM14 5C14 5.27614 13.7761 5.5 13.5 5.5V6.5C14.3284 6.5 15 5.82843 15 5H14ZM13.5 5.5C13.2238 5.5 13 5.27614 13 5H12C12 5.82843 12.6715 6.5 13.5 6.5V5.5ZM13 5V4H12V5H13ZM13.5 8.5C13.7761 8.5 14 8.72386 14 9H15C15 8.17157 14.3284 7.5 13.5 7.5V8.5ZM13 9C13 8.72386 13.2238 8.5 13.5 8.5V7.5C12.6715 7.5 12 8.17157 12 9H13ZM13 10V9H12V10H13ZM13.5 10.5C13.2238 10.5 13 10.2761 13 10H12C12 10.8284 12.6715 11.5 13.5 11.5V10.5ZM14 10C14 10.2761 13.7761 10.5 13.5 10.5V11.5C14.3284 11.5 15 10.8284 15 10H14ZM14 9V10H15V9H14ZM13.5 13.5C13.7761 13.5 14 13.7239 14 14H15C15 13.1716 14.3284 12.5 13.5 12.5V13.5ZM13 14C13 13.7239 13.2238 13.5 13.5 13.5V12.5C12.6715 12.5 12 13.1716 12 14H13ZM13 15V14H12V15H13ZM13.5 15.5C13.2238 15.5 13 15.2761 13 15H12C12 15.8284 12.6715 16.5 13.5 16.5V15.5ZM14 15C14 15.2761 13.7761 15.5 13.5 15.5V16.5C14.3284 16.5 15 15.8284 15 15H14ZM14 14V15H15V14H14ZM14.7308 3.25528C14.2439 3.24478 14 3.67977 14 4H15C15 4.05504 14.9812 4.10878 14.9421 4.15439C14.8998 4.20377 14.8185 4.25741 14.7092 4.25505L14.7308 3.25528ZM12.2788 4.25C12.1734 4.25 12.0959 4.19753 12.0554 4.14969C12.018 4.10536 12 4.05337 12 4H13C13 3.67821 12.7586 3.25 12.2788 3.25V4.25Z" fill="white"/>
</g>
</svg>
