<svg width="40" height="40" viewBox="0 0 40 40" fill="none" xmlns="http://www.w3.org/2000/svg">
<path d="M5 15.3333C5 14.3904 5 13.919 5.29289 13.6261C5.58579 13.3333 6.05719 13.3333 7 13.3333H33C33.9428 13.3333 34.4142 13.3333 34.7071 13.6261C35 13.919 35 14.3904 35 15.3333V19.6666C35 20.6094 35 21.0808 34.7071 21.3737C34.4142 21.6666 33.9428 21.6666 33 21.6666H32C31.0572 21.6666 30.5858 21.6666 30.2929 21.9595C30 22.2524 30 22.7238 30 23.6666V31.3332C30 32.2761 30 32.7475 29.7071 33.0404C29.4142 33.3333 28.9428 33.3333 28 33.3333H12C11.0572 33.3333 10.5858 33.3333 10.2929 33.0404C10 32.7475 10 32.2761 10 31.3333V23.6666C10 22.7238 10 22.2524 9.70711 21.9595C9.41421 21.6666 8.94281 21.6666 8 21.6666H7C6.05719 21.6666 5.58579 21.6666 5.29289 21.3737C5 21.0808 5 20.6094 5 19.6666V15.3333Z" stroke="#858585" stroke-width="2.5"/>
<path d="M8.33337 21.6667H31.6667" stroke="#858585" stroke-width="2.5" stroke-linecap="round"/>
<path d="M20 11.6667L20 33.3334" stroke="#858585" stroke-width="2.5" stroke-linecap="round"/>
<path d="M20 11.6667L17.6696 9.33618C16.462 8.12865 14.9899 7.21886 13.3699 6.67884L10.9658 5.87748C9.67077 5.4458 8.33337 6.40974 8.33337 7.77485V10.2251C8.33337 11.086 8.88423 11.8503 9.70092 12.1225L13.3334 13.3333" stroke="#858585" stroke-width="2.5" stroke-linecap="round"/>
<path d="M20 11.6667L22.3304 9.33618C23.538 8.12865 25.0101 7.21886 26.6301 6.67884L29.0342 5.87748C30.3292 5.4458 31.6666 6.40974 31.6666 7.77485V10.2251C31.6666 11.086 31.1158 11.8503 30.2991 12.1225L26.6666 13.3333" stroke="#858585" stroke-width="2.5" stroke-linecap="round"/>
</svg>
