<svg width="30" height="30" viewBox="0 0 30 30" fill="none" xmlns="http://www.w3.org/2000/svg">
<g clip-path="url(#clip0_2466_3259)">
<path opacity="0.9" d="M4.28571 15.7435H4.48571V15.5435C4.48571 8.4481 10.1419 2.7 17.1357 2.7C24.1298 2.7 29.8 8.44839 29.8 15.5435C29.8 22.6386 24.1298 28.387 17.1357 28.387C13.7124 28.387 10.6127 27.0041 8.33882 24.76L10.08 22.9936C11.9099 24.7792 14.3946 25.8884 17.1429 25.8884C22.7774 25.8884 27.3429 21.2527 27.3429 15.5435C27.3429 9.8343 22.7774 5.19855 17.1429 5.19855C11.5083 5.19855 6.94286 9.8343 6.94286 15.5435V15.7435H7.14286H10.951L5.71774 21.0592L5.70672 21.048L0.477972 15.7435H4.28571ZM17.6571 15.9058V16.0189L17.7541 16.0772L22.5849 18.9827L21.7581 20.398L15.9143 16.8797V9.94638H17.6571V15.9058Z" fill="#006837" stroke="white" stroke-width="0.4"/>
</g>
<defs>
<clipPath id="clip0_2466_3259">
<rect width="30" height="30" fill="white"/>
</clipPath>
</defs>
</svg>
