<svg width="30" height="30" viewBox="0 0 30 30" fill="none" xmlns="http://www.w3.org/2000/svg">
<rect x="6" y="4" width="16" height="18" fill="white"/>
<path d="M19.5695 8.5168H8.81641C8.63904 8.5168 8.46894 8.58726 8.34353 8.71267C8.21811 8.83808 8.14766 9.00818 8.14766 9.18555C8.14766 9.36291 8.21811 9.53301 8.34353 9.65842C8.46894 9.78384 8.63904 9.8543 8.81641 9.8543H19.5695C19.7469 9.8543 19.917 9.78384 20.0424 9.65842C20.1678 9.53301 20.2383 9.36291 20.2383 9.18555C20.2383 9.00818 20.1678 8.83809 20.0424 8.71267C19.917 8.58725 19.7469 8.5168 19.5695 8.5168Z" fill="#006837" stroke="#006837" stroke-width="0.4"/>
<path d="M20.1874 12.1057C20.221 12.1868 20.2383 12.2737 20.2383 12.3615L20.1874 12.1057ZM20.1874 12.1057C20.1538 12.0245 20.1046 11.9508 20.0424 11.8887M20.1874 12.1057L20.0424 11.8887M20.0424 11.8887C19.9803 11.8266 19.9066 11.7773 19.8254 11.7437M20.0424 11.8887L19.8254 11.7437M19.8254 11.7437C19.7443 11.7101 19.6573 11.6928 19.5695 11.6928M19.8254 11.7437L19.5695 11.6928M19.5695 11.6928C19.5695 11.6928 19.5695 11.6928 19.5695 11.6928M19.5695 11.6928L19.5695 11.6928M19.5695 11.6928L8.81641 11.6928C8.63904 11.6928 8.46894 11.7633 8.34353 11.8887C8.21811 12.0141 8.14766 12.1842 8.14766 12.3616C8.14766 12.5389 8.21811 12.709 8.34353 12.8345C8.46894 12.9599 8.63904 13.0303 8.81641 13.0303H19.5695C19.5695 13.0303 19.5695 13.0303 19.5695 13.0303C19.6573 13.0303 19.7443 13.0131 19.8254 12.9795C19.9066 12.9459 19.9803 12.8966 20.0424 12.8345C20.1046 12.7724 20.1538 12.6986 20.1874 12.6175C20.221 12.5364 20.2383 12.4494 20.2383 12.3616L19.5695 11.6928Z" fill="#006837" stroke="#006837" stroke-width="0.4"/>
<path d="M15.5146 15.2814C15.5482 15.3626 15.5655 15.4495 15.5655 15.5373L15.5146 15.2814ZM15.5146 15.2814C15.481 15.2003 15.4317 15.1265 15.3696 15.0644M15.5146 15.2814L15.3696 15.0644M15.3696 15.0644C15.3075 15.0023 15.2338 14.9531 15.1526 14.9195M15.3696 15.0644L15.1526 14.9195M15.1526 14.9195C15.0715 14.8859 14.9845 14.8686 14.8967 14.8686M15.1526 14.9195L14.8967 14.8686M14.8967 14.8686C14.8967 14.8686 14.8967 14.8686 14.8967 14.8686M14.8967 14.8686L14.8967 14.8686M14.8967 14.8686L8.81738 14.8686C8.64002 14.8686 8.46992 14.9391 8.34451 15.0645C8.21909 15.1899 8.14863 15.36 8.14863 15.5374C8.14863 15.7147 8.21909 15.8848 8.34451 16.0102C8.46992 16.1356 8.64002 16.2061 8.81738 16.2061H14.8967C14.8967 16.2061 14.8967 16.2061 14.8967 16.2061C14.9845 16.2061 15.0715 16.1888 15.1526 16.1552C15.2338 16.1216 15.3075 16.0724 15.3696 16.0103C15.4317 15.9482 15.481 15.8744 15.5146 15.7933C15.5482 15.7121 15.5655 15.6252 15.5655 15.5374L14.8967 14.8686Z" fill="#006837" stroke="#006837" stroke-width="0.4"/>
<path d="M8.81738 18.0446C8.64002 18.0446 8.46992 18.1151 8.34451 18.2405C8.21909 18.3659 8.14863 18.536 8.14863 18.7134C8.14863 18.8907 8.21909 19.0608 8.34451 19.1863C8.46992 19.3117 8.64002 19.3821 8.81738 19.3821H12.6409C12.8182 19.3821 12.9883 19.3117 13.1137 19.1863C13.2391 19.0608 13.3096 18.8907 13.3096 18.7134C13.3096 18.536 13.2391 18.3659 13.1137 18.2405C12.9883 18.1151 12.8182 18.0446 12.6409 18.0446H8.81738Z" fill="#006837" stroke="#006837" stroke-width="0.4"/>
<path d="M16.5933 17.0083C15.9225 17.7769 15.4512 18.6965 15.2181 19.6858L15.1085 19.5762L15.1085 19.5762C14.9831 19.4508 14.813 19.3804 14.6357 19.3804C14.4583 19.3804 14.2883 19.4508 14.1628 19.5762C14.0374 19.7016 13.967 19.8717 13.967 20.0491C13.967 20.2264 14.0374 20.3965 14.1628 20.5219L14.1629 20.5219L15.2415 21.6005L15.2418 21.6009C15.3674 21.7259 15.5374 21.796 15.7147 21.796C15.8919 21.796 16.0619 21.7259 16.1875 21.6009L16.1878 21.6005L17.2667 20.5219L17.2667 20.5219C17.3921 20.3965 17.4625 20.2264 17.4625 20.0491C17.4625 19.8717 17.3921 19.7016 17.2667 19.5762C17.1413 19.4508 16.9712 19.3804 16.7938 19.3804C16.7644 19.3804 16.7352 19.3823 16.7064 19.3861C17.0277 18.5404 17.5774 17.7964 18.2988 17.2396C19.1564 16.5778 20.2085 16.2176 21.2917 16.2151C22.375 16.2125 23.4288 16.5677 24.2894 17.2255C25.1501 17.8833 25.7694 18.8069 26.0513 19.8528C26.3332 20.8988 26.2619 22.0085 25.8483 23.0097C25.4348 24.011 24.7022 24.8476 23.7644 25.3898C22.8266 25.9319 21.736 26.1492 20.662 26.0079C19.588 25.8667 18.5907 25.3747 17.825 24.6085L17.8249 24.6084C17.6995 24.483 17.5294 24.4126 17.3521 24.4126C17.1747 24.4126 17.0046 24.483 16.8792 24.6084C16.7538 24.7338 16.6834 24.9039 16.6834 25.0813C16.6834 25.2586 16.7538 25.4287 16.8792 25.5541L16.8793 25.5542C18.0534 26.7271 19.6452 27.3857 21.3047 27.3853C22.9643 27.3849 24.5558 26.7254 25.7292 25.5519C26.9027 24.3784 27.5621 22.7869 27.5625 21.1274C27.5629 19.4678 26.9042 17.876 25.7312 16.702C24.9213 15.8907 23.904 15.3175 22.7903 15.0453C21.6767 14.7731 20.5096 14.8122 19.4167 15.1584C18.3238 15.5045 17.3471 16.1445 16.5933 17.0083Z" fill="#006837" stroke="#006837" stroke-width="0.4"/>
<path d="M14.5 27.5H3.24142C3.15233 27.5 3.1044 27.3905 3.16162 27.3222C3.86048 26.4881 5 24.3281 5 21C5 17.4267 5 7.97495 5 3.5973C5 3.54207 5.04477 3.5 5.1 3.5H22.4C22.4552 3.5 22.5 3.54477 22.5 3.6V13" stroke="#006837" stroke-width="1.7" stroke-linecap="round"/>
<path d="M21 18V21.4586C21 21.4851 21.0105 21.5105 21.0293 21.5293L23 23.5" stroke="#006837" stroke-width="1.7" stroke-linecap="round"/>
</svg>
