<svg width="30" height="30" viewBox="0 0 30 30" fill="none" xmlns="http://www.w3.org/2000/svg">
<path d="M20.2974 17.7048V19.4223C20.2974 19.476 20.3249 19.5028 20.3798 19.5028C20.7057 19.5052 21.4498 19.3671 21.4498 19.8919C21.4498 21.6319 21.4494 23.2417 21.4486 24.7214C21.4473 26.7511 18.3592 26.8172 18.369 24.5724C18.3764 22.9614 18.3789 21.394 18.3764 19.8703C18.3763 19.8223 18.3858 19.7747 18.4045 19.7302C18.4232 19.6858 18.4508 19.6454 18.4855 19.6114C18.5202 19.5773 18.5615 19.5503 18.6069 19.5319C18.6524 19.5135 18.7011 19.504 18.7503 19.504H19.4439C19.4997 19.504 19.5275 19.4764 19.5275 19.4211L19.5239 17.7C19.5239 17.6496 19.498 17.6223 19.4464 17.6183C18.6093 17.5503 17.8275 17.3289 17.1011 16.9542C17.0634 16.9341 17.0285 16.9381 16.9965 16.9662C16.7752 17.1595 16.5784 17.4034 16.3496 17.5871C14.4024 19.1485 12.2211 19.7522 9.80568 19.3983C5.62178 18.7834 2.60744 14.9832 3.04158 10.8732C3.24737 8.92272 4.06193 7.27888 5.48526 5.94171C8.53772 3.0748 13.2886 3.02436 16.4591 5.76756C16.646 5.9297 16.8096 6.11586 16.9965 6.27801C17.0277 6.30443 17.0613 6.30843 17.0974 6.29002C17.7656 5.94732 18.4494 5.73913 19.1488 5.66547C21.1649 5.45168 22.8645 5.96053 24.2477 7.19201C26.7578 9.42596 26.9312 13.2201 24.6363 15.6714C23.527 16.8573 22.1082 17.5066 20.3798 17.6195C20.3249 17.6227 20.2974 17.6512 20.2974 17.7048ZM6.15675 12.019C6.53718 11.8149 6.92212 11.5927 7.31157 11.3525C8.01996 10.9165 8.77016 10.7928 9.5056 11.1915C9.85897 11.3829 10.2246 11.5895 10.6026 11.8113C10.66 11.8449 10.6887 11.8289 10.6887 11.7632V10.8192C10.6887 10.7439 10.6662 10.6751 10.6211 10.6126C10.2841 10.141 10.0041 9.70541 9.78109 9.30586C9.29776 8.4387 9.55603 7.57154 10.1304 6.74041C10.4723 6.24638 10.7678 5.79518 11.0171 5.38683C11.0523 5.32918 11.088 5.32918 11.1241 5.38683C11.4118 5.84883 11.7328 6.34246 12.087 6.86772C12.6564 7.71206 12.7942 8.61646 12.2592 9.4644C12.0009 9.87276 11.7406 10.2719 11.4783 10.6618C11.4553 10.6971 11.4434 10.7355 11.4426 10.7771L11.4401 11.78C11.4401 11.8313 11.4627 11.8437 11.5078 11.8173C11.9112 11.5786 12.308 11.3561 12.6983 11.1495C13.0049 10.9869 13.348 10.9229 13.7276 10.9573C13.7727 10.9613 13.7986 10.9417 13.8051 10.8985C14.0675 9.17134 14.8984 7.80174 16.298 6.78965C16.3365 6.76163 16.3398 6.73 16.3078 6.69477C16.0496 6.40732 15.7651 6.14669 15.4543 5.91289C12.0231 3.33423 7.13448 4.11131 4.79041 7.68324C2.49307 11.1843 3.75488 15.806 7.48498 17.7961C7.4985 17.8031 7.51366 17.8066 7.52896 17.8061C7.54427 17.8057 7.5592 17.8014 7.5723 17.7937C8.53403 17.2148 9.55562 16.9109 10.6371 16.8821C10.6912 16.8805 10.7182 16.8533 10.7182 16.8004L10.7195 15.7495C10.7195 15.6959 10.6953 15.6818 10.6469 15.7075C9.61137 16.2636 8.78984 16.989 7.56 16.2924C7.07298 16.0169 6.59704 15.7467 6.13216 15.4817C6.12627 15.4784 6.12138 15.4737 6.11797 15.468C6.11456 15.4623 6.11277 15.4558 6.11277 15.4492C6.11277 15.4426 6.11456 15.4362 6.11797 15.4305C6.12138 15.4248 6.12627 15.4201 6.13216 15.4168C6.64459 15.1254 7.13816 14.8451 7.61288 14.5761C8.74925 13.9347 9.695 14.6277 10.6616 15.203C10.6673 15.2065 10.6738 15.2084 10.6804 15.2086C10.6871 15.2087 10.6937 15.2071 10.6995 15.2039C10.7053 15.2007 10.7101 15.196 10.7134 15.1904C10.7167 15.1847 10.7184 15.1783 10.7182 15.1718L10.7195 12.3565C10.7195 12.3492 10.7175 12.342 10.7137 12.3357C10.71 12.3294 10.7045 12.3242 10.698 12.3207C10.6915 12.3171 10.6841 12.3153 10.6766 12.3155C10.6691 12.3157 10.6618 12.3178 10.6555 12.3217C9.51175 12.9943 8.70375 13.6116 7.35831 12.8093C6.93524 12.5571 6.53472 12.3261 6.15675 12.1163C6.0969 12.0835 6.0969 12.0511 6.15675 12.019ZM25.2881 11.6215C25.2881 10.2288 24.7216 8.89322 23.7133 7.90847C22.7049 6.92372 21.3373 6.37049 19.9113 6.37049C18.4852 6.37049 17.1176 6.92372 16.1092 7.90847C15.1009 8.89322 14.5344 10.2288 14.5344 11.6215C14.5344 13.0141 15.1009 14.3498 16.1092 15.3345C17.1176 16.3193 18.4852 16.8725 19.9113 16.8725C21.3373 16.8725 22.7049 16.3193 23.7133 15.3345C24.7216 14.3498 25.2881 13.0141 25.2881 11.6215ZM14.4938 14.5581C14.5553 14.5893 14.5693 14.5753 14.5356 14.516C14.3028 14.1077 14.1241 13.6793 13.9994 13.2309C13.9855 13.1805 13.9519 13.1588 13.8986 13.166C13.4772 13.2261 13.1156 13.1857 12.8139 13.0447C12.422 12.8614 11.9882 12.62 11.5127 12.3205C11.5058 12.3162 11.4979 12.3138 11.4898 12.3135C11.4816 12.3132 11.4735 12.315 11.4664 12.3188C11.4592 12.3227 11.4532 12.3283 11.449 12.3351C11.4448 12.342 11.4426 12.3498 11.4426 12.3577L11.4414 15.1778C11.4413 15.183 11.4426 15.1882 11.4452 15.1927C11.4479 15.1973 11.4518 15.2011 11.4565 15.2037C11.4612 15.2064 11.4666 15.2079 11.4721 15.2079C11.4777 15.208 11.4832 15.2067 11.4881 15.2042C12.4916 14.6878 13.2861 13.9455 14.4938 14.5581ZM14.7484 16.2203C13.489 16.9782 12.6036 16.3536 11.5459 15.7087C11.4869 15.6726 11.4574 15.6886 11.4574 15.7567V16.8016C11.4574 16.8529 11.4836 16.8793 11.5361 16.8809C12.6036 16.9129 13.6194 17.2164 14.5836 17.7913C14.6238 17.8153 14.6644 17.8161 14.7054 17.7937C15.2932 17.4646 15.8319 17.0482 16.3214 16.5446C16.3252 16.5406 16.3281 16.5358 16.33 16.5306C16.3319 16.5254 16.3327 16.5199 16.3324 16.5144C16.332 16.5089 16.3305 16.5035 16.328 16.4986C16.3255 16.4937 16.322 16.4893 16.3177 16.4857L15.5232 15.824C15.5124 15.8152 15.4992 15.8098 15.4854 15.8085C15.4715 15.8072 15.4577 15.8101 15.4457 15.8168C15.217 15.9441 14.9845 16.0786 14.7484 16.2203Z" fill="#19884A"/>
<path d="M19.8206 13.4382C19.9941 13.5775 20.21 13.6534 20.4324 13.6533C20.4697 13.6533 20.5069 13.6512 20.5439 13.647C20.6886 13.6305 20.8278 13.5821 20.9516 13.5054C21.0754 13.4287 21.1806 13.3254 21.2597 13.2032C21.5265 13.2558 21.8029 13.2268 22.053 13.1199C22.303 13.0131 22.515 12.8333 22.6612 12.604C22.8075 12.3748 22.8813 12.1068 22.8729 11.835C22.8645 11.5633 22.7743 11.3003 22.6142 11.0806C22.4541 10.8608 22.2314 10.6944 21.9753 10.6032C21.7192 10.5119 21.4415 10.5 21.1784 10.569C20.9154 10.638 20.6793 10.7847 20.501 10.9899C20.3226 11.1951 20.2103 11.4494 20.1786 11.7195C20.003 11.7668 19.8439 11.8618 19.7191 11.9941C19.5942 12.1264 19.5085 12.2907 19.4714 12.4688C19.4343 12.6469 19.4473 12.8317 19.5089 13.0029C19.5706 13.174 19.6785 13.3247 19.8206 13.4382Z" fill="#19884A"/>
<path d="M19.0229 11.0355C19.0229 10.8511 18.9682 10.6708 18.8658 10.5175C18.7633 10.3642 18.6177 10.2447 18.4474 10.1741C18.277 10.1036 18.0895 10.0851 17.9087 10.1211C17.7278 10.157 17.5617 10.2458 17.4313 10.3762C17.3009 10.5066 17.2121 10.6728 17.1761 10.8536C17.1401 11.0345 17.1586 11.2219 17.2292 11.3923C17.2997 11.5627 17.4192 11.7083 17.5726 11.8107C17.7259 11.9132 17.9062 11.9679 18.0906 11.9679C18.3377 11.9676 18.5747 11.8693 18.7495 11.6945C18.9243 11.5197 19.0226 11.2827 19.0229 11.0355Z" fill="#19884A"/>
<path d="M23.8742 13.8468C23.9114 13.8643 23.9516 13.8743 23.9926 13.8762C24.0336 13.8781 24.0746 13.8718 24.1132 13.8579C24.1518 13.8439 24.1873 13.8225 24.2176 13.7949C24.2479 13.7672 24.2725 13.7338 24.2899 13.6966C24.7072 12.799 24.8428 11.796 24.679 10.8198C24.5153 9.84352 24.0597 8.93975 23.3724 8.2274C22.8077 7.64671 22.1074 7.21575 21.3345 6.97343C20.5617 6.73111 19.7407 6.68504 18.9456 6.8394C18.1505 6.99375 17.4063 7.34367 16.7803 7.85756C16.1542 8.37145 15.666 9.03314 15.3596 9.78292C15.3295 9.85946 15.3307 9.9448 15.3631 10.0204C15.3955 10.0961 15.4563 10.1559 15.5325 10.1869C15.6087 10.218 15.6941 10.2177 15.7701 10.1862C15.8461 10.1547 15.9066 10.0945 15.9385 10.0187C16.2054 9.36486 16.631 8.78784 17.1768 8.33971C17.7226 7.89159 18.3714 7.58647 19.0647 7.45192C19.7579 7.31737 20.4738 7.35762 21.1476 7.56904C21.8214 7.78046 22.4319 8.15639 22.924 8.66288C23.5233 9.28392 23.9205 10.0719 24.0633 10.923C24.2061 11.7741 24.0878 12.6485 23.724 13.4311C23.6888 13.5062 23.6849 13.5921 23.713 13.6701C23.7412 13.7481 23.7992 13.8116 23.8742 13.8468Z" fill="#19884A"/>
<path d="M22.8367 14.6733C22.2413 15.2517 21.4896 15.6431 20.6743 15.7992C19.859 15.9553 19.0159 15.8692 18.2489 15.5516C17.482 15.234 16.8248 14.6988 16.3585 14.0121C15.8922 13.3253 15.6372 12.5171 15.625 11.6871C15.6238 11.6042 15.5897 11.5252 15.5303 11.4674C15.4708 11.4097 15.3909 11.3779 15.308 11.3791C15.2251 11.3803 15.1461 11.4144 15.0883 11.4739C15.0306 11.5333 14.9988 11.6133 15 11.6962C15.0187 12.9645 15.5309 14.1755 16.4279 15.0724C17.3249 15.9692 18.5361 16.4811 19.8044 16.4995C19.8286 16.4999 19.8528 16.5 19.877 16.5C21.1456 16.5031 22.3647 16.0081 23.2722 15.1216C23.3314 15.0638 23.3652 14.9849 23.3663 14.9022C23.3674 14.8195 23.3356 14.7397 23.278 14.6804C23.2203 14.6211 23.1415 14.587 23.0588 14.5857C22.9761 14.5843 22.8962 14.6158 22.8367 14.6733Z" fill="#19884A"/>
</svg>
