<svg width="14" height="14" viewBox="0 0 14 14" fill="none" xmlns="http://www.w3.org/2000/svg">
<path d="M10.7809 8.16668C10.9034 8.16671 11.0228 8.12818 11.1221 8.05657C11.2215 7.98495 11.2958 7.88388 11.3345 7.76768L12.5012 4.26768C12.5304 4.17998 12.5383 4.0866 12.5244 3.99523C12.5104 3.90386 12.4749 3.81712 12.4209 3.74215C12.3668 3.66718 12.2957 3.60613 12.2134 3.56403C12.1311 3.52193 12.04 3.49999 11.9476 3.50001H3.78092V1.16668C3.78092 1.01197 3.71947 0.863594 3.61007 0.754198C3.50067 0.644802 3.3523 0.583344 3.19759 0.583344H1.44759C1.29288 0.583344 1.14451 0.644802 1.03511 0.754198C0.925716 0.863594 0.864258 1.01197 0.864258 1.16668C0.864258 1.32139 0.925716 1.46976 1.03511 1.57916C1.14451 1.68855 1.29288 1.75001 1.44759 1.75001H2.61426V9.91668C2.61426 10.0714 2.67572 10.2198 2.78511 10.3292C2.89451 10.4386 3.04288 10.5 3.19759 10.5H10.1976C10.3523 10.5 10.5007 10.4386 10.6101 10.3292C10.7195 10.2198 10.7809 10.0714 10.7809 9.91668C10.7809 9.76197 10.7195 9.61359 10.6101 9.5042C10.5007 9.3948 10.3523 9.33334 10.1976 9.33334H3.78092V8.16668H10.7809ZM3.78092 4.66668H11.1385L10.3603 7.00001H3.78092V4.66668ZM3.48926 11.0833C3.66232 11.0833 3.83149 11.1347 3.97538 11.2308C4.11927 11.327 4.23142 11.4636 4.29765 11.6235C4.36388 11.7834 4.38121 11.9593 4.34744 12.129C4.31368 12.2988 4.23035 12.4547 4.10798 12.5771C3.9856 12.6994 3.82969 12.7828 3.65996 12.8165C3.49023 12.8503 3.31429 12.833 3.15441 12.7667C2.99452 12.7005 2.85787 12.5884 2.76172 12.4445C2.66557 12.3006 2.61426 12.1314 2.61426 11.9583C2.61426 11.7263 2.70644 11.5037 2.87054 11.3396C3.03463 11.1755 3.25719 11.0833 3.48926 11.0833ZM9.32259 11.0833C9.49565 11.0833 9.66482 11.1347 9.80871 11.2308C9.9526 11.327 10.0648 11.4636 10.131 11.6235C10.1972 11.7834 10.2145 11.9593 10.1808 12.129C10.147 12.2988 10.0637 12.4547 9.94131 12.5771C9.81893 12.6994 9.66302 12.7828 9.49329 12.8165C9.32356 12.8503 9.14762 12.833 8.98774 12.7667C8.82785 12.7005 8.6912 12.5884 8.59505 12.4445C8.49891 12.3006 8.44759 12.1314 8.44759 11.9583C8.44759 11.7263 8.53977 11.5037 8.70387 11.3396C8.86796 11.1755 9.09052 11.0833 9.32259 11.0833Z" fill="white"/>
</svg>
