<svg width="40" height="40" viewBox="0 0 40 40" fill="none" xmlns="http://www.w3.org/2000/svg">
<path d="M10.2 26.5381C7.60809 27.4503 6 28.7214 6 30.1274C6 32.9033 12.268 35.1535 20 35.1535C27.732 35.1535 34 32.9033 34 30.1274C34 28.7214 32.3919 27.4503 29.8 26.5381" stroke="#858585" stroke-width="2.5" stroke-linecap="round" stroke-linejoin="round"/>
<path d="M19.9999 14.4769H20.0161M29.6922 14.4769C29.6922 20.8955 22.423 23.9538 19.9999 28.6923C17.5768 23.9538 10.3076 20.8955 10.3076 14.4769C10.3076 9.24296 14.647 5 19.9999 5C25.3528 5 29.6922 9.24296 29.6922 14.4769ZM21.6153 14.4769C21.6153 15.3492 20.8921 16.0564 19.9999 16.0564C19.1077 16.0564 18.3845 15.3492 18.3845 14.4769C18.3845 13.6046 19.1077 12.8974 19.9999 12.8974C20.8921 12.8974 21.6153 13.6046 21.6153 14.4769Z" stroke="#858585" stroke-width="2.5" stroke-linecap="round" stroke-linejoin="round"/>
</svg>
