<svg width="26" height="24" viewBox="0 0 26 24" fill="none" xmlns="http://www.w3.org/2000/svg">
<path d="M24.7333 0.333313H1.26662C0.626618 0.333313 0.199951 0.75998 0.199951 1.39998V14.2C0.199951 14.84 0.626618 15.2666 1.26662 15.2666H24.7333C25.3733 15.2666 25.8 14.84 25.8 14.2V1.39998C25.8 0.75998 25.3733 0.333313 24.7333 0.333313ZM2.86662 9.93331C2.65328 9.93331 2.43995 9.93331 2.33328 10.04V5.55998C2.43995 5.66665 2.65328 5.66665 2.86662 5.66665C4.35995 5.66665 5.53328 4.49331 5.53328 2.99998C5.53328 2.78665 5.53328 2.57331 5.42662 2.46665H20.4666C20.4666 2.57331 20.4666 2.78665 20.4666 2.99998C20.4666 4.49331 21.64 5.66665 23.1333 5.66665C23.3466 5.66665 23.56 5.66665 23.6666 5.55998V9.93331C23.56 9.93331 23.3466 9.82665 23.1333 9.82665C21.64 9.82665 20.4666 11 20.4666 12.4933C20.4666 12.7066 20.4666 12.92 20.5733 13.0266H5.42662C5.53328 13.0266 5.53328 12.8133 5.53328 12.6C5.53328 11.1066 4.35995 9.93331 2.86662 9.93331ZM9.79995 7.79998C9.79995 5.98665 11.1866 4.59998 13 4.59998C14.8133 4.59998 16.2 5.98665 16.2 7.79998C16.2 9.61331 14.8133 11 13 11C11.1866 11 9.79995 9.61331 9.79995 7.79998ZM2.33328 18.4666V17.4H23.6666V18.4666C23.6666 19.1066 23.24 19.5333 22.6 19.5333H3.39995C2.75995 19.5333 2.33328 19.1066 2.33328 18.4666ZM4.89328 22.7333V21.6666H20.8933V22.7333C20.8933 23.3733 20.4666 23.8 19.8266 23.8H5.95995C5.31995 23.8 4.89328 23.3733 4.89328 22.7333Z" fill="#17B978"/>
</svg>
