<svg width="36" height="21" viewBox="0 0 36 21" fill="none" xmlns="http://www.w3.org/2000/svg">
<path d="M36 10.816C36 10.81 36 10.8039 36 10.7979C35.9969 10.6041 35.9083 10.4192 35.7534 10.2834C35.5985 10.1475 35.3898 10.0717 35.1726 10.0724H34.9552L31.5925 4.27583C31.5225 4.15556 31.4167 4.05484 31.2867 3.98476C31.1568 3.91467 31.0077 3.87793 30.8558 3.87858H25.1182L25.337 2.33003C25.3728 2.03393 25.3378 1.73442 25.2342 1.4513C25.1307 1.16817 24.961 0.907895 24.7363 0.687665C24.5116 0.467435 24.2372 0.292272 23.931 0.173762C23.6248 0.0552522 23.294 -0.00390431 22.9603 0.000199831H5.15229C4.93472 0.00123776 4.7253 0.0741623 4.56445 0.204899C4.4036 0.335636 4.30272 0.514916 4.28129 0.708129L4.10161 1.98368H14.249C14.4044 1.98297 14.5584 2.01023 14.7018 2.06384C14.8452 2.11745 14.9749 2.1963 15.0834 2.29569C15.1918 2.39508 15.2767 2.51296 15.3329 2.64229C15.3891 2.77162 15.4156 2.90974 15.4106 3.04838C15.4007 3.33274 15.2676 3.6026 15.0393 3.80118C14.811 3.99975 14.5053 4.11156 14.1865 4.11308H10.8023V4.11749H0.866048C0.640841 4.11853 0.424847 4.19741 0.263437 4.33756C0.102027 4.47772 0.00776288 4.66825 0.000444815 4.86912C-0.00318349 4.96724 0.0154153 5.065 0.0551272 5.15655C0.0948392 5.2481 0.154847 5.33156 0.231558 5.40193C0.308269 5.47229 0.400104 5.52812 0.501563 5.56606C0.603023 5.604 0.71202 5.62328 0.822026 5.62274H13.979C14.2781 5.66331 14.5502 5.8003 14.7437 6.00781C14.9372 6.21532 15.0388 6.47894 15.0292 6.74878C15.0185 7.05197 14.877 7.33977 14.6343 7.55217C14.3916 7.76457 14.0665 7.88517 13.7266 7.88884H4.65772C4.42976 7.88989 4.21115 7.9699 4.048 8.11198C3.88485 8.25407 3.78988 8.44713 3.78313 8.65049C3.77938 8.74962 3.7981 8.8484 3.83816 8.94093C3.87823 9.03345 3.93881 9.1178 4.01628 9.18892C4.09376 9.26004 4.18653 9.31647 4.28903 9.35483C4.39153 9.39318 4.50165 9.41267 4.6128 9.41213H13.577C13.8789 9.44927 14.1549 9.58463 14.3519 9.79223C14.5489 9.99984 14.653 10.265 14.6443 10.537C14.6336 10.8416 14.4909 11.1307 14.2463 11.3434C14.0017 11.5561 13.6741 11.6758 13.3326 11.6774H3.05004H2.18579C1.95782 11.6785 1.73922 11.7585 1.57607 11.9006C1.41291 12.0427 1.31795 12.2357 1.3112 12.4391C1.30745 12.5382 1.32617 12.637 1.36623 12.7295C1.40629 12.822 1.46688 12.9064 1.54435 12.9775C1.62183 13.0486 1.7146 13.1051 1.8171 13.1434C1.9196 13.1818 2.02972 13.2013 2.14087 13.2007H2.88654L2.59501 15.9242C2.55925 16.2203 2.59432 16.5197 2.69789 16.8028C2.80147 17.0859 2.97119 17.3461 3.19584 17.5663C3.4205 17.7865 3.69496 17.9616 4.00109 18.0801C4.30723 18.1986 4.63806 18.2577 4.97171 18.2536H5.61541C5.76646 19.0253 6.21866 19.7244 6.89193 20.227C7.5652 20.7297 8.41608 21.0035 9.29388 21C10.1867 20.9944 11.0514 20.7203 11.7481 20.2219C12.4448 19.7236 12.9328 19.0301 13.1332 18.2536H21.1608C21.8016 18.2485 22.4198 18.0417 22.9064 17.6696C23.3539 18.0501 23.9503 18.2596 24.5684 18.2536H24.7004C24.8515 19.0253 25.3037 19.7244 25.977 20.227C26.6502 20.7297 27.5011 21.0035 28.3789 21C29.2718 20.9944 30.1364 20.7203 30.8331 20.2219C31.5298 19.7236 32.0178 19.0301 32.2182 18.2536H32.7469C33.4284 18.2419 34.0817 18.0087 34.5841 17.5976C35.0865 17.1866 35.4036 16.6261 35.4758 16.0212L35.9951 10.8901C35.9951 10.8833 35.9951 10.8765 35.9951 10.8693C35.9951 10.8621 35.9973 10.8484 35.9978 10.8376C35.9982 10.8268 36 10.822 36 10.816ZM9.33835 19.4779C9.06087 19.479 8.78599 19.4302 8.5301 19.3344C8.27421 19.2386 8.04255 19.0978 7.84896 18.9204C7.65536 18.743 7.50379 18.5326 7.40328 18.3018C7.30278 18.071 7.25539 17.8245 7.26396 17.577C7.2823 17.0694 7.52018 16.5879 7.92771 16.2335C8.33524 15.8791 8.88073 15.6793 9.44975 15.6761C9.72724 15.675 10.0021 15.7238 10.258 15.8196C10.5139 15.9153 10.7456 16.0561 10.9392 16.2335C11.1327 16.4109 11.2843 16.6213 11.3848 16.8521C11.4853 17.0829 11.5327 17.3295 11.5241 17.577C11.5058 18.0845 11.2679 18.566 10.8604 18.9204C10.4529 19.2748 9.90738 19.4746 9.33835 19.4779ZM28.4243 19.4779C28.1468 19.479 27.8719 19.4302 27.616 19.3344C27.3601 19.2386 27.1285 19.0978 26.9349 18.9204C26.7413 18.743 26.5897 18.5326 26.4892 18.3018C26.3887 18.071 26.3413 17.8245 26.3499 17.577C26.3682 17.0694 26.6061 16.5879 27.0136 16.2335C27.4212 15.8791 27.9667 15.6793 28.5357 15.6761C28.8132 15.675 29.0881 15.7238 29.344 15.8196C29.5998 15.9153 29.8315 16.0561 30.0251 16.2335C30.2187 16.4109 30.3703 16.6213 30.4708 16.8521C30.5713 17.0829 30.6187 17.3295 30.6101 17.577C30.5917 18.0845 30.3539 18.566 29.9463 18.9204C29.5388 19.2748 28.9933 19.4746 28.4243 19.4779ZM33.7801 15.9226C33.7515 16.1408 33.636 16.3426 33.4546 16.4911C33.2731 16.6396 33.0379 16.7249 32.7918 16.7315H32.2205C32.0319 15.9973 31.5688 15.3421 30.9076 14.8739C30.2463 14.4056 29.4261 14.1522 28.582 14.1552C27.7227 14.1605 26.8885 14.4145 26.2049 14.8791C25.5212 15.3437 25.025 15.9937 24.7907 16.7315H24.6151C24.5134 16.7336 24.4123 16.7165 24.3185 16.6813C24.2247 16.6462 24.1402 16.5938 24.0707 16.5275C24.0025 16.4589 23.9513 16.3782 23.9204 16.2908C23.8894 16.2034 23.8794 16.1111 23.891 16.02L24.9655 5.39706H27.4329L27.0421 9.26542C27.0063 9.56151 27.0413 9.86103 27.1448 10.1441C27.2484 10.4273 27.4181 10.6876 27.6428 10.9078C27.8674 11.128 28.1419 11.3032 28.4481 11.4217C28.7542 11.5402 29.0851 11.5994 29.4188 11.5952H34.2176L33.7801 15.9226Z" fill="#19884A"/>
</svg>
