<svg width="24" height="24" viewBox="0 0 24 24" fill="none" xmlns="http://www.w3.org/2000/svg">
<g clip-path="url(#clip0_2129_5858)">
<path d="M23.7708 11.9684L21.3913 9.58885V4.43476C21.3913 4.00258 21.0409 3.65214 20.6086 3.65214H17.4782C17.0461 3.65214 16.6956 4.00253 16.6956 4.43476V4.8932L12.5533 0.750912C12.2478 0.445334 11.7522 0.445334 11.4466 0.750912C11.1617 1.03586 0.645842 11.5516 0.229218 11.9683C-0.0764061 12.2739 -0.0764061 12.7695 0.229218 13.0751C0.534796 13.3807 1.03036 13.3807 1.33598 13.0751L2.60873 11.8024V22.6956C2.60873 23.1278 2.95912 23.4783 3.39135 23.4783H20.6087C21.0409 23.4783 21.3913 23.1279 21.3913 22.6956V11.8024L22.6641 13.0751C22.9697 13.3807 23.4652 13.3807 23.7708 13.0751C24.0764 12.7695 24.0764 12.274 23.7708 11.9684ZM19.8261 21.913H4.17393V10.2372L12 2.41108C12.4069 2.818 19.4225 9.83358 19.8261 10.2372V21.913H19.8261ZM19.8261 8.02365L18.2609 6.45845V5.21739H19.8261V8.02365Z" fill="black"/>
<path d="M8.5 12C8.5 11.7239 8.72386 11.5 9 11.5H15C15.2761 11.5 15.5 11.7239 15.5 12V22.5H8.5V12Z" stroke="black"/>
</g>
<defs>
<clipPath id="clip0_2129_5858">
<rect width="24" height="24" fill="white"/>
</clipPath>
</defs>
</svg>
