<svg width="24" height="24" viewBox="0 0 24 24" fill="none" xmlns="http://www.w3.org/2000/svg">
<path d="M12.4426 10.1999C12.3594 10.188 12.2523 10.188 12.1572 10.1999C10.0645 10.1285 8.3999 8.41365 8.3999 6.30585C8.3999 4.15043 10.1359 2.3999 12.2999 2.3999C14.452 2.3999 16.1999 4.15043 16.1999 6.30585C16.188 8.41365 14.5353 10.1285 12.4426 10.1999Z" stroke="black" stroke-width="1.5" stroke-linecap="round" stroke-linejoin="round"/>
<path d="M20.4002 18.2476C18.261 20.3332 15.4248 21.6 12.3002 21.6C9.17556 21.6 6.33936 20.3332 4.2002 18.2476C4.32037 17.0449 5.04144 15.8677 6.32734 14.9465C9.62021 12.6178 15.0042 12.6178 18.2731 14.9465C19.559 15.8677 20.28 17.0449 20.4002 18.2476Z" stroke="black" stroke-width="1.5" stroke-linecap="round" stroke-linejoin="round"/>
</svg>
