<svg width="105" height="102" viewBox="0 0 105 102" fill="none" xmlns="http://www.w3.org/2000/svg">
<path d="M35.2367 22.7655C35.2367 15.8893 29.6425 10.295 22.7662 10.295C15.89 10.295 10.2959 15.8893 10.2959 22.7655C10.2959 29.6418 15.8902 35.2359 22.7664 35.2359C29.6427 35.2359 35.2367 29.6418 35.2367 22.7655ZM14.4792 22.7655C14.4792 18.196 18.1968 14.4783 22.7664 14.4783C27.336 14.4783 31.0537 18.196 31.0537 22.7655C31.0537 27.3351 27.336 31.0526 22.7664 31.0526C18.1968 31.0526 14.4792 27.3351 14.4792 22.7655Z" fill="#19884A"/>
<path d="M22.9471 7.08478C24.1023 7.08478 25.0387 6.14836 25.0387 4.99315V2.09163C25.0387 0.936424 24.1023 0 22.9471 0C21.7919 0 20.8555 0.936424 20.8555 2.09163V4.99336C20.8555 6.14836 21.7919 7.08478 22.9471 7.08478Z" fill="#19884A"/>
<path d="M8.84815 11.5494C9.25665 11.9579 9.7919 12.162 10.3271 12.162C10.8624 12.162 11.3979 11.9579 11.8061 11.5494C12.6229 10.7326 12.6229 9.40817 11.8061 8.59118L9.75446 6.5395C8.93767 5.72271 7.61325 5.72271 6.79626 6.5395C5.97927 7.35628 5.97948 8.6807 6.79626 9.49769L8.84815 11.5494Z" fill="#19884A"/>
<path d="M7.08499 22.5842C7.08499 21.429 6.14857 20.4926 4.99336 20.4926H2.09163C0.936424 20.4926 0 21.429 0 22.5842C0 23.7394 0.936424 24.6758 2.09163 24.6758H4.99336C6.14857 24.6758 7.08499 23.7394 7.08499 22.5842Z" fill="#19884A"/>
<path d="M3.56605 38.7507L3.2454 39.0713C2.42862 39.8881 2.42862 41.2125 3.2454 42.0295C3.6539 42.438 4.18914 42.6421 4.72439 42.6421C5.25964 42.6421 5.7951 42.438 6.20339 42.0295L6.52404 41.7089C7.34082 40.8921 7.34082 39.5676 6.52404 38.7507C5.70725 37.9337 4.38283 37.9337 3.56605 38.7507Z" fill="#19884A"/>
<path d="M8.59155 33.7253L7.62626 34.6906C6.80948 35.5074 6.80948 36.8318 7.62626 37.6488C8.03476 38.0573 8.57 38.2614 9.10525 38.2614C9.6405 38.2614 10.176 38.0573 10.5842 37.6488L11.5495 36.6835C12.3663 35.8667 12.3663 34.5423 11.5495 33.7253C10.7328 32.9083 9.40833 32.9083 8.59155 33.7253Z" fill="#19884A"/>
<path d="M20.4932 40.5378V43.4395C20.4932 44.5947 21.4296 45.5311 22.5848 45.5311C23.74 45.5311 24.6764 44.5947 24.6764 43.4395V40.5378C24.6764 39.3826 23.74 38.4461 22.5848 38.4461C21.4296 38.4461 20.4932 39.3828 20.4932 40.5378Z" fill="#19884A"/>
<path d="M36.6829 33.9817C35.8661 33.1649 34.5417 33.1649 33.7249 33.9817C32.9081 34.7985 32.9081 36.1229 33.7249 36.9397L35.7768 38.9914C36.1853 39.3999 36.7205 39.604 37.2558 39.604C37.791 39.604 38.3265 39.3997 38.7348 38.9914C39.5516 38.1746 39.5516 36.8502 38.7348 36.0334L36.6829 33.9817Z" fill="#19884A"/>
<path d="M38.4463 22.9469C38.4463 24.1021 39.3827 25.0385 40.5379 25.0385H43.4394C44.5946 25.0385 45.5311 24.1021 45.5311 22.9469C45.5311 21.7917 44.5946 20.8553 43.4394 20.8553H40.5379C39.3827 20.8553 38.4463 21.7917 38.4463 22.9469Z" fill="#19884A"/>
<path d="M40.5156 7.36378C41.0509 7.36378 41.5863 7.15964 41.9946 6.75115L42.3996 6.34621C43.2163 5.52942 43.2163 4.205 42.3996 3.38801C41.5828 2.57123 40.2583 2.57123 39.4414 3.38801L39.0364 3.79295C38.2196 4.60973 38.2196 5.93415 39.0364 6.75115C39.4449 7.15964 39.9804 7.36378 40.5156 7.36378Z" fill="#19884A"/>
<path d="M35.46 12.4184C35.9952 12.4184 36.5307 12.2143 36.9389 11.8058L37.9042 10.8405C38.721 10.0237 38.721 8.69929 37.9042 7.8823C37.0875 7.06552 35.763 7.06552 34.946 7.8823L33.9808 8.84759C33.164 9.66437 33.164 10.9888 33.9808 11.8058C34.3892 12.2143 34.9247 12.4184 35.46 12.4184Z" fill="#19884A"/>
<path d="M101.676 62.5733C99.01 59.4111 95.1089 57.5826 90.9593 57.5561H90.9472H90.9375C90.8995 57.5559 90.8616 57.5559 90.8235 57.5561H31.4C27.2473 57.5172 23.3023 59.3038 20.5873 62.4509L20.5202 62.5287C18.3231 65.0755 17.1083 68.3259 17.0933 71.688C17.0931 71.6974 17.0918 71.7066 17.0918 71.716V99.7169C17.0918 100.872 18.0282 101.809 19.1834 101.809H102.909C104.064 101.809 105 100.872 105 99.7169V71.6736C105 68.3476 103.82 65.1159 101.676 62.5733ZM76.6975 97.6253H21.2749V73.8419L76.6975 73.8208V97.6253ZM80.1928 62.4509L80.1257 62.5287C78.3831 64.5486 77.2601 67.0132 76.8619 69.6244H21.5064C21.8578 68.0222 22.602 66.5196 23.6873 65.2616L23.7545 65.1838C25.646 62.9914 28.3831 61.7389 31.2936 61.7389C31.3229 61.7389 31.3523 61.7389 31.3816 61.7393H80.8506L80.8573 61.7381C80.6293 61.9684 80.406 62.2039 80.1928 62.4509ZM94.3266 97.6253H87.6928V84.9337H94.3266V97.6253ZM100.817 97.6253H98.5101V82.842C98.5101 81.6868 97.5737 80.7504 96.4185 80.7504H85.6014C84.4462 80.7504 83.5097 81.6868 83.5097 82.842V97.6253H80.881V71.7742C80.881 71.7677 80.8812 71.7614 80.8812 71.7568C80.8812 71.7486 80.8814 71.7405 80.8814 71.7325C80.8858 69.3575 81.7425 67.0592 83.2933 65.2616L83.3604 65.1838C85.2602 62.9813 88.0155 61.7211 90.9375 61.7393H90.9459C93.8566 61.758 96.6019 63.0447 98.4777 65.2696C99.9862 67.0588 100.817 69.333 100.817 71.6733V97.6253Z" fill="#19884A"/>
<path d="M26.7547 81.6885H54.4469C55.6021 81.6885 56.5385 80.7521 56.5385 79.5969C56.5385 78.4417 55.6021 77.5053 54.4469 77.5053H26.7547C25.5995 77.5053 24.6631 78.4417 24.6631 79.5969C24.6631 80.7521 25.5995 81.6885 26.7547 81.6885Z" fill="#19884A"/>
<path d="M63.1004 81.6885H68.0764C69.2316 81.6885 70.168 80.7521 70.168 79.5969C70.168 78.4417 69.2316 77.5053 68.0764 77.5053H63.1004C61.9452 77.5053 61.0088 78.4417 61.0088 79.5969C61.0088 80.7521 61.9452 81.6885 63.1004 81.6885Z" fill="#19884A"/>
</svg>
