<svg width="34" height="25" viewBox="0 0 34 25" fill="none" xmlns="http://www.w3.org/2000/svg">
<g clip-path="url(#clip0_1636_10285)">
<g clip-path="url(#clip1_1636_10285)">
<mask id="mask0_1636_10285" style="mask-type:luminance" maskUnits="userSpaceOnUse" x="4" y="0" width="25" height="50">
<path d="M29 0H4V50H29V0Z" fill="white"/>
</mask>
<g mask="url(#mask0_1636_10285)">
<mask id="mask1_1636_10285" style="mask-type:luminance" maskUnits="userSpaceOnUse" x="4" y="0" width="25" height="25">
<path d="M29 0H4V25H29V0Z" fill="white"/>
</mask>
<g mask="url(#mask1_1636_10285)">
<path d="M28.9746 7.35007C28.916 6.02172 28.7012 5.1085 28.3935 4.31717C28.0761 3.4772 27.5877 2.72518 26.9478 2.10002C26.3227 1.46513 25.5657 0.971793 24.7354 0.659308C23.9395 0.351593 23.0311 0.136784 21.7027 0.0782166C20.3645 0.0146894 19.9396 0 16.5454 0C13.1512 0 12.7263 0.0146894 11.393 0.0732565C10.0647 0.131824 9.15146 0.346824 8.36033 0.654348C7.52017 0.971793 6.76815 1.46017 6.14299 2.10002C5.5081 2.72518 5.01495 3.48216 4.70228 4.3124C4.39456 5.1085 4.17975 6.01676 4.12118 7.34511C4.05766 8.68338 4.04297 9.10822 4.04297 12.5024C4.04297 15.8967 4.05766 16.3215 4.11622 17.6548C4.17479 18.9832 4.38979 19.8964 4.69751 20.6877C5.01495 21.5277 5.5081 22.2797 6.14299 22.9049C6.76815 23.5398 7.52513 24.0331 8.35537 24.3456C9.15146 24.6533 10.0597 24.8681 11.3883 24.9267C12.7214 24.9854 13.1464 24.9999 16.5406 24.9999C19.9349 24.9999 20.3597 24.9854 21.693 24.9267C23.0214 24.8681 23.9346 24.6533 24.7257 24.3456C26.4058 23.696 27.7342 22.3677 28.3838 20.6877C28.6913 19.8916 28.9063 18.9832 28.9649 17.6548C29.0234 16.3215 29.0381 15.8967 29.0381 12.5024C29.0381 9.10822 29.0332 8.68338 28.9746 7.35007ZM26.7233 17.5571C26.6695 18.7781 26.4644 19.4374 26.2935 19.8769C25.8734 20.966 25.009 21.8304 23.9199 22.2505C23.4804 22.4214 22.8163 22.6265 21.6001 22.6801C20.2815 22.7389 19.886 22.7534 16.5504 22.7534C13.2147 22.7534 12.8143 22.7389 11.5004 22.6801C10.2795 22.6265 9.62019 22.4214 9.18065 22.2505C8.63867 22.0502 8.14533 21.7328 7.7449 21.3176C7.32978 20.9123 7.01234 20.4239 6.81203 19.8819C6.64109 19.4424 6.43601 18.7781 6.38241 17.5621C6.32365 16.2435 6.30915 15.8478 6.30915 12.5122C6.30915 9.17652 6.32365 8.77609 6.38241 7.46243C6.43601 6.24149 6.64109 5.58218 6.81203 5.14264C7.01234 4.60047 7.32978 4.10732 7.74986 3.7067C8.15506 3.29158 8.64344 2.97414 9.18561 2.77402C9.62515 2.60309 10.2894 2.39801 11.5054 2.34421C12.824 2.28564 13.2197 2.27095 16.5551 2.27095C19.8957 2.27095 20.2912 2.28564 21.6051 2.34421C22.826 2.39801 23.4853 2.60309 23.9249 2.77402C24.4668 2.97414 24.9602 3.29158 25.3606 3.7067C25.7757 4.11209 26.0932 4.60047 26.2935 5.14264C26.4644 5.58218 26.6695 6.24626 26.7233 7.46243C26.7819 8.78105 26.7965 9.17652 26.7965 12.5122C26.7965 15.8478 26.7819 16.2385 26.7233 17.5571Z" fill="white"/>
<path d="M16.5452 6.08008C12.9997 6.08008 10.123 8.95654 10.123 12.5022C10.123 16.0479 12.9997 18.9244 16.5452 18.9244C20.0909 18.9244 22.9674 16.0479 22.9674 12.5022C22.9674 8.95654 20.0909 6.08008 16.5452 6.08008ZM16.5452 16.6681C14.2451 16.6681 12.3793 14.8026 12.3793 12.5022C12.3793 10.2019 14.2451 8.33634 16.5452 8.33634C18.8455 8.33634 20.7111 10.2019 20.7111 12.5022C20.7111 14.8026 18.8455 16.6681 16.5452 16.6681Z" fill="white"/>
<path d="M24.7214 5.82643C24.7214 6.65438 24.0501 7.3257 23.2219 7.3257C22.394 7.3257 21.7227 6.65438 21.7227 5.82643C21.7227 4.99828 22.394 4.32715 23.2219 4.32715C24.0501 4.32715 24.7214 4.99828 24.7214 5.82643Z" fill="white"/>
</g>
</g>
</g>
</g>
<defs>
<clipPath id="clip0_1636_10285">
<rect width="34" height="25" fill="white"/>
</clipPath>
<clipPath id="clip1_1636_10285">
<rect width="25" height="50" fill="white" transform="translate(4)"/>
</clipPath>
</defs>
</svg>
