<svg width="32" height="30" viewBox="0 0 32 30" fill="none" xmlns="http://www.w3.org/2000/svg">
<path d="M14.1019 12.824H10.1419V15.02H13.9099V16.364H10.1419V18.656H14.2459L14.1379 20H8.61794V11.48H14.1019V12.824ZM15.3071 20V13.94H16.7711L16.6991 15.464C16.9311 14.944 17.2471 14.544 17.6471 14.264C18.0471 13.984 18.5031 13.844 19.0151 13.844C19.6951 13.844 20.2071 14.08 20.5511 14.552C20.9031 15.016 21.0751 15.684 21.0671 16.556L21.0431 20H19.5791L19.6031 16.676C19.6111 16.204 19.5351 15.844 19.3751 15.596C19.2231 15.34 18.9751 15.212 18.6311 15.212C18.3671 15.212 18.1231 15.288 17.8991 15.44C17.6751 15.592 17.4791 15.852 17.3111 16.22C17.1431 16.58 17.0111 17.072 16.9151 17.696C16.8191 18.312 16.7671 19.08 16.7591 20H15.3071Z" fill="black"/>
<circle cx="15" cy="15" r="14.5" stroke="black"/>
<ellipse cx="3" cy="3" rx="3" ry="3" transform="matrix(-1 0 0 1 31.9033 11.6129)" fill="#19884A"/>
</svg>
