<svg width="34" height="25" viewBox="0 0 34 25" fill="none" xmlns="http://www.w3.org/2000/svg">
<g clip-path="url(#clip0_1636_10333)">
<mask id="mask0_1636_10333" style="mask-type:luminance" maskUnits="userSpaceOnUse" x="4" y="0" width="25" height="50">
<path d="M29 0H4V50H29V0Z" fill="white"/>
</mask>
<g mask="url(#mask0_1636_10333)">
<mask id="mask1_1636_10333" style="mask-type:luminance" maskUnits="userSpaceOnUse" x="4" y="0" width="25" height="25">
<path d="M29 0H4V25H29V0Z" fill="white"/>
</mask>
<g mask="url(#mask1_1636_10333)">
<path d="M28.9928 25.0001V24.999H28.9991V15.8303C28.9991 11.3449 28.0335 7.88965 22.7897 7.88965C20.2689 7.88965 18.5772 9.27298 17.8866 10.5844H17.8137V8.3084H12.8418V24.999H18.0189V16.7344C18.0189 14.5584 18.4314 12.4542 21.1262 12.4542C23.7814 12.4542 23.821 14.9376 23.821 16.874V25.0001H28.9928Z" fill="white"/>
<path d="M4.41406 8.30957H9.5974V25.0002H4.41406V8.30957Z" fill="white"/>
<path d="M7.00208 0C5.34479 0 4 1.34479 4 3.00208C4 4.65938 5.34479 6.03229 7.00208 6.03229C8.65937 6.03229 10.0042 4.65938 10.0042 3.00208C10.0031 1.34479 8.65833 0 7.00208 0Z" fill="white"/>
</g>
</g>
</g>
<defs>
<clipPath id="clip0_1636_10333">
<rect width="25" height="50" fill="white" transform="translate(4)"/>
</clipPath>
</defs>
</svg>
