<svg width="104" height="70" viewBox="0 0 104 70" fill="none" xmlns="http://www.w3.org/2000/svg">
<g clip-path="url(#clip0_1432_2308)">
<g filter="url(#filter0_d_1432_2308)">
<path d="M59.4154 23.3184C58.8288 21.8192 57.5714 20.9279 56.8277 19.6018C56.6565 19.2978 56.7124 19.2487 56.9953 19.4549C58.3817 20.4579 59.6389 21.6025 60.767 22.8885C60.8331 22.9638 60.9221 23.0148 61.0198 23.0338C61.1176 23.0528 61.2183 23.0386 61.3066 22.9934L66.0211 20.5925C66.3355 20.4317 66.3599 20.2344 66.0944 20.0002C61.5404 15.9392 56.1939 14.3368 50.0544 15.1932C49.8343 15.221 49.8169 15.1738 50.0019 15.0516C50.3652 14.8105 50.772 14.6392 51.2225 14.5378C58.4271 12.8882 64.8495 14.5378 70.4894 19.4864C70.5526 19.5409 70.6019 19.6096 70.6336 19.6867C70.6651 19.764 70.678 19.8477 70.6716 19.9314C70.6649 20.0149 70.6388 20.0958 70.5954 20.1678C70.552 20.2398 70.4924 20.301 70.4214 20.3462C65.3436 23.5508 59.7873 25.1741 53.7526 25.2161C53.7415 25.2157 53.7304 25.2129 53.7205 25.2076C53.7106 25.2024 53.7019 25.1949 53.6955 25.1856C53.6888 25.1766 53.6844 25.1661 53.6825 25.155C53.6807 25.1439 53.6813 25.1326 53.6846 25.1217C53.6951 25.0763 53.7072 25.0325 53.7213 24.9908C53.7316 24.9488 53.7579 24.926 53.7999 24.9226C55.6507 24.7094 57.4597 24.3109 59.2268 23.7273C59.4329 23.6573 59.4957 23.5212 59.4154 23.3184Z" fill="url(#paint0_linear_1432_2308)"/>
<path d="M71.5289 29.4383C70.9633 27.2731 70.0766 25.2544 68.8691 23.3822C68.7857 23.2531 68.8102 23.1504 68.942 23.0735L71.7578 21.4419C71.9279 21.3407 72.0736 21.3703 72.1952 21.5307C74.2043 24.2607 75.5108 27.2993 76.1145 30.6464C76.1527 30.8451 76.0869 30.9968 75.9168 31.1015C67.7604 36.2424 56.7465 37.3563 47.5856 33.9727C47.4677 33.9308 47.4277 33.8628 47.4659 33.7686C47.5077 33.6641 47.584 33.6205 47.6951 33.6379C52.56 34.4468 57.4023 34.3387 62.2222 33.3137C62.413 33.2754 62.4981 33.1586 62.4773 32.9633C62.2135 30.5472 61.6358 28.2128 60.7439 25.9605C60.6573 25.7408 60.7302 25.6171 60.9626 25.5891L62.342 25.4323C62.5398 25.4079 62.6873 25.4828 62.7844 25.6571C63.9366 27.7282 64.6669 29.937 64.9756 32.2835C65.0104 32.552 65.1493 32.6302 65.3922 32.5187L71.3362 29.8411C71.5167 29.7608 71.581 29.6267 71.5289 29.4383Z" fill="url(#paint1_linear_1432_2308)"/>
<path d="M63.4723 42.4494C66.0149 41.8069 68.4741 40.9244 70.8493 39.8017C70.9241 39.7656 70.9895 39.7124 71.0404 39.6462C71.0913 39.5798 71.1262 39.5028 71.1423 39.4205L72.0999 34.8081C72.1114 34.7537 72.1348 34.7028 72.1683 34.6597C72.202 34.6165 72.2448 34.5822 72.2935 34.5592L76.0343 32.7217C76.2227 32.6299 76.3186 32.69 76.3221 32.9018C76.3744 35.4613 76.0046 37.9537 75.2129 40.3789C75.092 40.7426 74.8349 41.0446 74.4961 41.2209C65.04 46.1104 55.3487 46.4794 45.4218 42.3276C45.3277 42.2889 45.2683 42.2324 45.2439 42.1581C45.2055 42.0276 45.251 41.98 45.38 42.0153C50.5074 43.4274 55.7011 43.7151 60.961 42.8783C61.1562 42.8466 61.2748 42.7319 61.3166 42.5342L62.52 36.7568C62.5303 36.7042 62.558 36.6564 62.5988 36.6209C62.6394 36.5854 62.6908 36.5644 62.745 36.561L64.6285 36.4286C64.8692 36.4109 64.9738 36.5238 64.9425 36.7675C64.6913 38.6844 64.1384 40.4989 63.2839 42.2112C63.1759 42.4301 63.2385 42.5096 63.4723 42.4494Z" fill="url(#paint2_linear_1432_2308)"/>
<path d="M50.5476 51.9446C57.4386 52.7132 63.1486 50.5851 67.6773 45.56C67.8171 45.4051 67.9848 45.293 68.1805 45.2242L73.4588 43.3838C73.4939 43.3703 73.5325 43.3681 73.5688 43.3773C73.6052 43.3868 73.6377 43.4074 73.6615 43.436C73.6853 43.4647 73.6995 43.5002 73.7015 43.5371C73.7037 43.5742 73.694 43.6109 73.6738 43.6422C68.8725 51.226 59.1596 55.2894 50.4795 52.234C49.6514 51.9411 49.6741 51.8447 50.5476 51.9446Z" fill="url(#paint3_linear_1432_2308)"/>
<mask id="mask0_1432_2308" style="mask-type:luminance" maskUnits="userSpaceOnUse" x="41" y="9" width="27" height="50">
<path d="M65.2571 9.07776H43.5794C42.3527 9.07776 41.3583 10.0712 41.3583 11.2968V56.6596C41.3583 57.8851 42.3527 58.8786 43.5794 58.8786H65.2571C66.4838 58.8786 67.4782 57.8851 67.4782 56.6596V11.2968C67.4782 10.0712 66.4838 9.07776 65.2571 9.07776Z" fill="white"/>
</mask>
<g mask="url(#mask0_1432_2308)">
<path d="M65.2571 9.07776H43.5794C42.3527 9.07776 41.3583 10.0712 41.3583 11.2968V56.6596C41.3583 57.8851 42.3527 58.8786 43.5794 58.8786H65.2571C66.4838 58.8786 67.4782 57.8851 67.4782 56.6596V11.2968C67.4782 10.0712 66.4838 9.07776 65.2571 9.07776Z" fill="#2A7EBA"/>
<path opacity="0.2" d="M82.475 7.21209L77.7477 2.23828L26.3247 51.0186L31.052 55.9924L82.475 7.21209Z" fill="#085500"/>
<path opacity="0.2" d="M83.7777 17.6827L79.0504 12.7089L27.6275 61.4892L32.3547 66.463L83.7777 17.6827Z" fill="#085500"/>
<path fill-rule="evenodd" clip-rule="evenodd" d="M48.4723 28.5488C48.776 29.1257 49.3646 30.0547 49.7242 30.7067C49.8363 30.9133 50.4483 31.9124 50.481 32.0296C50.6165 32.0203 50.836 31.8608 50.9527 31.7904C51.5601 31.4198 51.2984 31.462 52.2234 31.6778C52.4803 31.7387 52.742 31.795 53.0315 31.842C54.8486 32.147 56.278 32.1658 57.9691 31.2838C59.2118 30.6316 60.6832 29.3745 61.8509 28.5722C62.6871 27.9999 62.7571 28.0094 62.5003 27.5777C62.449 27.4933 62.4629 27.5167 62.4022 27.4463L62.3089 27.3431C62.304 27.3384 62.2854 27.3197 62.2762 27.315C61.5614 26.6582 60.3048 27.3667 59.7115 27.7231C59.4547 27.8732 59.235 28.0374 58.9874 28.2016C58.9174 28.2486 58.88 28.2767 58.8146 28.3237C58.7772 28.3517 58.7633 28.3565 58.7211 28.3892C58.3756 28.6521 58.4457 29.0602 56.633 29.5153C56.2687 29.6091 54.8813 29.8998 54.531 29.8154V29.6512C54.6899 29.5716 55.3205 29.5246 55.54 29.4917C56.2687 29.3932 57.404 29.1681 58.0346 28.7739C58.1139 28.7223 58.1278 28.6989 58.2306 28.6426C57.8197 26.874 54.3396 27.5073 54.0125 27.3759C53.4473 27.1462 53.1577 26.8224 52.0691 26.8224C51.1302 26.8224 50.3314 27.3055 49.6634 27.7277L48.8788 28.272C48.7291 28.3799 48.631 28.4596 48.4723 28.5488Z" fill="#5CD400"/>
<path fill-rule="evenodd" clip-rule="evenodd" d="M46.0385 29.2888C46.0385 29.4576 46.4027 30.0112 46.5196 30.2082C46.5804 30.3113 46.6317 30.3912 46.6878 30.4943L48.3275 33.309C48.7151 33.9564 48.5377 33.9846 49.556 33.3748C50.5884 32.7508 50.7425 32.8118 50.4575 32.3379L49.1543 30.1003C49.0701 29.9595 48.9954 29.8377 48.9161 29.6922L48.0892 28.2706C47.9163 28.0034 47.6595 28.2331 47.3885 28.3973C47.2157 28.496 47.0755 28.5757 46.9166 28.6741C46.7157 28.7961 46.0385 29.1338 46.0385 29.2888Z" fill="#5CD400"/>
<path fill-rule="evenodd" clip-rule="evenodd" d="M57.8383 27.6278C57.871 27.7452 57.8895 27.7218 57.9737 27.7873C58.0438 27.8436 58.0812 27.8811 58.1325 27.9516C58.2259 28.0782 58.3148 28.1954 58.3568 28.3784C58.4969 28.3409 58.3849 28.3409 58.5904 28.1862C58.6791 28.1204 58.7445 28.0782 58.838 28.0125L59.8609 27.351C60.0103 27.262 60.3187 27.1541 60.4029 27.0416C59.7816 26.7131 59.347 26.8211 58.6932 27.1493L57.8383 27.6278Z" fill="#5CD400"/>
<path fill-rule="evenodd" clip-rule="evenodd" d="M56.4036 21.328L56.4331 22.0062C56.4289 22.0867 56.1252 22.6249 56.0448 22.735C56.028 22.7647 56.0111 22.7816 55.9943 22.7986C55.9309 22.5188 56.239 21.4764 55.2938 20.2049C55.0954 19.9338 54.8761 19.7218 54.6396 19.4803C54.53 19.3702 54.0193 18.8574 53.8547 18.8574C53.6522 18.8574 53.6522 19.0395 53.648 19.12C53.61 19.9042 53.61 20.3915 53.8505 21.1246C54.3359 22.5868 55.4837 22.8536 55.6187 22.968C55.6652 23.0061 55.7706 23.2012 55.7791 23.2478C55.8001 23.3283 55.7876 23.6079 55.7876 23.7098C55.7876 24.0148 55.7876 24.32 55.7876 24.6208C55.7074 24.5657 55.4162 24.2776 55.3401 24.1885C55.2599 24.091 55.2642 23.9894 55.2347 23.8581C54.9183 22.5315 54.1459 21.8069 52.9305 21.2009C52.1796 20.8279 51.9179 20.6711 52.2343 21.7814C52.517 22.7774 52.9433 23.5528 53.8253 24.0656C54.091 24.2181 54.6101 24.4174 55.0279 24.4174C55.1798 24.7055 55.7876 25.1209 55.7876 25.2691V26.2693C55.184 26.2693 54.2515 26.8118 54.1796 27.0916C54.4835 27.1636 54.0827 27.2102 54.8211 27.2102C55.7031 27.2102 56.5682 27.1297 57.3825 27.4601C57.5471 27.5279 57.5683 27.5915 57.6992 27.5152C57.7918 27.4559 57.9227 27.3542 58.0156 27.3288C57.9184 26.9643 56.969 26.2693 56.2263 26.2693V24.0317C56.2263 23.9385 56.3951 23.8919 56.5849 23.7733C56.8424 23.6121 56.7877 23.7098 57.1083 23.7098C58.4883 23.7098 59.155 23.1716 59.9399 22.379L60.2775 22.0146C60.4336 21.8281 60.5939 21.7306 60.5939 21.5612C60.5939 21.3153 60.2733 21.328 59.9187 21.328C56.9438 21.328 56.7285 23.1631 56.4668 23.358C56.3951 23.4088 56.3065 23.4512 56.2263 23.5062C56.2263 23.0909 56.2643 23.2182 56.5133 22.7604C57.007 21.8408 56.7792 22.4637 57.8595 21.5527C57.9734 21.4595 58.0156 21.383 58.1085 21.2771C58.7076 20.6034 58.9482 19.5651 59.1128 18.6625C59.1465 18.4971 59.0706 18.3573 58.9228 18.3573C58.6191 18.3573 57.602 19.1116 57.2771 19.438C56.7919 19.9211 56.4036 20.6118 56.4036 21.328Z" fill="#5CD400"/>
<path d="M54.2301 19.8273C54.368 20.4091 54.9473 21.8668 55.9773 23.0428V26.6257V24.9722C55.7627 24.8037 55.2876 24.4208 55.1036 24.2371C54.8738 24.0075 53.3105 22.6753 52.7587 21.8024" stroke="white" stroke-width="0.1" stroke-linecap="round"/>
<path d="M58.5521 22.3828C57.8371 22.7408 57.0907 23.1861 56.6671 23.4562C56.8044 23.319 57.6977 22.7989 58.5521 22.3828C59.0524 22.132 59.5372 21.924 59.8856 21.8484C59.5734 21.9164 59.0698 22.1304 58.5521 22.3828Z" fill="#5CD400"/>
<path d="M58.4601 19.2759C58.0157 19.9039 57.0715 21.2696 56.8508 21.7105L55.9773 23.0428V23.8132M55.9773 23.8132L56.6255 23.4769L56.6671 23.4561M55.9773 23.8132V26.6101M56.6671 23.4561C57.3873 22.9968 59.0395 22.0321 59.8855 21.8483C59.058 22.0281 56.8878 23.2356 56.6671 23.4561Z" stroke="white" stroke-width="0.1" stroke-linecap="round"/>
</g>
<path d="M65.2572 9.58215H43.5795C42.6316 9.58215 41.8632 10.3498 41.8632 11.2969V56.6597C41.8632 57.6067 42.6316 58.3744 43.5795 58.3744H65.2572C66.2051 58.3744 66.9735 57.6067 66.9735 56.6597V11.2969C66.9735 10.3498 66.2051 9.58215 65.2572 9.58215Z" stroke="url(#paint4_linear_1432_2308)"/>
<path d="M41.9101 17.4392C41.9101 17.1854 41.7042 16.9797 41.4502 16.9797C41.1962 16.9797 40.9904 17.1854 40.9904 17.4392V20.3794C40.9904 20.6331 41.1962 20.8388 41.4502 20.8388C41.7042 20.8388 41.9101 20.6331 41.9101 20.3794V17.4392Z" fill="#00477A"/>
<path d="M41.9101 21.482C41.9101 21.2283 41.7042 21.0226 41.4502 21.0226C41.1962 21.0226 40.9904 21.2283 40.9904 21.482V24.4223C40.9904 24.676 41.1962 24.8817 41.4502 24.8817C41.7042 24.8817 41.9101 24.676 41.9101 24.4223V21.482Z" fill="#00477A"/>
<path d="M67.8461 19.4606C67.8461 19.2069 67.6402 19.0012 67.3862 19.0012C67.1323 19.0012 66.9264 19.2069 66.9264 19.4606V22.4009C66.9264 22.6546 67.1323 22.8603 67.3862 22.8603C67.6402 22.8603 67.8461 22.6546 67.8461 22.4009V19.4606Z" fill="#00477A"/>
<path d="M68.4093 18.2881C73.2292 18.3795 76.0513 20.4355 75.7779 24.3408C75.1366 33.4132 59.3268 46.0953 47.1638 47.1529C40.1798 47.7623 36.9937 44.0889 39.1656 38.1669C39.506 37.2398 39.6359 37.1911 39.5547 38.0211C39.5381 38.2153 39.3909 38.6593 39.3736 38.9417C39.0945 44.153 44.7298 45.9881 52.737 43.1756C64.9685 38.8784 75.5346 27.1394 72.5778 21.2386C71.823 19.7262 70.3564 18.8057 68.1785 18.4767C68.1702 18.4753 68.1642 18.4717 68.1613 18.466C68.1583 18.4604 68.1583 18.4529 68.1611 18.4445C68.1642 18.436 68.17 18.4267 68.1783 18.4174C68.1866 18.4081 68.1969 18.3993 68.2082 18.3916C68.2431 18.3684 68.278 18.3452 68.313 18.322C68.3481 18.2988 68.38 18.2875 68.4093 18.2881Z" fill="white"/>
<path d="M67.7429 18.1729C72.4161 18.2485 75.1471 20.2301 74.8714 24.0087C74.2259 32.7869 58.8632 45.0973 47.0672 46.1525C40.2939 46.7603 37.2144 43.2149 39.3356 37.4804C39.6684 36.5825 39.7942 36.5353 39.7134 37.3384C39.6968 37.5264 39.5529 37.9562 39.5355 38.2296C39.2512 43.2714 44.7102 45.0319 52.4816 42.2902C64.3525 38.1009 74.6283 26.7169 71.777 21.016C71.049 19.5551 69.6295 18.6683 67.5186 18.3558C67.5105 18.3546 67.5049 18.351 67.5019 18.3456C67.499 18.3401 67.499 18.333 67.5019 18.3248C67.5049 18.3165 67.5105 18.3074 67.5186 18.2986C67.5265 18.2897 67.5366 18.281 67.5477 18.2735C67.5816 18.2509 67.6155 18.2286 67.6495 18.206C67.6834 18.1834 67.7147 18.1723 67.7429 18.1729Z" fill="#FD9430"/>
<path d="M67.7771 18.1253C72.3388 18.0337 74.9369 19.8158 74.5357 23.4056C73.5978 31.7448 58.1616 43.9448 46.6031 45.3565C39.9661 46.1691 37.0822 42.9176 39.3548 37.4102C39.7112 36.548 39.8358 36.4988 39.7288 37.2625C39.706 37.4411 39.5503 37.8536 39.5239 38.113C39.0695 42.8999 44.3401 44.3771 52.0267 41.5081C63.7682 37.1244 74.2033 25.9796 71.6179 20.6782C70.958 19.3193 69.6025 18.5288 67.5516 18.3065C67.5437 18.3057 67.5383 18.3024 67.5356 18.2974C67.533 18.2923 67.5332 18.2855 67.5365 18.2776C67.5395 18.2697 67.5455 18.2609 67.5536 18.2522C67.5617 18.2433 67.5718 18.2348 67.5829 18.2276C67.6168 18.205 67.6507 18.1824 67.6847 18.1598C67.7186 18.1372 67.7495 18.1257 67.7771 18.1253Z" fill="#FD9430"/>
<path d="M39.7789 7.46399H37.3558V9.88474H39.7789V7.46399Z" fill="url(#paint5_linear_1432_2308)"/>
<path d="M44.0193 5.24487H41.1924V8.06908H44.0193V5.24487Z" fill="url(#paint6_linear_1432_2308)"/>
<path d="M39.7789 4.03455H37.5577V6.25357H39.7789V4.03455Z" fill="url(#paint7_linear_1432_2308)"/>
<path d="M36.3462 3.6311H34.7308V5.24494H36.3462V3.6311Z" fill="url(#paint8_linear_1432_2308)"/>
<path d="M35.9424 1.00867H34.9327V2.01731H35.9424V1.00867Z" fill="url(#paint9_linear_1432_2308)"/>
<path d="M39.1731 0.806885H37.5577V2.42072H39.1731V0.806885Z" fill="url(#paint10_linear_1432_2308)"/>
<path d="M28.3725 38.7689C28.7313 39.7382 29.2174 40.6389 29.8306 41.4713C29.8393 41.483 29.8451 41.4965 29.8476 41.5108C29.8502 41.5251 29.8492 41.5399 29.8447 41.5538C29.8405 41.5677 29.833 41.5804 29.8227 41.5909C29.8126 41.6014 29.8001 41.6095 29.7862 41.6141L28.1346 42.1939C28.0959 42.2074 28.0535 42.2064 28.0155 42.1908C27.9775 42.1753 27.9467 42.1465 27.9287 42.1097C26.8969 40.0069 26.3791 37.7845 26.3755 35.4422C26.3759 35.4188 26.3874 35.4101 26.4104 35.4162C27.7346 35.7892 29.0736 36.0958 30.4273 36.3363C34.1314 36.9931 36.8026 39.8034 37.6848 43.3942C37.6886 43.4089 37.6876 43.4244 37.6816 43.4385C37.6757 43.4525 37.6652 43.4642 37.6517 43.4716C37.6384 43.4791 37.6228 43.4823 37.6073 43.4803C37.5919 43.4785 37.5776 43.4716 37.5663 43.4611C37.1681 43.0772 36.6845 42.7399 36.2499 42.4297C34.6279 41.2756 32.5691 41.0757 30.6338 41.4527C30.6122 41.4568 30.5898 41.4559 30.5684 41.4505C30.547 41.4451 30.5272 41.435 30.5105 41.4208C29.6969 40.7493 28.9544 39.6583 28.4399 38.7387C28.4351 38.7308 28.4274 38.7247 28.4183 38.7219C28.4095 38.7191 28.3998 38.7197 28.3913 38.7235C28.3828 38.7272 28.3761 38.734 28.3727 38.7425C28.3693 38.7508 28.3691 38.7602 28.3725 38.7689Z" fill="#48A600"/>
<path d="M32.8857 35.1536L32.8441 36.3761C32.842 36.433 32.814 36.4532 32.7599 36.4368L31.6206 36.0965C31.5889 36.087 31.5616 36.0667 31.5439 36.039C31.5261 36.0114 31.5188 35.9781 31.5237 35.9456C31.7133 34.6231 32.1143 33.3667 32.7263 32.1761C32.7508 32.1283 32.7827 32.1233 32.8227 32.1608C33.8107 33.1018 35.1991 34.0118 35.983 34.8746C37.4861 36.5296 38.0032 38.8899 37.4719 41.0804C37.4685 41.0937 37.461 41.1056 37.4505 41.1145C37.4398 41.1234 37.4269 41.1286 37.4132 41.1296C37.3996 41.1307 37.3861 41.1272 37.3746 41.1202C37.3633 41.1129 37.3546 41.102 37.3498 41.0895C36.5487 39.0843 35.1767 37.595 33.2332 36.6214C33.1976 36.6037 33.1671 36.5774 33.1443 36.545C33.1215 36.5127 33.1072 36.4752 33.1023 36.4358L32.9428 35.151C32.9424 35.1435 32.9392 35.1365 32.9335 35.1312C32.9279 35.1262 32.9206 35.1236 32.9129 35.1238C32.9054 35.1242 32.8982 35.1276 32.8931 35.1331C32.8879 35.1387 32.8853 35.1462 32.8857 35.1536Z" fill="#5CD400"/>
<path d="M28.6166 46.1538C28.6467 46.1729 28.6759 46.1957 28.7042 46.222C28.7319 46.249 28.7613 46.2694 28.7926 46.2837C32.2476 47.8467 35.6839 47.6942 39.102 45.8264C39.1824 45.7818 39.1929 45.7947 39.1339 45.8649C37.6656 47.602 35.4167 48.8987 33.1447 49.0885C29.9176 49.3595 27.025 47.3385 25.1203 44.8811C25.1156 44.875 25.1128 44.8678 25.1116 44.8603C25.1106 44.8528 25.1116 44.845 25.1142 44.8379C25.117 44.8308 25.1217 44.8246 25.1277 44.8197C25.1336 44.8149 25.1407 44.8117 25.1483 44.8105C26.5293 44.567 28.0845 43.4595 29.1256 43.009C31.1689 42.1248 33.9082 41.8263 35.8016 43.1359C36.9705 43.943 37.8471 44.7306 39.3231 44.9029C39.3348 44.9041 39.3458 44.9089 39.3544 44.9168C39.3631 44.9244 39.369 44.9347 39.3716 44.946C39.374 44.9575 39.3728 44.9692 39.368 44.9799C39.3633 44.9906 39.3554 44.9995 39.3453 45.0053C35.9345 47.0293 32.362 47.4027 28.6279 46.1251C28.5396 46.0945 28.536 46.1039 28.6166 46.1538Z" fill="#5CD400"/>
<path d="M32.9689 62.9007C32.9689 62.7416 33.0228 62.6189 33.1304 62.5328C33.2382 62.4424 33.3869 62.3972 33.5763 62.3972L35.1399 66.1478L35.0172 66.4512L35.0624 66.4705L36.7166 62.3972C36.9062 62.3972 37.0548 62.4424 37.1624 62.5328C37.2745 62.6232 37.3304 62.748 37.3304 62.9072V67.0321C36.9298 67.0321 36.7295 66.8665 36.7295 66.5351V63.8174L36.8975 63.372L36.8458 63.3591L35.4049 66.8579C35.3835 66.9095 35.3489 66.9504 35.3015 66.9805C35.2542 67.015 35.2046 67.0321 35.1529 67.0321C35.0969 67.0321 35.0452 67.017 34.9978 66.987C34.9505 66.9569 34.916 66.9137 34.8944 66.8579L33.4535 63.3526L33.4018 63.372L33.5698 63.8109V66.5351C33.5698 66.6987 33.5181 66.8234 33.4147 66.9095C33.3158 66.9912 33.1672 67.0321 32.9689 67.0321V62.9007ZM38.4939 68.3168C38.2267 68.3168 38.0868 68.1618 38.0739 67.852C38.2031 67.8691 38.2958 67.8778 38.3517 67.8778C38.5413 67.8778 38.692 67.8219 38.804 67.71C38.9204 67.598 39.0389 67.4043 39.1594 67.129L39.2887 66.8385L38.0157 63.7335C38.0458 63.7206 38.0846 63.7099 38.132 63.7012C38.1837 63.6925 38.2267 63.6883 38.2613 63.6883C38.3517 63.6925 38.4335 63.7183 38.5068 63.7657C38.5801 63.8087 38.6318 63.8668 38.6619 63.94L39.5277 66.1478L39.4373 66.406L39.476 66.4253L40.4582 63.94C40.4883 63.8626 40.538 63.8023 40.6068 63.7593C40.6801 63.7119 40.7619 63.6883 40.8524 63.6883C40.8911 63.6883 40.9341 63.6925 40.9816 63.7012C41.0333 63.7099 41.072 63.7206 41.0979 63.7335L39.644 67.2904C39.5019 67.6347 39.3426 67.8907 39.1659 68.0585C38.9892 68.2306 38.7653 68.3168 38.4939 68.3168ZM43.6401 67.0321C43.5109 67.0063 43.4097 66.9525 43.3364 66.8708C43.2633 66.7846 43.2266 66.6813 43.2266 66.5609C43.2266 66.4792 43.2459 66.3931 43.2847 66.3027L44.829 62.5909C44.8807 62.4618 44.9799 62.3972 45.1263 62.3972C45.2642 62.3972 45.3611 62.4618 45.417 62.5909L46.9613 66.3027C47.0001 66.3931 47.0195 66.4792 47.0195 66.5609C47.0195 66.6771 46.9829 66.7782 46.9096 66.8643C46.8365 66.9504 46.7352 67.0063 46.6059 67.0321L46.0503 65.683H44.1958L43.6401 67.0321ZM45.8629 65.1601L45.0293 63.0492L44.9776 63.0686L45.094 63.3655L44.3832 65.1601H45.8629ZM48.7593 68.3232C48.5351 68.3232 48.3263 68.2867 48.1325 68.2135C47.9386 68.1402 47.7856 68.0414 47.6737 67.9165C47.5617 67.7961 47.5057 67.6648 47.5057 67.5227C47.5057 67.4108 47.5423 67.3291 47.6156 67.2774C47.6931 67.2258 47.7965 67.2 47.9257 67.2C47.9342 67.4023 48.0117 67.5615 48.1583 67.6777C48.309 67.7981 48.5093 67.8584 48.7593 67.8584C49.3105 67.8584 49.5863 67.5915 49.5863 67.058V66.6836C49.6465 66.6319 49.6917 66.5845 49.722 66.5415L49.7026 66.5093C49.5777 66.6426 49.4204 66.7523 49.2309 66.8385C49.0456 66.9246 48.8582 66.9676 48.6688 66.9676C48.2983 66.9676 47.9946 66.8665 47.7577 66.6642C47.5251 66.4576 47.4088 66.1865 47.4088 65.8508V64.8115C47.4088 64.592 47.4625 64.3984 47.5703 64.2305C47.6822 64.0585 47.833 63.9249 48.0226 63.8303C48.2165 63.7357 48.4297 63.6883 48.6623 63.6883C49.0844 63.6883 49.4377 63.8733 49.722 64.2434L49.7479 64.2176L49.6186 64.0562C49.6186 63.9358 49.6594 63.8454 49.7414 63.7851C49.8274 63.7206 49.9653 63.6883 50.1549 63.6883V66.9999C50.1549 67.2581 50.0946 67.4862 49.974 67.6841C49.8577 67.8865 49.694 68.0434 49.4829 68.1554C49.2717 68.2673 49.0306 68.3232 48.7593 68.3232ZM48.7722 66.477C49.0004 66.477 49.1942 66.4167 49.3537 66.2962C49.513 66.1714 49.5928 66.0251 49.5928 65.8573V64.8051C49.5928 64.6285 49.513 64.4801 49.3537 64.3596C49.1986 64.2392 49.009 64.1789 48.7851 64.1789C48.5266 64.1789 48.3263 64.237 48.1842 64.3532C48.042 64.4651 47.971 64.6265 47.971 64.8373V65.825C47.971 66.0273 48.0398 66.1865 48.1777 66.3027C48.3199 66.4189 48.518 66.477 48.7722 66.477ZM52.3991 64.1853C52.1578 64.1853 51.9575 64.2586 51.7982 64.4048C51.6387 64.5468 51.5591 64.7211 51.5591 64.9277V66.619C51.5591 66.761 51.5117 66.8665 51.417 66.9353C51.3265 66.9999 51.1864 67.0321 50.997 67.0321V64.166C50.997 63.8474 51.1779 63.6883 51.5397 63.6883V64.0821C51.4707 64.1553 51.4234 64.2198 51.3976 64.2757L51.4234 64.3015C51.6991 63.8926 52.0437 63.6883 52.4573 63.6883C52.6124 63.6883 52.7307 63.727 52.8127 63.8045C52.8944 63.8777 52.9354 63.9681 52.9354 64.0756C52.9354 64.1531 52.916 64.2219 52.8773 64.2822C52.7565 64.2176 52.5972 64.1853 52.3991 64.1853ZM53.8174 63.2041C53.6969 63.2041 53.5955 63.1654 53.5137 63.0879C53.432 63.0105 53.391 62.9136 53.391 62.7974C53.391 62.6812 53.432 62.5866 53.5137 62.5134C53.5955 62.4359 53.6969 62.3972 53.8174 62.3972C53.9337 62.3972 54.0329 62.4359 54.1147 62.5134C54.1964 62.5866 54.2374 62.6812 54.2374 62.7974C54.2374 62.9136 54.1964 63.0105 54.1147 63.0879C54.0329 63.1654 53.9337 63.2041 53.8174 63.2041ZM53.5331 64.1014C53.5331 63.9594 53.5784 63.8561 53.6688 63.7916C53.7635 63.7228 53.9057 63.6883 54.0953 63.6883V66.619C54.0953 66.761 54.0478 66.8665 53.9531 66.9353C53.8627 66.9999 53.7227 67.0321 53.5331 67.0321V64.1014ZM56.819 62.9007C56.819 62.7416 56.8707 62.6189 56.9741 62.5328C57.0819 62.4424 57.2326 62.3972 57.4264 62.3972V66.5286C57.4264 66.6878 57.3727 66.8127 57.2649 66.903C57.1615 66.9892 57.0129 67.0321 56.819 67.0321V62.9007ZM58.4025 64.166C58.4025 63.8474 58.5834 63.6883 58.9453 63.6883V64.1014C58.9065 64.1402 58.8613 64.1983 58.8096 64.2757L58.8354 64.3015C58.9647 64.1208 59.1327 63.9745 59.3394 63.8626C59.5462 63.7464 59.7701 63.6883 60.0114 63.6883C60.3603 63.6883 60.636 63.7916 60.8385 63.9981C61.0408 64.2047 61.1422 64.4716 61.1422 64.7986V66.619C61.1422 66.761 61.0947 66.8665 61 66.9353C60.9096 66.9999 60.7694 67.0321 60.58 67.0321V64.8567C60.58 64.6501 60.5219 64.4865 60.4056 64.3661C60.2893 64.2457 60.1126 64.1853 59.8757 64.1853C59.7162 64.1853 59.5656 64.2198 59.4234 64.2886C59.2855 64.3532 59.1734 64.4436 59.0874 64.5598C59.0054 64.6717 58.9647 64.7944 58.9647 64.9277V66.619C58.9647 66.761 58.9172 66.8665 58.8225 66.9353C58.732 66.9999 58.5919 67.0321 58.4025 67.0321V64.166ZM61.9196 64.1466C61.9196 64.0046 61.9628 63.8926 62.0488 63.8109C62.1393 63.7292 62.275 63.6883 62.4559 63.6883V64.0498L62.3267 64.2176L62.3461 64.2434C62.4797 64.0714 62.6326 63.9358 62.8048 63.8368C62.9773 63.7377 63.1818 63.6883 63.4187 63.6883C63.7892 63.6883 64.0887 63.7916 64.3168 63.9981C64.5452 64.2005 64.6593 64.4716 64.6593 64.8115V65.9154C64.6593 66.2553 64.541 66.5264 64.3039 66.7287C64.067 66.9311 63.7591 67.0321 63.3799 67.0321C63.1776 67.0321 62.9902 66.9912 62.8177 66.9095C62.6497 66.8234 62.5011 66.7116 62.3719 66.5738L62.3525 66.6061C62.3828 66.6491 62.428 66.6965 62.4882 66.7481V67.8842C62.4882 68.177 62.2988 68.3232 61.9196 68.3232V64.1466ZM63.2959 66.5351C63.5501 66.5351 63.7482 66.4792 63.8904 66.3672C64.0325 66.251 64.1036 66.0919 64.1036 65.8895V64.8373C64.1036 64.6265 64.0325 64.4651 63.8904 64.3532C63.7482 64.2412 63.5479 64.1853 63.2894 64.1853C63.0613 64.1853 62.8694 64.2457 62.7144 64.3661C62.5593 64.4823 62.4818 64.6285 62.4818 64.8051V65.9218C62.4818 66.0939 62.555 66.2404 62.7014 66.3608C62.848 66.477 63.0461 66.5351 63.2959 66.5351ZM68.112 66.5545C68.112 66.873 67.931 67.0321 67.5692 67.0321V66.619C67.608 66.5803 67.6532 66.5222 67.7049 66.4447L67.679 66.4189C67.5498 66.6039 67.3861 66.7523 67.188 66.8643C66.9941 66.9763 66.7809 67.0321 66.5483 67.0321C66.3157 67.0321 66.1089 66.9827 65.928 66.8837C65.7513 66.7846 65.6136 66.647 65.5144 66.4705C65.4197 66.294 65.3723 66.0961 65.3723 65.8766V64.1014C65.3723 63.9594 65.4197 63.8561 65.5144 63.7916C65.6091 63.7228 65.7513 63.6883 65.9409 63.6883V65.8508C65.9409 66.0574 66.0013 66.223 66.1218 66.3479C66.2468 66.4727 66.4297 66.5351 66.671 66.5351C66.8304 66.5351 66.977 66.5028 67.1104 66.4383C67.2439 66.3695 67.3495 66.2791 67.427 66.1671C67.5088 66.0509 67.5498 65.9261 67.5498 65.7927V64.1014C67.5498 63.9594 67.595 63.8561 67.6855 63.7916C67.7802 63.7228 67.9224 63.6883 68.112 63.6883V66.5545ZM70.24 67.0321C69.9341 67.0321 69.706 66.946 69.5551 66.7739C69.4043 66.5974 69.329 66.3672 69.329 66.0832V64.1982H68.728C68.728 64.052 68.7603 63.94 68.825 63.8626C68.8896 63.7851 68.9778 63.7464 69.0899 63.7464H69.3354V63.1331C69.3354 62.9911 69.3807 62.8878 69.4711 62.8233C69.5658 62.7545 69.706 62.72 69.8911 62.72V63.7464H70.7505C70.7505 64.0476 70.6148 64.1982 70.3434 64.1982H69.8976V66.0638C69.8976 66.2359 69.9277 66.3586 69.988 66.4318C70.0527 66.5006 70.1667 66.5351 70.3305 66.5351C70.4813 66.5351 70.6235 66.4963 70.757 66.4189C70.8129 66.4748 70.841 66.5502 70.841 66.6448C70.841 66.7481 70.787 66.8385 70.6794 66.9159C70.5718 66.9934 70.4252 67.0321 70.24 67.0321Z" fill="black"/>
<path d="M33.1303 62.5327L33.2565 62.6903L33.2583 62.6887L33.2603 62.6872L33.1303 62.5327ZM33.5762 62.3972L33.7627 62.3195L33.7108 62.1954H33.5762V62.3972ZM35.1398 66.1477L35.327 66.2234L35.3581 66.1465L35.3264 66.07L35.1398 66.1477ZM35.0171 66.4511L34.8299 66.3755L34.7558 66.5586L34.9375 66.6365L35.0171 66.4511ZM35.0623 66.4705L34.9827 66.6559L35.1722 66.737L35.2495 66.5463L35.0623 66.4705ZM36.7165 62.3972V62.1954H36.5806L36.5295 62.3213L36.7165 62.3972ZM37.1623 62.5327L37.0325 62.6872L37.0341 62.6885L37.0355 62.6897L37.1623 62.5327ZM37.3303 67.0321V67.2338H37.5322V67.0321H37.3303ZM36.7294 63.8173L36.5406 63.7461L36.5275 63.7806V63.8173H36.7294ZM36.8974 63.3719L37.0864 63.4431L37.1663 63.2311L36.9465 63.1762L36.8974 63.3719ZM36.8457 63.359L36.8948 63.1633L36.7253 63.121L36.6591 63.2824L36.8457 63.359ZM35.4048 66.8578L35.5911 66.9355L35.5915 66.9344L35.4048 66.8578ZM35.3014 66.9804L35.1932 66.8102L35.1877 66.8136L35.1827 66.8172L35.3014 66.9804ZM34.8943 66.8578L35.0829 66.7854L35.0821 66.7834L35.0811 66.7811L34.8943 66.8578ZM33.4534 63.3526L33.6402 63.2759L33.5659 63.0949L33.3825 63.1637L33.4534 63.3526ZM33.4017 63.3719L33.3308 63.1831L33.1406 63.2543L33.2131 63.4439L33.4017 63.3719ZM33.5697 63.8109H33.7716V63.7736L33.7583 63.7389L33.5697 63.8109ZM33.4146 66.9094L33.5432 67.065L33.544 67.0644L33.4146 66.9094ZM32.9688 67.0321H32.7668V67.2338H32.9688V67.0321ZM33.1707 62.9007C33.1707 62.7919 33.2046 62.7318 33.2565 62.6903L33.0043 62.3752C32.841 62.5057 32.7668 62.6909 32.7668 62.9007H33.1707ZM33.2603 62.6872C33.3207 62.6366 33.4176 62.5989 33.5762 62.5989V62.1954C33.3559 62.1954 33.1555 62.2481 33.0005 62.3782L33.2603 62.6872ZM33.3898 62.4748L34.9535 66.2254L35.3264 66.07L33.7627 62.3195L33.3898 62.4748ZM34.9527 66.0721L34.8299 66.3755L35.2043 66.5268L35.327 66.2234L34.9527 66.0721ZM34.9375 66.6365L34.9827 66.6559L35.1419 66.2851L35.0966 66.2657L34.9375 66.6365ZM35.2495 66.5463L36.9036 62.473L36.5295 62.3213L34.8753 66.3946L35.2495 66.5463ZM36.7165 62.5989C36.8752 62.5989 36.9721 62.6366 37.0325 62.6872L37.2923 62.3782C37.1373 62.2481 36.937 62.1954 36.7165 62.1954V62.5989ZM37.0355 62.6897C37.0945 62.7373 37.1284 62.8014 37.1284 62.9071H37.5322C37.5322 62.6943 37.4543 62.5089 37.2893 62.3758L37.0355 62.6897ZM37.1284 62.9071V67.0321H37.5322V62.9071H37.1284ZM37.3303 66.8304C37.1528 66.8304 37.0573 66.7928 37.0084 66.7525C36.9668 66.718 36.9313 66.6585 36.9313 66.535H36.5275C36.5275 66.7428 36.5923 66.9318 36.751 67.0632C36.9024 67.1884 37.1072 67.2338 37.3303 67.2338V66.8304ZM36.9313 66.535V63.8173H36.5275V66.535H36.9313ZM36.9184 63.8885L37.0864 63.4431L36.7086 63.3007L36.5406 63.7461L36.9184 63.8885ZM36.9465 63.1762L36.8948 63.1633L36.7968 63.5547L36.8485 63.5676L36.9465 63.1762ZM36.6591 63.2824L35.2182 66.7811L35.5915 66.9344L37.0325 63.4357L36.6591 63.2824ZM35.2184 66.7801C35.2129 66.7936 35.2057 66.8023 35.1932 66.8102L35.4098 67.1507C35.492 67.0985 35.5538 67.0252 35.5911 66.9355L35.2184 66.7801ZM35.1827 66.8172C35.1651 66.8302 35.1562 66.8304 35.1528 66.8304V67.2338C35.2527 67.2338 35.3432 67.1995 35.4203 67.1436L35.1827 66.8172ZM35.1528 66.8304C35.1354 66.8304 35.1213 66.8263 35.1061 66.8166L34.8895 67.1572C34.969 67.2078 35.0583 67.2338 35.1528 67.2338V66.8304ZM35.1061 66.8166C35.0978 66.8114 35.09 66.8039 35.0829 66.7854L34.7059 66.9302C34.7419 67.0236 34.803 67.1021 34.8895 67.1572L35.1061 66.8166ZM35.0811 66.7811L33.6402 63.2759L33.2666 63.4292L34.7075 66.9344L35.0811 66.7811ZM33.3825 63.1637L33.3308 63.1831L33.4728 63.5607L33.5245 63.5414L33.3825 63.1637ZM33.2131 63.4439L33.3811 63.8829L33.7583 63.7389L33.5903 63.2999L33.2131 63.4439ZM33.3678 63.8109V66.535H33.7716V63.8109H33.3678ZM33.3678 66.535C33.3678 66.6528 33.3328 66.715 33.2854 66.7545L33.544 67.0644C33.7034 66.9318 33.7716 66.7442 33.7716 66.535H33.3678ZM33.286 66.7539C33.2383 66.7934 33.1442 66.8304 32.9688 66.8304V67.2338C33.1897 67.2338 33.393 67.189 33.5432 67.065L33.286 66.7539ZM33.1707 67.0321V62.9007H32.7668V67.0321H33.1707ZM38.0738 67.8519L38.1004 67.652L37.862 67.6201L37.8721 67.8604L38.0738 67.8519ZM38.8039 67.7099L38.6638 67.5647L38.6626 67.5659L38.6612 67.5673L38.8039 67.7099ZM39.1593 67.1289L38.9748 67.047L38.9744 67.048L39.1593 67.1289ZM39.2886 66.8384L39.4731 66.9203L39.508 66.8417L39.4755 66.762L39.2886 66.8384ZM38.0156 63.7334L37.9361 63.548L37.7535 63.6261L37.8289 63.8099L38.0156 63.7334ZM38.1319 63.7011L38.0988 63.5022L38.0972 63.5024L38.0958 63.5026L38.1319 63.7011ZM38.2612 63.6882L38.2709 63.4867L38.266 63.4865H38.2612V63.6882ZM38.5067 63.7657L38.3971 63.9351L38.4007 63.9374L38.4043 63.9396L38.5067 63.7657ZM38.6618 63.94L38.8498 63.8664L38.8492 63.8647L38.8486 63.8631L38.6618 63.94ZM39.5276 66.1477L39.7182 66.2143L39.7429 66.1437L39.7156 66.0741L39.5276 66.1477ZM39.4372 66.4059L39.2466 66.3394L39.1878 66.507L39.3469 66.5863L39.4372 66.4059ZM39.4759 66.4253L39.3857 66.6056L39.5828 66.7043L39.6637 66.4993L39.4759 66.4253ZM40.4581 63.94L40.6459 64.014L40.6463 64.013L40.4581 63.94ZM40.6067 63.7592L40.7137 63.9303L40.7151 63.9295L40.7164 63.9287L40.6067 63.7592ZM40.9815 63.7011L40.9453 63.8996L40.9467 63.8998L40.9484 63.9L40.9815 63.7011ZM41.0978 63.7334L41.2848 63.8097L41.3554 63.6366L41.188 63.5531L41.0978 63.7334ZM39.6439 67.2903L39.8307 67.3672L39.8309 67.3666L39.6439 67.2903ZM39.1658 68.0585L39.0267 67.9122L39.0248 67.914L39.1658 68.0585ZM38.4938 68.115C38.4005 68.115 38.3601 68.0894 38.3383 68.0653C38.3121 68.0363 38.281 67.9736 38.2755 67.8434L37.8721 67.8604C37.8795 68.0401 37.925 68.2098 38.0387 68.3357C38.157 68.4666 38.3201 68.5184 38.4938 68.5184V68.115ZM38.0471 68.0518C38.1768 68.0692 38.281 68.0795 38.3516 68.0795V67.676C38.3102 67.676 38.2295 67.6691 38.1004 67.652L38.0471 68.0518ZM38.3516 68.0795C38.5834 68.0795 38.7896 68.0095 38.9467 67.8525L38.6612 67.5673C38.5943 67.6341 38.4988 67.676 38.3516 67.676V68.0795ZM38.9441 67.8551C39.0895 67.7153 39.2207 67.4922 39.3443 67.2098L38.9744 67.048C38.8568 67.3165 38.751 67.4807 38.6638 67.5647L38.9441 67.8551ZM39.3439 67.2108L39.4731 66.9203L39.104 66.7565L38.9748 67.047L39.3439 67.2108ZM39.4755 66.762L38.2026 63.657L37.8289 63.8099L39.1018 66.9149L39.4755 66.762ZM38.0952 63.9188C38.1065 63.914 38.1293 63.9067 38.1681 63.8996L38.0958 63.5026C38.0399 63.5129 37.9849 63.527 37.9361 63.548L38.0952 63.9188ZM38.1653 63.9C38.2109 63.8926 38.242 63.89 38.2612 63.89V63.4865C38.2115 63.4865 38.1564 63.4926 38.0988 63.5022L38.1653 63.9ZM38.2517 63.8898C38.3078 63.8924 38.3549 63.9079 38.3971 63.9351L38.6164 63.5962C38.5122 63.5289 38.3955 63.4928 38.2709 63.4867L38.2517 63.8898ZM38.4043 63.9396C38.4425 63.962 38.4629 63.9874 38.475 64.0168L38.8486 63.8631C38.8003 63.7463 38.7173 63.6553 38.6091 63.5918L38.4043 63.9396ZM38.4738 64.0136L39.3396 66.2213L39.7156 66.0741L38.8498 63.8664L38.4738 64.0136ZM39.337 66.0811L39.2466 66.3394L39.6278 66.4725L39.7182 66.2143L39.337 66.0811ZM39.3469 66.5863L39.3857 66.6056L39.5662 66.2449L39.5274 66.2256L39.3469 66.5863ZM39.6637 66.4993L40.6459 64.014L40.2703 63.8659L39.2882 66.3513L39.6637 66.4993ZM40.6463 64.013C40.661 63.9751 40.6826 63.9497 40.7137 63.9303L40.4997 63.5882C40.3929 63.6547 40.3155 63.75 40.2699 63.867L40.6463 64.013ZM40.7164 63.9287C40.7557 63.9033 40.7991 63.89 40.8522 63.89V63.4865C40.7244 63.4865 40.6043 63.5206 40.4971 63.5898L40.7164 63.9287ZM40.8522 63.89C40.8765 63.89 40.9072 63.8926 40.9453 63.8996L41.0176 63.5026C40.9611 63.4923 40.9056 63.4865 40.8522 63.4865V63.89ZM40.9484 63.9C40.9692 63.9037 40.9845 63.9071 40.9952 63.9101C41.0067 63.9132 41.0097 63.915 41.0075 63.9138L41.188 63.5531C41.1351 63.5266 41.073 63.5119 41.0148 63.5022L40.9484 63.9ZM40.9108 63.6572L39.457 67.214L39.8309 67.3666L41.2848 63.8097L40.9108 63.6572ZM39.4574 67.2134C39.3209 67.5441 39.1749 67.7716 39.0267 67.9122L39.3049 68.2047C39.5101 68.0097 39.6829 67.7252 39.8307 67.3672L39.4574 67.2134ZM39.0248 67.914C38.8898 68.0456 38.7183 68.115 38.4938 68.115V68.5184C38.8122 68.5184 39.0887 68.4155 39.3067 68.2029L39.0248 67.914ZM43.64 67.0321L43.6004 67.23L43.7636 67.2625L43.8268 67.1089L43.64 67.0321ZM43.3363 66.8707L43.1824 67.0014L43.1843 67.0032L43.1859 67.0053L43.3363 66.8707ZM43.2846 66.3026L43.4704 66.3821L43.4712 66.3801L43.2846 66.3026ZM44.8289 62.5908L45.0155 62.6683L45.0165 62.6657L44.8289 62.5908ZM45.4169 62.5908L45.6035 62.5134L45.6029 62.5119L45.6023 62.5105L45.4169 62.5908ZM46.9612 66.3026L46.7749 66.3801L46.7757 66.3821L46.9612 66.3026ZM46.6058 67.0321L46.4193 67.1089L46.4825 67.2625L46.6454 67.23L46.6058 67.0321ZM46.0502 65.6829L46.2369 65.6061L46.1854 65.4812H46.0502V65.6829ZM44.1957 65.6829V65.4812H44.0606L44.0091 65.6061L44.1957 65.6829ZM45.8628 65.16V65.3618H46.1596L46.0508 65.086L45.8628 65.16ZM45.0292 63.0492L45.2172 62.9751L45.1443 62.7905L44.9584 62.8603L45.0292 63.0492ZM44.9775 63.0685L44.9067 62.8797L44.715 62.9515L44.7895 63.1419L44.9775 63.0685ZM45.0938 63.3655L45.2816 63.4397L45.3109 63.3659L45.282 63.292L45.0938 63.3655ZM44.3831 65.16L44.1955 65.0858L44.086 65.3618H44.3831V65.16ZM43.6796 66.8342C43.5845 66.8152 43.5255 66.7793 43.4869 66.7362L43.1859 67.0053C43.2937 67.1257 43.4373 67.1973 43.6004 67.23L43.6796 66.8342ZM43.4902 66.74C43.4502 66.693 43.4284 66.6369 43.4284 66.5608H43.0245C43.0245 66.7257 43.076 66.8764 43.1824 67.0014L43.4902 66.74ZM43.4284 66.5608C43.4284 66.5114 43.4401 66.4523 43.4704 66.3821L43.099 66.2232C43.0516 66.3337 43.0245 66.4469 43.0245 66.5608H43.4284ZM43.4712 66.3801L45.0155 62.6683L44.6425 62.5134L43.0982 66.2252L43.4712 66.3801ZM45.0165 62.6657C45.0296 62.6328 45.0434 62.6203 45.0525 62.6146C45.0621 62.6082 45.0827 62.5989 45.1262 62.5989V62.1954C45.0232 62.1954 44.9212 62.2184 44.8317 62.2765C44.7417 62.3354 44.6799 62.4198 44.6415 62.516L45.0165 62.6657ZM45.1262 62.5989C45.1627 62.5989 45.1807 62.607 45.1904 62.6134C45.2003 62.6201 45.216 62.6346 45.2318 62.6711L45.6023 62.5105C45.5621 62.4179 45.5013 62.3356 45.4143 62.2777C45.3271 62.2196 45.2275 62.1954 45.1262 62.1954V62.5989ZM45.2305 62.6683L46.7749 66.3801L47.1478 66.2252L45.6035 62.5134L45.2305 62.6683ZM46.7757 66.3821C46.8057 66.4523 46.8175 66.5114 46.8175 66.5608H47.2213C47.2213 66.4469 47.1942 66.3337 47.147 66.2232L46.7757 66.3821ZM46.8175 66.5608C46.8175 66.6306 46.7971 66.6851 46.7557 66.7335L47.0634 66.995C47.1686 66.8713 47.2213 66.7234 47.2213 66.5608H46.8175ZM46.7557 66.7335C46.7167 66.7795 46.6587 66.8158 46.5663 66.8342L46.6454 67.23C46.8116 67.1967 46.9562 67.1211 47.0634 66.995L46.7557 66.7335ZM46.7926 66.9552L46.2369 65.6061L45.8636 65.7598L46.4193 67.1089L46.7926 66.9552ZM46.0502 65.4812H44.1957V65.8847H46.0502V65.4812ZM44.0091 65.6061L43.4534 66.9552L43.8268 67.1089L44.3825 65.7598L44.0091 65.6061ZM46.0508 65.086L45.2172 62.9751L44.8414 63.1232L45.675 65.2341L46.0508 65.086ZM44.9584 62.8603L44.9067 62.8797L45.0486 63.2573L45.1003 63.238L44.9584 62.8603ZM44.7895 63.1419L44.9059 63.4389L45.282 63.292L45.1657 62.9951L44.7895 63.1419ZM44.9063 63.2912L44.1955 65.0858L44.5709 65.2343L45.2816 63.4397L44.9063 63.2912ZM44.3831 65.3618H45.8628V64.9583H44.3831V65.3618ZM47.6736 67.9165L47.8238 67.7817L47.8226 67.7805L47.8214 67.7793L47.6736 67.9165ZM47.6155 67.2774L47.5034 67.1096L47.5012 67.111L47.4989 67.1126L47.6155 67.2774ZM47.9256 67.1999L48.1273 67.1913L48.1191 66.9982H47.9256V67.1999ZM48.1582 67.6776L48.2842 67.5201L48.2838 67.5197L48.1582 67.6776ZM49.5862 66.6835L49.4548 66.5304L49.3843 66.5907V66.6835H49.5862ZM49.7219 66.5415L49.8873 66.6571L49.9624 66.55L49.895 66.4378L49.7219 66.5415ZM49.7025 66.5092L49.8756 66.4055L49.7379 66.1762L49.5549 66.3714L49.7025 66.5092ZM49.2308 66.8384L49.1472 66.6549L49.1456 66.6555L49.2308 66.8384ZM47.7576 66.6641L47.6233 66.8148L47.6249 66.8162L47.6264 66.8174L47.7576 66.6641ZM47.5702 64.2305L47.4008 64.1205L47.4002 64.1215L47.5702 64.2305ZM48.0225 63.8302L47.9337 63.6491L47.9321 63.6499L48.0225 63.8302ZM49.7219 64.2434L49.5616 64.3662L49.7017 64.5486L49.8647 64.386L49.7219 64.2434ZM49.7478 64.2176L49.8905 64.3602L50.0183 64.2325L49.9053 64.0915L49.7478 64.2176ZM49.6185 64.0562H49.4166V64.127L49.4608 64.1823L49.6185 64.0562ZM49.7413 63.7851L49.861 63.9475L49.8625 63.9464L49.7413 63.7851ZM50.1548 63.6882H50.3568V63.4865H50.1548V63.6882ZM49.9739 67.6841L49.8013 67.5792L49.8001 67.5814L49.7989 67.5836L49.9739 67.6841ZM49.3536 66.2962L49.4754 66.457L49.4768 66.456L49.4782 66.4549L49.3536 66.2962ZM49.3536 64.3596L49.2296 64.5187L49.2317 64.5204L49.3536 64.3596ZM48.1841 64.3531L48.3091 64.5115L48.3105 64.5105L48.3119 64.5093L48.1841 64.3531ZM48.1776 66.3026L48.0474 66.4568L48.0486 66.4578L48.0496 66.4588L48.1776 66.3026ZM48.7592 68.1214C48.5574 68.1214 48.3729 68.0885 48.2037 68.0248L48.0609 68.402C48.2794 68.4845 48.5126 68.5249 48.7592 68.5249V68.1214ZM48.2037 68.0248C48.033 67.9602 47.9099 67.8775 47.8238 67.7817L47.5232 68.0512C47.6613 68.2049 47.8438 68.3201 48.0609 68.402L48.2037 68.0248ZM47.8214 67.7793C47.7382 67.6897 47.7075 67.6058 47.7075 67.5227H47.3037C47.3037 67.7236 47.3847 67.9021 47.5256 68.0536L47.8214 67.7793ZM47.7075 67.5227C47.7075 67.4579 47.7257 67.4466 47.7318 67.4422L47.4989 67.1126C47.3586 67.2114 47.3037 67.3635 47.3037 67.5227H47.7075ZM47.7273 67.4452C47.7612 67.4226 47.8212 67.4017 47.9256 67.4017V66.9982C47.7713 66.9982 47.6245 67.0289 47.5034 67.1096L47.7273 67.4452ZM47.7239 67.2086C47.7346 67.4638 47.8362 67.6796 48.0326 67.8356L48.2838 67.5197C48.1873 67.4432 48.1336 67.3407 48.1273 67.1913L47.7239 67.2086ZM48.032 67.8352C48.2279 67.9917 48.4771 68.0601 48.7592 68.0601V67.6566C48.5415 67.6566 48.3898 67.6046 48.2842 67.5201L48.032 67.8352ZM48.7592 68.0601C49.0643 68.0601 49.3306 67.9863 49.5198 67.8031C49.7104 67.6189 49.7882 67.3575 49.7882 67.0579H49.3843C49.3843 67.2919 49.3241 67.4309 49.2389 67.5134C49.1525 67.5969 49.0053 67.6566 48.7592 67.6566V68.0601ZM49.7882 67.0579V66.6835H49.3843V67.0579H49.7882ZM49.7175 66.8366C49.7849 66.7789 49.8439 66.7192 49.8873 66.6571L49.5563 66.4259C49.5396 66.4499 49.5081 66.4848 49.4548 66.5304L49.7175 66.8366ZM49.895 66.4378L49.8756 66.4055L49.5293 66.6129L49.5487 66.6452L49.895 66.4378ZM49.5549 66.3714C49.4505 66.483 49.3161 66.5782 49.1472 66.6549L49.3142 67.022C49.5246 66.9266 49.7046 66.8023 49.8499 66.647L49.5549 66.3714ZM49.1456 66.6555C48.9849 66.7301 48.8266 66.7658 48.6687 66.7658V67.1693C48.8898 67.1693 49.1061 67.1188 49.3159 67.0214L49.1456 66.6555ZM48.6687 66.7658C48.3367 66.7658 48.0825 66.6762 47.8887 66.5108L47.6264 66.8174C47.9064 67.0567 48.2596 67.1693 48.6687 67.1693V66.7658ZM47.8917 66.5134C47.7059 66.3484 47.6106 66.134 47.6106 65.8508H47.2068C47.2068 66.2389 47.3439 66.5667 47.6233 66.8148L47.8917 66.5134ZM47.6106 65.8508V64.8115H47.2068V65.8508H47.6106ZM47.6106 64.8115C47.6106 64.6265 47.6554 64.4715 47.7402 64.3394L47.4002 64.1215C47.2696 64.3251 47.2068 64.5575 47.2068 64.8115H47.6106ZM47.7394 64.3404C47.8313 64.1994 47.9543 64.0899 48.1128 64.0106L47.9321 63.6499C47.7116 63.76 47.5331 63.9174 47.4008 64.1205L47.7394 64.3404ZM48.1112 64.0114C48.2753 63.9313 48.4579 63.89 48.6622 63.89V63.4865C48.4013 63.4865 48.1574 63.5398 47.9337 63.6491L48.1112 64.0114ZM48.6622 63.89C49.0142 63.89 49.311 64.0398 49.5616 64.3662L49.882 64.1205C49.5642 63.7068 49.1543 63.4865 48.6622 63.4865V63.89ZM49.8647 64.386L49.8905 64.3602L49.605 64.0749L49.5792 64.1008L49.8647 64.386ZM49.9053 64.0915L49.776 63.9301L49.4608 64.1823L49.5901 64.3436L49.9053 64.0915ZM49.8205 64.0562C49.8205 63.9862 49.8409 63.9624 49.861 63.9475L49.6214 63.6227C49.478 63.7284 49.4166 63.8851 49.4166 64.0562H49.8205ZM49.8625 63.9464C49.8958 63.9214 49.9794 63.89 50.1548 63.89V63.4865C49.9511 63.4865 49.7591 63.5196 49.6202 63.6237L49.8625 63.9464ZM49.9529 63.6882V66.9998H50.3568V63.6882H49.9529ZM49.9529 66.9998C49.9529 67.2253 49.9006 67.4164 49.8013 67.5792L50.1464 67.789C50.2883 67.556 50.3568 67.2907 50.3568 66.9998H49.9529ZM49.7989 67.5836C49.7019 67.7521 49.5664 67.8826 49.3881 67.9772L49.5773 68.3334C49.8213 68.2043 50.0133 68.0206 50.149 67.7845L49.7989 67.5836ZM49.3881 67.9772C49.21 68.0716 49.0021 68.1214 48.7592 68.1214V68.5249C49.059 68.5249 49.3334 68.4628 49.5773 68.3334L49.3881 67.9772ZM48.7721 66.6787C49.0378 66.6787 49.2761 66.6077 49.4754 66.457L49.2317 66.1354C49.1123 66.2256 48.9629 66.2752 48.7721 66.2752V66.6787ZM49.4782 66.4549C49.6751 66.3006 49.7946 66.0999 49.7946 65.8572H49.3908C49.3908 65.9502 49.3508 66.042 49.229 66.1374L49.4782 66.4549ZM49.7946 65.8572V64.805H49.3908V65.8572H49.7946ZM49.7946 64.805C49.7946 64.5565 49.6777 64.3515 49.4754 64.1988L49.2317 64.5204C49.3482 64.6085 49.3908 64.7007 49.3908 64.805H49.7946ZM49.4776 64.2004C49.2821 64.0485 49.0473 63.9771 48.785 63.9771V64.3806C48.9706 64.3806 49.1147 64.4296 49.2296 64.5187L49.4776 64.2004ZM48.785 63.9771C48.4985 63.9771 48.2467 64.0413 48.0561 64.197L48.3119 64.5093C48.4058 64.4326 48.5544 64.3806 48.785 64.3806V63.9771ZM48.0591 64.1948C47.8598 64.3515 47.7689 64.5762 47.7689 64.8373H48.1728C48.1728 64.6767 48.2239 64.5787 48.3091 64.5115L48.0591 64.1948ZM47.7689 64.8373V65.8249H48.1728V64.8373H47.7689ZM47.7689 65.8249C47.7689 66.0785 47.8582 66.2974 48.0474 66.4568L48.3079 66.1485C48.2212 66.0755 48.1728 65.976 48.1728 65.8249H47.7689ZM48.0496 66.4588C48.2396 66.6139 48.489 66.6787 48.7721 66.6787V66.2752C48.5467 66.2752 48.3997 66.2238 48.3054 66.1465L48.0496 66.4588ZM51.7981 64.4048L51.9324 64.5553L51.9336 64.5543L51.9346 64.5532L51.7981 64.4048ZM51.4169 66.9353L51.5342 67.0995L51.5356 67.0985L51.4169 66.9353ZM50.9969 67.0321H50.7949V67.2338H50.9969V67.0321ZM51.5396 63.6882H51.7416V63.4865H51.5396V63.6882ZM51.5396 64.082L51.6866 64.2202L51.7416 64.1621V64.082H51.5396ZM51.3975 64.2757L51.2141 64.1911L51.155 64.3188L51.2547 64.4183L51.3975 64.2757ZM51.4233 64.3015L51.2806 64.4441L51.4538 64.6172L51.5907 64.4143L51.4233 64.3015ZM52.8126 63.8044L52.6736 63.9509L52.6757 63.9529L52.6779 63.9547L52.8126 63.8044ZM52.8772 64.2821L52.7817 64.4598L52.946 64.548L53.047 64.3913L52.8772 64.2821ZM52.399 63.9836C52.1133 63.9836 51.8623 64.0717 51.6614 64.2563L51.9346 64.5532C52.0523 64.4451 52.2021 64.387 52.399 64.387V63.9836ZM51.6636 64.2543C51.4629 64.433 51.3571 64.6614 51.3571 64.9276H51.7609C51.7609 64.7808 51.8144 64.6606 51.9324 64.5553L51.6636 64.2543ZM51.3571 64.9276V66.6189H51.7609V64.9276H51.3571ZM51.3571 66.6189C51.3571 66.7119 51.3292 66.7495 51.2979 66.7721L51.5356 67.0985C51.6939 66.9833 51.7609 66.81 51.7609 66.6189H51.3571ZM51.2993 66.771C51.2598 66.7993 51.1709 66.8304 50.9969 66.8304V67.2338C51.2018 67.2338 51.3928 67.2003 51.5342 67.0995L51.2993 66.771ZM51.1988 67.0321V64.1659H50.7949V67.0321H51.1988ZM51.1988 64.1659C51.1988 64.0449 51.2319 63.989 51.266 63.9589C51.3048 63.9249 51.3839 63.89 51.5396 63.89V63.4865C51.3333 63.4865 51.141 63.5313 50.9991 63.6564C50.8521 63.7855 50.7949 63.9684 50.7949 64.1659H51.1988ZM51.3377 63.6882V64.082H51.7416V63.6882H51.3377ZM51.3924 63.9438C51.3169 64.0241 51.2529 64.107 51.2141 64.1911L51.5808 64.3602C51.5935 64.3326 51.6244 64.2862 51.6866 64.2202L51.3924 63.9438ZM51.2547 64.4183L51.2806 64.4441L51.5661 64.1589L51.5402 64.133L51.2547 64.4183ZM51.5907 64.4143C51.8373 64.0487 52.1244 63.89 52.4572 63.89V63.4865C51.9627 63.4865 51.5606 63.7366 51.2557 64.1887L51.5907 64.4143ZM52.4572 63.89C52.5801 63.89 52.6415 63.9204 52.6736 63.9509L52.9513 63.658C52.8198 63.5335 52.6441 63.4865 52.4572 63.4865V63.89ZM52.6779 63.9547C52.7179 63.9904 52.7334 64.0267 52.7334 64.0755H53.1372C53.1372 63.9093 53.0708 63.7647 52.947 63.6541L52.6779 63.9547ZM52.7334 64.0755C52.7334 64.1177 52.7233 64.148 52.7072 64.173L53.047 64.3913C53.1084 64.2958 53.1372 64.1883 53.1372 64.0755H52.7334ZM52.9725 64.1044C52.8124 64.0187 52.6165 63.9836 52.399 63.9836V64.387C52.5777 64.387 52.7007 64.4165 52.7817 64.4598L52.9725 64.1044ZM53.5136 62.5134L53.6483 62.6636L53.6503 62.6618L53.6526 62.6598L53.5136 62.5134ZM54.1146 62.5134L53.9756 62.6598L53.9776 62.6618L53.9799 62.6636L54.1146 62.5134ZM53.6687 63.7915L53.786 63.9557L53.7874 63.9547L53.6687 63.7915ZM54.0952 63.6882H54.2971V63.4865H54.0952V63.6882ZM53.953 66.9353L54.0703 67.0995L54.0717 67.0985L53.953 66.9353ZM53.533 67.0321H53.3311V67.2338H53.533V67.0321ZM53.8173 63.0024C53.7444 63.0024 53.694 62.9808 53.6526 62.9414L53.3747 63.2343C53.4969 63.3499 53.6489 63.4058 53.8173 63.4058V63.0024ZM53.6526 62.9414C53.6124 62.9035 53.5928 62.8601 53.5928 62.7974H53.1889C53.1889 62.967 53.2511 63.1173 53.3747 63.2343L53.6526 62.9414ZM53.5928 62.7974C53.5928 62.7349 53.612 62.6961 53.6483 62.6636L53.3789 62.3631C53.2515 62.4768 53.1889 62.6275 53.1889 62.7974H53.5928ZM53.6526 62.6598C53.694 62.6205 53.7444 62.5989 53.8173 62.5989V62.1954C53.6489 62.1954 53.4969 62.2513 53.3747 62.3669L53.6526 62.6598ZM53.8173 62.5989C53.8838 62.5989 53.9326 62.6191 53.9756 62.6598L54.2535 62.3669C54.1327 62.2527 53.9835 62.1954 53.8173 62.1954V62.5989ZM53.9799 62.6636C54.0162 62.6961 54.0354 62.7349 54.0354 62.7974H54.4392C54.4392 62.6275 54.3766 62.4768 54.2492 62.3631L53.9799 62.6636ZM54.0354 62.7974C54.0354 62.8601 54.0158 62.9035 53.9756 62.9414L54.2535 63.2343C54.3769 63.1173 54.4392 62.967 54.4392 62.7974H54.0354ZM53.9756 62.9414C53.9326 62.9822 53.8838 63.0024 53.8173 63.0024V63.4058C53.9835 63.4058 54.1327 63.3485 54.2535 63.2343L53.9756 62.9414ZM53.7349 64.1014C53.7349 64.0043 53.7632 63.9721 53.786 63.9557L53.5514 63.6273C53.3933 63.7401 53.3311 63.9144 53.3311 64.1014H53.7349ZM53.7874 63.9547C53.8323 63.922 53.9241 63.89 54.0952 63.89V63.4865C53.8872 63.4865 53.6946 63.5232 53.55 63.6283L53.7874 63.9547ZM53.8932 63.6882V66.6189H54.2971V63.6882H53.8932ZM53.8932 66.6189C53.8932 66.7119 53.8654 66.7495 53.8343 66.7721L54.0717 67.0985C54.2303 66.9833 54.2971 66.81 54.2971 66.6189H53.8932ZM53.8357 66.771C53.7961 66.7993 53.7071 66.8304 53.533 66.8304V67.2338C53.738 67.2338 53.929 67.2003 54.0703 67.0995L53.8357 66.771ZM53.7349 67.0321V64.1014H53.3311V67.0321H53.7349ZM56.974 62.5327L57.1034 62.6877L57.104 62.6872L56.974 62.5327ZM57.4263 62.3972H57.6282V62.1954H57.4263V62.3972ZM57.2648 66.903L57.3942 67.0579L57.3948 67.0575L57.2648 66.903ZM56.8189 67.0321H56.617V67.2338H56.8189V67.0321ZM57.0208 62.9007C57.0208 62.7891 57.0546 62.7282 57.1034 62.6877L56.8448 62.3778C56.6867 62.5093 56.617 62.6937 56.617 62.9007H57.0208ZM57.104 62.6872C57.1636 62.6372 57.2621 62.5989 57.4263 62.5989V62.1954C57.203 62.1954 57 62.2475 56.8442 62.3782L57.104 62.6872ZM57.2244 62.3972V66.5286H57.6282V62.3972H57.2244ZM57.2244 66.5286C57.2244 66.6371 57.1907 66.7019 57.1349 66.7485L57.3948 67.0575C57.5545 66.9234 57.6282 66.7386 57.6282 66.5286H57.2244ZM57.1355 66.7481C57.0816 66.793 56.9859 66.8304 56.8189 66.8304V67.2338C57.0398 67.2338 57.2413 67.1852 57.3942 67.0579L57.1355 66.7481ZM57.0208 67.0321V62.9007H56.617V67.0321H57.0208ZM58.9452 63.6882H59.1471V63.4865H58.9452V63.6882ZM58.9452 64.1014L59.0879 64.244L59.1471 64.1849V64.1014H58.9452ZM58.8095 64.2757L58.6415 64.1637L58.5496 64.3013L58.6667 64.4183L58.8095 64.2757ZM58.8353 64.3015L58.6926 64.4441L58.861 64.6126L58.9995 64.4187L58.8353 64.3015ZM59.3393 63.8625L59.4354 64.0398L59.4368 64.039L59.4383 64.0384L59.3393 63.8625ZM60.9999 66.9353L61.1172 67.0995L61.1187 67.0985L60.9999 66.9353ZM60.5799 67.0321H60.378V67.2338H60.5799V67.0321ZM59.4233 64.2886L59.5089 64.4713L59.5114 64.4701L59.4233 64.2886ZM59.0873 64.5597L58.925 64.4397L58.9242 64.4407L59.0873 64.5597ZM58.8224 66.9353L58.9397 67.0995L58.9411 67.0985L58.8224 66.9353ZM58.4024 67.0321H58.2005V67.2338H58.4024V67.0321ZM58.6043 64.1659C58.6043 64.0449 58.6374 63.989 58.6716 63.9589C58.7103 63.9249 58.7895 63.89 58.9452 63.89V63.4865C58.7388 63.4865 58.5466 63.5313 58.4046 63.6564C58.2576 63.7855 58.2005 63.9684 58.2005 64.1659H58.6043ZM58.7432 63.6882V64.1014H59.1471V63.6882H58.7432ZM58.8024 63.9587C58.7499 64.0112 58.6962 64.0818 58.6415 64.1637L58.9775 64.3876C59.0261 64.3146 59.0627 64.269 59.0879 64.244L58.8024 63.9587ZM58.6667 64.4183L58.6926 64.4441L58.9781 64.1589L58.9522 64.133L58.6667 64.4183ZM58.9995 64.4187C59.1099 64.2644 59.2541 64.1381 59.4354 64.0398L59.243 63.6852C59.011 63.8109 58.819 63.9771 58.6709 64.1843L58.9995 64.4187ZM59.4383 64.0384C59.6143 63.9394 59.8041 63.89 60.0113 63.89V63.4865C59.7359 63.4865 59.4778 63.5533 59.2402 63.6866L59.4383 64.0384ZM60.0113 63.89C60.3178 63.89 60.5371 63.9791 60.694 64.1393L60.9826 63.8569C60.7346 63.6039 60.4024 63.4865 60.0113 63.4865V63.89ZM60.694 64.1393C60.8545 64.3031 60.9402 64.5167 60.9402 64.7985H61.344C61.344 64.4262 61.2269 64.1062 60.9826 63.8569L60.694 64.1393ZM60.9402 64.7985V66.6189H61.344V64.7985H60.9402ZM60.9402 66.6189C60.9402 66.7119 60.9123 66.7495 60.881 66.7721L61.1187 67.0985C61.277 66.9833 61.344 66.81 61.344 66.6189H60.9402ZM60.8824 66.771C60.8428 66.7993 60.754 66.8304 60.5799 66.8304V67.2338C60.7849 67.2338 60.9759 67.2003 61.1172 67.0995L60.8824 66.771ZM60.7819 67.0321V64.8566H60.378V67.0321H60.7819ZM60.7819 64.8566C60.7819 64.6107 60.7114 64.3925 60.5506 64.226L60.2601 64.506C60.332 64.5807 60.378 64.6894 60.378 64.8566H60.7819ZM60.5506 64.226C60.3829 64.0521 60.1442 63.9836 59.8756 63.9836V64.387C60.0808 64.387 60.1953 64.4391 60.2601 64.506L60.5506 64.226ZM59.8756 63.9836C59.686 63.9836 59.5051 64.0247 59.3351 64.107L59.5114 64.4701C59.6258 64.4147 59.7464 64.387 59.8756 64.387V63.9836ZM59.3375 64.106C59.1709 64.1839 59.0322 64.2952 58.925 64.4397L59.2495 64.6797C59.3147 64.5918 59.3999 64.5224 59.5089 64.4711L59.3375 64.106ZM58.9242 64.4407C58.8182 64.5857 58.7626 64.7497 58.7626 64.9276H59.1665C59.1665 64.8387 59.1927 64.7576 59.2503 64.6787L58.9242 64.4407ZM58.7626 64.9276V66.6189H59.1665V64.9276H58.7626ZM58.7626 66.6189C58.7626 66.7119 58.7348 66.7495 58.7035 66.7721L58.9411 67.0985C59.0994 66.9833 59.1665 66.81 59.1665 66.6189H58.7626ZM58.7049 66.771C58.6653 66.7993 58.5764 66.8304 58.4024 66.8304V67.2338C58.6073 67.2338 58.7984 67.2003 58.9397 67.0995L58.7049 66.771ZM58.6043 67.0321V64.1659H58.2005V67.0321H58.6043ZM62.0487 63.8109L61.9132 63.6612L61.9114 63.663L61.9098 63.6646L62.0487 63.8109ZM62.4558 63.6882H62.6577V63.4865H62.4558V63.6882ZM62.4558 64.0497L62.6159 64.1728L62.6577 64.1183V64.0497H62.4558ZM62.3266 64.2176L62.1666 64.0945L62.0732 64.216L62.165 64.3386L62.3266 64.2176ZM62.3459 64.2434L62.1844 64.3644L62.3433 64.576L62.5057 64.367L62.3459 64.2434ZM64.3167 63.9981L64.1812 64.1476L64.1828 64.149L64.3167 63.9981ZM62.8176 66.9094L62.7256 67.089L62.7284 67.0904L62.731 67.0916L62.8176 66.9094ZM62.3718 66.5738L62.5192 66.4358L62.3363 66.2409L62.1987 66.4701L62.3718 66.5738ZM62.3524 66.606L62.1794 66.5023L62.1119 66.6145L62.187 66.7216L62.3524 66.606ZM62.4881 66.7481H62.69V66.6553L62.6196 66.5949L62.4881 66.7481ZM61.9195 68.3232H61.7176V68.5249H61.9195V68.3232ZM63.8903 66.3672L64.0152 66.5255L64.0167 66.5245L64.0183 66.5233L63.8903 66.3672ZM62.7143 64.366L62.8354 64.5274L62.8368 64.5264L62.8382 64.5252L62.7143 64.366ZM62.7013 66.3607L62.5731 66.5165L62.5745 66.5177L62.5757 66.5187L62.7013 66.3607ZM62.1214 64.1466C62.1214 64.0481 62.1497 63.9934 62.1878 63.9571L61.9098 63.6646C61.7757 63.7919 61.7176 63.961 61.7176 64.1466H62.1214ZM62.1842 63.9606C62.2232 63.9253 62.3013 63.89 62.4558 63.89V63.4865C62.2486 63.4865 62.0554 63.5329 61.9132 63.6612L62.1842 63.9606ZM62.2539 63.6882V64.0497H62.6577V63.6882H62.2539ZM62.2959 63.9267L62.1666 64.0945L62.4867 64.3406L62.6159 64.1728L62.2959 63.9267ZM62.165 64.3386L62.1844 64.3644L62.5075 64.1224L62.4881 64.0965L62.165 64.3386ZM62.5057 64.367C62.6246 64.2135 62.7581 64.0963 62.9055 64.0116L62.7042 63.6618C62.5069 63.7752 62.3344 63.9289 62.1864 64.1197L62.5057 64.367ZM62.9055 64.0116C63.0418 63.9333 63.2102 63.89 63.4186 63.89V63.4865C63.1532 63.4865 62.9125 63.5422 62.7042 63.6618L62.9055 64.0116ZM63.4186 63.89C63.7497 63.89 63.9973 63.9811 64.1812 64.1476L64.4524 63.8486C64.1796 63.6019 63.8285 63.4865 63.4186 63.4865V63.89ZM64.1828 64.149C64.3626 64.3083 64.4573 64.5218 64.4573 64.8115H64.8611C64.8611 64.4211 64.7276 64.0923 64.4508 63.8472L64.1828 64.149ZM64.4573 64.8115V65.9153H64.8611V64.8115H64.4573ZM64.4573 65.9153C64.4573 66.2024 64.3603 66.4152 64.1727 66.5754L64.435 66.882C64.7214 66.6377 64.8611 66.3081 64.8611 65.9153H64.4573ZM64.1727 66.5754C63.9797 66.74 63.7217 66.8304 63.3798 66.8304V67.2338C63.7962 67.2338 64.1542 67.1219 64.435 66.882L64.1727 66.5754ZM63.3798 66.8304C63.2055 66.8304 63.048 66.7953 62.9043 66.7273L62.731 67.0916C62.9321 67.187 63.1494 67.2338 63.3798 67.2338V66.8304ZM62.9099 66.7299C62.7625 66.6545 62.6325 66.5566 62.5192 66.4358L62.2246 66.7117C62.3696 66.8663 62.537 66.9924 62.7256 67.089L62.9099 66.7299ZM62.1987 66.4701L62.1794 66.5023L62.5257 66.7097L62.545 66.6774L62.1987 66.4701ZM62.187 66.7216C62.2304 66.7838 62.2894 66.8435 62.3569 66.9012L62.6196 66.5949C62.5662 66.5494 62.5347 66.5145 62.518 66.4904L62.187 66.7216ZM62.2862 66.7481V67.8842H62.69V66.7481H62.2862ZM62.2862 67.8842C62.2862 67.9834 62.2567 68.0274 62.2226 68.0538C62.1786 68.0877 62.0887 68.1214 61.9195 68.1214V68.5249C62.1295 68.5249 62.3239 68.4853 62.4695 68.373C62.6248 68.2532 62.69 68.0774 62.69 67.8842H62.2862ZM62.1214 68.3232V64.1466H61.7176V68.3232H62.1214ZM63.2958 66.7368C63.5775 66.7368 63.8256 66.675 64.0152 66.5255L63.7655 66.2088C63.6708 66.2833 63.5228 66.3333 63.2958 66.3333V66.7368ZM64.0183 66.5233C64.2123 66.3646 64.3054 66.1453 64.3054 65.8895H63.9016C63.9016 66.0384 63.8525 66.1374 63.7624 66.211L64.0183 66.5233ZM64.3054 65.8895V64.8373H63.9016V65.8895H64.3054ZM64.3054 64.8373C64.3054 64.5762 64.2145 64.3515 64.0152 64.1948L63.7655 64.5115C63.8505 64.5787 63.9016 64.6767 63.9016 64.8373H64.3054ZM64.0152 64.1948C63.825 64.0449 63.5742 63.9836 63.2893 63.9836V64.387C63.5215 64.387 63.6714 64.4374 63.7655 64.5115L64.0152 64.1948ZM63.2893 63.9836C63.0238 63.9836 62.7865 64.0544 62.5903 64.2069L62.8382 64.5252C62.9523 64.4366 63.0983 64.387 63.2893 64.387V63.9836ZM62.5931 64.2047C62.393 64.3547 62.2797 64.5583 62.2797 64.805H62.6836C62.6836 64.6989 62.7256 64.6097 62.8354 64.5274L62.5931 64.2047ZM62.2797 64.805V65.9218H62.6836V64.805H62.2797ZM62.2797 65.9218C62.2797 66.1608 62.3853 66.3619 62.5731 66.5165L62.8298 66.205C62.7246 66.1185 62.6836 66.0271 62.6836 65.9218H62.2797ZM62.5757 66.5187C62.7684 66.6714 63.0157 66.7368 63.2958 66.7368V66.3333C63.0763 66.3333 62.9273 66.2825 62.8269 66.2028L62.5757 66.5187ZM67.5691 67.0321H67.3672V67.2338H67.5691V67.0321ZM67.5691 66.6189L67.4263 66.4763L67.3672 66.5354V66.6189H67.5691ZM67.7048 66.4447L67.8728 66.5566L67.9647 66.419L67.8475 66.302L67.7048 66.4447ZM67.6789 66.4188L67.8217 66.2762L67.6513 66.1059L67.5134 66.3034L67.6789 66.4188ZM67.1879 66.8642L67.0885 66.6885L67.0869 66.6896L67.1879 66.8642ZM65.9279 66.8836L65.8291 67.0595L65.8309 67.0605L65.9279 66.8836ZM65.5143 66.4705L65.3364 66.5659L65.3372 66.5675L65.3382 66.5691L65.5143 66.4705ZM65.5143 63.7915L65.628 63.9581L65.6306 63.9565L65.6331 63.9547L65.5143 63.7915ZM65.9408 63.6882H66.1427V63.4865H65.9408V63.6882ZM66.1217 66.3478L65.9765 66.488L65.9777 66.4892L65.9789 66.4904L66.1217 66.3478ZM67.1103 66.4382L67.1984 66.6198L67.2006 66.6187L67.203 66.6175L67.1103 66.4382ZM67.4269 66.1671L67.2618 66.0509L67.261 66.0523L67.4269 66.1671ZM67.6854 63.7915L67.8027 63.9557L67.8041 63.9547L67.6854 63.7915ZM68.1119 63.6882H68.3138V63.4865H68.1119V63.6882ZM67.9099 66.5544C67.9099 66.6754 67.8768 66.7313 67.8427 66.7614C67.8037 66.7955 67.7248 66.8304 67.5691 66.8304V67.2338C67.7753 67.2338 67.9677 67.189 68.1096 67.064C68.2566 66.9349 68.3138 66.7519 68.3138 66.5544H67.9099ZM67.771 67.0321V66.6189H67.3672V67.0321H67.771ZM67.7118 66.7616C67.7643 66.7091 67.8181 66.6385 67.8728 66.5566L67.5368 66.3327C67.4881 66.4057 67.4514 66.4513 67.4263 66.4763L67.7118 66.7616ZM67.8475 66.302L67.8217 66.2762L67.5362 66.5615L67.562 66.5873L67.8475 66.302ZM67.5134 66.3034C67.4015 66.4634 67.2606 66.5915 67.0885 66.6885L67.2872 67.04C67.5115 66.9133 67.6979 66.7442 67.8445 66.5342L67.5134 66.3034ZM67.0869 66.6896C66.925 66.783 66.7469 66.8304 66.5482 66.8304V67.2338C66.8149 67.2338 67.0631 67.1693 67.2888 67.0389L67.0869 66.6896ZM66.5482 66.8304C66.345 66.8304 66.1724 66.7874 66.0248 66.7067L65.8309 67.0605C66.0452 67.1777 66.2861 67.2338 66.5482 67.2338V66.8304ZM66.0266 66.7077C65.8824 66.6268 65.7714 66.5159 65.6904 66.3718L65.3382 66.5691C65.4556 66.7779 65.6201 66.9423 65.8291 67.0595L66.0266 66.7077ZM65.6922 66.3751C65.6147 66.2308 65.5741 66.066 65.5741 65.8766H65.1702C65.1702 66.1261 65.2244 66.3573 65.3364 66.5659L65.6922 66.3751ZM65.5741 65.8766V64.1014H65.1702V65.8766H65.5741ZM65.5741 64.1014C65.5741 64.008 65.602 63.9761 65.628 63.9581L65.4006 63.6249C65.2373 63.736 65.1702 63.9107 65.1702 64.1014H65.5741ZM65.6331 63.9547C65.6779 63.922 65.7698 63.89 65.9408 63.89V63.4865C65.7328 63.4865 65.5404 63.5232 65.3956 63.6283L65.6331 63.9547ZM65.7389 63.6882V65.8508H66.1427V63.6882H65.7389ZM65.7389 65.8508C65.7389 66.0989 65.8128 66.3186 65.9765 66.488L66.2671 66.2076C66.1896 66.1275 66.1427 66.0158 66.1427 65.8508H65.7389ZM65.9789 66.4904C66.1538 66.6651 66.3963 66.7368 66.6709 66.7368V66.3333C66.4632 66.3333 66.3394 66.28 66.2645 66.2052L65.9789 66.4904ZM66.6709 66.7368C66.8585 66.7368 67.0354 66.6986 67.1984 66.6198L67.0225 66.2566C66.9183 66.3069 66.8022 66.3333 66.6709 66.3333V66.7368ZM67.203 66.6175C67.3627 66.535 67.4948 66.4237 67.5929 66.2819L67.261 66.0523C67.204 66.1342 67.1251 66.2036 67.0176 66.2589L67.203 66.6175ZM67.5921 66.2831C67.6963 66.1354 67.7516 65.9704 67.7516 65.7927H67.3478C67.3478 65.8818 67.3213 65.9662 67.2618 66.0509L67.5921 66.2831ZM67.7516 65.7927V64.1014H67.3478V65.7927H67.7516ZM67.7516 64.1014C67.7516 64.0043 67.7799 63.9721 67.8027 63.9557L67.5681 63.6273C67.41 63.7401 67.3478 63.9144 67.3478 64.1014H67.7516ZM67.8041 63.9547C67.849 63.922 67.9408 63.89 68.1119 63.89V63.4865C67.9039 63.4865 67.7114 63.5232 67.5667 63.6283L67.8041 63.9547ZM67.9099 63.6882V66.5544H68.3138V63.6882H67.9099ZM69.555 66.7739L69.4013 66.9048L69.403 66.9068L69.555 66.7739ZM69.3288 64.1982H69.5308V63.9965H69.3288V64.1982ZM68.7279 64.1982H68.526V64.3999H68.7279V64.1982ZM69.3353 63.7463V63.9481H69.5372V63.7463H69.3353ZM69.471 62.8232L69.5883 62.9874L69.5897 62.9864L69.471 62.8232ZM69.891 62.7199H70.0929V62.5182H69.891V62.7199ZM69.891 63.7463H69.6891V63.9481H69.891V63.7463ZM70.7504 63.7463H70.9523V63.5446H70.7504V63.7463ZM69.8975 64.1982V63.9965H69.6955V64.1982H69.8975ZM69.9879 66.4317L69.832 66.56L69.8361 66.5651L69.8405 66.5697L69.9879 66.4317ZM70.7569 66.4188L70.8996 66.2762L70.7898 66.1665L70.6555 66.2443L70.7569 66.4188ZM70.2399 66.8304C69.9716 66.8304 69.8076 66.7559 69.7069 66.6409L69.403 66.9068C69.6039 67.136 69.8965 67.2338 70.2399 67.2338V66.8304ZM69.7085 66.643C69.5956 66.5106 69.5308 66.3303 69.5308 66.0832H69.1269C69.1269 66.4041 69.2129 66.6841 69.4013 66.9048L69.7085 66.643ZM69.5308 66.0832V64.1982H69.1269V66.0832H69.5308ZM69.3288 63.9965H68.7279V64.3999H69.3288V63.9965ZM68.9299 64.1982C68.9299 64.0784 68.9567 64.0197 68.9799 63.9916L68.6698 63.7334C68.5638 63.8603 68.526 64.0255 68.526 64.1982H68.9299ZM68.9799 63.9916C69.0017 63.9656 69.0302 63.9481 69.0898 63.9481V63.5446C68.9252 63.5446 68.7772 63.6045 68.6698 63.7334L68.9799 63.9916ZM69.0898 63.9481H69.3353V63.5446H69.0898V63.9481ZM69.5372 63.7463V63.1331H69.1334V63.7463H69.5372ZM69.5372 63.1331C69.5372 63.036 69.5655 63.0038 69.5883 62.9874L69.3537 62.659C69.1956 62.7718 69.1334 62.9461 69.1334 63.1331H69.5372ZM69.5897 62.9864C69.6352 62.9533 69.7254 62.9217 69.891 62.9217V62.5182C69.6861 62.5182 69.4962 62.5553 69.3523 62.66L69.5897 62.9864ZM69.6891 62.7199V63.7463H70.0929V62.7199H69.6891ZM69.891 63.9481H70.7504V63.5446H69.891V63.9481ZM70.5485 63.7463C70.5485 63.8708 70.52 63.9265 70.4986 63.9503C70.4806 63.97 70.4421 63.9965 70.3433 63.9965V64.3999C70.516 64.3999 70.6807 64.3511 70.7987 64.2202C70.9129 64.0933 70.9523 63.923 70.9523 63.7463H70.5485ZM70.3433 63.9965H69.8975V64.3999H70.3433V63.9965ZM69.6955 64.1982V66.0638H70.0994V64.1982H69.6955ZM69.6955 66.0638C69.6955 66.249 69.7258 66.4311 69.832 66.56L70.1438 66.3034C70.1293 66.2859 70.0994 66.223 70.0994 66.0638H69.6955ZM69.8405 66.5697C69.9635 66.7006 70.1493 66.7368 70.3304 66.7368V66.3333C70.1842 66.3333 70.1416 66.3006 70.1351 66.2938L69.8405 66.5697ZM70.3304 66.7368C70.5176 66.7368 70.6947 66.6881 70.8582 66.5933L70.6555 66.2443C70.5519 66.3045 70.4447 66.3333 70.3304 66.3333V66.7368ZM70.6141 66.5615C70.6248 66.5723 70.6389 66.5923 70.6389 66.6448H71.0428C71.0428 66.5078 71.0008 66.3773 70.8996 66.2762L70.6141 66.5615ZM70.6389 66.6448C70.6389 66.6651 70.6329 66.7006 70.5614 66.7521L70.7972 67.0797C70.9412 66.9762 71.0428 66.831 71.0428 66.6448H70.6389ZM70.5614 66.7521C70.4992 66.7969 70.399 66.8304 70.2399 66.8304V67.2338C70.4511 67.2338 70.644 67.1898 70.7972 67.0797L70.5614 66.7521Z" fill="black"/>
</g>
</g>
<defs>
<filter id="filter0_d_1432_2308" x="21.1112" y="0.806885" width="59.2157" height="75.718" filterUnits="userSpaceOnUse" color-interpolation-filters="sRGB">
<feFlood flood-opacity="0" result="BackgroundImageFix"/>
<feColorMatrix in="SourceAlpha" type="matrix" values="0 0 0 0 0 0 0 0 0 0 0 0 0 0 0 0 0 0 127 0" result="hardAlpha"/>
<feOffset dy="4"/>
<feGaussianBlur stdDeviation="2"/>
<feComposite in2="hardAlpha" operator="out"/>
<feColorMatrix type="matrix" values="0 0 0 0 0 0 0 0 0 0 0 0 0 0 0 0 0 0 0.25 0"/>
<feBlend mode="normal" in2="BackgroundImageFix" result="effect1_dropShadow_1432_2308"/>
<feBlend mode="normal" in="SourceGraphic" in2="effect1_dropShadow_1432_2308" result="shape"/>
</filter>
<linearGradient id="paint0_linear_1432_2308" x1="60.2741" y1="13.9193" x2="60.2741" y2="25.2161" gradientUnits="userSpaceOnUse">
<stop stop-color="#2A7EBA"/>
<stop offset="1" stop-color="#A7C4D9" stop-opacity="0"/>
</linearGradient>
<linearGradient id="paint1_linear_1432_2308" x1="61.7885" y1="21.3832" x2="61.7885" y2="35.9077" gradientUnits="userSpaceOnUse">
<stop stop-color="#2A7EBA"/>
<stop offset="1" stop-color="#A7C4D9" stop-opacity="0"/>
</linearGradient>
<linearGradient id="paint2_linear_1432_2308" x1="60.7788" y1="32.6801" x2="60.7788" y2="45.1873" gradientUnits="userSpaceOnUse">
<stop stop-color="#2A7EBA"/>
<stop offset="1" stop-color="#A7C4D9" stop-opacity="0"/>
</linearGradient>
<linearGradient id="paint3_linear_1432_2308" x1="61.7884" y1="43.3717" x2="61.7884" y2="53.2564" gradientUnits="userSpaceOnUse">
<stop stop-color="#2A7EBA"/>
<stop offset="1" stop-color="#A7C4D9" stop-opacity="0"/>
</linearGradient>
<linearGradient id="paint4_linear_1432_2308" x1="54.4183" y1="9.07783" x2="54.4183" y2="58.8787" gradientUnits="userSpaceOnUse">
<stop stop-color="#00487B"/>
<stop offset="1" stop-color="#004373"/>
</linearGradient>
<linearGradient id="paint5_linear_1432_2308" x1="38.5674" y1="7.46399" x2="38.5674" y2="9.88474" gradientUnits="userSpaceOnUse">
<stop stop-color="#7B99AE"/>
<stop offset="1" stop-color="#00477B"/>
</linearGradient>
<linearGradient id="paint6_linear_1432_2308" x1="42.6058" y1="5.24487" x2="42.6058" y2="8.06908" gradientUnits="userSpaceOnUse">
<stop stop-color="#7B99AE"/>
<stop offset="1" stop-color="#00477B"/>
</linearGradient>
<linearGradient id="paint7_linear_1432_2308" x1="38.6683" y1="4.03455" x2="38.6683" y2="6.25357" gradientUnits="userSpaceOnUse">
<stop stop-color="#7B99AE"/>
<stop offset="1" stop-color="#00477B"/>
</linearGradient>
<linearGradient id="paint8_linear_1432_2308" x1="35.5385" y1="3.6311" x2="35.5385" y2="5.24494" gradientUnits="userSpaceOnUse">
<stop stop-color="#7B99AE"/>
<stop offset="1" stop-color="#00477B"/>
</linearGradient>
<linearGradient id="paint9_linear_1432_2308" x1="35.4375" y1="1.00867" x2="35.4375" y2="2.01731" gradientUnits="userSpaceOnUse">
<stop stop-color="#7B99AE"/>
<stop offset="1" stop-color="#00477B"/>
</linearGradient>
<linearGradient id="paint10_linear_1432_2308" x1="38.3654" y1="0.806885" x2="38.3654" y2="2.42072" gradientUnits="userSpaceOnUse">
<stop stop-color="#7B99AE"/>
<stop offset="1" stop-color="#00477B"/>
</linearGradient>
<clipPath id="clip0_1432_2308">
<rect width="103.385" height="70" fill="white"/>
</clipPath>
</defs>
</svg>
