<svg width="32" height="32" viewBox="0 0 32 32" fill="none" xmlns="http://www.w3.org/2000/svg">
<g clip-path="url(#clip0_1432_2385)">
<g clip-path="url(#clip1_1432_2385)">
<g filter="url(#filter0_d_1432_2385)">
<path d="M22.757 13.6459C21.94 11.5469 20.1887 10.2992 19.1528 8.44256C18.9143 8.01695 18.9922 7.94832 19.3863 8.23695C21.3173 9.64115 23.0684 11.2436 24.6397 13.044C24.7317 13.1494 24.8557 13.2208 24.9919 13.2474C25.128 13.2739 25.2683 13.2542 25.3912 13.1909L31.9579 9.82953C32.3958 9.60444 32.4298 9.32823 32.06 9.00034C25.7169 3.31492 18.27 1.07166 9.71858 2.27053C9.41202 2.30951 9.38783 2.24342 9.64545 2.07228C10.1514 1.73478 10.7181 1.495 11.3456 1.35295C21.3806 -0.956408 30.326 1.35295 38.1816 8.28101C38.2697 8.35726 38.3383 8.45357 38.3824 8.56145C38.4263 8.66962 38.4443 8.78683 38.4353 8.90403C38.426 9.02095 38.3898 9.13421 38.3293 9.23503C38.2688 9.33585 38.1859 9.42142 38.0869 9.48469C31.0143 13.9712 23.2751 16.2439 14.8697 16.3026C14.8542 16.302 14.8387 16.2981 14.825 16.2907C14.8112 16.2834 14.7991 16.273 14.7901 16.26C14.7808 16.2473 14.7746 16.2326 14.7721 16.217C14.7695 16.2015 14.7704 16.1857 14.7749 16.1704C14.7895 16.1069 14.8064 16.0456 14.8261 15.9871C14.8404 15.9284 14.877 15.8965 14.9355 15.8917C17.5134 15.5932 20.0331 15.0354 22.4944 14.2183C22.7815 14.1203 22.869 13.9297 22.757 13.6459Z" fill="url(#paint0_linear_1432_2385)"/>
<path d="M39.6295 22.2137C38.8417 19.1824 37.6068 16.3563 35.9249 13.7351C35.8087 13.5544 35.8428 13.4106 36.0264 13.303L39.9484 11.0188C40.1853 10.877 40.3883 10.9185 40.5576 11.1431C43.3561 14.9651 45.1758 19.2192 46.0167 23.9051C46.0698 24.1833 45.9782 24.3956 45.7413 24.5422C34.3805 31.7394 19.0398 33.299 6.28001 28.5619C6.11576 28.5032 6.06007 28.408 6.11322 28.2761C6.17144 28.1298 6.27775 28.0688 6.43244 28.0931C13.2086 29.2256 19.9533 29.0742 26.6667 27.6393C26.9325 27.5856 27.0509 27.4221 27.0219 27.1487C26.6546 23.7661 25.8499 20.498 24.6077 17.3447C24.487 17.0372 24.5885 16.864 24.9123 16.8248L26.8335 16.6054C27.1091 16.5712 27.3144 16.676 27.4497 16.92C29.0545 19.8196 30.0718 22.9118 30.5018 26.1969C30.5502 26.5728 30.7437 26.6824 31.082 26.5262L39.3612 22.7777C39.6126 22.6653 39.7021 22.4774 39.6295 22.2137Z" fill="url(#paint1_linear_1432_2385)"/>
<path d="M28.4079 40.4292C31.9494 39.5297 35.3748 38.2941 38.6831 36.7224C38.7872 36.6719 38.8783 36.5973 38.9492 36.5047C39.02 36.4118 39.0687 36.3039 39.0912 36.1887L40.4249 29.7314C40.4409 29.6551 40.4735 29.584 40.5202 29.5235C40.5672 29.4631 40.6268 29.4151 40.6946 29.3829L45.905 26.8103C46.1674 26.6818 46.301 26.766 46.3058 27.0625C46.3787 30.6459 45.8637 34.1352 44.7609 37.5304C44.5924 38.0397 44.2344 38.4624 43.7625 38.7093C30.5915 45.5546 17.0929 46.0711 3.26613 40.2586C3.13507 40.2044 3.05238 40.1253 3.01835 40.0214C2.96492 39.8387 3.0282 39.772 3.20791 39.8214C10.3497 41.7984 17.5837 42.2011 24.91 41.0296C25.182 40.9853 25.3471 40.8246 25.4053 40.5478L27.0815 32.4596C27.0959 32.3859 27.1344 32.3189 27.1912 32.2692C27.2478 32.2195 27.3195 32.1902 27.3949 32.1854L30.0184 32.0001C30.3536 31.9752 30.4993 32.1334 30.4557 32.4745C30.1058 35.1581 29.3358 37.6985 28.1455 40.0957C27.995 40.4021 28.0822 40.5134 28.4079 40.4292Z" fill="url(#paint2_linear_1432_2385)"/>
<mask id="mask0_1432_2385" style="mask-type:luminance" maskUnits="userSpaceOnUse" x="-3" y="-7" width="37" height="71">
<path d="M30.8938 -6.29114H0.699951C-1.00868 -6.29114 -2.3938 -4.90025 -2.3938 -3.18451V60.3234C-2.3938 62.0392 -1.00868 63.4301 0.699951 63.4301H30.8938C32.6025 63.4301 33.9876 62.0392 33.9876 60.3234V-3.18451C33.9876 -4.90025 32.6025 -6.29114 30.8938 -6.29114Z" fill="white"/>
</mask>
<g mask="url(#mask0_1432_2385)">
<path d="M30.8938 -6.29114H0.699951C-1.00868 -6.29114 -2.3938 -4.90025 -2.3938 -3.18451V60.3234C-2.3938 62.0392 -1.00868 63.4301 0.699951 63.4301H30.8938C32.6025 63.4301 33.9876 62.0392 33.9876 60.3234V-3.18451C33.9876 -4.90025 32.6025 -6.29114 30.8938 -6.29114Z" fill="#2A7EBA"/>
<path opacity="0.2" d="M54.8758 -8.903L48.2914 -15.8663L-23.3335 52.4261L-16.749 59.3894L54.8758 -8.903Z" fill="#085500"/>
<path opacity="0.2" d="M56.6904 5.75581L50.106 -1.20752L-21.5189 67.0849L-14.9345 74.0483L56.6904 5.75581Z" fill="#085500"/>
<path fill-rule="evenodd" clip-rule="evenodd" d="M7.51489 20.9685C7.93789 21.7762 8.75774 23.0767 9.25865 23.9895C9.41474 24.2787 10.2672 25.6776 10.3128 25.8416C10.5015 25.8286 10.8072 25.6053 10.9698 25.5067C11.8158 24.9879 11.4513 25.0469 12.7397 25.3491C13.0974 25.4344 13.4619 25.5132 13.8652 25.579C16.3962 26.006 18.3872 26.0323 20.7426 24.7975C22.4735 23.8845 24.5229 22.1244 26.1494 21.0012C27.314 20.2 27.4116 20.2133 27.0539 19.6089C26.9825 19.4908 27.0019 19.5236 26.9172 19.425L26.7873 19.2804C26.7805 19.2739 26.7546 19.2477 26.7417 19.2412C25.7461 18.3216 23.9959 19.3135 23.1695 19.8125C22.8118 20.0226 22.5058 20.2525 22.161 20.4824C22.0634 20.5482 22.0114 20.5875 21.9202 20.6533C21.8682 20.6925 21.8488 20.6993 21.79 20.7451C21.3088 21.1131 21.4064 21.6844 18.8816 22.3215C18.3742 22.4529 16.4418 22.8598 15.9538 22.7418V22.5119C16.1751 22.4003 17.0535 22.3345 17.3592 22.2885C18.3742 22.1507 19.9554 21.8355 20.8338 21.2837C20.9443 21.2114 20.9637 21.1786 21.1069 21.0998C20.5345 18.6238 15.6872 19.5103 15.2315 19.3265C14.4443 19.0048 14.041 18.5515 12.5248 18.5515C11.217 18.5515 10.1044 19.2279 9.17399 19.819L8.08105 20.581C7.87264 20.7321 7.73596 20.8436 7.51489 20.9685Z" fill="#5CD400"/>
<path fill-rule="evenodd" clip-rule="evenodd" d="M4.125 22.0043C4.125 22.2407 4.63237 23.0156 4.79522 23.2915C4.87987 23.4359 4.95131 23.5477 5.0295 23.692L7.31325 27.6326C7.85325 28.5389 7.60603 28.5785 9.02437 27.7247C10.4624 26.8512 10.677 26.9365 10.2802 26.2731L8.46497 23.1405C8.34769 22.9433 8.24363 22.7727 8.1331 22.5691L6.98138 20.5789C6.74063 20.2047 6.38288 20.5264 6.00544 20.7563C5.76469 20.8944 5.5695 21.0059 5.34816 21.1437C5.06831 21.3146 4.125 21.7874 4.125 22.0043Z" fill="#5CD400"/>
<path fill-rule="evenodd" clip-rule="evenodd" d="M20.5604 19.6789C20.606 19.8433 20.6319 19.8105 20.7491 19.9023C20.8467 19.9811 20.8988 20.0336 20.9702 20.1322C21.1004 20.3095 21.2242 20.4736 21.2827 20.7298C21.4779 20.6772 21.3218 20.6772 21.6081 20.4606C21.7315 20.3686 21.8227 20.3095 21.9529 20.2175L23.3777 19.2914C23.5858 19.1669 24.0153 19.0158 24.1326 18.8582C23.2672 18.3984 22.6619 18.5495 21.7512 19.009L20.5604 19.6789Z" fill="#5CD400"/>
<path fill-rule="evenodd" clip-rule="evenodd" d="M18.5621 10.8591L18.6031 11.8086C18.5972 11.9213 18.1742 12.6748 18.0623 12.829C18.0389 12.8705 18.0153 12.8942 17.992 12.918C17.9037 12.5263 18.3329 11.067 17.0163 9.28689C16.7399 8.90731 16.4344 8.61049 16.1051 8.27243C15.9524 8.11823 15.2411 7.40032 15.0119 7.40032C14.7298 7.40032 14.7298 7.65534 14.7239 7.76803C14.671 8.8658 14.671 9.54813 15.0059 10.5744C15.6821 12.6214 17.2807 12.9951 17.4689 13.1552C17.5335 13.2086 17.6804 13.4817 17.6922 13.5469C17.7214 13.6596 17.704 14.051 17.704 14.1937C17.704 14.6207 17.704 15.048 17.704 15.4691C17.5923 15.392 17.1868 14.9887 17.0807 14.8639C16.9691 14.7274 16.975 14.5851 16.9339 14.4012C16.4932 12.544 15.4174 11.5296 13.7246 10.6812C12.6786 10.159 12.3141 9.93956 12.7548 11.494C13.1486 12.8883 13.7423 13.9739 14.9708 14.6919C15.3409 14.9054 16.064 15.1844 16.6459 15.1844C16.8574 15.5877 17.704 16.1692 17.704 16.3768V17.777C16.8633 17.777 15.5645 18.5364 15.4644 18.9282C15.8877 19.029 15.3294 19.0942 16.3579 19.0942C17.5864 19.0942 18.7913 18.9815 19.9256 19.4441C20.1548 19.539 20.1843 19.628 20.3666 19.5213C20.4957 19.4382 20.6779 19.2959 20.8073 19.2603C20.672 18.75 19.3496 17.777 18.3151 17.777V14.6444C18.3151 14.5139 18.5503 14.4487 18.8146 14.2826C19.1732 14.057 19.097 14.1937 19.5436 14.1937C21.4657 14.1937 22.3944 13.4402 23.4876 12.3305L23.9579 11.8205C24.1753 11.5592 24.3986 11.4228 24.3986 11.1856C24.3986 10.8413 23.9519 10.8591 23.4581 10.8591C19.3144 10.8591 19.0146 13.4283 18.6501 13.7011C18.5503 13.7723 18.4268 13.8316 18.3151 13.9087C18.3151 13.3272 18.368 13.5054 18.7148 12.8646C19.4025 11.577 19.0852 12.4492 20.5899 11.1737C20.7485 11.0433 20.8073 10.9362 20.9367 10.788C21.7711 9.84467 22.1064 8.39105 22.3356 7.1275C22.3826 6.89591 22.2768 6.7002 22.071 6.7002C21.648 6.7002 20.2313 7.75616 19.7788 8.21312C19.1029 8.88952 18.5621 9.85653 18.5621 10.8591Z" fill="#5CD400"/>
<path d="M15.5347 8.7583C15.7268 9.5728 16.5337 11.6136 17.9684 13.2601V18.2762V15.9612C17.6694 15.7253 17.0076 15.1893 16.7514 14.932C16.4313 14.6106 14.2539 12.7455 13.4852 11.5235" stroke="white" stroke-width="0.2" stroke-linecap="round"/>
<path d="M21.5545 12.3359C20.5586 12.8372 19.5191 13.4605 18.9291 13.8387C19.1203 13.6466 20.3646 12.9185 21.5545 12.3359C22.2515 11.9849 22.9268 11.6937 23.4119 11.5878C22.9771 11.6829 22.2757 11.9826 21.5545 12.3359Z" fill="#5CD400"/>
<path d="M21.4266 7.98633C20.8076 8.8655 19.4925 10.7775 19.1851 11.3949L17.9684 13.26V14.3385M17.9684 14.3385L18.8712 13.8677L18.9291 13.8387M17.9684 14.3385V18.2543M18.9291 13.8387C19.9323 13.1956 22.2335 11.845 23.412 11.5878C22.2594 11.8394 19.2365 13.53 18.9291 13.8387Z" stroke="white" stroke-width="0.2" stroke-linecap="round"/>
</g>
<path d="M30.8938 -5.58508H0.699951C-0.620355 -5.58508 -1.69067 -4.51031 -1.69067 -3.18451V60.3234C-1.69067 61.6492 -0.620355 62.724 0.699951 62.724H30.8938C32.2141 62.724 33.2845 61.6492 33.2845 60.3234V-3.18451C33.2845 -4.51031 32.2141 -5.58508 30.8938 -5.58508Z" stroke="url(#paint3_linear_1432_2385)"/>
<path d="M35.2845 6.60343C41.9979 6.73136 45.9287 9.60979 45.5478 15.0772C44.6546 27.7785 22.6338 45.5334 5.69246 47.0142C-4.03513 47.8674 -8.47298 42.7245 -5.44785 34.4337C-4.97366 33.1357 -4.79282 33.0677 -4.90588 34.2295C-4.92894 34.5015 -5.13398 35.1231 -5.15816 35.5185C-5.54685 42.8143 2.30228 45.3835 13.4552 41.446C30.492 35.4298 45.2089 18.9952 41.0906 10.7341C40.0393 8.61681 37.9966 7.32812 34.963 6.86749C34.9515 6.86551 34.943 6.86043 34.9391 6.85252C34.9349 6.84461 34.9349 6.83417 34.9388 6.8223C34.943 6.81044 34.9512 6.79745 34.9627 6.78446C34.9742 6.77147 34.9886 6.75904 35.0043 6.74831C35.053 6.71583 35.1017 6.68335 35.1503 6.65087C35.1993 6.61839 35.2437 6.60258 35.2845 6.60343Z" fill="white"/>
<path d="M34.3563 6.44217C40.8652 6.54808 44.6691 9.3223 44.2852 14.6123C43.3861 26.9019 21.988 44.1363 5.55795 45.6136C-3.8763 46.4646 -8.16565 41.501 -5.21111 33.4727C-4.74761 32.2156 -4.57239 32.1495 -4.68489 33.2738C-4.70796 33.5371 -4.90849 34.1389 -4.93268 34.5216C-5.32868 41.5801 2.27492 44.0448 13.0994 40.2064C29.6338 34.3414 43.9466 18.4038 39.9751 10.4226C38.9612 8.37732 36.984 7.1358 34.0438 6.69833C34.0325 6.69663 34.0247 6.69155 34.0205 6.68392C34.0165 6.6763 34.0165 6.66642 34.0205 6.65484C34.0247 6.64326 34.0325 6.63055 34.0438 6.61812C34.0548 6.60569 34.0688 6.59355 34.0843 6.5831C34.1315 6.55147 34.1788 6.52012 34.226 6.48849C34.2733 6.45686 34.3169 6.44132 34.3563 6.44217Z" fill="#FD9430"/>
<path d="M34.4039 6.37543C40.7576 6.24721 44.3765 8.74211 43.8176 13.7678C42.5112 25.4428 21.0108 42.5227 4.91145 44.4991C-4.33295 45.6367 -8.34977 41.0847 -5.1843 33.3743C-4.68789 32.1672 -4.51436 32.0983 -4.66342 33.1676C-4.6952 33.4175 -4.91205 33.995 -4.94889 34.3582C-5.5817 41.0598 1.75949 43.128 12.4658 39.1114C28.82 32.9741 43.3547 17.3715 39.7535 9.94946C38.8344 8.04708 36.9464 6.94027 34.0897 6.62904C34.0788 6.62791 34.0712 6.62339 34.0675 6.61633C34.0639 6.60927 34.0641 6.59967 34.0686 6.58865C34.0729 6.57764 34.0813 6.56522 34.0926 6.55307C34.1038 6.54064 34.1179 6.52878 34.1333 6.51861C34.1806 6.48698 34.2278 6.45535 34.2751 6.42372C34.3223 6.39209 34.3654 6.37599 34.4039 6.37543Z" fill="#FD9430"/>
</g>
</g>
</g>
<defs>
<filter id="filter0_d_1432_2385" x="-29.0237" y="-17.8704" width="79.3363" height="102.805" filterUnits="userSpaceOnUse" color-interpolation-filters="sRGB">
<feFlood flood-opacity="0" result="BackgroundImageFix"/>
<feColorMatrix in="SourceAlpha" type="matrix" values="0 0 0 0 0 0 0 0 0 0 0 0 0 0 0 0 0 0 127 0" result="hardAlpha"/>
<feOffset dy="4"/>
<feGaussianBlur stdDeviation="2"/>
<feComposite in2="hardAlpha" operator="out"/>
<feColorMatrix type="matrix" values="0 0 0 0 0 0 0 0 0 0 0 0 0 0 0 0 0 0 0.25 0"/>
<feBlend mode="normal" in2="BackgroundImageFix" result="effect1_dropShadow_1432_2385"/>
<feBlend mode="normal" in="SourceGraphic" in2="effect1_dropShadow_1432_2385" result="shape"/>
</filter>
<linearGradient id="paint0_linear_1432_2385" x1="23.9532" y1="0.487044" x2="23.9532" y2="16.3026" gradientUnits="userSpaceOnUse">
<stop stop-color="#2A7EBA"/>
<stop offset="1" stop-color="#A7C4D9" stop-opacity="0"/>
</linearGradient>
<linearGradient id="paint1_linear_1432_2385" x1="26.0626" y1="10.9366" x2="26.0626" y2="31.2709" gradientUnits="userSpaceOnUse">
<stop stop-color="#2A7EBA"/>
<stop offset="1" stop-color="#A7C4D9" stop-opacity="0"/>
</linearGradient>
<linearGradient id="paint2_linear_1432_2385" x1="24.6563" y1="26.7521" x2="24.6563" y2="44.2622" gradientUnits="userSpaceOnUse">
<stop stop-color="#2A7EBA"/>
<stop offset="1" stop-color="#A7C4D9" stop-opacity="0"/>
</linearGradient>
<linearGradient id="paint3_linear_1432_2385" x1="15.7969" y1="-6.29113" x2="15.7969" y2="63.4301" gradientUnits="userSpaceOnUse">
<stop stop-color="#00487B"/>
<stop offset="1" stop-color="#004373"/>
</linearGradient>
<clipPath id="clip0_1432_2385">
<rect width="32" height="32" rx="16" fill="white"/>
</clipPath>
<clipPath id="clip1_1432_2385">
<rect width="144" height="98" fill="white" transform="translate(-60 -19)"/>
</clipPath>
</defs>
</svg>
