<svg width="411" height="276" viewBox="0 0 411 276" fill="none" xmlns="http://www.w3.org/2000/svg">
<path d="M91.152 58.4791L14.5742 109.705L90.0029 222.464L166.581 171.238L91.152 58.4791Z" fill="#E2FDEE"/>
<path d="M127.007 165.905L126.141 171.283L88.0703 165.796L88.9371 160.417L127.007 165.905Z" fill="#E0E0E0"/>
<path d="M107.838 146.72L113.298 147.505L107.244 184.988L101.777 184.196L107.838 146.72Z" fill="#E0E0E0"/>
<path d="M72.8038 99.0806C72.8584 99.1556 65.187 104.39 55.666 110.751C46.1451 117.112 38.385 122.218 38.3304 122.136C38.2758 122.054 45.9471 116.826 55.4681 110.458C64.9891 104.09 72.715 98.9987 72.8038 99.0806Z" fill="#E0E0E0"/>
<path d="M100.938 92.0099C100.993 92.0918 88.23 100.719 72.4368 111.284C56.6436 121.849 43.7715 130.346 43.7306 130.271C43.6896 130.196 56.4252 121.556 72.2389 110.99C88.0525 100.425 100.884 91.928 100.938 92.0099Z" fill="#E0E0E0"/>
<path d="M106.583 100.446C106.637 100.527 93.8745 109.161 78.0813 119.726C62.2881 130.292 49.416 138.789 49.3751 138.707C49.3341 138.625 62.0834 129.998 77.8834 119.426C93.6834 108.854 106.528 100.364 106.583 100.446Z" fill="#E0E0E0"/>
<path d="M112.227 108.888C112.282 108.97 99.519 117.604 83.7258 128.162C67.9326 138.721 55.0605 147.231 55.0605 147.15C55.0605 147.068 67.762 138.434 83.562 127.869C99.362 117.304 112.173 108.806 112.227 108.888Z" fill="#E0E0E0"/>
<path d="M117.849 117.331C117.904 117.413 105.141 126.04 89.3479 136.605C73.5547 147.17 60.6826 155.667 60.6485 155.585C60.6144 155.503 73.3704 146.876 89.1841 136.311C104.998 125.746 117.849 117.249 117.849 117.331Z" fill="#E0E0E0"/>
<path d="M347.219 134.035L282.906 177.056L346.252 271.753L410.565 228.732L347.219 134.035Z" fill="#E2FDEE"/>
<path d="M377.339 224.273L376.608 228.791L344.633 224.184L345.37 219.666L377.339 224.273Z" fill="#E0E0E0"/>
<path d="M361.238 208.159L365.824 208.821L360.74 240.298L356.146 239.636L361.238 208.159Z" fill="#E0E0E0"/>
<path d="M331.789 168.184C331.844 168.266 325.408 172.668 317.409 178.012C309.41 183.356 302.885 187.629 302.83 187.567C302.776 187.506 309.219 183.09 317.211 177.739C325.203 172.389 331.735 168.068 331.789 168.184Z" fill="#E0E0E0"/>
<path d="M355.437 162.212C355.492 162.294 344.783 169.556 331.55 178.422C318.316 187.288 307.484 194.427 307.43 194.345C307.375 194.263 318.084 187.001 331.318 178.129C344.551 169.256 355.362 162.131 355.437 162.212Z" fill="#E0E0E0"/>
<path d="M360.182 169.297C360.236 169.379 349.528 176.641 336.294 185.513C323.06 194.386 312.229 201.511 312.174 201.429C312.119 201.347 322.794 194.12 336.062 185.247C349.33 176.375 360.141 169.222 360.182 169.297Z" fill="#E0E0E0"/>
<path d="M364.918 176.375C364.972 176.456 354.257 183.718 341.03 192.591C327.803 201.463 316.965 208.589 316.91 208.507C316.856 208.425 327.564 201.17 340.798 192.291C354.032 183.411 364.87 176.306 364.918 176.375Z" fill="#E0E0E0"/>
<path d="M369.693 183.479C369.748 183.561 359.039 190.816 345.806 199.689C332.572 208.562 321.74 215.687 321.686 215.612C321.631 215.537 332.34 208.268 345.573 199.396C358.807 190.523 369.605 183.398 369.693 183.479Z" fill="#E0E0E0"/>
<path d="M245.473 62.6276L175.299 25.0953L120.034 128.424L190.207 165.956L245.473 62.6276Z" fill="#E2FDEE"/>
<path d="M178.198 133.629L173.748 135.151L162.445 103.913L166.902 102.384L178.198 133.629Z" fill="#E0E0E0"/>
<path d="M185.021 111.216L186.645 115.7L155.619 126.326L153.994 121.842L185.021 111.216Z" fill="#E0E0E0"/>
<path d="M207.068 65.1259C207.014 65.2283 199.902 61.5291 191.173 56.8676C182.443 52.2061 175.42 48.3363 175.475 48.2339C175.53 48.1315 182.648 51.8307 191.377 56.4922C200.107 61.1537 207.123 65.0167 207.068 65.1259Z" fill="#E0E0E0"/>
<path d="M223.913 83.7106C223.858 83.813 212.078 77.6158 197.602 69.8762C183.126 62.1366 171.442 55.7756 171.496 55.6732C171.551 55.5709 183.324 61.7612 197.8 69.5077C212.276 77.2541 223.967 83.6082 223.913 83.7106Z" fill="#E0E0E0"/>
<path d="M219.774 91.4433C219.719 91.5457 207.939 85.3553 193.463 77.6089C178.988 69.8624 167.303 63.5083 167.358 63.4059C167.412 63.3035 179.185 69.5007 193.661 77.2403C208.137 84.9799 219.829 91.3409 219.774 91.4433Z" fill="#E0E0E0"/>
<path d="M215.639 99.1762C215.585 99.2786 203.805 93.0883 189.329 85.3487C174.853 77.609 163.168 71.2686 163.223 71.1457C163.277 71.0229 175.051 77.2337 189.527 84.9733C204.003 92.7129 215.694 99.0739 215.639 99.1762Z" fill="#E0E0E0"/>
<path d="M211.505 106.909C211.45 107.011 199.67 100.821 185.194 93.0814C170.718 85.3418 159.027 78.9808 159.088 78.8784C159.15 78.7761 170.916 84.9664 185.392 92.706C199.868 100.446 211.559 106.807 211.505 106.909Z" fill="#E0E0E0"/>
<path d="M394.038 275.222C394.038 275.317 305.824 275.399 197.026 275.399C88.2276 275.399 0 275.338 0 275.222C0 275.106 88.2003 275.044 197.026 275.044C305.852 275.044 394.038 275.119 394.038 275.222Z" fill="#263238"/>
<g opacity="0.4">
<path fill-rule="evenodd" clip-rule="evenodd" d="M63.7168 266.585V251.819H62.1566H60.3457V266.585H62.1566H63.7168Z" fill="#D3C2B8"/>
<path fill-rule="evenodd" clip-rule="evenodd" d="M62.0176 194.802C65.737 194.802 74.1648 211.184 74.1648 229.001C74.1648 246.818 68.9967 253.658 62.0176 253.658C55.0385 253.658 49.9121 246.832 49.9121 229.001C49.9121 211.17 58.2982 194.802 62.0176 194.802Z" fill="#5DB089"/>
<path fill-rule="evenodd" clip-rule="evenodd" d="M70.528 216.436C70.528 234.197 64.8305 248.587 57.8096 248.587C56.6514 248.493 55.5306 248.132 54.535 247.533C53.5394 246.933 52.6958 246.112 52.0703 245.133C53.923 250.329 56.8345 252.92 60.3449 253.491C60.8969 253.587 61.4563 253.633 62.0166 253.63C62.586 253.633 63.1547 253.587 63.7161 253.491C69.8176 252.418 74.1638 245.328 74.1638 228.973C74.1028 221.177 72.6498 213.455 69.8733 206.169C70.3123 209.574 70.531 213.003 70.528 216.436Z" fill="#79B79A"/>
<path fill-rule="evenodd" clip-rule="evenodd" d="M57.8099 248.587C64.7751 248.587 70.5283 234.197 70.5283 216.436C70.53 213.012 70.3114 209.592 69.8736 206.197C67.3383 199.636 64.3014 195.22 62.2955 194.83C62.712 198.143 62.9167 201.479 62.9084 204.818C62.9084 222.482 57.3363 236.858 50.3711 236.969C50.6428 239.748 51.2317 242.487 52.1263 245.132C52.7463 246.105 53.581 246.922 54.5664 247.521C55.5517 248.12 56.6614 248.484 57.8099 248.587Z" fill="#5DB089"/>
<path fill-rule="evenodd" clip-rule="evenodd" d="M363.414 268.981V254.201H361.868H360.043V268.981H361.868H363.414Z" fill="#D3C2B8"/>
<path fill-rule="evenodd" clip-rule="evenodd" d="M361.715 197.184C365.434 197.184 373.862 213.566 373.862 231.397C373.862 249.228 368.708 256.053 361.715 256.053C354.722 256.053 349.609 249.214 349.609 231.397C349.609 213.58 357.968 197.184 361.715 197.184Z" fill="#5DB089"/>
<path fill-rule="evenodd" clip-rule="evenodd" d="M370.227 218.818C370.227 236.579 364.53 250.983 357.509 250.983C355.447 250.983 353.497 249.73 351.77 247.529C353.622 252.711 356.534 255.316 360.044 255.887C360.596 255.983 361.156 256.029 361.716 256.026C362.285 256.023 362.853 255.977 363.415 255.887C369.531 254.814 373.863 247.71 373.863 231.369C373.811 223.568 372.358 215.839 369.573 208.552C370.018 211.955 370.237 215.385 370.227 218.818Z" fill="#79B79A"/>
<path fill-rule="evenodd" clip-rule="evenodd" d="M357.504 250.983C364.469 250.983 370.223 236.579 370.223 218.818C370.231 215.394 370.013 211.974 369.568 208.579C367.047 202.018 363.996 197.602 361.99 197.212C362.41 200.525 362.62 203.861 362.617 207.2C362.617 224.864 356.975 239.24 350.01 239.351C350.282 242.135 350.871 244.879 351.765 247.529C353.492 249.73 355.443 250.983 357.504 250.983Z" fill="#5DB089"/>
<path fill-rule="evenodd" clip-rule="evenodd" d="M133.704 256.792V248.378H132.826H131.781V256.792H132.826H133.704Z" fill="#D3C2B8"/>
<path fill-rule="evenodd" clip-rule="evenodd" d="M132.739 215.921C134.857 215.921 139.704 225.24 139.704 235.423C139.704 245.606 136.765 249.465 132.739 249.465C128.713 249.465 125.844 245.564 125.844 235.423C125.844 225.282 130.622 215.921 132.739 215.921Z" fill="#5DB089"/>
<path fill-rule="evenodd" clip-rule="evenodd" d="M137.59 228.235C137.59 238.348 134.344 246.539 130.346 246.539C129.686 246.485 129.048 246.279 128.48 245.939C127.913 245.598 127.431 245.132 127.072 244.575C128.131 247.528 129.789 249.005 131.781 249.353C132.417 249.465 133.067 249.465 133.703 249.353C137.186 248.74 139.651 244.701 139.651 235.423C139.617 230.985 138.791 226.588 137.214 222.44C137.462 224.362 137.588 226.297 137.59 228.235Z" fill="#79B79A"/>
<path fill-rule="evenodd" clip-rule="evenodd" d="M130.345 246.54C134.343 246.54 137.589 238.349 137.589 228.235C137.588 226.288 137.463 224.343 137.213 222.412C135.82 218.679 134.023 216.158 132.894 215.935C133.139 217.819 133.26 219.718 133.256 221.618C133.256 231.676 130.039 239.839 126.068 239.923C126.229 241.506 126.565 243.067 127.071 244.576C127.43 245.132 127.912 245.599 128.479 245.939C129.047 246.28 129.685 246.485 130.345 246.54Z" fill="#5DB089"/>
<path fill-rule="evenodd" clip-rule="evenodd" d="M300.213 256.36V247.947H299.336H298.305V256.36H299.336H300.213Z" fill="#D3C2B8"/>
<path fill-rule="evenodd" clip-rule="evenodd" d="M299.252 215.461C301.37 215.461 306.217 224.78 306.217 234.963C306.217 245.147 303.278 248.991 299.252 248.991C295.226 248.991 292.287 245.105 292.287 234.963C292.287 224.822 297.135 215.461 299.252 215.461Z" fill="#5DB089"/>
<path fill-rule="evenodd" clip-rule="evenodd" d="M304.099 227.803C304.099 237.917 300.854 246.108 296.856 246.108C296.196 246.051 295.559 245.845 294.992 245.504C294.424 245.164 293.942 244.698 293.582 244.143C294.641 247.097 296.368 248.573 298.304 248.921C298.618 248.966 298.935 248.989 299.252 248.991C299.574 248.992 299.896 248.964 300.213 248.908C303.695 248.309 306.161 244.269 306.161 234.977C306.134 230.538 305.309 226.14 303.723 221.994C303.973 223.92 304.098 225.861 304.099 227.803Z" fill="#79B79A"/>
<path fill-rule="evenodd" clip-rule="evenodd" d="M296.856 246.108C300.854 246.108 304.1 237.917 304.1 227.803C304.1 225.856 303.974 223.911 303.724 221.981C302.331 218.233 300.534 215.726 299.406 215.503C299.65 217.388 299.771 219.286 299.768 221.186C299.768 231.244 296.55 239.407 292.594 239.491C292.743 241.075 293.075 242.636 293.583 244.144C293.943 244.699 294.425 245.164 294.992 245.504C295.56 245.845 296.197 246.051 296.856 246.108Z" fill="#5DB089"/>
<path d="M8.18945 275.738C8.18945 275.738 206.962 218.624 402.418 275.738H8.18945Z" fill="#006837"/>
</g>
<path d="M21.8115 232.476C22.9654 232.56 24.0907 232.874 25.1202 233.402C26.1498 233.93 27.0625 234.659 27.8039 235.548C29.278 237.334 30.3218 239.436 30.8547 241.69C32.0081 246.004 31.2983 251.102 30.0698 255.395C25.4014 253.723 22.5144 248.74 21.1972 246.12C19.1497 241.984 17.928 233.248 21.791 232.469" fill="#72D250"/>
<path d="M36.7908 260.63C36.0897 259.542 35.6889 258.289 35.629 256.997C35.569 255.705 35.8521 254.42 36.4495 253.272C37.0656 252.136 37.902 251.133 38.9098 250.324C39.9175 249.514 41.0765 248.913 42.3191 248.556C43.4589 248.201 44.7829 248.058 45.7726 248.72C46.2187 249.057 46.5661 249.508 46.7786 250.026C46.9911 250.543 47.0608 251.108 46.9806 251.661C46.8014 252.77 46.3303 253.812 45.6156 254.678C43.3428 257.756 40.5855 260.316 36.743 260.63" fill="#72D250"/>
<path d="M37.3112 275.051C37.2099 274.761 37.139 274.462 37.0996 274.157C36.9768 273.515 36.8129 272.69 36.615 271.7C36.0024 268.99 35.8318 266.199 36.11 263.435C36.4318 260.657 37.4897 258.016 39.1744 255.784C39.6892 255.117 40.2827 254.514 40.9421 253.989C41.1213 253.847 41.3081 253.715 41.5018 253.593C41.5634 253.542 41.6324 253.5 41.7065 253.47C40.8432 254.208 40.0545 255.028 39.3519 255.92C37.756 258.154 36.7511 260.756 36.4308 263.483C35.9939 266.663 36.5331 269.577 36.8471 271.673C37.0109 272.717 37.1474 273.563 37.2225 274.15C37.2762 274.448 37.3059 274.749 37.3112 275.051Z" fill="#263238"/>
<path d="M23.3125 239.049C23.3904 239.156 23.4546 239.273 23.5036 239.397C23.6265 239.67 23.7903 240.011 23.9814 240.441C24.3977 241.349 24.9778 242.666 25.6808 244.297C27.0868 247.567 28.9705 252.112 30.9361 257.176C32.9017 262.24 34.5739 266.861 35.7136 270.226C36.3006 271.905 36.7579 273.27 37.0787 274.218C37.222 274.669 37.3312 275.031 37.4199 275.31C37.4686 275.436 37.503 275.566 37.5223 275.699C37.4531 275.584 37.3981 275.46 37.3585 275.331C37.2561 275.058 37.1264 274.703 36.9558 274.259L35.5157 270.301C34.294 266.963 32.5878 262.35 30.629 257.292C28.6702 252.235 26.8138 247.676 25.4624 244.386C24.7799 242.768 24.2544 241.451 23.8653 240.489C23.6879 240.052 23.5446 239.704 23.4354 239.424C23.3841 239.303 23.343 239.177 23.3125 239.049Z" fill="#263238"/>
<path d="M31.7618 265.51C30.3575 263.172 28.4168 261.201 26.1002 259.762C23.7836 258.322 21.1576 257.455 18.4393 257.231C17.0743 257.135 15.3953 257.367 14.7811 258.596C14.1668 259.824 14.9858 261.326 15.9277 262.322C17.9288 264.416 20.5049 265.87 23.3313 266.502C26.1576 267.133 29.1077 266.914 31.8096 265.871" fill="#72D250"/>
<path d="M20.541 260.93C20.8304 260.915 21.1205 260.927 21.4078 260.964C21.7443 260.982 22.0794 261.021 22.4111 261.08C22.8001 261.155 23.2574 261.196 23.7352 261.333C24.2692 261.446 24.7957 261.591 25.3118 261.769C25.9096 261.961 26.4954 262.189 27.0658 262.452C28.3779 263.04 29.6189 263.775 30.765 264.643C31.8978 265.531 32.9239 266.548 33.8226 267.673C34.2107 268.163 34.5686 268.675 34.8942 269.209C35.1884 269.669 35.4573 270.145 35.6995 270.635C35.9046 271.034 36.0869 271.444 36.2455 271.864C36.3824 272.174 36.4986 272.493 36.5936 272.819C36.6947 273.091 36.7701 273.372 36.8188 273.659C36.7437 273.659 36.4161 272.485 35.4948 270.737C35.2439 270.268 34.9682 269.812 34.6689 269.372C34.3363 268.855 33.9764 268.356 33.5906 267.878C31.8054 265.672 29.5289 263.914 26.943 262.745C26.3492 262.486 25.7827 262.24 25.2299 262.063C24.7223 261.878 24.2051 261.721 23.6806 261.592C21.7696 261.066 20.5342 261.005 20.541 260.93Z" fill="#263238"/>
<path d="M145.15 135.11L120.989 259.19L117.85 275.434L278.921 274.656C286.156 274.621 292.571 268.199 294.885 258.658L323.455 141.519C325.222 134.278 321.346 126.743 315.858 126.75L152.794 126.92C149.245 126.913 146.064 130.271 145.15 135.11Z" fill="#19884A"/>
<g opacity="0.5">
<path d="M145.15 135.11L120.989 259.19L117.85 275.433L278.921 274.655C286.156 274.621 292.571 268.199 294.885 258.657L323.455 141.519C325.222 134.277 321.346 126.743 315.858 126.749L152.794 126.92C149.245 126.913 146.064 130.271 145.15 135.11Z" fill="black"/>
</g>
<path d="M263.49 250.768L246.427 113.304C245.745 107.673 241.247 103.469 235.944 103.49L198.543 103.606C197.153 103.621 195.781 103.92 194.51 104.483C193.239 105.046 192.096 105.862 191.151 106.882L173.406 125.767L69.3919 126.326C63.0378 126.36 58.1511 132.38 58.9905 139.137L74.8315 266.186C75.514 271.809 80.0117 276.007 85.3012 276L266.609 275.638C286.798 276.055 288.729 270.096 288.729 270.096C265.551 275.222 263.49 250.802 263.49 250.768Z" fill="#19884A"/>
<g opacity="0.5">
<path d="M166.005 194.957L162.745 198.457L137.643 175.872L140.902 172.372L166.005 194.957Z" fill="white"/>
<path d="M161.38 171.597L164.982 174.839L142.269 199.232L138.664 195.99L161.38 171.597Z" fill="white"/>
</g>
<path d="M291.099 31.1441C290.878 31.051 290.688 30.897 290.552 30.7C290.415 30.503 290.337 30.2712 290.328 30.0317L290.055 23.698C290.045 23.5012 290.081 23.3048 290.161 23.1245C290.24 22.9442 290.36 22.7848 290.512 22.659C290.664 22.5332 290.843 22.4444 291.034 22.3996C291.226 22.3549 291.426 22.3554 291.618 22.4012C292.146 22.5153 292.692 22.5202 293.223 22.4157C293.753 22.3113 294.257 22.0997 294.703 21.7938C295.113 21.534 295.466 21.1928 295.739 20.7914C296.013 20.3899 296.201 19.9367 296.293 19.4596C296.355 18.9766 296.319 18.486 296.187 18.0171C296.056 17.5481 295.832 17.1103 295.528 16.7296C295.209 16.2964 294.806 15.9306 294.345 15.653C293.884 15.3755 293.372 15.1916 292.839 15.1121C291.765 15.0524 290.703 15.3568 289.823 15.9761C288.944 16.5954 288.299 17.4933 287.994 18.5246C287.892 18.8371 287.673 19.0982 287.383 19.2535C287.094 19.4088 286.755 19.4464 286.439 19.3584C286.122 19.2705 285.851 19.0637 285.683 18.7813C285.515 18.4988 285.463 18.1624 285.537 17.8421C286.001 16.2201 287.01 14.8074 288.393 13.8416C289.776 12.8758 291.45 12.4158 293.133 12.539C294.009 12.6557 294.852 12.9472 295.613 13.3963C296.374 13.8453 297.037 14.4427 297.562 15.153C298.073 15.8113 298.447 16.5655 298.662 17.3709C298.876 18.1762 298.927 19.0165 298.811 19.8418C298.656 20.666 298.334 21.4497 297.864 22.1446C297.395 22.8394 296.788 23.4308 296.081 23.8823C295.057 24.5716 293.861 24.9616 292.628 25.0084L292.839 29.8951C292.847 30.1099 292.801 30.3231 292.704 30.5151C292.608 30.7071 292.465 30.8716 292.288 30.9934C292.111 31.1153 291.906 31.1904 291.692 31.212C291.478 31.2336 291.263 31.2009 291.065 31.1168L291.099 31.1441Z" fill="#72D250"/>
<path d="M292.969 33.7377C292.983 33.9438 292.936 34.1495 292.833 34.3288C292.731 34.5082 292.577 34.6531 292.392 34.7451C292.207 34.8372 291.999 34.8723 291.794 34.8461C291.589 34.8199 291.397 34.7334 291.241 34.5977C291.085 34.462 290.973 34.2831 290.919 34.0837C290.865 33.8843 290.871 33.6733 290.937 33.4775C291.003 33.2816 291.126 33.1098 291.289 32.9835C291.453 32.8573 291.65 32.7825 291.856 32.7685C291.993 32.7583 292.131 32.7753 292.261 32.8187C292.391 32.862 292.511 32.9307 292.615 33.0208C292.718 33.111 292.803 33.2207 292.864 33.3438C292.924 33.4668 292.96 33.6007 292.969 33.7377Z" fill="#72D250"/>
<path d="M269.17 22.2101C269.199 22.0751 269.22 21.9383 269.231 21.8006C269.231 21.5003 269.306 21.1181 269.361 20.5789C269.428 19.917 269.54 19.2603 269.695 18.6133C269.784 18.2311 269.832 17.808 269.968 17.378C270.105 16.948 270.241 16.4839 270.391 16.013C271.182 13.6797 272.333 11.4849 273.804 9.50869C275.732 6.94973 278.175 4.82443 280.977 3.27058C282.572 2.37148 284.27 1.67015 286.034 1.18212C287.939 0.677362 289.9 0.420436 291.87 0.417706C292.908 0.401042 293.945 0.455773 294.975 0.581509C295.501 0.63611 296.02 0.772611 296.545 0.861337C297.077 0.952366 297.601 1.08007 298.115 1.24354C300.266 1.84471 302.312 2.77233 304.182 3.99404C308.34 6.6908 311.507 10.6677 313.205 15.3236C314.119 17.8177 314.582 20.4547 314.57 23.111C314.598 25.8475 314.114 28.5651 313.144 31.1237L312.837 31.9017L312.796 32.0041L312.837 32.1065C314.55 36.0445 316.249 39.9144 317.853 43.6613L318.14 43.3337L307.902 39.4093L307.779 39.3615L307.677 39.4571C304.969 42.0812 301.653 43.9944 298.026 45.0263C294.927 45.8795 291.682 46.0658 288.506 45.5729C285.329 45.0799 282.293 43.919 279.598 42.1666C277.391 40.7192 275.446 38.9076 273.845 36.8089C271.525 33.7457 270.022 30.143 269.477 26.3393C269.395 25.6568 269.327 25.0835 269.265 24.5648C269.204 24.0461 269.265 23.6229 269.231 23.2612C269.197 22.8995 269.231 22.6606 269.231 22.4627C269.265 22.4575 269.296 22.4397 269.318 22.4127C269.339 22.3858 269.349 22.3518 269.347 22.3174C269.344 22.2831 269.329 22.251 269.304 22.2276C269.278 22.2042 269.245 22.1912 269.211 22.1912C269.176 22.1912 269.143 22.2042 269.118 22.2276C269.093 22.251 269.077 22.2831 269.075 22.3174C269.072 22.3518 269.082 22.3858 269.104 22.4127C269.125 22.4397 269.156 22.4575 269.19 22.4627C269.19 22.6606 269.19 22.9268 269.19 23.2612C269.19 23.5956 269.19 24.0597 269.19 24.5784C269.19 25.0971 269.306 25.6909 269.375 26.3666C269.599 28.0082 269.99 29.6227 270.542 31.1851C271.323 33.2484 272.374 35.1991 273.667 36.9864C275.275 39.1224 277.234 40.9688 279.462 42.4464C282.19 44.2426 285.269 45.438 288.494 45.9534C291.719 46.4688 295.018 46.2924 298.169 45.4358C301.84 44.3933 305.197 42.4617 307.943 39.812L307.718 39.8598L317.955 43.8046L318.467 44.0026L318.242 43.477C316.618 39.7301 314.939 35.8671 313.232 31.9222V32.1201L313.546 31.3216C314.542 28.7072 315.038 25.929 315.007 23.1315C315.028 20.4188 314.566 17.724 313.642 15.1735C311.908 10.4247 308.67 6.37224 304.421 3.63231C302.504 2.38211 300.404 1.43804 298.197 0.834036C297.675 0.668765 297.141 0.543281 296.6 0.458658C296.067 0.363107 295.542 0.226606 295.009 0.17883C293.966 0.0492602 292.915 -0.0100228 291.863 0.00137975C289.862 0.00985164 287.87 0.28061 285.939 0.806737C284.151 1.31443 282.43 2.03389 280.813 2.94981C277.984 4.54178 275.525 6.71698 273.599 9.33124C272.133 11.3401 270.997 13.5705 270.234 15.9379C270.091 16.4293 269.955 16.9002 269.832 17.3029C269.723 17.7144 269.637 18.1313 269.572 18.5519C269.426 19.2033 269.33 19.865 269.286 20.5312C269.245 21.0567 269.218 21.4594 269.197 21.7597C269.168 21.908 269.159 22.0594 269.17 22.2101Z" fill="#263238"/>
<path d="M347.908 241.493L348.645 254.754C348.645 254.754 335.248 259.941 335.139 262.405L361.217 261.907L360.931 241.206L347.908 241.493Z" fill="#263238"/>
<path d="M356.684 253.485C356.936 253.552 357.153 253.712 357.293 253.931C357.434 254.151 357.487 254.415 357.442 254.672C357.38 254.926 357.223 255.145 357.003 255.285C356.782 255.425 356.517 255.474 356.261 255.423C355.995 255.352 355.765 255.183 355.617 254.951C355.469 254.718 355.414 254.439 355.463 254.167C355.55 253.903 355.738 253.683 355.985 253.556C356.233 253.428 356.521 253.403 356.787 253.485" fill="#E0E0E0"/>
<path d="M361.216 261.907L361.107 259.818L336.141 261.067C336.141 261.067 334.994 261.586 335.137 262.391L361.216 261.907Z" fill="#455A64"/>
<path d="M348.216 254.631C348.216 254.754 348.864 254.802 349.499 255.191C350.133 255.58 350.475 256.106 350.591 256.058C350.707 256.01 350.502 255.28 349.731 254.816C348.959 254.352 348.188 254.515 348.216 254.631Z" fill="white"/>
<path d="M345.506 255.798C345.506 255.921 346.031 256.126 346.475 256.645C346.919 257.163 347.055 257.73 347.158 257.723C347.26 257.716 347.355 256.999 346.789 256.358C346.222 255.716 345.506 255.675 345.506 255.798Z" fill="white"/>
<path d="M344.011 259.061C344.127 259.061 344.291 258.453 343.957 257.771C343.622 257.088 343.015 256.822 342.96 256.931C342.906 257.041 343.288 257.396 343.554 257.962C343.82 258.528 343.889 259.047 344.011 259.061Z" fill="white"/>
<path d="M348.386 251.587C348.44 251.703 349.02 251.519 349.751 251.553C350.481 251.587 351.041 251.799 351.116 251.696C351.191 251.594 350.631 251.144 349.751 251.116C348.87 251.089 348.324 251.492 348.386 251.587Z" fill="white"/>
<path d="M382.156 240.886L383.569 256.891L380.989 269.858C380.946 270.081 380.949 270.31 380.999 270.531C381.049 270.753 381.143 270.961 381.277 271.145C381.411 271.328 381.581 271.481 381.777 271.596C381.973 271.71 382.19 271.783 382.415 271.81C382.678 271.842 382.945 271.812 383.194 271.722C383.443 271.632 383.667 271.484 383.848 271.291C386.169 268.787 394.68 259.539 394.509 258.372C394.311 257.007 394.154 241.398 394.154 241.398L382.156 240.886Z" fill="#263238"/>
<path d="M382.416 271.817L394.435 257.3L394.483 257.982C394.518 258.571 394.344 259.154 393.991 259.627C393.043 260.883 390.333 264.309 383.897 271.305C383.71 271.504 383.478 271.656 383.22 271.746C382.962 271.837 382.686 271.863 382.416 271.824V271.817Z" fill="#455A64"/>
<g opacity="0.6">
<path d="M390.77 252.352C390.569 252.501 390.435 252.724 390.399 252.972C390.362 253.219 390.426 253.471 390.575 253.672C390.724 253.873 390.947 254.006 391.195 254.043C391.443 254.079 391.695 254.016 391.896 253.867C392.09 253.703 392.218 253.473 392.254 253.222C392.291 252.97 392.234 252.714 392.094 252.502C391.915 252.322 391.676 252.216 391.423 252.205C391.17 252.194 390.922 252.278 390.729 252.44" fill="white"/>
</g>
<path d="M385.67 264.576C385.276 264.063 384.751 263.666 384.151 263.426C383.55 263.186 382.897 263.112 382.258 263.211C382.258 263.17 382.442 263.033 382.817 262.958C383.312 262.875 383.821 262.931 384.285 263.122C384.75 263.313 385.151 263.629 385.445 264.036C385.664 264.323 385.704 264.562 385.67 264.576Z" fill="white"/>
<path d="M384.655 266.793C384.171 266.568 383.674 266.37 383.167 266.2C382.638 266.132 382.104 266.098 381.57 266.097C381.811 265.926 382.088 265.815 382.38 265.772C382.672 265.729 382.97 265.757 383.249 265.851C384.225 266.07 384.737 266.746 384.655 266.793Z" fill="white"/>
<path d="M387.643 261.688C386.263 260.754 384.641 260.239 382.975 260.207C383.807 259.93 384.711 259.955 385.527 260.275C386.377 260.481 387.127 260.982 387.643 261.688Z" fill="white"/>
<path d="M387.622 256.788C387.588 256.884 386.667 256.576 385.5 256.604C384.332 256.631 383.418 256.972 383.377 256.877C384.013 256.486 384.741 256.272 385.487 256.256C386.234 256.24 386.971 256.424 387.622 256.788Z" fill="white"/>
<path d="M387.329 252.079C386.607 251.896 385.863 251.813 385.118 251.833C384.386 251.967 383.674 252.197 383.002 252.515C383.002 252.481 383.138 252.27 383.5 252.038C383.978 251.733 384.52 251.546 385.084 251.492C385.649 251.436 386.219 251.513 386.749 251.717C387.152 251.867 387.35 252.045 387.329 252.079Z" fill="white"/>
<path d="M385.09 250.932C385.025 250.739 385.004 250.534 385.029 250.332C385.049 249.773 385.179 249.223 385.411 248.714C385.552 248.323 385.818 247.989 386.169 247.765C386.291 247.703 386.43 247.68 386.567 247.698C386.703 247.716 386.831 247.776 386.933 247.868C387.114 248.05 387.221 248.293 387.233 248.55C387.229 249.093 387.035 249.618 386.685 250.033C386.334 250.448 385.85 250.727 385.315 250.823C384.783 250.914 384.236 250.846 383.743 250.626C383.249 250.406 382.832 250.045 382.545 249.588C382.473 249.473 382.428 249.343 382.411 249.209C382.395 249.075 382.408 248.938 382.449 248.81C382.51 248.684 382.608 248.579 382.73 248.511C382.852 248.443 382.992 248.413 383.131 248.427C383.535 248.488 383.916 248.653 384.237 248.905C384.701 249.224 385.103 249.624 385.425 250.086C385.559 250.24 385.657 250.422 385.711 250.618C385.248 250.044 384.706 249.538 384.101 249.117C383.813 248.907 383.477 248.771 383.125 248.721C383.05 248.71 382.974 248.725 382.909 248.762C382.844 248.799 382.792 248.856 382.763 248.926C382.742 249.011 382.739 249.1 382.755 249.187C382.77 249.274 382.803 249.357 382.852 249.431C383.107 249.818 383.467 250.125 383.89 250.316C384.313 250.507 384.781 250.574 385.24 250.509C385.691 250.422 386.099 250.187 386.4 249.84C386.701 249.494 386.877 249.056 386.899 248.598C386.897 248.412 386.829 248.233 386.708 248.093C386.652 248.04 386.582 248.006 386.506 247.995C386.43 247.984 386.353 247.996 386.285 248.031C385.981 248.216 385.742 248.49 385.602 248.816C385.31 249.486 385.137 250.202 385.09 250.932Z" fill="white"/>
<path d="M336.287 127.808C336.287 127.808 333.304 137.322 334.055 146.563C334.355 150.133 345.029 249.847 345.029 249.847H362.877L357.861 157.156L359.321 157.449C359.321 157.449 368.487 198.345 369.279 204.747C369.996 210.494 378.793 250.925 378.793 250.925L395.119 251.096L388.819 197.369L383.837 142.769L381.557 127.33L336.287 127.808Z" fill="#263238"/>
<path d="M327.508 37.6625C327.508 37.6625 311.189 56.4723 308.916 59.7893C306.644 63.1063 307.715 67.5767 308.916 69.0168C310.118 70.4569 340.653 81.923 340.653 81.923L344.42 63.4953L325.242 58.9157L334.695 44.2555L327.508 37.6625Z" fill="#FFBF9D"/>
<path d="M381.828 84.7963C382.511 85.2058 395.131 98.1734 395.131 98.1734L381.228 116.171C381.228 116.171 386.517 121.385 387.37 120.874C388.224 120.362 404.065 106.821 407.982 103.128C411.9 99.4361 410.03 95.457 409.613 94.3787C409.197 93.3003 392.237 70.491 388.995 67.1603C386.504 64.5873 383.535 65.338 382.675 65.1811C381.815 65.0241 375.918 76.265 375.918 76.265L381.828 84.7963Z" fill="#FFBF9D"/>
<path d="M386.489 89.5604L384.557 64.7445L372.675 62.2943L371.467 61.9803C371.467 61.9803 369.719 66.9285 360.581 66.4439C354.991 66.1436 355.284 62.5878 355.284 62.5878C355.284 62.5878 350.732 63.0178 350.432 63.0178C350.131 63.0178 344.405 63.475 344.405 63.475L340.638 81.9027L335.116 132.067L333.936 135.343L346.746 137.213C354.031 138.276 361.448 138.034 368.648 136.496L383.663 133.295L380.708 119.645L386.489 89.5604Z" fill="#006837"/>
<path d="M345.226 63.2975C345.176 63.1293 345.091 62.9732 344.978 62.8392C344.864 62.7051 344.724 62.5959 344.567 62.5184C344.409 62.4409 344.237 62.3967 344.062 62.3887C343.886 62.3806 343.711 62.4089 343.547 62.4717C342.987 62.7623 342.352 62.8788 341.725 62.8061L331.098 59.9532L330.143 79.5071L342.243 83.5134L347.97 68.0137L345.226 63.2975Z" fill="#006837"/>
<path d="M381.883 64.1915C381.883 64.1915 386.319 64.328 388.906 66.0548C391.493 67.7815 404.863 85.4653 404.863 85.4653C404.863 85.4653 391.281 97.5934 391.602 97.1361C391.922 96.6788 384.381 89.5603 384.381 89.5603L381.883 64.1915Z" fill="#006837"/>
<path d="M342.694 68.4164C342.796 68.4164 342.407 72.2248 341.834 76.8931C341.261 81.5615 340.722 85.3426 340.626 85.3289C340.53 85.3153 340.913 81.5205 341.486 76.8522C342.059 72.1839 342.598 68.4028 342.694 68.4164Z" fill="#263238"/>
<path d="M380.463 82.1005C380.264 81.9491 380.087 81.7698 379.938 81.5681C379.496 81.0422 379.116 80.4675 378.805 79.855C377.742 77.8192 377.391 75.486 377.808 73.2274C378.224 70.9689 379.385 68.9148 381.105 67.3925C381.612 66.9295 382.171 66.5264 382.77 66.1913C382.984 66.058 383.213 65.9525 383.453 65.8773C382.691 66.3954 381.963 66.9631 381.276 67.5768C379.652 69.1005 378.559 71.1038 378.157 73.2934C377.754 75.4831 378.062 77.7442 379.037 79.7459C379.457 80.5631 379.933 81.3499 380.463 82.1005Z" fill="#263238"/>
<path d="M372.417 46.5897C373.508 43.8433 374.358 41.007 374.956 38.113C375.558 35.2055 375.427 32.1937 374.574 29.3496C374.43 28.9265 373.209 26.0599 372.758 26.0872C372.438 26.0872 373.161 28.7627 372.99 29.0357C371.432 31.6905 370.718 34.7563 370.943 37.8263C371.103 40.7921 371.59 43.7311 372.397 46.5897" fill="#E0E0E0"/>
<path d="M371.468 62.3214L372.546 35.5126C373.058 28.121 369.748 21.4871 362.343 21.1799H361.538C358.242 21.2383 355.09 22.5344 352.706 24.8104C350.323 27.0865 348.883 30.176 348.672 33.465C348.27 39.9079 347.901 47.0537 347.99 50.5277C348.201 57.6394 355.327 58.6154 355.327 58.6154C355.327 58.6154 355.327 61.4888 355.265 63.5772C355.265 63.5772 356.214 66.8806 362.343 66.6349C368.977 66.3687 371.468 62.3214 371.468 62.3214Z" fill="#FFBF9D"/>
<path d="M355.341 58.6154C358.624 58.5535 361.82 57.5489 364.548 55.7216C364.548 55.7216 362.432 61.2226 355.334 60.7039L355.341 58.6154Z" fill="#FF9A6C"/>
<path d="M351.115 40.9863C351.119 41.2501 351.225 41.5022 351.411 41.6894C351.596 41.8767 351.848 41.9843 352.112 41.9896C352.243 42.0007 352.375 41.9851 352.5 41.9436C352.625 41.902 352.74 41.8355 352.838 41.748C352.937 41.6605 353.016 41.5539 353.072 41.4347C353.128 41.3154 353.159 41.1861 353.163 41.0545C353.159 40.7907 353.053 40.5386 352.867 40.3513C352.682 40.1641 352.43 40.0565 352.166 40.0512C352.035 40.04 351.903 40.0557 351.778 40.0972C351.653 40.1388 351.538 40.2053 351.44 40.2928C351.341 40.3803 351.262 40.4869 351.206 40.6061C351.15 40.7254 351.119 40.8547 351.115 40.9863Z" fill="#263238"/>
<path d="M350.468 37.4031C350.598 37.5328 351.355 36.9527 352.447 36.939C353.539 36.9254 354.351 37.4509 354.495 37.3144C354.638 37.1779 354.42 37.0209 354.065 36.7684C353.586 36.4514 353.021 36.2894 352.447 36.3043C351.879 36.3082 351.328 36.4975 350.878 36.8435C350.516 37.1028 350.434 37.3622 350.468 37.4031Z" fill="#263238"/>
<path d="M360.289 40.6451C360.291 40.9101 360.396 41.164 360.582 41.3526C360.768 41.5413 361.021 41.6498 361.286 41.6552C361.415 41.6625 361.544 41.6441 361.666 41.6009C361.789 41.5577 361.901 41.4906 361.997 41.4036C362.093 41.3166 362.17 41.2113 362.225 41.094C362.28 40.9766 362.311 40.8496 362.316 40.7201C362.316 40.4603 362.217 40.2104 362.037 40.0223C361.858 39.8341 361.613 39.7223 361.354 39.71C361.222 39.6979 361.089 39.7128 360.962 39.7538C360.836 39.7948 360.72 39.8611 360.62 39.9486C360.521 40.0361 360.44 40.143 360.383 40.2627C360.326 40.3825 360.294 40.5126 360.289 40.6451Z" fill="#263238"/>
<path d="M360.452 37.5668C360.581 37.6965 361.339 37.1164 362.431 37.0959C363.523 37.0754 364.335 37.6146 364.479 37.4781C364.622 37.3416 364.403 37.1846 364.049 36.9321C363.57 36.6151 363.005 36.4531 362.431 36.468C361.861 36.4734 361.308 36.6625 360.854 37.0072C360.499 37.2665 360.39 37.5122 360.452 37.5668Z" fill="#263238"/>
<path d="M357.129 46.0096C356.549 45.8428 355.951 45.7466 355.347 45.723C355.068 45.723 354.801 45.6479 354.754 45.4568C354.725 45.1684 354.785 44.878 354.924 44.6241C355.177 43.9416 355.436 43.2591 355.709 42.4879C356.808 39.4439 357.593 36.9459 357.47 36.8981C357.347 36.8504 356.358 39.2937 355.266 42.3582C355.006 43.109 354.754 43.8188 354.515 44.5081C354.345 44.8458 354.301 45.2331 354.392 45.6001C354.432 45.6988 354.496 45.7867 354.576 45.8566C354.657 45.9266 354.753 45.9766 354.856 46.0028C355.009 46.0456 355.168 46.064 355.327 46.0574C355.927 46.117 356.533 46.1009 357.129 46.0096Z" fill="#263238"/>
<path d="M360.338 32.9943C360.338 33.315 361.43 33.5198 362.597 34.0658C363.764 34.6118 364.644 35.267 364.89 35.0691C364.999 34.9735 364.89 34.6459 364.61 34.2433C364.19 33.7342 363.66 33.3276 363.059 33.0544C362.458 32.7812 361.803 32.6486 361.143 32.6667C360.672 32.7008 360.338 32.8441 360.338 32.9943Z" fill="#E0E0E0"/>
<path d="M350.277 34.2703C350.557 34.4614 351.342 34.0041 352.365 33.7516C353.389 33.4991 354.29 33.4581 354.413 33.1578C354.468 33.0145 354.277 32.8029 353.84 32.6664C353.252 32.5062 352.632 32.5062 352.045 32.6664C351.455 32.811 350.918 33.1184 350.495 33.5537C350.216 33.9017 350.154 34.1747 350.277 34.2703Z" fill="#E0E0E0"/>
<path d="M372.061 40.7339C372.184 40.6793 376.921 39.2051 376.839 44.0646C376.757 48.924 371.898 47.8525 371.891 47.716C371.884 47.5795 372.061 40.7339 372.061 40.7339Z" fill="#FFBF9D"/>
<path d="M373.502 45.9139C373.502 45.9139 373.584 45.9754 373.727 46.0436C373.929 46.1221 374.153 46.1221 374.355 46.0436C374.671 45.8495 374.93 45.5758 375.106 45.2499C375.282 44.924 375.369 44.5575 375.359 44.1872C375.374 43.7706 375.297 43.3556 375.133 42.9723C375.094 42.8152 375.016 42.6703 374.906 42.5511C374.797 42.4319 374.659 42.342 374.505 42.2898C374.409 42.2624 374.306 42.2699 374.215 42.3112C374.124 42.3524 374.05 42.4246 374.007 42.5151C373.939 42.6447 373.966 42.7471 373.939 42.7539C373.912 42.7608 373.837 42.672 373.878 42.4673C373.91 42.3489 373.98 42.2439 374.075 42.167C374.213 42.0719 374.38 42.0307 374.546 42.0509C374.746 42.0942 374.931 42.1878 375.084 42.3228C375.237 42.4578 375.352 42.6297 375.42 42.8222C375.622 43.2477 375.716 43.7166 375.693 44.1872C375.703 44.6141 375.59 45.0349 375.366 45.3983C375.141 45.7618 374.817 46.0524 374.43 46.2347C374.298 46.2696 374.16 46.2749 374.025 46.2501C373.891 46.2253 373.763 46.1711 373.652 46.0914C373.509 46.03 373.482 45.9208 373.502 45.9139Z" fill="#FF9A6C"/>
<path d="M352.003 25.6231C351.225 25.1727 353.648 22.6815 355.6 21.8488C358.555 20.5862 363.032 19.8764 365.707 20.7022C368.929 21.6987 371.591 23.3777 373.147 26.367C374.649 29.4093 375.311 32.7976 375.065 36.1815C375.083 37.2138 374.824 38.232 374.314 39.1299C373.631 40.1946 372.266 40.8362 372.314 42.324C372.336 42.8652 372.142 43.3929 371.775 43.7914C370.86 44.7196 369.796 43.7914 369.318 42.9042C368.294 40.9727 368.226 38.6999 368.185 36.5159C368.067 34.9637 368.205 33.4026 368.594 31.8953C368.854 31.09 369.277 30.3392 369.468 29.5202C369.599 29.1171 369.64 28.6904 369.59 28.2696C369.539 27.8489 369.397 27.4442 369.175 27.0837C369.061 26.9346 368.933 26.7974 368.792 26.6742C368.127 26.0675 367.313 25.6486 366.433 25.4604C365.552 25.2721 364.638 25.3212 363.783 25.6026C361.053 26.5035 356.316 27.8413 355.115 26.8857C354.257 26.2901 353.533 25.5204 352.992 24.6267L352.003 25.6231Z" fill="#E0E0E0"/>
<path d="M360.856 48.4189C360.897 48.3438 360.665 48.1322 360.208 47.9684C359.596 47.7622 358.938 47.7338 358.31 47.8865C357.682 48.0261 357.103 48.3353 356.638 48.7806C356.297 49.1287 356.181 49.4222 356.249 49.4631C356.317 49.5041 357.171 48.7806 358.454 48.5008C359.737 48.221 360.781 48.5827 360.856 48.4189Z" fill="#263238"/>
<path d="M328.88 35.4307C329.377 34.0081 329.977 32.6235 330.675 31.2878C331.501 29.643 338.183 22.8589 338.183 22.8589L346.373 29.8L346.864 33.7449L342.721 39.2049L340.469 40.4607L336.47 41.9213L334.586 45.2519L326 37.6625L328.88 35.4307Z" fill="#E0E0E0"/>
<path d="M337.82 23.5756C337.924 23.1686 338.161 22.8083 338.494 22.5521C338.827 22.296 339.236 22.1589 339.656 22.1628C339.819 22.163 339.978 22.2053 340.12 22.2857C340.638 22.682 341.083 23.1645 341.437 23.7121C341.437 23.7121 342.516 22.9682 343.376 23.2616C343.649 23.378 343.894 23.5524 344.093 23.7728C344.292 23.9932 344.441 24.2542 344.529 24.5379C344.529 24.5379 345.478 23.0091 346.631 23.3435C347.785 23.678 348.242 25.1522 347.948 25.6504C347.655 26.1486 345.218 31.5404 344.16 31.6223C343.103 31.7042 341.731 30.387 341.731 30.387C341.731 30.387 340.905 32.612 339.792 32.612C339.523 32.6333 339.253 32.5878 339.006 32.4796C338.759 32.3714 338.542 32.2038 338.376 31.9918C338.209 31.7797 338.097 31.5298 338.05 31.2641C338.003 30.9984 338.023 30.7253 338.107 30.4689C338.336 29.9742 338.488 29.447 338.557 28.906C338.557 28.906 336.557 28.906 336.83 27.3771C336.912 26.9199 337.465 24.8587 337.82 23.5756Z" fill="#E0E0E0"/>
<path d="M337.821 23.5756C337.805 23.7297 337.777 23.8825 337.739 24.0329C337.664 24.3673 337.562 24.7973 337.439 25.3228C337.316 25.8483 337.139 26.5718 336.948 27.3703C336.893 27.5598 336.894 27.7611 336.951 27.95C337.008 28.1389 337.118 28.3073 337.268 28.435C337.648 28.6939 338.1 28.8253 338.558 28.8104H338.702V28.9401C338.606 29.5322 338.444 30.1115 338.217 30.6668C338.131 30.9452 338.141 31.2443 338.245 31.5165C338.349 31.7886 338.541 32.0181 338.79 32.1683C339.049 32.3465 339.351 32.4525 339.664 32.4755C339.816 32.4882 339.969 32.466 340.111 32.4103C340.253 32.3547 340.38 32.2673 340.483 32.1547C340.966 31.6374 341.338 31.0264 341.575 30.3597L341.671 30.1345L341.855 30.2983C342.404 30.8235 343.064 31.2178 343.786 31.4517C343.942 31.5009 344.109 31.5009 344.264 31.4517C344.421 31.3569 344.56 31.2344 344.674 31.09C344.939 30.7798 345.178 30.4488 345.39 30.1004C345.916 29.2813 346.373 28.4282 346.803 27.5956C347.015 27.1724 347.226 26.7629 347.431 26.3466C347.54 26.1418 347.643 25.9371 347.745 25.7323C347.799 25.6544 347.836 25.5661 347.854 25.473C347.868 25.3779 347.868 25.2814 347.854 25.1863C347.823 24.7909 347.666 24.4158 347.407 24.1152C347.148 23.8146 346.8 23.6041 346.414 23.5142C346.047 23.489 345.684 23.6091 345.404 23.8486C345.114 24.0798 344.861 24.3536 344.653 24.6608L344.483 24.9201L344.387 24.6267C344.307 24.3223 344.145 24.0457 343.919 23.8268C343.692 23.6079 343.411 23.4549 343.104 23.3845C342.533 23.3652 341.97 23.5303 341.5 23.8554L341.398 23.9168L341.329 23.8213C340.99 23.2361 340.523 22.7347 339.964 22.3539C339.728 22.2825 339.479 22.2676 339.236 22.3102C338.993 22.3529 338.763 22.452 338.565 22.5996C338.219 22.8565 337.954 23.207 337.801 23.6097C337.801 23.6097 337.801 23.4937 337.883 23.2821C338.013 22.9735 338.219 22.7032 338.483 22.4972C338.697 22.3232 338.949 22.2031 339.219 22.1473C339.488 22.0914 339.768 22.1014 340.033 22.1765C340.652 22.5456 341.176 23.0553 341.561 23.6643H341.398C341.912 23.29 342.536 23.0979 343.172 23.1183C343.535 23.1897 343.87 23.3611 344.14 23.6132C344.41 23.8653 344.605 24.188 344.701 24.5448L344.435 24.5038C344.657 24.1629 344.931 23.8589 345.247 23.6029C345.592 23.3107 346.038 23.1639 346.489 23.1934C346.951 23.2898 347.37 23.5323 347.683 23.885C347.997 24.2378 348.188 24.6821 348.23 25.1522C348.243 25.2792 348.243 25.4073 348.23 25.5344C348.198 25.6619 348.148 25.7839 348.079 25.8961L347.779 26.5035L347.151 27.7594C346.714 28.5988 346.257 29.452 345.725 30.2915C345.501 30.6556 345.25 31.0024 344.974 31.3289C344.831 31.5037 344.657 31.6516 344.462 31.7657C344.235 31.8592 343.982 31.8736 343.745 31.8066C342.942 31.5649 342.211 31.1288 341.616 30.5372L341.896 30.4757C341.635 31.1889 341.228 31.8397 340.701 32.3867C340.563 32.5274 340.395 32.6363 340.21 32.7058C340.025 32.7754 339.827 32.8039 339.63 32.7894C339.262 32.7592 338.909 32.632 338.606 32.4209C338.298 32.2239 338.059 31.935 337.924 31.595C337.808 31.266 337.808 30.9072 337.924 30.5781C338.146 30.0484 338.313 29.4972 338.422 28.9333L338.552 29.0629C338.035 29.0708 337.529 28.9103 337.112 28.6057C336.932 28.4503 336.802 28.2468 336.735 28.0193C336.669 27.7918 336.669 27.5499 336.736 27.3226L337.289 25.275L337.658 23.9987C337.697 23.8522 337.752 23.7104 337.821 23.5756Z" fill="#263238"/>
<path d="M346.044 29.5952C346.044 29.5952 343.601 23.4527 349.279 20.9206C354.958 18.3885 359.476 24.8313 360.882 25.9302C361.868 26.7552 362.751 27.6972 363.51 28.7353C363.51 28.7353 359.599 24.4628 357.401 24.1556C355.203 23.8485 351.702 26.6058 349.791 30.3869L346.044 29.5952Z" fill="#006837"/>
<path d="M372.452 30.6327C372.452 30.6327 366.992 31.3152 363.688 28.8855L358.092 23.3503L363.654 24.5993C363.654 24.5993 370.124 27.5341 372.452 30.6327Z" fill="#006837"/>
<path d="M364.985 20.5384C364.815 20.5384 358.508 19.4328 354.031 22.5314L357.942 24.183C357.942 24.183 369.053 28.1757 371.763 30.776C373.471 32.5211 374.707 34.6727 375.353 37.0278C375.854 35.7764 375.991 34.4089 375.749 33.0829C375.36 31.0354 374.602 27.8413 373.312 25.8415C370.623 21.6987 364.985 20.5384 364.985 20.5384Z" fill="#006837"/>
<path d="M343.792 38.5975C343.792 38.5975 349.968 33.779 349.968 33.2398C349.968 32.7006 350.651 27.2269 350.344 26.8993C350.037 26.5717 349.101 26.6536 348.242 27.807C347.382 28.9605 347.211 31.2196 346.549 31.595C345.887 31.9703 344.904 32.8303 344.781 32.6665C344.658 32.5027 337.731 31.8407 335.226 33.1579C332.721 34.4751 332.496 36.4544 332.496 36.4544L341.143 40.1672L343.792 38.5975Z" fill="#E0E0E0"/>
<path d="M341.28 23.7804C341.226 24.0693 341.139 24.351 341.021 24.6199C340.85 25.125 340.673 25.8484 340.386 26.6674C340.154 27.3591 339.759 27.9843 339.233 28.4897C338.803 28.8651 338.448 28.947 338.434 28.9129C338.42 28.8787 338.707 28.6945 339.055 28.3054C339.497 27.7842 339.838 27.1846 340.058 26.5378C340.331 25.7733 340.55 25.0499 340.789 24.5517C341.028 24.0534 341.239 23.7599 341.28 23.7804Z" fill="#263238"/>
<path d="M344.652 24.5584C344.54 25.7271 344.184 26.8594 343.608 27.8822C343.13 28.9545 342.432 29.9147 341.56 30.7009C341.472 30.6327 342.434 29.4178 343.28 27.7184C344.127 26.0189 344.55 24.5311 344.652 24.5584Z" fill="#263238"/>
<path d="M343.805 32.9737C343.805 33.0283 343.272 32.8372 342.44 32.6734C340.197 32.236 337.871 32.583 335.853 33.6562C335.082 34.0589 334.645 34.3933 334.611 34.3387C334.919 33.9664 335.297 33.658 335.724 33.431C336.728 32.8205 337.845 32.4167 339.007 32.2433C340.17 32.0698 341.355 32.1302 342.494 32.4209C342.964 32.515 343.41 32.7031 343.805 32.9737Z" fill="#263238"/>
<path d="M363.994 29.0902C363.746 28.9457 363.517 28.7715 363.311 28.5715C362.909 28.2166 362.335 27.6842 361.646 27.0085C360.281 25.6435 358.459 23.6916 356.186 21.8283C355.644 21.3863 355.036 21.0316 354.384 20.7773C353.775 20.556 353.135 20.4339 352.487 20.4155C351.377 20.3869 350.275 20.6207 349.272 21.098C348.358 21.5731 347.504 22.155 346.727 22.8316C346.727 22.8316 346.89 22.5723 347.286 22.1969C347.846 21.6685 348.478 21.2227 349.163 20.8728C350.191 20.3387 351.335 20.0668 352.494 20.0811C353.191 20.0899 353.883 20.2121 354.541 20.4428C355.227 20.7084 355.867 21.0791 356.439 21.5417C358.34 23.1933 360.14 24.9573 361.83 26.8243L363.4 28.4896C363.618 28.6688 363.817 28.8701 363.994 29.0902Z" fill="#263238"/>
<path d="M359.893 25.1182C360.535 25.2414 361.164 25.4288 361.769 25.6778C362.909 26.0805 364.499 26.7016 366.144 27.4933C367.789 28.285 369.284 29.0904 370.321 29.7183C370.899 30.0276 371.444 30.3958 371.946 30.8171C371.352 30.5656 370.777 30.2714 370.226 29.9367C369.161 29.3702 367.68 28.5716 366.015 27.8141C364.349 27.0565 362.821 26.374 361.708 25.9099C361.083 25.693 360.477 25.4283 359.893 25.1182Z" fill="#263238"/>
<path d="M366.527 32.1548C366.438 32.5809 366.274 32.9877 366.042 33.356C365.928 33.5419 365.874 33.7588 365.889 33.9765C365.904 34.1942 365.986 34.4019 366.124 34.5708C366.208 34.6318 366.304 34.6753 366.405 34.6988C366.506 34.7222 366.611 34.7251 366.714 34.7073C366.816 34.6895 366.914 34.6513 367.001 34.5951C367.089 34.5388 367.164 34.4656 367.223 34.3797C367.335 34.2008 367.401 33.9964 367.414 33.7853C367.428 33.5742 367.387 33.3632 367.298 33.1717C367.128 32.7931 366.898 32.4449 366.615 32.1411" fill="white"/>
<path d="M389.63 119.645L382.512 113.12L378.123 117.427C378.123 117.427 371.735 121.986 370.616 122.771C369.496 123.556 366.077 127.317 365.661 127.91C365.244 128.504 364.125 133.016 364.125 133.016C364.125 133.016 365.572 133.903 366.275 132.497C366.748 131.563 367.17 130.604 367.538 129.623L369.251 127.985C369.251 127.985 368.889 130.163 369.073 130.715C369.257 131.268 370.677 131.582 371.639 131.262C371.639 131.262 371.776 132.224 373.653 132.04C373.653 132.04 375.666 133.138 376.861 132.722C378.055 132.306 379.147 132.354 379.925 131.992C380.703 131.63 382.034 129.105 381.973 128.463C381.911 127.822 380.874 127.364 380.874 127.364C382.072 126.731 383.214 125.995 384.286 125.167C384.654 124.839 384.946 124.436 385.142 123.984C385.339 123.533 385.436 123.045 385.426 122.553L389.63 119.645Z" fill="#E0E0E0"/>
<path d="M370.171 125.979C370.246 126.054 369.843 126.552 369.55 127.269C369.256 127.985 369.161 128.634 369.059 128.634C368.956 128.634 368.888 127.951 369.222 127.153C369.557 126.354 370.11 125.911 370.171 125.979Z" fill="#263238"/>
<path d="M372.273 127.637C372.273 127.685 372.116 127.815 371.911 128.101C371.659 128.476 371.505 128.908 371.461 129.357C371.429 129.812 371.443 130.27 371.502 130.722C371.543 131.091 371.549 131.323 371.502 131.33C371.454 131.336 371.358 131.132 371.256 130.77C371.119 130.289 371.068 129.788 371.106 129.289C371.153 128.778 371.369 128.298 371.72 127.924C372 127.658 372.273 127.596 372.273 127.637Z" fill="#263238"/>
<path d="M374.601 128.77C374.601 128.77 374.526 128.982 374.342 129.248C374.095 129.572 373.907 129.937 373.789 130.326C373.702 130.728 373.663 131.138 373.673 131.548C373.673 131.869 373.673 132.08 373.598 132.087C373.523 132.094 373.482 131.896 373.42 131.562C373.321 131.112 373.321 130.646 373.42 130.197C373.539 129.759 373.775 129.363 374.103 129.05C374.39 128.852 374.567 128.743 374.601 128.77Z" fill="#263238"/>
<path d="M377.182 130.053C378.037 128.834 379.24 127.901 380.635 127.378C379.504 128.295 378.353 129.187 377.182 130.053Z" fill="#263238"/>
<path d="M193.22 215.549L193.519 225.417L191.086 225.491L191.112 223.762C190.777 224.375 190.327 224.859 189.762 225.217C189.21 225.561 188.567 225.744 187.835 225.766C186.972 225.793 186.233 225.619 185.62 225.245C185.006 224.857 184.531 224.315 184.196 223.619C183.86 222.922 183.679 222.116 183.651 221.2C183.618 220.101 183.804 219.133 184.211 218.296C184.617 217.446 185.186 216.774 185.917 216.281C186.661 215.787 187.504 215.526 188.446 215.497C189.074 215.478 189.634 215.598 190.126 215.858C190.618 216.105 191.002 216.447 191.277 216.884L191.474 215.602L193.22 215.549ZM188.687 217.611C187.876 217.635 187.238 217.962 186.773 218.592C186.307 219.221 186.09 220.033 186.12 221.027C186.146 221.877 186.349 222.532 186.729 222.992C187.11 223.452 187.621 223.672 188.262 223.652C188.785 223.636 189.251 223.472 189.661 223.158C190.083 222.844 190.41 222.415 190.643 221.872C190.875 221.328 190.98 220.709 190.959 220.016C190.936 219.244 190.722 218.649 190.316 218.229C189.91 217.796 189.367 217.59 188.687 217.611Z" fill="white"/>
<path d="M180.701 225.983C179.51 226.019 178.572 225.72 177.885 225.086C177.211 224.452 176.865 223.605 176.846 222.545L176.786 218.011L175.099 218.062L175.038 216.061L176.765 216.009L176.723 213.968L179.116 213.895L179.139 215.937L182.376 215.838L182.437 217.839L179.18 217.938L179.251 222.217C179.254 222.754 179.398 223.175 179.682 223.48C179.979 223.773 180.409 223.91 180.971 223.893C181.272 223.884 181.552 223.836 181.811 223.75C182.07 223.663 182.341 223.511 182.622 223.293L183.384 225.116C183.091 225.387 182.712 225.595 182.245 225.74C181.778 225.885 181.263 225.966 180.701 225.983Z" fill="white"/>
<path d="M173.655 216.142L173.955 226.011L171.522 226.085L171.548 224.356C171.213 224.968 170.763 225.453 170.198 225.811C169.645 226.155 169.003 226.338 168.27 226.36C167.407 226.386 166.669 226.212 166.055 225.838C165.441 225.451 164.967 224.909 164.631 224.212C164.296 223.516 164.114 222.709 164.086 221.794C164.053 220.695 164.24 219.727 164.646 218.89C165.053 218.04 165.621 217.368 166.353 216.875C167.097 216.381 167.94 216.119 168.882 216.091C169.51 216.072 170.07 216.192 170.562 216.452C171.054 216.699 171.437 217.041 171.712 217.478L171.909 216.195L173.655 216.142ZM169.123 218.204C168.312 218.229 167.674 218.556 167.208 219.185C166.743 219.815 166.525 220.627 166.556 221.621C166.581 222.471 166.785 223.126 167.165 223.586C167.546 224.045 168.056 224.265 168.697 224.246C169.22 224.23 169.687 224.065 170.096 223.752C170.519 223.438 170.846 223.009 171.078 222.465C171.31 221.921 171.416 221.303 171.395 220.61C171.372 219.838 171.157 219.242 170.752 218.823C170.346 218.39 169.803 218.184 169.123 218.204Z" fill="white"/>
<path d="M150.177 226.733L149.754 212.803L153.894 212.677C156.601 212.595 158.666 213.115 160.088 214.237C161.509 215.359 162.255 217.058 162.324 219.334C162.367 220.746 162.097 221.992 161.514 223.07C160.931 224.135 160.086 224.979 158.979 225.601C157.872 226.211 156.56 226.539 155.042 226.585L150.177 226.733ZM152.659 224.399L154.876 224.332C156.511 224.282 157.741 223.852 158.568 223.041C159.394 222.218 159.783 221.041 159.737 219.51C159.689 217.915 159.214 216.738 158.314 215.98C157.427 215.221 156.088 214.869 154.296 214.923L152.373 214.982L152.659 224.399Z" fill="white"/>
<path d="M138.117 217.025C139.595 216.98 140.766 217.389 141.63 218.253C142.507 219.104 142.968 220.281 143.014 221.785C143.045 222.806 142.856 223.728 142.449 224.552C142.055 225.362 141.479 226.015 140.722 226.509C139.964 226.99 139.075 227.246 138.055 227.277C136.577 227.322 135.399 226.919 134.523 226.069C133.659 225.218 133.204 224.034 133.158 222.516C133.127 221.496 133.309 220.581 133.703 219.77C134.11 218.946 134.686 218.294 135.431 217.813C136.188 217.319 137.083 217.056 138.117 217.025ZM138.07 225.176C138.841 225.152 139.454 224.839 139.907 224.236C140.36 223.633 140.571 222.841 140.541 221.86C140.515 220.971 140.284 220.291 139.851 219.819C139.431 219.348 138.861 219.123 138.142 219.145C137.344 219.169 136.719 219.482 136.266 220.085C135.813 220.688 135.601 221.474 135.63 222.441C135.657 223.331 135.881 224.018 136.301 224.503C136.735 224.974 137.324 225.198 138.07 225.176Z" fill="white"/>
<path d="M128.184 213.457L130.636 213.383L131.059 227.313L128.822 227.381L121.602 217.879L121.897 227.591L119.444 227.665L119.021 213.735L121.258 213.667L128.479 223.169L128.184 213.457Z" fill="white"/>
</svg>
