<svg width="40" height="40" viewBox="0 0 40 40" fill="none" xmlns="http://www.w3.org/2000/svg">
<g id="Notifications" clip-path="url(#clip0_127_246)">
<path id="Vector" d="M20 36.6667C21.8333 36.6667 23.3333 35.1667 23.3333 33.3334H16.6667C16.6667 35.1667 18.1667 36.6667 20 36.6667ZM30 26.6667V18.3334C30 13.2167 27.2833 8.93341 22.5 7.80008V6.66675C22.5 5.28341 21.3833 4.16675 20 4.16675C18.6167 4.16675 17.5 5.28341 17.5 6.66675V7.80008C12.7333 8.93341 10 13.2001 10 18.3334V26.6667L6.66667 30.0001V31.6667H33.3333V30.0001L30 26.6667ZM26.6667 28.3334H13.3333V18.3334C13.3333 14.2001 15.85 10.8334 20 10.8334C24.15 10.8334 26.6667 14.2001 26.6667 18.3334V28.3334Z" fill="#858585"/>
</g>
<defs>
<clipPath id="clip0_127_246">
<rect width="40" height="40" fill="white"/>
</clipPath>
</defs>
</svg>
