<svg width="24" height="24" viewBox="0 0 24 24" fill="none" xmlns="http://www.w3.org/2000/svg">
<path fill-rule="evenodd" clip-rule="evenodd" d="M4.54527 12.4713C4.39613 8.39431 7.57352 4.9653 11.6496 4.80432C15.7257 4.9653 18.9031 8.39431 18.754 12.4713C18.754 14.1646 20.5936 15.8142 20.6476 17.5114C20.6476 17.5354 20.6476 17.5594 20.6476 17.5834C20.6874 18.6708 19.8398 19.5852 18.7526 19.6277H14.649C14.6528 20.4609 14.3387 21.2642 13.7709 21.874C13.2249 22.4669 12.4556 22.8043 11.6496 22.8043C10.8435 22.8043 10.0744 22.4669 9.52837 21.874C8.96047 21.2642 8.64645 20.4609 8.65026 19.6277H4.54527C3.45813 19.5852 2.61046 18.6708 2.65027 17.5834C2.65027 17.5594 2.65027 17.5354 2.65027 17.5114C2.70556 15.8194 4.54527 14.1659 4.54527 12.4713Z" stroke="white" stroke-width="1.5" stroke-linecap="round" stroke-linejoin="round"/>
<path d="M8.64076 18.8082C8.09299 18.8082 7.64893 19.2551 7.64893 19.8063C7.64893 20.3575 8.09299 20.8043 8.64076 20.8043V18.8082ZM14.6571 20.8043C15.2048 20.8043 15.6489 20.3575 15.6489 19.8063C15.6489 19.2551 15.2048 18.8082 14.6571 18.8082V20.8043ZM12.9383 2.80046C13.4861 2.80046 13.9301 2.35361 13.9301 1.80239C13.9301 1.25118 13.4861 0.804321 12.9383 0.804321V2.80046ZM10.3595 0.804321C9.81176 0.804321 9.36769 1.25118 9.36769 1.80239C9.36769 2.35361 9.81176 2.80046 10.3595 2.80046V0.804321ZM8.64076 20.8043H14.6571V18.8082H8.64076V20.8043ZM12.9383 0.804321H10.3595V2.80046H12.9383V0.804321Z" fill="white"/>
</svg>
