<svg width="150" height="150" viewBox="0 0 150 150" fill="none" xmlns="http://www.w3.org/2000/svg">
<path d="M75 132.777C107.125 132.777 133.167 131.256 133.167 129.381C133.167 127.505 107.125 125.985 75 125.985C42.8753 125.985 16.833 127.505 16.833 129.381C16.833 131.256 42.8753 132.777 75 132.777Z" fill="#F5F5F5"/>
<path d="M71.5199 102.459H13.5929C13.1388 102.458 12.7036 102.277 12.3825 101.956C12.0614 101.635 11.8807 101.2 11.8799 100.746V19.3169C11.8846 18.8654 12.0671 18.434 12.3877 18.1162C12.7084 17.7983 13.1414 17.6197 13.5929 17.6189H71.5199C71.9737 17.6197 72.4086 17.8005 72.7292 18.1217C73.0498 18.4428 73.2299 18.8781 73.2299 19.3319V100.746C73.2299 101.2 73.0498 101.635 72.7292 101.956C72.4086 102.277 71.9737 102.458 71.5199 102.459ZM13.5929 17.6789C13.1587 17.6797 12.7425 17.8525 12.4355 18.1595C12.1285 18.4665 11.9557 18.8827 11.9549 19.3169V100.746C11.9557 101.18 12.1285 101.596 12.4355 101.903C12.7425 102.21 13.1587 102.383 13.5929 102.384H71.5199C71.9538 102.383 72.3696 102.21 72.6762 101.903C72.9827 101.596 73.1549 101.18 73.1549 100.746V19.3169C73.1549 18.883 72.9827 18.4668 72.6762 18.1597C72.3696 17.8526 71.9538 17.6797 71.5199 17.6789H13.5929Z" fill="#E6E6E6"/>
<path d="M136.41 102.459H78.48C78.0262 102.458 77.5913 102.277 77.2707 101.956C76.9501 101.635 76.77 101.2 76.77 100.746V19.3169C76.774 18.8657 76.9558 18.4343 77.276 18.1164C77.5961 17.7984 78.0288 17.6197 78.48 17.6189H136.41C136.861 17.6197 137.294 17.7984 137.614 18.1164C137.934 18.4343 138.116 18.8657 138.12 19.3169V100.746C138.12 101.2 137.94 101.635 137.619 101.956C137.299 102.277 136.864 102.458 136.41 102.459ZM78.48 17.6789C78.0461 17.6797 77.6303 17.8526 77.3237 18.1597C77.0172 18.4668 76.845 18.883 76.845 19.3169V100.746C76.845 101.18 77.0172 101.596 77.3237 101.903C77.6303 102.21 78.0461 102.383 78.48 102.384H136.41C136.844 102.383 137.261 102.21 137.568 101.903C137.876 101.597 138.049 101.18 138.051 100.746V19.3169C138.049 18.8824 137.876 18.4663 137.568 18.1593C137.261 17.8524 136.844 17.6797 136.41 17.6789H78.48Z" fill="#E6E6E6"/>
<path d="M25.7819 117.663H13.4189V117.738H25.7819V117.663Z" fill="#E0E0E0"/>
<path d="M50.982 117.063H38.583V117.138H50.982V117.063Z" fill="#E0E0E0"/>
<path d="M67.1162 117.063H64.1162V117.138H67.1162V117.063Z" fill="#E0E0E0"/>
<path d="M37.1309 119.625H23.2559V119.7H37.1309V119.625Z" fill="#E0E0E0"/>
<path d="M85.1221 117.624H78.6421V117.699H85.1221V117.624Z" fill="#E0E0E0"/>
<path d="M96.171 117.624H87.792V117.699H96.171V117.624Z" fill="#E0E0E0"/>
<path d="M136.581 118.893H117.849V118.968H136.581V118.893Z" fill="#E0E0E0"/>
<path d="M150 114.72H0V114.795H150V114.72Z" fill="#EBEBEB"/>
<path opacity="0.8" d="M100.449 23.8438L99.7018 34.1278C99.6764 34.4763 99.5287 34.8046 99.2848 35.0548C99.1458 35.203 98.9781 35.3215 98.7919 35.403C98.6058 35.4845 98.405 35.5273 98.2018 35.5288H89.9548C89.7746 35.5306 89.5961 35.4949 89.4305 35.4238C89.2649 35.3528 89.116 35.248 88.9932 35.1162C88.8704 34.9844 88.7764 34.8284 88.7173 34.6582C88.6582 34.488 88.6352 34.3074 88.6498 34.1278L89.3998 23.8438C89.4304 23.4654 89.6011 23.112 89.8786 22.8529C90.156 22.5938 90.5202 22.4475 90.8998 22.4428H99.1468C99.3271 22.44 99.506 22.4751 99.6718 22.5458C99.8377 22.6166 99.9868 22.7214 100.11 22.8535C100.232 22.9856 100.326 23.142 100.384 23.3126C100.443 23.4832 100.465 23.6642 100.449 23.8438Z" fill="#E0E0E0"/>
<path d="M96.8134 28.958C97.1263 27.4628 96.3979 26.0452 95.1865 25.7917C93.9751 25.5381 92.7394 26.5447 92.4264 28.04C92.1135 29.5352 92.8419 30.9528 94.0533 31.2064C95.2648 31.4599 96.5005 30.4533 96.8134 28.958Z" fill="white"/>
<path d="M97.914 34.8208H90.366C89.886 34.8208 89.556 34.5898 89.544 34.2688C89.526 33.8008 91.974 31.7758 94.296 31.9528H94.35C95.7765 32.0034 97.1447 32.5316 98.235 33.4528C99.357 34.3348 98.298 34.8208 97.914 34.8208Z" fill="white"/>
<path d="M57.9001 35.154C57.1114 35.1508 56.3519 34.8547 55.7692 34.323C55.1866 33.7914 54.8223 33.0621 54.7471 32.2769C54.7122 31.904 54.7552 31.5279 54.8734 31.1726C54.9917 30.8172 55.1825 30.4903 55.4339 30.2126C55.6853 29.935 55.9917 29.7127 56.3337 29.5599C56.6756 29.4071 57.0456 29.3271 57.4201 29.325C58.2089 29.3281 58.9684 29.6242 59.551 30.1559C60.1337 30.6875 60.498 31.4168 60.5731 32.2019C60.6081 32.5749 60.5651 32.951 60.4469 33.3063C60.3286 33.6617 60.1377 33.9886 59.8864 34.2663C59.635 34.5439 59.3286 34.7662 58.9866 34.919C58.6447 35.0718 58.2747 35.1518 57.9001 35.154ZM57.5491 30.873C57.3733 30.8729 57.1994 30.9098 57.0386 30.981C56.8779 31.0522 56.7338 31.1563 56.6157 31.2866C56.4976 31.4169 56.408 31.5704 56.3528 31.7373C56.2976 31.9043 56.278 32.081 56.2951 32.2559C56.3321 32.6236 56.5034 32.9648 56.7764 33.2139C57.0493 33.463 57.4046 33.6026 57.7741 33.6059C57.9497 33.6055 58.1233 33.5684 58.2837 33.497C58.4441 33.4256 58.5878 33.3214 58.7056 33.1912C58.8234 33.061 58.9127 32.9076 58.9677 32.7408C59.0227 32.5741 59.0423 32.3977 59.0251 32.223C58.9884 31.8568 58.8183 31.5169 58.5472 31.268C58.2762 31.0191 57.9231 30.8785 57.5551 30.873H57.5491Z" fill="#E0E0E0"/>
<path d="M58.0499 30.6479L56.9459 30.6629L56.3579 23.5469L57.4649 23.5349L58.0499 30.6479Z" fill="#E0E0E0"/>
<path d="M58.5122 23.8529L56.4362 23.8798L56.3462 22.7729L58.4222 22.7458L58.5122 23.8529Z" fill="#E0E0E0"/>
<path d="M58.6319 25.275L56.6789 25.299L56.5889 24.192L58.5389 24.168L58.6319 25.275Z" fill="#E0E0E0"/>
<path d="M58.7999 27.2788L57.0959 27.2998L57.0029 26.1958L58.7069 26.1748L58.7999 27.2788Z" fill="#E0E0E0"/>
<path d="M23.793 95.6309C23.7994 95.7205 23.8104 95.8096 23.826 95.8979C23.9294 96.4734 24.2168 96.9998 24.645 97.3979C25.1314 97.8595 25.7745 98.12 26.445 98.1269H51.792C52.3926 98.1366 52.9728 97.9089 53.4065 97.4932C53.8402 97.0775 54.0923 96.5075 54.108 95.9069C54.1148 95.5511 54.0511 95.1975 53.9207 94.8663C53.7903 94.5352 53.5957 94.2331 53.3481 93.9774C53.1005 93.7218 52.8048 93.5176 52.4781 93.3766C52.1513 93.2356 51.7999 93.1606 51.444 93.1559H26.1C25.7814 93.1519 25.4656 93.2145 25.1726 93.3398C24.8797 93.465 24.6162 93.65 24.399 93.8831C24.1817 94.1161 24.0156 94.392 23.9113 94.693C23.8069 94.994 23.7666 95.3135 23.793 95.6309Z" fill="#F0F0F0"/>
<path d="M54.1168 95.8978C54.1149 95.9783 54.1069 96.0585 54.0928 96.1378C54.0197 95.4831 53.7097 94.8777 53.2212 94.4357C52.7328 93.9936 52.0996 93.7454 51.4408 93.7378L24.4858 93.7798C24.9213 93.3625 25.5027 93.1321 26.1058 93.1378H51.4528C51.8108 93.1351 52.1657 93.205 52.4959 93.3435C52.826 93.4819 53.1247 93.6858 53.3738 93.943C53.6228 94.2002 53.8171 94.5053 53.9448 94.8397C54.0725 95.1742 54.1311 95.5311 54.1168 95.8888V95.8978Z" fill="#E0E0E0"/>
<path d="M49.779 94.344L49.863 95.544L51 95.121L51.258 95.721L50.1 96.117L50.91 97.134L50.4 97.518L49.611 96.462L48.981 97.518L48.42 97.134L49.077 96.117L47.877 95.736L48.048 95.136L49.248 95.544L49.164 94.344H49.779Z" fill="white"/>
<path d="M42.8462 94.3439L42.9332 95.5439L44.0672 95.1209L44.3252 95.7209L43.1642 96.1019L43.9772 97.1189L43.4522 97.5029L42.6632 96.4469L42.0332 97.5029L41.4722 97.1189L42.1292 96.1019L40.9292 95.7209L41.1032 95.1209L42.3032 95.5289L42.2192 94.3289L42.8462 94.3439Z" fill="white"/>
<path d="M35.9161 94.3439L36.0001 95.5439L37.1371 95.1209L37.3951 95.7209L36.2341 96.1019L37.0441 97.1189L36.5191 97.5029L35.7301 96.4469L35.1001 97.5029L34.5391 97.1189L35.1961 96.1019L33.9961 95.7209L34.1701 95.1209L35.3701 95.5289L35.2861 94.3289L35.9161 94.3439Z" fill="white"/>
<path d="M28.9831 94.344L29.0671 95.544L30.2041 95.121L30.4621 95.721L29.3011 96.102L30.1111 97.119L29.5891 97.503L28.8001 96.462L28.1671 97.518L27.6001 97.134L28.2601 96.117L27.0601 95.736L27.2341 95.136L28.4341 95.544L28.3501 94.344H28.9831Z" fill="white"/>
<path d="M45.8221 92.2709H44.6401L44.6431 91.9709H45.8251L45.8221 92.2709Z" fill="#E0E0E0"/>
<path d="M50.9009 92.2709H47.0459L47.0519 91.9709H50.9069L50.9009 92.2709Z" fill="#E0E0E0"/>
<g opacity="0.8">
<path d="M80.814 90.7589L85.596 98.1179L101.364 82.3499C101.379 82.3363 101.392 82.3198 101.401 82.3014C101.41 82.2829 101.415 82.2629 101.416 82.2424C101.418 82.2219 101.415 82.2014 101.408 82.182C101.401 82.1626 101.391 82.1447 101.377 82.1294C101.364 82.114 101.347 82.1015 101.329 82.0925C101.311 82.0835 101.29 82.0782 101.27 82.077C101.25 82.0757 101.229 82.0785 101.21 82.0852C101.19 82.0919 101.172 82.1023 101.157 82.1159L86.13 93.8999L83.292 89.3249L80.814 90.7589Z" fill="#E0E0E0"/>
</g>
<path opacity="0.1" d="M77.9582 38.385L66.6362 80.733H70.4432L81.6392 38.385H77.9582Z" fill="white"/>
<path opacity="0.1" d="M83.8352 38.385L72.5132 80.733H80.0672L91.2632 38.385H83.8352Z" fill="white"/>
<path d="M124.593 76.5931L126.993 42.6031C127.016 42.3419 126.983 42.079 126.897 41.8313C126.811 41.5836 126.675 41.3567 126.496 41.1653C126.317 40.9738 126.099 40.8221 125.858 40.7199C125.617 40.6177 125.356 40.5674 125.094 40.5721L65.7724 40.6231C65.2206 40.6307 64.6912 40.843 64.2871 41.2189C63.883 41.5947 63.6329 42.1073 63.5854 42.6571L61.2004 76.6501C61.1785 76.9114 61.2117 77.1744 61.2978 77.4221C61.3839 77.6698 61.521 77.8966 61.7003 78.088C61.8795 78.2794 62.0969 78.4311 62.3384 78.5332C62.5799 78.6354 62.8402 78.6858 63.1024 78.6811L122.4 78.6301C122.954 78.6245 123.485 78.4127 123.891 78.0359C124.297 77.6592 124.547 77.1447 124.593 76.5931Z" fill="#263238"/>
<path d="M123.831 75.8519L126.231 41.8619C126.254 41.6007 126.222 41.3375 126.136 41.0897C126.05 40.8418 125.914 40.6147 125.734 40.4231C125.555 40.2315 125.338 40.0798 125.096 39.9778C124.855 39.8758 124.594 39.8257 124.332 39.8309L65.0102 39.8819C64.4585 39.8889 63.9292 40.1011 63.5254 40.4772C63.1217 40.8532 62.8724 41.3661 62.8262 41.9159L60.4262 75.9089C60.4039 76.1701 60.4367 76.433 60.5225 76.6807C60.6082 76.9284 60.745 77.1553 60.924 77.3468C61.1031 77.5382 61.3203 77.6899 61.5616 77.7921C61.803 77.8943 62.0632 77.9447 62.3252 77.9399L121.644 77.8889C122.197 77.8819 122.727 77.6694 123.131 77.2928C123.535 76.9162 123.785 76.4025 123.831 75.8519Z" fill="#92E3A9"/>
<path opacity="0.6" d="M122.259 76.3559C122.137 76.4679 121.978 76.5301 121.812 76.5299L62.4901 76.5809C62.3949 76.5799 62.3009 76.5595 62.2137 76.5211C62.1266 76.4828 62.0482 76.4271 61.9831 76.3576C61.9181 76.2881 61.8678 76.2061 61.8353 76.1166C61.8028 76.0271 61.7888 75.932 61.7941 75.8369L64.1941 41.8469C64.2033 41.6819 64.2765 41.527 64.3981 41.4149C64.5191 41.3016 64.6792 41.2393 64.8451 41.2409L124.167 41.1899C124.262 41.191 124.356 41.2113 124.443 41.2497C124.53 41.2881 124.609 41.3437 124.674 41.4133C124.739 41.4828 124.789 41.5648 124.822 41.6543C124.854 41.7437 124.868 41.8389 124.863 41.9339L122.463 75.9239C122.452 76.0886 122.379 76.243 122.259 76.3559Z" fill="white"/>
<path d="M102.528 57.669H81.705C81.5215 57.672 81.3453 57.7415 81.209 57.8645C81.0728 57.9875 80.9858 58.1557 80.964 58.338L80.643 61.383C80.6328 61.4676 80.6407 61.5534 80.6662 61.6347C80.6918 61.7161 80.7343 61.791 80.7911 61.8546C80.8479 61.9182 80.9175 61.9689 80.9955 62.0035C81.0734 62.038 81.1578 62.0556 81.243 62.055H102.066C102.25 62.0513 102.427 61.9813 102.563 61.8578C102.7 61.7344 102.788 61.5658 102.81 61.383L103.128 58.338C103.138 58.2536 103.13 58.1681 103.104 58.0871C103.078 58.0062 103.035 57.9316 102.979 57.8683C102.922 57.8051 102.852 57.7546 102.775 57.7203C102.697 57.6859 102.613 57.6684 102.528 57.669Z" fill="white"/>
<path d="M84.1831 70.104H80.9341C80.75 70.1077 80.5734 70.1777 80.4367 70.3012C80.3001 70.4246 80.2125 70.5932 80.1901 70.776L79.8721 73.821C79.8624 73.9054 79.8706 73.9909 79.8964 74.0719C79.9221 74.1528 79.9648 74.2274 80.0215 74.2906C80.0782 74.3539 80.1477 74.4044 80.2254 74.4387C80.3031 74.4731 80.3872 74.4906 80.4721 74.49H83.7212C83.9048 74.4864 84.0811 74.4169 84.2177 74.294C84.3543 74.1712 84.4421 74.0033 84.4651 73.821L84.7831 70.776C84.7934 70.6914 84.7855 70.6056 84.7599 70.5242C84.7344 70.4429 84.6918 70.368 84.635 70.3044C84.5783 70.2408 84.5086 70.1901 84.4307 70.1555C84.3528 70.121 84.2684 70.1034 84.1831 70.104Z" fill="white"/>
<path d="M89.793 70.104H86.544C86.3599 70.1077 86.1833 70.1777 86.0466 70.3012C85.9099 70.4246 85.8224 70.5932 85.8 70.776L85.482 73.821C85.4722 73.9054 85.4805 73.9909 85.5062 74.0719C85.532 74.1528 85.5746 74.2274 85.6314 74.2906C85.6881 74.3539 85.7576 74.4044 85.8353 74.4387C85.913 74.4731 85.9971 74.4906 86.082 74.49H89.331C89.5147 74.4864 89.6909 74.4169 89.8275 74.294C89.9641 74.1712 90.052 74.0033 90.075 73.821L90.393 70.776C90.4032 70.6914 90.3953 70.6056 90.3698 70.5242C90.3443 70.4429 90.3017 70.368 90.2449 70.3044C90.1881 70.2408 90.1185 70.1901 90.0406 70.1555C89.9626 70.121 89.8782 70.1034 89.793 70.104Z" fill="white"/>
<path d="M95.4004 70.104H92.1544C91.9702 70.1077 91.7936 70.1777 91.6569 70.3012C91.5203 70.4246 91.4327 70.5932 91.4104 70.776L91.0924 73.821C91.0826 73.9054 91.0908 73.9909 91.1166 74.0719C91.1423 74.1528 91.185 74.2274 91.2417 74.2906C91.2984 74.3539 91.3679 74.4044 91.4456 74.4387C91.5233 74.4731 91.6074 74.4906 91.6924 74.49H94.9414C95.125 74.4864 95.3013 74.4169 95.4379 74.294C95.5745 74.1712 95.6623 74.0033 95.6854 73.821L96.0004 70.776C96.0106 70.6914 96.0027 70.6056 95.9771 70.5242C95.9516 70.4429 95.909 70.368 95.8523 70.3044C95.7955 70.2408 95.7258 70.1901 95.6479 70.1555C95.57 70.121 95.4856 70.1034 95.4004 70.104Z" fill="white"/>
<path d="M101.013 70.104H97.7642C97.5801 70.1077 97.4035 70.1777 97.2668 70.3012C97.1301 70.4246 97.0426 70.5932 97.0202 70.776L96.7022 73.821C96.6925 73.9054 96.7007 73.9909 96.7265 74.0719C96.7522 74.1528 96.7949 74.2274 96.8516 74.2906C96.9083 74.3539 96.9778 74.4044 97.0555 74.4387C97.1332 74.4731 97.2173 74.4906 97.3022 74.49H100.551C100.735 74.4864 100.911 74.4169 101.048 74.294C101.184 74.1712 101.272 74.0033 101.295 73.821L101.613 70.776C101.623 70.6914 101.616 70.6056 101.59 70.5242C101.564 70.4429 101.522 70.368 101.465 70.3044C101.408 70.2408 101.339 70.1901 101.261 70.1555C101.183 70.121 101.098 70.1034 101.013 70.104Z" fill="white"/>
<path d="M97.3412 68.1811H84.3182C84.1514 68.185 83.9858 68.1529 83.8326 68.0869C83.6794 68.0209 83.5422 67.9225 83.4306 67.7986C83.3189 67.6747 83.2353 67.5281 83.1855 67.3689C83.1358 67.2096 83.121 67.0416 83.1422 66.8761L83.2982 65.3761C83.3415 65.0288 83.5084 64.7087 83.7685 64.4746C84.0286 64.2404 84.3643 64.1078 84.7142 64.1011H97.7372C97.9041 64.0976 98.0698 64.1301 98.223 64.1965C98.3762 64.2628 98.5133 64.3614 98.625 64.4856C98.7366 64.6098 98.8201 64.7565 98.8699 64.9159C98.9196 65.0753 98.9344 65.2435 98.9132 65.4091L98.7572 66.9091C98.7133 67.2558 98.5461 67.5752 98.2861 67.8088C98.0261 68.0423 97.6907 68.1745 97.3412 68.1811ZM84.7142 64.4041C84.438 64.4105 84.1731 64.5157 83.9678 64.7006C83.7625 64.8856 83.6303 65.138 83.5952 65.4121L83.4392 66.9121C83.4226 67.0359 83.4332 67.1618 83.4701 67.2811C83.507 67.4004 83.5695 67.5102 83.6531 67.603C83.7367 67.6958 83.8395 67.7692 83.9544 67.8183C84.0692 67.8673 84.1934 67.8908 84.3182 67.8871H97.3412C97.6172 67.8814 97.882 67.7769 98.0874 67.5924C98.2927 67.408 98.4251 67.1559 98.4602 66.8821L98.6162 65.3821C98.6328 65.2583 98.6223 65.1324 98.5853 65.0131C98.5484 64.8938 98.486 64.7839 98.4023 64.6912C98.3187 64.5984 98.2159 64.525 98.1011 64.4759C97.9862 64.4269 97.8621 64.4034 97.7372 64.4071L84.7142 64.4041Z" fill="#92E3A9"/>
<path d="M103.278 51.3269H82.4551C82.2715 51.3313 82.0956 51.4016 81.9596 51.525C81.8235 51.6484 81.7364 51.8166 81.7141 51.9989L81.3931 55.0439C81.3834 55.1283 81.3916 55.2138 81.4174 55.2948C81.4431 55.3757 81.4858 55.4503 81.5425 55.5135C81.5992 55.5768 81.6687 55.6272 81.7464 55.6616C81.8241 55.696 81.9082 55.7135 81.9931 55.7129H102.813C102.997 55.7093 103.173 55.6397 103.31 55.5169C103.446 55.3941 103.534 55.2262 103.557 55.0439L103.875 51.9989C103.885 51.9145 103.877 51.829 103.852 51.7479C103.827 51.6667 103.784 51.5919 103.728 51.5284C103.672 51.4649 103.602 51.4141 103.525 51.3793C103.447 51.3446 103.363 51.3267 103.278 51.3269Z" fill="white"/>
<path d="M84.2372 59.8621C84.2498 59.768 84.2419 59.6724 84.214 59.5817C84.1861 59.491 84.1388 59.4074 84.0755 59.3367C84.0123 59.266 83.9344 59.2099 83.8473 59.1721C83.7603 59.1344 83.6661 59.1159 83.5712 59.1181C83.3674 59.1229 83.1722 59.2006 83.0208 59.3371C82.8694 59.4736 82.772 59.6599 82.7462 59.8621C82.7346 59.9561 82.7433 60.0515 82.7718 60.1418C82.8003 60.2321 82.8479 60.3152 82.9113 60.3855C82.9748 60.4558 83.0526 60.5116 83.1396 60.5492C83.2265 60.5867 83.3205 60.6051 83.4152 60.6031C83.6184 60.5989 83.8133 60.5217 83.9642 60.3856C84.1151 60.2496 84.212 60.0637 84.2372 59.8621Z" fill="#263238"/>
<path d="M86.5291 59.8621C86.5412 59.7679 86.5329 59.6721 86.5046 59.5815C86.4763 59.4908 86.4288 59.4073 86.3653 59.3366C86.3018 59.266 86.2238 59.2099 86.1366 59.1722C86.0494 59.1345 85.9551 59.116 85.8601 59.1181C85.6565 59.1224 85.4613 59.2 85.3103 59.3367C85.1593 59.4733 85.0626 59.6599 85.0381 59.8621C85.026 59.9559 85.0343 60.0512 85.0624 60.1416C85.0905 60.2319 85.1378 60.3151 85.2011 60.3854C85.2643 60.4558 85.342 60.5116 85.4288 60.5492C85.5156 60.5868 85.6095 60.6052 85.7041 60.6031C85.9076 60.599 86.1029 60.5219 86.2543 60.3859C86.4058 60.2499 86.5033 60.064 86.5291 59.8621Z" fill="#263238"/>
<path d="M88.8183 59.8621C88.8304 59.7679 88.822 59.6721 88.7937 59.5815C88.7655 59.4908 88.7179 59.4073 88.6544 59.3366C88.5909 59.266 88.5129 59.2099 88.4257 59.1722C88.3385 59.1345 88.2442 59.116 88.1493 59.1181C87.9456 59.1224 87.7504 59.2 87.5994 59.3367C87.4484 59.4733 87.3518 59.6599 87.3273 59.8621C87.3156 59.9561 87.3243 60.0515 87.3528 60.1418C87.3813 60.2321 87.4289 60.3152 87.4924 60.3855C87.5558 60.4558 87.6337 60.5116 87.7206 60.5492C87.8076 60.5867 87.9016 60.6051 87.9963 60.6031C88.1994 60.5989 88.3943 60.5217 88.5452 60.3856C88.6962 60.2496 88.7931 60.0637 88.8183 59.8621Z" fill="#263238"/>
<path d="M91.1073 59.8621C91.1199 59.768 91.1119 59.6724 91.084 59.5817C91.0561 59.491 91.0089 59.4074 90.9456 59.3367C90.8823 59.266 90.8045 59.2099 90.7174 59.1721C90.6304 59.1344 90.5362 59.1159 90.4413 59.1181C90.2377 59.1224 90.0424 59.2 89.8914 59.3367C89.7404 59.4733 89.6438 59.6599 89.6193 59.8621C89.6069 59.9571 89.6155 60.0536 89.6445 60.1449C89.6735 60.2362 89.7222 60.32 89.7871 60.3904C89.8521 60.4608 89.9317 60.5161 90.0204 60.5523C90.1091 60.5885 90.2046 60.6049 90.3003 60.6001C90.5004 60.5925 90.6913 60.5141 90.8391 60.379C90.9868 60.2439 91.0819 60.0607 91.1073 59.8621Z" fill="#263238"/>
<path d="M93.4442 59.8621C93.4563 59.7679 93.4479 59.6721 93.4196 59.5815C93.3914 59.4908 93.3438 59.4073 93.2803 59.3366C93.2168 59.266 93.1388 59.2099 93.0516 59.1722C92.9644 59.1345 92.8701 59.116 92.7752 59.1181C92.5715 59.1224 92.3763 59.2 92.2253 59.3367C92.0743 59.4733 91.9777 59.6599 91.9532 59.8621C91.941 59.9559 91.9493 60.0512 91.9775 60.1416C92.0056 60.2319 92.0529 60.3151 92.1161 60.3854C92.1793 60.4558 92.257 60.5116 92.3439 60.5492C92.4307 60.5868 92.5246 60.6052 92.6192 60.6031C92.8227 60.599 93.0179 60.5219 93.1694 60.3859C93.3208 60.2499 93.4183 60.064 93.4442 59.8621Z" fill="#263238"/>
<path d="M84.987 53.5201C84.9997 53.4261 84.9917 53.3306 84.9638 53.2401C84.9359 53.1495 84.8886 53.0661 84.8253 52.9956C84.7619 52.9252 84.684 52.8693 84.597 52.8319C84.5099 52.7945 84.4157 52.7765 84.321 52.7791C84.1178 52.7833 83.923 52.8604 83.772 52.9965C83.6211 53.1326 83.5242 53.3184 83.499 53.5201C83.4864 53.614 83.4943 53.7095 83.5222 53.8001C83.5501 53.8906 83.5974 53.974 83.6608 54.0445C83.7241 54.115 83.802 54.1708 83.8891 54.2082C83.9761 54.2456 84.0703 54.2636 84.165 54.2611C84.3684 54.2575 84.5636 54.1805 84.7146 54.0443C84.8657 53.9081 84.9624 53.7219 84.987 53.5201Z" fill="#263238"/>
<path d="M87.2793 53.52C87.291 53.426 87.2823 53.3306 87.2538 53.2403C87.2253 53.15 87.1777 53.0668 87.1142 52.9965C87.0508 52.9262 86.9729 52.8704 86.886 52.8329C86.799 52.7953 86.705 52.7769 86.6103 52.779C86.4093 52.786 86.2173 52.8644 86.0688 53.0002C85.9204 53.136 85.8252 53.3203 85.8003 53.52C85.7882 53.6138 85.7965 53.7091 85.8246 53.7994C85.8527 53.8898 85.9 53.9729 85.9633 54.0433C86.0265 54.1137 86.1042 54.1695 86.191 54.2071C86.2778 54.2447 86.3718 54.263 86.4663 54.261C86.6679 54.2546 86.8606 54.1765 87.0097 54.0406C87.1588 53.9048 87.2544 53.7201 87.2793 53.52Z" fill="#263238"/>
<path d="M89.5682 53.52C89.5803 53.4261 89.572 53.3308 89.5439 53.2405C89.5158 53.1502 89.4685 53.067 89.4053 52.9966C89.342 52.9263 89.2643 52.8704 89.1775 52.8328C89.0907 52.7953 88.9968 52.7769 88.9022 52.779C88.6987 52.7831 88.5034 52.8602 88.352 52.9962C88.2006 53.1322 88.1031 53.3181 88.0772 53.52C88.065 53.614 88.0734 53.7096 88.1017 53.8002C88.13 53.8907 88.1776 53.9741 88.2411 54.0445C88.3047 54.1149 88.3828 54.1707 88.4699 54.2081C88.5571 54.2454 88.6514 54.2635 88.7462 54.261C88.9496 54.2574 89.1448 54.1804 89.2958 54.0442C89.4469 53.9081 89.5436 53.7219 89.5682 53.52Z" fill="#263238"/>
<path d="M91.8571 53.5201C91.8698 53.4261 91.8618 53.3306 91.8339 53.2401C91.806 53.1495 91.7587 53.0661 91.6954 52.9956C91.632 52.9252 91.5541 52.8693 91.4671 52.8319C91.38 52.7945 91.2858 52.7765 91.1911 52.7791C90.988 52.7833 90.7931 52.8604 90.6422 52.9965C90.4912 53.1326 90.3943 53.3184 90.3691 53.5201C90.3565 53.614 90.3644 53.7095 90.3923 53.8001C90.4203 53.8906 90.4675 53.974 90.5309 54.0445C90.5942 54.115 90.6721 54.1708 90.7592 54.2082C90.8462 54.2456 90.9404 54.2636 91.0351 54.2611C91.2385 54.2575 91.4337 54.1805 91.5847 54.0443C91.7358 53.9081 91.8325 53.7219 91.8571 53.5201Z" fill="#263238"/>
<path d="M94.1493 53.52C94.1609 53.426 94.1522 53.3306 94.1237 53.2403C94.0952 53.15 94.0476 53.0668 93.9841 52.9965C93.9207 52.9262 93.8428 52.8704 93.7559 52.8329C93.6689 52.7953 93.5749 52.7769 93.4803 52.779C93.2771 52.7832 93.0822 52.8603 92.9313 52.9964C92.7804 53.1325 92.6834 53.3183 92.6583 53.52C92.6461 53.614 92.6544 53.7096 92.6827 53.8002C92.711 53.8907 92.7586 53.9741 92.8222 54.0445C92.8857 54.1149 92.9638 54.1707 93.051 54.2081C93.1382 54.2454 93.2324 54.2635 93.3273 54.261C93.5306 54.2574 93.7258 54.1804 93.8769 54.0442C94.0279 53.9081 94.1247 53.7219 94.1493 53.52Z" fill="#263238"/>
<path d="M96.4383 53.52C96.4504 53.4261 96.4422 53.3308 96.414 53.2405C96.3859 53.1502 96.3386 53.067 96.2754 52.9966C96.2121 52.9263 96.1344 52.8704 96.0476 52.8328C95.9608 52.7953 95.8669 52.7769 95.7723 52.779C95.5688 52.7831 95.3736 52.8602 95.2221 52.9962C95.0707 53.1322 94.9732 53.3181 94.9473 53.52C94.9352 53.614 94.9435 53.7096 94.9718 53.8002C95.0001 53.8907 95.0477 53.9741 95.1112 54.0445C95.1748 54.1149 95.2529 54.1707 95.3401 54.2081C95.4272 54.2454 95.5215 54.2635 95.6163 54.261C95.8197 54.2574 96.0149 54.1804 96.1659 54.0442C96.317 53.9081 96.4137 53.7219 96.4383 53.52Z" fill="#263238"/>
<path d="M94.5003 44.6131L94.3383 46.1521C94.3269 46.219 94.293 46.2801 94.2423 46.3254C94.1917 46.3706 94.1271 46.3973 94.0593 46.4011C94.0273 46.4022 93.9955 46.3964 93.966 46.384C93.9366 46.3715 93.9102 46.3528 93.8887 46.329C93.8673 46.3053 93.8513 46.2772 93.8419 46.2466C93.8325 46.216 93.8299 46.1837 93.8343 46.1521L93.9963 44.6131C94.0105 44.4991 94.0001 44.3834 93.9656 44.2739C93.9312 44.1643 93.8737 44.0634 93.7968 43.9781C93.72 43.8927 93.6257 43.8249 93.5204 43.7792C93.4151 43.7334 93.3011 43.7109 93.1863 43.7131H92.6313C92.3847 43.7189 92.1484 43.8129 91.9651 43.978C91.7818 44.1431 91.6638 44.3684 91.6323 44.6131L91.4913 46.0411H90.9873L91.1283 44.6131C91.1759 44.2313 91.3595 43.8795 91.6455 43.6221C91.9315 43.3648 92.3007 43.2192 92.6853 43.2121H93.2373C93.4164 43.2076 93.5944 43.2419 93.7591 43.3126C93.9237 43.3834 94.0711 43.489 94.1911 43.6221C94.311 43.7552 94.4008 43.9126 94.4542 44.0837C94.5076 44.2548 94.5233 44.4354 94.5003 44.6131Z" fill="#92E3A9"/>
<path d="M94.5004 46.0949L94.1854 49.0949C94.1733 49.188 94.1281 49.2737 94.0582 49.3365C93.9884 49.3992 93.8983 49.4348 93.8044 49.4369H90.8044C90.7612 49.4373 90.7185 49.4284 90.679 49.4108C90.6396 49.3932 90.6044 49.3672 90.5759 49.3348C90.5475 49.3023 90.5263 49.264 90.514 49.2227C90.5016 49.1813 90.4984 49.1377 90.5044 49.0949L90.8194 46.0949C90.8253 46.0333 90.8458 45.9739 90.8792 45.9217C90.9126 45.8695 90.9579 45.8261 91.0114 45.7949C91.0687 45.7613 91.134 45.7437 91.2004 45.7439H94.2004C94.2618 45.7433 94.3221 45.7599 94.3744 45.7919C94.4226 45.8247 94.4601 45.8709 94.4825 45.9247C94.5049 45.9785 94.5111 46.0376 94.5004 46.0949Z" fill="#92E3A9"/>
<path d="M110.661 39.8249C110.621 39.8249 110.583 39.8091 110.555 39.781C110.527 39.7528 110.511 39.7147 110.511 39.6749C110.511 39.6351 110.527 39.597 110.555 39.5688C110.583 39.5407 110.621 39.5249 110.661 39.5249L117.993 39.4829C118.033 39.4829 118.071 39.4987 118.099 39.5268C118.127 39.555 118.143 39.5931 118.143 39.6329C118.143 39.6727 118.127 39.7108 118.099 39.739C118.071 39.7671 118.033 39.7829 117.993 39.7829L110.664 39.8249H110.661Z" fill="#263238"/>
<path d="M119.4 39.7741C119.36 39.7741 119.322 39.7583 119.294 39.7302C119.266 39.7021 119.25 39.6639 119.25 39.6241C119.25 39.5843 119.266 39.5462 119.294 39.5181C119.322 39.4899 119.36 39.4741 119.4 39.4741H121.992C122.032 39.4741 122.07 39.4899 122.098 39.5181C122.126 39.5462 122.142 39.5843 122.142 39.6241C122.142 39.6639 122.126 39.7021 122.098 39.7302C122.07 39.7583 122.032 39.7741 121.992 39.7741H119.4Z" fill="#263238"/>
<g opacity="0.3">
<path d="M70.5301 41.2319H78.9301L70.3891 76.5809H63.6181C63.4227 76.5771 63.2308 76.5291 63.0566 76.4406C62.8824 76.3521 62.7305 76.2253 62.6122 76.0698C62.4939 75.9143 62.4123 75.734 62.3735 75.5425C62.3347 75.351 62.3397 75.1532 62.3881 74.9639L70.5301 41.2319Z" fill="white"/>
<path d="M82.6502 41.2319H86.2112L77.6792 76.5809H74.1182L82.6502 41.2319Z" fill="white"/>
</g>
<path d="M25.995 30.1979H27.699C27.2998 30.1923 26.9039 30.2703 26.5367 30.4271C26.1695 30.5839 25.8393 30.816 25.5674 31.1083C25.2954 31.4006 25.0878 31.7466 24.9579 32.1241C24.8279 32.5016 24.7786 32.9022 24.813 33.2999L28.428 84.9899C28.4965 85.8269 28.8744 86.6084 29.4878 87.1819C30.1012 87.7554 30.9063 88.0798 31.746 88.0919H30.045C29.205 88.0799 28.3996 87.7555 27.7856 87.1821C27.1717 86.6086 26.7932 85.8272 26.724 84.9899L23.1 33.2999C23.0655 32.9014 23.1151 32.5001 23.2455 32.122C23.376 31.7438 23.5845 31.3973 23.8574 31.1049C24.1303 30.8124 24.4616 30.5806 24.8299 30.4244C25.1981 30.2681 25.5951 30.191 25.995 30.1979Z" fill="#92E3A9"/>
<path d="M25.9949 30.198H27.6989C27.2997 30.1924 26.9038 30.2704 26.5366 30.4272C26.1694 30.584 25.8392 30.8161 25.5673 31.1084C25.2953 31.4007 25.0877 31.7467 24.9578 32.1242C24.8278 32.5017 24.7785 32.9023 24.8129 33.3L28.4279 84.99C28.4964 85.827 28.8743 86.6085 29.4877 87.182C30.1011 87.7555 30.9062 88.0799 31.7459 88.092H30.0449C28.3319 88.092 26.6039 86.703 26.4839 84.99L22.8689 33.3C22.7489 31.587 24.2819 30.198 25.9949 30.198Z" fill="#263238"/>
<path d="M30.5518 88.0951H51.4018C51.802 88.1025 52.1993 88.0257 52.5679 87.8696C52.9365 87.7136 53.2682 87.4818 53.5414 87.1893C53.8147 86.8968 54.0234 86.5502 54.154 86.1718C54.2847 85.7935 54.3344 85.3919 54.2998 84.9931L50.6728 33.3001C50.6049 32.4621 50.227 31.6795 49.6129 31.1053C48.9987 30.5311 48.1925 30.2066 47.3518 30.1951H26.5048C26.1053 30.1894 25.7091 30.2675 25.3417 30.4245C24.9743 30.5815 24.644 30.8138 24.372 31.1064C24.1 31.3991 23.8924 31.7455 23.7627 32.1234C23.633 32.5012 23.5839 32.9021 23.6188 33.3001L27.2188 84.9901C27.2875 85.8299 27.6674 86.6138 28.2839 87.1882C28.9005 87.7625 29.7092 88.086 30.5518 88.0951Z" fill="#92E3A9"/>
<g opacity="0.6">
<path d="M47.298 31.2001C47.8821 31.2093 48.4419 31.4356 48.8684 31.8349C49.2948 32.2342 49.5574 32.7778 49.605 33.3601L53.22 85.0501C53.2446 85.3139 53.2131 85.5799 53.1278 85.8307C53.0424 86.0815 52.905 86.3114 52.7246 86.5054C52.5442 86.6994 52.3248 86.8531 52.0809 86.9565C51.8369 87.0598 51.5739 87.1105 51.309 87.1051H30.462C29.8776 87.0959 29.3174 86.8697 28.8905 86.4705C28.4636 86.0713 28.2004 85.5276 28.152 84.9451L24.552 33.2551C24.5276 32.9926 24.5587 32.7279 24.6432 32.4781C24.7276 32.2284 24.8637 31.9992 25.0425 31.8054C25.2212 31.6117 25.4388 31.4576 25.6809 31.3534C25.923 31.2491 26.1844 31.1969 26.448 31.2001H47.298Z" fill="white"/>
</g>
<g opacity="0.3">
<path d="M41.3998 87.0992H33.0928L39.9508 31.2002H46.6438C46.9328 31.1991 47.2189 31.2577 47.4843 31.3723C47.7496 31.4869 47.9884 31.6551 48.1858 31.8662L41.3998 87.0992Z" fill="white"/>
<path d="M31.602 87.0991H29.73L36.588 31.1941H38.46L31.602 87.0991Z" fill="white"/>
</g>
<path d="M46.0557 55.77H30.9537C30.9139 55.77 30.8758 55.7542 30.8476 55.726C30.8195 55.6979 30.8037 55.6598 30.8037 55.62C30.8037 55.5802 30.8195 55.542 30.8476 55.5139C30.8758 55.4858 30.9139 55.47 30.9537 55.47H46.0557C46.0953 55.4707 46.133 55.4868 46.1609 55.5148C46.1889 55.5427 46.2049 55.5804 46.2057 55.62C46.2057 55.6598 46.1899 55.6979 46.1618 55.726C46.1336 55.7542 46.0955 55.77 46.0557 55.77Z" fill="white"/>
<path d="M44.73 58.0051H32.901C32.8612 58.0051 32.823 57.9893 32.7949 57.9611C32.7668 57.933 32.751 57.8949 32.751 57.8551C32.751 57.8153 32.7668 57.7771 32.7949 57.749C32.823 57.7209 32.8612 57.7051 32.901 57.7051H44.73C44.7698 57.7051 44.8079 57.7209 44.836 57.749C44.8642 57.7771 44.88 57.8153 44.88 57.8551C44.88 57.8949 44.8642 57.933 44.836 57.9611C44.8079 57.9893 44.7698 58.0051 44.73 58.0051Z" fill="white"/>
<path d="M31.4041 45.3241L31.4251 45.9241H31.0381L31.0171 45.3241L30.3301 44.2471H30.7411L31.2151 44.9911L31.6351 44.2471H32.0161L31.4041 45.3241Z" fill="#92E3A9"/>
<path d="M32.0311 45.0781C32.0259 44.9602 32.046 44.8425 32.0899 44.733C32.1339 44.6234 32.2006 44.5245 32.2858 44.4427C32.3709 44.361 32.4725 44.2983 32.5838 44.2589C32.695 44.2195 32.8134 44.2042 32.9311 44.2141C33.05 44.2081 33.169 44.2257 33.2811 44.266C33.3931 44.3062 33.4961 44.3684 33.584 44.4487C33.6719 44.5291 33.743 44.6261 33.7931 44.7341C33.8433 44.8422 33.8714 44.9591 33.8761 45.0781C33.8816 45.1963 33.8618 45.3143 33.8181 45.4242C33.7744 45.5341 33.7077 45.6335 33.6225 45.7155C33.5373 45.7976 33.4356 45.8606 33.3241 45.9001C33.2126 45.9397 33.0939 45.9551 32.9761 45.9451C32.8569 45.9512 32.7377 45.9334 32.6254 45.893C32.5131 45.8525 32.41 45.7901 32.3221 45.7094C32.2341 45.6288 32.1631 45.5314 32.1131 45.423C32.0632 45.3146 32.0353 45.1974 32.0311 45.0781ZM33.4711 45.0781C33.4715 45.0071 33.4576 44.9367 33.4304 44.8712C33.4031 44.8056 33.363 44.7462 33.3124 44.6964C33.2618 44.6466 33.2017 44.6075 33.1356 44.5813C33.0696 44.5552 32.999 44.5425 32.9281 44.5441C32.8585 44.5412 32.7891 44.5532 32.7246 44.5795C32.6601 44.6057 32.602 44.6455 32.5542 44.6961C32.5064 44.7467 32.4701 44.8071 32.4476 44.873C32.4251 44.9389 32.4171 45.0088 32.4241 45.0781C32.4232 45.1494 32.4368 45.2201 32.4638 45.286C32.4909 45.3519 32.531 45.4117 32.5816 45.4618C32.6323 45.5119 32.6925 45.5513 32.7588 45.5776C32.825 45.604 32.8958 45.6167 32.9671 45.6151C33.0366 45.6171 33.1058 45.6043 33.1701 45.5776C33.2344 45.5508 33.2922 45.5108 33.3399 45.46C33.3875 45.4093 33.4238 45.349 33.4464 45.2831C33.4691 45.2173 33.4774 45.1474 33.4711 45.0781Z" fill="#92E3A9"/>
<path d="M34.1428 45.18L34.1128 44.241H34.4998L34.5298 45.165C34.5298 45.483 34.6858 45.615 34.9198 45.615C35.1538 45.615 35.2858 45.483 35.2768 45.165L35.2438 44.241H35.6248L35.6578 45.18C35.6736 45.2809 35.6659 45.3841 35.6354 45.4816C35.6049 45.5791 35.5524 45.6683 35.4819 45.7422C35.4114 45.8162 35.3249 45.8729 35.229 45.9081C35.1331 45.9432 35.0304 45.9559 34.9288 45.945C34.825 45.9542 34.7205 45.941 34.6224 45.9061C34.5242 45.8713 34.4348 45.8156 34.3601 45.743C34.2855 45.6703 34.2274 45.5824 34.1899 45.4852C34.1524 45.388 34.1363 45.2839 34.1428 45.18Z" fill="#92E3A9"/>
<path d="M37.1338 45.918L36.7948 45.45H36.4378L36.4558 45.918H36.0688L36.0088 44.241H36.7348C37.1818 44.241 37.4698 44.475 37.4818 44.841C37.4915 44.9525 37.4649 45.0641 37.406 45.1593C37.3471 45.2544 37.2589 45.328 37.1548 45.369L37.5508 45.909L37.1338 45.918ZM36.7228 44.559H36.4228L36.4438 45.141H36.7438C36.9808 45.141 37.0948 45.033 37.0888 44.841C37.0828 44.649 36.9598 44.559 36.7228 44.559Z" fill="#92E3A9"/>
<path d="M38.3698 45.078C38.3636 44.9619 38.3821 44.8458 38.4241 44.7373C38.4661 44.6289 38.5306 44.5306 38.6134 44.4489C38.6962 44.3673 38.7954 44.3041 38.9044 44.2636C39.0134 44.2231 39.1298 44.2062 39.2458 44.214C39.3772 44.21 39.5078 44.2347 39.6286 44.2865C39.7493 44.3384 39.8573 44.416 39.9448 44.514L39.7048 44.742C39.6517 44.6803 39.5859 44.631 39.5118 44.5973C39.4377 44.5636 39.3572 44.5465 39.2758 44.547C39.2055 44.5433 39.1353 44.5547 39.0698 44.5805C39.0043 44.6063 38.9451 44.6458 38.8962 44.6964C38.8472 44.7471 38.8098 44.8076 38.7862 44.8739C38.7627 44.9403 38.7537 45.0109 38.7598 45.081C38.7594 45.1532 38.7735 45.2247 38.8015 45.2913C38.8295 45.3578 38.8706 45.418 38.9225 45.4682C38.9744 45.5184 39.0359 45.5575 39.1033 45.5833C39.1707 45.609 39.2427 45.6208 39.3148 45.618C39.3945 45.6196 39.4735 45.6026 39.5454 45.5682C39.6172 45.5338 39.6801 45.4831 39.7288 45.42L39.9838 45.648C39.9022 45.7476 39.7983 45.8267 39.6806 45.8788C39.5628 45.9309 39.4344 45.9546 39.3058 45.948C39.1871 45.9528 39.0686 45.9341 38.9572 45.8929C38.8458 45.8517 38.7436 45.7888 38.6566 45.708C38.5696 45.6271 38.4995 45.5298 38.4502 45.4217C38.401 45.3135 38.3737 45.1967 38.3698 45.078Z" fill="#92E3A9"/>
<path d="M40.0857 45.078C40.0808 44.9614 40.1005 44.8451 40.1436 44.7367C40.1866 44.6282 40.252 44.53 40.3355 44.4485C40.4189 44.367 40.5186 44.304 40.6281 44.2636C40.7375 44.2232 40.8543 44.2063 40.9707 44.214C41.0896 44.2079 41.2086 44.2255 41.3207 44.2658C41.4328 44.3061 41.5358 44.3682 41.6237 44.4486C41.7116 44.5289 41.7826 44.626 41.8328 44.734C41.8829 44.842 41.9111 44.9589 41.9157 45.078C41.921 45.1948 41.9016 45.3114 41.8588 45.4202C41.8159 45.529 41.7506 45.6276 41.6671 45.7094C41.5836 45.7912 41.4837 45.8545 41.374 45.8951C41.2644 45.9357 41.1474 45.9527 41.0307 45.945C40.9115 45.951 40.7923 45.9333 40.68 45.8928C40.5677 45.8524 40.4646 45.79 40.3767 45.7093C40.2887 45.6286 40.2177 45.5312 40.1678 45.4229C40.1178 45.3145 40.0899 45.1972 40.0857 45.078ZM41.5227 45.078C41.5235 45.0071 41.5101 44.9368 41.4831 44.8712C41.4562 44.8057 41.4164 44.7462 41.366 44.6964C41.3156 44.6466 41.2557 44.6074 41.1898 44.5812C41.124 44.555 41.0535 44.5423 40.9827 44.544C40.9131 44.541 40.8437 44.5531 40.7792 44.5793C40.7147 44.6055 40.6566 44.6453 40.6088 44.696C40.561 44.7466 40.5247 44.8069 40.5022 44.8728C40.4798 44.9387 40.4718 45.0087 40.4787 45.078C40.4775 45.1491 40.4906 45.2197 40.5173 45.2856C40.5441 45.3515 40.5839 45.4113 40.6343 45.4615C40.6847 45.5116 40.7448 45.5511 40.8108 45.5775C40.8769 45.6038 40.9476 45.6166 41.0187 45.615C41.0884 45.6174 41.1578 45.605 41.2223 45.5784C41.2868 45.5518 41.3449 45.5118 41.3926 45.4609C41.4404 45.4101 41.4767 45.3496 41.4991 45.2835C41.5215 45.2175 41.5296 45.1474 41.5227 45.078Z" fill="#92E3A9"/>
<path d="M42.1797 44.2409H42.9387C43.0569 44.2294 43.1763 44.2422 43.2893 44.2787C43.4024 44.3152 43.5067 44.3745 43.5959 44.453C43.6851 44.5315 43.7571 44.6274 43.8077 44.7349C43.8582 44.8425 43.8861 44.9592 43.8897 45.0779C43.8963 45.1952 43.8771 45.3125 43.8333 45.4216C43.7896 45.5306 43.7224 45.6287 43.6365 45.7088C43.5506 45.789 43.4482 45.8492 43.3364 45.8854C43.2246 45.9215 43.1062 45.9326 42.9897 45.9179H42.2277L42.1797 44.2409ZM42.9687 45.5999C43.0394 45.6073 43.1109 45.5989 43.1781 45.5754C43.2452 45.5519 43.3063 45.5138 43.3571 45.4639C43.4078 45.4141 43.4469 45.3536 43.4715 45.2869C43.4962 45.2202 43.5058 45.1488 43.4997 45.0779C43.4995 45.0057 43.4844 44.9342 43.4552 44.8681C43.426 44.802 43.3834 44.7427 43.3301 44.6939C43.2768 44.6452 43.214 44.608 43.1456 44.5847C43.0772 44.5615 43.0047 44.5527 42.9327 44.5589H42.5787L42.6147 45.5999H42.9687Z" fill="#92E3A9"/>
<path d="M45.4981 45.5999V45.8999H44.2021L44.1421 44.2229H45.4081V44.5229H44.5501V44.8859H45.3271V45.1859H44.5501V45.5729L45.4981 45.5999Z" fill="#92E3A9"/>
<path d="M34.3138 52.1429V52.8149H31.1668V52.2839L32.8408 50.6669C33.2488 50.2679 33.3178 50.0189 33.3148 49.7669C33.3148 49.3769 33.0328 49.1489 32.5078 49.1489C32.3182 49.1393 32.1291 49.1749 31.956 49.2526C31.7828 49.3303 31.6306 49.4479 31.5118 49.5959L30.9478 49.1669C31.1417 48.9297 31.3891 48.7419 31.6696 48.6188C31.9502 48.4957 32.2559 48.4409 32.5618 48.4589C33.4918 48.4589 34.1008 48.9299 34.1128 49.6889C34.1128 50.1029 34.0108 50.4839 33.4288 51.0419L32.3038 52.1309L34.3138 52.1429Z" fill="#263238"/>
<path d="M37.7998 51.5309C37.7998 52.2509 37.2778 52.8749 36.1288 52.8749C35.5501 52.8853 34.9829 52.712 34.5088 52.3799L34.8418 51.7619C35.2033 52.0409 35.6482 52.1899 36.1048 52.1849C36.6718 52.1849 37.0048 51.9329 37.0048 51.5369C37.0048 51.1409 36.7048 50.8979 36.0628 50.8979H35.6728V50.3549L36.5998 49.1999H34.6528V48.5339H37.5748V49.0679L36.5548 50.3039C37.3738 50.3999 37.7998 50.8859 37.7998 51.5309Z" fill="#263238"/>
<path d="M41.8017 51.6001C41.8017 52.3951 41.1327 52.8901 40.0677 52.8901C39.0027 52.8901 38.3127 52.3951 38.3007 51.6001C38.2917 51.3815 38.351 51.1655 38.4703 50.9822C38.5897 50.7989 38.7632 50.6573 38.9667 50.5771C38.8006 50.4929 38.6612 50.3641 38.5643 50.2051C38.4673 50.0461 38.4165 49.8633 38.4177 49.6771C38.4177 48.9421 39.0417 48.4771 39.9897 48.4771C40.9377 48.4771 41.6007 48.9361 41.6127 49.6771C41.622 49.8622 41.577 50.046 41.4832 50.2059C41.3893 50.3658 41.2508 50.4948 41.0847 50.5771C41.2933 50.6556 41.4734 50.7952 41.6013 50.9777C41.7292 51.1603 41.7991 51.3772 41.8017 51.6001ZM40.9977 51.5761C40.9977 51.1531 40.6197 50.8891 40.0317 50.8891C39.4437 50.8891 39.0927 51.1531 39.1017 51.5761C39.1107 51.9991 39.4677 52.2661 40.0557 52.2661C40.6437 52.2661 41.0067 51.9961 40.9977 51.5611V51.5761ZM39.1977 49.7161C39.1977 50.0821 39.4977 50.3161 40.0167 50.3161C40.5357 50.3161 40.8327 50.0821 40.8237 49.7161C40.8147 49.3501 40.4847 49.1161 39.9927 49.1161C39.5007 49.1161 39.1977 49.3141 39.2037 49.7011L39.1977 49.7161Z" fill="#263238"/>
<path d="M45.7921 51.6001C45.7921 52.3951 45.1231 52.8901 44.0581 52.8901C42.9931 52.8901 42.3001 52.3801 42.3001 51.6001C42.2916 51.3816 42.351 51.1658 42.4703 50.9826C42.5896 50.7993 42.7629 50.6576 42.9661 50.5771C42.7999 50.4933 42.6606 50.3645 42.5641 50.2054C42.4675 50.0462 42.4176 49.8632 42.4201 49.6771C42.4051 48.9421 43.0411 48.4771 43.9891 48.4771C44.9371 48.4771 45.6001 48.9361 45.6121 49.6771C45.6214 49.8622 45.5764 50.046 45.4826 50.2059C45.3888 50.3658 45.2503 50.4948 45.0841 50.5771C45.2911 50.657 45.4692 50.7973 45.5954 50.9797C45.7217 51.1621 45.7902 51.3782 45.7921 51.6001ZM44.9881 51.5761C44.9881 51.1531 44.6101 50.8891 44.0221 50.8891C43.4341 50.8891 43.0831 51.1531 43.0921 51.5761C43.1011 51.9991 43.4581 52.2661 44.0461 52.2661C44.6341 52.2661 45.0001 51.9961 45.0001 51.5611L44.9881 51.5761ZM43.1881 49.7161C43.1881 50.0821 43.5031 50.3161 44.0071 50.3161C44.5111 50.3161 44.8231 50.0821 44.8171 49.7161C44.8111 49.3501 44.4751 49.1161 43.9861 49.1161C43.4971 49.1161 43.2001 49.3141 43.2001 49.7011L43.1881 49.7161Z" fill="#263238"/>
<path d="M23.547 45.0931C23.5087 45.0931 23.4719 45.0786 23.444 45.0524C23.4161 45.0261 23.3993 44.9903 23.397 44.9521L22.866 37.7011C22.8635 37.6617 22.8766 37.623 22.9024 37.5933C22.9283 37.5635 22.9647 37.5451 23.004 37.5421C23.0437 37.5395 23.0827 37.5525 23.1129 37.5783C23.1432 37.604 23.1622 37.6405 23.166 37.6801L23.7 44.9311C23.7017 44.9508 23.6994 44.9706 23.6933 44.9894C23.6873 45.0083 23.6776 45.0257 23.6647 45.0408C23.6519 45.0558 23.6362 45.0682 23.6186 45.0772C23.601 45.0861 23.5817 45.0915 23.562 45.0931H23.547Z" fill="#92E3A9"/>
<path d="M22.9139 36.4499C22.8761 36.45 22.8397 36.4359 22.8119 36.4103C22.7841 36.3847 22.7669 36.3496 22.7639 36.3119L22.6229 34.3979C22.6215 34.3782 22.6241 34.3585 22.6303 34.3397C22.6366 34.321 22.6465 34.3037 22.6594 34.2888C22.6856 34.2587 22.7226 34.2402 22.7624 34.2374C22.8022 34.2346 22.8415 34.2478 22.8716 34.2739C22.9017 34.3001 22.9201 34.3371 22.9229 34.3769L23.0639 36.2909C23.0664 36.3302 23.0533 36.369 23.0275 36.3987C23.0017 36.4285 22.9652 36.4469 22.9259 36.4499H22.9139Z" fill="#92E3A9"/>
<path d="M37.0108 27.327C36.9711 27.327 36.9329 27.3112 36.9048 27.2831C36.8766 27.2549 36.8608 27.2168 36.8608 27.177V22.764C36.8608 22.7242 36.8766 22.6861 36.9048 22.6579C36.9329 22.6298 36.9711 22.614 37.0108 22.614C37.0506 22.614 37.0888 22.6298 37.1169 22.6579C37.145 22.6861 37.1608 22.7242 37.1608 22.764V27.177C37.1608 27.2168 37.145 27.2549 37.1169 27.2831C37.0888 27.3112 37.0506 27.327 37.0108 27.327Z" fill="#92E3A9"/>
<path d="M33.5157 28.2629C33.4895 28.2627 33.4639 28.2557 33.4412 28.2426C33.4186 28.2294 33.3998 28.2106 33.3867 28.1879L31.1787 24.3659C31.1588 24.3313 31.1535 24.2902 31.1639 24.2517C31.1743 24.2131 31.1996 24.1803 31.2342 24.1604C31.2688 24.1405 31.3099 24.1352 31.3485 24.1456C31.387 24.156 31.4198 24.1813 31.4397 24.2159L33.6447 28.0379C33.6549 28.0548 33.6615 28.0735 33.6643 28.093C33.6671 28.1125 33.6659 28.1323 33.6609 28.1513C33.6558 28.1703 33.647 28.1882 33.635 28.2037C33.6229 28.2193 33.6079 28.2323 33.5907 28.2419C33.5677 28.2548 33.542 28.262 33.5157 28.2629Z" fill="#92E3A9"/>
<path d="M40.4997 28.2629C40.4736 28.263 40.4479 28.2568 40.4247 28.2449C40.3905 28.2243 40.3656 28.1911 40.3555 28.1524C40.3454 28.1137 40.3509 28.0726 40.3707 28.0379L42.5757 24.2159C42.5956 24.1813 42.6284 24.156 42.667 24.1456C42.7055 24.1352 42.7466 24.1405 42.7812 24.1604C42.8158 24.1803 42.8411 24.2131 42.8515 24.2517C42.862 24.2902 42.8566 24.3313 42.8367 24.3659L40.6347 28.1999C40.6197 28.2212 40.5993 28.2383 40.5756 28.2493C40.5519 28.2604 40.5258 28.2651 40.4997 28.2629Z" fill="#92E3A9"/>
<path d="M92.1992 124.161C91.8845 117.882 92.4991 111.591 94.0232 105.492L94.3232 105.564C92.8069 111.635 92.1943 117.896 92.5052 124.146L92.1992 124.161Z" fill="#92E3A9"/>
<path d="M92.7659 105.27C92.7659 105.828 93.2819 107.811 93.8429 107.796C94.4039 107.781 94.8089 105.78 94.7939 105.219C94.7906 105.086 94.7611 104.955 94.707 104.833C94.6529 104.711 94.5755 104.601 94.4789 104.51C94.3824 104.418 94.2687 104.346 94.1444 104.298C94.0201 104.25 93.8876 104.227 93.7544 104.231C93.6213 104.234 93.4901 104.263 93.3683 104.317C93.2466 104.372 93.1367 104.449 93.0449 104.546C92.9531 104.642 92.8812 104.756 92.8334 104.88C92.7855 105.004 92.7626 105.137 92.7659 105.27Z" fill="#92E3A9"/>
<path d="M94.9472 111.567C94.9472 111.006 94.4312 109.026 93.8732 109.038C93.3152 109.05 92.9072 111.054 92.9192 111.615C92.9224 111.748 92.9517 111.88 93.0056 112.001C93.0594 112.123 93.1368 112.233 93.2332 112.325C93.3296 112.417 93.4431 112.489 93.5673 112.537C93.6916 112.585 93.824 112.608 93.9572 112.605C94.0904 112.602 94.2216 112.573 94.3434 112.519C94.4652 112.465 94.5752 112.388 94.6672 112.291C94.7591 112.195 94.8312 112.081 94.8792 111.957C94.9272 111.833 94.9503 111.7 94.9472 111.567Z" fill="#92E3A9"/>
<path d="M90.7082 109.5C91.2692 109.5 93.2492 108.984 93.2342 108.423C93.2192 107.862 91.2212 107.457 90.6602 107.472C90.5271 107.475 90.3958 107.505 90.274 107.558C90.1522 107.612 90.0422 107.69 89.9502 107.786C89.8583 107.882 89.7863 107.996 89.7382 108.12C89.6902 108.244 89.6671 108.377 89.6702 108.51C89.6734 108.643 89.7027 108.774 89.7566 108.896C89.8104 109.018 89.8878 109.128 89.9842 109.22C90.0806 109.312 90.1941 109.384 90.3183 109.432C90.4426 109.48 90.575 109.503 90.7082 109.5Z" fill="#92E3A9"/>
<path d="M97.0051 107.328C96.4471 107.328 94.4641 107.844 94.4791 108.402C94.4941 108.96 96.4951 109.368 97.0561 109.356C97.1892 109.353 97.3205 109.323 97.4422 109.269C97.5639 109.215 97.6738 109.137 97.7656 109.041C97.8574 108.944 97.9293 108.831 97.9772 108.706C98.025 108.582 98.0479 108.45 98.0446 108.316C98.0412 108.183 98.0117 108.052 97.9576 107.93C97.9036 107.809 97.8261 107.699 97.7296 107.607C97.633 107.515 97.5194 107.443 97.3951 107.395C97.2708 107.348 97.1383 107.325 97.0051 107.328Z" fill="#92E3A9"/>
<path d="M90.8582 106.962C91.2662 107.349 93.0212 108.396 93.4082 107.988C93.7952 107.58 92.6642 105.888 92.2592 105.495C92.0647 105.309 91.8043 105.208 91.5354 105.215C91.2664 105.221 91.011 105.334 90.8252 105.528C90.6394 105.723 90.5385 105.983 90.5447 106.252C90.5509 106.521 90.6637 106.776 90.8582 106.962Z" fill="#92E3A9"/>
<path d="M96.8551 109.872C96.4501 109.485 94.6951 108.441 94.3081 108.846C93.9211 109.251 95.0491 110.946 95.4541 111.342C95.5507 111.434 95.6644 111.506 95.7887 111.554C95.9131 111.602 96.0457 111.625 96.179 111.622C96.3123 111.619 96.4437 111.59 96.5656 111.536C96.6876 111.482 96.7977 111.404 96.8896 111.308C96.9816 111.211 97.0537 111.097 97.1018 110.973C97.1498 110.849 97.1729 110.716 97.1697 110.583C97.1665 110.449 97.1371 110.318 97.0831 110.196C97.0291 110.074 96.9517 109.964 96.8551 109.872Z" fill="#92E3A9"/>
<path d="M92.3998 111.417C92.7868 111.009 93.8308 109.254 93.4258 108.867C93.0208 108.48 91.3258 109.611 90.9298 110.016C90.744 110.211 90.6432 110.472 90.6497 110.741C90.6562 111.01 90.7693 111.266 90.9643 111.452C91.1592 111.637 91.4199 111.738 91.6892 111.732C91.9584 111.725 92.214 111.612 92.3998 111.417Z" fill="#92E3A9"/>
<path d="M95.3131 105.42C94.9261 105.825 93.8791 107.58 94.2871 107.967C94.6951 108.354 96.3871 107.226 96.7801 106.821C96.8721 106.725 96.9442 106.611 96.9923 106.487C97.0405 106.363 97.0637 106.23 97.0606 106.097C97.0575 105.964 97.0283 105.833 96.9745 105.711C96.9207 105.589 96.8434 105.479 96.7471 105.387C96.6508 105.295 96.5373 105.223 96.4131 105.175C96.2889 105.127 96.1564 105.103 96.0233 105.106C95.8901 105.11 95.7589 105.139 95.637 105.193C95.5152 105.246 95.4051 105.324 95.3131 105.42Z" fill="#92E3A9"/>
<path d="M92.6552 108.447C92.6612 108.684 92.7373 108.914 92.8739 109.108C93.0105 109.302 93.2016 109.451 93.4228 109.536C93.6441 109.622 93.8857 109.64 94.1172 109.588C94.3486 109.536 94.5595 109.417 94.7232 109.245C94.8869 109.073 94.996 108.857 95.0369 108.623C95.0777 108.39 95.0484 108.149 94.9526 107.932C94.8568 107.715 94.6989 107.532 94.4988 107.404C94.2987 107.277 94.0653 107.212 93.8282 107.217C93.6703 107.221 93.5147 107.255 93.3702 107.319C93.2258 107.383 93.0953 107.474 92.9864 107.589C92.8774 107.703 92.7921 107.838 92.7352 107.985C92.6784 108.132 92.6512 108.289 92.6552 108.447Z" fill="white"/>
<path d="M92.4839 117.375C92.4839 117.375 92.6909 114.312 94.3739 113.829C96.0569 113.346 96.6719 112.686 96.6719 112.686C96.6719 112.686 96.5009 117.435 92.4839 117.375Z" fill="#92E3A9"/>
<path opacity="0.5" d="M92.4839 117.375C92.4839 117.375 92.6909 114.312 94.3739 113.829C96.0569 113.346 96.6719 112.686 96.6719 112.686C96.6719 112.686 96.5009 117.435 92.4839 117.375Z" fill="white"/>
<path d="M92.2622 119.721C92.2622 119.721 92.0552 116.658 90.3722 116.172C88.6892 115.686 88.0742 115.032 88.0742 115.032C88.0742 115.032 88.2452 119.781 92.2622 119.721Z" fill="#92E3A9"/>
<path opacity="0.5" d="M92.2622 119.721C92.2622 119.721 92.0552 116.658 90.3722 116.172C88.6892 115.686 88.0742 115.032 88.0742 115.032C88.0742 115.032 88.2452 119.781 92.2622 119.721Z" fill="white"/>
<path d="M98.61 126.102C98.61 128.502 95.763 130.428 92.253 130.428C88.743 130.428 85.896 128.493 85.896 126.102C85.896 124.902 86.625 123.798 87.804 123.015C88.5469 122.53 89.3727 122.187 90.24 122.001H94.266C95.1557 122.192 96.0014 122.55 96.759 123.054C97.905 123.837 98.61 124.911 98.61 126.102Z" fill="#92E3A9"/>
<path opacity="0.8" d="M94.266 122.001C95.1557 122.192 96.0014 122.55 96.759 123.054C97.905 123.837 98.61 124.911 98.61 126.102C98.61 128.502 95.763 130.428 92.253 130.428C88.743 130.428 85.896 128.493 85.896 126.102C85.896 124.902 86.625 123.798 87.804 123.015C88.5469 122.53 89.3727 122.187 90.24 122.001H94.266Z" fill="white"/>
<path d="M92.4211 122.391H92.1211V124.53H92.4211V122.391Z" fill="#92E3A9"/>
<path d="M97.0378 121.935L96.7018 122.985L96.6958 122.997H87.8068L87.7888 122.94L87.4678 121.935H97.0378Z" fill="#92E3A9"/>
<path d="M97.8602 126.972C97.2232 127.855 96.3864 128.574 95.4182 129.072C93.8912 129.882 87.4682 130.089 86.7332 126.447C86.7332 126.396 86.7062 126.345 86.6972 126.294C86.665 126.068 86.6846 125.839 86.7545 125.622C86.8245 125.405 86.9429 125.207 87.1007 125.043C87.2586 124.878 87.4518 124.752 87.6657 124.674C87.8796 124.595 88.1085 124.567 88.3352 124.59C88.9441 124.631 89.5557 124.597 90.1562 124.488C92.4622 124.139 94.8154 124.264 97.0712 124.857C97.2849 124.914 97.4819 125.021 97.6457 125.169C97.8095 125.318 97.9353 125.503 98.0126 125.71C98.0899 125.918 98.1164 126.14 98.0899 126.36C98.0633 126.579 97.9846 126.789 97.8602 126.972Z" fill="#263238"/>
<path d="M51.7529 125.76C51.809 125.738 51.8588 125.702 51.8976 125.656C51.9363 125.61 51.9629 125.555 51.9749 125.496C51.9863 125.46 51.9879 125.422 51.9795 125.386C51.971 125.349 51.9528 125.316 51.9269 125.289C51.6959 125.049 50.7569 125.22 50.6519 125.241C50.6397 125.242 50.6281 125.247 50.6189 125.255C50.6097 125.263 50.6034 125.274 50.6009 125.286C50.5985 125.298 50.5995 125.31 50.6037 125.321C50.608 125.332 50.6153 125.342 50.6249 125.349C50.8121 125.486 51.0132 125.602 51.2249 125.697C51.3881 125.779 51.5749 125.801 51.7529 125.76ZM51.8369 125.373C51.8479 125.385 51.8554 125.401 51.8586 125.417C51.8618 125.433 51.8605 125.45 51.8549 125.466C51.848 125.505 51.8311 125.542 51.8059 125.573C51.7807 125.604 51.748 125.628 51.7109 125.643C51.5399 125.706 51.2129 125.589 50.8109 125.343C51.2009 125.277 51.7139 125.244 51.8369 125.373Z" fill="#92E3A9"/>
<path d="M50.6697 125.361C50.9697 125.325 51.6177 124.986 51.6747 124.692C51.6847 124.644 51.6775 124.594 51.6545 124.551C51.6315 124.507 51.5941 124.474 51.5487 124.455C51.5065 124.432 51.4597 124.418 51.4115 124.414C51.3634 124.41 51.315 124.417 51.2697 124.434C50.9097 124.557 50.6157 125.247 50.6037 125.277C50.5994 125.286 50.5972 125.297 50.5972 125.307C50.5972 125.317 50.5994 125.328 50.6037 125.337C50.6107 125.346 50.62 125.353 50.6307 125.358L50.6697 125.361ZM51.4857 124.563C51.5577 124.602 51.5607 124.641 51.5547 124.668C51.5187 124.848 51.0777 125.127 50.7687 125.214C50.8797 124.989 51.0957 124.614 51.3117 124.548C51.3598 124.528 51.4136 124.528 51.4617 124.548L51.4857 124.563Z" fill="#92E3A9"/>
<path d="M47.8228 124.152L50.2648 125.139L52.3978 119.496L49.9528 118.509L47.8228 124.152Z" fill="#FFB573"/>
<path d="M50.5739 124.938L47.8319 123.831C47.7852 123.811 47.7327 123.808 47.6841 123.823C47.6355 123.839 47.5942 123.871 47.5679 123.915L46.3679 125.925C46.3396 125.977 46.3226 126.034 46.3181 126.093C46.3136 126.151 46.3217 126.21 46.3419 126.266C46.362 126.321 46.3938 126.372 46.435 126.414C46.4762 126.456 46.526 126.489 46.5809 126.51C47.5469 126.882 48.0299 127.011 49.2359 127.5C49.9799 127.8 51.0359 128.313 52.0559 128.73C53.0759 129.147 53.5559 128.169 53.1629 127.905C51.4199 126.726 51.3629 126.045 50.9279 125.253C50.8504 125.11 50.7251 124.998 50.5739 124.938Z" fill="#263238"/>
<path d="M52.365 122.265L48.123 120.549L48.513 118.995L53.064 120.66L52.365 122.265Z" fill="#92E3A9"/>
<path d="M56.6128 56.949C55.7518 59.442 53.2048 65.31 51.2398 62.865C50.886 62.4331 50.597 61.9521 50.3818 61.437C49.5508 59.382 49.3438 56.052 49.2388 55.323L48.5698 53.04C48.5579 53.0011 48.5519 52.9607 48.5518 52.92V51.615C48.5518 51.087 48.9778 50.772 49.5538 50.82C49.5538 50.82 50.4838 50.712 50.4838 51.267L50.6638 53.226C50.7568 53.907 50.4868 54.855 50.6458 55.479C51.2458 57.828 52.0708 57.936 52.5898 60.36C53.3128 58.611 54.6058 55.584 54.6058 55.584C55.4638 55.692 56.8948 56.13 56.6128 56.949Z" fill="#FFB573"/>
<path d="M53.5349 63.7589C53.3999 63.9694 53.2159 64.144 52.9986 64.2677C52.7812 64.3914 52.5371 64.4604 52.2872 64.469C52.0373 64.4776 51.7891 64.4253 51.5638 64.3168C51.3385 64.2083 51.143 64.0467 50.9939 63.8459C50.6383 63.3734 50.3589 62.848 50.1659 62.2889C49.3859 59.7299 48.9029 58.1459 48.8369 55.4729C49.1133 55.1936 49.4626 54.9974 49.845 54.9068C50.2273 54.8161 50.6275 54.8345 50.9999 54.9599L52.2779 59.2889C52.2779 59.2889 54.8789 52.8239 55.9319 52.5929C57.1709 52.3199 57.6869 53.4269 58.2119 54.7889C58.5899 55.7669 55.2299 61.1459 53.5349 63.7589Z" fill="#92E3A9"/>
<path d="M64.0441 46.1221C63.7441 47.6221 63.0901 50.8981 64.1401 51.9001C64.1401 51.9001 63.7291 53.4211 60.9421 53.4211C57.8731 53.4211 59.4751 51.9001 59.4751 51.9001C61.1491 51.5011 61.1041 50.2591 60.8131 49.0921L64.0441 46.1221Z" fill="#FFB573"/>
<path d="M59.355 42.6C59.3729 42.6028 59.3911 42.6028 59.409 42.6C59.4367 42.5847 59.4574 42.5593 59.4669 42.5292C59.4764 42.499 59.474 42.4663 59.46 42.438C59.3798 42.2656 59.2591 42.1153 59.1081 41.9998C58.9571 41.8843 58.7803 41.8072 58.593 41.775C58.5774 41.7729 58.5615 41.774 58.5463 41.7781C58.5311 41.7823 58.517 41.7896 58.5046 41.7994C58.4923 41.8092 58.4821 41.8214 58.4746 41.8352C58.4671 41.8491 58.4625 41.8643 58.461 41.88C58.4589 41.8956 58.46 41.9114 58.4642 41.9266C58.4684 41.9418 58.4756 41.956 58.4854 41.9683C58.4952 41.9806 58.5074 41.9909 58.5212 41.9984C58.5351 42.0059 58.5503 42.0105 58.566 42.012C58.7137 42.0408 58.8524 42.1042 58.9708 42.197C59.0891 42.2898 59.1838 42.4094 59.247 42.546C59.2586 42.5637 59.2747 42.578 59.2937 42.5875C59.3127 42.597 59.3338 42.6013 59.355 42.6Z" fill="#263238"/>
<path d="M58.4401 43.896C58.2027 44.3346 57.9059 44.7385 57.5581 45.096C57.6523 45.1823 57.7641 45.2472 57.8859 45.286C58.0076 45.3249 58.1363 45.3368 58.2631 45.321L58.4401 43.896Z" fill="#ED893E"/>
<path d="M58.68 43.4579C58.725 43.6559 58.653 43.8419 58.524 43.8689C58.395 43.8959 58.251 43.7579 58.209 43.5689C58.167 43.3799 58.236 43.1849 58.368 43.1549C58.5 43.1249 58.638 43.2569 58.68 43.4579Z" fill="#263238"/>
<path d="M58.428 43.1461L57.918 43.1101C57.918 43.1101 58.245 43.4311 58.428 43.1461Z" fill="#263238"/>
<path opacity="0.2" d="M56.5051 55.671C57.0361 55.182 57.4051 55.329 57.6391 55.716C57.8821 56.838 56.4391 59.19 55.8721 60.081L56.5051 55.671Z" fill="black"/>
<path d="M68.79 57.15C68.721 58.386 68.604 59.943 68.415 61.902C68.217 63.969 67.935 66.48 67.548 69.531C63.471 69.531 59.202 69.468 57.219 69.468C57.387 65.415 57.447 61.308 55.629 53.244C55.6062 53.144 55.6037 53.0405 55.6218 52.9395C55.6398 52.8386 55.6779 52.7423 55.7339 52.6564C55.7899 52.5705 55.8625 52.4967 55.9476 52.4394C56.0326 52.3821 56.1283 52.3425 56.229 52.323C57.4141 52.1081 58.6114 51.9669 59.814 51.9C61.367 51.7889 62.926 51.7889 64.479 51.9C66.48 52.083 68.754 52.548 68.754 52.548C68.754 52.548 69 53.292 68.79 57.15Z" fill="#92E3A9"/>
<path opacity="0.2" d="M68.79 57.1499C68.721 58.3859 68.604 59.9429 68.415 61.9019C67.317 60.6299 66.279 56.2499 66.615 54.7529C67.4335 55.3583 68.1531 56.0869 68.748 56.9129C68.7664 56.9911 68.7804 57.0702 68.79 57.1499Z" fill="black"/>
<path d="M79.377 62.6401L81.477 61.4641L81.867 63.6031C81.867 63.6031 80.097 64.2841 79.167 63.8071L79.377 62.6401Z" fill="#FFB573"/>
<path d="M82.8658 61.7069L83.0128 62.4059C83.0343 62.5131 83.024 62.6243 82.9829 62.7256C82.9418 62.8269 82.8719 62.914 82.7818 62.9759L81.8578 63.5999L81.4678 61.4609L82.1908 61.2809C82.2631 61.2628 82.3384 61.2596 82.4121 61.2714C82.4858 61.2832 82.5563 61.3098 82.6194 61.3496C82.6824 61.3894 82.7368 61.4416 82.7792 61.503C82.8215 61.5644 82.851 61.6338 82.8658 61.7069Z" fill="#FFB573"/>
<path d="M66.7798 55.0259C67.4488 56.3879 69.9028 61.5329 70.9798 62.7209L71.1928 62.9429L71.2978 63.0539C71.3338 63.0899 71.3638 63.1229 71.4208 63.1739C71.6144 63.3578 71.8277 63.5197 72.0568 63.6569C72.4659 63.8932 72.9062 64.0709 73.3648 64.1849C74.1688 64.3714 74.9941 64.4491 75.8188 64.4159C77.3554 64.3544 78.8778 64.0963 80.3488 63.6479L80.0998 62.3999C79.4068 62.4599 78.6808 62.5019 77.9788 62.5139C77.2831 62.5344 76.5868 62.5123 75.8938 62.4479C75.2512 62.4017 74.6165 62.2778 74.0038 62.0789C73.7562 61.9957 73.5219 61.8775 73.3078 61.7279C73.2258 61.6703 73.1503 61.6039 73.0828 61.5299C73.0591 61.5054 73.037 61.4793 73.0168 61.4519L72.9388 61.3589L72.7798 61.1729C71.9518 60.1349 69.7648 55.1309 69.1078 53.8799L66.7798 55.0259Z" fill="#FFB573"/>
<path d="M79.3438 64.77C77.6148 65.6889 75.5922 65.8852 73.7188 65.316C71.9317 64.7413 70.424 63.5193 69.4918 61.89C68.4088 60.297 65.5258 55.791 65.8918 54.627C66.3208 53.235 67.2328 52.371 68.7568 52.746C69.8278 53.004 71.8708 58.206 72.8608 60.285C73.2478 60.864 73.9918 61.785 74.8228 62.067C76.2898 62.574 77.3698 62.367 78.9058 62.136C79.1878 62.304 79.1667 62.565 79.3077 62.856C79.4591 63.1512 79.5411 63.4771 79.5473 63.8088C79.5536 64.1405 79.4839 64.4693 79.3438 64.77Z" fill="#92E3A9"/>
<path d="M65.556 43.719C65.097 46.185 64.956 47.238 63.54 48.36C61.416 50.046 58.485 48.942 58.2 46.386C57.942 44.085 58.737 40.437 61.293 39.75C61.8558 39.5955 62.4488 39.5875 63.0156 39.7268C63.5824 39.8661 64.1041 40.1479 64.5313 40.5457C64.9585 40.9434 65.2769 41.4437 65.4562 41.9991C65.6355 42.5545 65.6699 43.1465 65.556 43.719Z" fill="#FFB573"/>
<path d="M74.3097 57.372C73.8387 57.909 73.6917 58.221 73.0347 58.512C72.3777 58.803 70.9557 58.548 70.5027 57.993C70.6497 58.425 71.5077 59.193 71.9577 59.262C71.4498 59.5405 70.8622 59.6376 70.2917 59.5372C69.7212 59.4369 69.202 59.1451 68.8197 58.71C68.8825 58.9806 69.0136 59.2305 69.2006 59.4359C69.3876 59.6412 69.6242 59.7952 69.8877 59.883C64.1397 60.033 66.5607 57.327 62.9607 53.478C58.9767 49.218 59.8407 45.696 59.8407 45.696C59.8502 44.8188 59.5755 43.9621 59.0577 43.254C58.4817 42.516 58.6497 41.52 58.8327 40.962C59.0997 40.143 59.9127 39.855 60.6927 39.807C60.8307 39 62.4927 39.147 62.6937 39.282C62.8947 39.417 62.9187 39.39 63.1017 39.282C63.5067 39.021 64.5267 38.751 65.6187 39.633C66.2847 40.173 66.9987 41.133 67.0227 43.197C67.0467 45.336 66.0237 47.877 69.5637 51.126C71.6487 53.034 70.6497 57.147 74.3097 57.372Z" fill="#263238"/>
<path d="M59.3668 43.9051C59.0879 44.3006 58.9719 44.7883 59.0428 45.2671C59.1448 45.9001 59.7598 45.9421 60.2068 45.5371C60.6538 45.1321 61.0438 44.4001 60.7138 43.8751C60.3838 43.3501 59.7148 43.4251 59.3668 43.9051Z" fill="#FFB573"/>
<path d="M64.9347 69.528C64.9347 69.528 63.7077 86.751 62.3277 98.109C61.9128 101.518 60.8734 104.821 59.2617 107.853L52.4997 120.621L49.0317 119.256C49.0317 119.256 51.4317 107.121 56.1087 100.503C56.1087 100.503 52.6107 80.724 57.1887 69.468L64.9347 69.528Z" fill="#263238"/>
<path opacity="0.2" d="M60.2189 73.7009C60.2189 73.7009 61.2509 81.5009 61.8149 86.1419C59.6999 83.3519 58.0589 79.4579 60.2189 73.7009Z" fill="black"/>
<path d="M73.6917 127.377C73.732 127.332 73.7599 127.277 73.7725 127.219C73.7852 127.16 73.7821 127.098 73.7637 127.041C73.7568 127.004 73.74 126.97 73.7152 126.942C73.6903 126.914 73.6584 126.893 73.6227 126.882C73.3017 126.774 72.5547 127.359 72.4707 127.425C72.4614 127.433 72.4546 127.443 72.4509 127.455C72.4472 127.467 72.4468 127.479 72.4497 127.491C72.4535 127.502 72.4603 127.512 72.4693 127.519C72.4783 127.527 72.4892 127.531 72.5007 127.533C72.734 127.568 72.9704 127.577 73.2057 127.56C73.384 127.557 73.5557 127.492 73.6917 127.377ZM73.5807 126.999C73.5967 127.004 73.611 127.013 73.6217 127.026C73.6324 127.039 73.639 127.054 73.6407 127.071C73.6539 127.108 73.657 127.149 73.6496 127.188C73.6422 127.227 73.6247 127.263 73.5987 127.293C73.4787 127.428 73.1367 127.476 72.6687 127.428C72.9747 127.2 73.4127 126.939 73.5807 126.999Z" fill="#92E3A9"/>
<path d="M72.546 127.524C72.783 127.359 73.206 126.756 73.116 126.471C73.1017 126.423 73.0715 126.382 73.0306 126.355C72.9896 126.327 72.9403 126.314 72.891 126.318C72.8432 126.317 72.7957 126.326 72.7517 126.344C72.7077 126.363 72.6682 126.391 72.636 126.426C72.375 126.702 72.444 127.446 72.447 127.479C72.4487 127.49 72.4529 127.5 72.4591 127.509C72.4654 127.517 72.4735 127.525 72.483 127.53C72.4938 127.533 72.5051 127.533 72.516 127.53C72.5263 127.531 72.5368 127.529 72.546 127.524ZM72.888 126.441C72.969 126.441 72.99 126.477 72.999 126.504C73.05 126.681 72.795 127.128 72.564 127.347C72.5291 127.058 72.5857 126.765 72.726 126.51C72.76 126.472 72.8072 126.448 72.858 126.444L72.888 126.441Z" fill="#92E3A9"/>
<path d="M69.4559 127.767L72.0839 127.515L71.2799 121.545L68.6519 121.8L69.4559 127.767Z" fill="#FFB573"/>
<path d="M72.2608 127.2L69.3088 127.485C69.258 127.489 69.2104 127.511 69.175 127.547C69.1396 127.584 69.1189 127.632 69.1168 127.683L69.0088 130.014C69.0088 130.073 69.0214 130.132 69.0456 130.186C69.0698 130.24 69.1052 130.288 69.1494 130.327C69.1936 130.367 69.2456 130.396 69.302 130.414C69.3584 130.432 69.418 130.438 69.4768 130.431C70.5028 130.317 70.9768 130.209 72.2908 130.083C73.0888 130.005 74.2648 129.975 75.3688 129.87C76.4728 129.765 76.4218 128.685 75.9688 128.631C73.8688 128.394 73.4818 127.824 72.7318 127.317C72.5932 127.224 72.4266 127.183 72.2608 127.2Z" fill="#263238"/>
<path d="M67.5328 69.5251C67.5328 69.5251 70.8958 90.0781 71.5408 102.252L71.6638 124.062L68.9428 124.593C68.9428 124.593 65.0038 110.679 64.5478 102.636C63.3478 81.3001 56.3968 81.2641 60.5788 69.4861L67.5328 69.5251Z" fill="#263238"/>
<path d="M72.567 124.152L68.064 124.767L67.605 123.039L72.42 122.412L72.567 124.152Z" fill="#92E3A9"/>
<path d="M48.2999 47.4751H48.4709C48.4302 47.475 48.3899 47.4833 48.3525 47.4993C48.3151 47.5153 48.2813 47.5387 48.2533 47.5682C48.2252 47.5977 48.2034 47.6325 48.1893 47.6707C48.1751 47.7088 48.1689 47.7495 48.1709 47.7901L48.4469 53.0131C48.4551 53.0951 48.4933 53.1711 48.5542 53.2265C48.6152 53.2819 48.6945 53.3128 48.7769 53.3131H48.5999C48.5177 53.3121 48.4387 53.281 48.3779 53.2257C48.3171 53.1705 48.2787 53.0948 48.2699 53.0131L47.9999 47.7901C47.9979 47.7495 48.0041 47.7088 48.0183 47.6707C48.0324 47.6325 48.0542 47.5977 48.0823 47.5682C48.1103 47.5387 48.1441 47.5153 48.1815 47.4993C48.2189 47.4833 48.2592 47.475 48.2999 47.4751Z" fill="#92E3A9"/>
<path opacity="0.1" d="M48.2999 47.4751H48.4709C48.4302 47.475 48.3899 47.4833 48.3525 47.4993C48.3151 47.5153 48.2813 47.5387 48.2533 47.5682C48.2252 47.5977 48.2034 47.6325 48.1893 47.6707C48.1751 47.7088 48.1689 47.7495 48.1709 47.7901L48.4469 53.0131C48.4551 53.0951 48.4933 53.1711 48.5542 53.2265C48.6152 53.2819 48.6945 53.3128 48.7769 53.3131H48.5999C48.5177 53.3121 48.4387 53.281 48.3779 53.2257C48.3171 53.1705 48.2787 53.0948 48.2699 53.0131L47.9999 47.7901C47.9979 47.7495 48.0041 47.7088 48.0183 47.6707C48.0324 47.6325 48.0542 47.5977 48.0823 47.5682C48.1103 47.5387 48.1441 47.5153 48.1815 47.4993C48.2189 47.4833 48.2592 47.475 48.2999 47.4751Z" fill="white"/>
<path d="M48.6449 53.328H50.7449C50.8244 53.328 50.9007 53.2964 50.957 53.2401C51.0133 53.1839 51.0449 53.1076 51.0449 53.028L50.7719 47.805C50.7666 47.7206 50.7297 47.6413 50.6685 47.5829C50.6074 47.5245 50.5264 47.4913 50.4419 47.49H48.3419C48.3012 47.4899 48.2609 47.4982 48.2235 47.5142C48.1861 47.5302 48.1523 47.5536 48.1243 47.5831C48.0962 47.6126 48.0744 47.6474 48.0603 47.6856C48.0461 47.7237 48.0398 47.7644 48.0419 47.805L48.3149 53.028C48.3237 53.1097 48.3621 53.1853 48.4229 53.2406C48.4837 53.2959 48.5627 53.327 48.6449 53.328Z" fill="#92E3A9"/>
<path opacity="0.4" d="M48.6449 53.328H50.7449C50.8244 53.328 50.9007 53.2964 50.957 53.2401C51.0133 53.1839 51.0449 53.1076 51.0449 53.028L50.7719 47.805C50.7666 47.7206 50.7297 47.6413 50.6685 47.5829C50.6074 47.5245 50.5264 47.4913 50.4419 47.49H48.3419C48.3012 47.4899 48.2609 47.4982 48.2235 47.5142C48.1861 47.5302 48.1523 47.5536 48.1243 47.5831C48.0962 47.6126 48.0744 47.6474 48.0603 47.6856C48.0461 47.7237 48.0398 47.7644 48.0419 47.805L48.3149 53.028C48.3237 53.1097 48.3621 53.1853 48.4229 53.2406C48.4837 53.2959 48.5627 53.327 48.6449 53.328Z" fill="white"/>
<path d="M50.9189 52.905C50.9205 52.9312 50.9168 52.9575 50.908 52.9822C50.8993 53.007 50.8856 53.0297 50.8679 53.049C50.8301 53.0858 50.7795 53.1062 50.7269 53.106H48.6839C48.6267 53.1053 48.572 53.0829 48.5308 53.0434C48.4895 53.0038 48.4649 52.9501 48.4619 52.893L48.1949 47.826C48.1929 47.8002 48.1965 47.7744 48.2052 47.7501C48.214 47.7258 48.2279 47.7036 48.2459 47.685C48.2639 47.6657 48.2857 47.6504 48.31 47.6401C48.3343 47.6298 48.3605 47.6246 48.3869 47.625H50.4299C50.487 47.6257 50.5417 47.6481 50.5829 47.6876C50.6242 47.7272 50.6488 47.781 50.6519 47.838L50.6699 48.201L50.9189 52.905Z" fill="#263238"/>
<g opacity="0.1">
<path d="M50.6702 48.2009L49.9922 53.0999H49.1792L49.9472 47.6189H50.4302C50.4873 47.6196 50.5421 47.642 50.5833 47.6815C50.6245 47.7211 50.6492 47.7748 50.6522 47.8319L50.6702 48.2009Z" fill="white"/>
<path d="M48.8851 53.106H48.7021L49.4701 47.625H49.6531L48.8851 53.106Z" fill="white"/>
</g>
<path d="M56.5558 70.1099C55.0283 73.1203 54.2075 76.4395 54.1558 79.8149C59.2558 83.7719 64.0048 79.1369 69.8428 79.9199C69.6388 77.2829 68.7418 72.4199 67.6798 69.9839C63.8128 70.1489 60.2008 69.7619 56.5558 70.1099Z" fill="#92E3A9"/>
<path d="M57.0871 69.0391C57.0871 69.0391 56.6761 70.0981 56.7871 70.0981H67.5001C67.5931 70.0981 67.6681 70.0531 67.6741 69.9931L67.7671 69.0931C67.7671 69.0301 67.6921 68.9761 67.5931 68.9761H57.2551C57.2241 68.9719 57.1925 68.9754 57.1631 68.9864C57.1338 68.9974 57.1077 69.0155 57.0871 69.0391Z" fill="white"/>
<path d="M58.5958 70.2001H58.3198C58.2628 70.2001 58.2208 70.1701 58.2238 70.1341L58.3558 68.9341C58.3558 68.8981 58.4068 68.8711 58.4608 68.8711H58.7398C58.7938 68.8711 58.8358 68.8981 58.8328 68.9341L58.7038 70.1341C58.6954 70.1553 58.6803 70.1733 58.6608 70.1852C58.6414 70.1971 58.6185 70.2023 58.5958 70.2001Z" fill="#92E3A9"/>
<path d="M65.3037 70.2001H65.0277C64.9737 70.2001 64.9317 70.1701 64.9347 70.1341L65.0637 68.9341C65.0637 68.8981 65.1147 68.8711 65.1717 68.8711H65.4477C65.5017 68.8711 65.5437 68.8981 65.5407 68.9341L65.4117 70.1341C65.3997 70.1581 65.3607 70.2001 65.3037 70.2001Z" fill="#92E3A9"/>
</svg>
