<svg width="30" height="30" viewBox="0 0 30 30" fill="none" xmlns="http://www.w3.org/2000/svg">
<path fill-rule="evenodd" clip-rule="evenodd" d="M6.58236 9.3864C6.58236 9.3864 10.1828 7.41804 6.58236 3.75C2.98164 7.41804 6.58236 9.3864 6.58236 9.3864ZM11.8237 18.0271C12.0976 18.0271 12.3199 18.2494 12.3199 18.5233C12.3199 18.7972 12.0976 19.0192 11.8237 19.0192C11.5498 19.0192 11.3279 18.7972 11.3279 18.5233C11.3279 18.2494 11.5498 18.0271 11.8237 18.0271ZM12.0995 20.1397C12.3734 20.1397 12.5953 20.3619 12.5953 20.6358C12.5953 20.9097 12.3734 21.1317 12.0995 21.1317C11.8256 21.1317 11.6033 20.9097 11.6033 20.6358C11.6033 20.3619 11.8256 20.1397 12.0995 20.1397ZM14.359 20.7275C14.6329 20.7275 14.8548 20.9497 14.8548 21.2236C14.8548 21.4975 14.6329 21.7195 14.359 21.7195C14.0851 21.7195 13.8631 21.4975 13.8631 21.2236C13.8631 20.9497 14.0851 20.7275 14.359 20.7275ZM13.7159 18.7068C13.9898 18.7068 14.212 18.9291 14.212 19.203C14.212 19.4769 13.9898 19.6989 13.7159 19.6989C13.442 19.6989 13.22 19.4769 13.22 19.203C13.22 18.9291 13.442 18.7068 13.7159 18.7068ZM13.2566 16.6312C13.5305 16.6312 13.7527 16.8531 13.7527 17.127C13.7527 17.4009 13.5305 17.6232 13.2566 17.6232C12.9827 17.6232 12.7607 17.4009 12.7607 17.127C12.7607 16.8531 12.9827 16.6312 13.2566 16.6312ZM15.6375 19.0318L17.0605 18.7462L16.8785 17.8405L15.458 18.1258L15.6375 19.0318ZM24.0876 15.6844C24.0575 16.0969 23.7562 16.46 23.3326 16.5457L17.4199 17.732L17.6019 18.6377L23.5109 17.452C24.4396 17.2654 25.0757 16.4117 25.0093 15.4861L25.8614 15.2789C26.0978 15.2214 26.2441 14.9813 26.1866 14.7449L25.1116 10.3209C25.0541 10.0845 24.8137 9.9379 24.5773 9.99569L22.9517 10.3907C22.7153 10.4482 22.569 10.6883 22.6265 10.9247L23.7015 15.3487C23.747 15.5353 23.9063 15.6656 24.0876 15.6844ZM20.0249 6.95969V7.28954H16.4361H15.9855H15.1115V6.60893H16.4647C16.7998 4.59262 20.0249 4.70913 20.0249 6.95969ZM20.0249 7.80477V8.14722C20.0249 10.5211 16.4361 10.5211 16.4361 8.14722V7.80477H20.0249ZM16.1466 16.7425C15.4066 17.6367 14.0448 16.5104 14.785 15.6158L19.174 10.3166C19.1986 10.2871 19.2244 10.2595 19.2517 10.2339C19.909 9.4694 21.668 8.98093 22.1645 11.3812C22.2967 12.0203 22.799 14.4624 23.1454 16.1485L19.707 16.8384L19.2038 13.2361L19.1875 13.0707L16.1466 16.7425ZM23.5435 17.8802L24.1543 19.9048L27.5691 24.4281C28.2663 25.3525 26.859 26.414 26.1617 25.4896L22.6579 20.8483C22.5945 20.7659 22.5444 20.6706 22.5125 20.5648L21.8076 18.2285L23.5435 17.8802ZM21.3215 18.3259L18.09 20.8061V25.5563C18.09 26.7198 16.3206 26.7198 16.3206 25.5563L16.3227 20.3724C16.3227 20.1068 16.4423 19.8443 16.6695 19.6709L17.3956 19.1138L21.3215 18.3259ZM6.3973 18.8461H6.76711C6.81446 17.4978 9.43914 16.0686 10.9144 15.9235C10.738 17.7191 8.65831 21.219 7.13878 19.6995C7.09666 19.6573 7.05916 19.6146 7.02442 19.5719V25.9839H6.13969V19.5719C6.10526 19.6146 6.06775 19.6573 6.02564 19.6995C4.50579 21.219 2.42645 17.7191 2.25 15.9235C3.72496 16.0686 6.34965 17.4978 6.3973 18.8461ZM2.25 11.9803C4.04559 12.1568 7.54548 14.2364 6.02564 15.756C4.50579 17.2758 2.42645 13.7759 2.25 11.9803ZM2.25 8.03686C4.04559 8.21363 7.54548 10.293 6.02564 11.8128C4.50579 13.3327 2.42645 9.83276 2.25 8.03686ZM10.9144 11.9803C9.11882 12.1568 5.61893 14.2364 7.13878 15.756C8.65831 17.2758 10.738 13.7759 10.9144 11.9803ZM10.9144 8.03686C9.11882 8.21363 5.61893 10.293 7.13878 11.8128C8.65831 13.3327 10.738 9.83276 10.9144 8.03686Z" fill="#545454"/>
<path fill-rule="evenodd" clip-rule="evenodd" d="M9.93753 20.7675C9.93753 20.7675 10.7167 20.3249 9.93753 19.5C9.15833 20.3249 9.93753 20.7675 9.93753 20.7675ZM9.89749 22.8948H9.97751C9.98776 22.5916 10.5557 22.2702 10.875 22.2376C10.8368 22.6414 10.3868 23.4285 10.0579 23.0867C10.0488 23.0773 10.0407 23.0677 10.0332 23.0581V26H9.84174V23.0581C9.83429 23.0677 9.82617 23.0773 9.81706 23.0867C9.48816 23.4285 9.03819 22.6414 9 22.2376C9.31919 22.2702 9.88717 22.5916 9.89749 22.8948ZM9 21.3509C9.38857 21.3905 10.146 21.8582 9.81706 22.1999C9.48816 22.5417 9.03819 21.7547 9 21.3509ZM9 20.464C9.38857 20.5038 10.146 20.9714 9.81706 21.3132C9.48816 21.655 9.03819 20.8679 9 20.464ZM10.875 21.3509C10.4864 21.3905 9.72904 21.8582 10.0579 22.1999C10.3868 22.5417 10.8368 21.7547 10.875 21.3509ZM10.875 20.464C10.4864 20.5038 9.72904 20.9714 10.0579 21.3132C10.3868 21.655 10.8368 20.8679 10.875 20.464Z" fill="#545454"/>
<path fill-rule="evenodd" clip-rule="evenodd" d="M3.18753 20.7675C3.18753 20.7675 3.96667 20.3249 3.18753 19.5C2.40833 20.3249 3.18753 20.7675 3.18753 20.7675ZM3.14749 22.8948H3.22751C3.23776 22.5916 3.80575 22.2702 4.125 22.2376C4.08681 22.6414 3.63677 23.4285 3.30794 23.0867C3.29883 23.0773 3.29071 23.0677 3.2832 23.0581V26H3.09174V23.0581C3.08429 23.0677 3.07617 23.0773 3.06706 23.0867C2.73816 23.4285 2.28819 22.6414 2.25 22.2376C2.56919 22.2702 3.13717 22.5916 3.14749 22.8948ZM2.25 21.3509C2.63857 21.3905 3.39596 21.8582 3.06706 22.1999C2.73816 22.5417 2.28819 21.7547 2.25 21.3509ZM2.25 20.464C2.63857 20.5038 3.39596 20.9714 3.06706 21.3132C2.73816 21.655 2.28819 20.8679 2.25 20.464ZM4.125 21.3509C3.73643 21.3905 2.97904 21.8582 3.30794 22.1999C3.63677 22.5417 4.08681 21.7547 4.125 21.3509ZM4.125 20.464C3.73643 20.5038 2.97904 20.9714 3.30794 21.3132C3.63677 21.655 4.08681 20.8679 4.125 20.464Z" fill="#545454"/>
<path fill-rule="evenodd" clip-rule="evenodd" d="M5.00483 23.1825C5.00483 23.1825 5.42436 22.9442 5.00483 22.5C4.58525 22.9442 5.00483 23.1825 5.00483 23.1825ZM4.98326 24.328H5.02635C5.03187 24.1647 5.33771 23.9917 5.50962 23.9741C5.48905 24.1915 5.24672 24.6153 5.06966 24.4313C5.06475 24.4262 5.06038 24.4211 5.05634 24.4159V26H4.95324V24.4159C4.94923 24.4211 4.94486 24.4262 4.93995 24.4313C4.76285 24.6153 4.52056 24.1915 4.5 23.9741C4.67187 23.9917 4.97771 24.1647 4.98326 24.328ZM4.5 23.4966C4.70923 23.518 5.11705 23.7698 4.93995 23.9538C4.76285 24.1378 4.52056 23.714 4.5 23.4966ZM4.5 23.0191C4.70923 23.0405 5.11705 23.2923 4.93995 23.4763C4.76285 23.6604 4.52056 23.2366 4.5 23.0191ZM5.50962 23.4966C5.30038 23.518 4.89256 23.7698 5.06966 23.9538C5.24672 24.1378 5.48905 23.714 5.50962 23.4966ZM5.50962 23.0191C5.30038 23.0405 4.89256 23.2923 5.06966 23.4763C5.24672 23.6604 5.48905 23.2366 5.50962 23.0191Z" fill="#545454"/>
<path fill-rule="evenodd" clip-rule="evenodd" d="M8.00483 23.1825C8.00483 23.1825 8.42436 22.9442 8.00483 22.5C7.58525 22.9442 8.00483 23.1825 8.00483 23.1825ZM7.98326 24.328H8.02635C8.03187 24.1647 8.33771 23.9917 8.50962 23.9741C8.48905 24.1915 8.24672 24.6153 8.06966 24.4313C8.06475 24.4262 8.06038 24.4211 8.05634 24.4159V26H7.95324V24.4159C7.94923 24.4211 7.94486 24.4262 7.93995 24.4313C7.76285 24.6153 7.52056 24.1915 7.5 23.9741C7.67187 23.9917 7.97771 24.1647 7.98326 24.328ZM7.5 23.4966C7.70923 23.518 8.11705 23.7698 7.93995 23.9538C7.76285 24.1378 7.52056 23.714 7.5 23.4966ZM7.5 23.0191C7.70923 23.0405 8.11705 23.2923 7.93995 23.4763C7.76285 23.6604 7.52056 23.2366 7.5 23.0191ZM8.50962 23.4966C8.30038 23.518 7.89256 23.7698 8.06966 23.9538C8.24672 24.1378 8.48905 23.714 8.50962 23.4966ZM8.50962 23.0191C8.30038 23.0405 7.89256 23.2923 8.06966 23.4763C8.24672 23.6604 8.48905 23.2366 8.50962 23.0191Z" fill="#545454"/>
<path fill-rule="evenodd" clip-rule="evenodd" d="M11.7548 23.1825C11.7548 23.1825 12.1744 22.9442 11.7548 22.5C11.3353 22.9442 11.7548 23.1825 11.7548 23.1825ZM11.7333 24.328H11.7764C11.7819 24.1647 12.0877 23.9917 12.2596 23.9741C12.2391 24.1915 11.9967 24.6153 11.8197 24.4313C11.8148 24.4262 11.8104 24.4211 11.8063 24.4159V26H11.7032V24.4159C11.6992 24.4211 11.6949 24.4262 11.69 24.4313C11.5129 24.6153 11.2706 24.1915 11.25 23.9741C11.4219 23.9917 11.7277 24.1647 11.7333 24.328ZM11.25 23.4966C11.4592 23.518 11.8671 23.7698 11.69 23.9538C11.5129 24.1378 11.2706 23.714 11.25 23.4966ZM11.25 23.0191C11.4592 23.0405 11.8671 23.2923 11.69 23.4763C11.5129 23.6604 11.2706 23.2366 11.25 23.0191ZM12.2596 23.4966C12.0504 23.518 11.6426 23.7698 11.8197 23.9538C11.9967 24.1378 12.2391 23.714 12.2596 23.4966ZM12.2596 23.0191C12.0504 23.0405 11.6426 23.2923 11.8197 23.4763C11.9967 23.6604 12.2391 23.2366 12.2596 23.0191Z" fill="#545454"/>
</svg>
