<svg width="75" height="75" viewBox="0 0 75 75" fill="none" xmlns="http://www.w3.org/2000/svg">
<circle cx="37.5" cy="37.5" r="36.75" stroke="#006837" stroke-width="1.5" stroke-dasharray="4 4"/>
<path d="M43.927 41.2462L43.1678 42.0453C43.1678 42.0453 41.3635 43.945 36.4385 38.7598C31.5135 33.5747 33.3178 31.6751 33.3178 31.6751L33.7959 31.1719C34.9735 29.9321 35.0845 27.9416 34.0571 26.4885L31.9554 23.516C30.6838 21.7175 28.2266 21.4799 26.7691 23.0144L24.1531 25.7686C23.4304 26.5294 22.9461 27.5157 23.0048 28.6099C23.1551 31.4091 24.3512 37.4317 31.0256 44.4587C38.1035 51.9103 44.7447 52.2065 47.4605 51.9385C48.3195 51.8537 49.0665 51.3905 49.6685 50.7567L52.0362 48.264C53.6343 46.5815 53.1837 43.697 51.1388 42.52L47.9547 40.6872C46.612 39.9143 44.9763 40.1413 43.927 41.2462Z" fill="#006837"/>
<path d="M40.0998 20.1331C40.2101 19.4516 40.8543 18.9893 41.5358 19.0996C41.578 19.1077 41.7138 19.1331 41.7848 19.1489C41.9271 19.1806 42.1255 19.2294 42.3728 19.3014C42.8675 19.4455 43.5585 19.6828 44.3878 20.063C46.0483 20.8243 48.258 22.156 50.551 24.449C52.844 26.742 54.1756 28.9517 54.9368 30.6121C55.3171 31.4415 55.5545 32.1325 55.6985 32.6271C55.7705 32.8745 55.8193 33.0729 55.851 33.2151C55.8668 33.2862 55.8785 33.3433 55.8865 33.3855L55.8961 33.4375C56.0063 34.1189 55.5483 34.7899 54.8668 34.9002C54.1873 35.0102 53.5471 34.5501 53.4341 33.8719C53.4306 33.8536 53.421 33.8047 53.4108 33.7586C53.3901 33.6662 53.3546 33.5199 53.2983 33.3263C53.1855 32.939 52.9896 32.3635 52.6643 31.654C52.0146 30.2368 50.8463 28.2799 48.7831 26.2167C46.7201 24.1536 44.7631 22.9853 43.346 22.3356C42.6365 22.0103 42.061 21.8145 41.6736 21.7017C41.4801 21.6453 41.2368 21.5894 41.1445 21.5689C40.4661 21.4558 39.9898 20.8126 40.0998 20.1331Z" fill="#006837"/>
<path fill-rule="evenodd" clip-rule="evenodd" d="M40.4761 25.8822C40.6658 25.2184 41.3576 24.834 42.0215 25.0236L41.6781 26.2256C42.0215 25.0236 42.0215 25.0236 42.0215 25.0236L42.024 25.0243L42.0265 25.0251L42.032 25.0267L42.045 25.0306L42.078 25.0408C42.103 25.0489 42.1345 25.0593 42.1718 25.0726C42.2466 25.0992 42.3456 25.1369 42.467 25.1889C42.7098 25.293 43.0415 25.4537 43.4491 25.6949C44.2648 26.1777 45.3785 26.9797 46.6868 28.2879C47.9951 29.5962 48.797 30.7099 49.2798 31.5256C49.521 31.9332 49.6816 32.2649 49.7858 32.5077C49.8378 32.6291 49.8756 32.728 49.9021 32.8029C49.9155 32.8403 49.9258 32.8717 49.934 32.8968L49.9441 32.9298L49.948 32.9427L49.9496 32.9482L49.9503 32.9508C49.9503 32.9508 49.9511 32.9532 48.7491 33.2966L49.9511 32.9532C50.1408 33.617 49.7563 34.3088 49.0926 34.4985C48.4345 34.6865 47.7486 34.3103 47.5521 33.6569L47.546 33.6389C47.5371 33.6138 47.5188 33.5645 47.488 33.4925C47.4263 33.3486 47.3145 33.1133 47.1285 32.7989C46.7568 32.171 46.0856 31.2223 44.919 30.0557C43.7525 28.8891 42.8036 28.218 42.1758 27.8463C41.8615 27.6603 41.6261 27.5485 41.4821 27.4868C41.4101 27.456 41.3608 27.4375 41.3358 27.4287L41.3178 27.4225C40.6645 27.2261 40.2881 26.5403 40.4761 25.8822Z" fill="#006837"/>
</svg>
