<svg width="73" height="73" viewBox="0 0 73 73" fill="none" xmlns="http://www.w3.org/2000/svg">
<rect x="0.05" y="0.05" width="72.9" height="72.9" rx="36.45" fill="#006837"/>
<rect x="0.05" y="0.05" width="72.9" height="72.9" rx="36.45" stroke="black" stroke-width="0.1"/>
<path d="M23.7264 47.7272C23.0235 48.4302 23.0235 49.5697 23.7264 50.2727C24.4294 50.9756 25.5691 50.9756 26.272 50.2727L23.7264 47.7272ZM38.2719 38.2727C38.9749 37.5697 38.9749 36.4302 38.2719 35.7272C37.569 35.0243 36.4295 35.0243 35.7265 35.7272L38.2719 38.2727ZM35.7265 35.7272C35.0235 36.4302 35.0235 37.5697 35.7265 38.2727C36.4295 38.9756 37.569 38.9756 38.2719 38.2727L35.7265 35.7272ZM50.2719 26.2727C50.9749 25.5698 50.9749 24.4301 50.2719 23.7272C49.569 23.0242 48.4295 23.0242 47.7265 23.7272L50.2719 26.2727ZM38.2719 35.7272C37.569 35.0243 36.4295 35.0243 35.7265 35.7272C35.0235 36.4302 35.0235 37.5697 35.7265 38.2727L38.2719 35.7272ZM47.7265 50.2727C48.4295 50.9756 49.569 50.9756 50.2719 50.2727C50.9749 49.5697 50.9749 48.4302 50.2719 47.7272L47.7265 50.2727ZM35.7265 38.2727C36.4295 38.9756 37.569 38.9756 38.2719 38.2727C38.9749 37.5697 38.9749 36.4302 38.2719 35.7272L35.7265 38.2727ZM26.272 23.7272C25.5691 23.0242 24.4294 23.0242 23.7264 23.7272C23.0235 24.4301 23.0235 25.5698 23.7264 26.2727L26.272 23.7272ZM26.272 50.2727L38.2719 38.2727L35.7265 35.7272L23.7264 47.7272L26.272 50.2727ZM38.2719 38.2727L50.2719 26.2727L47.7265 23.7272L35.7265 35.7272L38.2719 38.2727ZM35.7265 38.2727L47.7265 50.2727L50.2719 47.7272L38.2719 35.7272L35.7265 38.2727ZM38.2719 35.7272L26.272 23.7272L23.7264 26.2727L35.7265 38.2727L38.2719 35.7272Z" fill="white"/>
</svg>
