<svg width="68" height="89" viewBox="0 0 68 89" fill="none" xmlns="http://www.w3.org/2000/svg">
<path d="M0.158691 70.2732V88.8383H67.8263V70.2732C67.8236 68.2034 67.0002 66.2191 65.5367 64.7556C64.0731 63.292 62.0889 62.4686 60.0191 62.466H7.96591C5.89613 62.4686 3.91187 63.292 2.44831 64.7556C0.984751 66.2191 0.161353 68.2034 0.158691 70.2732H0.158691ZM5.36351 70.2732C5.3645 69.5833 5.63901 68.9219 6.12683 68.4341C6.61466 67.9463 7.27602 67.6718 7.96591 67.6708H10.5683V83.6372H5.36351V70.2732ZM15.7744 67.6708H22.5042L33.9925 79.1591L45.4808 67.6708H52.2068V83.6372H15.7744V67.6708ZM62.6215 70.2732V83.6335H57.4167V67.667H60.0191C60.7096 67.668 61.3716 67.943 61.8595 68.4317C62.3474 68.9203 62.6215 69.5826 62.6215 70.2732ZM38.1199 67.6708L33.9925 71.7982L29.8651 67.6708H38.1199Z" fill="#006837"/>
<path d="M53.464 52.0513H57.4204V46.8465H60.0229C62.0926 46.8438 64.0769 46.0204 65.5405 44.5568C67.004 43.0933 67.8274 41.109 67.8301 39.0392V33.8344C67.8297 24.8606 64.2646 16.2545 57.9189 9.90936C51.5733 3.56417 42.9669 -0.000333407 33.9931 2.33902e-08C25.0193 0.000333454 16.4132 3.56547 10.068 9.91113C3.72286 16.2568 0.158358 24.8632 0.158691 33.8369L0.158691 39.0418C0.161353 41.1115 0.984751 43.0958 2.44831 44.5594C3.91187 46.0229 5.89613 46.8463 7.96591 46.849H11.9085C13.3559 50.9482 15.9159 54.5635 19.3018 57.2901C22.6876 60.0167 26.7657 61.7468 31.0792 62.2868C35.3928 62.8268 39.7715 62.1554 43.725 60.3476C47.6786 58.5398 51.0508 55.6672 53.464 52.0513ZM60.0229 41.6404H57.2696C57.3665 40.7763 57.4152 39.9075 57.4154 39.038V33.8332C57.4152 32.9637 57.3665 32.0949 57.2696 31.2308H60.0178C60.7077 31.2318 61.3691 31.5063 61.8569 31.9941C62.3447 32.4819 62.6192 33.1433 62.6202 33.8332V39.038C62.6206 39.7288 62.3467 40.3914 61.8587 40.8803C61.3707 41.3692 60.7086 41.6444 60.0178 41.6454L60.0229 41.6404ZM33.9925 5.20796C40.2502 5.21601 46.3336 7.27056 51.3148 11.0583C56.2959 14.846 59.9016 20.1589 61.5818 26.1869C61.0675 26.0821 60.5439 26.0295 60.0191 26.0297H56.0752C54.4607 21.463 51.47 17.5091 47.5151 14.7126C43.5602 11.916 38.8356 10.4144 33.9919 10.4144C29.1481 10.4144 24.4235 11.916 20.4686 14.7126C16.5137 17.5091 13.5231 21.463 11.9085 26.0297H7.96591C7.44105 26.0295 6.91751 26.0821 6.40321 26.1869C8.0834 20.1589 11.689 14.846 16.6702 11.0583C21.6514 7.27056 27.7348 5.21601 33.9925 5.20796ZM48.9381 23.4323C47.2554 25.8362 45.019 27.8 42.4178 29.158C39.8166 30.5159 36.9268 31.2281 33.9925 31.2345H15.9605C16.4815 27.616 18.0795 24.2381 20.5467 21.5402C23.0138 18.8423 26.2357 16.9493 29.7934 16.1076C33.351 15.2659 37.0796 15.5144 40.4941 16.8208C43.9086 18.1272 46.8508 20.4309 48.9381 23.4323ZM7.96591 41.6454C7.27602 41.6444 6.61466 41.3699 6.12683 40.8821C5.63901 40.3943 5.3645 39.7329 5.36351 39.043V33.8382C5.3645 33.1483 5.63901 32.487 6.12683 31.9991C6.61466 31.5113 7.27602 31.2368 7.96591 31.2358H10.7192C10.6223 32.0999 10.5736 32.9687 10.5733 33.8382V39.043C10.5736 39.9125 10.6223 40.7813 10.7192 41.6454H7.96591ZM15.7731 39.043V36.4406H33.9925C37.288 36.4345 40.5453 35.7356 43.5533 34.3893C46.5612 33.043 49.2525 31.0794 51.4525 28.6258C51.9583 30.3166 52.2145 32.0722 52.2131 33.8369V39.0418C52.2159 41.7429 51.6146 44.4104 50.453 46.849H41.7997L39.5091 44.5634C38.0448 46.0275 36.0588 46.85 33.9881 46.85C31.9174 46.85 29.9314 46.0275 28.4671 44.5634L24.7873 48.2432C27.0021 50.458 29.9416 51.7996 33.0659 52.0218C36.1903 52.244 39.29 51.3318 41.7959 49.4526V52.0513H46.7242C44.1629 54.5603 40.9179 56.2573 37.396 56.9295C33.8741 57.6017 30.2321 57.2191 26.9268 55.8298C23.6215 54.4404 20.7999 52.1061 18.8159 49.1195C16.832 46.133 15.7739 42.6272 15.7744 39.0418L15.7731 39.043Z" fill="#006837"/>
</svg>
