<svg width="30" height="30" viewBox="0 0 30 30" fill="none" xmlns="http://www.w3.org/2000/svg">
<path d="M14.2393 13.024C14.2393 13.7883 14.3675 14.5451 14.6166 15.2512C14.8658 15.9573 15.2309 16.5988 15.6913 17.1393C16.1517 17.6797 16.6982 18.1084 17.2997 18.4009C17.9011 18.6933 18.5458 18.8439 19.1968 18.8439C19.8479 18.8439 20.4926 18.6933 21.094 18.4009C21.6955 18.1084 22.242 17.6797 22.7024 17.1393C23.1628 16.5988 23.5279 15.9573 23.7771 15.2512C24.0262 14.5451 24.1544 13.7883 24.1544 13.024C24.1544 12.2597 24.0262 11.5029 23.7771 10.7968C23.5279 10.0907 23.1628 9.44913 22.7024 8.90871C22.242 8.36828 21.6955 7.93959 21.094 7.64711C20.4926 7.35464 19.8479 7.2041 19.1968 7.2041C18.5458 7.2041 17.9011 7.35464 17.2997 7.64711C16.6982 7.93959 16.1517 8.36828 15.6913 8.90871C15.2309 9.44913 14.8658 10.0907 14.6166 10.7968C14.3675 11.5029 14.2393 12.2597 14.2393 13.024Z" fill="white"/>
<path d="M19.1968 20.0258C15.9084 20.0258 13.2324 16.8845 13.2324 13.024C13.2324 9.16355 15.9084 6.02216 19.1968 6.02216C22.4853 6.02216 25.1613 9.16355 25.1613 13.024C25.1613 16.8845 22.4853 20.0258 19.1968 20.0258ZM19.1968 8.39056C17.0224 8.39056 15.2499 10.4668 15.2499 13.024C15.2499 15.5812 17.0224 17.6574 19.1968 17.6574C21.3713 17.6574 23.14 15.5767 23.14 13.0195C23.14 10.4624 21.3713 8.39056 19.1968 8.39056Z" fill="#545454"/>
<path d="M14.6185 1.62687C15.0703 1.32127 15.6483 1.50104 15.9086 2.03134L16.8542 3.95033C17.1145 4.48064 16.9614 5.15925 16.5097 5.46485C16.0579 5.77045 15.4799 5.59069 15.2196 5.06038L14.274 3.14139C14.0098 2.60659 14.1668 1.93247 14.6185 1.62687ZM26.3215 10.9926C26.4555 11.5859 26.9723 11.9364 27.4776 11.7746L29.2999 11.1994C29.8052 11.0421 30.1038 10.4354 29.966 9.84213C29.832 9.24891 29.3152 8.89836 28.8099 9.06015L26.9876 9.6354C26.4861 9.7927 26.1875 10.3994 26.3215 10.9926ZM25.8162 15.9766C25.6822 16.5698 25.9808 17.1765 26.4823 17.3338L28.3045 17.9091C28.8099 18.0664 29.3267 17.7158 29.4607 17.1271C29.5947 16.5339 29.2961 15.9272 28.7946 15.7699L26.9723 15.1946C26.4708 15.0373 25.954 15.3879 25.8162 15.9766ZM20.8816 0C21.4022 0 21.8271 0.494354 21.8271 1.11005V3.32565C21.8271 3.93685 21.406 4.4357 20.8816 4.4357C20.3609 4.4357 19.936 3.94135 19.936 3.32565V1.11005C19.936 0.498848 20.3571 0 20.8816 0ZM27.2786 3.12342C26.9111 2.69198 26.3138 2.69198 25.9425 3.12342L24.6064 4.69187C24.2389 5.1233 24.2389 5.82438 24.6064 6.26031C24.974 6.69175 25.5712 6.69175 25.9425 6.26031L27.2786 4.69187C27.6499 4.25594 27.6499 3.55485 27.2786 3.12342Z" fill="#545454"/>
<path d="M5.52262 26.021C5.43839 26.03 5.358 26.039 5.27378 26.0434C2.95768 26.1962 1.02441 23.8099 1.02441 21.055C1.02441 18.3001 2.92706 16.0665 5.27378 16.0665C5.43457 16.0665 5.59535 16.0755 5.75231 16.098C5.74848 15.9946 5.74848 15.8912 5.74848 15.7879C5.74848 11.9634 8.38998 8.86241 11.6478 8.86241C14.5267 8.86241 16.9232 11.2803 17.4438 14.4801C17.708 14.4306 17.9798 14.4037 18.2554 14.4037C20.9926 14.4037 23.213 17.0103 23.213 20.2236C23.2053 22.2774 22.3019 24.084 20.9313 25.1177C20.158 25.7019 19.2393 26.0749 18.2516 26.039C18.1176 26.0345 17.9874 26.0255 17.8573 26.0075C17.8151 26.012 17.7692 26.012 17.7271 26.012H5.52262V26.021Z" fill="white"/>
<path d="M5.05931 27.2344C3.81896 27.2344 2.63603 26.6726 1.69428 25.6255C0.626193 24.439 0.0136719 22.7717 0.0136719 21.055C0.0136719 17.8507 2.10773 15.2036 4.77219 14.9115C5.14736 10.8533 8.08364 7.68045 11.6401 7.68045C14.6414 7.68045 17.2676 9.95448 18.1941 13.2217H18.2477C21.54 13.2217 24.2159 16.3631 24.2159 20.2235C24.2159 22.6189 23.1938 24.821 21.4787 26.1153C20.4642 26.8838 19.3311 27.2658 18.2209 27.2254C18.0907 27.2209 17.9644 27.2119 17.838 27.1984C17.7998 27.1984 17.7615 27.2029 17.7232 27.2029H5.5723C5.49191 27.2119 5.41151 27.2209 5.33112 27.2254C5.23924 27.2299 5.15119 27.2344 5.05931 27.2344ZM5.26987 17.2529C3.4859 17.2529 2.03116 18.9607 2.03116 21.055C2.03116 22.1246 2.41399 23.1627 3.08011 23.9042C3.68114 24.5739 4.44679 24.9154 5.21244 24.857C5.27752 24.8525 5.34643 24.848 5.41151 24.839L5.5187 24.83H17.9567C18.0639 24.8435 18.1711 24.8525 18.2783 24.857C19.1664 24.8929 19.9168 24.475 20.38 24.12C21.5208 23.2661 22.1984 21.81 22.1984 20.2235C22.1984 17.6709 20.4259 15.5901 18.2515 15.5901C18.0333 15.5901 17.8151 15.6126 17.6045 15.653L16.6321 15.8418L16.4484 14.7048C16.0081 12.0083 13.9906 10.0489 11.6439 10.0489C8.94499 10.0489 6.7514 12.624 6.7514 15.7923C6.7514 15.8777 6.7514 15.9631 6.75523 16.0485L6.80883 17.4372L5.63355 17.2799C5.51488 17.2619 5.3962 17.2529 5.26987 17.2529Z" fill="#545454"/>
</svg>
